# https://github.com/mikedh/trimesh
mtllib material.mtl
usemtl DarkPlastic
v 2.25829720 -2.31827664 -1.21462750
v 0.91125911 -0.71195847 -1.17877507
v 0.93041426 -0.69589370 -1.17884254
v 2.25829720 -2.31827664 -1.21462750
v 0.93041426 -0.69589370 -1.17884254
v 2.27745223 -2.30221176 -1.21469498
v 2.27849674 -2.30312133 -1.13470685
v 0.93145871 -0.69680315 -1.09885454
v 0.91230357 -0.71286792 -1.09878707
v 2.27849674 -2.30312133 -1.13470685
v 0.91230357 -0.71286792 -1.09878707
v 2.25934148 -2.31918597 -1.13463950
v 2.27745223 -2.30221176 -1.21469498
v 0.93041426 -0.69589370 -1.17884254
v 0.93145871 -0.69680315 -1.09885454
v 2.27745223 -2.30221176 -1.21469498
v 0.93145871 -0.69680315 -1.09885454
v 2.27849674 -2.30312133 -1.13470685
v 0.93041426 -0.69589370 -1.17884254
v 0.91125911 -0.71195847 -1.17877507
v 0.91230357 -0.71286792 -1.09878707
v 0.93041426 -0.69589370 -1.17884254
v 0.91230357 -0.71286792 -1.09878707
v 0.93145871 -0.69680315 -1.09885454
v 0.91125911 -0.71195847 -1.17877507
v 2.25829720 -2.31827664 -1.21462750
v 2.25934148 -2.31918597 -1.13463950
v 0.91125911 -0.71195847 -1.17877507
v 2.25934148 -2.31918597 -1.13463950
v 0.91230357 -0.71286792 -1.09878707
v 2.25829720 -2.31827664 -1.21462750
v 2.27745223 -2.30221176 -1.21469498
v 2.27849674 -2.30312133 -1.13470685
v 2.25829720 -2.31827664 -1.21462750
v 2.27849674 -2.30312133 -1.13470685
v 2.25934148 -2.31918597 -1.13463950
vt -2.32964110 0.02777779
vt 2.32964110 0.02777779
vt 2.32964110 -0.02777779
vt -2.32964110 0.02777779
vt 2.32964110 -0.02777779
vt -2.32964110 -0.02777779
vt -2.32964110 -0.02777779
vt 2.32964110 -0.02777779
vt 2.32964110 0.02777779
vt -2.32964110 -0.02777779
vt 2.32964110 0.02777779
vt -2.32964110 0.02777779
vt -2.32964110 -0.08888888
vt 2.32964110 -0.08888888
vt 2.32964110 0.08888888
vt -2.32964110 -0.08888888
vt 2.32964110 0.08888888
vt -2.32964110 0.08888888
vt -0.02777778 -0.08888888
vt 0.02777778 -0.08888888
vt 0.02777778 0.08888888
vt -0.02777778 -0.08888888
vt 0.02777778 0.08888888
vt -0.02777778 0.08888888
vt 2.32964110 -0.08888888
vt -2.32964110 -0.08888888
vt -2.32964110 0.08888888
vt 2.32964110 -0.08888888
vt -2.32964110 0.08888888
vt 2.32964110 0.08888888
vt 0.02777778 -0.08888888
vt -0.02777778 -0.08888888
vt -0.02777778 0.08888888
vt 0.02777778 -0.08888888
vt -0.02777778 0.08888888
vt 0.02777778 0.08888888
f 1/1 2/2 3/3
f 4/4 5/5 6/6
f 7/7 8/8 9/9
f 10/10 11/11 12/12
f 13/13 14/14 15/15
f 16/16 17/17 18/18
f 19/19 20/20 21/21
f 22/22 23/23 24/24
f 25/25 26/26 27/27
f 28/28 29/29 30/30
f 31/31 32/32 33/33
f 34/34 35/35 36/36

