# https://github.com/mikedh/trimesh
mtllib material.mtl
usemtl photo_000
v 2.31699014 -2.28910732 -1.13505018
v 1.98151553 -1.88906002 -1.12612128
v 1.99530721 -1.87749338 -1.12616992
v 2.31699014 -2.28910732 -1.13505018
v 1.99530721 -1.87749338 -1.12616992
v 2.33078170 -2.27754068 -1.13509881
v 2.33813930 -2.28394723 -0.57161975
v 2.00266480 -1.88390005 -0.56269085
v 1.98887312 -1.89546669 -0.56264228
v 2.33813930 -2.28394723 -0.57161975
v 1.98887312 -1.89546669 -0.56264228
v 2.32434773 -2.29551387 -0.57157117
v 2.33078170 -2.27754068 -1.13509881
v 1.99530721 -1.87749338 -1.12616992
v 2.00266480 -1.88390005 -0.56269085
v 2.33078170 -2.27754068 -1.13509881
v 2.00266480 -1.88390005 -0.56269085
v 2.33813930 -2.28394723 -0.57161975
v 1.99530721 -1.87749338 -1.12616992
v 1.98151553 -1.88906002 -1.12612128
v 1.98887312 -1.89546669 -0.56264228
v 1.99530721 -1.87749338 -1.12616992
v 1.98887312 -1.89546669 -0.56264228
v 2.00266480 -1.88390005 -0.56269085
v 1.98151553 -1.88906002 -1.12612128
v 2.31699014 -2.28910732 -1.13505018
v 2.32434773 -2.29551387 -0.57157117
v 1.98151553 -1.88906002 -1.12612128
v 2.32434773 -2.29551387 -0.57157117
v 1.98887312 -1.89546669 -0.56264228
v 2.31699014 -2.28910732 -1.13505018
v 2.33078170 -2.27754068 -1.13509881
v 2.33813930 -2.28394723 -0.57161975
v 2.31699014 -2.28910732 -1.13505018
v 2.33813930 -2.28394723 -0.57161975
v 2.32434773 -2.29551387 -0.57157117
vt 0.00536616 0.99195075
vt 0.32796717 0.99195075
vt 0.32796717 0.50804925
vt 0.00536616 0.99195075
vt 0.32796717 0.50804925
vt 0.00536616 0.50804925
vt 0.33869949 0.99195075
vt 0.66130048 0.99195075
vt 0.66130048 0.50804925
vt 0.33869949 0.99195075
vt 0.66130048 0.50804925
vt 0.33869949 0.50804925
vt 0.67203283 0.99195075
vt 0.99463385 0.99195075
vt 0.99463385 0.50804925
vt 0.67203283 0.99195075
vt 0.99463385 0.50804925
vt 0.67203283 0.50804925
vt 0.00536616 0.49195075
vt 0.32796717 0.49195075
vt 0.32796717 0.00804925
vt 0.00536616 0.49195075
vt 0.32796717 0.00804925
vt 0.00536616 0.00804925
vt 0.33869949 0.49195075
vt 0.66130048 0.49195075
vt 0.66130048 0.00804925
vt 0.33869949 0.49195075
vt 0.66130048 0.00804925
vt 0.33869949 0.00804925
vt 0.67203283 0.49195075
vt 0.99463385 0.49195075
vt 0.99463385 0.00804925
vt 0.67203283 0.49195075
vt 0.99463385 0.00804925
vt 0.67203283 0.00804925
f 1/1 2/2 3/3
f 4/4 5/5 6/6
f 7/7 8/8 9/9
f 10/10 11/11 12/12
f 13/13 14/14 15/15
f 16/16 17/17 18/18
f 19/19 20/20 21/21
f 22/22 23/23 24/24
f 25/25 26/26 27/27
f 28/28 29/29 30/30
f 31/31 32/32 33/33
f 34/34 35/35 36/36

