# https://github.com/mikedh/trimesh
mtllib material.mtl
usemtl PaleWood
v 5.75998592 3.77204108 -1.08521533
v 5.77175522 3.75842190 -1.08521533
v 5.34962654 3.39363098 -1.09515631
v 5.75998592 3.77204108 -1.08521533
v 5.34962654 3.39363098 -1.09515631
v 5.33785725 3.40725017 -1.09515631
v 5.32846260 3.39913201 -0.39832968
v 5.34023190 3.38551283 -0.39832968
v 5.76236105 3.75030351 -0.38838878
v 5.32846260 3.39913201 -0.39832968
v 5.76236105 3.75030351 -0.38838878
v 5.75059175 3.76392293 -0.38838878
v 5.33785725 3.40725017 -1.09515631
v 5.34962654 3.39363098 -1.09515631
v 5.34023190 3.38551283 -0.39832968
v 5.33785725 3.40725017 -1.09515631
v 5.34023190 3.38551283 -0.39832968
v 5.32846260 3.39913201 -0.39832968
v 5.34962654 3.39363098 -1.09515631
v 5.77175522 3.75842190 -1.08521533
v 5.76236105 3.75030351 -0.38838878
v 5.34962654 3.39363098 -1.09515631
v 5.76236105 3.75030351 -0.38838878
v 5.34023190 3.38551283 -0.39832968
v 5.77175522 3.75842190 -1.08521533
v 5.75998592 3.77204108 -1.08521533
v 5.75059175 3.76392293 -0.38838878
v 5.77175522 3.75842190 -1.08521533
v 5.75059175 3.76392293 -0.38838878
v 5.76236105 3.75030351 -0.38838878
v 5.75998592 3.77204108 -1.08521533
v 5.33785725 3.40725017 -1.09515631
v 5.32846260 3.39913201 -0.39832968
v 5.75998592 3.77204108 -1.08521533
v 5.32846260 3.39913201 -0.39832968
v 5.75059175 3.76392293 -0.38838878
vt -0.02000000 0.62000000
vt 0.02000000 0.62000000
vt 0.02000000 -0.62000000
vt -0.02000000 0.62000000
vt 0.02000000 -0.62000000
vt -0.02000000 -0.62000000
vt -0.02000000 -0.62000000
vt 0.02000000 -0.62000000
vt 0.02000000 0.62000000
vt -0.02000000 -0.62000000
vt 0.02000000 0.62000000
vt -0.02000000 0.62000000
vt -0.02000000 -0.77437472
vt 0.02000000 -0.77437472
vt 0.02000000 0.77437466
vt -0.02000000 -0.77437472
vt 0.02000000 0.77437466
vt -0.02000000 0.77437466
vt -0.62000000 -0.77437472
vt 0.62000000 -0.77437472
vt 0.62000000 0.77437466
vt -0.62000000 -0.77437472
vt 0.62000000 0.77437466
vt -0.62000000 0.77437466
vt 0.02000000 -0.77437472
vt -0.02000000 -0.77437472
vt -0.02000000 0.77437466
vt 0.02000000 -0.77437472
vt -0.02000000 0.77437466
vt 0.02000000 0.77437466
vt 0.62000000 -0.77437472
vt -0.62000000 -0.77437472
vt -0.62000000 0.77437466
vt 0.62000000 -0.77437472
vt -0.62000000 0.77437466
vt 0.62000000 0.77437466
f 1/1 2/2 3/3
f 4/4 5/5 6/6
f 7/7 8/8 9/9
f 10/10 11/11 12/12
f 13/13 14/14 15/15
f 16/16 17/17 18/18
f 19/19 20/20 21/21
f 22/22 23/23 24/24
f 25/25 26/26 27/27
f 28/28 29/29 30/30
f 31/31 32/32 33/33
f 34/34 35/35 36/36

