# https://github.com/mikedh/trimesh
mtllib material.mtl
usemtl PaleWood
v 0.85999620 1.25283492 -1.06644309
v 1.19434905 1.54384661 -1.06644309
v 1.20616496 1.53027081 -1.06672728
v 0.85999620 1.25283492 -1.06644309
v 1.20616496 1.53027081 -1.06672728
v 0.87181216 1.23925912 -1.06672728
v 0.87870955 1.23133457 -0.34861538
v 1.21306241 1.52234626 -0.35301331
v 1.20124638 1.53592205 -0.35351655
v 0.87870955 1.23133457 -0.34861538
v 1.20124638 1.53592205 -0.35351655
v 0.86689353 1.24491036 -0.34911859
v 0.87181216 1.23925912 -1.06672728
v 1.20616496 1.53027081 -1.06672728
v 1.21306241 1.52234626 -0.35301331
v 0.87181216 1.23925912 -1.06672728
v 1.21306241 1.52234626 -0.35301331
v 0.87870955 1.23133457 -0.34861538
v 1.20616496 1.53027081 -1.06672728
v 1.19434905 1.54384661 -1.06644309
v 1.20124638 1.53592205 -0.35351655
v 1.20616496 1.53027081 -1.06672728
v 1.20124638 1.53592205 -0.35351655
v 1.21306241 1.52234626 -0.35301331
v 1.19434905 1.54384661 -1.06644309
v 0.85999620 1.25283492 -1.06644309
v 0.86689353 1.24491036 -0.34911859
v 1.19434905 1.54384661 -1.06644309
v 0.86689353 1.24491036 -0.34911859
v 1.20124638 1.53592205 -0.35351655
v 0.85999620 1.25283492 -1.06644309
v 0.87181216 1.23925912 -1.06672728
v 0.87870955 1.23133457 -0.34861538
v 0.85999620 1.25283492 -1.06644309
v 0.87870955 1.23133457 -0.34861538
v 0.86689353 1.24491036 -0.34911859
vt -0.49251136 0.01999998
vt 0.49251136 0.01999998
vt 0.49251136 -0.01999998
vt -0.49251136 0.01999998
vt 0.49251136 -0.01999998
vt -0.49251136 -0.01999998
vt -0.49251136 -0.01999998
vt 0.49251136 -0.01999998
vt 0.49251136 0.01999998
vt -0.49251136 -0.01999998
vt 0.49251136 0.01999998
vt -0.49251136 0.01999998
vt -0.49251136 -0.73936057
vt 0.49251136 -0.73936057
vt 0.49251136 0.73936051
vt -0.49251136 -0.73936057
vt 0.49251136 0.73936051
vt -0.49251136 0.73936051
vt -0.02000000 -0.73936057
vt 0.02000000 -0.73936057
vt 0.02000000 0.73936051
vt -0.02000000 -0.73936057
vt 0.02000000 0.73936051
vt -0.02000000 0.73936051
vt 0.49251136 -0.73936057
vt -0.49251136 -0.73936057
vt -0.49251136 0.73936051
vt 0.49251136 -0.73936057
vt -0.49251136 0.73936051
vt 0.49251136 0.73936051
vt 0.02000000 -0.73936057
vt -0.02000000 -0.73936057
vt -0.02000000 0.73936051
vt 0.02000000 -0.73936057
vt -0.02000000 0.73936051
vt 0.02000000 0.73936051
f 1/1 2/2 3/3
f 4/4 5/5 6/6
f 7/7 8/8 9/9
f 10/10 11/11 12/12
f 13/13 14/14 15/15
f 16/16 17/17 18/18
f 19/19 20/20 21/21
f 22/22 23/23 24/24
f 25/25 26/26 27/27
f 28/28 29/29 30/30
f 31/31 32/32 33/33
f 34/34 35/35 36/36

