# https://github.com/mikedh/trimesh
mtllib material.mtl
usemtl BrushedSteel
v 1.60111499 2.45426297 -1.15356648
v 1.61436009 2.46645164 -1.15356648
v 2.03282309 2.01172233 -1.15926552
v 1.60111499 2.45426297 -1.15356648
v 2.03282309 2.01172233 -1.15926552
v 2.01957798 1.99953341 -1.15926552
v 2.03051376 1.98764992 0.59190017
v 2.04375887 1.99983871 0.59190017
v 1.62529588 2.45456815 0.59759921
v 2.03051376 1.98764992 0.59190017
v 1.62529588 2.45456815 0.59759921
v 1.61205077 2.44237947 0.59759921
v 2.01957798 1.99953341 -1.15926552
v 2.03282309 2.01172233 -1.15926552
v 2.04375887 1.99983871 0.59190017
v 2.01957798 1.99953341 -1.15926552
v 2.04375887 1.99983871 0.59190017
v 2.03051376 1.98764992 0.59190017
v 2.03282309 2.01172233 -1.15926552
v 1.61436009 2.46645164 -1.15356648
v 1.62529588 2.45456815 0.59759921
v 2.03282309 2.01172233 -1.15926552
v 1.62529588 2.45456815 0.59759921
v 2.04375887 1.99983871 0.59190017
v 1.61436009 2.46645164 -1.15356648
v 1.60111499 2.45426297 -1.15356648
v 1.61205077 2.44237947 0.59759921
v 1.61436009 2.46645164 -1.15356648
v 1.61205077 2.44237947 0.59759921
v 1.62529588 2.45456815 0.59759921
v 1.60111499 2.45426297 -1.15356648
v 2.01957798 1.99953341 -1.15926552
v 2.03051376 1.98764992 0.59190017
v 1.60111499 2.45426297 -1.15356648
v 2.03051376 1.98764992 0.59190017
v 1.61205077 2.44237947 0.59759921
vt -0.02000000 0.68666542
vt 0.02000000 0.68666542
vt 0.02000000 -0.68666542
vt -0.02000000 0.68666542
vt 0.02000000 -0.68666542
vt -0.02000000 -0.68666542
vt -0.02000000 -0.68666542
vt 0.02000000 -0.68666542
vt 0.02000000 0.68666542
vt -0.02000000 -0.68666542
vt 0.02000000 0.68666542
vt -0.02000000 0.68666542
vt -0.02000000 -1.94582224
vt 0.02000000 -1.94582224
vt 0.02000000 1.94582236
vt -0.02000000 -1.94582224
vt 0.02000000 1.94582236
vt -0.02000000 1.94582236
vt -0.68666542 -1.94582224
vt 0.68666542 -1.94582224
vt 0.68666542 1.94582236
vt -0.68666542 -1.94582224
vt 0.68666542 1.94582236
vt -0.68666542 1.94582236
vt 0.02000000 -1.94582224
vt -0.02000000 -1.94582224
vt -0.02000000 1.94582236
vt 0.02000000 -1.94582224
vt -0.02000000 1.94582236
vt 0.02000000 1.94582236
vt 0.68666542 -1.94582224
vt -0.68666542 -1.94582224
vt -0.68666542 1.94582236
vt 0.68666542 -1.94582224
vt -0.68666542 1.94582236
vt 0.68666542 1.94582236
f 1/1 2/2 3/3
f 4/4 5/5 6/6
f 7/7 8/8 9/9
f 10/10 11/11 12/12
f 13/13 14/14 15/15
f 16/16 17/17 18/18
f 19/19 20/20 21/21
f 22/22 23/23 24/24
f 25/25 26/26 27/27
f 28/28 29/29 30/30
f 31/31 32/32 33/33
f 34/34 35/35 36/36

