# https://github.com/mikedh/trimesh
mtllib material.mtl
usemtl PalePlastic
v 0.90286499 1.99559271 -0.09919745
v 0.99259752 2.07245326 -0.09769949
v 0.98804456 2.07776976 -0.09776101
v 0.90286499 1.99559271 -0.09919745
v 0.98804456 2.07776976 -0.09776101
v 0.89831203 2.00090933 -0.09925897
v 0.89683270 2.00105095 0.02246268
v 0.98656523 2.07791114 0.02396063
v 0.99111813 2.07259464 0.02402215
v 0.89683270 2.00105095 0.02246268
v 0.99111813 2.07259464 0.02402215
v 0.90138566 1.99573421 0.02252419
v 0.89831203 2.00090933 -0.09925897
v 0.98804456 2.07776976 -0.09776101
v 0.98656523 2.07791114 0.02396063
v 0.89831203 2.00090933 -0.09925897
v 0.98656523 2.07791114 0.02396063
v 0.89683270 2.00105095 0.02246268
v 0.98804456 2.07776976 -0.09776101
v 0.99259752 2.07245326 -0.09769949
v 0.99111813 2.07259464 0.02402215
v 0.98804456 2.07776976 -0.09776101
v 0.99111813 2.07259464 0.02402215
v 0.98656523 2.07791114 0.02396063
v 0.99259752 2.07245326 -0.09769949
v 0.90286499 1.99559271 -0.09919745
v 0.90138566 1.99573421 0.02252419
v 0.99259752 2.07245326 -0.09769949
v 0.90138566 1.99573421 0.02252419
v 0.99111813 2.07259464 0.02402215
v 0.90286499 1.99559271 -0.09919745
v 0.89831203 2.00090933 -0.09925897
v 0.89683270 2.00105095 0.02246268
v 0.90286499 1.99559271 -0.09919745
v 0.89683270 2.00105095 0.02246268
v 0.90138566 1.99573421 0.02252419
vt 0.00000000 0.00000000
vt 0.00000000 0.00000000
vt 0.00000000 0.00000000
vt 0.00000000 0.00000000
vt 0.00000000 0.00000000
vt 0.00000000 0.00000000
vt 0.00000000 0.00000000
vt 0.00000000 0.00000000
vt 0.00000000 0.00000000
vt 0.00000000 0.00000000
vt 0.00000000 0.00000000
vt 0.00000000 0.00000000
vt 0.00000000 0.00000000
vt 0.00000000 0.00000000
vt 0.00000000 0.00000000
vt 0.00000000 0.00000000
vt 0.00000000 0.00000000
vt 0.00000000 0.00000000
vt 0.00000000 0.00000000
vt 0.00000000 0.00000000
vt 0.00000000 0.00000000
vt 0.00000000 0.00000000
vt 0.00000000 0.00000000
vt 0.00000000 0.00000000
vt 0.00000000 0.00000000
vt 0.00000000 0.00000000
vt 0.00000000 0.00000000
vt 0.00000000 0.00000000
vt 0.00000000 0.00000000
vt 0.00000000 0.00000000
vt 0.00000000 0.00000000
vt 0.00000000 0.00000000
vt 0.00000000 0.00000000
vt 0.00000000 0.00000000
vt 0.00000000 0.00000000
vt 0.00000000 0.00000000
f 1/1 2/2 3/3
f 4/4 5/5 6/6
f 7/7 8/8 9/9
f 10/10 11/11 12/12
f 13/13 14/14 15/15
f 16/16 17/17 18/18
f 19/19 20/20 21/21
f 22/22 23/23 24/24
f 25/25 26/26 27/27
f 28/28 29/29 30/30
f 31/31 32/32 33/33
f 34/34 35/35 36/36

