# https://github.com/mikedh/trimesh
mtllib material.mtl
usemtl DarkPlastic
v 4.88411713 4.70616388 -0.52850235
v 5.52471638 3.96487451 -0.52850235
v 5.51109934 3.95310712 -0.52882302
v 4.88411713 4.70616388 -0.52850235
v 5.51109934 3.95310712 -0.52882302
v 4.87050009 4.69439602 -0.52882302
v 4.86921215 4.69328356 -0.43329760
v 5.50981140 3.95199418 -0.43329760
v 5.52342844 3.96376157 -0.43297693
v 4.86921215 4.69328356 -0.43329760
v 5.52342844 3.96376157 -0.43297693
v 4.88282919 4.70505095 -0.43297693
v 4.87050009 4.69439602 -0.52882302
v 5.51109934 3.95310712 -0.52882302
v 5.50981140 3.95199418 -0.43329760
v 4.87050009 4.69439602 -0.52882302
v 5.50981140 3.95199418 -0.43329760
v 4.86921215 4.69328356 -0.43329760
v 5.51109934 3.95310712 -0.52882302
v 5.52471638 3.96487451 -0.52850235
v 5.52342844 3.96376157 -0.43297693
v 5.51109934 3.95310712 -0.52882302
v 5.52342844 3.96376157 -0.43297693
v 5.50981140 3.95199418 -0.43329760
v 5.52471638 3.96487451 -0.52850235
v 4.88411713 4.70616388 -0.52850235
v 4.88282919 4.70505095 -0.43297693
v 5.52471638 3.96487451 -0.52850235
v 4.88282919 4.70505095 -0.43297693
v 5.52342844 3.96376157 -0.43297693
v 4.88411713 4.70616388 -0.52850235
v 4.87050009 4.69439602 -0.52882302
v 4.86921215 4.69328356 -0.43329760
v 4.88411713 4.70616388 -0.52850235
v 4.86921215 4.69328356 -0.43329760
v 4.88282919 4.70505095 -0.43297693
vt -1.08859265 0.01999998
vt 1.08859265 0.01999998
vt 1.08859265 -0.01999998
vt -1.08859265 0.01999998
vt 1.08859265 -0.01999998
vt -1.08859265 -0.01999998
vt -1.08859265 -0.01999998
vt 1.08859265 -0.01999998
vt 1.08859265 0.01999998
vt -1.08859265 -0.01999998
vt 1.08859265 0.01999998
vt -1.08859265 0.01999998
vt -1.08859265 -0.10615623
vt 1.08859265 -0.10615623
vt 1.08859265 0.10615623
vt -1.08859265 -0.10615623
vt 1.08859265 0.10615623
vt -1.08859265 0.10615623
vt -0.02000000 -0.10615623
vt 0.02000000 -0.10615623
vt 0.02000000 0.10615623
vt -0.02000000 -0.10615623
vt 0.02000000 0.10615623
vt -0.02000000 0.10615623
vt 1.08859265 -0.10615623
vt -1.08859265 -0.10615623
vt -1.08859265 0.10615623
vt 1.08859265 -0.10615623
vt -1.08859265 0.10615623
vt 1.08859265 0.10615623
vt 0.02000000 -0.10615623
vt -0.02000000 -0.10615623
vt -0.02000000 0.10615623
vt 0.02000000 -0.10615623
vt -0.02000000 0.10615623
vt 0.02000000 0.10615623
f 1/1 2/2 3/3
f 4/4 5/5 6/6
f 7/7 8/8 9/9
f 10/10 11/11 12/12
f 13/13 14/14 15/15
f 16/16 17/17 18/18
f 19/19 20/20 21/21
f 22/22 23/23 24/24
f 25/25 26/26 27/27
f 28/28 29/29 30/30
f 31/31 32/32 33/33
f 34/34 35/35 36/36

