# https://github.com/mikedh/trimesh
mtllib material.mtl
usemtl DarkPlastic
v 1.23411536 2.21480441 -0.66423565
v 1.55359042 2.49286699 -0.66423565
v 1.56540632 2.47929120 -0.66451985
v 1.23411536 2.21480441 -0.66423565
v 1.56540632 2.47929120 -0.66451985
v 1.24593139 2.20122862 -0.66451985
v 1.24705505 2.19993782 -0.55613136
v 1.56652999 2.47800016 -0.55613136
v 1.55471396 2.49157596 -0.55584717
v 1.24705505 2.19993782 -0.55613136
v 1.55471396 2.49157596 -0.55584717
v 1.23523903 2.21351361 -0.55584717
v 1.24593139 2.20122862 -0.66451985
v 1.56540632 2.47929120 -0.66451985
v 1.56652999 2.47800016 -0.55613136
v 1.24593139 2.20122862 -0.66451985
v 1.56652999 2.47800016 -0.55613136
v 1.24705505 2.19993782 -0.55613136
v 1.56540632 2.47929120 -0.66451985
v 1.55359042 2.49286699 -0.66423565
v 1.55471396 2.49157596 -0.55584717
v 1.56540632 2.47929120 -0.66451985
v 1.55471396 2.49157596 -0.55584717
v 1.56652999 2.47800016 -0.55613136
v 1.55359042 2.49286699 -0.66423565
v 1.23411536 2.21480441 -0.66423565
v 1.23523903 2.21351361 -0.55584717
v 1.55359042 2.49286699 -0.66423565
v 1.23523903 2.21351361 -0.55584717
v 1.55471396 2.49157596 -0.55584717
v 1.23411536 2.21480441 -0.66423565
v 1.24593139 2.20122862 -0.66451985
v 1.24705505 2.19993782 -0.55613136
v 1.23411536 2.21480441 -0.66423565
v 1.24705505 2.19993782 -0.55613136
v 1.23523903 2.21351361 -0.55584717
vt -0.47059584 0.01999998
vt 0.47059584 0.01999998
vt 0.47059584 -0.01999998
vt -0.47059584 0.01999998
vt 0.47059584 -0.01999998
vt -0.47059584 -0.01999998
vt -0.47059584 -0.01999998
vt 0.47059584 -0.01999998
vt 0.47059584 0.01999998
vt -0.47059584 -0.01999998
vt 0.47059584 0.01999998
vt -0.47059584 0.01999998
vt -0.47059584 -0.12044668
vt 0.47059584 -0.12044668
vt 0.47059584 0.12044668
vt -0.47059584 -0.12044668
vt 0.47059584 0.12044668
vt -0.47059584 0.12044668
vt -0.02000000 -0.12044668
vt 0.02000000 -0.12044668
vt 0.02000000 0.12044668
vt -0.02000000 -0.12044668
vt 0.02000000 0.12044668
vt -0.02000000 0.12044668
vt 0.47059584 -0.12044668
vt -0.47059584 -0.12044668
vt -0.47059584 0.12044668
vt 0.47059584 -0.12044668
vt -0.47059584 0.12044668
vt 0.47059584 0.12044668
vt 0.02000000 -0.12044668
vt -0.02000000 -0.12044668
vt -0.02000000 0.12044668
vt 0.02000000 -0.12044668
vt -0.02000000 0.12044668
vt 0.02000000 0.12044668
f 1/1 2/2 3/3
f 4/4 5/5 6/6
f 7/7 8/8 9/9
f 10/10 11/11 12/12
f 13/13 14/14 15/15
f 16/16 17/17 18/18
f 19/19 20/20 21/21
f 22/22 23/23 24/24
f 25/25 26/26 27/27
f 28/28 29/29 30/30
f 31/31 32/32 33/33
f 34/34 35/35 36/36

