# https://github.com/mikedh/trimesh
mtllib material.mtl
usemtl PaleWood
v 6.52428865 2.91011977 -1.16959143
v 8.55804157 0.55670077 -1.16959143
v 8.12591457 0.18326999 -1.17976785
v 6.52428865 2.91011977 -1.16959143
v 8.12591457 0.18326999 -1.17976785
v 6.09216213 2.53668904 -1.17976785
v 6.09191942 2.53647947 -1.16177070
v 8.12567234 0.18306032 -1.16177070
v 8.55779934 0.55649114 -1.15159428
v 6.09191942 2.53647947 -1.16177070
v 8.55779934 0.55649114 -1.15159428
v 6.52404642 2.90991020 -1.15159428
v 6.09216213 2.53668904 -1.17976785
v 8.12591457 0.18326999 -1.17976785
v 8.12567234 0.18306032 -1.16177070
v 6.09216213 2.53668904 -1.17976785
v 8.12567234 0.18306032 -1.16177070
v 6.09191942 2.53647947 -1.16177070
v 8.12591457 0.18326999 -1.17976785
v 8.55804157 0.55670077 -1.16959143
v 8.55779934 0.55649114 -1.15159428
v 8.12591457 0.18326999 -1.17976785
v 8.55779934 0.55649114 -1.15159428
v 8.12567234 0.18306032 -1.16177070
v 8.55804157 0.55670077 -1.16959143
v 6.52428865 2.91011977 -1.16959143
v 6.52404642 2.90991020 -1.15159428
v 8.55804157 0.55670077 -1.16959143
v 6.52404642 2.90991020 -1.15159428
v 8.55779934 0.55649114 -1.15159428
v 6.52428865 2.91011977 -1.16959143
v 6.09216213 2.53668904 -1.17976785
v 6.09191942 2.53647947 -1.16177070
v 6.52428865 2.91011977 -1.16959143
v 6.09191942 2.53647947 -1.16177070
v 6.52404642 2.90991020 -1.15159428
vt -3.45602560 0.63468444
vt 3.45602560 0.63468444
vt 3.45602560 -0.63468444
vt -3.45602560 0.63468444
vt 3.45602560 -0.63468444
vt -3.45602560 -0.63468444
vt -3.45602560 -0.63468444
vt 3.45602560 -0.63468444
vt 3.45602560 0.63468444
vt -3.45602560 -0.63468444
vt 3.45602560 0.63468444
vt -3.45602560 0.63468444
vt -3.45602560 -0.01999998
vt 3.45602560 -0.01999998
vt 3.45602560 0.01999998
vt -3.45602560 -0.01999998
vt 3.45602560 0.01999998
vt -3.45602560 0.01999998
vt -0.63468444 -0.01999998
vt 0.63468444 -0.01999998
vt 0.63468444 0.01999998
vt -0.63468444 -0.01999998
vt 0.63468444 0.01999998
vt -0.63468444 0.01999998
vt 3.45602560 -0.01999998
vt -3.45602560 -0.01999998
vt -3.45602560 0.01999998
vt 3.45602560 -0.01999998
vt -3.45602560 0.01999998
vt 3.45602560 0.01999998
vt 0.63468444 -0.01999998
vt -0.63468444 -0.01999998
vt -0.63468444 0.01999998
vt 0.63468444 -0.01999998
vt -0.63468444 0.01999998
vt 0.63468444 0.01999998
f 1/1 2/2 3/3
f 4/4 5/5 6/6
f 7/7 8/8 9/9
f 10/10 11/11 12/12
f 13/13 14/14 15/15
f 16/16 17/17 18/18
f 19/19 20/20 21/21
f 22/22 23/23 24/24
f 25/25 26/26 27/27
f 28/28 29/29 30/30
f 31/31 32/32 33/33
f 34/34 35/35 36/36

