# https://github.com/mikedh/trimesh
mtllib material.mtl
usemtl PaleWood
v 1.66543543 -2.84198999 -1.19483793
v 1.65387106 -2.82819963 -1.19453013
v 2.29008222 -2.29463124 -1.19677091
v 1.66543543 -2.84198999 -1.19483793
v 2.29008222 -2.29463124 -1.19677091
v 2.30164647 -2.30842137 -1.19707870
v 2.31289458 -2.31821585 -0.33564439
v 2.30133033 -2.30442548 -0.33533660
v 1.66511929 -2.83799410 -0.33309582
v 2.31289458 -2.31821585 -0.33564439
v 1.66511929 -2.83799410 -0.33309582
v 1.67668355 -2.85178423 -0.33340362
v 2.30164647 -2.30842137 -1.19707870
v 2.29008222 -2.29463124 -1.19677091
v 2.30133033 -2.30442548 -0.33533660
v 2.30164647 -2.30842137 -1.19707870
v 2.30133033 -2.30442548 -0.33533660
v 2.31289458 -2.31821585 -0.33564439
v 2.29008222 -2.29463124 -1.19677091
v 1.65387106 -2.82819963 -1.19453013
v 1.66511929 -2.83799410 -0.33309582
v 2.29008222 -2.29463124 -1.19677091
v 1.66511929 -2.83799410 -0.33309582
v 2.30133033 -2.30442548 -0.33533660
v 1.65387106 -2.82819963 -1.19453013
v 1.66543543 -2.84198999 -1.19483793
v 1.67668355 -2.85178423 -0.33340362
v 1.65387106 -2.82819963 -1.19453013
v 1.67668355 -2.85178423 -0.33340362
v 1.66511929 -2.83799410 -0.33309582
v 1.66543543 -2.84198999 -1.19483793
v 2.30164647 -2.30842137 -1.19707870
v 2.31289458 -2.31821585 -0.33564439
v 1.66543543 -2.84198999 -1.19483793
v 2.31289458 -2.31821585 -0.33564439
v 1.67668355 -2.85178423 -0.33340362
vt -0.02000000 0.92260027
vt 0.02000000 0.92260027
vt 0.02000000 -0.92260027
vt -0.02000000 0.92260027
vt 0.02000000 -0.92260027
vt -0.02000000 -0.92260027
vt -0.02000000 -0.92260027
vt 0.02000000 -0.92260027
vt 0.02000000 0.92260027
vt -0.02000000 -0.92260027
vt 0.02000000 0.92260027
vt -0.02000000 0.92260027
vt -0.02000000 -0.95729280
vt 0.02000000 -0.95729280
vt 0.02000000 0.95729274
vt -0.02000000 -0.95729280
vt 0.02000000 0.95729274
vt -0.02000000 0.95729274
vt -0.92260027 -0.95729280
vt 0.92260027 -0.95729280
vt 0.92260027 0.95729274
vt -0.92260027 -0.95729280
vt 0.92260027 0.95729274
vt -0.92260027 0.95729274
vt 0.02000000 -0.95729280
vt -0.02000000 -0.95729280
vt -0.02000000 0.95729274
vt 0.02000000 -0.95729280
vt -0.02000000 0.95729274
vt 0.02000000 0.95729274
vt 0.92260027 -0.95729280
vt -0.92260027 -0.95729280
vt -0.92260027 0.95729274
vt 0.92260027 -0.95729280
vt -0.92260027 0.95729274
vt 0.92260027 0.95729274
f 1/1 2/2 3/3
f 4/4 5/5 6/6
f 7/7 8/8 9/9
f 10/10 11/11 12/12
f 13/13 14/14 15/15
f 16/16 17/17 18/18
f 19/19 20/20 21/21
f 22/22 23/23 24/24
f 25/25 26/26 27/27
f 28/28 29/29 30/30
f 31/31 32/32 33/33
f 34/34 35/35 36/36

