# https://github.com/mikedh/trimesh
mtllib material.mtl
usemtl PaleWood
v 2.34093714 3.28547812 -0.86912078
v 2.35451460 3.29729557 -0.86912078
v 2.72081017 2.87644649 -0.87793058
v 2.34093714 3.28547812 -0.86912078
v 2.72081017 2.87644649 -0.87793058
v 2.70723271 2.86462903 -0.87793058
v 2.71229815 2.85880923 -0.38929483
v 2.72587562 2.87062669 -0.38929483
v 2.35958004 3.29147553 -0.38048506
v 2.71229815 2.85880923 -0.38929483
v 2.35958004 3.29147553 -0.38048506
v 2.34600258 3.27965808 -0.38048506
v 2.70723271 2.86462903 -0.87793058
v 2.72081017 2.87644649 -0.87793058
v 2.72587562 2.87062669 -0.38929483
v 2.70723271 2.86462903 -0.87793058
v 2.72587562 2.87062669 -0.38929483
v 2.71229815 2.85880923 -0.38929483
v 2.72081017 2.87644649 -0.87793058
v 2.35451460 3.29729557 -0.86912078
v 2.35958004 3.29147553 -0.38048506
v 2.72081017 2.87644649 -0.87793058
v 2.35958004 3.29147553 -0.38048506
v 2.72587562 2.87062669 -0.38929483
v 2.35451460 3.29729557 -0.86912078
v 2.34093714 3.28547812 -0.86912078
v 2.34600258 3.27965808 -0.38048506
v 2.35451460 3.29729557 -0.86912078
v 2.34600258 3.27965808 -0.38048506
v 2.35958004 3.29147553 -0.38048506
v 2.34093714 3.28547812 -0.86912078
v 2.70723271 2.86462903 -0.87793058
v 2.71229815 2.85880923 -0.38929483
v 2.34093714 3.28547812 -0.86912078
v 2.71229815 2.85880923 -0.38929483
v 2.34600258 3.27965808 -0.38048506
vt -0.02000000 0.62000000
vt 0.02000000 0.62000000
vt 0.02000000 -0.62000000
vt -0.02000000 0.62000000
vt 0.02000000 -0.62000000
vt -0.02000000 -0.62000000
vt -0.02000000 -0.62000000
vt 0.02000000 -0.62000000
vt 0.02000000 0.62000000
vt -0.02000000 -0.62000000
vt 0.02000000 0.62000000
vt -0.02000000 0.62000000
vt -0.02000000 -0.54299629
vt 0.02000000 -0.54299629
vt 0.02000000 0.54299629
vt -0.02000000 -0.54299629
vt 0.02000000 0.54299629
vt -0.02000000 0.54299629
vt -0.62000000 -0.54299629
vt 0.62000000 -0.54299629
vt 0.62000000 0.54299629
vt -0.62000000 -0.54299629
vt 0.62000000 0.54299629
vt -0.62000000 0.54299629
vt 0.02000000 -0.54299629
vt -0.02000000 -0.54299629
vt -0.02000000 0.54299629
vt 0.02000000 -0.54299629
vt -0.02000000 0.54299629
vt 0.02000000 0.54299629
vt 0.62000000 -0.54299629
vt -0.62000000 -0.54299629
vt -0.62000000 0.54299629
vt 0.62000000 -0.54299629
vt -0.62000000 0.54299629
vt 0.62000000 0.54299629
f 1/1 2/2 3/3
f 4/4 5/5 6/6
f 7/7 8/8 9/9
f 10/10 11/11 12/12
f 13/13 14/14 15/15
f 16/16 17/17 18/18
f 19/19 20/20 21/21
f 22/22 23/23 24/24
f 25/25 26/26 27/27
f 28/28 29/29 30/30
f 31/31 32/32 33/33
f 34/34 35/35 36/36

