# https://github.com/mikedh/trimesh
mtllib material.mtl
usemtl BlackRubber
v 0.46860266 0.82827330 -0.45795262
v 0.55471241 0.90334064 -0.46367088
v 0.54749155 0.91163695 -0.46349722
v 0.46860266 0.82827330 -0.45795262
v 0.54749155 0.91163695 -0.46349722
v 0.46138176 0.83656955 -0.45777896
v 0.46138176 0.83656955 -0.43577895
v 0.54749155 0.91163695 -0.44149721
v 0.55471241 0.90334064 -0.44167089
v 0.46138176 0.83656955 -0.43577895
v 0.55471241 0.90334064 -0.44167089
v 0.46860266 0.82827330 -0.43595263
v 0.46138176 0.83656955 -0.45777896
v 0.54749155 0.91163695 -0.46349722
v 0.54749155 0.91163695 -0.44149721
v 0.46138176 0.83656955 -0.45777896
v 0.54749155 0.91163695 -0.44149721
v 0.46138176 0.83656955 -0.43577895
v 0.54749155 0.91163695 -0.46349722
v 0.55471241 0.90334064 -0.46367088
v 0.55471241 0.90334064 -0.44167089
v 0.54749155 0.91163695 -0.46349722
v 0.55471241 0.90334064 -0.44167089
v 0.54749155 0.91163695 -0.44149721
v 0.55471241 0.90334064 -0.46367088
v 0.46860266 0.82827330 -0.45795262
v 0.46860266 0.82827330 -0.43595263
v 0.55471241 0.90334064 -0.46367088
v 0.46860266 0.82827330 -0.43595263
v 0.55471241 0.90334064 -0.44167089
v 0.46860266 0.82827330 -0.45795262
v 0.46138176 0.83656955 -0.45777896
v 0.46138176 0.83656955 -0.43577895
v 0.46860266 0.82827330 -0.45795262
v 0.46138176 0.83656955 -0.43577895
v 0.46860266 0.82827330 -0.43595263
vt 0.00000000 0.00000000
vt 0.00000000 0.00000000
vt 0.00000000 0.00000000
vt 0.00000000 0.00000000
vt 0.00000000 0.00000000
vt 0.00000000 0.00000000
vt 0.00000000 0.00000000
vt 0.00000000 0.00000000
vt 0.00000000 0.00000000
vt 0.00000000 0.00000000
vt 0.00000000 0.00000000
vt 0.00000000 0.00000000
vt 0.00000000 0.00000000
vt 0.00000000 0.00000000
vt 0.00000000 0.00000000
vt 0.00000000 0.00000000
vt 0.00000000 0.00000000
vt 0.00000000 0.00000000
vt 0.00000000 0.00000000
vt 0.00000000 0.00000000
vt 0.00000000 0.00000000
vt 0.00000000 0.00000000
vt 0.00000000 0.00000000
vt 0.00000000 0.00000000
vt 0.00000000 0.00000000
vt 0.00000000 0.00000000
vt 0.00000000 0.00000000
vt 0.00000000 0.00000000
vt 0.00000000 0.00000000
vt 0.00000000 0.00000000
vt 0.00000000 0.00000000
vt 0.00000000 0.00000000
vt 0.00000000 0.00000000
vt 0.00000000 0.00000000
vt 0.00000000 0.00000000
vt 0.00000000 0.00000000
f 1/1 2/2 3/3
f 4/4 5/5 6/6
f 7/7 8/8 9/9
f 10/10 11/11 12/12
f 13/13 14/14 15/15
f 16/16 17/17 18/18
f 19/19 20/20 21/21
f 22/22 23/23 24/24
f 25/25 26/26 27/27
f 28/28 29/29 30/30
f 31/31 32/32 33/33
f 34/34 35/35 36/36

