# https://github.com/mikedh/trimesh
mtllib material.mtl
usemtl BrushedStainless
v 4.48318243 1.40531850 -0.51535583
v 4.29209566 1.62871838 -0.51156694
v 4.29437494 1.63066852 -0.51159948
v 4.48318243 1.40531850 -0.51535583
v 4.29437494 1.63066852 -0.51159948
v 4.48546219 1.40726876 -0.51538831
v 4.48845291 1.40677476 -0.33541384
v 4.29736614 1.63017452 -0.33162501
v 4.29508686 1.62822425 -0.33159247
v 4.48845291 1.40677476 -0.33541384
v 4.29508686 1.62822425 -0.33159247
v 4.48617363 1.40482450 -0.33538133
v 4.48546219 1.40726876 -0.51538831
v 4.29437494 1.63066852 -0.51159948
v 4.29736614 1.63017452 -0.33162501
v 4.48546219 1.40726876 -0.51538831
v 4.29736614 1.63017452 -0.33162501
v 4.48845291 1.40677476 -0.33541384
v 4.29437494 1.63066852 -0.51159948
v 4.29209566 1.62871838 -0.51156694
v 4.29508686 1.62822425 -0.33159247
v 4.29437494 1.63066852 -0.51159948
v 4.29508686 1.62822425 -0.33159247
v 4.29736614 1.63017452 -0.33162501
v 4.29209566 1.62871838 -0.51156694
v 4.48318243 1.40531850 -0.51535583
v 4.48617363 1.40482450 -0.33538133
v 4.29209566 1.62871838 -0.51156694
v 4.48617363 1.40482450 -0.33538133
v 4.29508686 1.62822425 -0.33159247
v 4.48318243 1.40531850 -0.51535583
v 4.48546219 1.40726876 -0.51538831
v 4.48845291 1.40677476 -0.33541384
v 4.48318243 1.40531850 -0.51535583
v 4.48845291 1.40677476 -0.33541384
v 4.48617363 1.40482450 -0.33538133
vt -0.32666665 0.00333333
vt 0.32666665 0.00333333
vt 0.32666665 -0.00333333
vt -0.32666665 0.00333333
vt 0.32666665 -0.00333333
vt -0.32666665 -0.00333333
vt -0.32666665 -0.00333333
vt 0.32666665 -0.00333333
vt 0.32666665 0.00333333
vt -0.32666665 -0.00333333
vt 0.32666665 0.00333333
vt -0.32666665 0.00333333
vt -0.32666665 -0.20000005
vt 0.32666665 -0.20000005
vt 0.32666665 0.19999999
vt -0.32666665 -0.20000005
vt 0.32666665 0.19999999
vt -0.32666665 0.19999999
vt -0.00333333 -0.20000005
vt 0.00333333 -0.20000005
vt 0.00333333 0.19999999
vt -0.00333333 -0.20000005
vt 0.00333333 0.19999999
vt -0.00333333 0.19999999
vt 0.32666665 -0.20000005
vt -0.32666665 -0.20000005
vt -0.32666665 0.19999999
vt 0.32666665 -0.20000005
vt -0.32666665 0.19999999
vt 0.32666665 0.19999999
vt 0.00333333 -0.20000005
vt -0.00333333 -0.20000005
vt -0.00333333 0.19999999
vt 0.00333333 -0.20000005
vt -0.00333333 0.19999999
vt 0.00333333 0.19999999
f 1/1 2/2 3/3
f 4/4 5/5 6/6
f 7/7 8/8 9/9
f 10/10 11/11 12/12
f 13/13 14/14 15/15
f 16/16 17/17 18/18
f 19/19 20/20 21/21
f 22/22 23/23 24/24
f 25/25 26/26 27/27
f 28/28 29/29 30/30
f 31/31 32/32 33/33
f 34/34 35/35 36/36

