# https://github.com/mikedh/trimesh
mtllib material.mtl
usemtl DarkRecess
v 7.31815577 1.67198086 -0.29403254
v 7.36110353 1.62213480 -0.29222348
v 7.35580111 1.61756492 -0.29226440
v 7.31815577 1.67198086 -0.29403254
v 7.35580111 1.61756492 -0.29226440
v 7.31285334 1.66741097 -0.29407346
v 7.31238222 1.66776204 -0.27220944
v 7.35532951 1.61791599 -0.27040038
v 7.36063194 1.62248600 -0.27035943
v 7.31238222 1.66776204 -0.27220944
v 7.36063194 1.62248600 -0.27035943
v 7.31768417 1.67233205 -0.27216852
v 7.31285334 1.66741097 -0.29407346
v 7.35580111 1.61756492 -0.29226440
v 7.35532951 1.61791599 -0.27040038
v 7.31285334 1.66741097 -0.29407346
v 7.35532951 1.61791599 -0.27040038
v 7.31238222 1.66776204 -0.27220944
v 7.35580111 1.61756492 -0.29226440
v 7.36110353 1.62213480 -0.29222348
v 7.36063194 1.62248600 -0.27035943
v 7.35580111 1.61756492 -0.29226440
v 7.36063194 1.62248600 -0.27035943
v 7.35532951 1.61791599 -0.27040038
v 7.36110353 1.62213480 -0.29222348
v 7.31815577 1.67198086 -0.29403254
v 7.31768417 1.67233205 -0.27216852
v 7.36110353 1.62213480 -0.29222348
v 7.31768417 1.67233205 -0.27216852
v 7.36063194 1.62248600 -0.27035943
v 7.31815577 1.67198086 -0.29403254
v 7.31285334 1.66741097 -0.29407346
v 7.31238222 1.66776204 -0.27220944
v 7.31815577 1.67198086 -0.29403254
v 7.31238222 1.66776204 -0.27220944
v 7.31768417 1.67233205 -0.27216852
vt 0.00000000 0.00000000
vt 0.00000000 0.00000000
vt 0.00000000 0.00000000
vt 0.00000000 0.00000000
vt 0.00000000 0.00000000
vt 0.00000000 0.00000000
vt 0.00000000 0.00000000
vt 0.00000000 0.00000000
vt 0.00000000 0.00000000
vt 0.00000000 0.00000000
vt 0.00000000 0.00000000
vt 0.00000000 0.00000000
vt 0.00000000 0.00000000
vt 0.00000000 0.00000000
vt 0.00000000 0.00000000
vt 0.00000000 0.00000000
vt 0.00000000 0.00000000
vt 0.00000000 0.00000000
vt 0.00000000 0.00000000
vt 0.00000000 0.00000000
vt 0.00000000 0.00000000
vt 0.00000000 0.00000000
vt 0.00000000 0.00000000
vt 0.00000000 0.00000000
vt 0.00000000 0.00000000
vt 0.00000000 0.00000000
vt 0.00000000 0.00000000
vt 0.00000000 0.00000000
vt 0.00000000 0.00000000
vt 0.00000000 0.00000000
vt 0.00000000 0.00000000
vt 0.00000000 0.00000000
vt 0.00000000 0.00000000
vt 0.00000000 0.00000000
vt 0.00000000 0.00000000
vt 0.00000000 0.00000000
f 1/1 2/2 3/3
f 4/4 5/5 6/6
f 7/7 8/8 9/9
f 10/10 11/11 12/12
f 13/13 14/14 15/15
f 16/16 17/17 18/18
f 19/19 20/20 21/21
f 22/22 23/23 24/24
f 25/25 26/26 27/27
f 28/28 29/29 30/30
f 31/31 32/32 33/33
f 34/34 35/35 36/36

