# https://github.com/mikedh/trimesh
mtllib material.mtl
usemtl PaleWood
v 2.71608663 2.86816502 -1.05875361
v 3.16604042 3.25979280 -1.05875361
v 3.17785645 3.24621701 -1.05903780
v 2.71608663 2.86816502 -1.05875361
v 3.17785645 3.24621701 -1.05903780
v 2.72790265 2.85458946 -1.05903780
v 2.72951293 2.85273910 -0.90369529
v 3.17946672 3.24436688 -0.90369529
v 3.16765070 3.25794268 -0.90341109
v 2.72951293 2.85273910 -0.90369529
v 3.16765070 3.25794268 -0.90341109
v 2.71769691 2.86631489 -0.90341109
v 2.72790265 2.85458946 -1.05903780
v 3.17785645 3.24621701 -1.05903780
v 3.17946672 3.24436688 -0.90369529
v 2.72790265 2.85458946 -1.05903780
v 3.17946672 3.24436688 -0.90369529
v 2.72951293 2.85273910 -0.90369529
v 3.17785645 3.24621701 -1.05903780
v 3.16604042 3.25979280 -1.05875361
v 3.16765070 3.25794268 -0.90341109
v 3.17785645 3.24621701 -1.05903780
v 3.16765070 3.25794268 -0.90341109
v 3.17946672 3.24436688 -0.90369529
v 3.16604042 3.25979280 -1.05875361
v 2.71608663 2.86816502 -1.05875361
v 2.71769691 2.86631489 -0.90341109
v 3.16604042 3.25979280 -1.05875361
v 2.71769691 2.86631489 -0.90341109
v 3.16765070 3.25794268 -0.90341109
v 2.71608663 2.86816502 -1.05875361
v 2.72790265 2.85458946 -1.05903780
v 2.72951293 2.85273910 -0.90369529
v 2.71608663 2.86816502 -1.05875361
v 2.72951293 2.85273910 -0.90369529
v 2.71769691 2.86631489 -0.90341109
vt -0.66279507 0.01999998
vt 0.66279507 0.01999998
vt 0.66279507 -0.01999998
vt -0.66279507 0.01999998
vt 0.66279507 -0.01999998
vt -0.66279507 -0.01999998
vt -0.66279507 -0.01999998
vt 0.66279507 -0.01999998
vt 0.66279507 0.01999998
vt -0.66279507 -0.01999998
vt 0.66279507 0.01999998
vt -0.66279507 0.01999998
vt -0.66279507 -0.17262435
vt 0.66279507 -0.17262435
vt 0.66279507 0.17262429
vt -0.66279507 -0.17262435
vt 0.66279507 0.17262429
vt -0.66279507 0.17262429
vt -0.02000000 -0.17262435
vt 0.02000000 -0.17262435
vt 0.02000000 0.17262429
vt -0.02000000 -0.17262435
vt 0.02000000 0.17262429
vt -0.02000000 0.17262429
vt 0.66279507 -0.17262435
vt -0.66279507 -0.17262435
vt -0.66279507 0.17262429
vt 0.66279507 -0.17262435
vt -0.66279507 0.17262429
vt 0.66279507 0.17262429
vt 0.02000000 -0.17262435
vt -0.02000000 -0.17262435
vt -0.02000000 0.17262429
vt 0.02000000 -0.17262435
vt -0.02000000 0.17262429
vt 0.02000000 0.17262429
f 1/1 2/2 3/3
f 4/4 5/5 6/6
f 7/7 8/8 9/9
f 10/10 11/11 12/12
f 13/13 14/14 15/15
f 16/16 17/17 18/18
f 19/19 20/20 21/21
f 22/22 23/23 24/24
f 25/25 26/26 27/27
f 28/28 29/29 30/30
f 31/31 32/32 33/33
f 34/34 35/35 36/36

