# https://github.com/mikedh/trimesh
mtllib material.mtl
usemtl WhiteSolidSurface
v 2.33655071 3.29508710 -0.37043154
v 4.07503891 4.80856228 -0.38674664
v 4.45319414 4.37408733 -0.39162862
v 2.33655071 3.29508710 -0.37043154
v 4.45319414 4.37408733 -0.39162862
v 2.71470594 2.86061215 -0.37531355
v 2.71506882 2.86019540 -0.34031790
v 4.45355701 4.37367010 -0.35663301
v 4.07540178 4.80814505 -0.35175100
v 2.71506882 2.86019540 -0.34031790
v 4.07540178 4.80814505 -0.35175100
v 2.33691359 3.29467034 -0.33543590
v 2.71470594 2.86061215 -0.37531355
v 4.45319414 4.37408733 -0.39162862
v 4.45355701 4.37367010 -0.35663301
v 2.71470594 2.86061215 -0.37531355
v 4.45355701 4.37367010 -0.35663301
v 2.71506882 2.86019540 -0.34031790
v 4.45319414 4.37408733 -0.39162862
v 4.07503891 4.80856228 -0.38674664
v 4.07540178 4.80814505 -0.35175100
v 4.45319414 4.37408733 -0.39162862
v 4.07540178 4.80814505 -0.35175100
v 4.45355701 4.37367010 -0.35663301
v 4.07503891 4.80856228 -0.38674664
v 2.33655071 3.29508710 -0.37043154
v 2.33691359 3.29467034 -0.33543590
v 4.07503891 4.80856228 -0.38674664
v 2.33691359 3.29467034 -0.33543590
v 4.07540178 4.80814505 -0.35175100
v 2.33655071 3.29508710 -0.37043154
v 2.71470594 2.86061215 -0.37531355
v 2.71506882 2.86019540 -0.34031790
v 2.33655071 3.29508710 -0.37043154
v 2.71506882 2.86019540 -0.34031790
v 2.33691359 3.29467034 -0.33543590
vt -2.56109238 0.63999999
vt 2.56109238 0.63999999
vt 2.56109238 -0.63999999
vt -2.56109238 0.63999999
vt 2.56109238 -0.63999999
vt -2.56109238 -0.63999999
vt -2.56109238 -0.63999999
vt 2.56109238 -0.63999999
vt 2.56109238 0.63999999
vt -2.56109238 -0.63999999
vt 2.56109238 0.63999999
vt -2.56109238 0.63999999
vt -2.56109238 -0.01607823
vt 2.56109238 -0.05233848
vt 2.56109238 0.02543932
vt -2.56109238 -0.01607823
vt 2.56109238 0.02543932
vt -2.56109238 0.06169957
vt -0.63999999 -0.05233848
vt 0.63999999 -0.06169963
vt 0.63999999 0.01607817
vt -0.63999999 -0.05233848
vt 0.63999999 0.01607817
vt -0.63999999 0.02543932
vt 2.56109238 -0.06169963
vt -2.56109238 -0.02543926
vt -2.56109238 0.05233848
vt 2.56109238 -0.06169963
vt -2.56109238 0.05233848
vt 2.56109238 0.01607817
vt 0.63999999 -0.02543926
vt -0.63999999 -0.01607823
vt -0.63999999 0.06169957
vt 0.63999999 -0.02543926
vt -0.63999999 0.06169957
vt 0.63999999 0.05233848
f 1/1 2/2 3/3
f 4/4 5/5 6/6
f 7/7 8/8 9/9
f 10/10 11/11 12/12
f 13/13 14/14 15/15
f 16/16 17/17 18/18
f 19/19 20/20 21/21
f 22/22 23/23 24/24
f 25/25 26/26 27/27
f 28/28 29/29 30/30
f 31/31 32/32 33/33
f 34/34 35/35 36/36

