# https://github.com/mikedh/trimesh
mtllib material.mtl
usemtl BrushedSteel
v 2.39662075 2.30518866 -0.46511844
v 2.73766637 2.61903453 -0.46511844
v 2.74985456 2.60578990 -0.46528444
v 2.39662075 2.30518866 -0.46511844
v 2.74985456 2.60578990 -0.46528444
v 2.40880895 2.29194403 -0.46528444
v 2.41552091 2.28465033 0.60951209
v 2.75656652 2.59849620 0.60951209
v 2.74437833 2.61174083 0.60967809
v 2.41552091 2.28465033 0.60951209
v 2.74437833 2.61174083 0.60967809
v 2.40333271 2.29789495 0.60967809
v 2.40880895 2.29194403 -0.46528444
v 2.74985456 2.60578990 -0.46528444
v 2.75656652 2.59849620 0.60951209
v 2.40880895 2.29194403 -0.46528444
v 2.75656652 2.59849620 0.60951209
v 2.41552091 2.28465033 0.60951209
v 2.74985456 2.60578990 -0.46528444
v 2.73766637 2.61903453 -0.46511844
v 2.74437833 2.61174083 0.60967809
v 2.74985456 2.60578990 -0.46528444
v 2.74437833 2.61174083 0.60967809
v 2.75656652 2.59849620 0.60951209
v 2.73766637 2.61903453 -0.46511844
v 2.39662075 2.30518866 -0.46511844
v 2.40333271 2.29789495 0.60967809
v 2.73766637 2.61903453 -0.46511844
v 2.40333271 2.29789495 0.60967809
v 2.74437833 2.61174083 0.60967809
v 2.39662075 2.30518866 -0.46511844
v 2.40880895 2.29194403 -0.46528444
v 2.41552091 2.28465033 0.60951209
v 2.39662075 2.30518866 -0.46511844
v 2.41552091 2.28465033 0.60951209
v 2.40333271 2.29789495 0.60967809
vt -0.51497495 0.01999998
vt 0.51497495 0.01999998
vt 0.51497495 -0.01999998
vt -0.51497495 0.01999998
vt 0.51497495 -0.01999998
vt -0.51497495 -0.01999998
vt -0.51497495 -0.01999998
vt 0.51497495 -0.01999998
vt 0.51497495 0.01999998
vt -0.51497495 -0.01999998
vt 0.51497495 0.01999998
vt -0.51497495 0.01999998
vt -0.51497495 -1.19426918
vt 0.51497495 -1.19426918
vt 0.51497495 1.19426918
vt -0.51497495 -1.19426918
vt 0.51497495 1.19426918
vt -0.51497495 1.19426918
vt -0.02000000 -1.19426918
vt 0.02000000 -1.19426918
vt 0.02000000 1.19426918
vt -0.02000000 -1.19426918
vt 0.02000000 1.19426918
vt -0.02000000 1.19426918
vt 0.51497495 -1.19426918
vt -0.51497495 -1.19426918
vt -0.51497495 1.19426918
vt 0.51497495 -1.19426918
vt -0.51497495 1.19426918
vt 0.51497495 1.19426918
vt 0.02000000 -1.19426918
vt -0.02000000 -1.19426918
vt -0.02000000 1.19426918
vt 0.02000000 -1.19426918
vt -0.02000000 1.19426918
vt 0.02000000 1.19426918
f 1/1 2/2 3/3
f 4/4 5/5 6/6
f 7/7 8/8 9/9
f 10/10 11/11 12/12
f 13/13 14/14 15/15
f 16/16 17/17 18/18
f 19/19 20/20 21/21
f 22/22 23/23 24/24
f 25/25 26/26 27/27
f 28/28 29/29 30/30
f 31/31 32/32 33/33
f 34/34 35/35 36/36

