# https://github.com/mikedh/trimesh
mtllib material.mtl
usemtl DarkRecess
v -0.67074442 0.64748347 -0.03189460
v -0.66922557 0.64878440 -0.03187304
v -0.66987598 0.64954394 -0.03188183
v -0.67074442 0.64748347 -0.03189460
v -0.66987598 0.64954394 -0.03188183
v -0.67139488 0.64824295 -0.03190339
v -0.67168820 0.64808422 -0.02391034
v -0.67016929 0.64938521 -0.02388878
v -0.66951889 0.64862567 -0.02388000
v -0.67168820 0.64808422 -0.02391034
v -0.66951889 0.64862567 -0.02388000
v -0.67103779 0.64732474 -0.02390156
v -0.67139488 0.64824295 -0.03190339
v -0.66987598 0.64954394 -0.03188183
v -0.67016929 0.64938521 -0.02388878
v -0.67139488 0.64824295 -0.03190339
v -0.67016929 0.64938521 -0.02388878
v -0.67168820 0.64808422 -0.02391034
v -0.66987598 0.64954394 -0.03188183
v -0.66922557 0.64878440 -0.03187304
v -0.66951889 0.64862567 -0.02388000
v -0.66987598 0.64954394 -0.03188183
v -0.66951889 0.64862567 -0.02388000
v -0.67016929 0.64938521 -0.02388878
v -0.66922557 0.64878440 -0.03187304
v -0.67074442 0.64748347 -0.03189460
v -0.67103779 0.64732474 -0.02390156
v -0.66922557 0.64878440 -0.03187304
v -0.67103779 0.64732474 -0.02390156
v -0.66951889 0.64862567 -0.02388000
v -0.67074442 0.64748347 -0.03189460
v -0.67139488 0.64824295 -0.03190339
v -0.67168820 0.64808422 -0.02391034
v -0.67074442 0.64748347 -0.03189460
v -0.67168820 0.64808422 -0.02391034
v -0.67103779 0.64732474 -0.02390156
vt 0.00000000 0.00000000
vt 0.00000000 0.00000000
vt 0.00000000 0.00000000
vt 0.00000000 0.00000000
vt 0.00000000 0.00000000
vt 0.00000000 0.00000000
vt 0.00000000 0.00000000
vt 0.00000000 0.00000000
vt 0.00000000 0.00000000
vt 0.00000000 0.00000000
vt 0.00000000 0.00000000
vt 0.00000000 0.00000000
vt 0.00000000 0.00000000
vt 0.00000000 0.00000000
vt 0.00000000 0.00000000
vt 0.00000000 0.00000000
vt 0.00000000 0.00000000
vt 0.00000000 0.00000000
vt 0.00000000 0.00000000
vt 0.00000000 0.00000000
vt 0.00000000 0.00000000
vt 0.00000000 0.00000000
vt 0.00000000 0.00000000
vt 0.00000000 0.00000000
vt 0.00000000 0.00000000
vt 0.00000000 0.00000000
vt 0.00000000 0.00000000
vt 0.00000000 0.00000000
vt 0.00000000 0.00000000
vt 0.00000000 0.00000000
vt 0.00000000 0.00000000
vt 0.00000000 0.00000000
vt 0.00000000 0.00000000
vt 0.00000000 0.00000000
vt 0.00000000 0.00000000
vt 0.00000000 0.00000000
f 1/1 2/2 3/3
f 4/4 5/5 6/6
f 7/7 8/8 9/9
f 10/10 11/11 12/12
f 13/13 14/14 15/15
f 16/16 17/17 18/18
f 19/19 20/20 21/21
f 22/22 23/23 24/24
f 25/25 26/26 27/27
f 28/28 29/29 30/30
f 31/31 32/32 33/33
f 34/34 35/35 36/36

