# https://github.com/mikedh/trimesh
mtllib material.mtl
usemtl WhiteSolidSurface
v -0.05299453 1.16757607 -0.35296538
v 0.27588740 1.45391667 -0.35729387
v 0.29230982 1.43504846 -0.35659447
v -0.05299453 1.16757607 -0.35296538
v 0.29230982 1.43504846 -0.35659447
v -0.03657210 1.14870787 -0.35226598
v -0.03620931 1.14829099 -0.31727034
v 0.29267260 1.43463159 -0.32159883
v 0.27625018 1.45349991 -0.32229823
v -0.03620931 1.14829099 -0.31727034
v 0.27625018 1.45349991 -0.32229823
v -0.05263175 1.16715932 -0.31796974
v -0.03657210 1.14870787 -0.35226598
v 0.29230982 1.43504846 -0.35659447
v 0.29267260 1.43463159 -0.32159883
v -0.03657210 1.14870787 -0.35226598
v 0.29267260 1.43463159 -0.32159883
v -0.03620931 1.14829099 -0.31727034
v 0.29230982 1.43504846 -0.35659447
v 0.27588740 1.45391667 -0.35729387
v 0.27625018 1.45349991 -0.32229823
v 0.29230982 1.43504846 -0.35659447
v 0.27625018 1.45349991 -0.32229823
v 0.29267260 1.43463159 -0.32159883
v 0.27588740 1.45391667 -0.35729387
v -0.05299453 1.16757607 -0.35296538
v -0.05263175 1.16715932 -0.31796974
v 0.27588740 1.45391667 -0.35729387
v -0.05263175 1.16715932 -0.31796974
v 0.27625018 1.45349991 -0.32229823
v -0.05299453 1.16757607 -0.35296538
v -0.03657210 1.14870787 -0.35226598
v -0.03620931 1.14829099 -0.31727034
v -0.05299453 1.16757607 -0.35296538
v -0.03620931 1.14829099 -0.31727034
v -0.05263175 1.16715932 -0.31796974
vt 0.00000000 0.00000000
vt 0.00000000 0.00000000
vt 0.00000000 0.00000000
vt 0.00000000 0.00000000
vt 0.00000000 0.00000000
vt 0.00000000 0.00000000
vt 0.00000000 0.00000000
vt 0.00000000 0.00000000
vt 0.00000000 0.00000000
vt 0.00000000 0.00000000
vt 0.00000000 0.00000000
vt 0.00000000 0.00000000
vt 0.00000000 0.00000000
vt 0.00000000 0.00000000
vt 0.00000000 0.00000000
vt 0.00000000 0.00000000
vt 0.00000000 0.00000000
vt 0.00000000 0.00000000
vt 0.00000000 0.00000000
vt 0.00000000 0.00000000
vt 0.00000000 0.00000000
vt 0.00000000 0.00000000
vt 0.00000000 0.00000000
vt 0.00000000 0.00000000
vt 0.00000000 0.00000000
vt 0.00000000 0.00000000
vt 0.00000000 0.00000000
vt 0.00000000 0.00000000
vt 0.00000000 0.00000000
vt 0.00000000 0.00000000
vt 0.00000000 0.00000000
vt 0.00000000 0.00000000
vt 0.00000000 0.00000000
vt 0.00000000 0.00000000
vt 0.00000000 0.00000000
vt 0.00000000 0.00000000
f 1/1 2/2 3/3
f 4/4 5/5 6/6
f 7/7 8/8 9/9
f 10/10 11/11 12/12
f 13/13 14/14 15/15
f 16/16 17/17 18/18
f 19/19 20/20 21/21
f 22/22 23/23 24/24
f 25/25 26/26 27/27
f 28/28 29/29 30/30
f 31/31 32/32 33/33
f 34/34 35/35 36/36

