# https://github.com/mikedh/trimesh
mtllib material.mtl
usemtl BrushedStainless
v 3.02755475 3.17316151 -0.71480834
v 3.03208065 3.17710066 -0.71480834
v 3.03339362 3.17559218 -0.71483994
v 3.02755475 3.17316151 -0.71480834
v 3.03339362 3.17559218 -0.71483994
v 3.02886772 3.17165303 -0.71483994
v 3.02892995 3.17158151 -0.70884067
v 3.03345585 3.17552066 -0.70884067
v 3.03214288 3.17702913 -0.70880908
v 3.02892995 3.17158151 -0.70884067
v 3.03214288 3.17702913 -0.70880908
v 3.02761698 3.17308998 -0.70880908
v 3.02886772 3.17165303 -0.71483994
v 3.03339362 3.17559218 -0.71483994
v 3.03345585 3.17552066 -0.70884067
v 3.02886772 3.17165303 -0.71483994
v 3.03345585 3.17552066 -0.70884067
v 3.02892995 3.17158151 -0.70884067
v 3.03339362 3.17559218 -0.71483994
v 3.03208065 3.17710066 -0.71480834
v 3.03214288 3.17702913 -0.70880908
v 3.03339362 3.17559218 -0.71483994
v 3.03214288 3.17702913 -0.70880908
v 3.03345585 3.17552066 -0.70884067
v 3.03208065 3.17710066 -0.71480834
v 3.02755475 3.17316151 -0.71480834
v 3.02761698 3.17308998 -0.70880908
v 3.03208065 3.17710066 -0.71480834
v 3.02761698 3.17308998 -0.70880908
v 3.03214288 3.17702913 -0.70880908
v 3.02755475 3.17316151 -0.71480834
v 3.02886772 3.17165303 -0.71483994
v 3.02892995 3.17158151 -0.70884067
v 3.02755475 3.17316151 -0.71480834
v 3.02892995 3.17158151 -0.70884067
v 3.02761698 3.17308998 -0.70880908
vt 0.00000000 0.00000000
vt 0.00000000 0.00000000
vt 0.00000000 0.00000000
vt 0.00000000 0.00000000
vt 0.00000000 0.00000000
vt 0.00000000 0.00000000
vt 0.00000000 0.00000000
vt 0.00000000 0.00000000
vt 0.00000000 0.00000000
vt 0.00000000 0.00000000
vt 0.00000000 0.00000000
vt 0.00000000 0.00000000
vt 0.00000000 0.00000000
vt 0.00000000 0.00000000
vt 0.00000000 0.00000000
vt 0.00000000 0.00000000
vt 0.00000000 0.00000000
vt 0.00000000 0.00000000
vt 0.00000000 0.00000000
vt 0.00000000 0.00000000
vt 0.00000000 0.00000000
vt 0.00000000 0.00000000
vt 0.00000000 0.00000000
vt 0.00000000 0.00000000
vt 0.00000000 0.00000000
vt 0.00000000 0.00000000
vt 0.00000000 0.00000000
vt 0.00000000 0.00000000
vt 0.00000000 0.00000000
vt 0.00000000 0.00000000
vt 0.00000000 0.00000000
vt 0.00000000 0.00000000
vt 0.00000000 0.00000000
vt 0.00000000 0.00000000
vt 0.00000000 0.00000000
vt 0.00000000 0.00000000
f 1/1 2/2 3/3
f 4/4 5/5 6/6
f 7/7 8/8 9/9
f 10/10 11/11 12/12
f 13/13 14/14 15/15
f 16/16 17/17 18/18
f 19/19 20/20 21/21
f 22/22 23/23 24/24
f 25/25 26/26 27/27
f 28/28 29/29 30/30
f 31/31 32/32 33/33
f 34/34 35/35 36/36

