# https://github.com/mikedh/trimesh
mtllib material.mtl
usemtl DarkPlastic
v 6.72812557 2.57730246 -0.98013622
v 7.04418135 2.21156883 -0.98013622
v 7.03056431 2.19980145 -0.98045689
v 6.72812557 2.57730246 -0.98013622
v 7.03056431 2.19980145 -0.98045689
v 6.71450853 2.56553483 -0.98045689
v 6.71294594 2.56418467 -0.86455947
v 7.02900171 2.19845104 -0.86455947
v 7.04261875 2.21021867 -0.86423880
v 6.71294594 2.56418467 -0.86455947
v 7.04261875 2.21021867 -0.86423880
v 6.72656298 2.57595205 -0.86423880
v 6.71450853 2.56553483 -0.98045689
v 7.03056431 2.19980145 -0.98045689
v 7.02900171 2.19845104 -0.86455947
v 6.71450853 2.56553483 -0.98045689
v 7.02900171 2.19845104 -0.86455947
v 6.71294594 2.56418467 -0.86455947
v 7.03056431 2.19980145 -0.98045689
v 7.04418135 2.21156883 -0.98013622
v 7.04261875 2.21021867 -0.86423880
v 7.03056431 2.19980145 -0.98045689
v 7.04261875 2.21021867 -0.86423880
v 7.02900171 2.19845104 -0.86455947
v 7.04418135 2.21156883 -0.98013622
v 6.72812557 2.57730246 -0.98013622
v 6.72656298 2.57595205 -0.86423880
v 7.04418135 2.21156883 -0.98013622
v 6.72656298 2.57595205 -0.86423880
v 7.04261875 2.21021867 -0.86423880
v 6.72812557 2.57730246 -0.98013622
v 6.71450853 2.56553483 -0.98045689
v 6.71294594 2.56418467 -0.86455947
v 6.72812557 2.57730246 -0.98013622
v 6.71294594 2.56418467 -0.86455947
v 6.72656298 2.57595205 -0.86423880
vt -0.53708428 0.01999998
vt 0.53708428 0.01999998
vt 0.53708428 -0.01999998
vt -0.53708428 0.01999998
vt 0.53708428 -0.01999998
vt -0.53708428 -0.01999998
vt -0.53708428 -0.01999998
vt 0.53708428 -0.01999998
vt 0.53708428 0.01999998
vt -0.53708428 -0.01999998
vt 0.53708428 0.01999998
vt -0.53708428 0.01999998
vt -0.53708428 -0.12879539
vt 0.53708428 -0.12879539
vt 0.53708428 0.12879533
vt -0.53708428 -0.12879539
vt 0.53708428 0.12879533
vt -0.53708428 0.12879533
vt -0.02000000 -0.12879539
vt 0.02000000 -0.12879539
vt 0.02000000 0.12879533
vt -0.02000000 -0.12879539
vt 0.02000000 0.12879533
vt -0.02000000 0.12879533
vt 0.53708428 -0.12879539
vt -0.53708428 -0.12879539
vt -0.53708428 0.12879533
vt 0.53708428 -0.12879539
vt -0.53708428 0.12879533
vt 0.53708428 0.12879533
vt 0.02000000 -0.12879539
vt -0.02000000 -0.12879539
vt -0.02000000 0.12879533
vt 0.02000000 -0.12879539
vt -0.02000000 0.12879533
vt 0.02000000 0.12879533
f 1/1 2/2 3/3
f 4/4 5/5 6/6
f 7/7 8/8 9/9
f 10/10 11/11 12/12
f 13/13 14/14 15/15
f 16/16 17/17 18/18
f 19/19 20/20 21/21
f 22/22 23/23 24/24
f 25/25 26/26 27/27
f 28/28 29/29 30/30
f 31/31 32/32 33/33
f 34/34 35/35 36/36

