# https://github.com/mikedh/trimesh
mtllib material.mtl
usemtl BrushedStainless
v 7.75340509 1.40125859 -0.45428586
v 7.76648521 1.38612878 -0.45451260
v 7.43544722 1.10005593 -0.43857640
v 7.75340509 1.40125859 -0.45428586
v 7.43544722 1.10005593 -0.43857640
v 7.42236757 1.11518586 -0.43834969
v 7.42189550 1.11477816 -0.40335524
v 7.43497562 1.09964824 -0.40358198
v 7.76601362 1.38572109 -0.41951814
v 7.42189550 1.11477816 -0.40335524
v 7.76601362 1.38572109 -0.41951814
v 7.75293350 1.40085089 -0.41929144
v 7.42236757 1.11518586 -0.43834969
v 7.43544722 1.10005593 -0.43857640
v 7.43497562 1.09964824 -0.40358198
v 7.42236757 1.11518586 -0.43834969
v 7.43497562 1.09964824 -0.40358198
v 7.42189550 1.11477816 -0.40335524
v 7.43544722 1.10005593 -0.43857640
v 7.76648521 1.38612878 -0.45451260
v 7.76601362 1.38572109 -0.41951814
v 7.43544722 1.10005593 -0.43857640
v 7.76601362 1.38572109 -0.41951814
v 7.43497562 1.09964824 -0.40358198
v 7.76648521 1.38612878 -0.45451260
v 7.75340509 1.40125859 -0.45428586
v 7.75293350 1.40085089 -0.41929144
v 7.76648521 1.38612878 -0.45451260
v 7.75293350 1.40085089 -0.41929144
v 7.76601362 1.38572109 -0.41951814
v 7.75340509 1.40125859 -0.45428586
v 7.42236757 1.11518586 -0.43834969
v 7.42189550 1.11477816 -0.40335524
v 7.75340509 1.40125859 -0.45428586
v 7.42189550 1.11477816 -0.40335524
v 7.75293350 1.40085089 -0.41929144
vt 0.00000000 0.00000000
vt 0.00000000 0.00000000
vt 0.00000000 0.00000000
vt 0.00000000 0.00000000
vt 0.00000000 0.00000000
vt 0.00000000 0.00000000
vt 0.00000000 0.00000000
vt 0.00000000 0.00000000
vt 0.00000000 0.00000000
vt 0.00000000 0.00000000
vt 0.00000000 0.00000000
vt 0.00000000 0.00000000
vt 0.00000000 0.00000000
vt 0.00000000 0.00000000
vt 0.00000000 0.00000000
vt 0.00000000 0.00000000
vt 0.00000000 0.00000000
vt 0.00000000 0.00000000
vt 0.00000000 0.00000000
vt 0.00000000 0.00000000
vt 0.00000000 0.00000000
vt 0.00000000 0.00000000
vt 0.00000000 0.00000000
vt 0.00000000 0.00000000
vt 0.00000000 0.00000000
vt 0.00000000 0.00000000
vt 0.00000000 0.00000000
vt 0.00000000 0.00000000
vt 0.00000000 0.00000000
vt 0.00000000 0.00000000
vt 0.00000000 0.00000000
vt 0.00000000 0.00000000
vt 0.00000000 0.00000000
vt 0.00000000 0.00000000
vt 0.00000000 0.00000000
vt 0.00000000 0.00000000
f 1/1 2/2 3/3
f 4/4 5/5 6/6
f 7/7 8/8 9/9
f 10/10 11/11 12/12
f 13/13 14/14 15/15
f 16/16 17/17 18/18
f 19/19 20/20 21/21
f 22/22 23/23 24/24
f 25/25 26/26 27/27
f 28/28 29/29 30/30
f 31/31 32/32 33/33
f 34/34 35/35 36/36

