# https://github.com/mikedh/trimesh
mtllib material.mtl
usemtl DarkPlastic
v 5.50613880 3.97261000 -0.52866268
v 5.51790810 3.95899081 -0.52866268
v 5.12301302 3.61773467 -0.53796226
v 5.50613880 3.97261000 -0.52866268
v 5.12301302 3.61773467 -0.53796226
v 5.11124372 3.63135386 -0.53796226
v 5.10995579 3.63024116 -0.44243681
v 5.12172508 3.61662173 -0.44243681
v 5.51662016 3.95787787 -0.43313727
v 5.10995579 3.63024116 -0.44243681
v 5.51662016 3.95787787 -0.43313727
v 5.50485086 3.97149706 -0.43313727
v 5.11124372 3.63135386 -0.53796226
v 5.12301302 3.61773467 -0.53796226
v 5.12172508 3.61662173 -0.44243681
v 5.11124372 3.63135386 -0.53796226
v 5.12172508 3.61662173 -0.44243681
v 5.10995579 3.63024116 -0.44243681
v 5.12301302 3.61773467 -0.53796226
v 5.51790810 3.95899081 -0.52866268
v 5.51662016 3.95787787 -0.43313727
v 5.12301302 3.61773467 -0.53796226
v 5.51662016 3.95787787 -0.43313727
v 5.12172508 3.61662173 -0.44243681
v 5.51790810 3.95899081 -0.52866268
v 5.50613880 3.97261000 -0.52866268
v 5.50485086 3.97149706 -0.43313727
v 5.51790810 3.95899081 -0.52866268
v 5.50485086 3.97149706 -0.43313727
v 5.51662016 3.95787787 -0.43313727
v 5.50613880 3.97261000 -0.52866268
v 5.11124372 3.63135386 -0.53796226
v 5.10995579 3.63024116 -0.44243681
v 5.50613880 3.97261000 -0.52866268
v 5.10995579 3.63024116 -0.44243681
v 5.50485086 3.97149706 -0.43313727
vt -0.02000000 0.58000004
vt 0.02000000 0.58000004
vt 0.02000000 -0.58000004
vt -0.02000000 0.58000004
vt 0.02000000 -0.58000004
vt -0.02000000 -0.58000004
vt -0.02000000 -0.58000004
vt 0.02000000 -0.58000004
vt 0.02000000 0.58000004
vt -0.02000000 -0.58000004
vt 0.02000000 0.58000004
vt -0.02000000 0.58000004
vt -0.02000000 -0.10615623
vt 0.02000000 -0.10615623
vt 0.02000000 0.10615623
vt -0.02000000 -0.10615623
vt 0.02000000 0.10615623
vt -0.02000000 0.10615623
vt -0.58000004 -0.10615623
vt 0.58000004 -0.10615623
vt 0.58000004 0.10615623
vt -0.58000004 -0.10615623
vt 0.58000004 0.10615623
vt -0.58000004 0.10615623
vt 0.02000000 -0.10615623
vt -0.02000000 -0.10615623
vt -0.02000000 0.10615623
vt 0.02000000 -0.10615623
vt -0.02000000 0.10615623
vt 0.02000000 0.10615623
vt 0.58000004 -0.10615623
vt -0.58000004 -0.10615623
vt -0.58000004 0.10615623
vt 0.58000004 -0.10615623
vt -0.58000004 0.10615623
vt 0.58000004 0.10615623
f 1/1 2/2 3/3
f 4/4 5/5 6/6
f 7/7 8/8 9/9
f 10/10 11/11 12/12
f 13/13 14/14 15/15
f 16/16 17/17 18/18
f 19/19 20/20 21/21
f 22/22 23/23 24/24
f 25/25 26/26 27/27
f 28/28 29/29 30/30
f 31/31 32/32 33/33
f 34/34 35/35 36/36

