# https://github.com/mikedh/trimesh
mtllib material.mtl
usemtl DarkPlastic
v 1.25198317 2.22169280 -0.82042438
v 1.54430318 2.47612023 -0.82042438
v 1.86352444 2.10935664 -0.82810193
v 1.25198317 2.22169280 -0.82042438
v 1.86352444 2.10935664 -0.82810193
v 1.57120442 1.85492909 -0.82810193
v 1.57139099 1.85471475 -0.81010419
v 1.86371100 2.10914230 -0.81010419
v 1.54448974 2.47590590 -0.80242658
v 1.57139099 1.85471475 -0.81010419
v 1.54448974 2.47590590 -0.80242658
v 1.25216973 2.22147822 -0.80242658
v 1.57120442 1.85492909 -0.82810193
v 1.86352444 2.10935664 -0.82810193
v 1.86371100 2.10914230 -0.81010419
v 1.57120442 1.85492909 -0.82810193
v 1.86371100 2.10914230 -0.81010419
v 1.57139099 1.85471475 -0.81010419
v 1.86352444 2.10935664 -0.82810193
v 1.54430318 2.47612023 -0.82042438
v 1.54448974 2.47590590 -0.80242658
v 1.86352444 2.10935664 -0.82810193
v 1.54448974 2.47590590 -0.80242658
v 1.86371100 2.10914230 -0.81010419
v 1.54430318 2.47612023 -0.82042438
v 1.25198317 2.22169280 -0.82042438
v 1.25216973 2.22147822 -0.80242658
v 1.54430318 2.47612023 -0.82042438
v 1.25216973 2.22147822 -0.80242658
v 1.54448974 2.47590590 -0.80242658
v 1.25198317 2.22169280 -0.82042438
v 1.57120442 1.85492909 -0.82810193
v 1.57139099 1.85471475 -0.81010419
v 1.25198317 2.22169280 -0.82042438
v 1.57139099 1.85471475 -0.81010419
v 1.25216973 2.22147822 -0.80242658
vt -0.43059582 0.54032069
vt 0.43059582 0.54032069
vt 0.43059582 -0.54032063
vt -0.43059582 0.54032069
vt 0.43059582 -0.54032063
vt -0.43059582 -0.54032063
vt -0.43059582 -0.54032063
vt 0.43059582 -0.54032063
vt 0.43059582 0.54032069
vt -0.43059582 -0.54032063
vt 0.43059582 0.54032069
vt -0.43059582 0.54032069
vt -0.43059582 -0.01999998
vt 0.43059582 -0.01999998
vt 0.43059582 0.01999998
vt -0.43059582 -0.01999998
vt 0.43059582 0.01999998
vt -0.43059582 0.01999998
vt -0.54032069 -0.01999998
vt 0.54032069 -0.01999998
vt 0.54032069 0.01999998
vt -0.54032069 -0.01999998
vt 0.54032069 0.01999998
vt -0.54032069 0.01999998
vt 0.43059582 -0.01999998
vt -0.43059582 -0.01999998
vt -0.43059582 0.01999998
vt 0.43059582 -0.01999998
vt -0.43059582 0.01999998
vt 0.43059582 0.01999998
vt 0.54032069 -0.01999998
vt -0.54032069 -0.01999998
vt -0.54032069 0.01999998
vt 0.54032069 -0.01999998
vt -0.54032069 0.01999998
vt 0.54032069 0.01999998
f 1/1 2/2 3/3
f 4/4 5/5 6/6
f 7/7 8/8 9/9
f 10/10 11/11 12/12
f 13/13 14/14 15/15
f 16/16 17/17 18/18
f 19/19 20/20 21/21
f 22/22 23/23 24/24
f 25/25 26/26 27/27
f 28/28 29/29 30/30
f 31/31 32/32 33/33
f 34/34 35/35 36/36

