# https://github.com/mikedh/trimesh
mtllib material.mtl
usemtl PaleWood
v 6.33235979 2.23529363 -0.65629452
v 6.64841557 1.86956012 -0.65629452
v 6.63479853 1.85779274 -0.65661520
v 6.33235979 2.23529363 -0.65629452
v 6.63479853 1.85779274 -0.65661520
v 6.31874275 2.22352624 -0.65661520
v 6.31665945 2.22172594 -0.42058346
v 6.63271523 1.85599244 -0.42605951
v 6.64633226 1.86775982 -0.42671505
v 6.31665945 2.22172594 -0.42058346
v 6.64633226 1.86775982 -0.42671505
v 6.33027649 2.23349333 -0.42123896
v 6.31874275 2.22352624 -0.65661520
v 6.63479853 1.85779274 -0.65661520
v 6.63271523 1.85599244 -0.42605951
v 6.31874275 2.22352624 -0.65661520
v 6.63271523 1.85599244 -0.42605951
v 6.31665945 2.22172594 -0.42058346
v 6.63479853 1.85779274 -0.65661520
v 6.64841557 1.86956012 -0.65629452
v 6.64633226 1.86775982 -0.42671505
v 6.63479853 1.85779274 -0.65661520
v 6.64633226 1.86775982 -0.42671505
v 6.63271523 1.85599244 -0.42605951
v 6.64841557 1.86956012 -0.65629452
v 6.33235979 2.23529363 -0.65629452
v 6.33027649 2.23349333 -0.42123896
v 6.64841557 1.86956012 -0.65629452
v 6.33027649 2.23349333 -0.42123896
v 6.64633226 1.86775982 -0.42671505
v 6.33235979 2.23529363 -0.65629452
v 6.31874275 2.22352624 -0.65661520
v 6.31665945 2.22172594 -0.42058346
v 6.33235979 2.23529363 -0.65629452
v 6.31665945 2.22172594 -0.42058346
v 6.33027649 2.23349333 -0.42123896
vt -0.53708428 0.01999998
vt 0.53708428 0.01999998
vt 0.53708428 -0.01999998
vt -0.53708428 0.01999998
vt 0.53708428 -0.01999998
vt -0.53708428 -0.01999998
vt -0.53708428 -0.01999998
vt 0.53708428 -0.01999998
vt 0.53708428 0.01999998
vt -0.53708428 -0.01999998
vt 0.53708428 0.01999998
vt -0.53708428 0.01999998
vt -0.53708428 -0.17172718
vt 0.53708428 -0.17172718
vt 0.53708428 0.17172712
vt -0.53708428 -0.17172718
vt 0.53708428 0.17172712
vt -0.53708428 0.17172712
vt -0.02000000 -0.17172718
vt 0.02000000 -0.17172718
vt 0.02000000 0.17172712
vt -0.02000000 -0.17172718
vt 0.02000000 0.17172712
vt -0.02000000 0.17172712
vt 0.53708428 -0.17172718
vt -0.53708428 -0.17172718
vt -0.53708428 0.17172712
vt 0.53708428 -0.17172718
vt -0.53708428 0.17172712
vt 0.53708428 0.17172712
vt 0.02000000 -0.17172718
vt -0.02000000 -0.17172718
vt -0.02000000 0.17172712
vt 0.02000000 -0.17172718
vt -0.02000000 0.17172712
vt 0.02000000 0.17172712
f 1/1 2/2 3/3
f 4/4 5/5 6/6
f 7/7 8/8 9/9
f 10/10 11/11 12/12
f 13/13 14/14 15/15
f 16/16 17/17 18/18
f 19/19 20/20 21/21
f 22/22 23/23 24/24
f 25/25 26/26 27/27
f 28/28 29/29 30/30
f 31/31 32/32 33/33
f 34/34 35/35 36/36

