# https://github.com/mikedh/trimesh
mtllib material.mtl
usemtl PaleWood
v 2.76769781 3.17075276 -0.00850016
v 3.04740572 3.41327643 -0.00850016
v 3.05919719 3.39967704 -0.00863071
v 2.76769781 3.17075276 -0.00850016
v 3.05919719 3.39967704 -0.00863071
v 2.77948928 3.15715337 -0.00863071
v 2.78373575 3.15225601 0.88503581
v 3.06344366 3.39477944 0.88503581
v 3.05165219 3.40837884 0.88516641
v 2.78373575 3.15225601 0.88503581
v 3.05165219 3.40837884 0.88516641
v 2.77194428 3.16585541 0.88516641
v 2.77948928 3.15715337 -0.00863071
v 3.05919719 3.39967704 -0.00863071
v 3.06344366 3.39477944 0.88503581
v 2.77948928 3.15715337 -0.00863071
v 3.06344366 3.39477944 0.88503581
v 2.78373575 3.15225601 0.88503581
v 3.05919719 3.39967704 -0.00863071
v 3.04740572 3.41327643 -0.00850016
v 3.05165219 3.40837884 0.88516641
v 3.05919719 3.39967704 -0.00863071
v 3.05165219 3.40837884 0.88516641
v 3.06344366 3.39477944 0.88503581
v 3.04740572 3.41327643 -0.00850016
v 2.76769781 3.17075276 -0.00850016
v 2.77194428 3.16585541 0.88516641
v 3.04740572 3.41327643 -0.00850016
v 2.77194428 3.16585541 0.88516641
v 3.05165219 3.40837884 0.88516641
v 2.76769781 3.17075276 -0.00850016
v 2.77948928 3.15715337 -0.00863071
v 2.78373575 3.15225601 0.88503581
v 2.76769781 3.17075276 -0.00850016
v 2.78373575 3.15225601 0.88503581
v 2.77194428 3.16585541 0.88516641
vt -0.41134265 0.01999998
vt 0.41134265 0.01999998
vt 0.41134265 -0.01999998
vt -0.41134265 0.01999998
vt 0.41134265 -0.01999998
vt -0.41134265 -0.01999998
vt -0.41134265 -0.01999998
vt 0.41134265 -0.01999998
vt 0.41134265 0.01999998
vt -0.41134265 -0.01999998
vt 0.41134265 0.01999998
vt -0.41134265 0.01999998
vt -0.41134265 -0.99298894
vt 0.41134265 -0.99298894
vt 0.41134265 0.99298894
vt -0.41134265 -0.99298894
vt 0.41134265 0.99298894
vt -0.41134265 0.99298894
vt -0.02000000 -0.99298894
vt 0.02000000 -0.99298894
vt 0.02000000 0.99298894
vt -0.02000000 -0.99298894
vt 0.02000000 0.99298894
vt -0.02000000 0.99298894
vt 0.41134265 -0.99298894
vt -0.41134265 -0.99298894
vt -0.41134265 0.99298894
vt 0.41134265 -0.99298894
vt -0.41134265 0.99298894
vt 0.41134265 0.99298894
vt 0.02000000 -0.99298894
vt -0.02000000 -0.99298894
vt -0.02000000 0.99298894
vt 0.02000000 -0.99298894
vt -0.02000000 0.99298894
vt 0.02000000 0.99298894
f 1/1 2/2 3/3
f 4/4 5/5 6/6
f 7/7 8/8 9/9
f 10/10 11/11 12/12
f 13/13 14/14 15/15
f 16/16 17/17 18/18
f 19/19 20/20 21/21
f 22/22 23/23 24/24
f 25/25 26/26 27/27
f 28/28 29/29 30/30
f 31/31 32/32 33/33
f 34/34 35/35 36/36

