# https://github.com/mikedh/trimesh
mtllib material.mtl
usemtl DarkPlastic
v 1.54430318 2.47612023 -0.82042438
v 1.55788064 2.48793769 -0.82042438
v 1.87710190 2.12117410 -0.82810193
v 1.54430318 2.47612023 -0.82042438
v 1.87710190 2.12117410 -0.82810193
v 1.86352444 2.10935664 -0.82810193
v 1.86464441 2.10806990 -0.72006583
v 1.87822187 2.11988735 -0.72006583
v 1.55900061 2.48665094 -0.71238828
v 1.86464441 2.10806990 -0.72006583
v 1.55900061 2.48665094 -0.71238828
v 1.54542315 2.47483349 -0.71238828
v 1.86352444 2.10935664 -0.82810193
v 1.87710190 2.12117410 -0.82810193
v 1.87822187 2.11988735 -0.72006583
v 1.86352444 2.10935664 -0.82810193
v 1.87822187 2.11988735 -0.72006583
v 1.86464441 2.10806990 -0.72006583
v 1.87710190 2.12117410 -0.82810193
v 1.55788064 2.48793769 -0.82042438
v 1.55900061 2.48665094 -0.71238828
v 1.87710190 2.12117410 -0.82810193
v 1.55900061 2.48665094 -0.71238828
v 1.87822187 2.11988735 -0.72006583
v 1.55788064 2.48793769 -0.82042438
v 1.54430318 2.47612023 -0.82042438
v 1.54542315 2.47483349 -0.71238828
v 1.55788064 2.48793769 -0.82042438
v 1.54542315 2.47483349 -0.71238828
v 1.55900061 2.48665094 -0.71238828
v 1.54430318 2.47612023 -0.82042438
v 1.86352444 2.10935664 -0.82810193
v 1.86464441 2.10806990 -0.72006583
v 1.54430318 2.47612023 -0.82042438
v 1.86464441 2.10806990 -0.72006583
v 1.54542315 2.47483349 -0.71238828
vt -0.02000000 0.54032069
vt 0.02000000 0.54032069
vt 0.02000000 -0.54032063
vt -0.02000000 0.54032069
vt 0.02000000 -0.54032063
vt -0.02000000 -0.54032063
vt -0.02000000 -0.54032063
vt 0.02000000 -0.54032063
vt 0.02000000 0.54032069
vt -0.02000000 -0.54032063
vt 0.02000000 0.54032069
vt -0.02000000 0.54032069
vt -0.02000000 -0.12005508
vt 0.02000000 -0.12005508
vt 0.02000000 0.12005508
vt -0.02000000 -0.12005508
vt 0.02000000 0.12005508
vt -0.02000000 0.12005508
vt -0.54032069 -0.12005508
vt 0.54032069 -0.12005508
vt 0.54032069 0.12005508
vt -0.54032069 -0.12005508
vt 0.54032069 0.12005508
vt -0.54032069 0.12005508
vt 0.02000000 -0.12005508
vt -0.02000000 -0.12005508
vt -0.02000000 0.12005508
vt 0.02000000 -0.12005508
vt -0.02000000 0.12005508
vt 0.02000000 0.12005508
vt 0.54032069 -0.12005508
vt -0.54032069 -0.12005508
vt -0.54032069 0.12005508
vt 0.54032069 -0.12005508
vt -0.54032069 0.12005508
vt 0.54032069 0.12005508
f 1/1 2/2 3/3
f 4/4 5/5 6/6
f 7/7 8/8 9/9
f 10/10 11/11 12/12
f 13/13 14/14 15/15
f 16/16 17/17 18/18
f 19/19 20/20 21/21
f 22/22 23/23 24/24
f 25/25 26/26 27/27
f 28/28 29/29 30/30
f 31/31 32/32 33/33
f 34/34 35/35 36/36

