# https://github.com/mikedh/trimesh
mtllib material.mtl
usemtl PaleWood
v -0.84517753 0.49333858 -1.08181524
v 1.51439083 2.54704356 -1.08181524
v 1.86906004 2.13955259 -1.09034538
v -0.84517753 0.49333858 -1.08181524
v 1.86906004 2.13955259 -1.09034538
v -0.49050841 0.08584768 -1.09034538
v -0.49032182 0.08563332 -1.07234764
v 1.86924660 2.13933825 -1.07234764
v 1.51457751 2.54682922 -1.06381750
v -0.49032182 0.08563332 -1.07234764
v 1.51457751 2.54682922 -1.06381750
v -0.84499097 0.49312422 -1.06381750
v -0.49050841 0.08584768 -1.09034538
v 1.86906004 2.13955259 -1.09034538
v 1.86924660 2.13933825 -1.07234764
v -0.49050841 0.08584768 -1.09034538
v 1.86924660 2.13933825 -1.07234764
v -0.49032182 0.08563332 -1.07234764
v 1.86906004 2.13955259 -1.09034538
v 1.51439083 2.54704356 -1.08181524
v 1.51457751 2.54682922 -1.06381750
v 1.86906004 2.13955259 -1.09034538
v 1.51457751 2.54682922 -1.06381750
v 1.86924660 2.13933825 -1.07234764
v 1.51439083 2.54704356 -1.08181524
v -0.84517753 0.49333858 -1.08181524
v -0.84499097 0.49312422 -1.06381750
v 1.51439083 2.54704356 -1.08181524
v -0.84499097 0.49312422 -1.06381750
v 1.51457751 2.54682922 -1.06381750
v -0.84517753 0.49333858 -1.08181524
v -0.49050841 0.08584768 -1.09034538
v -0.49032182 0.08563332 -1.07234764
v -0.84517753 0.49333858 -1.08181524
v -0.49032182 0.08563332 -1.07234764
v -0.84499097 0.49312422 -1.06381750
vt -3.47571230 0.60032070
vt 3.47571230 0.60032070
vt 3.47571230 -0.60032070
vt -3.47571230 0.60032070
vt 3.47571230 -0.60032070
vt -3.47571230 -0.60032070
vt -3.47571230 -0.60032070
vt 3.47571230 -0.60032070
vt 3.47571230 0.60032070
vt -3.47571230 -0.60032070
vt 3.47571230 0.60032070
vt -3.47571230 0.60032070
vt -3.47571230 -0.01999998
vt 3.47571230 -0.01999998
vt 3.47571230 0.01999998
vt -3.47571230 -0.01999998
vt 3.47571230 0.01999998
vt -3.47571230 0.01999998
vt -0.60032070 -0.01999998
vt 0.60032070 -0.01999998
vt 0.60032070 0.01999998
vt -0.60032070 -0.01999998
vt 0.60032070 0.01999998
vt -0.60032070 0.01999998
vt 3.47571230 -0.01999998
vt -3.47571230 -0.01999998
vt -3.47571230 0.01999998
vt 3.47571230 -0.01999998
vt -3.47571230 0.01999998
vt 3.47571230 0.01999998
vt 0.60032070 -0.01999998
vt -0.60032070 -0.01999998
vt -0.60032070 0.01999998
vt 0.60032070 -0.01999998
vt -0.60032070 0.01999998
vt 0.60032070 0.01999998
f 1/1 2/2 3/3
f 4/4 5/5 6/6
f 7/7 8/8 9/9
f 10/10 11/11 12/12
f 13/13 14/14 15/15
f 16/16 17/17 18/18
f 19/19 20/20 21/21
f 22/22 23/23 24/24
f 25/25 26/26 27/27
f 28/28 29/29 30/30
f 31/31 32/32 33/33
f 34/34 35/35 36/36

