# https://github.com/mikedh/trimesh
mtllib material.mtl
usemtl PalePlastic
v -0.69281757 0.62912703 -0.09849773
v -0.60491145 0.70442045 -0.09724990
v -0.60946441 0.70973712 -0.09731141
v -0.69281757 0.62912703 -0.09849773
v -0.60946441 0.70973712 -0.09731141
v -0.69737053 0.63444364 -0.09855925
v -0.70127690 0.63232988 0.00788356
v -0.61337084 0.70762336 0.00913139
v -0.60881788 0.70230669 0.00919290
v -0.70127690 0.63232988 0.00788356
v -0.60881788 0.70230669 0.00919290
v -0.69672400 0.62701327 0.00794508
v -0.69737053 0.63444364 -0.09855925
v -0.60946441 0.70973712 -0.09731141
v -0.61337084 0.70762336 0.00913139
v -0.69737053 0.63444364 -0.09855925
v -0.61337084 0.70762336 0.00913139
v -0.70127690 0.63232988 0.00788356
v -0.60946441 0.70973712 -0.09731141
v -0.60491145 0.70442045 -0.09724990
v -0.60881788 0.70230669 0.00919290
v -0.60946441 0.70973712 -0.09731141
v -0.60881788 0.70230669 0.00919290
v -0.61337084 0.70762336 0.00913139
v -0.60491145 0.70442045 -0.09724990
v -0.69281757 0.62912703 -0.09849773
v -0.69672400 0.62701327 0.00794508
v -0.60491145 0.70442045 -0.09724990
v -0.69672400 0.62701327 0.00794508
v -0.60881788 0.70230669 0.00919290
v -0.69281757 0.62912703 -0.09849773
v -0.69737053 0.63444364 -0.09855925
v -0.70127690 0.63232988 0.00788356
v -0.69281757 0.62912703 -0.09849773
v -0.70127690 0.63232988 0.00788356
v -0.69672400 0.62701327 0.00794508
vt 0.00000000 0.00000000
vt 0.00000000 0.00000000
vt 0.00000000 0.00000000
vt 0.00000000 0.00000000
vt 0.00000000 0.00000000
vt 0.00000000 0.00000000
vt 0.00000000 0.00000000
vt 0.00000000 0.00000000
vt 0.00000000 0.00000000
vt 0.00000000 0.00000000
vt 0.00000000 0.00000000
vt 0.00000000 0.00000000
vt 0.00000000 0.00000000
vt 0.00000000 0.00000000
vt 0.00000000 0.00000000
vt 0.00000000 0.00000000
vt 0.00000000 0.00000000
vt 0.00000000 0.00000000
vt 0.00000000 0.00000000
vt 0.00000000 0.00000000
vt 0.00000000 0.00000000
vt 0.00000000 0.00000000
vt 0.00000000 0.00000000
vt 0.00000000 0.00000000
vt 0.00000000 0.00000000
vt 0.00000000 0.00000000
vt 0.00000000 0.00000000
vt 0.00000000 0.00000000
vt 0.00000000 0.00000000
vt 0.00000000 0.00000000
vt 0.00000000 0.00000000
vt 0.00000000 0.00000000
vt 0.00000000 0.00000000
vt 0.00000000 0.00000000
vt 0.00000000 0.00000000
vt 0.00000000 0.00000000
f 1/1 2/2 3/3
f 4/4 5/5 6/6
f 7/7 8/8 9/9
f 10/10 11/11 12/12
f 13/13 14/14 15/15
f 16/16 17/17 18/18
f 19/19 20/20 21/21
f 22/22 23/23 24/24
f 25/25 26/26 27/27
f 28/28 29/29 30/30
f 31/31 32/32 33/33
f 34/34 35/35 36/36

