# https://github.com/mikedh/trimesh
mtllib material.mtl
usemtl PaleWood
v -0.83317494 0.47954845 -1.06410170
v -0.81959748 0.49136594 -1.06410170
v -0.48856032 0.11102658 -1.07206345
v -0.83317494 0.47954845 -1.06410170
v -0.48856032 0.11102658 -1.07206345
v -0.50213778 0.09920911 -1.07206345
v -0.49470130 0.09066509 -0.35471389
v -0.48112383 0.10248256 -0.35471389
v -0.81216097 0.48282191 -0.34675211
v -0.49470130 0.09066509 -0.35471389
v -0.81216097 0.48282191 -0.34675211
v -0.82573843 0.47100446 -0.34675211
v -0.50213778 0.09920911 -1.07206345
v -0.48856032 0.11102658 -1.07206345
v -0.48112383 0.10248256 -0.35471389
v -0.50213778 0.09920911 -1.07206345
v -0.48112383 0.10248256 -0.35471389
v -0.49470130 0.09066509 -0.35471389
v -0.48856032 0.11102658 -1.07206345
v -0.81959748 0.49136594 -1.06410170
v -0.81216097 0.48282191 -0.34675211
v -0.48856032 0.11102658 -1.07206345
v -0.81216097 0.48282191 -0.34675211
v -0.48112383 0.10248256 -0.35471389
v -0.81959748 0.49136594 -1.06410170
v -0.83317494 0.47954845 -1.06410170
v -0.82573843 0.47100446 -0.34675211
v -0.81959748 0.49136594 -1.06410170
v -0.82573843 0.47100446 -0.34675211
v -0.81216097 0.48282191 -0.34675211
v -0.83317494 0.47954845 -1.06410170
v -0.50213778 0.09920911 -1.07206345
v -0.49470130 0.09066509 -0.35471389
v -0.83317494 0.47954845 -1.06410170
v -0.49470130 0.09066509 -0.35471389
v -0.82573843 0.47100446 -0.34675211
vt -0.02000000 0.56032068
vt 0.02000000 0.56032068
vt 0.02000000 -0.56032062
vt -0.02000000 0.56032068
vt 0.02000000 -0.56032062
vt -0.02000000 -0.56032062
vt -0.02000000 -0.56032062
vt 0.02000000 -0.56032062
vt 0.02000000 0.56032068
vt -0.02000000 -0.56032062
vt 0.02000000 0.56032068
vt -0.02000000 0.56032068
vt -0.02000000 -0.79715443
vt 0.02000000 -0.79715443
vt 0.02000000 0.79715443
vt -0.02000000 -0.79715443
vt 0.02000000 0.79715443
vt -0.02000000 0.79715443
vt -0.56032068 -0.79715443
vt 0.56032068 -0.79715443
vt 0.56032068 0.79715443
vt -0.56032068 -0.79715443
vt 0.56032068 0.79715443
vt -0.56032068 0.79715443
vt 0.02000000 -0.79715443
vt -0.02000000 -0.79715443
vt -0.02000000 0.79715443
vt 0.02000000 -0.79715443
vt -0.02000000 0.79715443
vt 0.02000000 0.79715443
vt 0.56032068 -0.79715443
vt -0.56032068 -0.79715443
vt -0.56032068 0.79715443
vt 0.56032068 -0.79715443
vt -0.56032068 0.79715443
vt 0.56032068 0.79715443
f 1/1 2/2 3/3
f 4/4 5/5 6/6
f 7/7 8/8 9/9
f 10/10 11/11 12/12
f 13/13 14/14 15/15
f 16/16 17/17 18/18
f 19/19 20/20 21/21
f 22/22 23/23 24/24
f 25/25 26/26 27/27
f 28/28 29/29 30/30
f 31/31 32/32 33/33
f 34/34 35/35 36/36

