# https://github.com/mikedh/trimesh
mtllib material.mtl
usemtl DarkPlastic
v 1.23593342 2.21271563 -1.05890763
v 1.24951088 2.22453308 -1.05890763
v 1.56873214 1.85776961 -1.06658518
v 1.23593342 2.21271563 -1.05890763
v 1.56873214 1.85776961 -1.06658518
v 1.55515468 1.84595215 -1.06658518
v 1.55691552 1.84392893 -0.89672166
v 1.57049298 1.85574639 -0.89672166
v 1.25127184 2.22251010 -0.88904405
v 1.55691552 1.84392893 -0.89672166
v 1.25127184 2.22251010 -0.88904405
v 1.23769438 2.21069241 -0.88904405
v 1.55515468 1.84595215 -1.06658518
v 1.56873214 1.85776961 -1.06658518
v 1.57049298 1.85574639 -0.89672166
v 1.55515468 1.84595215 -1.06658518
v 1.57049298 1.85574639 -0.89672166
v 1.55691552 1.84392893 -0.89672166
v 1.56873214 1.85776961 -1.06658518
v 1.24951088 2.22453308 -1.05890763
v 1.25127184 2.22251010 -0.88904405
v 1.56873214 1.85776961 -1.06658518
v 1.25127184 2.22251010 -0.88904405
v 1.57049298 1.85574639 -0.89672166
v 1.24951088 2.22453308 -1.05890763
v 1.23593342 2.21271563 -1.05890763
v 1.23769438 2.21069241 -0.88904405
v 1.24951088 2.22453308 -1.05890763
v 1.23769438 2.21069241 -0.88904405
v 1.25127184 2.22251010 -0.88904405
v 1.23593342 2.21271563 -1.05890763
v 1.55515468 1.84595215 -1.06658518
v 1.55691552 1.84392893 -0.89672166
v 1.23593342 2.21271563 -1.05890763
v 1.55691552 1.84392893 -0.89672166
v 1.23769438 2.21069241 -0.88904405
vt -0.02000000 0.54032069
vt 0.02000000 0.54032069
vt 0.02000000 -0.54032063
vt -0.02000000 0.54032069
vt 0.02000000 -0.54032063
vt -0.02000000 -0.54032063
vt -0.02000000 -0.54032063
vt 0.02000000 -0.54032063
vt 0.02000000 0.54032069
vt -0.02000000 -0.54032063
vt 0.02000000 0.54032069
vt -0.02000000 0.54032069
vt -0.02000000 -0.18876076
vt 0.02000000 -0.18876076
vt 0.02000000 0.18876082
vt -0.02000000 -0.18876076
vt 0.02000000 0.18876082
vt -0.02000000 0.18876082
vt -0.54032069 -0.18876076
vt 0.54032069 -0.18876076
vt 0.54032069 0.18876082
vt -0.54032069 -0.18876076
vt 0.54032069 0.18876082
vt -0.54032069 0.18876082
vt 0.02000000 -0.18876076
vt -0.02000000 -0.18876076
vt -0.02000000 0.18876082
vt 0.02000000 -0.18876076
vt -0.02000000 0.18876082
vt 0.02000000 0.18876082
vt 0.54032069 -0.18876076
vt -0.54032069 -0.18876076
vt -0.54032069 0.18876082
vt 0.54032069 -0.18876076
vt -0.54032069 0.18876082
vt 0.54032069 0.18876082
f 1/1 2/2 3/3
f 4/4 5/5 6/6
f 7/7 8/8 9/9
f 10/10 11/11 12/12
f 13/13 14/14 15/15
f 16/16 17/17 18/18
f 19/19 20/20 21/21
f 22/22 23/23 24/24
f 25/25 26/26 27/27
f 28/28 29/29 30/30
f 31/31 32/32 33/33
f 34/34 35/35 36/36

