# https://github.com/mikedh/trimesh
mtllib material.mtl
usemtl WhiteSolidSurface
v 2.26028919 3.16118503 0.89357221
v 4.12176657 4.77519655 0.89357221
v 4.33513308 4.52911615 0.89120972
v 2.26028919 3.16118503 0.89357221
v 4.33513308 4.52911615 0.89120972
v 2.47365546 2.91510463 0.89120972
v 2.47374082 2.91500616 0.90920925
v 4.33521843 4.52901745 0.90920925
v 4.12185192 4.77509785 0.91157168
v 2.47374082 2.91500616 0.90920925
v 4.12185192 4.77509785 0.91157168
v 2.26037455 3.16108632 0.91157168
v 2.47365546 2.91510463 0.89120972
v 4.33513308 4.52911615 0.89120972
v 4.33521843 4.52901745 0.90920925
v 2.47365546 2.91510463 0.89120972
v 4.33521843 4.52901745 0.90920925
v 2.47374082 2.91500616 0.90920925
v 4.33513308 4.52911615 0.89120972
v 4.12176657 4.77519655 0.89357221
v 4.12185192 4.77509785 0.91157168
v 4.33513308 4.52911615 0.89120972
v 4.12185192 4.77509785 0.91157168
v 4.33521843 4.52901745 0.90920925
v 4.12176657 4.77519655 0.89357221
v 2.26028919 3.16118503 0.89357221
v 2.26037455 3.16108632 0.91157168
v 4.12176657 4.77519655 0.89357221
v 2.26037455 3.16108632 0.91157168
v 4.12185192 4.77509785 0.91157168
v 2.26028919 3.16118503 0.89357221
v 2.47365546 2.91510463 0.89120972
v 2.47374082 2.91500616 0.90920925
v 2.26028919 3.16118503 0.89357221
v 2.47374082 2.91500616 0.90920925
v 2.26037455 3.16108632 0.91157168
vt -2.73751521 0.36189878
vt 2.73751521 0.36189878
vt 2.73751521 -0.36189878
vt -2.73751521 0.36189878
vt 2.73751521 -0.36189878
vt -2.73751521 -0.36189878
vt -2.73751521 -0.36189878
vt 2.73751521 -0.36189878
vt 2.73751521 0.36189878
vt -2.73751521 -0.36189878
vt 2.73751521 0.36189878
vt -2.73751521 0.36189878
vt -2.73751521 -0.01999998
vt 2.73751521 -0.01999998
vt 2.73751521 0.01999998
vt -2.73751521 -0.01999998
vt 2.73751521 0.01999998
vt -2.73751521 0.01999998
vt -0.36189881 -0.01999998
vt 0.36189881 -0.01999998
vt 0.36189881 0.01999998
vt -0.36189881 -0.01999998
vt 0.36189881 0.01999998
vt -0.36189881 0.01999998
vt 2.73751521 -0.01999998
vt -2.73751521 -0.01999998
vt -2.73751521 0.01999998
vt 2.73751521 -0.01999998
vt -2.73751521 0.01999998
vt 2.73751521 0.01999998
vt 0.36189881 -0.01999998
vt -0.36189881 -0.01999998
vt -0.36189881 0.01999998
vt 0.36189881 -0.01999998
vt -0.36189881 0.01999998
vt 0.36189881 0.01999998
f 1/1 2/2 3/3
f 4/4 5/5 6/6
f 7/7 8/8 9/9
f 10/10 11/11 12/12
f 13/13 14/14 15/15
f 16/16 17/17 18/18
f 19/19 20/20 21/21
f 22/22 23/23 24/24
f 25/25 26/26 27/27
f 28/28 29/29 30/30
f 31/31 32/32 33/33
f 34/34 35/35 36/36

