# https://github.com/mikedh/trimesh
mtllib material.mtl
usemtl PaleWood
v 4.48922205 4.36490774 -0.53780192
v 5.12982178 3.62361860 -0.53780192
v 5.11620474 3.61185098 -0.53812259
v 4.48922205 4.36490774 -0.53780192
v 5.11620474 3.61185098 -0.53812259
v 4.47560501 4.35314035 -0.53812259
v 4.47388792 4.35165644 -0.41075534
v 5.11448765 3.61036706 -0.41075534
v 5.12810469 3.62213469 -0.41043466
v 4.47388792 4.35165644 -0.41075534
v 5.12810469 3.62213469 -0.41043466
v 4.48750496 4.36342382 -0.41043466
v 4.47560501 4.35314035 -0.53812259
v 5.11620474 3.61185098 -0.53812259
v 5.11448765 3.61036706 -0.41075534
v 4.47560501 4.35314035 -0.53812259
v 5.11448765 3.61036706 -0.41075534
v 4.47388792 4.35165644 -0.41075534
v 5.11620474 3.61185098 -0.53812259
v 5.12982178 3.62361860 -0.53780192
v 5.12810469 3.62213469 -0.41043466
v 5.11620474 3.61185098 -0.53812259
v 5.12810469 3.62213469 -0.41043466
v 5.11448765 3.61036706 -0.41075534
v 5.12982178 3.62361860 -0.53780192
v 4.48922205 4.36490774 -0.53780192
v 4.48750496 4.36342382 -0.41043466
v 5.12982178 3.62361860 -0.53780192
v 4.48750496 4.36342382 -0.41043466
v 5.12810469 3.62213469 -0.41043466
v 4.48922205 4.36490774 -0.53780192
v 4.47560501 4.35314035 -0.53812259
v 4.47388792 4.35165644 -0.41075534
v 4.48922205 4.36490774 -0.53780192
v 4.47388792 4.35165644 -0.41075534
v 4.48750496 4.36342382 -0.41043466
vt -1.08859265 0.01999998
vt 1.08859265 0.01999998
vt 1.08859265 -0.01999998
vt -1.08859265 0.01999998
vt 1.08859265 -0.01999998
vt -1.08859265 -0.01999998
vt -1.08859265 -0.01999998
vt 1.08859265 -0.01999998
vt 1.08859265 0.01999998
vt -1.08859265 -0.01999998
vt 1.08859265 0.01999998
vt -1.08859265 0.01999998
vt -1.08859265 -0.14154160
vt 1.08859265 -0.14154160
vt 1.08859265 0.14154160
vt -1.08859265 -0.14154160
vt 1.08859265 0.14154160
vt -1.08859265 0.14154160
vt -0.02000000 -0.14154160
vt 0.02000000 -0.14154160
vt 0.02000000 0.14154160
vt -0.02000000 -0.14154160
vt 0.02000000 0.14154160
vt -0.02000000 0.14154160
vt 1.08859265 -0.14154160
vt -1.08859265 -0.14154160
vt -1.08859265 0.14154160
vt 1.08859265 -0.14154160
vt -1.08859265 0.14154160
vt 1.08859265 0.14154160
vt 0.02000000 -0.14154160
vt -0.02000000 -0.14154160
vt -0.02000000 0.14154160
vt 0.02000000 -0.14154160
vt -0.02000000 0.14154160
vt 0.02000000 0.14154160
f 1/1 2/2 3/3
f 4/4 5/5 6/6
f 7/7 8/8 9/9
f 10/10 11/11 12/12
f 13/13 14/14 15/15
f 16/16 17/17 18/18
f 19/19 20/20 21/21
f 22/22 23/23 24/24
f 25/25 26/26 27/27
f 28/28 29/29 30/30
f 31/31 32/32 33/33
f 34/34 35/35 36/36

