# https://github.com/mikedh/trimesh
mtllib material.mtl
usemtl PaleWood
v 6.33685017 2.23917389 -0.98935050
v 6.65290594 1.87344038 -0.98935050
v 6.63928890 1.86167300 -0.98967117
v 6.33685017 2.23917389 -0.98935050
v 6.63928890 1.86167300 -0.98967117
v 6.32323313 2.22740650 -0.98967117
v 6.32114983 2.22560620 -0.83514130
v 6.63720560 1.85987258 -0.83514130
v 6.65082264 1.87164009 -0.83482063
v 6.32114983 2.22560620 -0.83514130
v 6.65082264 1.87164009 -0.83482063
v 6.33476686 2.23737359 -0.83482063
v 6.32323313 2.22740650 -0.98967117
v 6.63928890 1.86167300 -0.98967117
v 6.63720560 1.85987258 -0.83514130
v 6.32323313 2.22740650 -0.98967117
v 6.63720560 1.85987258 -0.83514130
v 6.32114983 2.22560620 -0.83514130
v 6.63928890 1.86167300 -0.98967117
v 6.65290594 1.87344038 -0.98935050
v 6.65082264 1.87164009 -0.83482063
v 6.63928890 1.86167300 -0.98967117
v 6.65082264 1.87164009 -0.83482063
v 6.63720560 1.85987258 -0.83514130
v 6.65290594 1.87344038 -0.98935050
v 6.33685017 2.23917389 -0.98935050
v 6.33476686 2.23737359 -0.83482063
v 6.65290594 1.87344038 -0.98935050
v 6.33476686 2.23737359 -0.83482063
v 6.65082264 1.87164009 -0.83482063
v 6.33685017 2.23917389 -0.98935050
v 6.32323313 2.22740650 -0.98967117
v 6.32114983 2.22560620 -0.83514130
v 6.33685017 2.23917389 -0.98935050
v 6.32114983 2.22560620 -0.83514130
v 6.33476686 2.23737359 -0.83482063
vt -0.53708428 0.01999998
vt 0.53708428 0.01999998
vt 0.53708428 -0.01999998
vt -0.53708428 0.01999998
vt 0.53708428 -0.01999998
vt -0.53708428 -0.01999998
vt -0.53708428 -0.01999998
vt 0.53708428 -0.01999998
vt 0.53708428 0.01999998
vt -0.53708428 -0.01999998
vt 0.53708428 0.01999998
vt -0.53708428 0.01999998
vt -0.53708428 -0.17172718
vt 0.53708428 -0.17172718
vt 0.53708428 0.17172712
vt -0.53708428 -0.17172718
vt 0.53708428 0.17172712
vt -0.53708428 0.17172712
vt -0.02000000 -0.17172718
vt 0.02000000 -0.17172718
vt 0.02000000 0.17172712
vt -0.02000000 -0.17172718
vt 0.02000000 0.17172712
vt -0.02000000 0.17172712
vt 0.53708428 -0.17172718
vt -0.53708428 -0.17172718
vt -0.53708428 0.17172712
vt 0.53708428 -0.17172718
vt -0.53708428 0.17172712
vt 0.53708428 0.17172712
vt 0.02000000 -0.17172718
vt -0.02000000 -0.17172718
vt -0.02000000 0.17172712
vt 0.02000000 -0.17172718
vt -0.02000000 0.17172712
vt 0.02000000 0.17172712
f 1/1 2/2 3/3
f 4/4 5/5 6/6
f 7/7 8/8 9/9
f 10/10 11/11 12/12
f 13/13 14/14 15/15
f 16/16 17/17 18/18
f 19/19 20/20 21/21
f 22/22 23/23 24/24
f 25/25 26/26 27/27
f 28/28 29/29 30/30
f 31/31 32/32 33/33
f 34/34 35/35 36/36

