# https://github.com/mikedh/trimesh
mtllib material.mtl
usemtl DarkRecess
v 0.69158852 1.58691227 -0.14607970
v 0.69307125 1.58825433 -0.14610063
v 0.71051729 1.56898999 -0.14537917
v 0.69158852 1.58691227 -0.14607970
v 0.71051729 1.56898999 -0.14537917
v 0.70903456 1.56764793 -0.14535825
v 0.70900196 1.56773078 -0.14235957
v 0.71048468 1.56907272 -0.14238049
v 0.69303864 1.58833706 -0.14310195
v 0.70900196 1.56773078 -0.14235957
v 0.69303864 1.58833706 -0.14310195
v 0.69155592 1.58699512 -0.14308102
v 0.70903456 1.56764793 -0.14535825
v 0.71051729 1.56898999 -0.14537917
v 0.71048468 1.56907272 -0.14238049
v 0.70903456 1.56764793 -0.14535825
v 0.71048468 1.56907272 -0.14238049
v 0.70900196 1.56773078 -0.14235957
v 0.71051729 1.56898999 -0.14537917
v 0.69307125 1.58825433 -0.14610063
v 0.69303864 1.58833706 -0.14310195
v 0.71051729 1.56898999 -0.14537917
v 0.69303864 1.58833706 -0.14310195
v 0.71048468 1.56907272 -0.14238049
v 0.69307125 1.58825433 -0.14610063
v 0.69158852 1.58691227 -0.14607970
v 0.69155592 1.58699512 -0.14308102
v 0.69307125 1.58825433 -0.14610063
v 0.69155592 1.58699512 -0.14308102
v 0.69303864 1.58833706 -0.14310195
v 0.69158852 1.58691227 -0.14607970
v 0.70903456 1.56764793 -0.14535825
v 0.70900196 1.56773078 -0.14235957
v 0.69158852 1.58691227 -0.14607970
v 0.70900196 1.56773078 -0.14235957
v 0.69155592 1.58699512 -0.14308102
vt 0.00000000 0.00000000
vt 0.00000000 0.00000000
vt 0.00000000 0.00000000
vt 0.00000000 0.00000000
vt 0.00000000 0.00000000
vt 0.00000000 0.00000000
vt 0.00000000 0.00000000
vt 0.00000000 0.00000000
vt 0.00000000 0.00000000
vt 0.00000000 0.00000000
vt 0.00000000 0.00000000
vt 0.00000000 0.00000000
vt 0.00000000 0.00000000
vt 0.00000000 0.00000000
vt 0.00000000 0.00000000
vt 0.00000000 0.00000000
vt 0.00000000 0.00000000
vt 0.00000000 0.00000000
vt 0.00000000 0.00000000
vt 0.00000000 0.00000000
vt 0.00000000 0.00000000
vt 0.00000000 0.00000000
vt 0.00000000 0.00000000
vt 0.00000000 0.00000000
vt 0.00000000 0.00000000
vt 0.00000000 0.00000000
vt 0.00000000 0.00000000
vt 0.00000000 0.00000000
vt 0.00000000 0.00000000
vt 0.00000000 0.00000000
vt 0.00000000 0.00000000
vt 0.00000000 0.00000000
vt 0.00000000 0.00000000
vt 0.00000000 0.00000000
vt 0.00000000 0.00000000
vt 0.00000000 0.00000000
f 1/1 2/2 3/3
f 4/4 5/5 6/6
f 7/7 8/8 9/9
f 10/10 11/11 12/12
f 13/13 14/14 15/15
f 16/16 17/17 18/18
f 19/19 20/20 21/21
f 22/22 23/23 24/24
f 25/25 26/26 27/27
f 28/28 29/29 30/30
f 31/31 32/32 33/33
f 34/34 35/35 36/36

