# https://github.com/mikedh/trimesh
mtllib material.mtl
usemtl DarkRecess
v 5.87576818 3.64632630 -0.37817019
v 6.51723957 2.90402794 -0.37817019
v 6.06333733 2.51177979 -0.38885933
v 5.87576818 3.64632630 -0.37817019
v 6.06333733 2.51177979 -0.38885933
v 5.42186594 3.25407791 -0.38885933
v 5.42175817 3.25398493 -0.38086060
v 6.06322956 2.51168656 -0.38086060
v 6.51713181 2.90393472 -0.37017146
v 5.42175817 3.25398493 -0.38086060
v 6.51713181 2.90393472 -0.37017146
v 5.87566042 3.64623308 -0.37017146
v 5.42186594 3.25407791 -0.38885933
v 6.06333733 2.51177979 -0.38885933
v 6.06322956 2.51168656 -0.38086060
v 5.42186594 3.25407791 -0.38885933
v 6.06322956 2.51168656 -0.38086060
v 5.42175817 3.25398493 -0.38086060
v 6.06333733 2.51177979 -0.38885933
v 6.51723957 2.90402794 -0.37817019
v 6.51713181 2.90393472 -0.37017146
v 6.06333733 2.51177979 -0.38885933
v 6.51713181 2.90393472 -0.37017146
v 6.06322956 2.51168656 -0.38086060
v 6.51723957 2.90402794 -0.37817019
v 5.87576818 3.64632630 -0.37817019
v 5.87566042 3.64623308 -0.37017146
v 6.51723957 2.90402794 -0.37817019
v 5.87566042 3.64623308 -0.37017146
v 6.51713181 2.90393472 -0.37017146
v 5.87576818 3.64632630 -0.37817019
v 5.42186594 3.25407791 -0.38885933
v 5.42175817 3.25398493 -0.38086060
v 5.87576818 3.64632630 -0.37817019
v 5.42175817 3.25398493 -0.38086060
v 5.87566042 3.64623308 -0.37017146
vt 0.00000000 0.00000000
vt 0.00000000 0.00000000
vt 0.00000000 0.00000000
vt 0.00000000 0.00000000
vt 0.00000000 0.00000000
vt 0.00000000 0.00000000
vt 0.00000000 0.00000000
vt 0.00000000 0.00000000
vt 0.00000000 0.00000000
vt 0.00000000 0.00000000
vt 0.00000000 0.00000000
vt 0.00000000 0.00000000
vt 0.00000000 0.00000000
vt 0.00000000 0.00000000
vt 0.00000000 0.00000000
vt 0.00000000 0.00000000
vt 0.00000000 0.00000000
vt 0.00000000 0.00000000
vt 0.00000000 0.00000000
vt 0.00000000 0.00000000
vt 0.00000000 0.00000000
vt 0.00000000 0.00000000
vt 0.00000000 0.00000000
vt 0.00000000 0.00000000
vt 0.00000000 0.00000000
vt 0.00000000 0.00000000
vt 0.00000000 0.00000000
vt 0.00000000 0.00000000
vt 0.00000000 0.00000000
vt 0.00000000 0.00000000
vt 0.00000000 0.00000000
vt 0.00000000 0.00000000
vt 0.00000000 0.00000000
vt 0.00000000 0.00000000
vt 0.00000000 0.00000000
vt 0.00000000 0.00000000
f 1/1 2/2 3/3
f 4/4 5/5 6/6
f 7/7 8/8 9/9
f 10/10 11/11 12/12
f 13/13 14/14 15/15
f 16/16 17/17 18/18
f 19/19 20/20 21/21
f 22/22 23/23 24/24
f 25/25 26/26 27/27
f 28/28 29/29 30/30
f 31/31 32/32 33/33
f 34/34 35/35 36/36

