# https://github.com/mikedh/trimesh
mtllib material.mtl
usemtl DarkRecess
v 0.61266595 1.67332184 -0.19671379
v 0.61414868 1.67466390 -0.19673471
v 0.63159478 1.65539956 -0.19601326
v 0.61266595 1.67332184 -0.19671379
v 0.63159478 1.65539956 -0.19601326
v 0.63011199 1.65405750 -0.19599234
v 0.63007939 1.65414023 -0.19299366
v 0.63156217 1.65548229 -0.19301458
v 0.61411607 1.67474663 -0.19373603
v 0.63007939 1.65414023 -0.19299366
v 0.61411607 1.67474663 -0.19373603
v 0.61263335 1.67340457 -0.19371511
v 0.63011199 1.65405750 -0.19599234
v 0.63159478 1.65539956 -0.19601326
v 0.63156217 1.65548229 -0.19301458
v 0.63011199 1.65405750 -0.19599234
v 0.63156217 1.65548229 -0.19301458
v 0.63007939 1.65414023 -0.19299366
v 0.63159478 1.65539956 -0.19601326
v 0.61414868 1.67466390 -0.19673471
v 0.61411607 1.67474663 -0.19373603
v 0.63159478 1.65539956 -0.19601326
v 0.61411607 1.67474663 -0.19373603
v 0.63156217 1.65548229 -0.19301458
v 0.61414868 1.67466390 -0.19673471
v 0.61266595 1.67332184 -0.19671379
v 0.61263335 1.67340457 -0.19371511
v 0.61414868 1.67466390 -0.19673471
v 0.61263335 1.67340457 -0.19371511
v 0.61411607 1.67474663 -0.19373603
v 0.61266595 1.67332184 -0.19671379
v 0.63011199 1.65405750 -0.19599234
v 0.63007939 1.65414023 -0.19299366
v 0.61266595 1.67332184 -0.19671379
v 0.63007939 1.65414023 -0.19299366
v 0.61263335 1.67340457 -0.19371511
vt 0.00000000 0.00000000
vt 0.00000000 0.00000000
vt 0.00000000 0.00000000
vt 0.00000000 0.00000000
vt 0.00000000 0.00000000
vt 0.00000000 0.00000000
vt 0.00000000 0.00000000
vt 0.00000000 0.00000000
vt 0.00000000 0.00000000
vt 0.00000000 0.00000000
vt 0.00000000 0.00000000
vt 0.00000000 0.00000000
vt 0.00000000 0.00000000
vt 0.00000000 0.00000000
vt 0.00000000 0.00000000
vt 0.00000000 0.00000000
vt 0.00000000 0.00000000
vt 0.00000000 0.00000000
vt 0.00000000 0.00000000
vt 0.00000000 0.00000000
vt 0.00000000 0.00000000
vt 0.00000000 0.00000000
vt 0.00000000 0.00000000
vt 0.00000000 0.00000000
vt 0.00000000 0.00000000
vt 0.00000000 0.00000000
vt 0.00000000 0.00000000
vt 0.00000000 0.00000000
vt 0.00000000 0.00000000
vt 0.00000000 0.00000000
vt 0.00000000 0.00000000
vt 0.00000000 0.00000000
vt 0.00000000 0.00000000
vt 0.00000000 0.00000000
vt 0.00000000 0.00000000
vt 0.00000000 0.00000000
f 1/1 2/2 3/3
f 4/4 5/5 6/6
f 7/7 8/8 9/9
f 10/10 11/11 12/12
f 13/13 14/14 15/15
f 16/16 17/17 18/18
f 19/19 20/20 21/21
f 22/22 23/23 24/24
f 25/25 26/26 27/27
f 28/28 29/29 30/30
f 31/31 32/32 33/33
f 34/34 35/35 36/36

