# https://github.com/mikedh/trimesh
mtllib material.mtl
usemtl PaleWood
v 4.63655376 1.37950695 -1.13684356
v 4.38201952 1.67708325 -1.13179660
v 4.39569616 1.68878472 -1.13199174
v 4.63655376 1.37950695 -1.13684356
v 4.39569616 1.68878472 -1.13199174
v 4.65023041 1.39120829 -1.13703871
v 4.66340303 1.38903236 -0.34437084
v 4.40886879 1.68660867 -0.33932397
v 4.39519262 1.67490733 -0.33912879
v 4.66340303 1.38903236 -0.34437084
v 4.39519262 1.67490733 -0.33912879
v 4.64972687 1.37733102 -0.34417567
v 4.65023041 1.39120829 -1.13703871
v 4.39569616 1.68878472 -1.13199174
v 4.40886879 1.68660867 -0.33932397
v 4.65023041 1.39120829 -1.13703871
v 4.40886879 1.68660867 -0.33932397
v 4.66340303 1.38903236 -0.34437084
v 4.39569616 1.68878472 -1.13199174
v 4.38201952 1.67708325 -1.13179660
v 4.39519262 1.67490733 -0.33912879
v 4.39569616 1.68878472 -1.13199174
v 4.39519262 1.67490733 -0.33912879
v 4.40886879 1.68660867 -0.33932397
v 4.38201952 1.67708325 -1.13179660
v 4.63655376 1.37950695 -1.13684356
v 4.64972687 1.37733102 -0.34417567
v 4.38201952 1.67708325 -1.13179660
v 4.64972687 1.37733102 -0.34417567
v 4.39519262 1.67490733 -0.33912879
v 4.63655376 1.37950695 -1.13684356
v 4.65023041 1.39120829 -1.13703871
v 4.66340303 1.38903236 -0.34437084
v 4.63655376 1.37950695 -1.13684356
v 4.66340303 1.38903236 -0.34437084
v 4.64972687 1.37733102 -0.34417567
vt -0.43513140 0.01999998
vt 0.43513140 0.01999998
vt 0.43513140 -0.01999998
vt -0.43513140 0.01999998
vt 0.43513140 -0.01999998
vt -0.43513140 -0.01999998
vt -0.43513140 -0.01999998
vt 0.43513140 -0.01999998
vt 0.43513140 0.01999998
vt -0.43513140 -0.01999998
vt 0.43513140 0.01999998
vt -0.43513140 0.01999998
vt -0.43513140 -0.88086700
vt 0.43513140 -0.88086700
vt 0.43513140 0.88086700
vt -0.43513140 -0.88086700
vt 0.43513140 0.88086700
vt -0.43513140 0.88086700
vt -0.02000000 -0.88086700
vt 0.02000000 -0.88086700
vt 0.02000000 0.88086700
vt -0.02000000 -0.88086700
vt 0.02000000 0.88086700
vt -0.02000000 0.88086700
vt 0.43513140 -0.88086700
vt -0.43513140 -0.88086700
vt -0.43513140 0.88086700
vt 0.43513140 -0.88086700
vt -0.43513140 0.88086700
vt 0.43513140 0.88086700
vt 0.02000000 -0.88086700
vt -0.02000000 -0.88086700
vt -0.02000000 0.88086700
vt 0.02000000 -0.88086700
vt -0.02000000 0.88086700
vt 0.02000000 0.88086700
f 1/1 2/2 3/3
f 4/4 5/5 6/6
f 7/7 8/8 9/9
f 10/10 11/11 12/12
f 13/13 14/14 15/15
f 16/16 17/17 18/18
f 19/19 20/20 21/21
f 22/22 23/23 24/24
f 25/25 26/26 27/27
f 28/28 29/29 30/30
f 31/31 32/32 33/33
f 34/34 35/35 36/36

