# https://github.com/mikedh/trimesh
mtllib material.mtl
usemtl NavyCoolerPlastic
v 6.21444607 -1.44901597 -1.25577152
v 5.93590403 -1.78284967 -1.25464940
v 5.69091892 -1.57842505 -1.24999845
v 6.21444607 -1.44901597 -1.25577152
v 5.69091892 -1.57842505 -1.24999845
v 5.96946144 -1.24459136 -1.25112069
v 5.97560263 -1.24810863 -0.77302319
v 5.69706059 -1.58194232 -0.77190107
v 5.94204521 -1.78636694 -0.77655196
v 5.97560263 -1.24810863 -0.77302319
v 5.94204521 -1.78636694 -0.77655196
v 6.22058773 -1.45253325 -0.77767414
v 5.96946144 -1.24459136 -1.25112069
v 5.69091892 -1.57842505 -1.24999845
v 5.69706059 -1.58194232 -0.77190107
v 5.96946144 -1.24459136 -1.25112069
v 5.69706059 -1.58194232 -0.77190107
v 5.97560263 -1.24810863 -0.77302319
v 5.69091892 -1.57842505 -1.24999845
v 5.93590403 -1.78284967 -1.25464940
v 5.94204521 -1.78636694 -0.77655196
v 5.69091892 -1.57842505 -1.24999845
v 5.94204521 -1.78636694 -0.77655196
v 5.69706059 -1.58194232 -0.77190107
v 5.93590403 -1.78284967 -1.25464940
v 6.21444607 -1.44901597 -1.25577152
v 6.22058773 -1.45253325 -0.77767414
v 5.93590403 -1.78284967 -1.25464940
v 6.22058773 -1.45253325 -0.77767414
v 5.94204521 -1.78636694 -0.77655196
v 6.21444607 -1.44901597 -1.25577152
v 5.96946144 -1.24459136 -1.25112069
v 5.97560263 -1.24810863 -0.77302319
v 6.21444607 -1.44901597 -1.25577152
v 5.97560263 -1.24810863 -0.77302319
v 6.22058773 -1.45253325 -0.77767414
vt -0.48308682 0.35456216
vt 0.48308682 0.35456216
vt 0.48308682 -0.35456216
vt -0.48308682 0.35456216
vt 0.48308682 -0.35456216
vt -0.48308682 -0.35456216
vt -0.48308682 -0.35456216
vt 0.48308682 -0.35456216
vt 0.48308682 0.35456216
vt -0.48308682 -0.35456216
vt 0.48308682 0.35456216
vt -0.48308682 0.35456216
vt -0.48308682 -0.53127766
vt 0.48308682 -0.53127766
vt 0.48308682 0.53127760
vt -0.48308682 -0.53127766
vt 0.48308682 0.53127760
vt -0.48308682 0.53127760
vt -0.35456219 -0.53127766
vt 0.35456219 -0.53127766
vt 0.35456219 0.53127760
vt -0.35456219 -0.53127766
vt 0.35456219 0.53127760
vt -0.35456219 0.53127760
vt 0.48308682 -0.53127766
vt -0.48308682 -0.53127766
vt -0.48308682 0.53127760
vt 0.48308682 -0.53127766
vt -0.48308682 0.53127760
vt 0.48308682 0.53127760
vt 0.35456219 -0.53127766
vt -0.35456219 -0.53127766
vt -0.35456219 0.53127760
vt 0.35456219 -0.53127766
vt -0.35456219 0.53127760
vt 0.35456219 0.53127760
f 1/1 2/2 3/3
f 4/4 5/5 6/6
f 7/7 8/8 9/9
f 10/10 11/11 12/12
f 13/13 14/14 15/15
f 16/16 17/17 18/18
f 19/19 20/20 21/21
f 22/22 23/23 24/24
f 25/25 26/26 27/27
f 28/28 29/29 30/30
f 31/31 32/32 33/33
f 34/34 35/35 36/36

