# https://github.com/mikedh/trimesh
mtllib material.mtl
usemtl WhiteSolidSurface
v 0.28281891 0.78174913 -0.33866385
v 0.61170083 1.06808972 -0.34299234
v 0.63080162 1.04614413 -0.34217888
v 0.28281891 0.78174913 -0.33866385
v 0.63080162 1.04614413 -0.34217888
v 0.30191973 0.75980359 -0.33785039
v 0.30228251 0.75938678 -0.30285475
v 0.63116443 1.04572737 -0.30718324
v 0.61206359 1.06767297 -0.30799669
v 0.30228251 0.75938678 -0.30285475
v 0.61206359 1.06767297 -0.30799669
v 0.28318170 0.78133231 -0.30366820
v 0.30191973 0.75980359 -0.33785039
v 0.63080162 1.04614413 -0.34217888
v 0.63116443 1.04572737 -0.30718324
v 0.30191973 0.75980359 -0.33785039
v 0.63116443 1.04572737 -0.30718324
v 0.30228251 0.75938678 -0.30285475
v 0.63080162 1.04614413 -0.34217888
v 0.61170083 1.06808972 -0.34299234
v 0.61206359 1.06767297 -0.30799669
v 0.63080162 1.04614413 -0.34217888
v 0.61206359 1.06767297 -0.30799669
v 0.63116443 1.04572737 -0.30718324
v 0.61170083 1.06808972 -0.34299234
v 0.28281891 0.78174913 -0.33866385
v 0.28318170 0.78133231 -0.30366820
v 0.61170083 1.06808972 -0.34299234
v 0.28318170 0.78133231 -0.30366820
v 0.61206359 1.06767297 -0.30799669
v 0.28281891 0.78174913 -0.33866385
v 0.30191973 0.75980359 -0.33785039
v 0.30228251 0.75938678 -0.30285475
v 0.28281891 0.78174913 -0.33866385
v 0.30228251 0.75938678 -0.30285475
v 0.28318170 0.78133231 -0.30366820
vt 0.00000000 0.00000000
vt 0.00000000 0.00000000
vt 0.00000000 0.00000000
vt 0.00000000 0.00000000
vt 0.00000000 0.00000000
vt 0.00000000 0.00000000
vt 0.00000000 0.00000000
vt 0.00000000 0.00000000
vt 0.00000000 0.00000000
vt 0.00000000 0.00000000
vt 0.00000000 0.00000000
vt 0.00000000 0.00000000
vt 0.00000000 0.00000000
vt 0.00000000 0.00000000
vt 0.00000000 0.00000000
vt 0.00000000 0.00000000
vt 0.00000000 0.00000000
vt 0.00000000 0.00000000
vt 0.00000000 0.00000000
vt 0.00000000 0.00000000
vt 0.00000000 0.00000000
vt 0.00000000 0.00000000
vt 0.00000000 0.00000000
vt 0.00000000 0.00000000
vt 0.00000000 0.00000000
vt 0.00000000 0.00000000
vt 0.00000000 0.00000000
vt 0.00000000 0.00000000
vt 0.00000000 0.00000000
vt 0.00000000 0.00000000
vt 0.00000000 0.00000000
vt 0.00000000 0.00000000
vt 0.00000000 0.00000000
vt 0.00000000 0.00000000
vt 0.00000000 0.00000000
vt 0.00000000 0.00000000
f 1/1 2/2 3/3
f 4/4 5/5 6/6
f 7/7 8/8 9/9
f 10/10 11/11 12/12
f 13/13 14/14 15/15
f 16/16 17/17 18/18
f 19/19 20/20 21/21
f 22/22 23/23 24/24
f 25/25 26/26 27/27
f 28/28 29/29 30/30
f 31/31 32/32 33/33
f 34/34 35/35 36/36

