# https://github.com/mikedh/trimesh
mtllib material.mtl
usemtl DarkRecess
v 0.63888764 1.64473653 -0.17194425
v 0.64037043 1.64607847 -0.17196517
v 0.65781647 1.62681425 -0.17124371
v 0.63888764 1.64473653 -0.17194425
v 0.65781647 1.62681425 -0.17124371
v 0.65633374 1.62547219 -0.17122279
v 0.65630114 1.62555492 -0.16822411
v 0.65778387 1.62689698 -0.16824503
v 0.64033782 1.64616132 -0.16896649
v 0.65630114 1.62555492 -0.16822411
v 0.64033782 1.64616132 -0.16896649
v 0.63885504 1.64481926 -0.16894557
v 0.65633374 1.62547219 -0.17122279
v 0.65781647 1.62681425 -0.17124371
v 0.65778387 1.62689698 -0.16824503
v 0.65633374 1.62547219 -0.17122279
v 0.65778387 1.62689698 -0.16824503
v 0.65630114 1.62555492 -0.16822411
v 0.65781647 1.62681425 -0.17124371
v 0.64037043 1.64607847 -0.17196517
v 0.64033782 1.64616132 -0.16896649
v 0.65781647 1.62681425 -0.17124371
v 0.64033782 1.64616132 -0.16896649
v 0.65778387 1.62689698 -0.16824503
v 0.64037043 1.64607847 -0.17196517
v 0.63888764 1.64473653 -0.17194425
v 0.63885504 1.64481926 -0.16894557
v 0.64037043 1.64607847 -0.17196517
v 0.63885504 1.64481926 -0.16894557
v 0.64033782 1.64616132 -0.16896649
v 0.63888764 1.64473653 -0.17194425
v 0.65633374 1.62547219 -0.17122279
v 0.65630114 1.62555492 -0.16822411
v 0.63888764 1.64473653 -0.17194425
v 0.65630114 1.62555492 -0.16822411
v 0.63885504 1.64481926 -0.16894557
vt 0.00000000 0.00000000
vt 0.00000000 0.00000000
vt 0.00000000 0.00000000
vt 0.00000000 0.00000000
vt 0.00000000 0.00000000
vt 0.00000000 0.00000000
vt 0.00000000 0.00000000
vt 0.00000000 0.00000000
vt 0.00000000 0.00000000
vt 0.00000000 0.00000000
vt 0.00000000 0.00000000
vt 0.00000000 0.00000000
vt 0.00000000 0.00000000
vt 0.00000000 0.00000000
vt 0.00000000 0.00000000
vt 0.00000000 0.00000000
vt 0.00000000 0.00000000
vt 0.00000000 0.00000000
vt 0.00000000 0.00000000
vt 0.00000000 0.00000000
vt 0.00000000 0.00000000
vt 0.00000000 0.00000000
vt 0.00000000 0.00000000
vt 0.00000000 0.00000000
vt 0.00000000 0.00000000
vt 0.00000000 0.00000000
vt 0.00000000 0.00000000
vt 0.00000000 0.00000000
vt 0.00000000 0.00000000
vt 0.00000000 0.00000000
vt 0.00000000 0.00000000
vt 0.00000000 0.00000000
vt 0.00000000 0.00000000
vt 0.00000000 0.00000000
vt 0.00000000 0.00000000
vt 0.00000000 0.00000000
f 1/1 2/2 3/3
f 4/4 5/5 6/6
f 7/7 8/8 9/9
f 10/10 11/11 12/12
f 13/13 14/14 15/15
f 16/16 17/17 18/18
f 19/19 20/20 21/21
f 22/22 23/23 24/24
f 25/25 26/26 27/27
f 28/28 29/29 30/30
f 31/31 32/32 33/33
f 34/34 35/35 36/36

