# https://github.com/mikedh/trimesh
mtllib material.mtl
usemtl DarkRecess
v -0.63206577 0.68061256 -0.03134556
v -0.63054687 0.68191355 -0.03132400
v -0.63119727 0.68267304 -0.03133278
v -0.63206577 0.68061256 -0.03134556
v -0.63119727 0.68267304 -0.03133278
v -0.63271618 0.68137211 -0.03135435
v -0.63300949 0.68121338 -0.02336130
v -0.63149065 0.68251431 -0.02333974
v -0.63084018 0.68175483 -0.02333095
v -0.63300949 0.68121338 -0.02336130
v -0.63084018 0.68175483 -0.02333095
v -0.63235909 0.68045384 -0.02335251
v -0.63271618 0.68137211 -0.03135435
v -0.63119727 0.68267304 -0.03133278
v -0.63149065 0.68251431 -0.02333974
v -0.63271618 0.68137211 -0.03135435
v -0.63149065 0.68251431 -0.02333974
v -0.63300949 0.68121338 -0.02336130
v -0.63119727 0.68267304 -0.03133278
v -0.63054687 0.68191355 -0.03132400
v -0.63084018 0.68175483 -0.02333095
v -0.63119727 0.68267304 -0.03133278
v -0.63084018 0.68175483 -0.02333095
v -0.63149065 0.68251431 -0.02333974
v -0.63054687 0.68191355 -0.03132400
v -0.63206577 0.68061256 -0.03134556
v -0.63235909 0.68045384 -0.02335251
v -0.63054687 0.68191355 -0.03132400
v -0.63235909 0.68045384 -0.02335251
v -0.63084018 0.68175483 -0.02333095
v -0.63206577 0.68061256 -0.03134556
v -0.63271618 0.68137211 -0.03135435
v -0.63300949 0.68121338 -0.02336130
v -0.63206577 0.68061256 -0.03134556
v -0.63300949 0.68121338 -0.02336130
v -0.63235909 0.68045384 -0.02335251
vt 0.00000000 0.00000000
vt 0.00000000 0.00000000
vt 0.00000000 0.00000000
vt 0.00000000 0.00000000
vt 0.00000000 0.00000000
vt 0.00000000 0.00000000
vt 0.00000000 0.00000000
vt 0.00000000 0.00000000
vt 0.00000000 0.00000000
vt 0.00000000 0.00000000
vt 0.00000000 0.00000000
vt 0.00000000 0.00000000
vt 0.00000000 0.00000000
vt 0.00000000 0.00000000
vt 0.00000000 0.00000000
vt 0.00000000 0.00000000
vt 0.00000000 0.00000000
vt 0.00000000 0.00000000
vt 0.00000000 0.00000000
vt 0.00000000 0.00000000
vt 0.00000000 0.00000000
vt 0.00000000 0.00000000
vt 0.00000000 0.00000000
vt 0.00000000 0.00000000
vt 0.00000000 0.00000000
vt 0.00000000 0.00000000
vt 0.00000000 0.00000000
vt 0.00000000 0.00000000
vt 0.00000000 0.00000000
vt 0.00000000 0.00000000
vt 0.00000000 0.00000000
vt 0.00000000 0.00000000
vt 0.00000000 0.00000000
vt 0.00000000 0.00000000
vt 0.00000000 0.00000000
vt 0.00000000 0.00000000
f 1/1 2/2 3/3
f 4/4 5/5 6/6
f 7/7 8/8 9/9
f 10/10 11/11 12/12
f 13/13 14/14 15/15
f 16/16 17/17 18/18
f 19/19 20/20 21/21
f 22/22 23/23 24/24
f 25/25 26/26 27/27
f 28/28 29/29 30/30
f 31/31 32/32 33/33
f 34/34 35/35 36/36

