# https://github.com/mikedh/trimesh
mtllib material.mtl
usemtl PaleWood
v 0.11299504 0.60266519 -1.06644309
v 0.47374788 0.91665477 -1.06644309
v 0.48556387 0.90307897 -1.06672728
v 0.11299504 0.60266519 -1.06644309
v 0.48556387 0.90307897 -1.06672728
v 0.12481103 0.58908939 -1.06672728
v 0.13170837 0.58116484 -0.33878964
v 0.49246120 0.89515442 -0.34353483
v 0.48064521 0.90873015 -0.34403804
v 0.13170837 0.58116484 -0.33878964
v 0.48064521 0.90873015 -0.34403804
v 0.11989238 0.59474057 -0.33929282
v 0.12481103 0.58908939 -1.06672728
v 0.48556387 0.90307897 -1.06672728
v 0.49246120 0.89515442 -0.34353483
v 0.12481103 0.58908939 -1.06672728
v 0.49246120 0.89515442 -0.34353483
v 0.13170837 0.58116484 -0.33878964
v 0.48556387 0.90307897 -1.06672728
v 0.47374788 0.91665477 -1.06644309
v 0.48064521 0.90873015 -0.34403804
v 0.48556387 0.90307897 -1.06672728
v 0.48064521 0.90873015 -0.34403804
v 0.49246120 0.89515442 -0.34353483
v 0.47374788 0.91665477 -1.06644309
v 0.11299504 0.60266519 -1.06644309
v 0.11989238 0.59474057 -0.33929282
v 0.47374788 0.91665477 -1.06644309
v 0.11989238 0.59474057 -0.33929282
v 0.48064521 0.90873015 -0.34403804
v 0.11299504 0.60266519 -1.06644309
v 0.12481103 0.58908939 -1.06672728
v 0.13170837 0.58116484 -0.33878964
v 0.11299504 0.60266519 -1.06644309
v 0.13170837 0.58116484 -0.33878964
v 0.11989238 0.59474057 -0.33929282
vt -0.53139937 0.01999998
vt 0.53139937 0.01999998
vt 0.53139937 -0.01999998
vt -0.53139937 0.01999998
vt 0.53139937 -0.01999998
vt -0.53139937 -0.01999998
vt -0.53139937 -0.01999998
vt 0.53139937 -0.01999998
vt 0.53139937 0.01999998
vt -0.53139937 -0.01999998
vt 0.53139937 0.01999998
vt -0.53139937 0.01999998
vt -0.53139937 -0.73936057
vt 0.53139937 -0.73936057
vt 0.53139937 0.73936051
vt -0.53139937 -0.73936057
vt 0.53139937 0.73936051
vt -0.53139937 0.73936051
vt -0.02000000 -0.73936057
vt 0.02000000 -0.73936057
vt 0.02000000 0.73936051
vt -0.02000000 -0.73936057
vt 0.02000000 0.73936051
vt -0.02000000 0.73936051
vt 0.53139937 -0.73936057
vt -0.53139937 -0.73936057
vt -0.53139937 0.73936051
vt 0.53139937 -0.73936057
vt -0.53139937 0.73936051
vt 0.53139937 0.73936051
vt 0.02000000 -0.73936057
vt -0.02000000 -0.73936057
vt -0.02000000 0.73936051
vt 0.02000000 -0.73936057
vt -0.02000000 0.73936051
vt 0.02000000 0.73936051
f 1/1 2/2 3/3
f 4/4 5/5 6/6
f 7/7 8/8 9/9
f 10/10 11/11 12/12
f 13/13 14/14 15/15
f 16/16 17/17 18/18
f 19/19 20/20 21/21
f 22/22 23/23 24/24
f 25/25 26/26 27/27
f 28/28 29/29 30/30
f 31/31 32/32 33/33
f 34/34 35/35 36/36

