# https://github.com/mikedh/trimesh
mtllib material.mtl
usemtl DarkRecess
v 8.27255154 0.53667241 -0.34273088
v 8.33139896 0.46857628 -0.34273088
v 8.29357338 0.43588895 -0.34362164
v 8.27255154 0.53667241 -0.34273088
v 8.29357338 0.43588895 -0.34362164
v 8.23472691 0.50398505 -0.34362164
v 8.23470020 0.50396174 -0.34162197
v 8.29354668 0.43586564 -0.34162197
v 8.33137131 0.46855301 -0.34073120
v 8.23470020 0.50396174 -0.34162197
v 8.33137131 0.46855301 -0.34073120
v 8.27252483 0.53664911 -0.34073120
v 8.23472691 0.50398505 -0.34362164
v 8.29357338 0.43588895 -0.34362164
v 8.29354668 0.43586564 -0.34162197
v 8.23472691 0.50398505 -0.34362164
v 8.29354668 0.43586564 -0.34162197
v 8.23470020 0.50396174 -0.34162197
v 8.29357338 0.43588895 -0.34362164
v 8.33139896 0.46857628 -0.34273088
v 8.33137131 0.46855301 -0.34073120
v 8.29357338 0.43588895 -0.34362164
v 8.33137131 0.46855301 -0.34073120
v 8.29354668 0.43586564 -0.34162197
v 8.33139896 0.46857628 -0.34273088
v 8.27255154 0.53667241 -0.34273088
v 8.27252483 0.53664911 -0.34073120
v 8.33139896 0.46857628 -0.34273088
v 8.27252483 0.53664911 -0.34073120
v 8.33137131 0.46855301 -0.34073120
v 8.27255154 0.53667241 -0.34273088
v 8.23472691 0.50398505 -0.34362164
v 8.23470020 0.50396174 -0.34162197
v 8.27255154 0.53667241 -0.34273088
v 8.23470020 0.50396174 -0.34162197
v 8.27252483 0.53664911 -0.34073120
vt 0.00000000 0.00000000
vt 0.00000000 0.00000000
vt 0.00000000 0.00000000
vt 0.00000000 0.00000000
vt 0.00000000 0.00000000
vt 0.00000000 0.00000000
vt 0.00000000 0.00000000
vt 0.00000000 0.00000000
vt 0.00000000 0.00000000
vt 0.00000000 0.00000000
vt 0.00000000 0.00000000
vt 0.00000000 0.00000000
vt 0.00000000 0.00000000
vt 0.00000000 0.00000000
vt 0.00000000 0.00000000
vt 0.00000000 0.00000000
vt 0.00000000 0.00000000
vt 0.00000000 0.00000000
vt 0.00000000 0.00000000
vt 0.00000000 0.00000000
vt 0.00000000 0.00000000
vt 0.00000000 0.00000000
vt 0.00000000 0.00000000
vt 0.00000000 0.00000000
vt 0.00000000 0.00000000
vt 0.00000000 0.00000000
vt 0.00000000 0.00000000
vt 0.00000000 0.00000000
vt 0.00000000 0.00000000
vt 0.00000000 0.00000000
vt 0.00000000 0.00000000
vt 0.00000000 0.00000000
vt 0.00000000 0.00000000
vt 0.00000000 0.00000000
vt 0.00000000 0.00000000
vt 0.00000000 0.00000000
f 1/1 2/2 3/3
f 4/4 5/5 6/6
f 7/7 8/8 9/9
f 10/10 11/11 12/12
f 13/13 14/14 15/15
f 16/16 17/17 18/18
f 19/19 20/20 21/21
f 22/22 23/23 24/24
f 25/25 26/26 27/27
f 28/28 29/29 30/30
f 31/31 32/32 33/33
f 34/34 35/35 36/36

