# https://github.com/mikedh/trimesh
mtllib material.mtl
usemtl PaleWood
v 7.54362822 0.84725201 -1.15587854
v 8.11712933 0.18360771 -1.15587854
v 8.10351181 0.17184027 -1.15619922
v 7.54362822 0.84725201 -1.15587854
v 8.10351181 0.17184027 -1.15619922
v 7.53001118 0.83548456 -1.15619922
v 7.52103090 0.82772416 -0.44144577
v 8.09453201 0.16407983 -0.45138243
v 8.10814857 0.17584728 -0.45203796
v 7.52103090 0.82772416 -0.44144577
v 8.10814857 0.17584728 -0.45203796
v 7.53464794 0.83949161 -0.44210130
v 7.53001118 0.83548456 -1.15619922
v 8.10351181 0.17184027 -1.15619922
v 8.09453201 0.16407983 -0.45138243
v 7.53001118 0.83548456 -1.15619922
v 8.09453201 0.16407983 -0.45138243
v 7.52103090 0.82772416 -0.44144577
v 8.10351181 0.17184027 -1.15619922
v 8.11712933 0.18360771 -1.15587854
v 8.10814857 0.17584728 -0.45203796
v 8.10351181 0.17184027 -1.15619922
v 8.10814857 0.17584728 -0.45203796
v 8.09453201 0.16407983 -0.45138243
v 8.11712933 0.18360771 -1.15587854
v 7.54362822 0.84725201 -1.15587854
v 7.53464794 0.83949161 -0.44210130
v 8.11712933 0.18360771 -1.15587854
v 7.53464794 0.83949161 -0.44210130
v 8.10814857 0.17584728 -0.45203796
v 7.54362822 0.84725201 -1.15587854
v 7.53001118 0.83548456 -1.15619922
v 7.52103090 0.82772416 -0.44144577
v 7.54362822 0.84725201 -1.15587854
v 7.52103090 0.82772416 -0.44144577
v 7.53464794 0.83949161 -0.44210130
vt -0.97457004 0.01999998
vt 0.97457004 0.01999998
vt 0.97457004 -0.01999998
vt -0.97457004 0.01999998
vt 0.97457004 -0.01999998
vt -0.97457004 -0.01999998
vt -0.97457004 -0.01999998
vt 0.97457004 -0.01999998
vt 0.97457004 0.01999998
vt -0.97457004 -0.01999998
vt 0.97457004 0.01999998
vt -0.97457004 0.01999998
vt -0.97457004 -0.74024189
vt 0.97457004 -0.74024189
vt 0.97457004 0.74024189
vt -0.97457004 -0.74024189
vt 0.97457004 0.74024189
vt -0.97457004 0.74024189
vt -0.02000000 -0.74024189
vt 0.02000000 -0.74024189
vt 0.02000000 0.74024189
vt -0.02000000 -0.74024189
vt 0.02000000 0.74024189
vt -0.02000000 0.74024189
vt 0.97457004 -0.74024189
vt -0.97457004 -0.74024189
vt -0.97457004 0.74024189
vt 0.97457004 -0.74024189
vt -0.97457004 0.74024189
vt 0.97457004 0.74024189
vt 0.02000000 -0.74024189
vt -0.02000000 -0.74024189
vt -0.02000000 0.74024189
vt 0.02000000 -0.74024189
vt -0.02000000 0.74024189
vt 0.02000000 0.74024189
f 1/1 2/2 3/3
f 4/4 5/5 6/6
f 7/7 8/8 9/9
f 10/10 11/11 12/12
f 13/13 14/14 15/15
f 16/16 17/17 18/18
f 19/19 20/20 21/21
f 22/22 23/23 24/24
f 25/25 26/26 27/27
f 28/28 29/29 30/30
f 31/31 32/32 33/33
f 34/34 35/35 36/36

