# https://github.com/mikedh/trimesh
mtllib material.mtl
usemtl PaleWood
v 1.66188145 -2.83517480 -0.58105868
v 0.31227365 -1.22579217 -0.54513782
v 0.96227646 -0.68065697 -0.54742718
v 1.66188145 -2.83517480 -0.58105868
v 0.96227646 -0.68065697 -0.54742718
v 2.31188416 -2.29003954 -0.58334798
v 2.31211925 -2.29024410 -0.56535071
v 0.96251142 -0.68086159 -0.52942985
v 0.31250867 -1.22599673 -0.52714056
v 2.31211925 -2.29024410 -0.56535071
v 0.31250867 -1.22599673 -0.52714056
v 1.66211653 -2.83537936 -0.56306136
v 2.31188416 -2.29003954 -0.58334798
v 0.96227646 -0.68065697 -0.54742718
v 0.96251142 -0.68086159 -0.52942985
v 2.31188416 -2.29003954 -0.58334798
v 0.96251142 -0.68086159 -0.52942985
v 2.31211925 -2.29024410 -0.56535071
v 0.96227646 -0.68065697 -0.54742718
v 0.31227365 -1.22579217 -0.54513782
v 0.31250867 -1.22599673 -0.52714056
v 0.96227646 -0.68065697 -0.54742718
v 0.31250867 -1.22599673 -0.52714056
v 0.96251142 -0.68086159 -0.52942985
v 0.31227365 -1.22579217 -0.54513782
v 1.66188145 -2.83517480 -0.58105868
v 1.66211653 -2.83537936 -0.56306136
v 0.31227365 -1.22579217 -0.54513782
v 1.66211653 -2.83537936 -0.56306136
v 0.31250867 -1.22599673 -0.52714056
v 1.66188145 -2.83517480 -0.58105868
v 2.31188416 -2.29003954 -0.58334798
v 2.31211925 -2.29024410 -0.56535071
v 1.66188145 -2.83517480 -0.58105868
v 2.31211925 -2.29024410 -0.56535071
v 1.66211653 -2.83537936 -0.56306136
vt -2.33408546 0.94260031
vt 2.33408546 0.94260031
vt 2.33408546 -0.94260025
vt -2.33408546 0.94260031
vt 2.33408546 -0.94260025
vt -2.33408546 -0.94260025
vt -2.33408546 -0.94260025
vt 2.33408546 -0.94260025
vt 2.33408546 0.94260031
vt -2.33408546 -0.94260025
vt 2.33408546 0.94260031
vt -2.33408546 0.94260031
vt -2.33408546 -0.01999998
vt 2.33408546 -0.01999998
vt 2.33408546 0.01999998
vt -2.33408546 -0.01999998
vt 2.33408546 0.01999998
vt -2.33408546 0.01999998
vt -0.94260031 -0.01999998
vt 0.94260031 -0.01999998
vt 0.94260031 0.01999998
vt -0.94260031 -0.01999998
vt 0.94260031 0.01999998
vt -0.94260031 0.01999998
vt 2.33408546 -0.01999998
vt -2.33408546 -0.01999998
vt -2.33408546 0.01999998
vt 2.33408546 -0.01999998
vt -2.33408546 0.01999998
vt 2.33408546 0.01999998
vt 0.94260031 -0.01999998
vt -0.94260031 -0.01999998
vt -0.94260031 0.01999998
vt 0.94260031 -0.01999998
vt -0.94260031 0.01999998
vt 0.94260031 0.01999998
f 1/1 2/2 3/3
f 4/4 5/5 6/6
f 7/7 8/8 9/9
f 10/10 11/11 12/12
f 13/13 14/14 15/15
f 16/16 17/17 18/18
f 19/19 20/20 21/21
f 22/22 23/23 24/24
f 25/25 26/26 27/27
f 28/28 29/29 30/30
f 31/31 32/32 33/33
f 34/34 35/35 36/36

