# https://github.com/mikedh/trimesh
mtllib material.mtl
usemtl PaleWood
v 8.53241253 0.55834293 -1.15191495
v 8.54418182 0.54472369 -1.15191495
v 8.13928890 0.19482781 -1.16145003
v 8.53241253 0.55834293 -1.15191495
v 8.13928890 0.19482781 -1.16145003
v 8.12751961 0.20844702 -1.16145003
v 8.11787224 0.20010966 -0.44581801
v 8.12964153 0.18649045 -0.44581801
v 8.53453445 0.53638631 -0.43628302
v 8.11787224 0.20010966 -0.44581801
v 8.53453445 0.53638631 -0.43628302
v 8.52276516 0.55000556 -0.43628302
v 8.12751961 0.20844702 -1.16145003
v 8.13928890 0.19482781 -1.16145003
v 8.12964153 0.18649045 -0.44581801
v 8.12751961 0.20844702 -1.16145003
v 8.12964153 0.18649045 -0.44581801
v 8.11787224 0.20010966 -0.44581801
v 8.13928890 0.19482781 -1.16145003
v 8.54418182 0.54472369 -1.15191495
v 8.53453445 0.53638631 -0.43628302
v 8.13928890 0.19482781 -1.16145003
v 8.53453445 0.53638631 -0.43628302
v 8.12964153 0.18649045 -0.44581801
v 8.54418182 0.54472369 -1.15191495
v 8.53241253 0.55834293 -1.15191495
v 8.52276516 0.55000556 -0.43628302
v 8.54418182 0.54472369 -1.15191495
v 8.52276516 0.55000556 -0.43628302
v 8.53453445 0.53638631 -0.43628302
v 8.53241253 0.55834293 -1.15191495
v 8.12751961 0.20844702 -1.16145003
v 8.11787224 0.20010966 -0.44581801
v 8.53241253 0.55834293 -1.15191495
v 8.11787224 0.20010966 -0.44581801
v 8.52276516 0.55000556 -0.43628302
vt -0.02000000 0.59468442
vt 0.02000000 0.59468442
vt 0.02000000 -0.59468436
vt -0.02000000 0.59468442
vt 0.02000000 -0.59468436
vt -0.02000000 -0.59468436
vt -0.02000000 -0.59468436
vt 0.02000000 -0.59468436
vt 0.02000000 0.59468442
vt -0.02000000 -0.59468436
vt 0.02000000 0.59468442
vt -0.02000000 0.59468442
vt -0.02000000 -0.79527283
vt 0.02000000 -0.79527283
vt 0.02000000 0.79527283
vt -0.02000000 -0.79527283
vt 0.02000000 0.79527283
vt -0.02000000 0.79527283
vt -0.59468442 -0.79527283
vt 0.59468442 -0.79527283
vt 0.59468442 0.79527283
vt -0.59468442 -0.79527283
vt 0.59468442 0.79527283
vt -0.59468442 0.79527283
vt 0.02000000 -0.79527283
vt -0.02000000 -0.79527283
vt -0.02000000 0.79527283
vt 0.02000000 -0.79527283
vt -0.02000000 0.79527283
vt 0.02000000 0.79527283
vt 0.59468442 -0.79527283
vt -0.59468442 -0.79527283
vt -0.59468442 0.79527283
vt 0.59468442 -0.79527283
vt -0.59468442 0.79527283
vt 0.59468442 0.79527283
f 1/1 2/2 3/3
f 4/4 5/5 6/6
f 7/7 8/8 9/9
f 10/10 11/11 12/12
f 13/13 14/14 15/15
f 16/16 17/17 18/18
f 19/19 20/20 21/21
f 22/22 23/23 24/24
f 25/25 26/26 27/27
f 28/28 29/29 30/30
f 31/31 32/32 33/33
f 34/34 35/35 36/36

