# https://github.com/mikedh/trimesh
mtllib material.mtl
usemtl DarkPlastic
v 1.66658556 2.44514251 -1.14893734
v 2.30669093 3.03419709 -1.14893734
v 2.71296573 2.59271216 -1.15447044
v 1.66658556 2.44514251 -1.14893734
v 2.71296573 2.59271216 -1.15447044
v 2.07286024 2.00365758 -1.15447044
v 2.07297254 2.00353551 -1.13647127
v 2.71307802 2.59258986 -1.13647127
v 2.30680346 3.03407478 -1.13093817
v 2.07297254 2.00353551 -1.13647127
v 2.30680346 3.03407478 -1.13093817
v 1.66669798 2.44502044 -1.13093817
v 2.07286024 2.00365758 -1.15447044
v 2.71296573 2.59271216 -1.15447044
v 2.71307802 2.59258986 -1.13647127
v 2.07286024 2.00365758 -1.15447044
v 2.71307802 2.59258986 -1.13647127
v 2.07297254 2.00353551 -1.13647127
v 2.71296573 2.59271216 -1.15447044
v 2.30669093 3.03419709 -1.14893734
v 2.30680346 3.03407478 -1.13093817
v 2.71296573 2.59271216 -1.15447044
v 2.30680346 3.03407478 -1.13093817
v 2.71307802 2.59258986 -1.13647127
v 2.30669093 3.03419709 -1.14893734
v 1.66658556 2.44514251 -1.14893734
v 1.66669798 2.44502044 -1.13093817
v 2.30669093 3.03419709 -1.14893734
v 1.66669798 2.44502044 -1.13093817
v 2.30680346 3.03407478 -1.13093817
v 1.66658556 2.44514251 -1.14893734
v 2.07286024 2.00365758 -1.15447044
v 2.07297254 2.00353551 -1.13647127
v 1.66658556 2.44514251 -1.14893734
v 2.07297254 2.00353551 -1.13647127
v 1.66669798 2.44502044 -1.13093817
vt -0.96655184 0.66666543
vt 0.96655184 0.66666543
vt 0.96655184 -0.66666543
vt -0.96655184 0.66666543
vt 0.96655184 -0.66666543
vt -0.96655184 -0.66666543
vt -0.96655184 -0.66666543
vt 0.96655184 -0.66666543
vt 0.96655184 0.66666543
vt -0.96655184 -0.66666543
vt 0.96655184 0.66666543
vt -0.96655184 0.66666543
vt -0.96655184 -0.01999998
vt 0.96655184 -0.01999998
vt 0.96655184 0.01999998
vt -0.96655184 -0.01999998
vt 0.96655184 0.01999998
vt -0.96655184 0.01999998
vt -0.66666543 -0.01999998
vt 0.66666543 -0.01999998
vt 0.66666543 0.01999998
vt -0.66666543 -0.01999998
vt 0.66666543 0.01999998
vt -0.66666543 0.01999998
vt 0.96655184 -0.01999998
vt -0.96655184 -0.01999998
vt -0.96655184 0.01999998
vt 0.96655184 -0.01999998
vt -0.96655184 0.01999998
vt 0.96655184 0.01999998
vt 0.66666543 -0.01999998
vt -0.66666543 -0.01999998
vt -0.66666543 0.01999998
vt 0.66666543 -0.01999998
vt -0.66666543 0.01999998
vt 0.66666543 0.01999998
f 1/1 2/2 3/3
f 4/4 5/5 6/6
f 7/7 8/8 9/9
f 10/10 11/11 12/12
f 13/13 14/14 15/15
f 16/16 17/17 18/18
f 19/19 20/20 21/21
f 22/22 23/23 24/24
f 25/25 26/26 27/27
f 28/28 29/29 30/30
f 31/31 32/32 33/33
f 34/34 35/35 36/36

