# https://github.com/mikedh/trimesh
mtllib material.mtl
usemtl BrushedStainless
v 4.24080944 1.19794393 -0.51189715
v 4.04972267 1.42134380 -0.50810832
v 4.29209566 1.62871838 -0.51156694
v 4.24080944 1.19794393 -0.51189715
v 4.29209566 1.62871838 -0.51156694
v 4.48318243 1.40531850 -0.51535583
v 4.48323250 1.40531027 -0.51235622
v 4.29214573 1.62871015 -0.50856739
v 4.04977226 1.42133546 -0.50510871
v 4.48323250 1.40531027 -0.51235622
v 4.04977226 1.42133546 -0.50510871
v 4.24085903 1.19793570 -0.50889760
v 4.48318243 1.40531850 -0.51535583
v 4.29209566 1.62871838 -0.51156694
v 4.29214573 1.62871015 -0.50856739
v 4.48318243 1.40531850 -0.51535583
v 4.29214573 1.62871015 -0.50856739
v 4.48323250 1.40531027 -0.51235622
v 4.29209566 1.62871838 -0.51156694
v 4.04972267 1.42134380 -0.50810832
v 4.04977226 1.42133546 -0.50510871
v 4.29209566 1.62871838 -0.51156694
v 4.04977226 1.42133546 -0.50510871
v 4.29214573 1.62871015 -0.50856739
v 4.04972267 1.42134380 -0.50810832
v 4.24080944 1.19794393 -0.51189715
v 4.24085903 1.19793570 -0.50889760
v 4.04972267 1.42134380 -0.50810832
v 4.24085903 1.19793570 -0.50889760
v 4.04977226 1.42133546 -0.50510871
v 4.24080944 1.19794393 -0.51189715
v 4.48318243 1.40531850 -0.51535583
v 4.48323250 1.40531027 -0.51235622
v 4.24080944 1.19794393 -0.51189715
v 4.48323250 1.40531027 -0.51235622
v 4.24085903 1.19793570 -0.50889760
vt -0.32666665 0.35444444
vt 0.32666665 0.35444444
vt 0.32666665 -0.35444450
vt -0.32666665 0.35444444
vt 0.32666665 -0.35444450
vt -0.32666665 -0.35444450
vt -0.32666665 -0.35444450
vt 0.32666665 -0.35444450
vt 0.32666665 0.35444444
vt -0.32666665 -0.35444450
vt 0.32666665 0.35444444
vt -0.32666665 0.35444444
vt -0.32666665 -0.00333333
vt 0.32666665 -0.00333333
vt 0.32666665 0.00333333
vt -0.32666665 -0.00333333
vt 0.32666665 0.00333333
vt -0.32666665 0.00333333
vt -0.35444444 -0.00333333
vt 0.35444444 -0.00333333
vt 0.35444444 0.00333333
vt -0.35444444 -0.00333333
vt 0.35444444 0.00333333
vt -0.35444444 0.00333333
vt 0.32666665 -0.00333333
vt -0.32666665 -0.00333333
vt -0.32666665 0.00333333
vt 0.32666665 -0.00333333
vt -0.32666665 0.00333333
vt 0.32666665 0.00333333
vt 0.35444444 -0.00333333
vt -0.35444444 -0.00333333
vt -0.35444444 0.00333333
vt 0.35444444 -0.00333333
vt -0.35444444 0.00333333
vt 0.35444444 0.00333333
f 1/1 2/2 3/3
f 4/4 5/5 6/6
f 7/7 8/8 9/9
f 10/10 11/11 12/12
f 13/13 14/14 15/15
f 16/16 17/17 18/18
f 19/19 20/20 21/21
f 22/22 23/23 24/24
f 25/25 26/26 27/27
f 28/28 29/29 30/30
f 31/31 32/32 33/33
f 34/34 35/35 36/36

