# https://github.com/mikedh/trimesh
mtllib material.mtl
usemtl BrushedStainless
v 4.23852968 1.19599366 -0.51186466
v 4.04744291 1.41939354 -0.50807577
v 4.04972267 1.42134380 -0.50810832
v 4.23852968 1.19599366 -0.51186466
v 4.04972267 1.42134380 -0.50810832
v 4.24080944 1.19794393 -0.51189715
v 4.24380016 1.19744992 -0.33192268
v 4.05271339 1.42084968 -0.32813385
v 4.05043411 1.41889942 -0.32810131
v 4.24380016 1.19744992 -0.33192268
v 4.05043411 1.41889942 -0.32810131
v 4.24152088 1.19549966 -0.33189017
v 4.24080944 1.19794393 -0.51189715
v 4.04972267 1.42134380 -0.50810832
v 4.05271339 1.42084968 -0.32813385
v 4.24080944 1.19794393 -0.51189715
v 4.05271339 1.42084968 -0.32813385
v 4.24380016 1.19744992 -0.33192268
v 4.04972267 1.42134380 -0.50810832
v 4.04744291 1.41939354 -0.50807577
v 4.05043411 1.41889942 -0.32810131
v 4.04972267 1.42134380 -0.50810832
v 4.05043411 1.41889942 -0.32810131
v 4.05271339 1.42084968 -0.32813385
v 4.04744291 1.41939354 -0.50807577
v 4.23852968 1.19599366 -0.51186466
v 4.24152088 1.19549966 -0.33189017
v 4.04744291 1.41939354 -0.50807577
v 4.24152088 1.19549966 -0.33189017
v 4.05043411 1.41889942 -0.32810131
v 4.23852968 1.19599366 -0.51186466
v 4.24080944 1.19794393 -0.51189715
v 4.24380016 1.19744992 -0.33192268
v 4.23852968 1.19599366 -0.51186466
v 4.24380016 1.19744992 -0.33192268
v 4.24152088 1.19549966 -0.33189017
vt -0.32666665 0.00333333
vt 0.32666665 0.00333333
vt 0.32666665 -0.00333333
vt -0.32666665 0.00333333
vt 0.32666665 -0.00333333
vt -0.32666665 -0.00333333
vt -0.32666665 -0.00333333
vt 0.32666665 -0.00333333
vt 0.32666665 0.00333333
vt -0.32666665 -0.00333333
vt 0.32666665 0.00333333
vt -0.32666665 0.00333333
vt -0.32666665 -0.20000005
vt 0.32666665 -0.20000005
vt 0.32666665 0.19999999
vt -0.32666665 -0.20000005
vt 0.32666665 0.19999999
vt -0.32666665 0.19999999
vt -0.00333333 -0.20000005
vt 0.00333333 -0.20000005
vt 0.00333333 0.19999999
vt -0.00333333 -0.20000005
vt 0.00333333 0.19999999
vt -0.00333333 0.19999999
vt 0.32666665 -0.20000005
vt -0.32666665 -0.20000005
vt -0.32666665 0.19999999
vt 0.32666665 -0.20000005
vt -0.32666665 0.19999999
vt 0.32666665 0.19999999
vt 0.00333333 -0.20000005
vt -0.00333333 -0.20000005
vt -0.00333333 0.19999999
vt 0.00333333 -0.20000005
vt -0.00333333 0.19999999
vt 0.00333333 0.19999999
f 1/1 2/2 3/3
f 4/4 5/5 6/6
f 7/7 8/8 9/9
f 10/10 11/11 12/12
f 13/13 14/14 15/15
f 16/16 17/17 18/18
f 19/19 20/20 21/21
f 22/22 23/23 24/24
f 25/25 26/26 27/27
f 28/28 29/29 30/30
f 31/31 32/32 33/33
f 34/34 35/35 36/36

