# https://github.com/mikedh/trimesh
mtllib material.mtl
usemtl BlackRubber
v 5.48551130 3.19886398 -1.09341443
v 6.01793242 2.58275652 -1.09341443
v 6.01112413 2.57687283 -1.09357476
v 5.48551130 3.19886398 -1.09341443
v 6.01112413 2.57687283 -1.09357476
v 5.47870255 3.19298029 -1.09357476
v 5.47310734 3.18814516 -0.67854768
v 6.00552893 2.57203746 -0.67854768
v 6.01233721 2.57792115 -0.67838734
v 5.47310734 3.18814516 -0.67854768
v 6.01233721 2.57792115 -0.67838734
v 5.47991610 3.19402885 -0.67838734
v 5.47870255 3.19298029 -1.09357476
v 6.01112413 2.57687283 -1.09357476
v 6.00552893 2.57203746 -0.67854768
v 5.47870255 3.19298029 -1.09357476
v 6.00552893 2.57203746 -0.67854768
v 5.47310734 3.18814516 -0.67854768
v 6.01112413 2.57687283 -1.09357476
v 6.01793242 2.58275652 -1.09341443
v 6.01233721 2.57792115 -0.67838734
v 6.01112413 2.57687283 -1.09357476
v 6.01233721 2.57792115 -0.67838734
v 6.00552893 2.57203746 -0.67854768
v 6.01793242 2.58275652 -1.09341443
v 5.48551130 3.19886398 -1.09341443
v 5.47991610 3.19402885 -0.67838734
v 6.01793242 2.58275652 -1.09341443
v 5.47991610 3.19402885 -0.67838734
v 6.01233721 2.57792115 -0.67838734
v 5.48551130 3.19886398 -1.09341443
v 5.47870255 3.19298029 -1.09357476
v 5.47310734 3.18814516 -0.67854768
v 5.48551130 3.19886398 -1.09341443
v 5.47310734 3.18814516 -0.67854768
v 5.47991610 3.19402885 -0.67838734
vt 0.00000000 0.00000000
vt 0.00000000 0.00000000
vt 0.00000000 0.00000000
vt 0.00000000 0.00000000
vt 0.00000000 0.00000000
vt 0.00000000 0.00000000
vt 0.00000000 0.00000000
vt 0.00000000 0.00000000
vt 0.00000000 0.00000000
vt 0.00000000 0.00000000
vt 0.00000000 0.00000000
vt 0.00000000 0.00000000
vt 0.00000000 0.00000000
vt 0.00000000 0.00000000
vt 0.00000000 0.00000000
vt 0.00000000 0.00000000
vt 0.00000000 0.00000000
vt 0.00000000 0.00000000
vt 0.00000000 0.00000000
vt 0.00000000 0.00000000
vt 0.00000000 0.00000000
vt 0.00000000 0.00000000
vt 0.00000000 0.00000000
vt 0.00000000 0.00000000
vt 0.00000000 0.00000000
vt 0.00000000 0.00000000
vt 0.00000000 0.00000000
vt 0.00000000 0.00000000
vt 0.00000000 0.00000000
vt 0.00000000 0.00000000
vt 0.00000000 0.00000000
vt 0.00000000 0.00000000
vt 0.00000000 0.00000000
vt 0.00000000 0.00000000
vt 0.00000000 0.00000000
vt 0.00000000 0.00000000
f 1/1 2/2 3/3
f 4/4 5/5 6/6
f 7/7 8/8 9/9
f 10/10 11/11 12/12
f 13/13 14/14 15/15
f 16/16 17/17 18/18
f 19/19 20/20 21/21
f 22/22 23/23 24/24
f 25/25 26/26 27/27
f 28/28 29/29 30/30
f 31/31 32/32 33/33
f 34/34 35/35 36/36

