# https://github.com/mikedh/trimesh
mtllib material.mtl
usemtl PaleWood
v 3.19074011 3.28129077 -1.05875361
v 3.81455970 3.82424664 -1.05875361
v 3.82637548 3.81067085 -1.05903780
v 3.19074011 3.28129077 -1.05875361
v 3.82637548 3.81067085 -1.05903780
v 3.20255589 3.26771498 -1.05903780
v 3.20949507 3.25974250 -0.38967374
v 3.83331466 3.80269837 -0.38967374
v 3.82149863 3.81627417 -0.38938957
v 3.20949507 3.25974250 -0.38967374
v 3.82149863 3.81627417 -0.38938957
v 3.19767904 3.27331829 -0.38938957
v 3.20255589 3.26771498 -1.05903780
v 3.82637548 3.81067085 -1.05903780
v 3.83331466 3.80269837 -0.38967374
v 3.20255589 3.26771498 -1.05903780
v 3.83331466 3.80269837 -0.38967374
v 3.20949507 3.25974250 -0.38967374
v 3.82637548 3.81067085 -1.05903780
v 3.81455970 3.82424664 -1.05875361
v 3.82149863 3.81627417 -0.38938957
v 3.82637548 3.81067085 -1.05903780
v 3.82149863 3.81627417 -0.38938957
v 3.83331466 3.80269837 -0.38967374
v 3.81455970 3.82424664 -1.05875361
v 3.19074011 3.28129077 -1.05875361
v 3.19767904 3.27331829 -0.38938957
v 3.81455970 3.82424664 -1.05875361
v 3.19767904 3.27331829 -0.38938957
v 3.82149863 3.81627417 -0.38938957
v 3.19074011 3.28129077 -1.05875361
v 3.20255589 3.26771498 -1.05903780
v 3.20949507 3.25974250 -0.38967374
v 3.19074011 3.28129077 -1.05875361
v 3.20949507 3.25974250 -0.38967374
v 3.19767904 3.27331829 -0.38938957
vt -0.91890430 0.01999998
vt 0.91890430 0.01999998
vt 0.91890430 -0.01999998
vt -0.91890430 0.01999998
vt 0.91890430 -0.01999998
vt -0.91890430 -0.01999998
vt -0.91890430 -0.01999998
vt 0.91890430 -0.01999998
vt 0.91890430 0.01999998
vt -0.91890430 -0.01999998
vt 0.91890430 0.01999998
vt -0.91890430 0.01999998
vt -0.91890430 -0.74383056
vt 0.91890430 -0.74383056
vt 0.91890430 0.74383056
vt -0.91890430 -0.74383056
vt 0.91890430 0.74383056
vt -0.91890430 0.74383056
vt -0.02000000 -0.74383056
vt 0.02000000 -0.74383056
vt 0.02000000 0.74383056
vt -0.02000000 -0.74383056
vt 0.02000000 0.74383056
vt -0.02000000 0.74383056
vt 0.91890430 -0.74383056
vt -0.91890430 -0.74383056
vt -0.91890430 0.74383056
vt 0.91890430 -0.74383056
vt -0.91890430 0.74383056
vt 0.91890430 0.74383056
vt 0.02000000 -0.74383056
vt -0.02000000 -0.74383056
vt -0.02000000 0.74383056
vt 0.02000000 -0.74383056
vt -0.02000000 0.74383056
vt 0.02000000 0.74383056
f 1/1 2/2 3/3
f 4/4 5/5 6/6
f 7/7 8/8 9/9
f 10/10 11/11 12/12
f 13/13 14/14 15/15
f 16/16 17/17 18/18
f 19/19 20/20 21/21
f 22/22 23/23 24/24
f 25/25 26/26 27/27
f 28/28 29/29 30/30
f 31/31 32/32 33/33
f 34/34 35/35 36/36

