# https://github.com/mikedh/trimesh
mtllib material.mtl
usemtl BrushedStainless
v 3.99382639 1.48669195 -0.50700003
v 3.77674127 1.74048638 -0.50269568
v 4.01911449 1.94786096 -0.50615430
v 3.99382639 1.48669195 -0.50700003
v 4.01911449 1.94786096 -0.50615430
v 4.23619986 1.69406664 -0.51045865
v 4.23624945 1.69405830 -0.50745904
v 4.01916456 1.94785273 -0.50315475
v 3.77679110 1.74047804 -0.49969611
v 4.23624945 1.69405830 -0.50745904
v 3.77679110 1.74047804 -0.49969611
v 3.99387622 1.48668373 -0.50400043
v 4.23619986 1.69406664 -0.51045865
v 4.01911449 1.94786096 -0.50615430
v 4.01916456 1.94785273 -0.50315475
v 4.23619986 1.69406664 -0.51045865
v 4.01916456 1.94785273 -0.50315475
v 4.23624945 1.69405830 -0.50745904
v 4.01911449 1.94786096 -0.50615430
v 3.77674127 1.74048638 -0.50269568
v 3.77679110 1.74047804 -0.49969611
v 4.01911449 1.94786096 -0.50615430
v 3.77679110 1.74047804 -0.49969611
v 4.01916456 1.94785273 -0.50315475
v 3.77674127 1.74048638 -0.50269568
v 3.99382639 1.48669195 -0.50700003
v 3.99387622 1.48668373 -0.50400043
v 3.77674127 1.74048638 -0.50269568
v 3.99387622 1.48668373 -0.50400043
v 3.77679110 1.74047804 -0.49969611
v 3.99382639 1.48669195 -0.50700003
v 4.23619986 1.69406664 -0.51045865
v 4.23624945 1.69405830 -0.50745904
v 3.99382639 1.48669195 -0.50700003
v 4.23624945 1.69405830 -0.50745904
v 3.99387622 1.48668373 -0.50400043
vt -0.37111109 0.35444444
vt 0.37111109 0.35444444
vt 0.37111109 -0.35444450
vt -0.37111109 0.35444444
vt 0.37111109 -0.35444450
vt -0.37111109 -0.35444450
vt -0.37111109 -0.35444450
vt 0.37111109 -0.35444450
vt 0.37111109 0.35444444
vt -0.37111109 -0.35444450
vt 0.37111109 0.35444444
vt -0.37111109 0.35444444
vt -0.37111109 -0.00333333
vt 0.37111109 -0.00333333
vt 0.37111109 0.00333333
vt -0.37111109 -0.00333333
vt 0.37111109 0.00333333
vt -0.37111109 0.00333333
vt -0.35444444 -0.00333333
vt 0.35444444 -0.00333333
vt 0.35444444 0.00333333
vt -0.35444444 -0.00333333
vt 0.35444444 0.00333333
vt -0.35444444 0.00333333
vt 0.37111109 -0.00333333
vt -0.37111109 -0.00333333
vt -0.37111109 0.00333333
vt 0.37111109 -0.00333333
vt -0.37111109 0.00333333
vt 0.37111109 0.00333333
vt 0.35444444 -0.00333333
vt -0.35444444 -0.00333333
vt -0.35444444 0.00333333
vt 0.35444444 -0.00333333
vt -0.35444444 0.00333333
vt 0.35444444 0.00333333
f 1/1 2/2 3/3
f 4/4 5/5 6/6
f 7/7 8/8 9/9
f 10/10 11/11 12/12
f 13/13 14/14 15/15
f 16/16 17/17 18/18
f 19/19 20/20 21/21
f 22/22 23/23 24/24
f 25/25 26/26 27/27
f 28/28 29/29 30/30
f 31/31 32/32 33/33
f 34/34 35/35 36/36

