# https://github.com/mikedh/trimesh
mtllib material.mtl
usemtl WarmWhitePaint
v 7.97044849 -4.07157898 -1.34762788
v 7.99517012 -4.09635448 -1.34812772
v 7.95623636 -4.13520288 -1.34791338
v 7.97044849 -4.07157898 -1.34762788
v 7.95623636 -4.13520288 -1.34791338
v 7.93151474 -4.11042690 -1.34741354
v 7.93151474 -4.11042690 1.62726676
v 7.95623636 -4.13520288 1.62726676
v 7.99517012 -4.09635448 1.62726676
v 7.93151474 -4.11042690 1.62726676
v 7.99517012 -4.09635448 1.62726676
v 7.97044849 -4.07157898 1.62726676
v 7.93151474 -4.11042690 -1.34741354
v 7.95623636 -4.13520288 -1.34791338
v 7.95623636 -4.13520288 1.62726676
v 7.93151474 -4.11042690 -1.34741354
v 7.95623636 -4.13520288 1.62726676
v 7.93151474 -4.11042690 1.62726676
v 7.95623636 -4.13520288 -1.34791338
v 7.99517012 -4.09635448 -1.34812772
v 7.99517012 -4.09635448 1.62726676
v 7.95623636 -4.13520288 -1.34791338
v 7.99517012 -4.09635448 1.62726676
v 7.95623636 -4.13520288 1.62726676
v 7.99517012 -4.09635448 -1.34812772
v 7.97044849 -4.07157898 -1.34762788
v 7.97044849 -4.07157898 1.62726676
v 7.99517012 -4.09635448 -1.34812772
v 7.97044849 -4.07157898 1.62726676
v 7.99517012 -4.09635448 1.62726676
v 7.97044849 -4.07157898 -1.34762788
v 7.93151474 -4.11042690 -1.34741354
v 7.93151474 -4.11042690 1.62726676
v 7.97044849 -4.07157898 -1.34762788
v 7.93151474 -4.11042690 1.62726676
v 7.97044849 -4.07157898 1.62726676
vt -0.03888889 0.06111109
vt 0.03888889 0.06111109
vt 0.03888889 -0.06111109
vt -0.03888889 0.06111109
vt 0.03888889 -0.06111109
vt -0.03888889 -0.06111109
vt -0.03888889 -0.06111109
vt 0.03888889 -0.06111109
vt 0.03888889 0.06111109
vt -0.03888889 -0.06111109
vt 0.03888889 0.06111109
vt -0.03888889 0.06111109
vt -0.03888889 -3.38334465
vt 0.03888889 -3.38445568
vt 0.03888889 3.22705579
vt -0.03888889 -3.38334465
vt 0.03888889 3.22705579
vt -0.03888889 3.22705579
vt -0.06111111 -3.38445568
vt 0.06111111 -3.38493156
vt 0.06111111 3.22705579
vt -0.06111111 -3.38445568
vt 0.06111111 3.22705579
vt -0.06111111 3.22705579
vt 0.03888889 -3.38493156
vt -0.03888889 -3.38382101
vt -0.03888889 3.22705579
vt 0.03888889 -3.38493156
vt -0.03888889 3.22705579
vt 0.03888889 3.22705579
vt 0.06111111 -3.38382101
vt -0.06111111 -3.38334465
vt -0.06111111 3.22705579
vt 0.06111111 -3.38382101
vt -0.06111111 3.22705579
vt 0.06111111 3.22705579
f 1/1 2/2 3/3
f 4/4 5/5 6/6
f 7/7 8/8 9/9
f 10/10 11/11 12/12
f 13/13 14/14 15/15
f 16/16 17/17 18/18
f 19/19 20/20 21/21
f 22/22 23/23 24/24
f 25/25 26/26 27/27
f 28/28 29/29 30/30
f 31/31 32/32 33/33
f 34/34 35/35 36/36

