# https://github.com/mikedh/trimesh
mtllib material.mtl
usemtl DarkPlastic
v 6.47800827 2.86219549 -0.81360823
v 6.71803427 2.58444166 -0.81360823
v 6.70441723 2.57267427 -0.81392890
v 6.47800827 2.86219549 -0.81360823
v 6.70441723 2.57267427 -0.81392890
v 6.46439123 2.85042810 -0.81392890
v 6.46282864 2.84907770 -0.69803149
v 6.70285463 2.57132411 -0.69803149
v 6.71647215 2.58309150 -0.69771081
v 6.46282864 2.84907770 -0.69803149
v 6.71647215 2.58309150 -0.69771081
v 6.47644567 2.86084533 -0.69771081
v 6.46439123 2.85042810 -0.81392890
v 6.70441723 2.57267427 -0.81392890
v 6.70285463 2.57132411 -0.69803149
v 6.46439123 2.85042810 -0.81392890
v 6.70285463 2.57132411 -0.69803149
v 6.46282864 2.84907770 -0.69803149
v 6.70441723 2.57267427 -0.81392890
v 6.71803427 2.58444166 -0.81360823
v 6.71647215 2.58309150 -0.69771081
v 6.70441723 2.57267427 -0.81392890
v 6.71647215 2.58309150 -0.69771081
v 6.70285463 2.57132411 -0.69803149
v 6.71803427 2.58444166 -0.81360823
v 6.47800827 2.86219549 -0.81360823
v 6.47644567 2.86084533 -0.69771081
v 6.71803427 2.58444166 -0.81360823
v 6.47644567 2.86084533 -0.69771081
v 6.71647215 2.58309150 -0.69771081
v 6.47800827 2.86219549 -0.81360823
v 6.46439123 2.85042810 -0.81392890
v 6.46282864 2.84907770 -0.69803149
v 6.47800827 2.86219549 -0.81360823
v 6.46282864 2.84907770 -0.69803149
v 6.47644567 2.86084533 -0.69771081
vt -0.40788484 0.01999998
vt 0.40788484 0.01999998
vt 0.40788484 -0.01999998
vt -0.40788484 0.01999998
vt 0.40788484 -0.01999998
vt -0.40788484 -0.01999998
vt -0.40788484 -0.01999998
vt 0.40788484 -0.01999998
vt 0.40788484 0.01999998
vt -0.40788484 -0.01999998
vt 0.40788484 0.01999998
vt -0.40788484 0.01999998
vt -0.40788484 -0.12879539
vt 0.40788484 -0.12879539
vt 0.40788484 0.12879533
vt -0.40788484 -0.12879539
vt 0.40788484 0.12879533
vt -0.40788484 0.12879533
vt -0.02000000 -0.12879539
vt 0.02000000 -0.12879539
vt 0.02000000 0.12879533
vt -0.02000000 -0.12879539
vt 0.02000000 0.12879533
vt -0.02000000 0.12879533
vt 0.40788484 -0.12879539
vt -0.40788484 -0.12879539
vt -0.40788484 0.12879533
vt 0.40788484 -0.12879539
vt -0.40788484 0.12879533
vt 0.40788484 0.12879533
vt 0.02000000 -0.12879539
vt -0.02000000 -0.12879539
vt -0.02000000 0.12879533
vt 0.02000000 -0.12879539
vt -0.02000000 0.12879533
vt 0.02000000 0.12879533
f 1/1 2/2 3/3
f 4/4 5/5 6/6
f 7/7 8/8 9/9
f 10/10 11/11 12/12
f 13/13 14/14 15/15
f 16/16 17/17 18/18
f 19/19 20/20 21/21
f 22/22 23/23 24/24
f 25/25 26/26 27/27
f 28/28 29/29 30/30
f 31/31 32/32 33/33
f 34/34 35/35 36/36

