# https://github.com/mikedh/trimesh
mtllib material.mtl
usemtl WhiteSolidSurface
v 3.64010358 1.07176852 -0.32223514
v 3.58810711 1.13255763 -0.32120416
v 3.99648786 1.48196816 -0.32703167
v 3.64010358 1.07176852 -0.32223514
v 3.99648786 1.48196816 -0.32703167
v 4.04848433 1.42117906 -0.32806265
v 4.04906559 1.42108297 -0.29306763
v 3.99706936 1.48187208 -0.29203665
v 3.58868861 1.13246155 -0.28620911
v 4.04906559 1.42108297 -0.29306763
v 3.58868861 1.13246155 -0.28620911
v 3.64068508 1.07167244 -0.28724009
v 4.04848433 1.42117906 -0.32806265
v 3.99648786 1.48196816 -0.32703167
v 3.99706936 1.48187208 -0.29203665
v 4.04848433 1.42117906 -0.32806265
v 3.99706936 1.48187208 -0.29203665
v 4.04906559 1.42108297 -0.29306763
v 3.99648786 1.48196816 -0.32703167
v 3.58810711 1.13255763 -0.32120416
v 3.58868861 1.13246155 -0.28620911
v 3.99648786 1.48196816 -0.32703167
v 3.58868861 1.13246155 -0.28620911
v 3.99706936 1.48187208 -0.29203665
v 3.58810711 1.13255763 -0.32120416
v 3.64010358 1.07176852 -0.32223514
v 3.64068508 1.07167244 -0.28724009
v 3.58810711 1.13255763 -0.32120416
v 3.64068508 1.07167244 -0.28724009
v 3.58868861 1.13246155 -0.28620911
v 3.64010358 1.07176852 -0.32223514
v 4.04848433 1.42117906 -0.32806265
v 4.04906559 1.42108297 -0.29306763
v 3.64010358 1.07176852 -0.32223514
v 4.04906559 1.42108297 -0.29306763
v 3.64068508 1.07167244 -0.28724009
vt -0.08888888 0.59721208
vt 0.08888888 0.59721208
vt 0.08888888 -0.59721208
vt -0.08888888 0.59721208
vt 0.08888888 -0.59721208
vt -0.08888888 -0.59721208
vt -0.08888888 -0.59721208
vt 0.08888888 -0.59721208
vt 0.08888888 0.59721208
vt -0.08888888 -0.59721208
vt 0.08888888 0.59721208
vt -0.08888888 0.59721208
vt -0.08888888 -0.03888893
vt 0.08888888 -0.03888893
vt 0.08888888 0.03888887
vt -0.08888888 -0.03888893
vt 0.08888888 0.03888887
vt -0.08888888 0.03888887
vt -0.59721208 -0.03888893
vt 0.59721208 -0.03888893
vt 0.59721208 0.03888887
vt -0.59721208 -0.03888893
vt 0.59721208 0.03888887
vt -0.59721208 0.03888887
vt 0.08888888 -0.03888893
vt -0.08888888 -0.03888893
vt -0.08888888 0.03888887
vt 0.08888888 -0.03888893
vt -0.08888888 0.03888887
vt 0.08888888 0.03888887
vt 0.59721208 -0.03888893
vt -0.59721208 -0.03888893
vt -0.59721208 0.03888887
vt 0.59721208 -0.03888893
vt -0.59721208 0.03888887
vt 0.59721208 0.03888887
f 1/1 2/2 3/3
f 4/4 5/5 6/6
f 7/7 8/8 9/9
f 10/10 11/11 12/12
f 13/13 14/14 15/15
f 16/16 17/17 18/18
f 19/19 20/20 21/21
f 22/22 23/23 24/24
f 25/25 26/26 27/27
f 28/28 29/29 30/30
f 31/31 32/32 33/33
f 34/34 35/35 36/36

