# https://github.com/mikedh/trimesh
mtllib material.mtl
usemtl DarkPlastic
v 6.69945669 2.59217715 -0.81376857
v 6.71122599 2.57855797 -0.81376857
v 6.31995010 2.24042964 -0.82298285
v 6.69945669 2.59217715 -0.81376857
v 6.31995010 2.24042964 -0.82298285
v 6.30818081 2.25404882 -0.82298285
v 6.30661821 2.25269866 -0.70708543
v 6.31838799 2.23907924 -0.70708543
v 6.70966339 2.57720780 -0.69787115
v 6.30661821 2.25269866 -0.70708543
v 6.70966339 2.57720780 -0.69787115
v 6.69789410 2.59082699 -0.69787115
v 6.30818081 2.25404882 -0.82298285
v 6.31995010 2.24042964 -0.82298285
v 6.31838799 2.23907924 -0.70708543
v 6.30818081 2.25404882 -0.82298285
v 6.31838799 2.23907924 -0.70708543
v 6.30661821 2.25269866 -0.70708543
v 6.31995010 2.24042964 -0.82298285
v 6.71122599 2.57855797 -0.81376857
v 6.70966339 2.57720780 -0.69787115
v 6.31995010 2.24042964 -0.82298285
v 6.70966339 2.57720780 -0.69787115
v 6.31838799 2.23907924 -0.70708543
v 6.71122599 2.57855797 -0.81376857
v 6.69945669 2.59217715 -0.81376857
v 6.69789410 2.59082699 -0.69787115
v 6.71122599 2.57855797 -0.81376857
v 6.69789410 2.59082699 -0.69787115
v 6.70966339 2.57720780 -0.69787115
v 6.69945669 2.59217715 -0.81376857
v 6.30818081 2.25404882 -0.82298285
v 6.30661821 2.25269866 -0.70708543
v 6.69945669 2.59217715 -0.81376857
v 6.30661821 2.25269866 -0.70708543
v 6.69789410 2.59082699 -0.69787115
vt -0.02000000 0.57468438
vt 0.02000000 0.57468438
vt 0.02000000 -0.57468438
vt -0.02000000 0.57468438
vt 0.02000000 -0.57468438
vt -0.02000000 -0.57468438
vt -0.02000000 -0.57468438
vt 0.02000000 -0.57468438
vt 0.02000000 0.57468438
vt -0.02000000 -0.57468438
vt 0.02000000 0.57468438
vt -0.02000000 0.57468438
vt -0.02000000 -0.12879539
vt 0.02000000 -0.12879539
vt 0.02000000 0.12879533
vt -0.02000000 -0.12879539
vt 0.02000000 0.12879533
vt -0.02000000 0.12879533
vt -0.57468438 -0.12879539
vt 0.57468438 -0.12879539
vt 0.57468438 0.12879533
vt -0.57468438 -0.12879539
vt 0.57468438 0.12879533
vt -0.57468438 0.12879533
vt 0.02000000 -0.12879539
vt -0.02000000 -0.12879539
vt -0.02000000 0.12879533
vt 0.02000000 -0.12879539
vt -0.02000000 0.12879533
vt 0.02000000 0.12879533
vt 0.57468438 -0.12879539
vt -0.57468438 -0.12879539
vt -0.57468438 0.12879533
vt 0.57468438 -0.12879539
vt -0.57468438 0.12879533
vt 0.57468438 0.12879533
f 1/1 2/2 3/3
f 4/4 5/5 6/6
f 7/7 8/8 9/9
f 10/10 11/11 12/12
f 13/13 14/14 15/15
f 16/16 17/17 18/18
f 19/19 20/20 21/21
f 22/22 23/23 24/24
f 25/25 26/26 27/27
f 28/28 29/29 30/30
f 31/31 32/32 33/33
f 34/34 35/35 36/36

