# https://github.com/mikedh/trimesh
mtllib material.mtl
usemtl PaleWood
v 4.37422037 1.68620169 -1.13164198
v 4.17798233 1.91562366 -1.12775099
v 4.19165850 1.92732501 -1.12794614
v 4.37422037 1.68620169 -1.13164198
v 4.19165850 1.92732501 -1.12794614
v 4.38789654 1.69790304 -1.13183713
v 4.40106964 1.69572711 -0.33916932
v 4.20483160 1.92514908 -0.33527833
v 4.19115543 1.91344762 -0.33508316
v 4.40106964 1.69572711 -0.33916932
v 4.19115543 1.91344762 -0.33508316
v 4.38739347 1.68402565 -0.33897415
v 4.38789654 1.69790304 -1.13183713
v 4.19165850 1.92732501 -1.12794614
v 4.20483160 1.92514908 -0.33527833
v 4.38789654 1.69790304 -1.13183713
v 4.20483160 1.92514908 -0.33527833
v 4.40106964 1.69572711 -0.33916932
v 4.19165850 1.92732501 -1.12794614
v 4.17798233 1.91562366 -1.12775099
v 4.19115543 1.91344762 -0.33508316
v 4.19165850 1.92732501 -1.12794614
v 4.19115543 1.91344762 -0.33508316
v 4.20483160 1.92514908 -0.33527833
v 4.17798233 1.91562366 -1.12775099
v 4.37422037 1.68620169 -1.13164198
v 4.38739347 1.68402565 -0.33897415
v 4.17798233 1.91562366 -1.12775099
v 4.38739347 1.68402565 -0.33897415
v 4.19115543 1.91344762 -0.33508316
v 4.37422037 1.68620169 -1.13164198
v 4.38789654 1.69790304 -1.13183713
v 4.40106964 1.69572711 -0.33916932
v 4.37422037 1.68620169 -1.13164198
v 4.40106964 1.69572711 -0.33916932
v 4.38739347 1.68402565 -0.33897415
vt -0.33547255 0.01999998
vt 0.33547255 0.01999998
vt 0.33547255 -0.01999998
vt -0.33547255 0.01999998
vt 0.33547255 -0.01999998
vt -0.33547255 -0.01999998
vt -0.33547255 -0.01999998
vt 0.33547255 -0.01999998
vt 0.33547255 0.01999998
vt -0.33547255 -0.01999998
vt 0.33547255 0.01999998
vt -0.33547255 0.01999998
vt -0.33547255 -0.88086700
vt 0.33547255 -0.88086700
vt 0.33547255 0.88086700
vt -0.33547255 -0.88086700
vt 0.33547255 0.88086700
vt -0.33547255 0.88086700
vt -0.02000000 -0.88086700
vt 0.02000000 -0.88086700
vt 0.02000000 0.88086700
vt -0.02000000 -0.88086700
vt 0.02000000 0.88086700
vt -0.02000000 0.88086700
vt 0.33547255 -0.88086700
vt -0.33547255 -0.88086700
vt -0.33547255 0.88086700
vt 0.33547255 -0.88086700
vt -0.33547255 0.88086700
vt 0.33547255 0.88086700
vt 0.02000000 -0.88086700
vt -0.02000000 -0.88086700
vt -0.02000000 0.88086700
vt 0.02000000 -0.88086700
vt -0.02000000 0.88086700
vt 0.02000000 0.88086700
f 1/1 2/2 3/3
f 4/4 5/5 6/6
f 7/7 8/8 9/9
f 10/10 11/11 12/12
f 13/13 14/14 15/15
f 16/16 17/17 18/18
f 19/19 20/20 21/21
f 22/22 23/23 24/24
f 25/25 26/26 27/27
f 28/28 29/29 30/30
f 31/31 32/32 33/33
f 34/34 35/35 36/36

