# https://github.com/mikedh/trimesh
mtllib material.mtl
usemtl EgoPhoto_red_white_gable_carton_PrintedSide
v -0.035686968 0.003209136 0.03582169
v -0.007432368 -0.062402556 0.03584208
v -0.008854578 -0.063022686 -0.0319456
v -0.035686968 0.003209136 0.03582169
v -0.008854578 -0.063022686 -0.0319456
v -0.037109184 0.002589156 -0.03196599
vt 0.00000000 1.00000000
vt 1.00000000 1.00000000
vt 1.00000000 0.00000000
vt 0.00000000 1.00000000
vt 1.00000000 0.00000000
vt 0.00000000 0.00000000
f 1/1 2/2 3/3
f 4/4 5/5 6/6

