# https://github.com/mikedh/trimesh
mtllib material.mtl
usemtl BlackRubber
v 3.01138687 3.17371941 -0.84364897
v 3.07477260 3.22888851 -0.84364897
v 3.08002400 3.22285485 -0.84377527
v 3.01138687 3.17371941 -0.84364897
v 3.08002400 3.22285485 -0.84377527
v 3.01663852 3.16768575 -0.84377527
v 3.01971698 3.16414881 -0.54681504
v 3.08310246 3.21931791 -0.54681504
v 3.07785106 3.22535157 -0.54668874
v 3.01971698 3.16414881 -0.54681504
v 3.07785106 3.22535157 -0.54668874
v 3.01446533 3.17018247 -0.54668874
v 3.01663852 3.16768575 -0.84377527
v 3.08002400 3.22285485 -0.84377527
v 3.08310246 3.21931791 -0.54681504
v 3.01663852 3.16768575 -0.84377527
v 3.08310246 3.21931791 -0.54681504
v 3.01971698 3.16414881 -0.54681504
v 3.08002400 3.22285485 -0.84377527
v 3.07477260 3.22888851 -0.84364897
v 3.07785106 3.22535157 -0.54668874
v 3.08002400 3.22285485 -0.84377527
v 3.07785106 3.22535157 -0.54668874
v 3.08310246 3.21931791 -0.54681504
v 3.07477260 3.22888851 -0.84364897
v 3.01138687 3.17371941 -0.84364897
v 3.01446533 3.17018247 -0.54668874
v 3.07477260 3.22888851 -0.84364897
v 3.01446533 3.17018247 -0.54668874
v 3.07785106 3.22535157 -0.54668874
v 3.01138687 3.17371941 -0.84364897
v 3.01663852 3.16768575 -0.84377527
v 3.01971698 3.16414881 -0.54681504
v 3.01138687 3.17371941 -0.84364897
v 3.01971698 3.16414881 -0.54681504
v 3.01446533 3.17018247 -0.54668874
vt 0.00000000 0.00000000
vt 0.00000000 0.00000000
vt 0.00000000 0.00000000
vt 0.00000000 0.00000000
vt 0.00000000 0.00000000
vt 0.00000000 0.00000000
vt 0.00000000 0.00000000
vt 0.00000000 0.00000000
vt 0.00000000 0.00000000
vt 0.00000000 0.00000000
vt 0.00000000 0.00000000
vt 0.00000000 0.00000000
vt 0.00000000 0.00000000
vt 0.00000000 0.00000000
vt 0.00000000 0.00000000
vt 0.00000000 0.00000000
vt 0.00000000 0.00000000
vt 0.00000000 0.00000000
vt 0.00000000 0.00000000
vt 0.00000000 0.00000000
vt 0.00000000 0.00000000
vt 0.00000000 0.00000000
vt 0.00000000 0.00000000
vt 0.00000000 0.00000000
vt 0.00000000 0.00000000
vt 0.00000000 0.00000000
vt 0.00000000 0.00000000
vt 0.00000000 0.00000000
vt 0.00000000 0.00000000
vt 0.00000000 0.00000000
vt 0.00000000 0.00000000
vt 0.00000000 0.00000000
vt 0.00000000 0.00000000
vt 0.00000000 0.00000000
vt 0.00000000 0.00000000
vt 0.00000000 0.00000000
f 1/1 2/2 3/3
f 4/4 5/5 6/6
f 7/7 8/8 9/9
f 10/10 11/11 12/12
f 13/13 14/14 15/15
f 16/16 17/17 18/18
f 19/19 20/20 21/21
f 22/22 23/23 24/24
f 25/25 26/26 27/27
f 28/28 29/29 30/30
f 31/31 32/32 33/33
f 34/34 35/35 36/36

