# https://github.com/mikedh/trimesh
mtllib material.mtl
usemtl PaleWood
v 2.25598550 3.16614842 -0.01209401
v 4.11746311 4.78015995 -0.01209401
v 4.12925482 4.76656055 -0.01222457
v 2.25598550 3.16614842 -0.01209401
v 4.12925482 4.76656055 -0.01222457
v 2.26777720 3.15254903 -0.01222457
v 2.27208066 3.14758563 0.89344162
v 4.13355827 4.76159716 0.89344162
v 4.12176657 4.77519655 0.89357215
v 2.27208066 3.14758563 0.89344162
v 4.12176657 4.77519655 0.89357215
v 2.26028919 3.16118503 0.89357215
v 2.26777720 3.15254903 -0.01222457
v 4.12925482 4.76656055 -0.01222457
v 4.13355827 4.76159716 0.89344162
v 2.26777720 3.15254903 -0.01222457
v 4.13355827 4.76159716 0.89344162
v 2.27208066 3.14758563 0.89344162
v 4.12925482 4.76656055 -0.01222457
v 4.11746311 4.78015995 -0.01209401
v 4.12176657 4.77519655 0.89357215
v 4.12925482 4.76656055 -0.01222457
v 4.12176657 4.77519655 0.89357215
v 4.13355827 4.76159716 0.89344162
v 4.11746311 4.78015995 -0.01209401
v 2.25598550 3.16614842 -0.01209401
v 2.26028919 3.16118503 0.89357215
v 4.11746311 4.78015995 -0.01209401
v 2.26028919 3.16118503 0.89357215
v 4.12176657 4.77519655 0.89357215
v 2.25598550 3.16614842 -0.01209401
v 2.26777720 3.15254903 -0.01222457
v 2.27208066 3.14758563 0.89344162
v 2.25598550 3.16614842 -0.01209401
v 2.27208066 3.14758563 0.89344162
v 2.26028919 3.16118503 0.89357215
vt -2.73751521 0.01999998
vt 2.73751521 0.01999998
vt 2.73751521 -0.01999998
vt -2.73751521 0.01999998
vt 2.73751521 -0.01999998
vt -2.73751521 -0.01999998
vt -2.73751521 -0.01999998
vt 2.73751521 -0.01999998
vt 2.73751521 0.01999998
vt -2.73751521 -0.01999998
vt 2.73751521 0.01999998
vt -2.73751521 0.01999998
vt -2.73751521 -1.00632238
vt 2.73751521 -1.00632238
vt 2.73751521 1.00632226
vt -2.73751521 -1.00632238
vt 2.73751521 1.00632226
vt -2.73751521 1.00632226
vt -0.02000000 -1.00632238
vt 0.02000000 -1.00632238
vt 0.02000000 1.00632226
vt -0.02000000 -1.00632238
vt 0.02000000 1.00632226
vt -0.02000000 1.00632226
vt 2.73751521 -1.00632238
vt -2.73751521 -1.00632238
vt -2.73751521 1.00632226
vt 2.73751521 -1.00632238
vt -2.73751521 1.00632226
vt 2.73751521 1.00632226
vt 0.02000000 -1.00632238
vt -0.02000000 -1.00632238
vt -0.02000000 1.00632226
vt 0.02000000 -1.00632238
vt -0.02000000 1.00632226
vt 0.02000000 1.00632226
f 1/1 2/2 3/3
f 4/4 5/5 6/6
f 7/7 8/8 9/9
f 10/10 11/11 12/12
f 13/13 14/14 15/15
f 16/16 17/17 18/18
f 19/19 20/20 21/21
f 22/22 23/23 24/24
f 25/25 26/26 27/27
f 28/28 29/29 30/30
f 31/31 32/32 33/33
f 34/34 35/35 36/36

