# https://github.com/mikedh/trimesh
mtllib material.mtl
usemtl BrushedStainless
v 2.38423848 2.25132489 -0.32966626
v 2.38029599 2.24768424 -0.32864612
v 2.37217045 2.25651383 -0.32853547
v 2.38423848 2.25132489 -0.32966626
v 2.37217045 2.25651383 -0.32853547
v 2.37611294 2.26015472 -0.32955560
v 2.38029599 2.24768424 -0.32864612
v 2.37695384 2.24457097 -0.32565010
v 2.36882830 2.25340056 -0.32553944
v 2.38029599 2.24768424 -0.32864612
v 2.36882830 2.25340056 -0.32553944
v 2.37217045 2.25651383 -0.32853547
v 2.37695384 2.24457097 -0.32565010
v 2.37472057 2.24245930 -0.32113427
v 2.36659503 2.25128889 -0.32102361
v 2.37695384 2.24457097 -0.32565010
v 2.36659503 2.25128889 -0.32102361
v 2.36882830 2.25340056 -0.32553944
v 2.37472057 2.24245930 -0.32113427
v 2.37393641 2.24167061 -0.31578615
v 2.36581087 2.25050020 -0.31567550
v 2.37472057 2.24245930 -0.32113427
v 2.36581087 2.25050020 -0.31567550
v 2.36659503 2.25128889 -0.32102361
v 2.37393641 2.24167061 -0.31578615
v 2.37472057 2.24232483 -0.31041998
v 2.36659503 2.25115466 -0.31030932
v 2.37393641 2.24167061 -0.31578615
v 2.36659503 2.25115466 -0.31030932
v 2.36581087 2.25050020 -0.31567550
v 2.37472057 2.24232483 -0.31041998
v 2.37695384 2.24432278 -0.30585265
v 2.36882830 2.25315261 -0.30574200
v 2.37472057 2.24232483 -0.31041998
v 2.36882830 2.25315261 -0.30574200
v 2.36659503 2.25115466 -0.31030932
v 2.37695384 2.24432278 -0.30585265
v 2.38029599 2.24735999 -0.30277953
v 2.37217045 2.25618982 -0.30266887
v 2.37695384 2.24432278 -0.30585265
v 2.37217045 2.25618982 -0.30266887
v 2.36882830 2.25315261 -0.30574200
v 2.38029599 2.24735999 -0.30277953
v 2.38423848 2.25097418 -0.30166847
v 2.37611294 2.25980377 -0.30155781
v 2.38029599 2.24735999 -0.30277953
v 2.37611294 2.25980377 -0.30155781
v 2.37217045 2.25618982 -0.30266887
v 2.38423848 2.25097418 -0.30166847
v 2.38818097 2.25461483 -0.30268860
v 2.38005543 2.26344466 -0.30257794
v 2.38423848 2.25097418 -0.30166847
v 2.38005543 2.26344466 -0.30257794
v 2.37611294 2.25980377 -0.30155781
v 2.38818097 2.25461483 -0.30268860
v 2.39152312 2.25772810 -0.30568466
v 2.38339758 2.26655793 -0.30557397
v 2.38818097 2.25461483 -0.30268860
v 2.38339758 2.26655793 -0.30557397
v 2.38005543 2.26344466 -0.30257794
v 2.39152312 2.25772810 -0.30568466
v 2.39375639 2.25983977 -0.31020045
v 2.38563085 2.26866961 -0.31008980
v 2.39152312 2.25772810 -0.30568466
v 2.38563085 2.26866961 -0.31008980
v 2.38339758 2.26655793 -0.30557397
v 2.39375639 2.25983977 -0.31020045
v 2.39454055 2.26062846 -0.31554857
v 2.38641500 2.26945829 -0.31543791
v 2.39375639 2.25983977 -0.31020045
v 2.38641500 2.26945829 -0.31543791
v 2.38563085 2.26866961 -0.31008980
v 2.39454055 2.26062846 -0.31554857
v 2.39375639 2.25997424 -0.32091475
v 2.38563085 2.26880383 -0.32080409
v 2.39454055 2.26062846 -0.31554857
v 2.38563085 2.26880383 -0.32080409
v 2.38641500 2.26945829 -0.31543791
v 2.39375639 2.25997424 -0.32091475
v 2.39152312 2.25797629 -0.32548207
v 2.38339758 2.26680589 -0.32537141
v 2.39375639 2.25997424 -0.32091475
v 2.38339758 2.26680589 -0.32537141
v 2.38563085 2.26880383 -0.32080409
v 2.39152312 2.25797629 -0.32548207
v 2.38818097 2.25493908 -0.32855520
v 2.38005543 2.26376891 -0.32844454
v 2.39152312 2.25797629 -0.32548207
v 2.38005543 2.26376891 -0.32844454
v 2.38339758 2.26680589 -0.32537141
v 2.38818097 2.25493908 -0.32855520
v 2.38423848 2.25132489 -0.32966626
v 2.37611294 2.26015472 -0.32955560
v 2.38818097 2.25493908 -0.32855520
v 2.37611294 2.26015472 -0.32955560
v 2.38005543 2.26376891 -0.32844454
v 2.38818097 2.25493908 -0.32855520
v 2.39152312 2.25797629 -0.32548207
v 2.39375639 2.25997424 -0.32091475
v 2.38818097 2.25493908 -0.32855520
v 2.39375639 2.25997424 -0.32091475
v 2.39454055 2.26062846 -0.31554857
v 2.38818097 2.25493908 -0.32855520
v 2.39454055 2.26062846 -0.31554857
v 2.39375639 2.25983977 -0.31020045
v 2.38818097 2.25493908 -0.32855520
v 2.39375639 2.25983977 -0.31020045
v 2.39152312 2.25772810 -0.30568466
v 2.38818097 2.25493908 -0.32855520
v 2.39152312 2.25772810 -0.30568466
v 2.38818097 2.25461483 -0.30268860
v 2.38818097 2.25493908 -0.32855520
v 2.38818097 2.25461483 -0.30268860
v 2.38423848 2.25097418 -0.30166847
v 2.38818097 2.25493908 -0.32855520
v 2.38423848 2.25097418 -0.30166847
v 2.38029599 2.24735999 -0.30277953
v 2.38818097 2.25493908 -0.32855520
v 2.38029599 2.24735999 -0.30277953
v 2.37695384 2.24432278 -0.30585265
v 2.38818097 2.25493908 -0.32855520
v 2.37695384 2.24432278 -0.30585265
v 2.37472057 2.24232483 -0.31041998
v 2.38818097 2.25493908 -0.32855520
v 2.37472057 2.24232483 -0.31041998
v 2.37393641 2.24167061 -0.31578615
v 2.38818097 2.25493908 -0.32855520
v 2.37393641 2.24167061 -0.31578615
v 2.37472057 2.24245930 -0.32113427
v 2.38818097 2.25493908 -0.32855520
v 2.37472057 2.24245930 -0.32113427
v 2.37695384 2.24457097 -0.32565010
v 2.38818097 2.25493908 -0.32855520
v 2.37695384 2.24457097 -0.32565010
v 2.38029599 2.24768424 -0.32864612
v 2.38818097 2.25493908 -0.32855520
v 2.38029599 2.24768424 -0.32864612
v 2.38423848 2.25132489 -0.32966626
v 2.37611294 2.26015472 -0.32955560
v 2.37217045 2.25651383 -0.32853547
v 2.36882830 2.25340056 -0.32553944
v 2.37611294 2.26015472 -0.32955560
v 2.36882830 2.25340056 -0.32553944
v 2.36659503 2.25128889 -0.32102361
v 2.37611294 2.26015472 -0.32955560
v 2.36659503 2.25128889 -0.32102361
v 2.36581087 2.25050020 -0.31567550
v 2.37611294 2.26015472 -0.32955560
v 2.36581087 2.25050020 -0.31567550
v 2.36659503 2.25115466 -0.31030932
v 2.37611294 2.26015472 -0.32955560
v 2.36659503 2.25115466 -0.31030932
v 2.36882830 2.25315261 -0.30574200
v 2.37611294 2.26015472 -0.32955560
v 2.36882830 2.25315261 -0.30574200
v 2.37217045 2.25618982 -0.30266887
v 2.37611294 2.26015472 -0.32955560
v 2.37217045 2.25618982 -0.30266887
v 2.37611294 2.25980377 -0.30155781
v 2.37611294 2.26015472 -0.32955560
v 2.37611294 2.25980377 -0.30155781
v 2.38005543 2.26344466 -0.30257794
v 2.37611294 2.26015472 -0.32955560
v 2.38005543 2.26344466 -0.30257794
v 2.38339758 2.26655793 -0.30557397
v 2.37611294 2.26015472 -0.32955560
v 2.38339758 2.26655793 -0.30557397
v 2.38563085 2.26866961 -0.31008980
v 2.37611294 2.26015472 -0.32955560
v 2.38563085 2.26866961 -0.31008980
v 2.38641500 2.26945829 -0.31543791
v 2.37611294 2.26015472 -0.32955560
v 2.38641500 2.26945829 -0.31543791
v 2.38563085 2.26880383 -0.32080409
v 2.37611294 2.26015472 -0.32955560
v 2.38563085 2.26880383 -0.32080409
v 2.38339758 2.26680589 -0.32537141
v 2.37611294 2.26015472 -0.32955560
v 2.38339758 2.26680589 -0.32537141
v 2.38005543 2.26376891 -0.32844454
vt 0.00000000 0.00000000
vt 0.00000000 0.00000000
vt 0.00000000 0.00000000
vt 0.00000000 0.00000000
vt 0.00000000 0.00000000
vt 0.00000000 0.00000000
vt 0.00000000 0.00000000
vt 0.00000000 0.00000000
vt 0.00000000 0.00000000
vt 0.00000000 0.00000000
vt 0.00000000 0.00000000
vt 0.00000000 0.00000000
vt 0.00000000 0.00000000
vt 0.00000000 0.00000000
vt 0.00000000 0.00000000
vt 0.00000000 0.00000000
vt 0.00000000 0.00000000
vt 0.00000000 0.00000000
vt 0.00000000 0.00000000
vt 0.00000000 0.00000000
vt 0.00000000 0.00000000
vt 0.00000000 0.00000000
vt 0.00000000 0.00000000
vt 0.00000000 0.00000000
vt 0.00000000 0.00000000
vt 0.00000000 0.00000000
vt 0.00000000 0.00000000
vt 0.00000000 0.00000000
vt 0.00000000 0.00000000
vt 0.00000000 0.00000000
vt 0.00000000 0.00000000
vt 0.00000000 0.00000000
vt 0.00000000 0.00000000
vt 0.00000000 0.00000000
vt 0.00000000 0.00000000
vt 0.00000000 0.00000000
vt 0.00000000 0.00000000
vt 0.00000000 0.00000000
vt 0.00000000 0.00000000
vt 0.00000000 0.00000000
vt 0.00000000 0.00000000
vt 0.00000000 0.00000000
vt 0.00000000 0.00000000
vt 0.00000000 0.00000000
vt 0.00000000 0.00000000
vt 0.00000000 0.00000000
vt 0.00000000 0.00000000
vt 0.00000000 0.00000000
vt 0.00000000 0.00000000
vt 0.00000000 0.00000000
vt 0.00000000 0.00000000
vt 0.00000000 0.00000000
vt 0.00000000 0.00000000
vt 0.00000000 0.00000000
vt 0.00000000 0.00000000
vt 0.00000000 0.00000000
vt 0.00000000 0.00000000
vt 0.00000000 0.00000000
vt 0.00000000 0.00000000
vt 0.00000000 0.00000000
vt 0.00000000 0.00000000
vt 0.00000000 0.00000000
vt 0.00000000 0.00000000
vt 0.00000000 0.00000000
vt 0.00000000 0.00000000
vt 0.00000000 0.00000000
vt 0.00000000 0.00000000
vt 0.00000000 0.00000000
vt 0.00000000 0.00000000
vt 0.00000000 0.00000000
vt 0.00000000 0.00000000
vt 0.00000000 0.00000000
vt 0.00000000 0.00000000
vt 0.00000000 0.00000000
vt 0.00000000 0.00000000
vt 0.00000000 0.00000000
vt 0.00000000 0.00000000
vt 0.00000000 0.00000000
vt 0.00000000 0.00000000
vt 0.00000000 0.00000000
vt 0.00000000 0.00000000
vt 0.00000000 0.00000000
vt 0.00000000 0.00000000
vt 0.00000000 0.00000000
vt 0.00000000 0.00000000
vt 0.00000000 0.00000000
vt 0.00000000 0.00000000
vt 0.00000000 0.00000000
vt 0.00000000 0.00000000
vt 0.00000000 0.00000000
vt 0.00000000 0.00000000
vt 0.00000000 0.00000000
vt 0.00000000 0.00000000
vt 0.00000000 0.00000000
vt 0.00000000 0.00000000
vt 0.00000000 0.00000000
vt 0.00000000 0.00000000
vt 0.00000000 0.00000000
vt 0.00000000 0.00000000
vt 0.00000000 0.00000000
vt 0.00000000 0.00000000
vt 0.00000000 0.00000000
vt 0.00000000 0.00000000
vt 0.00000000 0.00000000
vt 0.00000000 0.00000000
vt 0.00000000 0.00000000
vt 0.00000000 0.00000000
vt 0.00000000 0.00000000
vt 0.00000000 0.00000000
vt 0.00000000 0.00000000
vt 0.00000000 0.00000000
vt 0.00000000 0.00000000
vt 0.00000000 0.00000000
vt 0.00000000 0.00000000
vt 0.00000000 0.00000000
vt 0.00000000 0.00000000
vt 0.00000000 0.00000000
vt 0.00000000 0.00000000
vt 0.00000000 0.00000000
vt 0.00000000 0.00000000
vt 0.00000000 0.00000000
vt 0.00000000 0.00000000
vt 0.00000000 0.00000000
vt 0.00000000 0.00000000
vt 0.00000000 0.00000000
vt 0.00000000 0.00000000
vt 0.00000000 0.00000000
vt 0.00000000 0.00000000
vt 0.00000000 0.00000000
vt 0.00000000 0.00000000
vt 0.00000000 0.00000000
vt 0.00000000 0.00000000
vt 0.00000000 0.00000000
vt 0.00000000 0.00000000
vt 0.00000000 0.00000000
vt 0.00000000 0.00000000
vt 0.00000000 0.00000000
vt 0.00000000 0.00000000
vt 0.00000000 0.00000000
vt 0.00000000 0.00000000
vt 0.00000000 0.00000000
vt 0.00000000 0.00000000
vt 0.00000000 0.00000000
vt 0.00000000 0.00000000
vt 0.00000000 0.00000000
vt 0.00000000 0.00000000
vt 0.00000000 0.00000000
vt 0.00000000 0.00000000
vt 0.00000000 0.00000000
vt 0.00000000 0.00000000
vt 0.00000000 0.00000000
vt 0.00000000 0.00000000
vt 0.00000000 0.00000000
vt 0.00000000 0.00000000
vt 0.00000000 0.00000000
vt 0.00000000 0.00000000
vt 0.00000000 0.00000000
vt 0.00000000 0.00000000
vt 0.00000000 0.00000000
vt 0.00000000 0.00000000
vt 0.00000000 0.00000000
vt 0.00000000 0.00000000
vt 0.00000000 0.00000000
vt 0.00000000 0.00000000
vt 0.00000000 0.00000000
vt 0.00000000 0.00000000
vt 0.00000000 0.00000000
vt 0.00000000 0.00000000
vt 0.00000000 0.00000000
vt 0.00000000 0.00000000
vt 0.00000000 0.00000000
vt 0.00000000 0.00000000
vt 0.00000000 0.00000000
vt 0.00000000 0.00000000
vt 0.00000000 0.00000000
vt 0.00000000 0.00000000
vt 0.00000000 0.00000000
vt 0.00000000 0.00000000
vt 0.00000000 0.00000000
vt 0.00000000 0.00000000
f 1/1 2/2 3/3
f 4/4 5/5 6/6
f 7/7 8/8 9/9
f 10/10 11/11 12/12
f 13/13 14/14 15/15
f 16/16 17/17 18/18
f 19/19 20/20 21/21
f 22/22 23/23 24/24
f 25/25 26/26 27/27
f 28/28 29/29 30/30
f 31/31 32/32 33/33
f 34/34 35/35 36/36
f 37/37 38/38 39/39
f 40/40 41/41 42/42
f 43/43 44/44 45/45
f 46/46 47/47 48/48
f 49/49 50/50 51/51
f 52/52 53/53 54/54
f 55/55 56/56 57/57
f 58/58 59/59 60/60
f 61/61 62/62 63/63
f 64/64 65/65 66/66
f 67/67 68/68 69/69
f 70/70 71/71 72/72
f 73/73 74/74 75/75
f 76/76 77/77 78/78
f 79/79 80/80 81/81
f 82/82 83/83 84/84
f 85/85 86/86 87/87
f 88/88 89/89 90/90
f 91/91 92/92 93/93
f 94/94 95/95 96/96
f 97/97 98/98 99/99
f 100/100 101/101 102/102
f 103/103 104/104 105/105
f 106/106 107/107 108/108
f 109/109 110/110 111/111
f 112/112 113/113 114/114
f 115/115 116/116 117/117
f 118/118 119/119 120/120
f 121/121 122/122 123/123
f 124/124 125/125 126/126
f 127/127 128/128 129/129
f 130/130 131/131 132/132
f 133/133 134/134 135/135
f 136/136 137/137 138/138
f 139/139 140/140 141/141
f 142/142 143/143 144/144
f 145/145 146/146 147/147
f 148/148 149/149 150/150
f 151/151 152/152 153/153
f 154/154 155/155 156/156
f 157/157 158/158 159/159
f 160/160 161/161 162/162
f 163/163 164/164 165/165
f 166/166 167/167 168/168
f 169/169 170/170 171/171
f 172/172 173/173 174/174
f 175/175 176/176 177/177
f 178/178 179/179 180/180

