# https://github.com/mikedh/trimesh
mtllib material.mtl
usemtl BrushedStainless
v 2.46970534 3.18245268 -0.85443145
v 2.84256172 3.50697684 -0.85443145
v 3.07888150 3.23546124 -0.86011517
v 2.46970534 3.18245268 -0.85443145
v 3.07888150 3.23546124 -0.86011517
v 2.70602512 2.91093707 -0.86011517
v 2.70944571 2.90700722 -0.53015935
v 3.08230209 3.23153138 -0.53015935
v 2.84598231 3.50304675 -0.52447563
v 2.70944571 2.90700722 -0.53015935
v 2.84598231 3.50304675 -0.52447563
v 2.47312593 3.17852259 -0.52447563
v 2.70602512 2.91093707 -0.86011517
v 3.07888150 3.23546124 -0.86011517
v 3.08230209 3.23153138 -0.53015935
v 2.70602512 2.91093707 -0.86011517
v 3.08230209 3.23153138 -0.53015935
v 2.70944571 2.90700722 -0.53015935
v 3.07888150 3.23546124 -0.86011517
v 2.84256172 3.50697684 -0.85443145
v 2.84598231 3.50304675 -0.52447563
v 3.07888150 3.23546124 -0.86011517
v 2.84598231 3.50304675 -0.52447563
v 3.08230209 3.23153138 -0.53015935
v 2.84256172 3.50697684 -0.85443145
v 2.46970534 3.18245268 -0.85443145
v 2.47312593 3.17852259 -0.52447563
v 2.84256172 3.50697684 -0.85443145
v 2.47312593 3.17852259 -0.52447563
v 2.84598231 3.50304675 -0.52447563
v 2.46970534 3.18245268 -0.85443145
v 2.70602512 2.91093707 -0.86011517
v 2.70944571 2.90700722 -0.53015935
v 2.46970534 3.18245268 -0.85443145
v 2.70944571 2.90700722 -0.53015935
v 2.47312593 3.17852259 -0.52447563
vt 0.00000000 0.00000000
vt 0.00000000 0.00000000
vt 0.00000000 0.00000000
vt 0.00000000 0.00000000
vt 0.00000000 0.00000000
vt 0.00000000 0.00000000
vt 0.00000000 0.00000000
vt 0.00000000 0.00000000
vt 0.00000000 0.00000000
vt 0.00000000 0.00000000
vt 0.00000000 0.00000000
vt 0.00000000 0.00000000
vt 0.00000000 0.00000000
vt 0.00000000 0.00000000
vt 0.00000000 0.00000000
vt 0.00000000 0.00000000
vt 0.00000000 0.00000000
vt 0.00000000 0.00000000
vt 0.00000000 0.00000000
vt 0.00000000 0.00000000
vt 0.00000000 0.00000000
vt 0.00000000 0.00000000
vt 0.00000000 0.00000000
vt 0.00000000 0.00000000
vt 0.00000000 0.00000000
vt 0.00000000 0.00000000
vt 0.00000000 0.00000000
vt 0.00000000 0.00000000
vt 0.00000000 0.00000000
vt 0.00000000 0.00000000
vt 0.00000000 0.00000000
vt 0.00000000 0.00000000
vt 0.00000000 0.00000000
vt 0.00000000 0.00000000
vt 0.00000000 0.00000000
vt 0.00000000 0.00000000
f 1/1 2/2 3/3
f 4/4 5/5 6/6
f 7/7 8/8 9/9
f 10/10 11/11 12/12
f 13/13 14/14 15/15
f 16/16 17/17 18/18
f 19/19 20/20 21/21
f 22/22 23/23 24/24
f 25/25 26/26 27/27
f 28/28 29/29 30/30
f 31/31 32/32 33/33
f 34/34 35/35 36/36

