# https://github.com/mikedh/trimesh
mtllib material.mtl
usemtl DarkPlastic
v 1.24002337 2.20801663 -0.66437775
v 1.25360084 2.21983409 -0.66437775
v 1.57282209 1.85307050 -0.67205530
v 1.24002337 2.20801663 -0.66437775
v 1.57282209 1.85307050 -0.67205530
v 1.55924463 1.84125304 -0.67205530
v 1.56036818 1.83996212 -0.56366682
v 1.57394564 1.85177958 -0.56366682
v 1.25472450 2.21854305 -0.55598927
v 1.56036818 1.83996212 -0.56366682
v 1.25472450 2.21854305 -0.55598927
v 1.24114704 2.20672560 -0.55598927
v 1.55924463 1.84125304 -0.67205530
v 1.57282209 1.85307050 -0.67205530
v 1.57394564 1.85177958 -0.56366682
v 1.55924463 1.84125304 -0.67205530
v 1.57394564 1.85177958 -0.56366682
v 1.56036818 1.83996212 -0.56366682
v 1.57282209 1.85307050 -0.67205530
v 1.25360084 2.21983409 -0.66437775
v 1.25472450 2.21854305 -0.55598927
v 1.57282209 1.85307050 -0.67205530
v 1.25472450 2.21854305 -0.55598927
v 1.57394564 1.85177958 -0.56366682
v 1.25360084 2.21983409 -0.66437775
v 1.24002337 2.20801663 -0.66437775
v 1.24114704 2.20672560 -0.55598927
v 1.25360084 2.21983409 -0.66437775
v 1.24114704 2.20672560 -0.55598927
v 1.25472450 2.21854305 -0.55598927
v 1.24002337 2.20801663 -0.66437775
v 1.55924463 1.84125304 -0.67205530
v 1.56036818 1.83996212 -0.56366682
v 1.24002337 2.20801663 -0.66437775
v 1.56036818 1.83996212 -0.56366682
v 1.24114704 2.20672560 -0.55598927
vt -0.02000000 0.54032069
vt 0.02000000 0.54032069
vt 0.02000000 -0.54032063
vt -0.02000000 0.54032069
vt 0.02000000 -0.54032063
vt -0.02000000 -0.54032063
vt -0.02000000 -0.54032063
vt 0.02000000 -0.54032063
vt 0.02000000 0.54032069
vt -0.02000000 -0.54032063
vt 0.02000000 0.54032069
vt -0.02000000 0.54032069
vt -0.02000000 -0.12044668
vt 0.02000000 -0.12044668
vt 0.02000000 0.12044668
vt -0.02000000 -0.12044668
vt 0.02000000 0.12044668
vt -0.02000000 0.12044668
vt -0.54032069 -0.12044668
vt 0.54032069 -0.12044668
vt 0.54032069 0.12044668
vt -0.54032069 -0.12044668
vt 0.54032069 0.12044668
vt -0.54032069 0.12044668
vt 0.02000000 -0.12044668
vt -0.02000000 -0.12044668
vt -0.02000000 0.12044668
vt 0.02000000 -0.12044668
vt -0.02000000 0.12044668
vt 0.02000000 0.12044668
vt 0.54032069 -0.12044668
vt -0.54032069 -0.12044668
vt -0.54032069 0.12044668
vt 0.54032069 -0.12044668
vt -0.54032069 0.12044668
vt 0.54032069 0.12044668
f 1/1 2/2 3/3
f 4/4 5/5 6/6
f 7/7 8/8 9/9
f 10/10 11/11 12/12
f 13/13 14/14 15/15
f 16/16 17/17 18/18
f 19/19 20/20 21/21
f 22/22 23/23 24/24
f 25/25 26/26 27/27
f 28/28 29/29 30/30
f 31/31 32/32 33/33
f 34/34 35/35 36/36

