# https://github.com/mikedh/trimesh
mtllib material.mtl
usemtl BlueBinPlastic
v 2.12653852 -2.48158145 -1.20489573
v 2.13042355 -2.48615289 -1.20497918
v 1.81222939 -2.75660038 -1.20288730
v 2.12653852 -2.48158145 -1.20489573
v 1.81222939 -2.75660038 -1.20288730
v 1.80834436 -2.75202894 -1.20280385
v 2.17773342 -2.38558197 -0.46518546
v 1.71099961 -2.78227997 -0.46211699
v 1.71488464 -2.78685164 -0.46220049
v 2.17773342 -2.38558197 -0.46518546
v 1.71488464 -2.78685164 -0.46220049
v 2.18161845 -2.39015365 -0.46526897
v 2.12653852 -2.48158145 -1.20489573
v 1.80834436 -2.75202894 -1.20280385
v 1.71099961 -2.78227997 -0.46211699
v 2.12653852 -2.48158145 -1.20489573
v 1.71099961 -2.78227997 -0.46211699
v 2.17773342 -2.38558197 -0.46518546
v 2.13042355 -2.48615289 -1.20497918
v 2.18161845 -2.39015365 -0.46526897
v 1.71488464 -2.78685164 -0.46220049
v 2.13042355 -2.48615289 -1.20497918
v 1.71488464 -2.78685164 -0.46220049
v 1.81222939 -2.75660038 -1.20288730
v 2.12653852 -2.48158145 -1.20489573
v 2.17773342 -2.38558197 -0.46518546
v 2.18161845 -2.39015365 -0.46526897
v 2.12653852 -2.48158145 -1.20489573
v 2.18161845 -2.39015365 -0.46526897
v 2.13042355 -2.48615289 -1.20497918
v 1.80834436 -2.75202894 -1.20280385
v 1.81222939 -2.75660038 -1.20288730
v 1.71488464 -2.78685164 -0.46220049
v 1.80834436 -2.75202894 -1.20280385
v 1.71488464 -2.78685164 -0.46220049
v 1.71099961 -2.78227997 -0.46211699
vt 0.23464605 -0.46400523
vt 0.22131273 -0.46400523
vt 0.22131273 0.46400523
vt 0.23464605 -0.46400523
vt 0.22131273 0.46400523
vt 0.23464605 0.46400523
vt 0.34640419 -0.68061280
vt 0.34640419 0.68061274
vt 0.33307084 0.68061274
vt 0.34640419 -0.68061280
vt 0.33307084 0.68061274
vt 0.33307084 -0.68061280
vt -0.46400523 0.01333332
vt 0.46400523 0.01333332
vt 0.68061274 1.65684330
vt -0.46400523 0.01333332
vt 0.68061274 1.65684330
vt -0.68061274 1.65684330
vt -0.46400523 0.01333332
vt -0.68061274 1.65684330
vt 0.68061274 1.65684330
vt -0.46400523 0.01333332
vt 0.68061274 1.65684330
vt 0.46400523 0.01333332
vt 0.23464605 0.01333332
vt 0.34640419 1.65684330
vt 0.33307084 1.65684330
vt 0.23464605 0.01333332
vt 0.33307084 1.65684330
vt 0.22131273 0.01333332
vt 0.23464605 0.01333332
vt 0.22131273 0.01333332
vt 0.33307084 1.65684330
vt 0.23464605 0.01333332
vt 0.33307084 1.65684330
vt 0.34640419 1.65684330
f 1/1 2/2 3/3
f 4/4 5/5 6/6
f 7/7 8/8 9/9
f 10/10 11/11 12/12
f 13/13 14/14 15/15
f 16/16 17/17 18/18
f 19/19 20/20 21/21
f 22/22 23/23 24/24
f 25/25 26/26 27/27
f 28/28 29/29 30/30
f 31/31 32/32 33/33
f 34/34 35/35 36/36

