# https://github.com/mikedh/trimesh
mtllib material.mtl
usemtl WhiteSolidSurface
v 0.27588740 1.45391667 -0.35729387
v 1.52173173 2.53860950 -0.37369069
v 1.87664604 2.13083696 -0.35857570
v 0.27588740 1.45391667 -0.35729387
v 1.87664604 2.13083696 -0.35857570
v 0.63080162 1.04614413 -0.34217888
v 0.63116443 1.04572737 -0.30718324
v 1.87700880 2.13041997 -0.32358006
v 1.52209449 2.53819251 -0.33869505
v 0.63116443 1.04572737 -0.30718324
v 1.52209449 2.53819251 -0.33869505
v 0.27625018 1.45349991 -0.32229823
v 0.63080162 1.04614413 -0.34217888
v 1.87664604 2.13083696 -0.35857570
v 1.87700880 2.13041997 -0.32358006
v 0.63080162 1.04614413 -0.34217888
v 1.87700880 2.13041997 -0.32358006
v 0.63116443 1.04572737 -0.30718324
v 1.87664604 2.13083696 -0.35857570
v 1.52173173 2.53860950 -0.37369069
v 1.52209449 2.53819251 -0.33869505
v 1.87664604 2.13083696 -0.35857570
v 1.52209449 2.53819251 -0.33869505
v 1.87700880 2.13041997 -0.32358006
v 1.52173173 2.53860950 -0.37369069
v 0.27588740 1.45391667 -0.35729387
v 0.27625018 1.45349991 -0.32229823
v 1.52173173 2.53860950 -0.37369069
v 0.27625018 1.45349991 -0.32229823
v 1.52209449 2.53819251 -0.33869505
v 0.27588740 1.45391667 -0.35729387
v 0.63080162 1.04614413 -0.34217888
v 0.63116443 1.04572737 -0.30718324
v 0.27588740 1.45391667 -0.35729387
v 0.63116443 1.04572737 -0.30718324
v 0.27625018 1.45349991 -0.32229823
vt 0.00000000 0.00000000
vt 0.00000000 0.00000000
vt 0.00000000 0.00000000
vt 0.00000000 0.00000000
vt 0.00000000 0.00000000
vt 0.00000000 0.00000000
vt 0.00000000 0.00000000
vt 0.00000000 0.00000000
vt 0.00000000 0.00000000
vt 0.00000000 0.00000000
vt 0.00000000 0.00000000
vt 0.00000000 0.00000000
vt 0.00000000 0.00000000
vt 0.00000000 0.00000000
vt 0.00000000 0.00000000
vt 0.00000000 0.00000000
vt 0.00000000 0.00000000
vt 0.00000000 0.00000000
vt 0.00000000 0.00000000
vt 0.00000000 0.00000000
vt 0.00000000 0.00000000
vt 0.00000000 0.00000000
vt 0.00000000 0.00000000
vt 0.00000000 0.00000000
vt 0.00000000 0.00000000
vt 0.00000000 0.00000000
vt 0.00000000 0.00000000
vt 0.00000000 0.00000000
vt 0.00000000 0.00000000
vt 0.00000000 0.00000000
vt 0.00000000 0.00000000
vt 0.00000000 0.00000000
vt 0.00000000 0.00000000
vt 0.00000000 0.00000000
vt 0.00000000 0.00000000
vt 0.00000000 0.00000000
f 1/1 2/2 3/3
f 4/4 5/5 6/6
f 7/7 8/8 9/9
f 10/10 11/11 12/12
f 13/13 14/14 15/15
f 16/16 17/17 18/18
f 19/19 20/20 21/21
f 22/22 23/23 24/24
f 25/25 26/26 27/27
f 28/28 29/29 30/30
f 31/31 32/32 33/33
f 34/34 35/35 36/36

