# https://github.com/mikedh/trimesh
mtllib material.mtl
usemtl WarmWhitePaint
v 5.92698288 -2.02361488 -1.30631149
v 5.95170450 -2.04839087 -1.30681133
v 5.91277122 -2.08723903 -1.30659699
v 5.92698288 -2.02361488 -1.30631149
v 5.91277122 -2.08723903 -1.30659699
v 5.88804960 -2.06246305 -1.30609715
v 5.88804960 -2.06246305 1.62726676
v 5.91277122 -2.08723903 1.62726676
v 5.95170450 -2.04839087 1.62726676
v 5.88804960 -2.06246305 1.62726676
v 5.95170450 -2.04839087 1.62726676
v 5.92698288 -2.02361488 1.62726676
v 5.88804960 -2.06246305 -1.30609715
v 5.91277122 -2.08723903 -1.30659699
v 5.91277122 -2.08723903 1.62726676
v 5.88804960 -2.06246305 -1.30609715
v 5.91277122 -2.08723903 1.62726676
v 5.88804960 -2.06246305 1.62726676
v 5.91277122 -2.08723903 -1.30659699
v 5.95170450 -2.04839087 -1.30681133
v 5.95170450 -2.04839087 1.62726676
v 5.91277122 -2.08723903 -1.30659699
v 5.95170450 -2.04839087 1.62726676
v 5.91277122 -2.08723903 1.62726676
v 5.95170450 -2.04839087 -1.30681133
v 5.92698288 -2.02361488 -1.30631149
v 5.92698288 -2.02361488 1.62726676
v 5.95170450 -2.04839087 -1.30681133
v 5.92698288 -2.02361488 1.62726676
v 5.95170450 -2.04839087 1.62726676
v 5.92698288 -2.02361488 -1.30631149
v 5.88804960 -2.06246305 -1.30609715
v 5.88804960 -2.06246305 1.62726676
v 5.92698288 -2.02361488 -1.30631149
v 5.88804960 -2.06246305 1.62726676
v 5.92698288 -2.02361488 1.62726676
vt -0.03888889 0.06111109
vt 0.03888889 0.06111109
vt 0.03888889 -0.06111109
vt -0.03888889 0.06111109
vt 0.03888889 -0.06111109
vt -0.03888889 -0.06111109
vt -0.03888889 -0.06111109
vt 0.03888889 -0.06111109
vt 0.03888889 0.06111109
vt -0.03888889 -0.06111109
vt 0.03888889 0.06111109
vt -0.03888889 0.06111109
vt -0.03888889 -3.29153061
vt 0.03888889 -3.29264164
vt 0.03888889 3.22705579
vt -0.03888889 -3.29153061
vt 0.03888889 3.22705579
vt -0.03888889 3.22705579
vt -0.06111111 -3.29264164
vt 0.06111111 -3.29311752
vt 0.06111111 3.22705579
vt -0.06111111 -3.29264164
vt 0.06111111 3.22705579
vt -0.06111111 3.22705579
vt 0.03888889 -3.29311752
vt -0.03888889 -3.29200697
vt -0.03888889 3.22705579
vt 0.03888889 -3.29311752
vt -0.03888889 3.22705579
vt 0.03888889 3.22705579
vt 0.06111111 -3.29200697
vt -0.06111111 -3.29153061
vt -0.06111111 3.22705579
vt 0.06111111 -3.29200697
vt -0.06111111 3.22705579
vt 0.06111111 3.22705579
f 1/1 2/2 3/3
f 4/4 5/5 6/6
f 7/7 8/8 9/9
f 10/10 11/11 12/12
f 13/13 14/14 15/15
f 16/16 17/17 18/18
f 19/19 20/20 21/21
f 22/22 23/23 24/24
f 25/25 26/26 27/27
f 28/28 29/29 30/30
f 31/31 32/32 33/33
f 34/34 35/35 36/36

