# https://github.com/mikedh/trimesh
mtllib material.mtl
usemtl PaleWood
v 2.32868123 3.30412865 -1.12955499
v 4.06733847 4.81740952 -1.12955499
v 4.44545031 4.38298464 -1.13864887
v 2.32868123 3.30412865 -1.12955499
v 4.44545031 4.38298464 -1.13864887
v 2.70679283 2.86970401 -1.13864887
v 2.70697951 2.86948967 -1.12065113
v 4.44563675 4.38277006 -1.12065113
v 4.06752491 4.81719494 -1.11155713
v 2.70697951 2.86948967 -1.12065113
v 4.06752491 4.81719494 -1.11155713
v 2.32886767 3.30391431 -1.11155713
v 2.70679283 2.86970401 -1.13864887
v 4.44545031 4.38298464 -1.13864887
v 4.44563675 4.38277006 -1.12065113
v 2.70679283 2.86970401 -1.13864887
v 4.44563675 4.38277006 -1.12065113
v 2.70697951 2.86948967 -1.12065113
v 4.44545031 4.38298464 -1.13864887
v 4.06733847 4.81740952 -1.12955499
v 4.06752491 4.81719494 -1.11155713
v 4.44545031 4.38298464 -1.13864887
v 4.06752491 4.81719494 -1.11155713
v 4.44563675 4.38277006 -1.12065113
v 4.06733847 4.81740952 -1.12955499
v 2.32868123 3.30412865 -1.12955499
v 2.32886767 3.30391431 -1.11155713
v 4.06733847 4.81740952 -1.12955499
v 2.32886767 3.30391431 -1.11155713
v 4.06752491 4.81719494 -1.11155713
v 2.32868123 3.30412865 -1.12955499
v 2.70679283 2.86970401 -1.13864887
v 2.70697951 2.86948967 -1.12065113
v 2.32868123 3.30412865 -1.12955499
v 2.70697951 2.86948967 -1.12065113
v 2.32886767 3.30391431 -1.11155713
vt -2.56109238 0.63999999
vt 2.56109238 0.63999999
vt 2.56109238 -0.63999999
vt -2.56109238 0.63999999
vt 2.56109238 -0.63999999
vt -2.56109238 -0.63999999
vt -2.56109238 -0.63999999
vt 2.56109238 -0.63999999
vt 2.56109238 0.63999999
vt -2.56109238 -0.63999999
vt 2.56109238 0.63999999
vt -2.56109238 0.63999999
vt -2.56109238 -0.01999998
vt 2.56109238 -0.01999998
vt 2.56109238 0.01999998
vt -2.56109238 -0.01999998
vt 2.56109238 0.01999998
vt -2.56109238 0.01999998
vt -0.63999999 -0.01999998
vt 0.63999999 -0.01999998
vt 0.63999999 0.01999998
vt -0.63999999 -0.01999998
vt 0.63999999 0.01999998
vt -0.63999999 0.01999998
vt 2.56109238 -0.01999998
vt -2.56109238 -0.01999998
vt -2.56109238 0.01999998
vt 2.56109238 -0.01999998
vt -2.56109238 0.01999998
vt 2.56109238 0.01999998
vt 0.63999999 -0.01999998
vt -0.63999999 -0.01999998
vt -0.63999999 0.01999998
vt 0.63999999 -0.01999998
vt -0.63999999 0.01999998
vt 0.63999999 0.01999998
f 1/1 2/2 3/3
f 4/4 5/5 6/6
f 7/7 8/8 9/9
f 10/10 11/11 12/12
f 13/13 14/14 15/15
f 16/16 17/17 18/18
f 19/19 20/20 21/21
f 22/22 23/23 24/24
f 25/25 26/26 27/27
f 28/28 29/29 30/30
f 31/31 32/32 33/33
f 34/34 35/35 36/36

