# https://github.com/mikedh/trimesh
mtllib material.mtl
usemtl BrushedStainless
v 3.04688168 3.18860173 -0.64881718
v 3.05140758 3.19254088 -0.64881718
v 3.05272055 3.19103241 -0.64884877
v 3.04688168 3.18860173 -0.64881718
v 3.05272055 3.19103241 -0.64884877
v 3.04819465 3.18709326 -0.64884877
v 3.04825687 3.18702173 -0.64284950
v 3.05278277 3.19096088 -0.64284950
v 3.05146980 3.19246936 -0.64281791
v 3.04825687 3.18702173 -0.64284950
v 3.05146980 3.19246936 -0.64281791
v 3.04694390 3.18853021 -0.64281791
v 3.04819465 3.18709326 -0.64884877
v 3.05272055 3.19103241 -0.64884877
v 3.05278277 3.19096088 -0.64284950
v 3.04819465 3.18709326 -0.64884877
v 3.05278277 3.19096088 -0.64284950
v 3.04825687 3.18702173 -0.64284950
v 3.05272055 3.19103241 -0.64884877
v 3.05140758 3.19254088 -0.64881718
v 3.05146980 3.19246936 -0.64281791
v 3.05272055 3.19103241 -0.64884877
v 3.05146980 3.19246936 -0.64281791
v 3.05278277 3.19096088 -0.64284950
v 3.05140758 3.19254088 -0.64881718
v 3.04688168 3.18860173 -0.64881718
v 3.04694390 3.18853021 -0.64281791
v 3.05140758 3.19254088 -0.64881718
v 3.04694390 3.18853021 -0.64281791
v 3.05146980 3.19246936 -0.64281791
v 3.04688168 3.18860173 -0.64881718
v 3.04819465 3.18709326 -0.64884877
v 3.04825687 3.18702173 -0.64284950
v 3.04688168 3.18860173 -0.64881718
v 3.04825687 3.18702173 -0.64284950
v 3.04694390 3.18853021 -0.64281791
vt 0.00000000 0.00000000
vt 0.00000000 0.00000000
vt 0.00000000 0.00000000
vt 0.00000000 0.00000000
vt 0.00000000 0.00000000
vt 0.00000000 0.00000000
vt 0.00000000 0.00000000
vt 0.00000000 0.00000000
vt 0.00000000 0.00000000
vt 0.00000000 0.00000000
vt 0.00000000 0.00000000
vt 0.00000000 0.00000000
vt 0.00000000 0.00000000
vt 0.00000000 0.00000000
vt 0.00000000 0.00000000
vt 0.00000000 0.00000000
vt 0.00000000 0.00000000
vt 0.00000000 0.00000000
vt 0.00000000 0.00000000
vt 0.00000000 0.00000000
vt 0.00000000 0.00000000
vt 0.00000000 0.00000000
vt 0.00000000 0.00000000
vt 0.00000000 0.00000000
vt 0.00000000 0.00000000
vt 0.00000000 0.00000000
vt 0.00000000 0.00000000
vt 0.00000000 0.00000000
vt 0.00000000 0.00000000
vt 0.00000000 0.00000000
vt 0.00000000 0.00000000
vt 0.00000000 0.00000000
vt 0.00000000 0.00000000
vt 0.00000000 0.00000000
vt 0.00000000 0.00000000
vt 0.00000000 0.00000000
f 1/1 2/2 3/3
f 4/4 5/5 6/6
f 7/7 8/8 9/9
f 10/10 11/11 12/12
f 13/13 14/14 15/15
f 16/16 17/17 18/18
f 19/19 20/20 21/21
f 22/22 23/23 24/24
f 25/25 26/26 27/27
f 28/28 29/29 30/30
f 31/31 32/32 33/33
f 34/34 35/35 36/36

