# https://github.com/mikedh/trimesh
mtllib material.mtl
usemtl photo_007
v -0.00128256 1.21386695 0.56531733
v 0.85730606 1.94912529 0.56531733
v 0.88332295 1.91874444 0.56566882
v -0.00128256 1.21386695 0.56531733
v 0.88332295 1.91874444 0.56566882
v 0.02473432 1.18348610 0.56566882
v 0.02086249 1.18800735 1.24302506
v 0.87945110 1.92326570 1.24302506
v 0.85343426 1.95364654 1.24267352
v 0.02086249 1.18800735 1.24302506
v 0.85343426 1.95364654 1.24267352
v -0.00515439 1.21838820 1.24267352
v 0.02473432 1.18348610 0.56566882
v 0.88332295 1.91874444 0.56566882
v 0.87945110 1.92326570 1.24302506
v 0.02473432 1.18348610 0.56566882
v 0.87945110 1.92326570 1.24302506
v 0.02086249 1.18800735 1.24302506
v 0.88332295 1.91874444 0.56566882
v 0.85730606 1.94912529 0.56531733
v 0.85343426 1.95364654 1.24267352
v 0.88332295 1.91874444 0.56566882
v 0.85343426 1.95364654 1.24267352
v 0.87945110 1.92326570 1.24302506
v 0.85730606 1.94912529 0.56531733
v -0.00128256 1.21386695 0.56531733
v -0.00515439 1.21838820 1.24267352
v 0.85730606 1.94912529 0.56531733
v -0.00515439 1.21838820 1.24267352
v 0.85343426 1.95364654 1.24267352
v -0.00128256 1.21386695 0.56531733
v 0.02473432 1.18348610 0.56566882
v 0.02086249 1.18800735 1.24302506
v -0.00128256 1.21386695 0.56531733
v 0.02086249 1.18800735 1.24302506
v -0.00515439 1.21838820 1.24267352
vt 0.00536616 0.99195075
vt 0.32796717 0.99195075
vt 0.32796717 0.50804925
vt 0.00536616 0.99195075
vt 0.32796717 0.50804925
vt 0.00536616 0.50804925
vt 0.33869949 0.99195075
vt 0.66130048 0.99195075
vt 0.66130048 0.50804925
vt 0.33869949 0.99195075
vt 0.66130048 0.50804925
vt 0.33869949 0.50804925
vt 0.67203283 0.99195075
vt 0.99463385 0.99195075
vt 0.99463385 0.50804925
vt 0.67203283 0.99195075
vt 0.99463385 0.50804925
vt 0.67203283 0.50804925
vt 0.00536616 0.49195075
vt 0.32796717 0.49195075
vt 0.32796717 0.00804925
vt 0.00536616 0.49195075
vt 0.32796717 0.00804925
vt 0.00536616 0.00804925
vt 0.33869949 0.49195075
vt 0.66130048 0.49195075
vt 0.66130048 0.00804925
vt 0.33869949 0.49195075
vt 0.66130048 0.00804925
vt 0.33869949 0.00804925
vt 0.67203283 0.49195075
vt 0.99463385 0.49195075
vt 0.99463385 0.00804925
vt 0.67203283 0.49195075
vt 0.99463385 0.00804925
vt 0.67203283 0.00804925
f 1/1 2/2 3/3
f 4/4 5/5 6/6
f 7/7 8/8 9/9
f 10/10 11/11 12/12
f 13/13 14/14 15/15
f 16/16 17/17 18/18
f 19/19 20/20 21/21
f 22/22 23/23 24/24
f 25/25 26/26 27/27
f 28/28 29/29 30/30
f 31/31 32/32 33/33
f 34/34 35/35 36/36

