# https://github.com/mikedh/trimesh
mtllib material.mtl
usemtl BlueBinPlastic
v 1.94508600 -2.91293454 -1.20574307
v 1.94120097 -2.90836310 -1.20565951
v 2.25939512 -2.63791561 -1.20775151
v 1.94508600 -2.91293454 -1.20574307
v 2.25939512 -2.63791561 -1.20775151
v 2.26328015 -2.64248729 -1.20783496
v 2.37571788 -2.61855292 -0.46944112
v 1.90898418 -3.01525116 -0.46637264
v 1.91286922 -3.01982260 -0.46645615
v 2.37571788 -2.61855292 -0.46944112
v 1.91286922 -3.01982260 -0.46645615
v 2.37960315 -2.62312460 -0.46952465
v 2.37960315 -2.62312460 -0.46952465
v 1.91286922 -3.01982260 -0.46645615
v 1.94508600 -2.91293454 -1.20574307
v 2.37960315 -2.62312460 -0.46952465
v 1.94508600 -2.91293454 -1.20574307
v 2.26328015 -2.64248729 -1.20783496
v 1.94120097 -2.90836310 -1.20565951
v 1.90898418 -3.01525116 -0.46637264
v 2.37571788 -2.61855292 -0.46944112
v 1.94120097 -2.90836310 -1.20565951
v 2.37571788 -2.61855292 -0.46944112
v 2.25939512 -2.63791561 -1.20775151
v 2.25939512 -2.63791561 -1.20775151
v 2.37571788 -2.61855292 -0.46944112
v 2.37960315 -2.62312460 -0.46952465
v 2.25939512 -2.63791561 -1.20775151
v 2.37960315 -2.62312460 -0.46952465
v 2.26328015 -2.64248729 -1.20783496
v 1.91286922 -3.01982260 -0.46645615
v 1.90898418 -3.01525116 -0.46637264
v 1.94120097 -2.90836310 -1.20565951
v 1.91286922 -3.01982260 -0.46645615
v 1.94120097 -2.90836310 -1.20565951
v 1.94508600 -2.91293454 -1.20574307
vt -0.23464605 0.46400523
vt -0.22131273 0.46400523
vt -0.22131273 -0.46400523
vt -0.23464605 0.46400523
vt -0.22131273 -0.46400523
vt -0.23464605 -0.46400523
vt -0.33307084 -0.68061280
vt -0.33307084 0.68061274
vt -0.34640419 0.68061274
vt -0.33307084 -0.68061280
vt -0.34640419 0.68061274
vt -0.34640419 -0.68061280
vt -0.68061274 1.65684330
vt 0.68061274 1.65684330
vt 0.46400523 0.01333332
vt -0.68061274 1.65684330
vt 0.46400523 0.01333332
vt -0.46400523 0.01333332
vt 0.46400523 0.01333332
vt 0.68061274 1.65684330
vt -0.68061274 1.65684330
vt 0.46400523 0.01333332
vt -0.68061274 1.65684330
vt -0.46400523 0.01333332
vt -0.22131273 0.01333332
vt -0.33307084 1.65684330
vt -0.34640419 1.65684330
vt -0.22131273 0.01333332
vt -0.34640419 1.65684330
vt -0.23464605 0.01333332
vt -0.34640419 1.65684330
vt -0.33307084 1.65684330
vt -0.22131273 0.01333332
vt -0.34640419 1.65684330
vt -0.22131273 0.01333332
vt -0.23464605 0.01333332
f 1/1 2/2 3/3
f 4/4 5/5 6/6
f 7/7 8/8 9/9
f 10/10 11/11 12/12
f 13/13 14/14 15/15
f 16/16 17/17 18/18
f 19/19 20/20 21/21
f 22/22 23/23 24/24
f 25/25 26/26 27/27
f 28/28 29/29 30/30
f 31/31 32/32 33/33
f 34/34 35/35 36/36

