# https://github.com/mikedh/trimesh
mtllib material.mtl
usemtl PaleWood
v 4.86475086 -0.02553448 -1.20650160
v 3.40734100 1.67832494 -1.17760432
v 3.42101717 1.69002640 -1.17779946
v 4.86475086 -0.02553448 -1.20650160
v 3.42101717 1.69002640 -1.17779946
v 4.87842703 -0.01383309 -1.20669675
v 4.89272976 -0.01619570 -0.34603858
v 3.43532014 1.68766379 -0.31714121
v 3.42164397 1.67596233 -0.31694606
v 4.89272976 -0.01619570 -0.34603858
v 3.42164397 1.67596233 -0.31694606
v 4.87905359 -0.02789708 -0.34584340
v 4.87842703 -0.01383309 -1.20669675
v 3.42101717 1.69002640 -1.17779946
v 3.43532014 1.68766379 -0.31714121
v 4.87842703 -0.01383309 -1.20669675
v 3.43532014 1.68766379 -0.31714121
v 4.89272976 -0.01619570 -0.34603858
v 3.42101717 1.69002640 -1.17779946
v 3.40734100 1.67832494 -1.17760432
v 3.42164397 1.67596233 -0.31694606
v 3.42101717 1.69002640 -1.17779946
v 3.42164397 1.67596233 -0.31694606
v 3.43532014 1.68766379 -0.31714121
v 3.40734100 1.67832494 -1.17760432
v 4.86475086 -0.02553448 -1.20650160
v 4.87905359 -0.02789708 -0.34584340
v 3.40734100 1.67832494 -1.17760432
v 4.87905359 -0.02789708 -0.34584340
v 3.42164397 1.67596233 -0.31694606
v 4.86475086 -0.02553448 -1.20650160
v 4.87842703 -0.01383309 -1.20669675
v 4.89272976 -0.01619570 -0.34603858
v 4.86475086 -0.02553448 -1.20650160
v 4.89272976 -0.01619570 -0.34603858
v 4.87905359 -0.02789708 -0.34584340
vt -2.49147081 0.01999998
vt 2.49147081 0.01999998
vt 2.49147081 -0.01999998
vt -2.49147081 0.01999998
vt 2.49147081 -0.01999998
vt -2.49147081 -0.01999998
vt -2.49147081 -0.01999998
vt 2.49147081 -0.01999998
vt 2.49147081 0.01999998
vt -2.49147081 -0.01999998
vt 2.49147081 0.01999998
vt -2.49147081 0.01999998
vt -2.49147081 -0.95642257
vt 2.49147081 -0.95642257
vt 2.49147081 0.95642257
vt -2.49147081 -0.95642257
vt 2.49147081 0.95642257
vt -2.49147081 0.95642257
vt -0.02000000 -0.95642257
vt 0.02000000 -0.95642257
vt 0.02000000 0.95642257
vt -0.02000000 -0.95642257
vt 0.02000000 0.95642257
vt -0.02000000 0.95642257
vt 2.49147081 -0.95642257
vt -2.49147081 -0.95642257
vt -2.49147081 0.95642257
vt 2.49147081 -0.95642257
vt -2.49147081 0.95642257
vt 2.49147081 0.95642257
vt 0.02000000 -0.95642257
vt -0.02000000 -0.95642257
vt -0.02000000 0.95642257
vt 0.02000000 -0.95642257
vt -0.02000000 0.95642257
vt 0.02000000 0.95642257
f 1/1 2/2 3/3
f 4/4 5/5 6/6
f 7/7 8/8 9/9
f 10/10 11/11 12/12
f 13/13 14/14 15/15
f 16/16 17/17 18/18
f 19/19 20/20 21/21
f 22/22 23/23 24/24
f 25/25 26/26 27/27
f 28/28 29/29 30/30
f 31/31 32/32 33/33
f 34/34 35/35 36/36

