# https://github.com/mikedh/trimesh
mtllib material.mtl
usemtl PalePlastic
v 6.77181768 1.69085169 -0.48924249
v 6.77966404 1.68177223 -0.48924249
v 6.77890730 1.68111849 -0.48926032
v 6.77181768 1.69085169 -0.48924249
v 6.77890730 1.68111849 -0.48926032
v 6.77106142 1.69019794 -0.48926032
v 6.77100706 1.69015133 -0.48526093
v 6.77885342 1.68107188 -0.48526093
v 6.77961016 1.68172562 -0.48524311
v 6.77100706 1.69015133 -0.48526093
v 6.77961016 1.68172562 -0.48524311
v 6.77176380 1.69080508 -0.48524311
v 6.77106142 1.69019794 -0.48926032
v 6.77890730 1.68111849 -0.48926032
v 6.77885342 1.68107188 -0.48526093
v 6.77106142 1.69019794 -0.48926032
v 6.77885342 1.68107188 -0.48526093
v 6.77100706 1.69015133 -0.48526093
v 6.77890730 1.68111849 -0.48926032
v 6.77966404 1.68177223 -0.48924249
v 6.77961016 1.68172562 -0.48524311
v 6.77890730 1.68111849 -0.48926032
v 6.77961016 1.68172562 -0.48524311
v 6.77885342 1.68107188 -0.48526093
v 6.77966404 1.68177223 -0.48924249
v 6.77181768 1.69085169 -0.48924249
v 6.77176380 1.69080508 -0.48524311
v 6.77966404 1.68177223 -0.48924249
v 6.77176380 1.69080508 -0.48524311
v 6.77961016 1.68172562 -0.48524311
v 6.77181768 1.69085169 -0.48924249
v 6.77106142 1.69019794 -0.48926032
v 6.77100706 1.69015133 -0.48526093
v 6.77181768 1.69085169 -0.48924249
v 6.77100706 1.69015133 -0.48526093
v 6.77176380 1.69080508 -0.48524311
vt 0.00000000 0.00000000
vt 0.00000000 0.00000000
vt 0.00000000 0.00000000
vt 0.00000000 0.00000000
vt 0.00000000 0.00000000
vt 0.00000000 0.00000000
vt 0.00000000 0.00000000
vt 0.00000000 0.00000000
vt 0.00000000 0.00000000
vt 0.00000000 0.00000000
vt 0.00000000 0.00000000
vt 0.00000000 0.00000000
vt 0.00000000 0.00000000
vt 0.00000000 0.00000000
vt 0.00000000 0.00000000
vt 0.00000000 0.00000000
vt 0.00000000 0.00000000
vt 0.00000000 0.00000000
vt 0.00000000 0.00000000
vt 0.00000000 0.00000000
vt 0.00000000 0.00000000
vt 0.00000000 0.00000000
vt 0.00000000 0.00000000
vt 0.00000000 0.00000000
vt 0.00000000 0.00000000
vt 0.00000000 0.00000000
vt 0.00000000 0.00000000
vt 0.00000000 0.00000000
vt 0.00000000 0.00000000
vt 0.00000000 0.00000000
vt 0.00000000 0.00000000
vt 0.00000000 0.00000000
vt 0.00000000 0.00000000
vt 0.00000000 0.00000000
vt 0.00000000 0.00000000
vt 0.00000000 0.00000000
f 1/1 2/2 3/3
f 4/4 5/5 6/6
f 7/7 8/8 9/9
f 10/10 11/11 12/12
f 13/13 14/14 15/15
f 16/16 17/17 18/18
f 19/19 20/20 21/21
f 22/22 23/23 24/24
f 25/25 26/26 27/27
f 28/28 29/29 30/30
f 31/31 32/32 33/33
f 34/34 35/35 36/36

