# https://github.com/mikedh/trimesh
mtllib material.mtl
usemtl DarkRecess
v 0.69210327 1.58560526 -0.19342877
v 0.69358605 1.58694732 -0.19344969
v 0.71103209 1.56768298 -0.19272824
v 0.69210327 1.58560526 -0.19342877
v 0.71103209 1.56768298 -0.19272824
v 0.70954937 1.56634092 -0.19270732
v 0.70951676 1.56642377 -0.18970864
v 0.71099949 1.56776571 -0.18972956
v 0.69355345 1.58703005 -0.19045101
v 0.70951676 1.56642377 -0.18970864
v 0.69355345 1.58703005 -0.19045101
v 0.69207066 1.58568811 -0.19043009
v 0.70954937 1.56634092 -0.19270732
v 0.71103209 1.56768298 -0.19272824
v 0.71099949 1.56776571 -0.18972956
v 0.70954937 1.56634092 -0.19270732
v 0.71099949 1.56776571 -0.18972956
v 0.70951676 1.56642377 -0.18970864
v 0.71103209 1.56768298 -0.19272824
v 0.69358605 1.58694732 -0.19344969
v 0.69355345 1.58703005 -0.19045101
v 0.71103209 1.56768298 -0.19272824
v 0.69355345 1.58703005 -0.19045101
v 0.71099949 1.56776571 -0.18972956
v 0.69358605 1.58694732 -0.19344969
v 0.69210327 1.58560526 -0.19342877
v 0.69207066 1.58568811 -0.19043009
v 0.69358605 1.58694732 -0.19344969
v 0.69207066 1.58568811 -0.19043009
v 0.69355345 1.58703005 -0.19045101
v 0.69210327 1.58560526 -0.19342877
v 0.70954937 1.56634092 -0.19270732
v 0.70951676 1.56642377 -0.18970864
v 0.69210327 1.58560526 -0.19342877
v 0.70951676 1.56642377 -0.18970864
v 0.69207066 1.58568811 -0.19043009
vt 0.00000000 0.00000000
vt 0.00000000 0.00000000
vt 0.00000000 0.00000000
vt 0.00000000 0.00000000
vt 0.00000000 0.00000000
vt 0.00000000 0.00000000
vt 0.00000000 0.00000000
vt 0.00000000 0.00000000
vt 0.00000000 0.00000000
vt 0.00000000 0.00000000
vt 0.00000000 0.00000000
vt 0.00000000 0.00000000
vt 0.00000000 0.00000000
vt 0.00000000 0.00000000
vt 0.00000000 0.00000000
vt 0.00000000 0.00000000
vt 0.00000000 0.00000000
vt 0.00000000 0.00000000
vt 0.00000000 0.00000000
vt 0.00000000 0.00000000
vt 0.00000000 0.00000000
vt 0.00000000 0.00000000
vt 0.00000000 0.00000000
vt 0.00000000 0.00000000
vt 0.00000000 0.00000000
vt 0.00000000 0.00000000
vt 0.00000000 0.00000000
vt 0.00000000 0.00000000
vt 0.00000000 0.00000000
vt 0.00000000 0.00000000
vt 0.00000000 0.00000000
vt 0.00000000 0.00000000
vt 0.00000000 0.00000000
vt 0.00000000 0.00000000
vt 0.00000000 0.00000000
vt 0.00000000 0.00000000
f 1/1 2/2 3/3
f 4/4 5/5 6/6
f 7/7 8/8 9/9
f 10/10 11/11 12/12
f 13/13 14/14 15/15
f 16/16 17/17 18/18
f 19/19 20/20 21/21
f 22/22 23/23 24/24
f 25/25 26/26 27/27
f 28/28 29/29 30/30
f 31/31 32/32 33/33
f 34/34 35/35 36/36

