# https://github.com/mikedh/trimesh
mtllib material.mtl
usemtl BrushedStainless
v 7.99181747 1.07250226 -0.42263898
v 7.99414873 1.07479942 -0.42275551
v 7.95106459 1.07077849 -0.58105850
v 7.99181747 1.07250226 -0.42263898
v 7.95106459 1.07077849 -0.58105850
v 7.94733477 1.06710315 -0.58087206
v 7.99414873 1.07479942 -0.42275551
v 7.99616003 1.07738078 -0.42286518
v 7.95428276 1.07490885 -0.58123398
v 7.99414873 1.07479942 -0.42275551
v 7.95428276 1.07490885 -0.58123398
v 7.95106459 1.07077849 -0.58105850
v 7.99616003 1.07738078 -0.42286518
v 7.99781752 1.08020234 -0.42296615
v 7.95693445 1.07942331 -0.58139557
v 7.99616003 1.07738078 -0.42286518
v 7.95693445 1.07942331 -0.58139557
v 7.95428276 1.07490885 -0.58123398
v 7.99781752 1.08020234 -0.42296615
v 7.99909258 1.08321571 -0.42305669
v 7.95897436 1.08424473 -0.58154035
v 7.99781752 1.08020234 -0.42296615
v 7.95897436 1.08424473 -0.58154035
v 7.95693445 1.07942331 -0.58139557
v 7.99909258 1.08321571 -0.42305669
v 7.99996328 1.08636940 -0.42313519
v 7.96036768 1.08929062 -0.58166599
v 7.99909258 1.08321571 -0.42305669
v 7.96036768 1.08929062 -0.58166599
v 7.95897436 1.08424473 -0.58154035
v 7.99996328 1.08636940 -0.42313519
v 8.00041485 1.08960938 -0.42320037
v 7.96109056 1.09447455 -0.58177030
v 7.99996328 1.08636940 -0.42313519
v 7.96109056 1.09447455 -0.58177030
v 7.96036768 1.08929062 -0.58166599
v 8.00041485 1.08960938 -0.42320037
v 8.00043964 1.09288025 -0.42325112
v 7.96113014 1.09970796 -0.58185148
v 8.00041485 1.08960938 -0.42320037
v 7.96113014 1.09970796 -0.58185148
v 7.96109056 1.09447455 -0.58177030
v 8.00043964 1.09288025 -0.42325112
v 8.00003719 1.09612608 -0.42328653
v 7.96048594 1.10490131 -0.58190811
v 8.00043964 1.09288025 -0.42325112
v 7.96048594 1.10490131 -0.58190811
v 7.96113014 1.09970796 -0.58185148
v 8.00003719 1.09612608 -0.42328653
v 7.99921417 1.09929132 -0.42330599
v 7.95916939 1.10996556 -0.58193928
v 8.00003719 1.09612608 -0.42328653
v 7.95916939 1.10996556 -0.58193928
v 7.96048594 1.10490131 -0.58190811
v 7.99921417 1.09929132 -0.42330599
v 7.99798489 1.10232174 -0.42330921
v 7.95720243 1.11481428 -0.58194441
v 7.99921417 1.09929132 -0.42330599
v 7.95720243 1.11481428 -0.58194441
v 7.95916939 1.10996556 -0.58193928
v 7.99798489 1.10232174 -0.42330921
v 7.99637032 1.10516548 -0.42329609
v 7.95461941 1.11936438 -0.58192343
v 7.99798489 1.10232174 -0.42330921
v 7.95461941 1.11936438 -0.58192343
v 7.95720243 1.11481428 -0.58194441
v 7.99637032 1.10516548 -0.42329609
v 7.77489424 1.36167586 -0.41946214
v 7.78428030 1.31692040 -0.57897884
v 7.99637032 1.10516548 -0.42329609
v 7.78428030 1.31692040 -0.57897884
v 7.95461941 1.11936438 -0.58192343
v 7.77489424 1.36167586 -0.41946214
v 7.77259827 1.36400437 -0.41941735
v 7.78060675 1.32064617 -0.57890719
v 7.77489424 1.36167586 -0.41946214
v 7.78060675 1.32064617 -0.57890719
v 7.78428030 1.31692040 -0.57897884
v 7.77259827 1.36400437 -0.41941735
v 7.77001762 1.36601329 -0.41935775
v 7.77647734 1.32386029 -0.57881182
v 7.77259827 1.36400437 -0.41941735
v 7.77647734 1.32386029 -0.57881182
v 7.78060675 1.32064617 -0.57890719
v 7.77001762 1.36601329 -0.41935775
v 7.76719666 1.36766791 -0.41928431
v 7.77196360 1.32650781 -0.57869434
v 7.77001762 1.36601329 -0.41935775
v 7.77196360 1.32650781 -0.57869434
v 7.77647734 1.32386029 -0.57881182
v 7.76719666 1.36766791 -0.41928431
v 7.76418304 1.36894023 -0.41919833
v 7.76714230 1.32854342 -0.57855678
v 7.76719666 1.36766791 -0.41928431
v 7.76714230 1.32854342 -0.57855678
v 7.77196360 1.32650781 -0.57869434
v 7.76418304 1.36894023 -0.41919833
v 7.76102924 1.36980832 -0.41910130
v 7.76209593 1.32993233 -0.57840151
v 7.76418304 1.36894023 -0.41919833
v 7.76209593 1.32993233 -0.57840151
v 7.76714230 1.32854342 -0.57855678
v 7.76102924 1.36980832 -0.41910130
v 7.75778866 1.37025726 -0.41899481
v 7.75691080 1.33065069 -0.57823116
v 7.76102924 1.36980832 -0.41910130
v 7.75691080 1.33065069 -0.57823116
v 7.76209593 1.32993233 -0.57840151
v 7.75778866 1.37025726 -0.41899481
v 7.75451660 1.37027943 -0.41888076
v 7.75167561 1.33068633 -0.57804865
v 7.75778866 1.37025726 -0.41899481
v 7.75167561 1.33068633 -0.57804865
v 7.75691080 1.33065069 -0.57823116
v 7.75451660 1.37027943 -0.41888076
v 7.75126934 1.36987460 -0.41876104
v 7.74648046 1.33003855 -0.57785708
v 7.75451660 1.37027943 -0.41888076
v 7.74648046 1.33003855 -0.57785708
v 7.75167561 1.33068633 -0.57804865
v 7.75126934 1.36987460 -0.41876104
v 7.74810266 1.36904955 -0.41863772
v 7.74141359 1.32871830 -0.57765979
v 7.75126934 1.36987460 -0.41876104
v 7.74141359 1.32871830 -0.57765979
v 7.74648046 1.33003855 -0.57785708
v 7.74810266 1.36904955 -0.41863772
v 7.74507046 1.36781836 -0.41851294
v 7.73656178 1.32674849 -0.57746011
v 7.74810266 1.36904955 -0.41863772
v 7.73656178 1.32674849 -0.57746011
v 7.74141359 1.32871830 -0.57765979
v 7.74507046 1.36781836 -0.41851294
v 7.74222422 1.36620212 -0.41838878
v 7.73200798 1.32416260 -0.57726151
v 7.74507046 1.36781836 -0.41851294
v 7.73200798 1.32416260 -0.57726151
v 7.73656178 1.32674849 -0.57746011
v 7.74222422 1.36620212 -0.41838878
v 7.46006775 1.12265372 -0.40481004
v 7.50886393 1.13178027 -0.56652617
v 7.74222422 1.36620212 -0.41838878
v 7.50886393 1.13178027 -0.56652617
v 7.73200798 1.32416260 -0.57726151
v 7.46006775 1.12265372 -0.40481004
v 7.45773649 1.12035656 -0.40469351
v 7.50513411 1.12810493 -0.56633973
v 7.46006775 1.12265372 -0.40481004
v 7.50513411 1.12810493 -0.56633973
v 7.50886393 1.13178027 -0.56652617
v 7.45773649 1.12035656 -0.40469351
v 7.45572519 1.11777508 -0.40458384
v 7.50191593 1.12397456 -0.56616426
v 7.45773649 1.12035656 -0.40469351
v 7.50191593 1.12397456 -0.56616426
v 7.50513411 1.12810493 -0.56633973
v 7.45572519 1.11777508 -0.40458384
v 7.45406771 1.11495352 -0.40448287
v 7.49926376 1.11946011 -0.56600273
v 7.45572519 1.11777508 -0.40458384
v 7.49926376 1.11946011 -0.56600273
v 7.50191593 1.12397456 -0.56616426
v 7.45406771 1.11495352 -0.40448287
v 7.45279264 1.11194015 -0.40439236
v 7.49722385 1.11463869 -0.56585789
v 7.45406771 1.11495352 -0.40448287
v 7.49722385 1.11463869 -0.56585789
v 7.49926376 1.11946011 -0.56600273
v 7.45279264 1.11194015 -0.40439236
v 7.45192194 1.10878646 -0.40431383
v 7.49583054 1.10959280 -0.56573224
v 7.45279264 1.11194015 -0.40439236
v 7.49583054 1.10959280 -0.56573224
v 7.49722385 1.11463869 -0.56585789
v 7.45192194 1.10878646 -0.40431383
v 7.45147038 1.10554647 -0.40424865
v 7.49510813 1.10440886 -0.56562793
v 7.45192194 1.10878646 -0.40431383
v 7.49510813 1.10440886 -0.56562793
v 7.49583054 1.10959280 -0.56573224
v 7.45147038 1.10554647 -0.40424865
v 7.45144558 1.10227561 -0.40419790
v 7.49506855 1.09917545 -0.56554681
v 7.45147038 1.10554647 -0.40424865
v 7.49506855 1.09917545 -0.56554681
v 7.49510813 1.10440886 -0.56562793
v 7.45144558 1.10227561 -0.40419790
v 7.45184803 1.09902978 -0.40416250
v 7.49571228 1.09398210 -0.56549013
v 7.45144558 1.10227561 -0.40419790
v 7.49571228 1.09398210 -0.56549013
v 7.49506855 1.09917545 -0.56554681
v 7.45184803 1.09902978 -0.40416250
v 7.45267105 1.09586465 -0.40414304
v 7.49702930 1.08891785 -0.56545895
v 7.45184803 1.09902978 -0.40416250
v 7.49702930 1.08891785 -0.56545895
v 7.49571228 1.09398210 -0.56549013
v 7.45267105 1.09586465 -0.40414304
v 7.45390034 1.09283423 -0.40413982
v 7.49899578 1.08406913 -0.56545383
v 7.45267105 1.09586465 -0.40414304
v 7.49899578 1.08406913 -0.56545383
v 7.49702930 1.08891785 -0.56545895
v 7.45390034 1.09283423 -0.40413982
v 7.45551491 1.08999038 -0.40415293
v 7.50157928 1.07951915 -0.56547481
v 7.45390034 1.09283423 -0.40413982
v 7.50157928 1.07951915 -0.56547481
v 7.49899578 1.08406913 -0.56545383
v 7.45551491 1.08999038 -0.40415293
v 7.67699051 0.83348006 -0.40798688
v 7.67191792 0.88196295 -0.56841940
v 7.45551491 1.08999038 -0.40415293
v 7.67191792 0.88196295 -0.56841940
v 7.50157928 1.07951915 -0.56547481
v 7.67699051 0.83348006 -0.40798688
v 7.67928648 0.83115149 -0.40803167
v 7.67559195 0.87823725 -0.56849104
v 7.67699051 0.83348006 -0.40798688
v 7.67559195 0.87823725 -0.56849104
v 7.67191792 0.88196295 -0.56841940
v 7.67928648 0.83115149 -0.40803167
v 7.68186760 0.82914263 -0.40809128
v 7.67972088 0.87502313 -0.56858641
v 7.67928648 0.83115149 -0.40803167
v 7.67972088 0.87502313 -0.56858641
v 7.67559195 0.87823725 -0.56849104
v 7.68186760 0.82914263 -0.40809128
v 7.68468857 0.82748795 -0.40816471
v 7.68423462 0.87237555 -0.56870389
v 7.68186760 0.82914263 -0.40809128
v 7.68423462 0.87237555 -0.56870389
v 7.67972088 0.87502313 -0.56858641
v 7.68468857 0.82748795 -0.40816471
v 7.68770170 0.82621568 -0.40825069
v 7.68905592 0.87033993 -0.56884146
v 7.68468857 0.82748795 -0.40816471
v 7.68905592 0.87033993 -0.56884146
v 7.68423462 0.87237555 -0.56870389
v 7.68770170 0.82621568 -0.40825069
v 7.69085598 0.82534766 -0.40834773
v 7.69410276 0.86895108 -0.56899673
v 7.68770170 0.82621568 -0.40825069
v 7.69410276 0.86895108 -0.56899673
v 7.68905592 0.87033993 -0.56884146
v 7.69085598 0.82534766 -0.40834773
v 7.69409657 0.82489866 -0.40845421
v 7.69928741 0.86823273 -0.56916708
v 7.69085598 0.82534766 -0.40834773
v 7.69928741 0.86823273 -0.56916708
v 7.69410276 0.86895108 -0.56899673
v 7.69409657 0.82489866 -0.40845421
v 7.69736862 0.82487643 -0.40856826
v 7.70452261 0.86819714 -0.56934959
v 7.69409657 0.82489866 -0.40845421
v 7.70452261 0.86819714 -0.56934959
v 7.69928741 0.86823273 -0.56916708
v 7.69736862 0.82487643 -0.40856826
v 7.70061588 0.82528132 -0.40868798
v 7.70971823 0.86884493 -0.56954116
v 7.69736862 0.82487643 -0.40856826
v 7.70971823 0.86884493 -0.56954116
v 7.70452261 0.86819714 -0.56934959
v 7.70061588 0.82528132 -0.40868798
v 7.70378256 0.82610637 -0.40881130
v 7.71478510 0.87016505 -0.56973845
v 7.70061588 0.82528132 -0.40868798
v 7.71478510 0.87016505 -0.56973845
v 7.70971823 0.86884493 -0.56954116
v 7.70378256 0.82610637 -0.40881130
v 7.70681477 0.82733756 -0.40893608
v 7.71963692 0.87213492 -0.56993812
v 7.70378256 0.82610637 -0.40881130
v 7.71963692 0.87213492 -0.56993812
v 7.71478510 0.87016505 -0.56973845
v 7.70681477 0.82733756 -0.40893608
v 7.70966053 0.82895374 -0.40906024
v 7.72419024 0.87472081 -0.57013679
v 7.70681477 0.82733756 -0.40893608
v 7.72419024 0.87472081 -0.57013679
v 7.71963692 0.87213492 -0.56993812
v 7.70966053 0.82895374 -0.40906024
v 7.99181747 1.07250226 -0.42263898
v 7.94733477 1.06710315 -0.58087206
v 7.70966053 0.82895374 -0.40906024
v 7.94733477 1.06710315 -0.58087206
v 7.72419024 0.87472081 -0.57013679
v 7.94736147 1.06712639 -0.58287174
v 7.95109129 1.07080185 -0.58305818
v 7.99417543 1.07482266 -0.42475519
v 7.94736147 1.06712639 -0.58287174
v 7.99417543 1.07482266 -0.42475519
v 7.99184418 1.07252550 -0.42463866
v 7.95109129 1.07080185 -0.58305818
v 7.95430946 1.07493210 -0.58323365
v 7.99618673 1.07740414 -0.42486489
v 7.95109129 1.07080185 -0.58305818
v 7.99618673 1.07740414 -0.42486489
v 7.99417543 1.07482266 -0.42475519
v 7.95430946 1.07493210 -0.58323365
v 7.95696163 1.07944655 -0.58339524
v 7.99784422 1.08022559 -0.42496583
v 7.95430946 1.07493210 -0.58323365
v 7.99784422 1.08022559 -0.42496583
v 7.99618673 1.07740414 -0.42486489
v 7.95696163 1.07944655 -0.58339524
v 7.95900154 1.08426797 -0.58354002
v 7.99911928 1.08323908 -0.42505637
v 7.95696163 1.07944655 -0.58339524
v 7.99911928 1.08323908 -0.42505637
v 7.99784422 1.08022559 -0.42496583
v 7.95900154 1.08426797 -0.58354002
v 7.96039486 1.08931386 -0.58366567
v 7.99998999 1.08639276 -0.42513490
v 7.95900154 1.08426797 -0.58354002
v 7.99998999 1.08639276 -0.42513490
v 7.99911928 1.08323908 -0.42505637
v 7.96039486 1.08931386 -0.58366567
v 7.96111727 1.09449792 -0.58376998
v 8.00044155 1.08963275 -0.42520007
v 7.96039486 1.08931386 -0.58366567
v 8.00044155 1.08963275 -0.42520007
v 7.99998999 1.08639276 -0.42513490
v 7.96111727 1.09449792 -0.58376998
v 7.96115685 1.09973133 -0.58385116
v 8.00046635 1.09290361 -0.42525080
v 7.96111727 1.09449792 -0.58376998
v 8.00046635 1.09290361 -0.42525080
v 8.00044155 1.08963275 -0.42520007
v 7.96115685 1.09973133 -0.58385116
v 7.96051311 1.10492456 -0.58390778
v 8.00006390 1.09614944 -0.42528620
v 7.96115685 1.09973133 -0.58385116
v 8.00006390 1.09614944 -0.42528620
v 8.00046635 1.09290361 -0.42525080
v 7.96051311 1.10492456 -0.58390778
v 7.95919609 1.10998893 -0.58393896
v 7.99924088 1.09931457 -0.42530566
v 7.96051311 1.10492456 -0.58390778
v 7.99924088 1.09931457 -0.42530566
v 8.00006390 1.09614944 -0.42528620
v 7.95919609 1.10998893 -0.58393896
v 7.95722961 1.11483753 -0.58394408
v 7.99801159 1.10234499 -0.42530888
v 7.95919609 1.10998893 -0.58393896
v 7.99801159 1.10234499 -0.42530888
v 7.99924088 1.09931457 -0.42530566
v 7.95722961 1.11483753 -0.58394408
v 7.95464611 1.11938763 -0.58392316
v 7.99639750 1.10518885 -0.42529580
v 7.95722961 1.11483753 -0.58394408
v 7.99639750 1.10518885 -0.42529580
v 7.99801159 1.10234499 -0.42530888
v 7.95464611 1.11938763 -0.58392316
v 7.78430748 1.31694376 -0.58097857
v 7.77492142 1.36169910 -0.42146182
v 7.95464611 1.11938763 -0.58392316
v 7.77492142 1.36169910 -0.42146182
v 7.99639750 1.10518885 -0.42529580
v 7.78430748 1.31694376 -0.58097857
v 7.78063345 1.32066953 -0.58090687
v 7.77262545 1.36402774 -0.42141703
v 7.78430748 1.31694376 -0.58097857
v 7.77262545 1.36402774 -0.42141703
v 7.77492142 1.36169910 -0.42146182
v 7.78063345 1.32066953 -0.58090687
v 7.77650452 1.32388365 -0.58081150
v 7.77004480 1.36603653 -0.42135742
v 7.78063345 1.32066953 -0.58090687
v 7.77004480 1.36603653 -0.42135742
v 7.77262545 1.36402774 -0.42141703
v 7.77650452 1.32388365 -0.58081150
v 7.77199078 1.32653117 -0.58069402
v 7.76722336 1.36769128 -0.42128399
v 7.77650452 1.32388365 -0.58081150
v 7.76722336 1.36769128 -0.42128399
v 7.77004480 1.36603653 -0.42135742
v 7.77199078 1.32653117 -0.58069402
v 7.76716948 1.32856679 -0.58055645
v 7.76421022 1.36896348 -0.42119804
v 7.77199078 1.32653117 -0.58069402
v 7.76421022 1.36896348 -0.42119804
v 7.76722336 1.36769128 -0.42128399
v 7.76716948 1.32856679 -0.58055645
v 7.76212263 1.32995570 -0.58040118
v 7.76105595 1.36983156 -0.42110097
v 7.76716948 1.32856679 -0.58055645
v 7.76105595 1.36983156 -0.42110097
v 7.76421022 1.36896348 -0.42119804
v 7.76212263 1.32995570 -0.58040118
v 7.75693798 1.33067405 -0.58023083
v 7.75781536 1.37028050 -0.42099449
v 7.76212263 1.32995570 -0.58040118
v 7.75781536 1.37028050 -0.42099449
v 7.76105595 1.36983156 -0.42110097
v 7.75693798 1.33067405 -0.58023083
v 7.75170279 1.33070958 -0.58004832
v 7.75454330 1.37030280 -0.42088044
v 7.75693798 1.33067405 -0.58023083
v 7.75454330 1.37030280 -0.42088044
v 7.75781536 1.37028050 -0.42099449
v 7.75170279 1.33070958 -0.58004832
v 7.74650717 1.33006179 -0.57985675
v 7.75129652 1.36989784 -0.42076072
v 7.75170279 1.33070958 -0.58004832
v 7.75129652 1.36989784 -0.42076072
v 7.75454330 1.37030280 -0.42088044
v 7.74650717 1.33006179 -0.57985675
v 7.74144030 1.32874167 -0.57965946
v 7.74812937 1.36907279 -0.42063740
v 7.74650717 1.33006179 -0.57985675
v 7.74812937 1.36907279 -0.42063740
v 7.75129652 1.36989784 -0.42076072
v 7.74144030 1.32874167 -0.57965946
v 7.73658848 1.32677174 -0.57945979
v 7.74509716 1.36784160 -0.42051262
v 7.74144030 1.32874167 -0.57965946
v 7.74509716 1.36784160 -0.42051262
v 7.74812937 1.36907279 -0.42063740
v 7.73658848 1.32677174 -0.57945979
v 7.73203516 1.32418585 -0.57926118
v 7.74225140 1.36622548 -0.42038846
v 7.73658848 1.32677174 -0.57945979
v 7.74225140 1.36622548 -0.42038846
v 7.74509716 1.36784160 -0.42051262
v 7.73203516 1.32418585 -0.57926118
v 7.50889063 1.13180363 -0.56852585
v 7.46009445 1.12267697 -0.40680972
v 7.73203516 1.32418585 -0.57926118
v 7.46009445 1.12267697 -0.40680972
v 7.74225140 1.36622548 -0.42038846
v 7.50889063 1.13180363 -0.56852585
v 7.50516081 1.12812817 -0.56833941
v 7.45776367 1.12037981 -0.40669319
v 7.50889063 1.13180363 -0.56852585
v 7.45776367 1.12037981 -0.40669319
v 7.46009445 1.12267697 -0.40680972
v 7.50516081 1.12812817 -0.56833941
v 7.50194263 1.12399793 -0.56816393
v 7.45575190 1.11779845 -0.40658352
v 7.50516081 1.12812817 -0.56833941
v 7.45575190 1.11779845 -0.40658352
v 7.45776367 1.12037981 -0.40669319
v 7.50194263 1.12399793 -0.56816393
v 7.49929094 1.11948347 -0.56800240
v 7.45409441 1.11497688 -0.40648255
v 7.50194263 1.12399793 -0.56816393
v 7.45409441 1.11497688 -0.40648255
v 7.45575190 1.11779845 -0.40658352
v 7.49929094 1.11948347 -0.56800240
v 7.49725103 1.11466205 -0.56785756
v 7.45281982 1.11196351 -0.40639204
v 7.49929094 1.11948347 -0.56800240
v 7.45281982 1.11196351 -0.40639204
v 7.45409441 1.11497688 -0.40648255
v 7.49725103 1.11466205 -0.56785756
v 7.49585772 1.10961616 -0.56773192
v 7.45194912 1.10880983 -0.40631351
v 7.49725103 1.11466205 -0.56785756
v 7.45194912 1.10880983 -0.40631351
v 7.45281982 1.11196351 -0.40639204
v 7.49585772 1.10961616 -0.56773192
v 7.49513483 1.10443211 -0.56762761
v 7.45149708 1.10556984 -0.40624833
v 7.49585772 1.10961616 -0.56773192
v 7.45149708 1.10556984 -0.40624833
v 7.45194912 1.10880983 -0.40631351
v 7.49513483 1.10443211 -0.56762761
v 7.49509525 1.09919870 -0.56754649
v 7.45147228 1.10229886 -0.40619761
v 7.49513483 1.10443211 -0.56762761
v 7.45147228 1.10229886 -0.40619761
v 7.45149708 1.10556984 -0.40624833
v 7.49509525 1.09919870 -0.56754649
v 7.49573946 1.09400547 -0.56748980
v 7.45187521 1.09905314 -0.40616220
v 7.49509525 1.09919870 -0.56754649
v 7.45187521 1.09905314 -0.40616220
v 7.45147228 1.10229886 -0.40619761
v 7.49573946 1.09400547 -0.56748980
v 7.49705601 1.08894110 -0.56745863
v 7.45269775 1.09588790 -0.40614271
v 7.49573946 1.09400547 -0.56748980
v 7.45269775 1.09588790 -0.40614271
v 7.45187521 1.09905314 -0.40616220
v 7.49705601 1.08894110 -0.56745863
v 7.49902296 1.08409250 -0.56745350
v 7.45392704 1.09285748 -0.40613949
v 7.49705601 1.08894110 -0.56745863
v 7.45392704 1.09285748 -0.40613949
v 7.45269775 1.09588790 -0.40614271
v 7.49902296 1.08409250 -0.56745350
v 7.50160599 1.07954240 -0.56747448
v 7.45554161 1.09001374 -0.40615261
v 7.49902296 1.08409250 -0.56745350
v 7.45554161 1.09001374 -0.40615261
v 7.45392704 1.09285748 -0.40613949
v 7.50160599 1.07954240 -0.56747448
v 7.67194510 0.88198626 -0.57041907
v 7.67701769 0.83350337 -0.40998656
v 7.50160599 1.07954240 -0.56747448
v 7.67701769 0.83350337 -0.40998656
v 7.45554161 1.09001374 -0.40615261
v 7.67194510 0.88198626 -0.57041907
v 7.67561865 0.87826055 -0.57049072
v 7.67931366 0.83117479 -0.41003135
v 7.67194510 0.88198626 -0.57041907
v 7.67931366 0.83117479 -0.41003135
v 7.67701769 0.83350337 -0.40998656
v 7.67561865 0.87826055 -0.57049072
v 7.67974806 0.87504637 -0.57058609
v 7.68189430 0.82916594 -0.41009098
v 7.67561865 0.87826055 -0.57049072
v 7.68189430 0.82916594 -0.41009098
v 7.67931366 0.83117479 -0.41003135
v 7.67974806 0.87504637 -0.57058609
v 7.68426180 0.87239885 -0.57070357
v 7.68471575 0.82751125 -0.41016439
v 7.67974806 0.87504637 -0.57058609
v 7.68471575 0.82751125 -0.41016439
v 7.68189430 0.82916594 -0.41009098
v 7.68426180 0.87239885 -0.57070357
v 7.68908310 0.87036324 -0.57084113
v 7.68772888 0.82623899 -0.41025037
v 7.68426180 0.87239885 -0.57070357
v 7.68772888 0.82623899 -0.41025037
v 7.68471575 0.82751125 -0.41016439
v 7.68908310 0.87036324 -0.57084113
v 7.69412947 0.86897439 -0.57099640
v 7.69088268 0.82537097 -0.41034743
v 7.68908310 0.87036324 -0.57084113
v 7.69088268 0.82537097 -0.41034743
v 7.68772888 0.82623899 -0.41025037
v 7.69412947 0.86897439 -0.57099640
v 7.69931459 0.86825597 -0.57116675
v 7.69412374 0.82492197 -0.41045389
v 7.69412947 0.86897439 -0.57099640
v 7.69412374 0.82492197 -0.41045389
v 7.69088268 0.82537097 -0.41034743
v 7.69931459 0.86825597 -0.57116675
v 7.70454979 0.86822039 -0.57134926
v 7.69739532 0.82489973 -0.41056797
v 7.69931459 0.86825597 -0.57116675
v 7.69739532 0.82489973 -0.41056797
v 7.69412374 0.82492197 -0.41045389
v 7.70454979 0.86822039 -0.57134926
v 7.70974493 0.86886823 -0.57154083
v 7.70064259 0.82530463 -0.41068769
v 7.70454979 0.86822039 -0.57134926
v 7.70064259 0.82530463 -0.41068769
v 7.69739532 0.82489973 -0.41056797
v 7.70974493 0.86886823 -0.57154083
v 7.71481180 0.87018836 -0.57173812
v 7.70380926 0.82612967 -0.41081098
v 7.70974493 0.86886823 -0.57154083
v 7.70380926 0.82612967 -0.41081098
v 7.70064259 0.82530463 -0.41068769
v 7.71481180 0.87018836 -0.57173812
v 7.71966362 0.87215823 -0.57193780
v 7.70684195 0.82736087 -0.41093579
v 7.71481180 0.87018836 -0.57173812
v 7.70684195 0.82736087 -0.41093579
v 7.70380926 0.82612967 -0.41081098
v 7.71966362 0.87215823 -0.57193780
v 7.72421741 0.87474412 -0.57213646
v 7.70968771 0.82897705 -0.41105992
v 7.71966362 0.87215823 -0.57193780
v 7.70968771 0.82897705 -0.41105992
v 7.70684195 0.82736087 -0.41093579
v 7.72421741 0.87474412 -0.57213646
v 7.94736147 1.06712639 -0.58287174
v 7.99184418 1.07252550 -0.42463866
v 7.72421741 0.87474412 -0.57213646
v 7.99184418 1.07252550 -0.42463866
v 7.70968771 0.82897705 -0.41105992
v 7.99184418 1.07252550 -0.42463866
v 7.99417543 1.07482266 -0.42475519
v 7.99414873 1.07479942 -0.42275551
v 7.99184418 1.07252550 -0.42463866
v 7.99414873 1.07479942 -0.42275551
v 7.99181747 1.07250226 -0.42263898
v 7.99417543 1.07482266 -0.42475519
v 7.99618673 1.07740414 -0.42486489
v 7.99616003 1.07738078 -0.42286518
v 7.99417543 1.07482266 -0.42475519
v 7.99616003 1.07738078 -0.42286518
v 7.99414873 1.07479942 -0.42275551
v 7.99618673 1.07740414 -0.42486489
v 7.99784422 1.08022559 -0.42496583
v 7.99781752 1.08020234 -0.42296615
v 7.99618673 1.07740414 -0.42486489
v 7.99781752 1.08020234 -0.42296615
v 7.99616003 1.07738078 -0.42286518
v 7.99784422 1.08022559 -0.42496583
v 7.99911928 1.08323908 -0.42505637
v 7.99909258 1.08321571 -0.42305669
v 7.99784422 1.08022559 -0.42496583
v 7.99909258 1.08321571 -0.42305669
v 7.99781752 1.08020234 -0.42296615
v 7.99911928 1.08323908 -0.42505637
v 7.99998999 1.08639276 -0.42513490
v 7.99996328 1.08636940 -0.42313519
v 7.99911928 1.08323908 -0.42505637
v 7.99996328 1.08636940 -0.42313519
v 7.99909258 1.08321571 -0.42305669
v 7.99998999 1.08639276 -0.42513490
v 8.00044155 1.08963275 -0.42520007
v 8.00041485 1.08960938 -0.42320037
v 7.99998999 1.08639276 -0.42513490
v 8.00041485 1.08960938 -0.42320037
v 7.99996328 1.08636940 -0.42313519
v 8.00044155 1.08963275 -0.42520007
v 8.00046635 1.09290361 -0.42525080
v 8.00043964 1.09288025 -0.42325112
v 8.00044155 1.08963275 -0.42520007
v 8.00043964 1.09288025 -0.42325112
v 8.00041485 1.08960938 -0.42320037
v 8.00046635 1.09290361 -0.42525080
v 8.00006390 1.09614944 -0.42528620
v 8.00003719 1.09612608 -0.42328653
v 8.00046635 1.09290361 -0.42525080
v 8.00003719 1.09612608 -0.42328653
v 8.00043964 1.09288025 -0.42325112
v 8.00006390 1.09614944 -0.42528620
v 7.99924088 1.09931457 -0.42530566
v 7.99921417 1.09929132 -0.42330599
v 8.00006390 1.09614944 -0.42528620
v 7.99921417 1.09929132 -0.42330599
v 8.00003719 1.09612608 -0.42328653
v 7.99924088 1.09931457 -0.42530566
v 7.99801159 1.10234499 -0.42530888
v 7.99798489 1.10232174 -0.42330921
v 7.99924088 1.09931457 -0.42530566
v 7.99798489 1.10232174 -0.42330921
v 7.99921417 1.09929132 -0.42330599
v 7.99801159 1.10234499 -0.42530888
v 7.99639750 1.10518885 -0.42529580
v 7.99637032 1.10516548 -0.42329609
v 7.99801159 1.10234499 -0.42530888
v 7.99637032 1.10516548 -0.42329609
v 7.99798489 1.10232174 -0.42330921
v 7.99639750 1.10518885 -0.42529580
v 7.77492142 1.36169910 -0.42146182
v 7.77489424 1.36167586 -0.41946214
v 7.99639750 1.10518885 -0.42529580
v 7.77489424 1.36167586 -0.41946214
v 7.99637032 1.10516548 -0.42329609
v 7.77492142 1.36169910 -0.42146182
v 7.77262545 1.36402774 -0.42141703
v 7.77259827 1.36400437 -0.41941735
v 7.77492142 1.36169910 -0.42146182
v 7.77259827 1.36400437 -0.41941735
v 7.77489424 1.36167586 -0.41946214
v 7.77262545 1.36402774 -0.42141703
v 7.77004480 1.36603653 -0.42135742
v 7.77001762 1.36601329 -0.41935775
v 7.77262545 1.36402774 -0.42141703
v 7.77001762 1.36601329 -0.41935775
v 7.77259827 1.36400437 -0.41941735
v 7.77004480 1.36603653 -0.42135742
v 7.76722336 1.36769128 -0.42128399
v 7.76719666 1.36766791 -0.41928431
v 7.77004480 1.36603653 -0.42135742
v 7.76719666 1.36766791 -0.41928431
v 7.77001762 1.36601329 -0.41935775
v 7.76722336 1.36769128 -0.42128399
v 7.76421022 1.36896348 -0.42119804
v 7.76418304 1.36894023 -0.41919833
v 7.76722336 1.36769128 -0.42128399
v 7.76418304 1.36894023 -0.41919833
v 7.76719666 1.36766791 -0.41928431
v 7.76421022 1.36896348 -0.42119804
v 7.76105595 1.36983156 -0.42110097
v 7.76102924 1.36980832 -0.41910130
v 7.76421022 1.36896348 -0.42119804
v 7.76102924 1.36980832 -0.41910130
v 7.76418304 1.36894023 -0.41919833
v 7.76105595 1.36983156 -0.42110097
v 7.75781536 1.37028050 -0.42099449
v 7.75778866 1.37025726 -0.41899481
v 7.76105595 1.36983156 -0.42110097
v 7.75778866 1.37025726 -0.41899481
v 7.76102924 1.36980832 -0.41910130
v 7.75781536 1.37028050 -0.42099449
v 7.75454330 1.37030280 -0.42088044
v 7.75451660 1.37027943 -0.41888076
v 7.75781536 1.37028050 -0.42099449
v 7.75451660 1.37027943 -0.41888076
v 7.75778866 1.37025726 -0.41899481
v 7.75454330 1.37030280 -0.42088044
v 7.75129652 1.36989784 -0.42076072
v 7.75126934 1.36987460 -0.41876104
v 7.75454330 1.37030280 -0.42088044
v 7.75126934 1.36987460 -0.41876104
v 7.75451660 1.37027943 -0.41888076
v 7.75129652 1.36989784 -0.42076072
v 7.74812937 1.36907279 -0.42063740
v 7.74810266 1.36904955 -0.41863772
v 7.75129652 1.36989784 -0.42076072
v 7.74810266 1.36904955 -0.41863772
v 7.75126934 1.36987460 -0.41876104
v 7.74812937 1.36907279 -0.42063740
v 7.74509716 1.36784160 -0.42051262
v 7.74507046 1.36781836 -0.41851294
v 7.74812937 1.36907279 -0.42063740
v 7.74507046 1.36781836 -0.41851294
v 7.74810266 1.36904955 -0.41863772
v 7.74509716 1.36784160 -0.42051262
v 7.74225140 1.36622548 -0.42038846
v 7.74222422 1.36620212 -0.41838878
v 7.74509716 1.36784160 -0.42051262
v 7.74222422 1.36620212 -0.41838878
v 7.74507046 1.36781836 -0.41851294
v 7.74225140 1.36622548 -0.42038846
v 7.46009445 1.12267697 -0.40680972
v 7.46006775 1.12265372 -0.40481004
v 7.74225140 1.36622548 -0.42038846
v 7.46006775 1.12265372 -0.40481004
v 7.74222422 1.36620212 -0.41838878
v 7.46009445 1.12267697 -0.40680972
v 7.45776367 1.12037981 -0.40669319
v 7.45773649 1.12035656 -0.40469351
v 7.46009445 1.12267697 -0.40680972
v 7.45773649 1.12035656 -0.40469351
v 7.46006775 1.12265372 -0.40481004
v 7.45776367 1.12037981 -0.40669319
v 7.45575190 1.11779845 -0.40658352
v 7.45572519 1.11777508 -0.40458384
v 7.45776367 1.12037981 -0.40669319
v 7.45572519 1.11777508 -0.40458384
v 7.45773649 1.12035656 -0.40469351
v 7.45575190 1.11779845 -0.40658352
v 7.45409441 1.11497688 -0.40648255
v 7.45406771 1.11495352 -0.40448287
v 7.45575190 1.11779845 -0.40658352
v 7.45406771 1.11495352 -0.40448287
v 7.45572519 1.11777508 -0.40458384
v 7.45409441 1.11497688 -0.40648255
v 7.45281982 1.11196351 -0.40639204
v 7.45279264 1.11194015 -0.40439236
v 7.45409441 1.11497688 -0.40648255
v 7.45279264 1.11194015 -0.40439236
v 7.45406771 1.11495352 -0.40448287
v 7.45281982 1.11196351 -0.40639204
v 7.45194912 1.10880983 -0.40631351
v 7.45192194 1.10878646 -0.40431383
v 7.45281982 1.11196351 -0.40639204
v 7.45192194 1.10878646 -0.40431383
v 7.45279264 1.11194015 -0.40439236
v 7.45194912 1.10880983 -0.40631351
v 7.45149708 1.10556984 -0.40624833
v 7.45147038 1.10554647 -0.40424865
v 7.45194912 1.10880983 -0.40631351
v 7.45147038 1.10554647 -0.40424865
v 7.45192194 1.10878646 -0.40431383
v 7.45149708 1.10556984 -0.40624833
v 7.45147228 1.10229886 -0.40619761
v 7.45144558 1.10227561 -0.40419790
v 7.45149708 1.10556984 -0.40624833
v 7.45144558 1.10227561 -0.40419790
v 7.45147038 1.10554647 -0.40424865
v 7.45147228 1.10229886 -0.40619761
v 7.45187521 1.09905314 -0.40616220
v 7.45184803 1.09902978 -0.40416250
v 7.45147228 1.10229886 -0.40619761
v 7.45184803 1.09902978 -0.40416250
v 7.45144558 1.10227561 -0.40419790
v 7.45187521 1.09905314 -0.40616220
v 7.45269775 1.09588790 -0.40614271
v 7.45267105 1.09586465 -0.40414304
v 7.45187521 1.09905314 -0.40616220
v 7.45267105 1.09586465 -0.40414304
v 7.45184803 1.09902978 -0.40416250
v 7.45269775 1.09588790 -0.40614271
v 7.45392704 1.09285748 -0.40613949
v 7.45390034 1.09283423 -0.40413982
v 7.45269775 1.09588790 -0.40614271
v 7.45390034 1.09283423 -0.40413982
v 7.45267105 1.09586465 -0.40414304
v 7.45392704 1.09285748 -0.40613949
v 7.45554161 1.09001374 -0.40615261
v 7.45551491 1.08999038 -0.40415293
v 7.45392704 1.09285748 -0.40613949
v 7.45551491 1.08999038 -0.40415293
v 7.45390034 1.09283423 -0.40413982
v 7.45554161 1.09001374 -0.40615261
v 7.67701769 0.83350337 -0.40998656
v 7.67699051 0.83348006 -0.40798688
v 7.45554161 1.09001374 -0.40615261
v 7.67699051 0.83348006 -0.40798688
v 7.45551491 1.08999038 -0.40415293
v 7.67701769 0.83350337 -0.40998656
v 7.67931366 0.83117479 -0.41003135
v 7.67928648 0.83115149 -0.40803167
v 7.67701769 0.83350337 -0.40998656
v 7.67928648 0.83115149 -0.40803167
v 7.67699051 0.83348006 -0.40798688
v 7.67931366 0.83117479 -0.41003135
v 7.68189430 0.82916594 -0.41009098
v 7.68186760 0.82914263 -0.40809128
v 7.67931366 0.83117479 -0.41003135
v 7.68186760 0.82914263 -0.40809128
v 7.67928648 0.83115149 -0.40803167
v 7.68189430 0.82916594 -0.41009098
v 7.68471575 0.82751125 -0.41016439
v 7.68468857 0.82748795 -0.40816471
v 7.68189430 0.82916594 -0.41009098
v 7.68468857 0.82748795 -0.40816471
v 7.68186760 0.82914263 -0.40809128
v 7.68471575 0.82751125 -0.41016439
v 7.68772888 0.82623899 -0.41025037
v 7.68770170 0.82621568 -0.40825069
v 7.68471575 0.82751125 -0.41016439
v 7.68770170 0.82621568 -0.40825069
v 7.68468857 0.82748795 -0.40816471
v 7.68772888 0.82623899 -0.41025037
v 7.69088268 0.82537097 -0.41034743
v 7.69085598 0.82534766 -0.40834773
v 7.68772888 0.82623899 -0.41025037
v 7.69085598 0.82534766 -0.40834773
v 7.68770170 0.82621568 -0.40825069
v 7.69088268 0.82537097 -0.41034743
v 7.69412374 0.82492197 -0.41045389
v 7.69409657 0.82489866 -0.40845421
v 7.69088268 0.82537097 -0.41034743
v 7.69409657 0.82489866 -0.40845421
v 7.69085598 0.82534766 -0.40834773
v 7.69412374 0.82492197 -0.41045389
v 7.69739532 0.82489973 -0.41056797
v 7.69736862 0.82487643 -0.40856826
v 7.69412374 0.82492197 -0.41045389
v 7.69736862 0.82487643 -0.40856826
v 7.69409657 0.82489866 -0.40845421
v 7.69739532 0.82489973 -0.41056797
v 7.70064259 0.82530463 -0.41068769
v 7.70061588 0.82528132 -0.40868798
v 7.69739532 0.82489973 -0.41056797
v 7.70061588 0.82528132 -0.40868798
v 7.69736862 0.82487643 -0.40856826
v 7.70064259 0.82530463 -0.41068769
v 7.70380926 0.82612967 -0.41081098
v 7.70378256 0.82610637 -0.40881130
v 7.70064259 0.82530463 -0.41068769
v 7.70378256 0.82610637 -0.40881130
v 7.70061588 0.82528132 -0.40868798
v 7.70380926 0.82612967 -0.41081098
v 7.70684195 0.82736087 -0.41093579
v 7.70681477 0.82733756 -0.40893608
v 7.70380926 0.82612967 -0.41081098
v 7.70681477 0.82733756 -0.40893608
v 7.70378256 0.82610637 -0.40881130
v 7.70684195 0.82736087 -0.41093579
v 7.70968771 0.82897705 -0.41105992
v 7.70966053 0.82895374 -0.40906024
v 7.70684195 0.82736087 -0.41093579
v 7.70966053 0.82895374 -0.40906024
v 7.70681477 0.82733756 -0.40893608
v 7.70968771 0.82897705 -0.41105992
v 7.99184418 1.07252550 -0.42463866
v 7.99181747 1.07250226 -0.42263898
v 7.70968771 0.82897705 -0.41105992
v 7.99181747 1.07250226 -0.42263898
v 7.70966053 0.82895374 -0.40906024
v 7.94733477 1.06710315 -0.58087206
v 7.95106459 1.07077849 -0.58105850
v 7.95428276 1.07490885 -0.58123398
v 7.94733477 1.06710315 -0.58087206
v 7.95428276 1.07490885 -0.58123398
v 7.95693445 1.07942331 -0.58139557
v 7.94733477 1.06710315 -0.58087206
v 7.95693445 1.07942331 -0.58139557
v 7.95897436 1.08424473 -0.58154035
v 7.94733477 1.06710315 -0.58087206
v 7.95897436 1.08424473 -0.58154035
v 7.96036768 1.08929062 -0.58166599
v 7.94733477 1.06710315 -0.58087206
v 7.96036768 1.08929062 -0.58166599
v 7.96109056 1.09447455 -0.58177030
v 7.94733477 1.06710315 -0.58087206
v 7.96109056 1.09447455 -0.58177030
v 7.96113014 1.09970796 -0.58185148
v 7.94733477 1.06710315 -0.58087206
v 7.96113014 1.09970796 -0.58185148
v 7.96048594 1.10490131 -0.58190811
v 7.94733477 1.06710315 -0.58087206
v 7.96048594 1.10490131 -0.58190811
v 7.95916939 1.10996556 -0.58193928
v 7.94733477 1.06710315 -0.58087206
v 7.95916939 1.10996556 -0.58193928
v 7.95720243 1.11481428 -0.58194441
v 7.94733477 1.06710315 -0.58087206
v 7.95720243 1.11481428 -0.58194441
v 7.95461941 1.11936438 -0.58192343
v 7.94733477 1.06710315 -0.58087206
v 7.95461941 1.11936438 -0.58192343
v 7.78428030 1.31692040 -0.57897884
v 7.94733477 1.06710315 -0.58087206
v 7.78428030 1.31692040 -0.57897884
v 7.78060675 1.32064617 -0.57890719
v 7.94733477 1.06710315 -0.58087206
v 7.78060675 1.32064617 -0.57890719
v 7.77647734 1.32386029 -0.57881182
v 7.94733477 1.06710315 -0.58087206
v 7.77647734 1.32386029 -0.57881182
v 7.77196360 1.32650781 -0.57869434
v 7.94733477 1.06710315 -0.58087206
v 7.77196360 1.32650781 -0.57869434
v 7.76714230 1.32854342 -0.57855678
v 7.94733477 1.06710315 -0.58087206
v 7.76714230 1.32854342 -0.57855678
v 7.76209593 1.32993233 -0.57840151
v 7.94733477 1.06710315 -0.58087206
v 7.76209593 1.32993233 -0.57840151
v 7.75691080 1.33065069 -0.57823116
v 7.94733477 1.06710315 -0.58087206
v 7.75691080 1.33065069 -0.57823116
v 7.75167561 1.33068633 -0.57804865
v 7.94733477 1.06710315 -0.58087206
v 7.75167561 1.33068633 -0.57804865
v 7.74648046 1.33003855 -0.57785708
v 7.94733477 1.06710315 -0.58087206
v 7.74648046 1.33003855 -0.57785708
v 7.74141359 1.32871830 -0.57765979
v 7.94733477 1.06710315 -0.58087206
v 7.74141359 1.32871830 -0.57765979
v 7.73656178 1.32674849 -0.57746011
v 7.94733477 1.06710315 -0.58087206
v 7.73656178 1.32674849 -0.57746011
v 7.73200798 1.32416260 -0.57726151
v 7.94733477 1.06710315 -0.58087206
v 7.73200798 1.32416260 -0.57726151
v 7.50886393 1.13178027 -0.56652617
v 7.94733477 1.06710315 -0.58087206
v 7.50886393 1.13178027 -0.56652617
v 7.50513411 1.12810493 -0.56633973
v 7.94733477 1.06710315 -0.58087206
v 7.50513411 1.12810493 -0.56633973
v 7.50191593 1.12397456 -0.56616426
v 7.94733477 1.06710315 -0.58087206
v 7.50191593 1.12397456 -0.56616426
v 7.49926376 1.11946011 -0.56600273
v 7.94733477 1.06710315 -0.58087206
v 7.49926376 1.11946011 -0.56600273
v 7.49722385 1.11463869 -0.56585789
v 7.94733477 1.06710315 -0.58087206
v 7.49722385 1.11463869 -0.56585789
v 7.49583054 1.10959280 -0.56573224
v 7.94733477 1.06710315 -0.58087206
v 7.49583054 1.10959280 -0.56573224
v 7.49510813 1.10440886 -0.56562793
v 7.94733477 1.06710315 -0.58087206
v 7.49510813 1.10440886 -0.56562793
v 7.49506855 1.09917545 -0.56554681
v 7.94733477 1.06710315 -0.58087206
v 7.49506855 1.09917545 -0.56554681
v 7.49571228 1.09398210 -0.56549013
v 7.94733477 1.06710315 -0.58087206
v 7.49571228 1.09398210 -0.56549013
v 7.49702930 1.08891785 -0.56545895
v 7.94733477 1.06710315 -0.58087206
v 7.49702930 1.08891785 -0.56545895
v 7.49899578 1.08406913 -0.56545383
v 7.94733477 1.06710315 -0.58087206
v 7.49899578 1.08406913 -0.56545383
v 7.50157928 1.07951915 -0.56547481
v 7.94733477 1.06710315 -0.58087206
v 7.50157928 1.07951915 -0.56547481
v 7.67191792 0.88196295 -0.56841940
v 7.94733477 1.06710315 -0.58087206
v 7.67191792 0.88196295 -0.56841940
v 7.67559195 0.87823725 -0.56849104
v 7.94733477 1.06710315 -0.58087206
v 7.67559195 0.87823725 -0.56849104
v 7.67972088 0.87502313 -0.56858641
v 7.94733477 1.06710315 -0.58087206
v 7.67972088 0.87502313 -0.56858641
v 7.68423462 0.87237555 -0.56870389
v 7.94733477 1.06710315 -0.58087206
v 7.68423462 0.87237555 -0.56870389
v 7.68905592 0.87033993 -0.56884146
v 7.94733477 1.06710315 -0.58087206
v 7.68905592 0.87033993 -0.56884146
v 7.69410276 0.86895108 -0.56899673
v 7.94733477 1.06710315 -0.58087206
v 7.69410276 0.86895108 -0.56899673
v 7.69928741 0.86823273 -0.56916708
v 7.94733477 1.06710315 -0.58087206
v 7.69928741 0.86823273 -0.56916708
v 7.70452261 0.86819714 -0.56934959
v 7.94733477 1.06710315 -0.58087206
v 7.70452261 0.86819714 -0.56934959
v 7.70971823 0.86884493 -0.56954116
v 7.94733477 1.06710315 -0.58087206
v 7.70971823 0.86884493 -0.56954116
v 7.71478510 0.87016505 -0.56973845
v 7.94733477 1.06710315 -0.58087206
v 7.71478510 0.87016505 -0.56973845
v 7.71963692 0.87213492 -0.56993812
v 7.94733477 1.06710315 -0.58087206
v 7.71963692 0.87213492 -0.56993812
v 7.72419024 0.87472081 -0.57013679
v 7.72421741 0.87474412 -0.57213646
v 7.71966362 0.87215823 -0.57193780
v 7.71481180 0.87018836 -0.57173812
v 7.72421741 0.87474412 -0.57213646
v 7.71481180 0.87018836 -0.57173812
v 7.70974493 0.86886823 -0.57154083
v 7.72421741 0.87474412 -0.57213646
v 7.70974493 0.86886823 -0.57154083
v 7.70454979 0.86822039 -0.57134926
v 7.72421741 0.87474412 -0.57213646
v 7.70454979 0.86822039 -0.57134926
v 7.69931459 0.86825597 -0.57116675
v 7.72421741 0.87474412 -0.57213646
v 7.69931459 0.86825597 -0.57116675
v 7.69412947 0.86897439 -0.57099640
v 7.72421741 0.87474412 -0.57213646
v 7.69412947 0.86897439 -0.57099640
v 7.68908310 0.87036324 -0.57084113
v 7.72421741 0.87474412 -0.57213646
v 7.68908310 0.87036324 -0.57084113
v 7.68426180 0.87239885 -0.57070357
v 7.72421741 0.87474412 -0.57213646
v 7.68426180 0.87239885 -0.57070357
v 7.67974806 0.87504637 -0.57058609
v 7.72421741 0.87474412 -0.57213646
v 7.67974806 0.87504637 -0.57058609
v 7.67561865 0.87826055 -0.57049072
v 7.72421741 0.87474412 -0.57213646
v 7.67561865 0.87826055 -0.57049072
v 7.67194510 0.88198626 -0.57041907
v 7.72421741 0.87474412 -0.57213646
v 7.67194510 0.88198626 -0.57041907
v 7.50160599 1.07954240 -0.56747448
v 7.72421741 0.87474412 -0.57213646
v 7.50160599 1.07954240 -0.56747448
v 7.49902296 1.08409250 -0.56745350
v 7.72421741 0.87474412 -0.57213646
v 7.49902296 1.08409250 -0.56745350
v 7.49705601 1.08894110 -0.56745863
v 7.72421741 0.87474412 -0.57213646
v 7.49705601 1.08894110 -0.56745863
v 7.49573946 1.09400547 -0.56748980
v 7.72421741 0.87474412 -0.57213646
v 7.49573946 1.09400547 -0.56748980
v 7.49509525 1.09919870 -0.56754649
v 7.72421741 0.87474412 -0.57213646
v 7.49509525 1.09919870 -0.56754649
v 7.49513483 1.10443211 -0.56762761
v 7.72421741 0.87474412 -0.57213646
v 7.49513483 1.10443211 -0.56762761
v 7.49585772 1.10961616 -0.56773192
v 7.72421741 0.87474412 -0.57213646
v 7.49585772 1.10961616 -0.56773192
v 7.49725103 1.11466205 -0.56785756
v 7.72421741 0.87474412 -0.57213646
v 7.49725103 1.11466205 -0.56785756
v 7.49929094 1.11948347 -0.56800240
v 7.72421741 0.87474412 -0.57213646
v 7.49929094 1.11948347 -0.56800240
v 7.50194263 1.12399793 -0.56816393
v 7.72421741 0.87474412 -0.57213646
v 7.50194263 1.12399793 -0.56816393
v 7.50516081 1.12812817 -0.56833941
v 7.72421741 0.87474412 -0.57213646
v 7.50516081 1.12812817 -0.56833941
v 7.50889063 1.13180363 -0.56852585
v 7.72421741 0.87474412 -0.57213646
v 7.50889063 1.13180363 -0.56852585
v 7.73203516 1.32418585 -0.57926118
v 7.72421741 0.87474412 -0.57213646
v 7.73203516 1.32418585 -0.57926118
v 7.73658848 1.32677174 -0.57945979
v 7.72421741 0.87474412 -0.57213646
v 7.73658848 1.32677174 -0.57945979
v 7.74144030 1.32874167 -0.57965946
v 7.72421741 0.87474412 -0.57213646
v 7.74144030 1.32874167 -0.57965946
v 7.74650717 1.33006179 -0.57985675
v 7.72421741 0.87474412 -0.57213646
v 7.74650717 1.33006179 -0.57985675
v 7.75170279 1.33070958 -0.58004832
v 7.72421741 0.87474412 -0.57213646
v 7.75170279 1.33070958 -0.58004832
v 7.75693798 1.33067405 -0.58023083
v 7.72421741 0.87474412 -0.57213646
v 7.75693798 1.33067405 -0.58023083
v 7.76212263 1.32995570 -0.58040118
v 7.72421741 0.87474412 -0.57213646
v 7.76212263 1.32995570 -0.58040118
v 7.76716948 1.32856679 -0.58055645
v 7.72421741 0.87474412 -0.57213646
v 7.76716948 1.32856679 -0.58055645
v 7.77199078 1.32653117 -0.58069402
v 7.72421741 0.87474412 -0.57213646
v 7.77199078 1.32653117 -0.58069402
v 7.77650452 1.32388365 -0.58081150
v 7.72421741 0.87474412 -0.57213646
v 7.77650452 1.32388365 -0.58081150
v 7.78063345 1.32066953 -0.58090687
v 7.72421741 0.87474412 -0.57213646
v 7.78063345 1.32066953 -0.58090687
v 7.78430748 1.31694376 -0.58097857
v 7.72421741 0.87474412 -0.57213646
v 7.78430748 1.31694376 -0.58097857
v 7.95464611 1.11938763 -0.58392316
v 7.72421741 0.87474412 -0.57213646
v 7.95464611 1.11938763 -0.58392316
v 7.95722961 1.11483753 -0.58394408
v 7.72421741 0.87474412 -0.57213646
v 7.95722961 1.11483753 -0.58394408
v 7.95919609 1.10998893 -0.58393896
v 7.72421741 0.87474412 -0.57213646
v 7.95919609 1.10998893 -0.58393896
v 7.96051311 1.10492456 -0.58390778
v 7.72421741 0.87474412 -0.57213646
v 7.96051311 1.10492456 -0.58390778
v 7.96115685 1.09973133 -0.58385116
v 7.72421741 0.87474412 -0.57213646
v 7.96115685 1.09973133 -0.58385116
v 7.96111727 1.09449792 -0.58376998
v 7.72421741 0.87474412 -0.57213646
v 7.96111727 1.09449792 -0.58376998
v 7.96039486 1.08931386 -0.58366567
v 7.72421741 0.87474412 -0.57213646
v 7.96039486 1.08931386 -0.58366567
v 7.95900154 1.08426797 -0.58354002
v 7.72421741 0.87474412 -0.57213646
v 7.95900154 1.08426797 -0.58354002
v 7.95696163 1.07944655 -0.58339524
v 7.72421741 0.87474412 -0.57213646
v 7.95696163 1.07944655 -0.58339524
v 7.95430946 1.07493210 -0.58323365
v 7.72421741 0.87474412 -0.57213646
v 7.95430946 1.07493210 -0.58323365
v 7.95109129 1.07080185 -0.58305818
v 7.72421741 0.87474412 -0.57213646
v 7.95109129 1.07080185 -0.58305818
v 7.94736147 1.06712639 -0.58287174
vt 0.00000000 0.00000000
vt 0.00000000 0.00000000
vt 0.00000000 0.00000000
vt 0.00000000 0.00000000
vt 0.00000000 0.00000000
vt 0.00000000 0.00000000
vt 0.00000000 0.00000000
vt 0.00000000 0.00000000
vt 0.00000000 0.00000000
vt 0.00000000 0.00000000
vt 0.00000000 0.00000000
vt 0.00000000 0.00000000
vt 0.00000000 0.00000000
vt 0.00000000 0.00000000
vt 0.00000000 0.00000000
vt 0.00000000 0.00000000
vt 0.00000000 0.00000000
vt 0.00000000 0.00000000
vt 0.00000000 0.00000000
vt 0.00000000 0.00000000
vt 0.00000000 0.00000000
vt 0.00000000 0.00000000
vt 0.00000000 0.00000000
vt 0.00000000 0.00000000
vt 0.00000000 0.00000000
vt 0.00000000 0.00000000
vt 0.00000000 0.00000000
vt 0.00000000 0.00000000
vt 0.00000000 0.00000000
vt 0.00000000 0.00000000
vt 0.00000000 0.00000000
vt 0.00000000 0.00000000
vt 0.00000000 0.00000000
vt 0.00000000 0.00000000
vt 0.00000000 0.00000000
vt 0.00000000 0.00000000
vt 0.00000000 0.00000000
vt 0.00000000 0.00000000
vt 0.00000000 0.00000000
vt 0.00000000 0.00000000
vt 0.00000000 0.00000000
vt 0.00000000 0.00000000
vt 0.00000000 0.00000000
vt 0.00000000 0.00000000
vt 0.00000000 0.00000000
vt 0.00000000 0.00000000
vt 0.00000000 0.00000000
vt 0.00000000 0.00000000
vt 0.00000000 0.00000000
vt 0.00000000 0.00000000
vt 0.00000000 0.00000000
vt 0.00000000 0.00000000
vt 0.00000000 0.00000000
vt 0.00000000 0.00000000
vt 0.00000000 0.00000000
vt 0.00000000 0.00000000
vt 0.00000000 0.00000000
vt 0.00000000 0.00000000
vt 0.00000000 0.00000000
vt 0.00000000 0.00000000
vt 0.00000000 0.00000000
vt 0.00000000 0.00000000
vt 0.00000000 0.00000000
vt 0.00000000 0.00000000
vt 0.00000000 0.00000000
vt 0.00000000 0.00000000
vt 0.00000000 0.00000000
vt 0.00000000 0.00000000
vt 0.00000000 0.00000000
vt 0.00000000 0.00000000
vt 0.00000000 0.00000000
vt 0.00000000 0.00000000
vt 0.00000000 0.00000000
vt 0.00000000 0.00000000
vt 0.00000000 0.00000000
vt 0.00000000 0.00000000
vt 0.00000000 0.00000000
vt 0.00000000 0.00000000
vt 0.00000000 0.00000000
vt 0.00000000 0.00000000
vt 0.00000000 0.00000000
vt 0.00000000 0.00000000
vt 0.00000000 0.00000000
vt 0.00000000 0.00000000
vt 0.00000000 0.00000000
vt 0.00000000 0.00000000
vt 0.00000000 0.00000000
vt 0.00000000 0.00000000
vt 0.00000000 0.00000000
vt 0.00000000 0.00000000
vt 0.00000000 0.00000000
vt 0.00000000 0.00000000
vt 0.00000000 0.00000000
vt 0.00000000 0.00000000
vt 0.00000000 0.00000000
vt 0.00000000 0.00000000
vt 0.00000000 0.00000000
vt 0.00000000 0.00000000
vt 0.00000000 0.00000000
vt 0.00000000 0.00000000
vt 0.00000000 0.00000000
vt 0.00000000 0.00000000
vt 0.00000000 0.00000000
vt 0.00000000 0.00000000
vt 0.00000000 0.00000000
vt 0.00000000 0.00000000
vt 0.00000000 0.00000000
vt 0.00000000 0.00000000
vt 0.00000000 0.00000000
vt 0.00000000 0.00000000
vt 0.00000000 0.00000000
vt 0.00000000 0.00000000
vt 0.00000000 0.00000000
vt 0.00000000 0.00000000
vt 0.00000000 0.00000000
vt 0.00000000 0.00000000
vt 0.00000000 0.00000000
vt 0.00000000 0.00000000
vt 0.00000000 0.00000000
vt 0.00000000 0.00000000
vt 0.00000000 0.00000000
vt 0.00000000 0.00000000
vt 0.00000000 0.00000000
vt 0.00000000 0.00000000
vt 0.00000000 0.00000000
vt 0.00000000 0.00000000
vt 0.00000000 0.00000000
vt 0.00000000 0.00000000
vt 0.00000000 0.00000000
vt 0.00000000 0.00000000
vt 0.00000000 0.00000000
vt 0.00000000 0.00000000
vt 0.00000000 0.00000000
vt 0.00000000 0.00000000
vt 0.00000000 0.00000000
vt 0.00000000 0.00000000
vt 0.00000000 0.00000000
vt 0.00000000 0.00000000
vt 0.00000000 0.00000000
vt 0.00000000 0.00000000
vt 0.00000000 0.00000000
vt 0.00000000 0.00000000
vt 0.00000000 0.00000000
vt 0.00000000 0.00000000
vt 0.00000000 0.00000000
vt 0.00000000 0.00000000
vt 0.00000000 0.00000000
vt 0.00000000 0.00000000
vt 0.00000000 0.00000000
vt 0.00000000 0.00000000
vt 0.00000000 0.00000000
vt 0.00000000 0.00000000
vt 0.00000000 0.00000000
vt 0.00000000 0.00000000
vt 0.00000000 0.00000000
vt 0.00000000 0.00000000
vt 0.00000000 0.00000000
vt 0.00000000 0.00000000
vt 0.00000000 0.00000000
vt 0.00000000 0.00000000
vt 0.00000000 0.00000000
vt 0.00000000 0.00000000
vt 0.00000000 0.00000000
vt 0.00000000 0.00000000
vt 0.00000000 0.00000000
vt 0.00000000 0.00000000
vt 0.00000000 0.00000000
vt 0.00000000 0.00000000
vt 0.00000000 0.00000000
vt 0.00000000 0.00000000
vt 0.00000000 0.00000000
vt 0.00000000 0.00000000
vt 0.00000000 0.00000000
vt 0.00000000 0.00000000
vt 0.00000000 0.00000000
vt 0.00000000 0.00000000
vt 0.00000000 0.00000000
vt 0.00000000 0.00000000
vt 0.00000000 0.00000000
vt 0.00000000 0.00000000
vt 0.00000000 0.00000000
vt 0.00000000 0.00000000
vt 0.00000000 0.00000000
vt 0.00000000 0.00000000
vt 0.00000000 0.00000000
vt 0.00000000 0.00000000
vt 0.00000000 0.00000000
vt 0.00000000 0.00000000
vt 0.00000000 0.00000000
vt 0.00000000 0.00000000
vt 0.00000000 0.00000000
vt 0.00000000 0.00000000
vt 0.00000000 0.00000000
vt 0.00000000 0.00000000
vt 0.00000000 0.00000000
vt 0.00000000 0.00000000
vt 0.00000000 0.00000000
vt 0.00000000 0.00000000
vt 0.00000000 0.00000000
vt 0.00000000 0.00000000
vt 0.00000000 0.00000000
vt 0.00000000 0.00000000
vt 0.00000000 0.00000000
vt 0.00000000 0.00000000
vt 0.00000000 0.00000000
vt 0.00000000 0.00000000
vt 0.00000000 0.00000000
vt 0.00000000 0.00000000
vt 0.00000000 0.00000000
vt 0.00000000 0.00000000
vt 0.00000000 0.00000000
vt 0.00000000 0.00000000
vt 0.00000000 0.00000000
vt 0.00000000 0.00000000
vt 0.00000000 0.00000000
vt 0.00000000 0.00000000
vt 0.00000000 0.00000000
vt 0.00000000 0.00000000
vt 0.00000000 0.00000000
vt 0.00000000 0.00000000
vt 0.00000000 0.00000000
vt 0.00000000 0.00000000
vt 0.00000000 0.00000000
vt 0.00000000 0.00000000
vt 0.00000000 0.00000000
vt 0.00000000 0.00000000
vt 0.00000000 0.00000000
vt 0.00000000 0.00000000
vt 0.00000000 0.00000000
vt 0.00000000 0.00000000
vt 0.00000000 0.00000000
vt 0.00000000 0.00000000
vt 0.00000000 0.00000000
vt 0.00000000 0.00000000
vt 0.00000000 0.00000000
vt 0.00000000 0.00000000
vt 0.00000000 0.00000000
vt 0.00000000 0.00000000
vt 0.00000000 0.00000000
vt 0.00000000 0.00000000
vt 0.00000000 0.00000000
vt 0.00000000 0.00000000
vt 0.00000000 0.00000000
vt 0.00000000 0.00000000
vt 0.00000000 0.00000000
vt 0.00000000 0.00000000
vt 0.00000000 0.00000000
vt 0.00000000 0.00000000
vt 0.00000000 0.00000000
vt 0.00000000 0.00000000
vt 0.00000000 0.00000000
vt 0.00000000 0.00000000
vt 0.00000000 0.00000000
vt 0.00000000 0.00000000
vt 0.00000000 0.00000000
vt 0.00000000 0.00000000
vt 0.00000000 0.00000000
vt 0.00000000 0.00000000
vt 0.00000000 0.00000000
vt 0.00000000 0.00000000
vt 0.00000000 0.00000000
vt 0.00000000 0.00000000
vt 0.00000000 0.00000000
vt 0.00000000 0.00000000
vt 0.00000000 0.00000000
vt 0.00000000 0.00000000
vt 0.00000000 0.00000000
vt 0.00000000 0.00000000
vt 0.00000000 0.00000000
vt 0.00000000 0.00000000
vt 0.00000000 0.00000000
vt 0.00000000 0.00000000
vt 0.00000000 0.00000000
vt 0.00000000 0.00000000
vt 0.00000000 0.00000000
vt 0.00000000 0.00000000
vt 0.00000000 0.00000000
vt 0.00000000 0.00000000
vt 0.00000000 0.00000000
vt 0.00000000 0.00000000
vt 0.00000000 0.00000000
vt 0.00000000 0.00000000
vt 0.00000000 0.00000000
vt 0.00000000 0.00000000
vt 0.00000000 0.00000000
vt 0.00000000 0.00000000
vt 0.00000000 0.00000000
vt 0.00000000 0.00000000
vt 0.00000000 0.00000000
vt 0.00000000 0.00000000
vt 0.00000000 0.00000000
vt 0.00000000 0.00000000
vt 0.00000000 0.00000000
vt 0.00000000 0.00000000
vt 0.00000000 0.00000000
vt 0.00000000 0.00000000
vt 0.00000000 0.00000000
vt 0.00000000 0.00000000
vt 0.00000000 0.00000000
vt 0.00000000 0.00000000
vt 0.00000000 0.00000000
vt 0.00000000 0.00000000
vt 0.00000000 0.00000000
vt 0.00000000 0.00000000
vt 0.00000000 0.00000000
vt 0.00000000 0.00000000
vt 0.00000000 0.00000000
vt 0.00000000 0.00000000
vt 0.00000000 0.00000000
vt 0.00000000 0.00000000
vt 0.00000000 0.00000000
vt 0.00000000 0.00000000
vt 0.00000000 0.00000000
vt 0.00000000 0.00000000
vt 0.00000000 0.00000000
vt 0.00000000 0.00000000
vt 0.00000000 0.00000000
vt 0.00000000 0.00000000
vt 0.00000000 0.00000000
vt 0.00000000 0.00000000
vt 0.00000000 0.00000000
vt 0.00000000 0.00000000
vt 0.00000000 0.00000000
vt 0.00000000 0.00000000
vt 0.00000000 0.00000000
vt 0.00000000 0.00000000
vt 0.00000000 0.00000000
vt 0.00000000 0.00000000
vt 0.00000000 0.00000000
vt 0.00000000 0.00000000
vt 0.00000000 0.00000000
vt 0.00000000 0.00000000
vt 0.00000000 0.00000000
vt 0.00000000 0.00000000
vt 0.00000000 0.00000000
vt 0.00000000 0.00000000
vt 0.00000000 0.00000000
vt 0.00000000 0.00000000
vt 0.00000000 0.00000000
vt 0.00000000 0.00000000
vt 0.00000000 0.00000000
vt 0.00000000 0.00000000
vt 0.00000000 0.00000000
vt 0.00000000 0.00000000
vt 0.00000000 0.00000000
vt 0.00000000 0.00000000
vt 0.00000000 0.00000000
vt 0.00000000 0.00000000
vt 0.00000000 0.00000000
vt 0.00000000 0.00000000
vt 0.00000000 0.00000000
vt 0.00000000 0.00000000
vt 0.00000000 0.00000000
vt 0.00000000 0.00000000
vt 0.00000000 0.00000000
vt 0.00000000 0.00000000
vt 0.00000000 0.00000000
vt 0.00000000 0.00000000
vt 0.00000000 0.00000000
vt 0.00000000 0.00000000
vt 0.00000000 0.00000000
vt 0.00000000 0.00000000
vt 0.00000000 0.00000000
vt 0.00000000 0.00000000
vt 0.00000000 0.00000000
vt 0.00000000 0.00000000
vt 0.00000000 0.00000000
vt 0.00000000 0.00000000
vt 0.00000000 0.00000000
vt 0.00000000 0.00000000
vt 0.00000000 0.00000000
vt 0.00000000 0.00000000
vt 0.00000000 0.00000000
vt 0.00000000 0.00000000
vt 0.00000000 0.00000000
vt 0.00000000 0.00000000
vt 0.00000000 0.00000000
vt 0.00000000 0.00000000
vt 0.00000000 0.00000000
vt 0.00000000 0.00000000
vt 0.00000000 0.00000000
vt 0.00000000 0.00000000
vt 0.00000000 0.00000000
vt 0.00000000 0.00000000
vt 0.00000000 0.00000000
vt 0.00000000 0.00000000
vt 0.00000000 0.00000000
vt 0.00000000 0.00000000
vt 0.00000000 0.00000000
vt 0.00000000 0.00000000
vt 0.00000000 0.00000000
vt 0.00000000 0.00000000
vt 0.00000000 0.00000000
vt 0.00000000 0.00000000
vt 0.00000000 0.00000000
vt 0.00000000 0.00000000
vt 0.00000000 0.00000000
vt 0.00000000 0.00000000
vt 0.00000000 0.00000000
vt 0.00000000 0.00000000
vt 0.00000000 0.00000000
vt 0.00000000 0.00000000
vt 0.00000000 0.00000000
vt 0.00000000 0.00000000
vt 0.00000000 0.00000000
vt 0.00000000 0.00000000
vt 0.00000000 0.00000000
vt 0.00000000 0.00000000
vt 0.00000000 0.00000000
vt 0.00000000 0.00000000
vt 0.00000000 0.00000000
vt 0.00000000 0.00000000
vt 0.00000000 0.00000000
vt 0.00000000 0.00000000
vt 0.00000000 0.00000000
vt 0.00000000 0.00000000
vt 0.00000000 0.00000000
vt 0.00000000 0.00000000
vt 0.00000000 0.00000000
vt 0.00000000 0.00000000
vt 0.00000000 0.00000000
vt 0.00000000 0.00000000
vt 0.00000000 0.00000000
vt 0.00000000 0.00000000
vt 0.00000000 0.00000000
vt 0.00000000 0.00000000
vt 0.00000000 0.00000000
vt 0.00000000 0.00000000
vt 0.00000000 0.00000000
vt 0.00000000 0.00000000
vt 0.00000000 0.00000000
vt 0.00000000 0.00000000
vt 0.00000000 0.00000000
vt 0.00000000 0.00000000
vt 0.00000000 0.00000000
vt 0.00000000 0.00000000
vt 0.00000000 0.00000000
vt 0.00000000 0.00000000
vt 0.00000000 0.00000000
vt 0.00000000 0.00000000
vt 0.00000000 0.00000000
vt 0.00000000 0.00000000
vt 0.00000000 0.00000000
vt 0.00000000 0.00000000
vt 0.00000000 0.00000000
vt 0.00000000 0.00000000
vt 0.00000000 0.00000000
vt 0.00000000 0.00000000
vt 0.00000000 0.00000000
vt 0.00000000 0.00000000
vt 0.00000000 0.00000000
vt 0.00000000 0.00000000
vt 0.00000000 0.00000000
vt 0.00000000 0.00000000
vt 0.00000000 0.00000000
vt 0.00000000 0.00000000
vt 0.00000000 0.00000000
vt 0.00000000 0.00000000
vt 0.00000000 0.00000000
vt 0.00000000 0.00000000
vt 0.00000000 0.00000000
vt 0.00000000 0.00000000
vt 0.00000000 0.00000000
vt 0.00000000 0.00000000
vt 0.00000000 0.00000000
vt 0.00000000 0.00000000
vt 0.00000000 0.00000000
vt 0.00000000 0.00000000
vt 0.00000000 0.00000000
vt 0.00000000 0.00000000
vt 0.00000000 0.00000000
vt 0.00000000 0.00000000
vt 0.00000000 0.00000000
vt 0.00000000 0.00000000
vt 0.00000000 0.00000000
vt 0.00000000 0.00000000
vt 0.00000000 0.00000000
vt 0.00000000 0.00000000
vt 0.00000000 0.00000000
vt 0.00000000 0.00000000
vt 0.00000000 0.00000000
vt 0.00000000 0.00000000
vt 0.00000000 0.00000000
vt 0.00000000 0.00000000
vt 0.00000000 0.00000000
vt 0.00000000 0.00000000
vt 0.00000000 0.00000000
vt 0.00000000 0.00000000
vt 0.00000000 0.00000000
vt 0.00000000 0.00000000
vt 0.00000000 0.00000000
vt 0.00000000 0.00000000
vt 0.00000000 0.00000000
vt 0.00000000 0.00000000
vt 0.00000000 0.00000000
vt 0.00000000 0.00000000
vt 0.00000000 0.00000000
vt 0.00000000 0.00000000
vt 0.00000000 0.00000000
vt 0.00000000 0.00000000
vt 0.00000000 0.00000000
vt 0.00000000 0.00000000
vt 0.00000000 0.00000000
vt 0.00000000 0.00000000
vt 0.00000000 0.00000000
vt 0.00000000 0.00000000
vt 0.00000000 0.00000000
vt 0.00000000 0.00000000
vt 0.00000000 0.00000000
vt 0.00000000 0.00000000
vt 0.00000000 0.00000000
vt 0.00000000 0.00000000
vt 0.00000000 0.00000000
vt 0.00000000 0.00000000
vt 0.00000000 0.00000000
vt 0.00000000 0.00000000
vt 0.00000000 0.00000000
vt 0.00000000 0.00000000
vt 0.00000000 0.00000000
vt 0.00000000 0.00000000
vt 0.00000000 0.00000000
vt 0.00000000 0.00000000
vt 0.00000000 0.00000000
vt 0.00000000 0.00000000
vt 0.00000000 0.00000000
vt 0.00000000 0.00000000
vt 0.00000000 0.00000000
vt 0.00000000 0.00000000
vt 0.00000000 0.00000000
vt 0.00000000 0.00000000
vt 0.00000000 0.00000000
vt 0.00000000 0.00000000
vt 0.00000000 0.00000000
vt 0.00000000 0.00000000
vt 0.00000000 0.00000000
vt 0.00000000 0.00000000
vt 0.00000000 0.00000000
vt 0.00000000 0.00000000
vt 0.00000000 0.00000000
vt 0.00000000 0.00000000
vt 0.00000000 0.00000000
vt 0.00000000 0.00000000
vt 0.00000000 0.00000000
vt 0.00000000 0.00000000
vt 0.00000000 0.00000000
vt 0.00000000 0.00000000
vt 0.00000000 0.00000000
vt 0.00000000 0.00000000
vt 0.00000000 0.00000000
vt 0.00000000 0.00000000
vt 0.00000000 0.00000000
vt 0.00000000 0.00000000
vt 0.00000000 0.00000000
vt 0.00000000 0.00000000
vt 0.00000000 0.00000000
vt 0.00000000 0.00000000
vt 0.00000000 0.00000000
vt 0.00000000 0.00000000
vt 0.00000000 0.00000000
vt 0.00000000 0.00000000
vt 0.00000000 0.00000000
vt 0.00000000 0.00000000
vt 0.00000000 0.00000000
vt 0.00000000 0.00000000
vt 0.00000000 0.00000000
vt 0.00000000 0.00000000
vt 0.00000000 0.00000000
vt 0.00000000 0.00000000
vt 0.00000000 0.00000000
vt 0.00000000 0.00000000
vt 0.00000000 0.00000000
vt 0.00000000 0.00000000
vt 0.00000000 0.00000000
vt 0.00000000 0.00000000
vt 0.00000000 0.00000000
vt 0.00000000 0.00000000
vt 0.00000000 0.00000000
vt 0.00000000 0.00000000
vt 0.00000000 0.00000000
vt 0.00000000 0.00000000
vt 0.00000000 0.00000000
vt 0.00000000 0.00000000
vt 0.00000000 0.00000000
vt 0.00000000 0.00000000
vt 0.00000000 0.00000000
vt 0.00000000 0.00000000
vt 0.00000000 0.00000000
vt 0.00000000 0.00000000
vt 0.00000000 0.00000000
vt 0.00000000 0.00000000
vt 0.00000000 0.00000000
vt 0.00000000 0.00000000
vt 0.00000000 0.00000000
vt 0.00000000 0.00000000
vt 0.00000000 0.00000000
vt 0.00000000 0.00000000
vt 0.00000000 0.00000000
vt 0.00000000 0.00000000
vt 0.00000000 0.00000000
vt 0.00000000 0.00000000
vt 0.00000000 0.00000000
vt 0.00000000 0.00000000
vt 0.00000000 0.00000000
vt 0.00000000 0.00000000
vt 0.00000000 0.00000000
vt 0.00000000 0.00000000
vt 0.00000000 0.00000000
vt 0.00000000 0.00000000
vt 0.00000000 0.00000000
vt 0.00000000 0.00000000
vt 0.00000000 0.00000000
vt 0.00000000 0.00000000
vt 0.00000000 0.00000000
vt 0.00000000 0.00000000
vt 0.00000000 0.00000000
vt 0.00000000 0.00000000
vt 0.00000000 0.00000000
vt 0.00000000 0.00000000
vt 0.00000000 0.00000000
vt 0.00000000 0.00000000
vt 0.00000000 0.00000000
vt 0.00000000 0.00000000
vt 0.00000000 0.00000000
vt 0.00000000 0.00000000
vt 0.00000000 0.00000000
vt 0.00000000 0.00000000
vt 0.00000000 0.00000000
vt 0.00000000 0.00000000
vt 0.00000000 0.00000000
vt 0.00000000 0.00000000
vt 0.00000000 0.00000000
vt 0.00000000 0.00000000
vt 0.00000000 0.00000000
vt 0.00000000 0.00000000
vt 0.00000000 0.00000000
vt 0.00000000 0.00000000
vt 0.00000000 0.00000000
vt 0.00000000 0.00000000
vt 0.00000000 0.00000000
vt 0.00000000 0.00000000
vt 0.00000000 0.00000000
vt 0.00000000 0.00000000
vt 0.00000000 0.00000000
vt 0.00000000 0.00000000
vt 0.00000000 0.00000000
vt 0.00000000 0.00000000
vt 0.00000000 0.00000000
vt 0.00000000 0.00000000
vt 0.00000000 0.00000000
vt 0.00000000 0.00000000
vt 0.00000000 0.00000000
vt 0.00000000 0.00000000
vt 0.00000000 0.00000000
vt 0.00000000 0.00000000
vt 0.00000000 0.00000000
vt 0.00000000 0.00000000
vt 0.00000000 0.00000000
vt 0.00000000 0.00000000
vt 0.00000000 0.00000000
vt 0.00000000 0.00000000
vt 0.00000000 0.00000000
vt 0.00000000 0.00000000
vt 0.00000000 0.00000000
vt 0.00000000 0.00000000
vt 0.00000000 0.00000000
vt 0.00000000 0.00000000
vt 0.00000000 0.00000000
vt 0.00000000 0.00000000
vt 0.00000000 0.00000000
vt 0.00000000 0.00000000
vt 0.00000000 0.00000000
vt 0.00000000 0.00000000
vt 0.00000000 0.00000000
vt 0.00000000 0.00000000
vt 0.00000000 0.00000000
vt 0.00000000 0.00000000
vt 0.00000000 0.00000000
vt 0.00000000 0.00000000
vt 0.00000000 0.00000000
vt 0.00000000 0.00000000
vt 0.00000000 0.00000000
vt 0.00000000 0.00000000
vt 0.00000000 0.00000000
vt 0.00000000 0.00000000
vt 0.00000000 0.00000000
vt 0.00000000 0.00000000
vt 0.00000000 0.00000000
vt 0.00000000 0.00000000
vt 0.00000000 0.00000000
vt 0.00000000 0.00000000
vt 0.00000000 0.00000000
vt 0.00000000 0.00000000
vt 0.00000000 0.00000000
vt 0.00000000 0.00000000
vt 0.00000000 0.00000000
vt 0.00000000 0.00000000
vt 0.00000000 0.00000000
vt 0.00000000 0.00000000
vt 0.00000000 0.00000000
vt 0.00000000 0.00000000
vt 0.00000000 0.00000000
vt 0.00000000 0.00000000
vt 0.00000000 0.00000000
vt 0.00000000 0.00000000
vt 0.00000000 0.00000000
vt 0.00000000 0.00000000
vt 0.00000000 0.00000000
vt 0.00000000 0.00000000
vt 0.00000000 0.00000000
vt 0.00000000 0.00000000
vt 0.00000000 0.00000000
vt 0.00000000 0.00000000
vt 0.00000000 0.00000000
vt 0.00000000 0.00000000
vt 0.00000000 0.00000000
vt 0.00000000 0.00000000
vt 0.00000000 0.00000000
vt 0.00000000 0.00000000
vt 0.00000000 0.00000000
vt 0.00000000 0.00000000
vt 0.00000000 0.00000000
vt 0.00000000 0.00000000
vt 0.00000000 0.00000000
vt 0.00000000 0.00000000
vt 0.00000000 0.00000000
vt 0.00000000 0.00000000
vt 0.00000000 0.00000000
vt 0.00000000 0.00000000
vt 0.00000000 0.00000000
vt 0.00000000 0.00000000
vt 0.00000000 0.00000000
vt 0.00000000 0.00000000
vt 0.00000000 0.00000000
vt 0.00000000 0.00000000
vt 0.00000000 0.00000000
vt 0.00000000 0.00000000
vt 0.00000000 0.00000000
vt 0.00000000 0.00000000
vt 0.00000000 0.00000000
vt 0.00000000 0.00000000
vt 0.00000000 0.00000000
vt 0.00000000 0.00000000
vt 0.00000000 0.00000000
vt 0.00000000 0.00000000
vt 0.00000000 0.00000000
vt 0.00000000 0.00000000
vt 0.00000000 0.00000000
vt 0.00000000 0.00000000
vt 0.00000000 0.00000000
vt 0.00000000 0.00000000
vt 0.00000000 0.00000000
vt 0.00000000 0.00000000
vt 0.00000000 0.00000000
vt 0.00000000 0.00000000
vt 0.00000000 0.00000000
vt 0.00000000 0.00000000
vt 0.00000000 0.00000000
vt 0.00000000 0.00000000
vt 0.00000000 0.00000000
vt 0.00000000 0.00000000
vt 0.00000000 0.00000000
vt 0.00000000 0.00000000
vt 0.00000000 0.00000000
vt 0.00000000 0.00000000
vt 0.00000000 0.00000000
vt 0.00000000 0.00000000
vt 0.00000000 0.00000000
vt 0.00000000 0.00000000
vt 0.00000000 0.00000000
vt 0.00000000 0.00000000
vt 0.00000000 0.00000000
vt 0.00000000 0.00000000
vt 0.00000000 0.00000000
vt 0.00000000 0.00000000
vt 0.00000000 0.00000000
vt 0.00000000 0.00000000
vt 0.00000000 0.00000000
vt 0.00000000 0.00000000
vt 0.00000000 0.00000000
vt 0.00000000 0.00000000
vt 0.00000000 0.00000000
vt 0.00000000 0.00000000
vt 0.00000000 0.00000000
vt 0.00000000 0.00000000
vt 0.00000000 0.00000000
vt 0.00000000 0.00000000
vt 0.00000000 0.00000000
vt 0.00000000 0.00000000
vt 0.00000000 0.00000000
vt 0.00000000 0.00000000
vt 0.00000000 0.00000000
vt 0.00000000 0.00000000
vt 0.00000000 0.00000000
vt 0.00000000 0.00000000
vt 0.00000000 0.00000000
vt 0.00000000 0.00000000
vt 0.00000000 0.00000000
vt 0.00000000 0.00000000
vt 0.00000000 0.00000000
vt 0.00000000 0.00000000
vt 0.00000000 0.00000000
vt 0.00000000 0.00000000
vt 0.00000000 0.00000000
vt 0.00000000 0.00000000
vt 0.00000000 0.00000000
vt 0.00000000 0.00000000
vt 0.00000000 0.00000000
vt 0.00000000 0.00000000
vt 0.00000000 0.00000000
vt 0.00000000 0.00000000
vt 0.00000000 0.00000000
vt 0.00000000 0.00000000
vt 0.00000000 0.00000000
vt 0.00000000 0.00000000
vt 0.00000000 0.00000000
vt 0.00000000 0.00000000
vt 0.00000000 0.00000000
vt 0.00000000 0.00000000
vt 0.00000000 0.00000000
vt 0.00000000 0.00000000
vt 0.00000000 0.00000000
vt 0.00000000 0.00000000
vt 0.00000000 0.00000000
vt 0.00000000 0.00000000
vt 0.00000000 0.00000000
vt 0.00000000 0.00000000
vt 0.00000000 0.00000000
vt 0.00000000 0.00000000
vt 0.00000000 0.00000000
vt 0.00000000 0.00000000
vt 0.00000000 0.00000000
vt 0.00000000 0.00000000
vt 0.00000000 0.00000000
vt 0.00000000 0.00000000
vt 0.00000000 0.00000000
vt 0.00000000 0.00000000
vt 0.00000000 0.00000000
vt 0.00000000 0.00000000
vt 0.00000000 0.00000000
vt 0.00000000 0.00000000
vt 0.00000000 0.00000000
vt 0.00000000 0.00000000
vt 0.00000000 0.00000000
vt 0.00000000 0.00000000
vt 0.00000000 0.00000000
vt 0.00000000 0.00000000
vt 0.00000000 0.00000000
vt 0.00000000 0.00000000
vt 0.00000000 0.00000000
vt 0.00000000 0.00000000
vt 0.00000000 0.00000000
vt 0.00000000 0.00000000
vt 0.00000000 0.00000000
vt 0.00000000 0.00000000
vt 0.00000000 0.00000000
vt 0.00000000 0.00000000
vt 0.00000000 0.00000000
vt 0.00000000 0.00000000
vt 0.00000000 0.00000000
vt 0.00000000 0.00000000
vt 0.00000000 0.00000000
vt 0.00000000 0.00000000
vt 0.00000000 0.00000000
vt 0.00000000 0.00000000
vt 0.00000000 0.00000000
vt 0.00000000 0.00000000
vt 0.00000000 0.00000000
vt 0.00000000 0.00000000
vt 0.00000000 0.00000000
vt 0.00000000 0.00000000
vt 0.00000000 0.00000000
vt 0.00000000 0.00000000
vt 0.00000000 0.00000000
vt 0.00000000 0.00000000
vt 0.00000000 0.00000000
vt 0.00000000 0.00000000
vt 0.00000000 0.00000000
vt 0.00000000 0.00000000
vt 0.00000000 0.00000000
vt 0.00000000 0.00000000
vt 0.00000000 0.00000000
vt 0.00000000 0.00000000
vt 0.00000000 0.00000000
vt 0.00000000 0.00000000
vt 0.00000000 0.00000000
vt 0.00000000 0.00000000
vt 0.00000000 0.00000000
vt 0.00000000 0.00000000
vt 0.00000000 0.00000000
vt 0.00000000 0.00000000
vt 0.00000000 0.00000000
vt 0.00000000 0.00000000
vt 0.00000000 0.00000000
vt 0.00000000 0.00000000
vt 0.00000000 0.00000000
vt 0.00000000 0.00000000
vt 0.00000000 0.00000000
vt 0.00000000 0.00000000
vt 0.00000000 0.00000000
vt 0.00000000 0.00000000
vt 0.00000000 0.00000000
vt 0.00000000 0.00000000
vt 0.00000000 0.00000000
vt 0.00000000 0.00000000
vt 0.00000000 0.00000000
vt 0.00000000 0.00000000
vt 0.00000000 0.00000000
vt 0.00000000 0.00000000
vt 0.00000000 0.00000000
vt 0.00000000 0.00000000
vt 0.00000000 0.00000000
vt 0.00000000 0.00000000
vt 0.00000000 0.00000000
vt 0.00000000 0.00000000
vt 0.00000000 0.00000000
vt 0.00000000 0.00000000
vt 0.00000000 0.00000000
vt 0.00000000 0.00000000
vt 0.00000000 0.00000000
vt 0.00000000 0.00000000
vt 0.00000000 0.00000000
vt 0.00000000 0.00000000
vt 0.00000000 0.00000000
vt 0.00000000 0.00000000
vt 0.00000000 0.00000000
vt 0.00000000 0.00000000
vt 0.00000000 0.00000000
vt 0.00000000 0.00000000
vt 0.00000000 0.00000000
vt 0.00000000 0.00000000
vt 0.00000000 0.00000000
vt 0.00000000 0.00000000
vt 0.00000000 0.00000000
vt 0.00000000 0.00000000
vt 0.00000000 0.00000000
vt 0.00000000 0.00000000
vt 0.00000000 0.00000000
vt 0.00000000 0.00000000
vt 0.00000000 0.00000000
vt 0.00000000 0.00000000
vt 0.00000000 0.00000000
vt 0.00000000 0.00000000
vt 0.00000000 0.00000000
vt 0.00000000 0.00000000
vt 0.00000000 0.00000000
vt 0.00000000 0.00000000
vt 0.00000000 0.00000000
vt 0.00000000 0.00000000
vt 0.00000000 0.00000000
vt 0.00000000 0.00000000
vt 0.00000000 0.00000000
vt 0.00000000 0.00000000
vt 0.00000000 0.00000000
vt 0.00000000 0.00000000
vt 0.00000000 0.00000000
vt 0.00000000 0.00000000
vt 0.00000000 0.00000000
vt 0.00000000 0.00000000
vt 0.00000000 0.00000000
vt 0.00000000 0.00000000
vt 0.00000000 0.00000000
vt 0.00000000 0.00000000
vt 0.00000000 0.00000000
vt 0.00000000 0.00000000
vt 0.00000000 0.00000000
vt 0.00000000 0.00000000
vt 0.00000000 0.00000000
vt 0.00000000 0.00000000
vt 0.00000000 0.00000000
vt 0.00000000 0.00000000
vt 0.00000000 0.00000000
vt 0.00000000 0.00000000
vt 0.00000000 0.00000000
vt 0.00000000 0.00000000
vt 0.00000000 0.00000000
vt 0.00000000 0.00000000
vt 0.00000000 0.00000000
vt 0.00000000 0.00000000
vt 0.00000000 0.00000000
vt 0.00000000 0.00000000
vt 0.00000000 0.00000000
vt 0.00000000 0.00000000
vt 0.00000000 0.00000000
vt 0.00000000 0.00000000
vt 0.00000000 0.00000000
vt 0.00000000 0.00000000
vt 0.00000000 0.00000000
vt 0.00000000 0.00000000
vt 0.00000000 0.00000000
vt 0.00000000 0.00000000
vt 0.00000000 0.00000000
vt 0.00000000 0.00000000
vt 0.00000000 0.00000000
vt 0.00000000 0.00000000
vt 0.00000000 0.00000000
vt 0.00000000 0.00000000
vt 0.00000000 0.00000000
vt 0.00000000 0.00000000
vt 0.00000000 0.00000000
vt 0.00000000 0.00000000
vt 0.00000000 0.00000000
vt 0.00000000 0.00000000
vt 0.00000000 0.00000000
vt 0.00000000 0.00000000
vt 0.00000000 0.00000000
vt 0.00000000 0.00000000
vt 0.00000000 0.00000000
vt 0.00000000 0.00000000
vt 0.00000000 0.00000000
vt 0.00000000 0.00000000
vt 0.00000000 0.00000000
vt 0.00000000 0.00000000
vt 0.00000000 0.00000000
vt 0.00000000 0.00000000
vt 0.00000000 0.00000000
vt 0.00000000 0.00000000
vt 0.00000000 0.00000000
vt 0.00000000 0.00000000
vt 0.00000000 0.00000000
vt 0.00000000 0.00000000
vt 0.00000000 0.00000000
vt 0.00000000 0.00000000
vt 0.00000000 0.00000000
vt 0.00000000 0.00000000
vt 0.00000000 0.00000000
vt 0.00000000 0.00000000
vt 0.00000000 0.00000000
vt 0.00000000 0.00000000
vt 0.00000000 0.00000000
vt 0.00000000 0.00000000
vt 0.00000000 0.00000000
vt 0.00000000 0.00000000
vt 0.00000000 0.00000000
vt 0.00000000 0.00000000
vt 0.00000000 0.00000000
vt 0.00000000 0.00000000
vt 0.00000000 0.00000000
vt 0.00000000 0.00000000
vt 0.00000000 0.00000000
vt 0.00000000 0.00000000
vt 0.00000000 0.00000000
vt 0.00000000 0.00000000
vt 0.00000000 0.00000000
vt 0.00000000 0.00000000
vt 0.00000000 0.00000000
vt 0.00000000 0.00000000
vt 0.00000000 0.00000000
vt 0.00000000 0.00000000
vt 0.00000000 0.00000000
vt 0.00000000 0.00000000
vt 0.00000000 0.00000000
vt 0.00000000 0.00000000
vt 0.00000000 0.00000000
vt 0.00000000 0.00000000
vt 0.00000000 0.00000000
vt 0.00000000 0.00000000
vt 0.00000000 0.00000000
vt 0.00000000 0.00000000
vt 0.00000000 0.00000000
vt 0.00000000 0.00000000
vt 0.00000000 0.00000000
vt 0.00000000 0.00000000
vt 0.00000000 0.00000000
vt 0.00000000 0.00000000
vt 0.00000000 0.00000000
vt 0.00000000 0.00000000
vt 0.00000000 0.00000000
vt 0.00000000 0.00000000
vt 0.00000000 0.00000000
vt 0.00000000 0.00000000
vt 0.00000000 0.00000000
vt 0.00000000 0.00000000
vt 0.00000000 0.00000000
vt 0.00000000 0.00000000
vt 0.00000000 0.00000000
vt 0.00000000 0.00000000
vt 0.00000000 0.00000000
vt 0.00000000 0.00000000
vt 0.00000000 0.00000000
vt 0.00000000 0.00000000
vt 0.00000000 0.00000000
vt 0.00000000 0.00000000
vt 0.00000000 0.00000000
vt 0.00000000 0.00000000
vt 0.00000000 0.00000000
vt 0.00000000 0.00000000
vt 0.00000000 0.00000000
vt 0.00000000 0.00000000
vt 0.00000000 0.00000000
vt 0.00000000 0.00000000
vt 0.00000000 0.00000000
vt 0.00000000 0.00000000
vt 0.00000000 0.00000000
vt 0.00000000 0.00000000
vt 0.00000000 0.00000000
vt 0.00000000 0.00000000
vt 0.00000000 0.00000000
vt 0.00000000 0.00000000
vt 0.00000000 0.00000000
vt 0.00000000 0.00000000
vt 0.00000000 0.00000000
vt 0.00000000 0.00000000
vt 0.00000000 0.00000000
vt 0.00000000 0.00000000
vt 0.00000000 0.00000000
vt 0.00000000 0.00000000
vt 0.00000000 0.00000000
vt 0.00000000 0.00000000
vt 0.00000000 0.00000000
vt 0.00000000 0.00000000
vt 0.00000000 0.00000000
vt 0.00000000 0.00000000
vt 0.00000000 0.00000000
vt 0.00000000 0.00000000
vt 0.00000000 0.00000000
vt 0.00000000 0.00000000
vt 0.00000000 0.00000000
vt 0.00000000 0.00000000
vt 0.00000000 0.00000000
vt 0.00000000 0.00000000
vt 0.00000000 0.00000000
vt 0.00000000 0.00000000
vt 0.00000000 0.00000000
vt 0.00000000 0.00000000
vt 0.00000000 0.00000000
vt 0.00000000 0.00000000
vt 0.00000000 0.00000000
vt 0.00000000 0.00000000
vt 0.00000000 0.00000000
vt 0.00000000 0.00000000
vt 0.00000000 0.00000000
vt 0.00000000 0.00000000
vt 0.00000000 0.00000000
vt 0.00000000 0.00000000
vt 0.00000000 0.00000000
vt 0.00000000 0.00000000
vt 0.00000000 0.00000000
vt 0.00000000 0.00000000
vt 0.00000000 0.00000000
vt 0.00000000 0.00000000
f 1/1 2/2 3/3
f 4/4 5/5 6/6
f 7/7 8/8 9/9
f 10/10 11/11 12/12
f 13/13 14/14 15/15
f 16/16 17/17 18/18
f 19/19 20/20 21/21
f 22/22 23/23 24/24
f 25/25 26/26 27/27
f 28/28 29/29 30/30
f 31/31 32/32 33/33
f 34/34 35/35 36/36
f 37/37 38/38 39/39
f 40/40 41/41 42/42
f 43/43 44/44 45/45
f 46/46 47/47 48/48
f 49/49 50/50 51/51
f 52/52 53/53 54/54
f 55/55 56/56 57/57
f 58/58 59/59 60/60
f 61/61 62/62 63/63
f 64/64 65/65 66/66
f 67/67 68/68 69/69
f 70/70 71/71 72/72
f 73/73 74/74 75/75
f 76/76 77/77 78/78
f 79/79 80/80 81/81
f 82/82 83/83 84/84
f 85/85 86/86 87/87
f 88/88 89/89 90/90
f 91/91 92/92 93/93
f 94/94 95/95 96/96
f 97/97 98/98 99/99
f 100/100 101/101 102/102
f 103/103 104/104 105/105
f 106/106 107/107 108/108
f 109/109 110/110 111/111
f 112/112 113/113 114/114
f 115/115 116/116 117/117
f 118/118 119/119 120/120
f 121/121 122/122 123/123
f 124/124 125/125 126/126
f 127/127 128/128 129/129
f 130/130 131/131 132/132
f 133/133 134/134 135/135
f 136/136 137/137 138/138
f 139/139 140/140 141/141
f 142/142 143/143 144/144
f 145/145 146/146 147/147
f 148/148 149/149 150/150
f 151/151 152/152 153/153
f 154/154 155/155 156/156
f 157/157 158/158 159/159
f 160/160 161/161 162/162
f 163/163 164/164 165/165
f 166/166 167/167 168/168
f 169/169 170/170 171/171
f 172/172 173/173 174/174
f 175/175 176/176 177/177
f 178/178 179/179 180/180
f 181/181 182/182 183/183
f 184/184 185/185 186/186
f 187/187 188/188 189/189
f 190/190 191/191 192/192
f 193/193 194/194 195/195
f 196/196 197/197 198/198
f 199/199 200/200 201/201
f 202/202 203/203 204/204
f 205/205 206/206 207/207
f 208/208 209/209 210/210
f 211/211 212/212 213/213
f 214/214 215/215 216/216
f 217/217 218/218 219/219
f 220/220 221/221 222/222
f 223/223 224/224 225/225
f 226/226 227/227 228/228
f 229/229 230/230 231/231
f 232/232 233/233 234/234
f 235/235 236/236 237/237
f 238/238 239/239 240/240
f 241/241 242/242 243/243
f 244/244 245/245 246/246
f 247/247 248/248 249/249
f 250/250 251/251 252/252
f 253/253 254/254 255/255
f 256/256 257/257 258/258
f 259/259 260/260 261/261
f 262/262 263/263 264/264
f 265/265 266/266 267/267
f 268/268 269/269 270/270
f 271/271 272/272 273/273
f 274/274 275/275 276/276
f 277/277 278/278 279/279
f 280/280 281/281 282/282
f 283/283 284/284 285/285
f 286/286 287/287 288/288
f 289/289 290/290 291/291
f 292/292 293/293 294/294
f 295/295 296/296 297/297
f 298/298 299/299 300/300
f 301/301 302/302 303/303
f 304/304 305/305 306/306
f 307/307 308/308 309/309
f 310/310 311/311 312/312
f 313/313 314/314 315/315
f 316/316 317/317 318/318
f 319/319 320/320 321/321
f 322/322 323/323 324/324
f 325/325 326/326 327/327
f 328/328 329/329 330/330
f 331/331 332/332 333/333
f 334/334 335/335 336/336
f 337/337 338/338 339/339
f 340/340 341/341 342/342
f 343/343 344/344 345/345
f 346/346 347/347 348/348
f 349/349 350/350 351/351
f 352/352 353/353 354/354
f 355/355 356/356 357/357
f 358/358 359/359 360/360
f 361/361 362/362 363/363
f 364/364 365/365 366/366
f 367/367 368/368 369/369
f 370/370 371/371 372/372
f 373/373 374/374 375/375
f 376/376 377/377 378/378
f 379/379 380/380 381/381
f 382/382 383/383 384/384
f 385/385 386/386 387/387
f 388/388 389/389 390/390
f 391/391 392/392 393/393
f 394/394 395/395 396/396
f 397/397 398/398 399/399
f 400/400 401/401 402/402
f 403/403 404/404 405/405
f 406/406 407/407 408/408
f 409/409 410/410 411/411
f 412/412 413/413 414/414
f 415/415 416/416 417/417
f 418/418 419/419 420/420
f 421/421 422/422 423/423
f 424/424 425/425 426/426
f 427/427 428/428 429/429
f 430/430 431/431 432/432
f 433/433 434/434 435/435
f 436/436 437/437 438/438
f 439/439 440/440 441/441
f 442/442 443/443 444/444
f 445/445 446/446 447/447
f 448/448 449/449 450/450
f 451/451 452/452 453/453
f 454/454 455/455 456/456
f 457/457 458/458 459/459
f 460/460 461/461 462/462
f 463/463 464/464 465/465
f 466/466 467/467 468/468
f 469/469 470/470 471/471
f 472/472 473/473 474/474
f 475/475 476/476 477/477
f 478/478 479/479 480/480
f 481/481 482/482 483/483
f 484/484 485/485 486/486
f 487/487 488/488 489/489
f 490/490 491/491 492/492
f 493/493 494/494 495/495
f 496/496 497/497 498/498
f 499/499 500/500 501/501
f 502/502 503/503 504/504
f 505/505 506/506 507/507
f 508/508 509/509 510/510
f 511/511 512/512 513/513
f 514/514 515/515 516/516
f 517/517 518/518 519/519
f 520/520 521/521 522/522
f 523/523 524/524 525/525
f 526/526 527/527 528/528
f 529/529 530/530 531/531
f 532/532 533/533 534/534
f 535/535 536/536 537/537
f 538/538 539/539 540/540
f 541/541 542/542 543/543
f 544/544 545/545 546/546
f 547/547 548/548 549/549
f 550/550 551/551 552/552
f 553/553 554/554 555/555
f 556/556 557/557 558/558
f 559/559 560/560 561/561
f 562/562 563/563 564/564
f 565/565 566/566 567/567
f 568/568 569/569 570/570
f 571/571 572/572 573/573
f 574/574 575/575 576/576
f 577/577 578/578 579/579
f 580/580 581/581 582/582
f 583/583 584/584 585/585
f 586/586 587/587 588/588
f 589/589 590/590 591/591
f 592/592 593/593 594/594
f 595/595 596/596 597/597
f 598/598 599/599 600/600
f 601/601 602/602 603/603
f 604/604 605/605 606/606
f 607/607 608/608 609/609
f 610/610 611/611 612/612
f 613/613 614/614 615/615
f 616/616 617/617 618/618
f 619/619 620/620 621/621
f 622/622 623/623 624/624
f 625/625 626/626 627/627
f 628/628 629/629 630/630
f 631/631 632/632 633/633
f 634/634 635/635 636/636
f 637/637 638/638 639/639
f 640/640 641/641 642/642
f 643/643 644/644 645/645
f 646/646 647/647 648/648
f 649/649 650/650 651/651
f 652/652 653/653 654/654
f 655/655 656/656 657/657
f 658/658 659/659 660/660
f 661/661 662/662 663/663
f 664/664 665/665 666/666
f 667/667 668/668 669/669
f 670/670 671/671 672/672
f 673/673 674/674 675/675
f 676/676 677/677 678/678
f 679/679 680/680 681/681
f 682/682 683/683 684/684
f 685/685 686/686 687/687
f 688/688 689/689 690/690
f 691/691 692/692 693/693
f 694/694 695/695 696/696
f 697/697 698/698 699/699
f 700/700 701/701 702/702
f 703/703 704/704 705/705
f 706/706 707/707 708/708
f 709/709 710/710 711/711
f 712/712 713/713 714/714
f 715/715 716/716 717/717
f 718/718 719/719 720/720
f 721/721 722/722 723/723
f 724/724 725/725 726/726
f 727/727 728/728 729/729
f 730/730 731/731 732/732
f 733/733 734/734 735/735
f 736/736 737/737 738/738
f 739/739 740/740 741/741
f 742/742 743/743 744/744
f 745/745 746/746 747/747
f 748/748 749/749 750/750
f 751/751 752/752 753/753
f 754/754 755/755 756/756
f 757/757 758/758 759/759
f 760/760 761/761 762/762
f 763/763 764/764 765/765
f 766/766 767/767 768/768
f 769/769 770/770 771/771
f 772/772 773/773 774/774
f 775/775 776/776 777/777
f 778/778 779/779 780/780
f 781/781 782/782 783/783
f 784/784 785/785 786/786
f 787/787 788/788 789/789
f 790/790 791/791 792/792
f 793/793 794/794 795/795
f 796/796 797/797 798/798
f 799/799 800/800 801/801
f 802/802 803/803 804/804
f 805/805 806/806 807/807
f 808/808 809/809 810/810
f 811/811 812/812 813/813
f 814/814 815/815 816/816
f 817/817 818/818 819/819
f 820/820 821/821 822/822
f 823/823 824/824 825/825
f 826/826 827/827 828/828
f 829/829 830/830 831/831
f 832/832 833/833 834/834
f 835/835 836/836 837/837
f 838/838 839/839 840/840
f 841/841 842/842 843/843
f 844/844 845/845 846/846
f 847/847 848/848 849/849
f 850/850 851/851 852/852
f 853/853 854/854 855/855
f 856/856 857/857 858/858
f 859/859 860/860 861/861
f 862/862 863/863 864/864
f 865/865 866/866 867/867
f 868/868 869/869 870/870
f 871/871 872/872 873/873
f 874/874 875/875 876/876
f 877/877 878/878 879/879
f 880/880 881/881 882/882
f 883/883 884/884 885/885
f 886/886 887/887 888/888
f 889/889 890/890 891/891
f 892/892 893/893 894/894
f 895/895 896/896 897/897
f 898/898 899/899 900/900
f 901/901 902/902 903/903
f 904/904 905/905 906/906
f 907/907 908/908 909/909
f 910/910 911/911 912/912
f 913/913 914/914 915/915
f 916/916 917/917 918/918
f 919/919 920/920 921/921
f 922/922 923/923 924/924
f 925/925 926/926 927/927
f 928/928 929/929 930/930
f 931/931 932/932 933/933
f 934/934 935/935 936/936
f 937/937 938/938 939/939
f 940/940 941/941 942/942
f 943/943 944/944 945/945
f 946/946 947/947 948/948
f 949/949 950/950 951/951
f 952/952 953/953 954/954
f 955/955 956/956 957/957
f 958/958 959/959 960/960
f 961/961 962/962 963/963
f 964/964 965/965 966/966
f 967/967 968/968 969/969
f 970/970 971/971 972/972
f 973/973 974/974 975/975
f 976/976 977/977 978/978
f 979/979 980/980 981/981
f 982/982 983/983 984/984
f 985/985 986/986 987/987
f 988/988 989/989 990/990
f 991/991 992/992 993/993
f 994/994 995/995 996/996
f 997/997 998/998 999/999
f 1000/1000 1001/1001 1002/1002
f 1003/1003 1004/1004 1005/1005
f 1006/1006 1007/1007 1008/1008
f 1009/1009 1010/1010 1011/1011
f 1012/1012 1013/1013 1014/1014
f 1015/1015 1016/1016 1017/1017
f 1018/1018 1019/1019 1020/1020
f 1021/1021 1022/1022 1023/1023
f 1024/1024 1025/1025 1026/1026
f 1027/1027 1028/1028 1029/1029
f 1030/1030 1031/1031 1032/1032
f 1033/1033 1034/1034 1035/1035
f 1036/1036 1037/1037 1038/1038
f 1039/1039 1040/1040 1041/1041
f 1042/1042 1043/1043 1044/1044
f 1045/1045 1046/1046 1047/1047
f 1048/1048 1049/1049 1050/1050
f 1051/1051 1052/1052 1053/1053
f 1054/1054 1055/1055 1056/1056
f 1057/1057 1058/1058 1059/1059
f 1060/1060 1061/1061 1062/1062
f 1063/1063 1064/1064 1065/1065
f 1066/1066 1067/1067 1068/1068
f 1069/1069 1070/1070 1071/1071
f 1072/1072 1073/1073 1074/1074
f 1075/1075 1076/1076 1077/1077
f 1078/1078 1079/1079 1080/1080
f 1081/1081 1082/1082 1083/1083
f 1084/1084 1085/1085 1086/1086
f 1087/1087 1088/1088 1089/1089
f 1090/1090 1091/1091 1092/1092
f 1093/1093 1094/1094 1095/1095
f 1096/1096 1097/1097 1098/1098
f 1099/1099 1100/1100 1101/1101
f 1102/1102 1103/1103 1104/1104
f 1105/1105 1106/1106 1107/1107
f 1108/1108 1109/1109 1110/1110
f 1111/1111 1112/1112 1113/1113
f 1114/1114 1115/1115 1116/1116
f 1117/1117 1118/1118 1119/1119
f 1120/1120 1121/1121 1122/1122
f 1123/1123 1124/1124 1125/1125
f 1126/1126 1127/1127 1128/1128
f 1129/1129 1130/1130 1131/1131
f 1132/1132 1133/1133 1134/1134
f 1135/1135 1136/1136 1137/1137
f 1138/1138 1139/1139 1140/1140

