# https://github.com/mikedh/trimesh
mtllib material.mtl
usemtl PalePlastic
v 8.26474762 0.62112272 -0.35985509
v 8.41382599 0.44861254 -0.35985509
v 8.30186272 0.35185799 -0.36249173
v 8.26474762 0.62112272 -0.35985509
v 8.30186272 0.35185799 -0.36249173
v 8.15278530 0.52436811 -0.36249173
v 8.15254211 0.52415848 -0.34449458
v 8.30162048 0.35164830 -0.34449458
v 8.41358280 0.44840288 -0.34185794
v 8.15254211 0.52415848 -0.34449458
v 8.41358280 0.44840288 -0.34185794
v 8.26450443 0.62091303 -0.34185794
v 8.15278530 0.52436811 -0.36249173
v 8.30186272 0.35185799 -0.36249173
v 8.30162048 0.35164830 -0.34449458
v 8.15278530 0.52436811 -0.36249173
v 8.30162048 0.35164830 -0.34449458
v 8.15254211 0.52415848 -0.34449458
v 8.30186272 0.35185799 -0.36249173
v 8.41382599 0.44861254 -0.35985509
v 8.41358280 0.44840288 -0.34185794
v 8.30186272 0.35185799 -0.36249173
v 8.41358280 0.44840288 -0.34185794
v 8.30162048 0.35164830 -0.34449458
v 8.41382599 0.44861254 -0.35985509
v 8.26474762 0.62112272 -0.35985509
v 8.26450443 0.62091303 -0.34185794
v 8.41382599 0.44861254 -0.35985509
v 8.26450443 0.62091303 -0.34185794
v 8.41358280 0.44840288 -0.34185794
v 8.26474762 0.62112272 -0.35985509
v 8.15278530 0.52436811 -0.36249173
v 8.15254211 0.52415848 -0.34449458
v 8.26474762 0.62112272 -0.35985509
v 8.15254211 0.52415848 -0.34449458
v 8.26450443 0.62091303 -0.34185794
vt 0.00000000 0.00000000
vt 0.00000000 0.00000000
vt 0.00000000 0.00000000
vt 0.00000000 0.00000000
vt 0.00000000 0.00000000
vt 0.00000000 0.00000000
vt 0.00000000 0.00000000
vt 0.00000000 0.00000000
vt 0.00000000 0.00000000
vt 0.00000000 0.00000000
vt 0.00000000 0.00000000
vt 0.00000000 0.00000000
vt 0.00000000 0.00000000
vt 0.00000000 0.00000000
vt 0.00000000 0.00000000
vt 0.00000000 0.00000000
vt 0.00000000 0.00000000
vt 0.00000000 0.00000000
vt 0.00000000 0.00000000
vt 0.00000000 0.00000000
vt 0.00000000 0.00000000
vt 0.00000000 0.00000000
vt 0.00000000 0.00000000
vt 0.00000000 0.00000000
vt 0.00000000 0.00000000
vt 0.00000000 0.00000000
vt 0.00000000 0.00000000
vt 0.00000000 0.00000000
vt 0.00000000 0.00000000
vt 0.00000000 0.00000000
vt 0.00000000 0.00000000
vt 0.00000000 0.00000000
vt 0.00000000 0.00000000
vt 0.00000000 0.00000000
vt 0.00000000 0.00000000
vt 0.00000000 0.00000000
f 1/1 2/2 3/3
f 4/4 5/5 6/6
f 7/7 8/8 9/9
f 10/10 11/11 12/12
f 13/13 14/14 15/15
f 16/16 17/17 18/18
f 19/19 20/20 21/21
f 22/22 23/23 24/24
f 25/25 26/26 27/27
f 28/28 29/29 30/30
f 31/31 32/32 33/33
f 34/34 35/35 36/36

