# https://github.com/mikedh/trimesh
mtllib material.mtl
usemtl BlackEnclosure
v 7.63083696 0.61409938 0.14862603
v 7.99919558 0.93987852 0.14862603
v 8.26961613 0.63411421 0.14862603
v 7.63083696 0.61409938 0.14862603
v 8.26961613 0.63411421 0.14862603
v 7.90125751 0.30833507 0.14862603
v 7.90125751 0.30833507 0.14862603
v 8.26961613 0.63411421 0.14862603
v 8.26961613 0.63411421 -0.37500170
v 7.90125751 0.30833507 0.14862603
v 8.26961613 0.63411421 -0.37500170
v 7.90125751 0.30833507 -0.37500170
v 7.90125751 0.30833507 -0.37500170
v 8.26961613 0.63411421 -0.37500170
v 7.99919558 0.93987852 -0.37500170
v 7.90125751 0.30833507 -0.37500170
v 7.99919558 0.93987852 -0.37500170
v 7.63083696 0.61409938 -0.37500170
v 7.63083696 0.61409938 -0.37500170
v 7.99919558 0.93987852 -0.37500170
v 7.99919558 0.93987852 0.14862603
v 7.63083696 0.61409938 -0.37500170
v 7.99919558 0.93987852 0.14862603
v 7.63083696 0.61409938 0.14862603
v 7.99919558 0.93987852 -0.37500170
v 8.26961613 0.63411421 -0.37500170
v 8.26961613 0.63411421 0.14862603
v 7.99919558 0.93987852 -0.37500170
v 8.26961613 0.63411421 0.14862603
v 7.99919558 0.93987852 0.14862603
v 7.63083696 0.61409938 0.14862603
v 7.90125751 0.30833507 0.14862603
v 7.90125751 0.30833507 -0.37500170
v 7.63083696 0.61409938 0.14862603
v 7.90125751 0.30833507 -0.37500170
v 7.63083696 0.61409938 -0.37500170
vt 0.00000000 0.00000000
vt 0.00000000 0.00000000
vt 0.00000000 0.00000000
vt 0.00000000 0.00000000
vt 0.00000000 0.00000000
vt 0.00000000 0.00000000
vt 0.00000000 0.00000000
vt 0.00000000 0.00000000
vt 0.00000000 0.00000000
vt 0.00000000 0.00000000
vt 0.00000000 0.00000000
vt 0.00000000 0.00000000
vt 0.00000000 0.00000000
vt 0.00000000 0.00000000
vt 0.00000000 0.00000000
vt 0.00000000 0.00000000
vt 0.00000000 0.00000000
vt 0.00000000 0.00000000
vt 0.00000000 0.00000000
vt 0.00000000 0.00000000
vt 0.00000000 0.00000000
vt 0.00000000 0.00000000
vt 0.00000000 0.00000000
vt 0.00000000 0.00000000
vt 0.00000000 0.00000000
vt 0.00000000 0.00000000
vt 0.00000000 0.00000000
vt 0.00000000 0.00000000
vt 0.00000000 0.00000000
vt 0.00000000 0.00000000
vt 0.00000000 0.00000000
vt 0.00000000 0.00000000
vt 0.00000000 0.00000000
vt 0.00000000 0.00000000
vt 0.00000000 0.00000000
vt 0.00000000 0.00000000
f 1/1 2/2 3/3
f 4/4 5/5 6/6
f 7/7 8/8 9/9
f 10/10 11/11 12/12
f 13/13 14/14 15/15
f 16/16 17/17 18/18
f 19/19 20/20 21/21
f 22/22 23/23 24/24
f 25/25 26/26 27/27
f 28/28 29/29 30/30
f 31/31 32/32 33/33
f 34/34 35/35 36/36

