# https://github.com/mikedh/trimesh
mtllib material.mtl
usemtl WhiteSolidSurface
v 3.77550292 1.74032164 -0.32265002
v 3.65775585 1.87797987 -0.32031533
v 3.90468812 2.08925486 -0.32383904
v 3.77550292 1.74032164 -0.32265002
v 3.90468812 2.08925486 -0.32383904
v 4.02243519 1.95159674 -0.32617369
v 4.02301645 1.95150065 -0.29117867
v 3.90526962 2.08915877 -0.28884399
v 3.65833759 1.87788379 -0.28532031
v 4.02301645 1.95150065 -0.29117867
v 3.65833759 1.87788379 -0.28532031
v 3.77608466 1.74022555 -0.28765500
v 4.02243519 1.95159674 -0.32617369
v 3.90468812 2.08925486 -0.32383904
v 3.90526962 2.08915877 -0.28884399
v 4.02243519 1.95159674 -0.32617369
v 3.90526962 2.08915877 -0.28884399
v 4.02301645 1.95150065 -0.29117867
v 3.90468812 2.08925486 -0.32383904
v 3.65775585 1.87797987 -0.32031533
v 3.65833759 1.87788379 -0.28532031
v 3.90468812 2.08925486 -0.32383904
v 3.65833759 1.87788379 -0.28532031
v 3.90526962 2.08915877 -0.28884399
v 3.65775585 1.87797987 -0.32031533
v 3.77550292 1.74032164 -0.32265002
v 3.77608466 1.74022555 -0.28765500
v 3.65775585 1.87797987 -0.32031533
v 3.77608466 1.74022555 -0.28765500
v 3.65833759 1.87788379 -0.28532031
v 3.77550292 1.74032164 -0.32265002
v 4.02243519 1.95159674 -0.32617369
v 4.02301645 1.95150065 -0.29117867
v 3.77550292 1.74032164 -0.32265002
v 4.02301645 1.95150065 -0.29117867
v 3.77608466 1.74022555 -0.28765500
vt -0.20129089 0.36111110
vt 0.20129089 0.36111110
vt 0.20129089 -0.36111116
vt -0.20129089 0.36111110
vt 0.20129089 -0.36111116
vt -0.20129089 -0.36111116
vt -0.20129089 -0.36111116
vt 0.20129089 -0.36111116
vt 0.20129089 0.36111110
vt -0.20129089 -0.36111116
vt 0.20129089 0.36111110
vt -0.20129089 0.36111110
vt -0.20129089 -0.03888893
vt 0.20129089 -0.03888893
vt 0.20129089 0.03888887
vt -0.20129089 -0.03888893
vt 0.20129089 0.03888887
vt -0.20129089 0.03888887
vt -0.36111110 -0.03888893
vt 0.36111110 -0.03888893
vt 0.36111110 0.03888887
vt -0.36111110 -0.03888893
vt 0.36111110 0.03888887
vt -0.36111110 0.03888887
vt 0.20129089 -0.03888893
vt -0.20129089 -0.03888893
vt -0.20129089 0.03888887
vt 0.20129089 -0.03888893
vt -0.20129089 0.03888887
vt 0.20129089 0.03888887
vt 0.36111110 -0.03888893
vt -0.36111110 -0.03888893
vt -0.36111110 0.03888887
vt 0.36111110 -0.03888893
vt -0.36111110 0.03888887
vt 0.36111110 0.03888887
f 1/1 2/2 3/3
f 4/4 5/5 6/6
f 7/7 8/8 9/9
f 10/10 11/11 12/12
f 13/13 14/14 15/15
f 16/16 17/17 18/18
f 19/19 20/20 21/21
f 22/22 23/23 24/24
f 25/25 26/26 27/27
f 28/28 29/29 30/30
f 31/31 32/32 33/33
f 34/34 35/35 36/36

