# https://github.com/mikedh/trimesh
mtllib material.mtl
usemtl orange
v -0.08003572 -0.02971321 -0.03921309
v 0.06915215 0.04961556 -0.03978106
v 0.08088651 0.02755290 -0.03904444
v -0.08003572 -0.02971321 -0.03921309
v 0.08088651 0.02755290 -0.03904444
v -0.06830135 -0.05177599 -0.03847647
v -0.06915215 -0.04961556 0.03978106
v 0.08003572 0.02971333 0.03921311
v 0.06830135 0.05177599 0.03847648
v -0.06915215 -0.04961556 0.03978106
v 0.06830135 0.05177599 0.03847648
v -0.08088651 -0.02755290 0.03904444
v 0.08088651 0.02755290 -0.03904444
v 0.06915215 0.04961556 -0.03978106
v 0.06830135 0.05177599 0.03847648
v 0.08088651 0.02755290 -0.03904444
v 0.06830135 0.05177599 0.03847648
v 0.08003572 0.02971333 0.03921311
v 0.06915215 0.04961556 -0.03978106
v -0.08003572 -0.02971321 -0.03921309
v -0.08088651 -0.02755290 0.03904444
v 0.06915215 0.04961556 -0.03978106
v -0.08088651 -0.02755290 0.03904444
v 0.06830135 0.05177599 0.03847648
v -0.08003572 -0.02971321 -0.03921309
v -0.06830135 -0.05177599 -0.03847647
v -0.06915215 -0.04961556 0.03978106
v -0.08003572 -0.02971321 -0.03921309
v -0.06915215 -0.04961556 0.03978106
v -0.08088651 -0.02755290 0.03904444
vt 0.00000000 0.00000000
vt 0.00000000 0.00000000
vt 0.00000000 0.00000000
vt 0.00000000 0.00000000
vt 0.00000000 0.00000000
vt 0.00000000 0.00000000
vt 0.00000000 0.00000000
vt 0.00000000 0.00000000
vt 0.00000000 0.00000000
vt 0.00000000 0.00000000
vt 0.00000000 0.00000000
vt 0.00000000 0.00000000
vt 0.00000000 0.00000000
vt 0.00000000 0.00000000
vt 0.00000000 0.00000000
vt 0.00000000 0.00000000
vt 0.00000000 0.00000000
vt 0.00000000 0.00000000
vt 0.00000000 0.00000000
vt 0.00000000 0.00000000
vt 0.00000000 0.00000000
vt 0.00000000 0.00000000
vt 0.00000000 0.00000000
vt 0.00000000 0.00000000
vt 0.00000000 0.00000000
vt 0.00000000 0.00000000
vt 0.00000000 0.00000000
vt 0.00000000 0.00000000
vt 0.00000000 0.00000000
vt 0.00000000 0.00000000
f 1/1 2/2 3/3
f 4/4 5/5 6/6
f 7/7 8/8 9/9
f 10/10 11/11 12/12
f 13/13 14/14 15/15
f 16/16 17/17 18/18
f 19/19 20/20 21/21
f 22/22 23/23 24/24
f 25/25 26/26 27/27
f 28/28 29/29 30/30

