# https://github.com/mikedh/trimesh
mtllib material.mtl
usemtl DarkPlastic
v 6.48745918 2.84657264 -1.14682448
v 6.70394659 2.59605742 -1.14682448
v 6.31267118 2.25792909 -1.15603888
v 6.48745918 2.84657264 -1.14682448
v 6.31267118 2.25792909 -1.15603888
v 6.09618330 2.50844431 -1.15603888
v 6.09594059 2.50823474 -1.13804173
v 6.31242847 2.25771928 -1.13804173
v 6.70370388 2.59584785 -1.12882733
v 6.09594059 2.50823474 -1.13804173
v 6.70370388 2.59584785 -1.12882733
v 6.48721647 2.84636307 -1.12882733
v 6.09618330 2.50844431 -1.15603888
v 6.31267118 2.25792909 -1.15603888
v 6.31242847 2.25771928 -1.13804173
v 6.09618330 2.50844431 -1.15603888
v 6.31242847 2.25771928 -1.13804173
v 6.09594059 2.50823474 -1.13804173
v 6.31267118 2.25792909 -1.15603888
v 6.70394659 2.59605742 -1.14682448
v 6.70370388 2.59584785 -1.12882733
v 6.31267118 2.25792909 -1.15603888
v 6.70370388 2.59584785 -1.12882733
v 6.31242847 2.25771928 -1.13804173
v 6.70394659 2.59605742 -1.14682448
v 6.48745918 2.84657264 -1.14682448
v 6.48721647 2.84636307 -1.12882733
v 6.70394659 2.59605742 -1.14682448
v 6.48721647 2.84636307 -1.12882733
v 6.70370388 2.59584785 -1.12882733
v 6.48745918 2.84657264 -1.14682448
v 6.09618330 2.50844431 -1.15603888
v 6.09594059 2.50823474 -1.13804173
v 6.48745918 2.84657264 -1.14682448
v 6.09594059 2.50823474 -1.13804173
v 6.48721647 2.84636307 -1.12882733
vt -0.36788487 0.57468438
vt 0.36788487 0.57468438
vt 0.36788487 -0.57468438
vt -0.36788487 0.57468438
vt 0.36788487 -0.57468438
vt -0.36788487 -0.57468438
vt -0.36788487 -0.57468438
vt 0.36788487 -0.57468438
vt 0.36788487 0.57468438
vt -0.36788487 -0.57468438
vt 0.36788487 0.57468438
vt -0.36788487 0.57468438
vt -0.36788487 -0.01999998
vt 0.36788487 -0.01999998
vt 0.36788487 0.01999998
vt -0.36788487 -0.01999998
vt 0.36788487 0.01999998
vt -0.36788487 0.01999998
vt -0.57468438 -0.01999998
vt 0.57468438 -0.01999998
vt 0.57468438 0.01999998
vt -0.57468438 -0.01999998
vt 0.57468438 0.01999998
vt -0.57468438 0.01999998
vt 0.36788487 -0.01999998
vt -0.36788487 -0.01999998
vt -0.36788487 0.01999998
vt 0.36788487 -0.01999998
vt -0.36788487 0.01999998
vt 0.36788487 0.01999998
vt 0.57468438 -0.01999998
vt -0.57468438 -0.01999998
vt -0.57468438 0.01999998
vt 0.57468438 -0.01999998
vt -0.57468438 0.01999998
vt 0.57468438 0.01999998
f 1/1 2/2 3/3
f 4/4 5/5 6/6
f 7/7 8/8 9/9
f 10/10 11/11 12/12
f 13/13 14/14 15/15
f 16/16 17/17 18/18
f 19/19 20/20 21/21
f 22/22 23/23 24/24
f 25/25 26/26 27/27
f 28/28 29/29 30/30
f 31/31 32/32 33/33
f 34/34 35/35 36/36

