# https://github.com/mikedh/trimesh
mtllib material.mtl
usemtl photo_006
v -0.88208735 0.45966321 0.57219177
v -0.01920768 1.19859624 0.57219177
v 0.00680920 1.16821527 0.57254326
v -0.88208735 0.45966321 0.57219177
v 0.00680920 1.16821527 0.57254326
v -0.85607046 0.42928234 0.57254326
v -0.85990715 0.43376255 1.24374962
v 0.00297253 1.17269552 1.24374962
v -0.02304435 1.20307648 1.24339807
v -0.85990715 0.43376255 1.24374962
v -0.02304435 1.20307648 1.24339807
v -0.88592404 0.46414343 1.24339807
v -0.85607046 0.42928234 0.57254326
v 0.00680920 1.16821527 0.57254326
v 0.00297253 1.17269552 1.24374962
v -0.85607046 0.42928234 0.57254326
v 0.00297253 1.17269552 1.24374962
v -0.85990715 0.43376255 1.24374962
v 0.00680920 1.16821527 0.57254326
v -0.01920768 1.19859624 0.57219177
v -0.02304435 1.20307648 1.24339807
v 0.00680920 1.16821527 0.57254326
v -0.02304435 1.20307648 1.24339807
v 0.00297253 1.17269552 1.24374962
v -0.01920768 1.19859624 0.57219177
v -0.88208735 0.45966321 0.57219177
v -0.88592404 0.46414343 1.24339807
v -0.01920768 1.19859624 0.57219177
v -0.88592404 0.46414343 1.24339807
v -0.02304435 1.20307648 1.24339807
v -0.88208735 0.45966321 0.57219177
v -0.85607046 0.42928234 0.57254326
v -0.85990715 0.43376255 1.24374962
v -0.88208735 0.45966321 0.57219177
v -0.85990715 0.43376255 1.24374962
v -0.88592404 0.46414343 1.24339807
vt 0.00536616 0.99195075
vt 0.32796717 0.99195075
vt 0.32796717 0.50804925
vt 0.00536616 0.99195075
vt 0.32796717 0.50804925
vt 0.00536616 0.50804925
vt 0.33869949 0.99195075
vt 0.66130048 0.99195075
vt 0.66130048 0.50804925
vt 0.33869949 0.99195075
vt 0.66130048 0.50804925
vt 0.33869949 0.50804925
vt 0.67203283 0.99195075
vt 0.99463385 0.99195075
vt 0.99463385 0.50804925
vt 0.67203283 0.99195075
vt 0.99463385 0.50804925
vt 0.67203283 0.50804925
vt 0.00536616 0.49195075
vt 0.32796717 0.49195075
vt 0.32796717 0.00804925
vt 0.00536616 0.49195075
vt 0.32796717 0.00804925
vt 0.00536616 0.00804925
vt 0.33869949 0.49195075
vt 0.66130048 0.49195075
vt 0.66130048 0.00804925
vt 0.33869949 0.49195075
vt 0.66130048 0.00804925
vt 0.33869949 0.00804925
vt 0.67203283 0.49195075
vt 0.99463385 0.49195075
vt 0.99463385 0.00804925
vt 0.67203283 0.49195075
vt 0.99463385 0.00804925
vt 0.67203283 0.00804925
f 1/1 2/2 3/3
f 4/4 5/5 6/6
f 7/7 8/8 9/9
f 10/10 11/11 12/12
f 13/13 14/14 15/15
f 16/16 17/17 18/18
f 19/19 20/20 21/21
f 22/22 23/23 24/24
f 25/25 26/26 27/27
f 28/28 29/29 30/30
f 31/31 32/32 33/33
f 34/34 35/35 36/36

