# https://github.com/mikedh/trimesh
mtllib material.mtl
usemtl WhiteSolidSurface
v 4.92395210 4.74851799 -0.40637583
v 5.87637091 3.64684725 -0.42288458
v 5.44020367 3.26992464 -0.40188745
v 4.92395210 4.74851799 -0.40637583
v 5.44020367 3.26992464 -0.40188745
v 4.48778439 4.37159538 -0.38537872
v 4.48731279 4.37118769 -0.35038427
v 5.43973160 3.26951694 -0.36689302
v 5.87589931 3.64643955 -0.38789013
v 4.48731279 4.37118769 -0.35038427
v 5.87589931 3.64643955 -0.38789013
v 4.92348003 4.74811029 -0.37138137
v 4.48778439 4.37159538 -0.38537872
v 5.44020367 3.26992464 -0.40188745
v 5.43973160 3.26951694 -0.36689302
v 4.48778439 4.37159538 -0.38537872
v 5.43973160 3.26951694 -0.36689302
v 4.48731279 4.37118769 -0.35038427
v 5.44020367 3.26992464 -0.40188745
v 5.87637091 3.64684725 -0.42288458
v 5.87589931 3.64643955 -0.38789013
v 5.44020367 3.26992464 -0.40188745
v 5.87589931 3.64643955 -0.38789013
v 5.43973160 3.26951694 -0.36689302
v 5.87637091 3.64684725 -0.42288458
v 4.92395210 4.74851799 -0.40637583
v 4.92348003 4.74811029 -0.37138137
v 5.87637091 3.64684725 -0.42288458
v 4.92348003 4.74811029 -0.37138137
v 5.87589931 3.64643955 -0.38789013
v 4.92395210 4.74851799 -0.40637583
v 4.48778439 4.37159538 -0.38537872
v 4.48731279 4.37118769 -0.35038427
v 4.92395210 4.74851799 -0.40637583
v 4.48731279 4.37118769 -0.35038427
v 4.92348003 4.74811029 -0.37138137
vt -1.61809993 0.63999999
vt 1.61809993 0.63999999
vt 1.61809993 -0.63999999
vt -1.61809993 0.63999999
vt 1.61809993 -0.63999999
vt -1.61809993 -0.63999999
vt -1.61809993 -0.63999999
vt 1.61809993 -0.63999999
vt 1.61809993 0.63999999
vt -1.61809993 -0.63999999
vt 1.61809993 0.63999999
vt -1.61809993 0.63999999
vt -1.61809993 0.01419449
vt 1.61809993 -0.02249742
vt 1.61809993 0.05528033
vt -1.61809993 0.01419449
vt 1.61809993 0.05528033
vt -1.61809993 0.09197223
vt -0.63999999 -0.02249742
vt 0.63999999 -0.09197223
vt 0.63999999 -0.01419449
vt -0.63999999 -0.02249742
vt 0.63999999 -0.01419449
vt -0.63999999 0.05528033
vt 1.61809993 -0.09197223
vt -1.61809993 -0.05528033
vt -1.61809993 0.02249748
vt 1.61809993 -0.09197223
vt -1.61809993 0.02249748
vt 1.61809993 -0.01419449
vt 0.63999999 -0.05528033
vt -0.63999999 0.01419449
vt -0.63999999 0.09197223
vt 0.63999999 -0.05528033
vt -0.63999999 0.09197223
vt 0.63999999 0.02249748
f 1/1 2/2 3/3
f 4/4 5/5 6/6
f 7/7 8/8 9/9
f 10/10 11/11 12/12
f 13/13 14/14 15/15
f 16/16 17/17 18/18
f 19/19 20/20 21/21
f 22/22 23/23 24/24
f 25/25 26/26 27/27
f 28/28 29/29 30/30
f 31/31 32/32 33/33
f 34/34 35/35 36/36

