# https://github.com/mikedh/trimesh
mtllib material.mtl
usemtl PaleWood
v 5.77383804 3.75625682 -1.09421396
v 5.86787701 3.64743710 -1.09421396
v 5.44574785 3.28264618 -1.10415483
v 5.77383804 3.75625682 -1.09421396
v 5.44574785 3.28264618 -1.10415483
v 5.35170937 3.39146590 -1.10415483
v 5.35146666 3.39125633 -1.08615768
v 5.44550562 3.28243637 -1.08615768
v 5.86763430 3.64722729 -1.07621682
v 5.35146666 3.39125633 -1.08615768
v 5.86763430 3.64722729 -1.07621682
v 5.77359533 3.75604725 -1.07621682
v 5.35170937 3.39146590 -1.10415483
v 5.44574785 3.28264618 -1.10415483
v 5.44550562 3.28243637 -1.08615768
v 5.35170937 3.39146590 -1.10415483
v 5.44550562 3.28243637 -1.08615768
v 5.35146666 3.39125633 -1.08615768
v 5.44574785 3.28264618 -1.10415483
v 5.86787701 3.64743710 -1.09421396
v 5.86763430 3.64722729 -1.07621682
v 5.44574785 3.28264618 -1.10415483
v 5.86763430 3.64722729 -1.07621682
v 5.44550562 3.28243637 -1.08615768
v 5.86787701 3.64743710 -1.09421396
v 5.77383804 3.75625682 -1.09421396
v 5.77359533 3.75604725 -1.07621682
v 5.86787701 3.64743710 -1.09421396
v 5.77359533 3.75604725 -1.07621682
v 5.86763430 3.64722729 -1.07621682
v 5.77383804 3.75625682 -1.09421396
v 5.35170937 3.39146590 -1.10415483
v 5.35146666 3.39125633 -1.08615768
v 5.77383804 3.75625682 -1.09421396
v 5.35146666 3.39125633 -1.08615768
v 5.77359533 3.75604725 -1.07621682
vt -0.15980335 0.62000000
vt 0.15980335 0.62000000
vt 0.15980335 -0.62000000
vt -0.15980335 0.62000000
vt 0.15980335 -0.62000000
vt -0.15980335 -0.62000000
vt -0.15980335 -0.62000000
vt 0.15980335 -0.62000000
vt 0.15980335 0.62000000
vt -0.15980335 -0.62000000
vt 0.15980335 0.62000000
vt -0.15980335 0.62000000
vt -0.15980335 -0.01999998
vt 0.15980335 -0.01999998
vt 0.15980335 0.01999998
vt -0.15980335 -0.01999998
vt 0.15980335 0.01999998
vt -0.15980335 0.01999998
vt -0.62000000 -0.01999998
vt 0.62000000 -0.01999998
vt 0.62000000 0.01999998
vt -0.62000000 -0.01999998
vt 0.62000000 0.01999998
vt -0.62000000 0.01999998
vt 0.15980335 -0.01999998
vt -0.15980335 -0.01999998
vt -0.15980335 0.01999998
vt 0.15980335 -0.01999998
vt -0.15980335 0.01999998
vt 0.15980335 0.01999998
vt 0.62000000 -0.01999998
vt -0.62000000 -0.01999998
vt -0.62000000 0.01999998
vt 0.62000000 -0.01999998
vt -0.62000000 0.01999998
vt 0.62000000 0.01999998
f 1/1 2/2 3/3
f 4/4 5/5 6/6
f 7/7 8/8 9/9
f 10/10 11/11 12/12
f 13/13 14/14 15/15
f 16/16 17/17 18/18
f 19/19 20/20 21/21
f 22/22 23/23 24/24
f 25/25 26/26 27/27
f 28/28 29/29 30/30
f 31/31 32/32 33/33
f 34/34 35/35 36/36

