# https://github.com/mikedh/trimesh
mtllib material.mtl
usemtl PaleWood
v 4.69306374 5.02059793 -0.05034291
v 5.59252167 3.97560191 -0.05034291
v 5.33972216 3.75801039 -0.05165465
v 4.69306374 5.02059793 -0.05034291
v 5.33972216 3.75801039 -0.05165465
v 4.44026470 4.80300665 -0.05165465
v 4.44021082 4.80296040 -0.03365479
v 5.33966875 3.75796437 -0.03365479
v 5.59246778 3.97555566 -0.03234305
v 4.44021082 4.80296040 -0.03365479
v 5.59246778 3.97555566 -0.03234305
v 4.69301033 5.02055168 -0.03234305
v 4.44026470 4.80300665 -0.05165465
v 5.33972216 3.75801039 -0.05165465
v 5.33966875 3.75796437 -0.03365479
v 4.44026470 4.80300665 -0.05165465
v 5.33966875 3.75796437 -0.03365479
v 4.44021082 4.80296040 -0.03365479
v 5.33972216 3.75801039 -0.05165465
v 5.59252167 3.97560191 -0.05034291
v 5.59246778 3.97555566 -0.03234305
v 5.33972216 3.75801039 -0.05165465
v 5.59246778 3.97555566 -0.03234305
v 5.33966875 3.75796437 -0.03365479
v 5.59252167 3.97560191 -0.05034291
v 4.69306374 5.02059793 -0.05034291
v 4.69301033 5.02055168 -0.03234305
v 5.59252167 3.97560191 -0.05034291
v 4.69301033 5.02055168 -0.03234305
v 5.59246778 3.97555566 -0.03234305
v 4.69306374 5.02059793 -0.05034291
v 4.44026470 4.80300665 -0.05165465
v 4.44021082 4.80296040 -0.03365479
v 4.69306374 5.02059793 -0.05034291
v 4.44021082 4.80296040 -0.03365479
v 4.69301033 5.02055168 -0.03234305
vt -1.53198040 0.37061036
vt 1.53198040 0.37061036
vt 1.53198040 -0.37061036
vt -1.53198040 0.37061036
vt 1.53198040 -0.37061036
vt -1.53198040 -0.37061036
vt -1.53198040 -0.37061036
vt 1.53198040 -0.37061036
vt 1.53198040 0.37061036
vt -1.53198040 -0.37061036
vt 1.53198040 0.37061036
vt -1.53198040 0.37061036
vt -1.53198040 -0.01999998
vt 1.53198040 -0.01999998
vt 1.53198040 0.01999998
vt -1.53198040 -0.01999998
vt 1.53198040 0.01999998
vt -1.53198040 0.01999998
vt -0.37061036 -0.01999998
vt 0.37061036 -0.01999998
vt 0.37061036 0.01999998
vt -0.37061036 -0.01999998
vt 0.37061036 0.01999998
vt -0.37061036 0.01999998
vt 1.53198040 -0.01999998
vt -1.53198040 -0.01999998
vt -1.53198040 0.01999998
vt 1.53198040 -0.01999998
vt -1.53198040 0.01999998
vt 1.53198040 0.01999998
vt 0.37061036 -0.01999998
vt -0.37061036 -0.01999998
vt -0.37061036 0.01999998
vt 0.37061036 -0.01999998
vt -0.37061036 0.01999998
vt 0.37061036 0.01999998
f 1/1 2/2 3/3
f 4/4 5/5 6/6
f 7/7 8/8 9/9
f 10/10 11/11 12/12
f 13/13 14/14 15/15
f 16/16 17/17 18/18
f 19/19 20/20 21/21
f 22/22 23/23 24/24
f 25/25 26/26 27/27
f 28/28 29/29 30/30
f 31/31 32/32 33/33
f 34/34 35/35 36/36

