# https://github.com/mikedh/trimesh
mtllib material.mtl
usemtl DarkRecess
v 0.76416183 1.53832924 -0.25580245
v 0.95620036 1.71214056 -0.25851247
v 0.95888436 1.70917678 -0.25840145
v 0.76416183 1.53832924 -0.25580245
v 0.95888436 1.70917678 -0.25840145
v 0.76684582 1.53536546 -0.25569144
v 0.76551014 1.53875673 -0.13283981
v 0.95754868 1.71256804 -0.13554983
v 0.95486468 1.71553171 -0.13566081
v 0.76551014 1.53875673 -0.13283981
v 0.95486468 1.71553171 -0.13566081
v 0.76282614 1.54172039 -0.13295081
v 0.76684582 1.53536546 -0.25569144
v 0.95888436 1.70917678 -0.25840145
v 0.95754868 1.71256804 -0.13554983
v 0.76684582 1.53536546 -0.25569144
v 0.95754868 1.71256804 -0.13554983
v 0.76551014 1.53875673 -0.13283981
v 0.95888436 1.70917678 -0.25840145
v 0.95620036 1.71214056 -0.25851247
v 0.95486468 1.71553171 -0.13566081
v 0.95888436 1.70917678 -0.25840145
v 0.95486468 1.71553171 -0.13566081
v 0.95754868 1.71256804 -0.13554983
v 0.95620036 1.71214056 -0.25851247
v 0.76416183 1.53832924 -0.25580245
v 0.76282614 1.54172039 -0.13295081
v 0.95620036 1.71214056 -0.25851247
v 0.76282614 1.54172039 -0.13295081
v 0.95486468 1.71553171 -0.13566081
v 0.76416183 1.53832924 -0.25580245
v 0.76684582 1.53536546 -0.25569144
v 0.76551014 1.53875673 -0.13283981
v 0.76416183 1.53832924 -0.25580245
v 0.76551014 1.53875673 -0.13283981
v 0.76282614 1.54172039 -0.13295081
vt 0.00000000 0.00000000
vt 0.00000000 0.00000000
vt 0.00000000 0.00000000
vt 0.00000000 0.00000000
vt 0.00000000 0.00000000
vt 0.00000000 0.00000000
vt 0.00000000 0.00000000
vt 0.00000000 0.00000000
vt 0.00000000 0.00000000
vt 0.00000000 0.00000000
vt 0.00000000 0.00000000
vt 0.00000000 0.00000000
vt 0.00000000 0.00000000
vt 0.00000000 0.00000000
vt 0.00000000 0.00000000
vt 0.00000000 0.00000000
vt 0.00000000 0.00000000
vt 0.00000000 0.00000000
vt 0.00000000 0.00000000
vt 0.00000000 0.00000000
vt 0.00000000 0.00000000
vt 0.00000000 0.00000000
vt 0.00000000 0.00000000
vt 0.00000000 0.00000000
vt 0.00000000 0.00000000
vt 0.00000000 0.00000000
vt 0.00000000 0.00000000
vt 0.00000000 0.00000000
vt 0.00000000 0.00000000
vt 0.00000000 0.00000000
vt 0.00000000 0.00000000
vt 0.00000000 0.00000000
vt 0.00000000 0.00000000
vt 0.00000000 0.00000000
vt 0.00000000 0.00000000
vt 0.00000000 0.00000000
f 1/1 2/2 3/3
f 4/4 5/5 6/6
f 7/7 8/8 9/9
f 10/10 11/11 12/12
f 13/13 14/14 15/15
f 16/16 17/17 18/18
f 19/19 20/20 21/21
f 22/22 23/23 24/24
f 25/25 26/26 27/27
f 28/28 29/29 30/30
f 31/31 32/32 33/33
f 34/34 35/35 36/36

