# https://github.com/mikedh/trimesh
mtllib material.mtl
usemtl PaleWood
v 4.49673748 4.37140226 -1.09526324
v 4.83168221 3.98381114 -1.09526324
v 4.81806517 3.97204375 -1.09558392
v 4.49673748 4.37140226 -1.09526324
v 4.81806517 3.97204375 -1.09558392
v 4.48312044 4.35963488 -1.09558392
v 4.47579288 4.35330248 -0.55205911
v 4.81073761 3.96571136 -0.55205911
v 4.82435465 3.97747898 -0.55173844
v 4.47579288 4.35330248 -0.55205911
v 4.82435465 3.97747898 -0.55173844
v 4.48940992 4.36506987 -0.55173844
v 4.48312044 4.35963488 -1.09558392
v 4.81806517 3.97204375 -1.09558392
v 4.81073761 3.96571136 -0.55205911
v 4.48312044 4.35963488 -1.09558392
v 4.81073761 3.96571136 -0.55205911
v 4.47579288 4.35330248 -0.55205911
v 4.81806517 3.97204375 -1.09558392
v 4.83168221 3.98381114 -1.09526324
v 4.82435465 3.97747898 -0.55173844
v 4.81806517 3.97204375 -1.09558392
v 4.82435465 3.97747898 -0.55173844
v 4.81073761 3.96571136 -0.55205911
v 4.83168221 3.98381114 -1.09526324
v 4.49673748 4.37140226 -1.09526324
v 4.48940992 4.36506987 -0.55173844
v 4.83168221 3.98381114 -1.09526324
v 4.48940992 4.36506987 -0.55173844
v 4.82435465 3.97747898 -0.55173844
v 4.49673748 4.37140226 -1.09526324
v 4.48312044 4.35963488 -1.09558392
v 4.47579288 4.35330248 -0.55205911
v 4.49673748 4.37140226 -1.09526324
v 4.47579288 4.35330248 -0.55205911
v 4.48940992 4.36506987 -0.55173844
vt -0.56918257 0.01999998
vt 0.56918257 0.01999998
vt 0.56918257 -0.01999998
vt -0.56918257 0.01999998
vt 0.56918257 -0.01999998
vt -0.56918257 -0.01999998
vt -0.56918257 -0.01999998
vt 0.56918257 -0.01999998
vt 0.56918257 0.01999998
vt -0.56918257 -0.01999998
vt 0.56918257 0.01999998
vt -0.56918257 0.01999998
vt -0.56918257 -0.60401225
vt 0.56918257 -0.60401225
vt 0.56918257 0.60401225
vt -0.56918257 -0.60401225
vt 0.56918257 0.60401225
vt -0.56918257 0.60401225
vt -0.02000000 -0.60401225
vt 0.02000000 -0.60401225
vt 0.02000000 0.60401225
vt -0.02000000 -0.60401225
vt 0.02000000 0.60401225
vt -0.02000000 0.60401225
vt 0.56918257 -0.60401225
vt -0.56918257 -0.60401225
vt -0.56918257 0.60401225
vt 0.56918257 -0.60401225
vt -0.56918257 0.60401225
vt 0.56918257 0.60401225
vt 0.02000000 -0.60401225
vt -0.02000000 -0.60401225
vt -0.02000000 0.60401225
vt 0.02000000 -0.60401225
vt -0.02000000 0.60401225
vt 0.02000000 0.60401225
f 1/1 2/2 3/3
f 4/4 5/5 6/6
f 7/7 8/8 9/9
f 10/10 11/11 12/12
f 13/13 14/14 15/15
f 16/16 17/17 18/18
f 19/19 20/20 21/21
f 22/22 23/23 24/24
f 25/25 26/26 27/27
f 28/28 29/29 30/30
f 31/31 32/32 33/33
f 34/34 35/35 36/36

