# https://github.com/mikedh/trimesh
mtllib material.mtl
usemtl BrushedStainless
v 4.04744291 1.41939354 -0.50807577
v 4.04549313 1.42167306 -0.50803715
v 4.29242516 1.63294816 -0.51156080
v 4.04744291 1.41939354 -0.50807577
v 4.29242516 1.63294816 -0.51156080
v 4.29437494 1.63066852 -0.51159948
v 4.29736614 1.63017452 -0.33162501
v 4.29541636 1.63245416 -0.33158633
v 4.04848433 1.42117906 -0.32806265
v 4.29736614 1.63017452 -0.33162501
v 4.04848433 1.42117906 -0.32806265
v 4.05043411 1.41889942 -0.32810131
v 4.29437494 1.63066852 -0.51159948
v 4.29242516 1.63294816 -0.51156080
v 4.29541636 1.63245416 -0.33158633
v 4.29437494 1.63066852 -0.51159948
v 4.29541636 1.63245416 -0.33158633
v 4.29736614 1.63017452 -0.33162501
v 4.29242516 1.63294816 -0.51156080
v 4.04549313 1.42167306 -0.50803715
v 4.04848433 1.42117906 -0.32806265
v 4.29242516 1.63294816 -0.51156080
v 4.04848433 1.42117906 -0.32806265
v 4.29541636 1.63245416 -0.33158633
v 4.04549313 1.42167306 -0.50803715
v 4.04744291 1.41939354 -0.50807577
v 4.05043411 1.41889942 -0.32810131
v 4.04549313 1.42167306 -0.50803715
v 4.05043411 1.41889942 -0.32810131
v 4.04848433 1.42117906 -0.32806265
v 4.04744291 1.41939354 -0.50807577
v 4.29437494 1.63066852 -0.51159948
v 4.29736614 1.63017452 -0.33162501
v 4.04744291 1.41939354 -0.50807577
v 4.29736614 1.63017452 -0.33162501
v 4.05043411 1.41889942 -0.32810131
vt -0.00333333 0.36111110
vt 0.00333333 0.36111110
vt 0.00333333 -0.36111116
vt -0.00333333 0.36111110
vt 0.00333333 -0.36111116
vt -0.00333333 -0.36111116
vt -0.00333333 -0.36111116
vt 0.00333333 -0.36111116
vt 0.00333333 0.36111110
vt -0.00333333 -0.36111116
vt 0.00333333 0.36111110
vt -0.00333333 0.36111110
vt -0.00333333 -0.20000005
vt 0.00333333 -0.20000005
vt 0.00333333 0.19999999
vt -0.00333333 -0.20000005
vt 0.00333333 0.19999999
vt -0.00333333 0.19999999
vt -0.36111110 -0.20000005
vt 0.36111110 -0.20000005
vt 0.36111110 0.19999999
vt -0.36111110 -0.20000005
vt 0.36111110 0.19999999
vt -0.36111110 0.19999999
vt 0.00333333 -0.20000005
vt -0.00333333 -0.20000005
vt -0.00333333 0.19999999
vt 0.00333333 -0.20000005
vt -0.00333333 0.19999999
vt 0.00333333 0.19999999
vt 0.36111110 -0.20000005
vt -0.36111110 -0.20000005
vt -0.36111110 0.19999999
vt 0.36111110 -0.20000005
vt -0.36111110 0.19999999
vt 0.36111110 0.19999999
f 1/1 2/2 3/3
f 4/4 5/5 6/6
f 7/7 8/8 9/9
f 10/10 11/11 12/12
f 13/13 14/14 15/15
f 16/16 17/17 18/18
f 19/19 20/20 21/21
f 22/22 23/23 24/24
f 25/25 26/26 27/27
f 28/28 29/29 30/30
f 31/31 32/32 33/33
f 34/34 35/35 36/36

