# https://github.com/mikedh/trimesh
mtllib material.mtl
usemtl PaleWood
v 7.07749319 1.38665426 -1.15587854
v 7.53578186 0.85633147 -1.15587854
v 7.52216482 0.84456402 -1.15619922
v 7.07749319 1.38665426 -1.15587854
v 7.52216482 0.84456402 -1.15619922
v 7.06387615 1.37488687 -1.15619922
v 7.05489588 1.36712646 -0.43336940
v 7.51318455 0.83680362 -0.44130981
v 7.52680159 0.84857106 -0.44196534
v 7.05489588 1.36712646 -0.43336940
v 7.52680159 0.84857106 -0.44196534
v 7.06851292 1.37889385 -0.43402490
v 7.06387615 1.37488687 -1.15619922
v 7.52216482 0.84456402 -1.15619922
v 7.51318455 0.83680362 -0.44130981
v 7.06387615 1.37488687 -1.15619922
v 7.51318455 0.83680362 -0.44130981
v 7.05489588 1.36712646 -0.43336940
v 7.52216482 0.84456402 -1.15619922
v 7.53578186 0.85633147 -1.15587854
v 7.52680159 0.84857106 -0.44196534
v 7.52216482 0.84456402 -1.15619922
v 7.52680159 0.84857106 -0.44196534
v 7.51318455 0.83680362 -0.44130981
v 7.53578186 0.85633147 -1.15587854
v 7.07749319 1.38665426 -1.15587854
v 7.06851292 1.37889385 -0.43402490
v 7.53578186 0.85633147 -1.15587854
v 7.06851292 1.37889385 -0.43402490
v 7.52680159 0.84857106 -0.44196534
v 7.07749319 1.38665426 -1.15587854
v 7.06387615 1.37488687 -1.15619922
v 7.05489588 1.36712646 -0.43336940
v 7.07749319 1.38665426 -1.15587854
v 7.05489588 1.36712646 -0.43336940
v 7.06851292 1.37889385 -0.43402490
vt -0.77878577 0.01999998
vt 0.77878577 0.01999998
vt 0.77878577 -0.01999998
vt -0.77878577 0.01999998
vt 0.77878577 -0.01999998
vt -0.77878577 -0.01999998
vt -0.77878577 -0.01999998
vt 0.77878577 -0.01999998
vt 0.77878577 0.01999998
vt -0.77878577 -0.01999998
vt 0.77878577 0.01999998
vt -0.77878577 0.01999998
vt -0.77878577 -0.74024189
vt 0.77878577 -0.74024189
vt 0.77878577 0.74024189
vt -0.77878577 -0.74024189
vt 0.77878577 0.74024189
vt -0.77878577 0.74024189
vt -0.02000000 -0.74024189
vt 0.02000000 -0.74024189
vt 0.02000000 0.74024189
vt -0.02000000 -0.74024189
vt 0.02000000 0.74024189
vt -0.02000000 0.74024189
vt 0.77878577 -0.74024189
vt -0.77878577 -0.74024189
vt -0.77878577 0.74024189
vt 0.77878577 -0.74024189
vt -0.77878577 0.74024189
vt 0.77878577 0.74024189
vt 0.02000000 -0.74024189
vt -0.02000000 -0.74024189
vt -0.02000000 0.74024189
vt 0.02000000 -0.74024189
vt -0.02000000 0.74024189
vt 0.02000000 0.74024189
f 1/1 2/2 3/3
f 4/4 5/5 6/6
f 7/7 8/8 9/9
f 10/10 11/11 12/12
f 13/13 14/14 15/15
f 16/16 17/17 18/18
f 19/19 20/20 21/21
f 22/22 23/23 24/24
f 25/25 26/26 27/27
f 28/28 29/29 30/30
f 31/31 32/32 33/33
f 34/34 35/35 36/36

