# https://github.com/mikedh/trimesh
mtllib material.mtl
usemtl PaleWood
v 0.30426326 -1.21881711 -1.15860939
v 0.29269892 -1.20502687 -1.15830159
v 0.92891002 -0.67145830 -1.16054237
v 0.30426326 -1.21881711 -1.15860939
v 0.92891002 -0.67145830 -1.16054237
v 0.94047433 -0.68524855 -1.16085017
v 0.95172250 -0.69504285 -0.29941577
v 0.94015819 -0.68125260 -0.29910800
v 0.30394709 -1.21482122 -0.29686722
v 0.95172250 -0.69504285 -0.29941577
v 0.30394709 -1.21482122 -0.29686722
v 0.31551144 -1.22861147 -0.29717502
v 0.94047433 -0.68524855 -1.16085017
v 0.92891002 -0.67145830 -1.16054237
v 0.94015819 -0.68125260 -0.29910800
v 0.94047433 -0.68524855 -1.16085017
v 0.94015819 -0.68125260 -0.29910800
v 0.95172250 -0.69504285 -0.29941577
v 0.92891002 -0.67145830 -1.16054237
v 0.29269892 -1.20502687 -1.15830159
v 0.30394709 -1.21482122 -0.29686722
v 0.92891002 -0.67145830 -1.16054237
v 0.30394709 -1.21482122 -0.29686722
v 0.94015819 -0.68125260 -0.29910800
v 0.29269892 -1.20502687 -1.15830159
v 0.30426326 -1.21881711 -1.15860939
v 0.31551144 -1.22861147 -0.29717502
v 0.29269892 -1.20502687 -1.15830159
v 0.31551144 -1.22861147 -0.29717502
v 0.30394709 -1.21482122 -0.29686722
v 0.30426326 -1.21881711 -1.15860939
v 0.94047433 -0.68524855 -1.16085017
v 0.95172250 -0.69504285 -0.29941577
v 0.30426326 -1.21881711 -1.15860939
v 0.95172250 -0.69504285 -0.29941577
v 0.31551144 -1.22861147 -0.29717502
vt -0.02000000 0.92260027
vt 0.02000000 0.92260027
vt 0.02000000 -0.92260027
vt -0.02000000 0.92260027
vt 0.02000000 -0.92260027
vt -0.02000000 -0.92260027
vt -0.02000000 -0.92260027
vt 0.02000000 -0.92260027
vt 0.02000000 0.92260027
vt -0.02000000 -0.92260027
vt 0.02000000 0.92260027
vt -0.02000000 0.92260027
vt -0.02000000 -0.95729280
vt 0.02000000 -0.95729280
vt 0.02000000 0.95729274
vt -0.02000000 -0.95729280
vt 0.02000000 0.95729274
vt -0.02000000 0.95729274
vt -0.92260027 -0.95729280
vt 0.92260027 -0.95729280
vt 0.92260027 0.95729274
vt -0.92260027 -0.95729280
vt 0.92260027 0.95729274
vt -0.92260027 0.95729274
vt 0.02000000 -0.95729280
vt -0.02000000 -0.95729280
vt -0.02000000 0.95729274
vt 0.02000000 -0.95729280
vt -0.02000000 0.95729274
vt 0.02000000 0.95729274
vt 0.92260027 -0.95729280
vt -0.92260027 -0.95729280
vt -0.92260027 0.95729274
vt 0.92260027 -0.95729280
vt -0.92260027 0.95729274
vt 0.92260027 0.95729274
f 1/1 2/2 3/3
f 4/4 5/5 6/6
f 7/7 8/8 9/9
f 10/10 11/11 12/12
f 13/13 14/14 15/15
f 16/16 17/17 18/18
f 19/19 20/20 21/21
f 22/22 23/23 24/24
f 25/25 26/26 27/27
f 28/28 29/29 30/30
f 31/31 32/32 33/33
f 34/34 35/35 36/36

