# https://github.com/mikedh/trimesh
mtllib material.mtl
usemtl DarkPlastic
v 1.54592085 2.47426152 -0.66437775
v 1.55949831 2.48607898 -0.66437775
v 1.87871957 2.11931539 -0.67205530
v 1.54592085 2.47426152 -0.66437775
v 1.87871957 2.11931539 -0.67205530
v 1.86514211 2.10749793 -0.67205530
v 1.86626565 2.10620689 -0.56366682
v 1.87984312 2.11802459 -0.56366682
v 1.56062198 2.48478818 -0.55598927
v 1.86626565 2.10620689 -0.56366682
v 1.56062198 2.48478818 -0.55598927
v 1.54704452 2.47297049 -0.55598927
v 1.86514211 2.10749793 -0.67205530
v 1.87871957 2.11931539 -0.67205530
v 1.87984312 2.11802459 -0.56366682
v 1.86514211 2.10749793 -0.67205530
v 1.87984312 2.11802459 -0.56366682
v 1.86626565 2.10620689 -0.56366682
v 1.87871957 2.11931539 -0.67205530
v 1.55949831 2.48607898 -0.66437775
v 1.56062198 2.48478818 -0.55598927
v 1.87871957 2.11931539 -0.67205530
v 1.56062198 2.48478818 -0.55598927
v 1.87984312 2.11802459 -0.56366682
v 1.55949831 2.48607898 -0.66437775
v 1.54592085 2.47426152 -0.66437775
v 1.54704452 2.47297049 -0.55598927
v 1.55949831 2.48607898 -0.66437775
v 1.54704452 2.47297049 -0.55598927
v 1.56062198 2.48478818 -0.55598927
v 1.54592085 2.47426152 -0.66437775
v 1.86514211 2.10749793 -0.67205530
v 1.86626565 2.10620689 -0.56366682
v 1.54592085 2.47426152 -0.66437775
v 1.86626565 2.10620689 -0.56366682
v 1.54704452 2.47297049 -0.55598927
vt -0.02000000 0.54032069
vt 0.02000000 0.54032069
vt 0.02000000 -0.54032063
vt -0.02000000 0.54032069
vt 0.02000000 -0.54032063
vt -0.02000000 -0.54032063
vt -0.02000000 -0.54032063
vt 0.02000000 -0.54032063
vt 0.02000000 0.54032069
vt -0.02000000 -0.54032063
vt 0.02000000 0.54032069
vt -0.02000000 0.54032069
vt -0.02000000 -0.12044668
vt 0.02000000 -0.12044668
vt 0.02000000 0.12044668
vt -0.02000000 -0.12044668
vt 0.02000000 0.12044668
vt -0.02000000 0.12044668
vt -0.54032069 -0.12044668
vt 0.54032069 -0.12044668
vt 0.54032069 0.12044668
vt -0.54032069 -0.12044668
vt 0.54032069 0.12044668
vt -0.54032069 0.12044668
vt 0.02000000 -0.12044668
vt -0.02000000 -0.12044668
vt -0.02000000 0.12044668
vt 0.02000000 -0.12044668
vt -0.02000000 0.12044668
vt 0.02000000 0.12044668
vt 0.54032069 -0.12044668
vt -0.54032069 -0.12044668
vt -0.54032069 0.12044668
vt 0.54032069 -0.12044668
vt -0.54032069 0.12044668
vt 0.54032069 0.12044668
f 1/1 2/2 3/3
f 4/4 5/5 6/6
f 7/7 8/8 9/9
f 10/10 11/11 12/12
f 13/13 14/14 15/15
f 16/16 17/17 18/18
f 19/19 20/20 21/21
f 22/22 23/23 24/24
f 25/25 26/26 27/27
f 28/28 29/29 30/30
f 31/31 32/32 33/33
f 34/34 35/35 36/36

