# https://github.com/mikedh/trimesh
mtllib material.mtl
usemtl PaleWood
v 4.73467493 4.45161629 -0.02767843
v 5.03396034 4.10390472 -0.02767843
v 5.02031803 4.09216261 -0.02774922
v 4.73467493 4.45161629 -0.02767843
v 5.02031803 4.09216261 -0.02774922
v 4.72103262 4.43987417 -0.02774922
v 4.71825027 4.43747902 0.90577263
v 5.01753569 4.08976746 0.90577263
v 5.03117800 4.10151005 0.90584344
v 4.71825027 4.43747902 0.90577263
v 5.03117800 4.10151005 0.90584344
v 4.73189259 4.44922161 0.90584344
v 4.72103262 4.43987417 -0.02774922
v 5.02031803 4.09216261 -0.02774922
v 5.01753569 4.08976746 0.90577263
v 4.72103262 4.43987417 -0.02774922
v 5.01753569 4.08976746 0.90577263
v 4.71825027 4.43747902 0.90577263
v 5.02031803 4.09216261 -0.02774922
v 5.03396034 4.10390472 -0.02767843
v 5.03117800 4.10151005 0.90584344
v 5.02031803 4.09216261 -0.02774922
v 5.03117800 4.10151005 0.90584344
v 5.01753569 4.08976746 0.90577263
v 5.03396034 4.10390472 -0.02767843
v 4.73467493 4.45161629 -0.02767843
v 4.73189259 4.44922161 0.90584344
v 5.03396034 4.10390472 -0.02767843
v 4.73189259 4.44922161 0.90584344
v 5.03117800 4.10151005 0.90584344
v 4.73467493 4.45161629 -0.02767843
v 4.72103262 4.43987417 -0.02774922
v 4.71825027 4.43747902 0.90577263
v 4.73467493 4.45161629 -0.02767843
v 4.71825027 4.43747902 0.90577263
v 4.73189259 4.44922161 0.90584344
vt -0.50975055 0.01999998
vt 0.50975055 0.01999998
vt 0.50975055 -0.01999998
vt -0.50975055 0.01999998
vt 0.50975055 -0.01999998
vt -0.50975055 -0.01999998
vt -0.50975055 -0.01999998
vt 0.50975055 -0.01999998
vt 0.50975055 0.01999998
vt -0.50975055 -0.01999998
vt 0.50975055 0.01999998
vt -0.50975055 0.01999998
vt -0.50975055 -1.03725457
vt 0.50975055 -1.03725457
vt 0.50975055 1.03725457
vt -0.50975055 -1.03725457
vt 0.50975055 1.03725457
vt -0.50975055 1.03725457
vt -0.02000000 -1.03725457
vt 0.02000000 -1.03725457
vt 0.02000000 1.03725457
vt -0.02000000 -1.03725457
vt 0.02000000 1.03725457
vt -0.02000000 1.03725457
vt 0.50975055 -1.03725457
vt -0.50975055 -1.03725457
vt -0.50975055 1.03725457
vt 0.50975055 -1.03725457
vt -0.50975055 1.03725457
vt 0.50975055 1.03725457
vt 0.02000000 -1.03725457
vt -0.02000000 -1.03725457
vt -0.02000000 1.03725457
vt 0.02000000 -1.03725457
vt -0.02000000 1.03725457
vt 0.02000000 1.03725457
f 1/1 2/2 3/3
f 4/4 5/5 6/6
f 7/7 8/8 9/9
f 10/10 11/11 12/12
f 13/13 14/14 15/15
f 16/16 17/17 18/18
f 19/19 20/20 21/21
f 22/22 23/23 24/24
f 25/25 26/26 27/27
f 28/28 29/29 30/30
f 31/31 32/32 33/33
f 34/34 35/35 36/36

