# https://github.com/mikedh/trimesh
mtllib material.mtl
usemtl DarkPlastic
v 6.72131729 2.57141852 -0.98029655
v 6.73308659 2.55779934 -0.98029655
v 6.34181070 2.21967101 -0.98951083
v 6.72131729 2.57141852 -0.98029655
v 6.34181070 2.21967101 -0.98951083
v 6.33004141 2.23329020 -0.98951083
v 6.32847881 2.23194003 -0.87361342
v 6.34024858 2.21832085 -0.87361342
v 6.73152399 2.55644917 -0.86439914
v 6.32847881 2.23194003 -0.87361342
v 6.73152399 2.55644917 -0.86439914
v 6.71975470 2.57006836 -0.86439914
v 6.33004141 2.23329020 -0.98951083
v 6.34181070 2.21967101 -0.98951083
v 6.34024858 2.21832085 -0.87361342
v 6.33004141 2.23329020 -0.98951083
v 6.34024858 2.21832085 -0.87361342
v 6.32847881 2.23194003 -0.87361342
v 6.34181070 2.21967101 -0.98951083
v 6.73308659 2.55779934 -0.98029655
v 6.73152399 2.55644917 -0.86439914
v 6.34181070 2.21967101 -0.98951083
v 6.73152399 2.55644917 -0.86439914
v 6.34024858 2.21832085 -0.87361342
v 6.73308659 2.55779934 -0.98029655
v 6.72131729 2.57141852 -0.98029655
v 6.71975470 2.57006836 -0.86439914
v 6.73308659 2.55779934 -0.98029655
v 6.71975470 2.57006836 -0.86439914
v 6.73152399 2.55644917 -0.86439914
v 6.72131729 2.57141852 -0.98029655
v 6.33004141 2.23329020 -0.98951083
v 6.32847881 2.23194003 -0.87361342
v 6.72131729 2.57141852 -0.98029655
v 6.32847881 2.23194003 -0.87361342
v 6.71975470 2.57006836 -0.86439914
vt -0.02000000 0.57468438
vt 0.02000000 0.57468438
vt 0.02000000 -0.57468438
vt -0.02000000 0.57468438
vt 0.02000000 -0.57468438
vt -0.02000000 -0.57468438
vt -0.02000000 -0.57468438
vt 0.02000000 -0.57468438
vt 0.02000000 0.57468438
vt -0.02000000 -0.57468438
vt 0.02000000 0.57468438
vt -0.02000000 0.57468438
vt -0.02000000 -0.12879539
vt 0.02000000 -0.12879539
vt 0.02000000 0.12879533
vt -0.02000000 -0.12879539
vt 0.02000000 0.12879533
vt -0.02000000 0.12879533
vt -0.57468438 -0.12879539
vt 0.57468438 -0.12879539
vt 0.57468438 0.12879533
vt -0.57468438 -0.12879539
vt 0.57468438 0.12879533
vt -0.57468438 0.12879533
vt 0.02000000 -0.12879539
vt -0.02000000 -0.12879539
vt -0.02000000 0.12879533
vt 0.02000000 -0.12879539
vt -0.02000000 0.12879533
vt 0.02000000 0.12879533
vt 0.57468438 -0.12879539
vt -0.57468438 -0.12879539
vt -0.57468438 0.12879533
vt 0.57468438 -0.12879539
vt -0.57468438 0.12879533
vt 0.57468438 0.12879533
f 1/1 2/2 3/3
f 4/4 5/5 6/6
f 7/7 8/8 9/9
f 10/10 11/11 12/12
f 13/13 14/14 15/15
f 16/16 17/17 18/18
f 19/19 20/20 21/21
f 22/22 23/23 24/24
f 25/25 26/26 27/27
f 28/28 29/29 30/30
f 31/31 32/32 33/33
f 34/34 35/35 36/36

