# https://github.com/mikedh/trimesh
mtllib material.mtl
usemtl Glass
v 5.92837143 -2.04695106 -1.30650103
v 7.97183704 -4.09491491 -1.34781730
v 7.96334219 -4.10339069 -1.34777057
v 5.92837143 -2.04695106 -1.30650103
v 7.96334219 -4.10339069 -1.34777057
v 5.91987705 -2.05542707 -1.30645430
v 5.91987705 -2.05542707 1.62726676
v 7.96334219 -4.10339069 1.62726676
v 7.97183704 -4.09491491 1.62726676
v 5.91987705 -2.05542707 1.62726676
v 7.97183704 -4.09491491 1.62726676
v 5.92837143 -2.04695106 1.62726676
v 5.91987705 -2.05542707 -1.30645430
v 7.96334219 -4.10339069 -1.34777057
v 7.96334219 -4.10339069 1.62726676
v 5.91987705 -2.05542707 -1.30645430
v 7.96334219 -4.10339069 1.62726676
v 5.91987705 -2.05542707 1.62726676
v 7.96334219 -4.10339069 -1.34777057
v 7.97183704 -4.09491491 -1.34781730
v 7.97183704 -4.09491491 1.62726676
v 7.96334219 -4.10339069 -1.34777057
v 7.97183704 -4.09491491 1.62726676
v 7.96334219 -4.10339069 1.62726676
v 7.97183704 -4.09491491 -1.34781730
v 5.92837143 -2.04695106 -1.30650103
v 5.92837143 -2.04695106 1.62726676
v 7.97183704 -4.09491491 -1.34781730
v 5.92837143 -2.04695106 1.62726676
v 7.97183704 -4.09491491 1.62726676
v 5.92837143 -2.04695106 -1.30650103
v 5.91987705 -2.05542707 -1.30645430
v 5.91987705 -2.05542707 1.62726676
v 5.92837143 -2.04695106 -1.30650103
v 5.91987705 -2.05542707 1.62726676
v 5.92837143 -2.04695106 1.62726676
vt -3.21453238 0.01333332
vt 3.21453238 0.01333332
vt 3.21453238 -0.01333332
vt -3.21453238 0.01333332
vt 3.21453238 -0.01333332
vt -3.21453238 -0.01333332
vt -3.21453238 -0.01333332
vt 3.21453238 -0.01333332
vt 3.21453238 0.01333332
vt -3.21453238 -0.01333332
vt 3.21453238 0.01333332
vt -3.21453238 0.01333332
vt -3.21453238 -3.29232407
vt 3.21453238 -3.38413811
vt 3.21453238 3.22705579
vt -3.21453238 -3.29232407
vt 3.21453238 3.22705579
vt -3.21453238 3.22705579
vt -0.01333333 -3.38413811
vt 0.01333333 -3.38424206
vt 0.01333333 3.22705579
vt -0.01333333 -3.38413811
vt 0.01333333 3.22705579
vt -0.01333333 3.22705579
vt 3.21453238 -3.38424206
vt -3.21453238 -3.29242802
vt -3.21453238 3.22705579
vt 3.21453238 -3.38424206
vt -3.21453238 3.22705579
vt 3.21453238 3.22705579
vt 0.01333333 -3.29242802
vt -0.01333333 -3.29232407
vt -0.01333333 3.22705579
vt 0.01333333 -3.29242802
vt -0.01333333 3.22705579
vt 0.01333333 3.22705579
f 1/1 2/2 3/3
f 4/4 5/5 6/6
f 7/7 8/8 9/9
f 10/10 11/11 12/12
f 13/13 14/14 15/15
f 16/16 17/17 18/18
f 19/19 20/20 21/21
f 22/22 23/23 24/24
f 25/25 26/26 27/27
f 28/28 29/29 30/30
f 31/31 32/32 33/33
f 34/34 35/35 36/36

