# https://github.com/mikedh/trimesh
mtllib material.mtl
usemtl photo_004
v 2.26328015 -2.64248729 -1.20783496
v 2.25870848 -2.64637280 -1.20780492
v 2.12196660 -2.48546720 -1.20486569
v 2.26328015 -2.64248729 -1.20783496
v 2.12196660 -2.48546720 -1.20486569
v 2.12653852 -2.48158145 -1.20489573
v 2.37960315 -2.62312460 -0.46952465
v 2.17773342 -2.38558197 -0.46518546
v 2.17316175 -2.38946772 -0.46515542
v 2.37960315 -2.62312460 -0.46952465
v 2.17316175 -2.38946772 -0.46515542
v 2.37503123 -2.62701035 -0.46949458
v 2.26328015 -2.64248729 -1.20783496
v 2.12653852 -2.48158145 -1.20489573
v 2.17773342 -2.38558197 -0.46518546
v 2.26328015 -2.64248729 -1.20783496
v 2.17773342 -2.38558197 -0.46518546
v 2.37960315 -2.62312460 -0.46952465
v 2.25870848 -2.64637280 -1.20780492
v 2.37503123 -2.62701035 -0.46949458
v 2.17316175 -2.38946772 -0.46515542
v 2.25870848 -2.64637280 -1.20780492
v 2.17316175 -2.38946772 -0.46515542
v 2.12196660 -2.48546720 -1.20486569
v 2.26328015 -2.64248729 -1.20783496
v 2.37960315 -2.62312460 -0.46952465
v 2.37503123 -2.62701035 -0.46949458
v 2.26328015 -2.64248729 -1.20783496
v 2.37503123 -2.62701035 -0.46949458
v 2.25870848 -2.64637280 -1.20780492
v 2.12653852 -2.48158145 -1.20489573
v 2.12196660 -2.48546720 -1.20486569
v 2.17316175 -2.38946772 -0.46515542
v 2.12653852 -2.48158145 -1.20489573
v 2.17316175 -2.38946772 -0.46515542
v 2.17773342 -2.38558197 -0.46518546
vt 0.00536616 0.99195075
vt 0.32796717 0.99195075
vt 0.32796717 0.50804925
vt 0.00536616 0.99195075
vt 0.32796717 0.50804925
vt 0.00536616 0.50804925
vt 0.33869949 0.99195075
vt 0.66130048 0.99195075
vt 0.66130048 0.50804925
vt 0.33869949 0.99195075
vt 0.66130048 0.50804925
vt 0.33869949 0.50804925
vt 0.67203283 0.99195075
vt 0.99463385 0.99195075
vt 0.99463385 0.50804925
vt 0.67203283 0.99195075
vt 0.99463385 0.50804925
vt 0.67203283 0.50804925
vt 0.00536616 0.49195075
vt 0.32796717 0.49195075
vt 0.32796717 0.00804925
vt 0.00536616 0.49195075
vt 0.32796717 0.00804925
vt 0.00536616 0.00804925
vt 0.33869949 0.49195075
vt 0.66130048 0.49195075
vt 0.66130048 0.00804925
vt 0.33869949 0.49195075
vt 0.66130048 0.00804925
vt 0.33869949 0.00804925
vt 0.67203283 0.49195075
vt 0.99463385 0.49195075
vt 0.99463385 0.00804925
vt 0.67203283 0.49195075
vt 0.99463385 0.00804925
vt 0.67203283 0.00804925
f 1/1 2/2 3/3
f 4/4 5/5 6/6
f 7/7 8/8 9/9
f 10/10 11/11 12/12
f 13/13 14/14 15/15
f 16/16 17/17 18/18
f 19/19 20/20 21/21
f 22/22 23/23 24/24
f 25/25 26/26 27/27
f 28/28 29/29 30/30
f 31/31 32/32 33/33
f 34/34 35/35 36/36

