# https://github.com/mikedh/trimesh
mtllib material.mtl
usemtl BrushedStainless
v 0.97727835 1.72996879 -0.27414539
v 1.02117288 1.76969707 -0.27476484
v 1.02586997 1.76451051 -0.27457058
v 0.97727835 1.72996879 -0.27414539
v 1.02586997 1.76451051 -0.27457058
v 0.98197538 1.72478223 -0.27395114
v 0.98009706 1.72955120 -0.10119104
v 1.02399158 1.76927948 -0.10181047
v 1.01929462 1.77446604 -0.10200471
v 0.98009706 1.72955120 -0.10119104
v 1.01929462 1.77446604 -0.10200471
v 0.97540009 1.73473775 -0.10138528
v 0.98197538 1.72478223 -0.27395114
v 1.02586997 1.76451051 -0.27457058
v 1.02399158 1.76927948 -0.10181047
v 0.98197538 1.72478223 -0.27395114
v 1.02399158 1.76927948 -0.10181047
v 0.98009706 1.72955120 -0.10119104
v 1.02586997 1.76451051 -0.27457058
v 1.02117288 1.76969707 -0.27476484
v 1.01929462 1.77446604 -0.10200471
v 1.02586997 1.76451051 -0.27457058
v 1.01929462 1.77446604 -0.10200471
v 1.02399158 1.76927948 -0.10181047
v 1.02117288 1.76969707 -0.27476484
v 0.97727835 1.72996879 -0.27414539
v 0.97540009 1.73473775 -0.10138528
v 1.02117288 1.76969707 -0.27476484
v 0.97540009 1.73473775 -0.10138528
v 1.01929462 1.77446604 -0.10200471
v 0.97727835 1.72996879 -0.27414539
v 0.98197538 1.72478223 -0.27395114
v 0.98009706 1.72955120 -0.10119104
v 0.97727835 1.72996879 -0.27414539
v 0.98009706 1.72955120 -0.10119104
v 0.97540009 1.73473775 -0.10138528
vt 0.00000000 0.00000000
vt 0.00000000 0.00000000
vt 0.00000000 0.00000000
vt 0.00000000 0.00000000
vt 0.00000000 0.00000000
vt 0.00000000 0.00000000
vt 0.00000000 0.00000000
vt 0.00000000 0.00000000
vt 0.00000000 0.00000000
vt 0.00000000 0.00000000
vt 0.00000000 0.00000000
vt 0.00000000 0.00000000
vt 0.00000000 0.00000000
vt 0.00000000 0.00000000
vt 0.00000000 0.00000000
vt 0.00000000 0.00000000
vt 0.00000000 0.00000000
vt 0.00000000 0.00000000
vt 0.00000000 0.00000000
vt 0.00000000 0.00000000
vt 0.00000000 0.00000000
vt 0.00000000 0.00000000
vt 0.00000000 0.00000000
vt 0.00000000 0.00000000
vt 0.00000000 0.00000000
vt 0.00000000 0.00000000
vt 0.00000000 0.00000000
vt 0.00000000 0.00000000
vt 0.00000000 0.00000000
vt 0.00000000 0.00000000
vt 0.00000000 0.00000000
vt 0.00000000 0.00000000
vt 0.00000000 0.00000000
vt 0.00000000 0.00000000
vt 0.00000000 0.00000000
vt 0.00000000 0.00000000
f 1/1 2/2 3/3
f 4/4 5/5 6/6
f 7/7 8/8 9/9
f 10/10 11/11 12/12
f 13/13 14/14 15/15
f 16/16 17/17 18/18
f 19/19 20/20 21/21
f 22/22 23/23 24/24
f 25/25 26/26 27/27
f 28/28 29/29 30/30
f 31/31 32/32 33/33
f 34/34 35/35 36/36

