# https://github.com/mikedh/trimesh
mtllib material.mtl
usemtl DarkRecess
v 2.72084975 2.92025661 -0.81560272
v 3.00049210 3.16364956 -0.81560272
v 3.00311780 3.16063285 -0.81566584
v 2.72084975 2.92025661 -0.81560272
v 3.00311780 3.16063285 -0.81566584
v 2.72347546 2.91723967 -0.81566584
v 2.72597241 2.91437078 -0.57479811
v 3.00561476 3.15776396 -0.57479811
v 3.00298905 3.16078091 -0.57473499
v 2.72597241 2.91437078 -0.57479811
v 3.00298905 3.16078091 -0.57473499
v 2.72334671 2.91738772 -0.57473499
v 2.72347546 2.91723967 -0.81566584
v 3.00311780 3.16063285 -0.81566584
v 3.00561476 3.15776396 -0.57479811
v 2.72347546 2.91723967 -0.81566584
v 3.00561476 3.15776396 -0.57479811
v 2.72597241 2.91437078 -0.57479811
v 3.00311780 3.16063285 -0.81566584
v 3.00049210 3.16364956 -0.81560272
v 3.00298905 3.16078091 -0.57473499
v 3.00311780 3.16063285 -0.81566584
v 3.00298905 3.16078091 -0.57473499
v 3.00561476 3.15776396 -0.57479811
v 3.00049210 3.16364956 -0.81560272
v 2.72084975 2.92025661 -0.81560272
v 2.72334671 2.91738772 -0.57473499
v 3.00049210 3.16364956 -0.81560272
v 2.72334671 2.91738772 -0.57473499
v 3.00298905 3.16078091 -0.57473499
v 2.72084975 2.92025661 -0.81560272
v 2.72347546 2.91723967 -0.81566584
v 2.72597241 2.91437078 -0.57479811
v 2.72084975 2.92025661 -0.81560272
v 2.72597241 2.91437078 -0.57479811
v 2.72334671 2.91738772 -0.57473499
vt 0.00000000 0.00000000
vt 0.00000000 0.00000000
vt 0.00000000 0.00000000
vt 0.00000000 0.00000000
vt 0.00000000 0.00000000
vt 0.00000000 0.00000000
vt 0.00000000 0.00000000
vt 0.00000000 0.00000000
vt 0.00000000 0.00000000
vt 0.00000000 0.00000000
vt 0.00000000 0.00000000
vt 0.00000000 0.00000000
vt 0.00000000 0.00000000
vt 0.00000000 0.00000000
vt 0.00000000 0.00000000
vt 0.00000000 0.00000000
vt 0.00000000 0.00000000
vt 0.00000000 0.00000000
vt 0.00000000 0.00000000
vt 0.00000000 0.00000000
vt 0.00000000 0.00000000
vt 0.00000000 0.00000000
vt 0.00000000 0.00000000
vt 0.00000000 0.00000000
vt 0.00000000 0.00000000
vt 0.00000000 0.00000000
vt 0.00000000 0.00000000
vt 0.00000000 0.00000000
vt 0.00000000 0.00000000
vt 0.00000000 0.00000000
vt 0.00000000 0.00000000
vt 0.00000000 0.00000000
vt 0.00000000 0.00000000
vt 0.00000000 0.00000000
vt 0.00000000 0.00000000
vt 0.00000000 0.00000000
f 1/1 2/2 3/3
f 4/4 5/5 6/6
f 7/7 8/8 9/9
f 10/10 11/11 12/12
f 13/13 14/14 15/15
f 16/16 17/17 18/18
f 19/19 20/20 21/21
f 22/22 23/23 24/24
f 25/25 26/26 27/27
f 28/28 29/29 30/30
f 31/31 32/32 33/33
f 34/34 35/35 36/36

