# https://github.com/mikedh/trimesh
mtllib material.mtl
usemtl BrushedStainless
v 0.93502170 2.02253199 0.81636655
v 0.97470134 2.05652666 0.81764007
v 0.96819717 2.06412196 0.81755221
v 0.93502170 2.02253199 0.81636655
v 0.96819717 2.06412196 0.81755221
v 0.92851752 2.03012729 0.81627870
v 0.92740858 2.03018165 0.90304220
v 0.96708822 2.06417632 0.90431571
v 0.97359246 2.05658102 0.90440357
v 0.92740858 2.03018165 0.90304220
v 0.97359246 2.05658102 0.90440357
v 0.93391281 2.02258635 0.90313011
v 0.92851752 2.03012729 0.81627870
v 0.96819717 2.06412196 0.81755221
v 0.96708822 2.06417632 0.90431571
v 0.92851752 2.03012729 0.81627870
v 0.96708822 2.06417632 0.90431571
v 0.92740858 2.03018165 0.90304220
v 0.96819717 2.06412196 0.81755221
v 0.97470134 2.05652666 0.81764007
v 0.97359246 2.05658102 0.90440357
v 0.96819717 2.06412196 0.81755221
v 0.97359246 2.05658102 0.90440357
v 0.96708822 2.06417632 0.90431571
v 0.97470134 2.05652666 0.81764007
v 0.93502170 2.02253199 0.81636655
v 0.93391281 2.02258635 0.90313011
v 0.97470134 2.05652666 0.81764007
v 0.93391281 2.02258635 0.90313011
v 0.97359246 2.05658102 0.90440357
v 0.93502170 2.02253199 0.81636655
v 0.92851752 2.03012729 0.81627870
v 0.92740858 2.03018165 0.90304220
v 0.93502170 2.02253199 0.81636655
v 0.92740858 2.03018165 0.90304220
v 0.93391281 2.02258635 0.90313011
vt 0.00000000 0.00000000
vt 0.00000000 0.00000000
vt 0.00000000 0.00000000
vt 0.00000000 0.00000000
vt 0.00000000 0.00000000
vt 0.00000000 0.00000000
vt 0.00000000 0.00000000
vt 0.00000000 0.00000000
vt 0.00000000 0.00000000
vt 0.00000000 0.00000000
vt 0.00000000 0.00000000
vt 0.00000000 0.00000000
vt 0.00000000 0.00000000
vt 0.00000000 0.00000000
vt 0.00000000 0.00000000
vt 0.00000000 0.00000000
vt 0.00000000 0.00000000
vt 0.00000000 0.00000000
vt 0.00000000 0.00000000
vt 0.00000000 0.00000000
vt 0.00000000 0.00000000
vt 0.00000000 0.00000000
vt 0.00000000 0.00000000
vt 0.00000000 0.00000000
vt 0.00000000 0.00000000
vt 0.00000000 0.00000000
vt 0.00000000 0.00000000
vt 0.00000000 0.00000000
vt 0.00000000 0.00000000
vt 0.00000000 0.00000000
vt 0.00000000 0.00000000
vt 0.00000000 0.00000000
vt 0.00000000 0.00000000
vt 0.00000000 0.00000000
vt 0.00000000 0.00000000
vt 0.00000000 0.00000000
f 1/1 2/2 3/3
f 4/4 5/5 6/6
f 7/7 8/8 9/9
f 10/10 11/11 12/12
f 13/13 14/14 15/15
f 16/16 17/17 18/18
f 19/19 20/20 21/21
f 22/22 23/23 24/24
f 25/25 26/26 27/27
f 28/28 29/29 30/30
f 31/31 32/32 33/33
f 34/34 35/35 36/36

