# https://github.com/mikedh/trimesh
mtllib material.mtl
usemtl DarkPlastic
v 7.02335835 2.21736431 -0.81376857
v 7.03512764 2.20374489 -0.81376857
v 6.64385223 1.86561656 -0.82298285
v 7.02335835 2.21736431 -0.81376857
v 6.64385223 1.86561656 -0.82298285
v 6.63208294 1.87923574 -0.82298285
v 6.63052034 1.87788558 -0.70708543
v 6.64228964 1.86426628 -0.70708543
v 7.03356552 2.20239472 -0.69787115
v 6.63052034 1.87788558 -0.70708543
v 7.03356552 2.20239472 -0.69787115
v 7.02179623 2.21601391 -0.69787115
v 6.63208294 1.87923574 -0.82298285
v 6.64385223 1.86561656 -0.82298285
v 6.64228964 1.86426628 -0.70708543
v 6.63208294 1.87923574 -0.82298285
v 6.64228964 1.86426628 -0.70708543
v 6.63052034 1.87788558 -0.70708543
v 6.64385223 1.86561656 -0.82298285
v 7.03512764 2.20374489 -0.81376857
v 7.03356552 2.20239472 -0.69787115
v 6.64385223 1.86561656 -0.82298285
v 7.03356552 2.20239472 -0.69787115
v 6.64228964 1.86426628 -0.70708543
v 7.03512764 2.20374489 -0.81376857
v 7.02335835 2.21736431 -0.81376857
v 7.02179623 2.21601391 -0.69787115
v 7.03512764 2.20374489 -0.81376857
v 7.02179623 2.21601391 -0.69787115
v 7.03356552 2.20239472 -0.69787115
v 7.02335835 2.21736431 -0.81376857
v 6.63208294 1.87923574 -0.82298285
v 6.63052034 1.87788558 -0.70708543
v 7.02335835 2.21736431 -0.81376857
v 6.63052034 1.87788558 -0.70708543
v 7.02179623 2.21601391 -0.69787115
vt -0.02000000 0.57468438
vt 0.02000000 0.57468438
vt 0.02000000 -0.57468438
vt -0.02000000 0.57468438
vt 0.02000000 -0.57468438
vt -0.02000000 -0.57468438
vt -0.02000000 -0.57468438
vt 0.02000000 -0.57468438
vt 0.02000000 0.57468438
vt -0.02000000 -0.57468438
vt 0.02000000 0.57468438
vt -0.02000000 0.57468438
vt -0.02000000 -0.12879539
vt 0.02000000 -0.12879539
vt 0.02000000 0.12879533
vt -0.02000000 -0.12879539
vt 0.02000000 0.12879533
vt -0.02000000 0.12879533
vt -0.57468438 -0.12879539
vt 0.57468438 -0.12879539
vt 0.57468438 0.12879533
vt -0.57468438 -0.12879539
vt 0.57468438 0.12879533
vt -0.57468438 0.12879533
vt 0.02000000 -0.12879539
vt -0.02000000 -0.12879539
vt -0.02000000 0.12879533
vt 0.02000000 -0.12879539
vt -0.02000000 0.12879533
vt 0.02000000 0.12879533
vt 0.57468438 -0.12879539
vt -0.57468438 -0.12879539
vt -0.57468438 0.12879533
vt 0.57468438 -0.12879539
vt -0.57468438 0.12879533
vt 0.57468438 0.12879533
f 1/1 2/2 3/3
f 4/4 5/5 6/6
f 7/7 8/8 9/9
f 10/10 11/11 12/12
f 13/13 14/14 15/15
f 16/16 17/17 18/18
f 19/19 20/20 21/21
f 22/22 23/23 24/24
f 25/25 26/26 27/27
f 28/28 29/29 30/30
f 31/31 32/32 33/33
f 34/34 35/35 36/36

