# https://github.com/mikedh/trimesh
mtllib material.mtl
usemtl DarkRecess
v 6.72249365 1.75331986 -0.51868439
v 6.96648359 1.47097945 -0.51868439
v 6.96421385 1.46901822 -0.51873779
v 6.72249365 1.75331986 -0.51868439
v 6.96421385 1.46901822 -0.51873779
v 6.72022390 1.75135863 -0.51873779
v 6.71961737 1.75083447 -0.47374496
v 6.96360731 1.46849406 -0.47374496
v 6.96587706 1.47045529 -0.47369149
v 6.71961737 1.75083447 -0.47374496
v 6.96587706 1.47045529 -0.47369149
v 6.72188711 1.75279570 -0.47369149
v 6.72022390 1.75135863 -0.51873779
v 6.96421385 1.46901822 -0.51873779
v 6.96360731 1.46849406 -0.47374496
v 6.72022390 1.75135863 -0.51873779
v 6.96360731 1.46849406 -0.47374496
v 6.71961737 1.75083447 -0.47374496
v 6.96421385 1.46901822 -0.51873779
v 6.96648359 1.47097945 -0.51868439
v 6.96587706 1.47045529 -0.47369149
v 6.96421385 1.46901822 -0.51873779
v 6.96587706 1.47045529 -0.47369149
v 6.96360731 1.46849406 -0.47374496
v 6.96648359 1.47097945 -0.51868439
v 6.72249365 1.75331986 -0.51868439
v 6.72188711 1.75279570 -0.47369149
v 6.96648359 1.47097945 -0.51868439
v 6.72188711 1.75279570 -0.47369149
v 6.96587706 1.47045529 -0.47369149
v 6.72249365 1.75331986 -0.51868439
v 6.72022390 1.75135863 -0.51873779
v 6.71961737 1.75083447 -0.47374496
v 6.72249365 1.75331986 -0.51868439
v 6.71961737 1.75083447 -0.47374496
v 6.72188711 1.75279570 -0.47369149
vt 0.00000000 0.00000000
vt 0.00000000 0.00000000
vt 0.00000000 0.00000000
vt 0.00000000 0.00000000
vt 0.00000000 0.00000000
vt 0.00000000 0.00000000
vt 0.00000000 0.00000000
vt 0.00000000 0.00000000
vt 0.00000000 0.00000000
vt 0.00000000 0.00000000
vt 0.00000000 0.00000000
vt 0.00000000 0.00000000
vt 0.00000000 0.00000000
vt 0.00000000 0.00000000
vt 0.00000000 0.00000000
vt 0.00000000 0.00000000
vt 0.00000000 0.00000000
vt 0.00000000 0.00000000
vt 0.00000000 0.00000000
vt 0.00000000 0.00000000
vt 0.00000000 0.00000000
vt 0.00000000 0.00000000
vt 0.00000000 0.00000000
vt 0.00000000 0.00000000
vt 0.00000000 0.00000000
vt 0.00000000 0.00000000
vt 0.00000000 0.00000000
vt 0.00000000 0.00000000
vt 0.00000000 0.00000000
vt 0.00000000 0.00000000
vt 0.00000000 0.00000000
vt 0.00000000 0.00000000
vt 0.00000000 0.00000000
vt 0.00000000 0.00000000
vt 0.00000000 0.00000000
vt 0.00000000 0.00000000
f 1/1 2/2 3/3
f 4/4 5/5 6/6
f 7/7 8/8 9/9
f 10/10 11/11 12/12
f 13/13 14/14 15/15
f 16/16 17/17 18/18
f 19/19 20/20 21/21
f 22/22 23/23 24/24
f 25/25 26/26 27/27
f 28/28 29/29 30/30
f 31/31 32/32 33/33
f 34/34 35/35 36/36

