# https://github.com/mikedh/trimesh
mtllib material.mtl
usemtl TubularBlackSteel
v 3.92816234 0.76020837 -0.63315052
v 3.93200326 0.75757283 -0.63322639
v 3.93244290 0.75748241 -0.60783857
v 3.92816234 0.76020837 -0.63315052
v 3.93244290 0.75748241 -0.60783857
v 3.92860222 0.76011795 -0.60776269
v 3.93200326 0.75757283 -0.63322639
v 3.93664718 0.75721121 -0.63330805
v 3.93708682 0.75712073 -0.60792035
v 3.93200326 0.75757283 -0.63322639
v 3.93708682 0.75712073 -0.60792035
v 3.93244290 0.75748241 -0.60783857
v 3.93664718 0.75721121 -0.63330805
v 3.94085002 0.75922030 -0.63337374
v 3.94128966 0.75912988 -0.60798591
v 3.93664718 0.75721121 -0.63330805
v 3.94128966 0.75912988 -0.60798591
v 3.93708682 0.75712073 -0.60792035
v 3.94085002 0.75922030 -0.63337374
v 3.94348550 0.76306188 -0.63340569
v 3.94392514 0.76297146 -0.60801792
v 3.94085002 0.75922030 -0.63337374
v 3.94392514 0.76297146 -0.60801792
v 3.94128966 0.75912988 -0.60798591
v 3.94348550 0.76306188 -0.63340569
v 3.94384718 0.76770651 -0.63339543
v 3.94428682 0.76761609 -0.60800761
v 3.94348550 0.76306188 -0.63340569
v 3.94428682 0.76761609 -0.60800761
v 3.94392514 0.76297146 -0.60801792
v 3.94384718 0.76770651 -0.63339543
v 3.94183874 0.77190977 -0.63334566
v 3.94227839 0.77181929 -0.60795784
v 3.94384718 0.76770651 -0.63339543
v 3.94227839 0.77181929 -0.60795784
v 3.94428682 0.76761609 -0.60800761
v 3.94183874 0.77190977 -0.63334566
v 3.93799782 0.77454525 -0.63326979
v 3.93843746 0.77445483 -0.60788196
v 3.94183874 0.77190977 -0.63334566
v 3.93843746 0.77445483 -0.60788196
v 3.94227839 0.77181929 -0.60795784
v 3.93799782 0.77454525 -0.63326979
v 3.93335390 0.77490693 -0.63318801
v 3.93379354 0.77481651 -0.60780019
v 3.93799782 0.77454525 -0.63326979
v 3.93379354 0.77481651 -0.60780019
v 3.93843746 0.77445483 -0.60788196
v 3.93335390 0.77490693 -0.63318801
v 3.92915106 0.77289778 -0.63312238
v 3.92959070 0.77280736 -0.60773462
v 3.93335390 0.77490693 -0.63318801
v 3.92959070 0.77280736 -0.60773462
v 3.93379354 0.77481651 -0.60780019
v 3.92915106 0.77289778 -0.63312238
v 3.92651582 0.76905626 -0.63309044
v 3.92695546 0.76896578 -0.60770261
v 3.92915106 0.77289778 -0.63312238
v 3.92695546 0.76896578 -0.60770261
v 3.92959070 0.77280736 -0.60773462
v 3.92651582 0.76905626 -0.63309044
v 3.92615390 0.76441157 -0.63310075
v 3.92659354 0.76432115 -0.60771292
v 3.92651582 0.76905626 -0.63309044
v 3.92659354 0.76432115 -0.60771292
v 3.92695546 0.76896578 -0.60770261
v 3.92615390 0.76441157 -0.63310075
v 3.92816234 0.76020837 -0.63315052
v 3.92860222 0.76011795 -0.60776269
v 3.92615390 0.76441157 -0.63310075
v 3.92860222 0.76011795 -0.60776269
v 3.92659354 0.76432115 -0.60771292
v 3.92615390 0.76441157 -0.63310075
v 3.92651582 0.76905626 -0.63309044
v 3.92915106 0.77289778 -0.63312238
v 3.92615390 0.76441157 -0.63310075
v 3.92915106 0.77289778 -0.63312238
v 3.93335390 0.77490693 -0.63318801
v 3.92615390 0.76441157 -0.63310075
v 3.93335390 0.77490693 -0.63318801
v 3.93799782 0.77454525 -0.63326979
v 3.92615390 0.76441157 -0.63310075
v 3.93799782 0.77454525 -0.63326979
v 3.94183874 0.77190977 -0.63334566
v 3.92615390 0.76441157 -0.63310075
v 3.94183874 0.77190977 -0.63334566
v 3.94384718 0.76770651 -0.63339543
v 3.92615390 0.76441157 -0.63310075
v 3.94384718 0.76770651 -0.63339543
v 3.94348550 0.76306188 -0.63340569
v 3.92615390 0.76441157 -0.63310075
v 3.94348550 0.76306188 -0.63340569
v 3.94085002 0.75922030 -0.63337374
v 3.92615390 0.76441157 -0.63310075
v 3.94085002 0.75922030 -0.63337374
v 3.93664718 0.75721121 -0.63330805
v 3.92615390 0.76441157 -0.63310075
v 3.93664718 0.75721121 -0.63330805
v 3.93200326 0.75757283 -0.63322639
v 3.92615390 0.76441157 -0.63310075
v 3.93200326 0.75757283 -0.63322639
v 3.92816234 0.76020837 -0.63315052
v 3.92860222 0.76011795 -0.60776269
v 3.93244290 0.75748241 -0.60783857
v 3.93708682 0.75712073 -0.60792035
v 3.92860222 0.76011795 -0.60776269
v 3.93708682 0.75712073 -0.60792035
v 3.94128966 0.75912988 -0.60798591
v 3.92860222 0.76011795 -0.60776269
v 3.94128966 0.75912988 -0.60798591
v 3.94392514 0.76297146 -0.60801792
v 3.92860222 0.76011795 -0.60776269
v 3.94392514 0.76297146 -0.60801792
v 3.94428682 0.76761609 -0.60800761
v 3.92860222 0.76011795 -0.60776269
v 3.94428682 0.76761609 -0.60800761
v 3.94227839 0.77181929 -0.60795784
v 3.92860222 0.76011795 -0.60776269
v 3.94227839 0.77181929 -0.60795784
v 3.93843746 0.77445483 -0.60788196
v 3.92860222 0.76011795 -0.60776269
v 3.93843746 0.77445483 -0.60788196
v 3.93379354 0.77481651 -0.60780019
v 3.92860222 0.76011795 -0.60776269
v 3.93379354 0.77481651 -0.60780019
v 3.92959070 0.77280736 -0.60773462
v 3.92860222 0.76011795 -0.60776269
v 3.92959070 0.77280736 -0.60773462
v 3.92695546 0.76896578 -0.60770261
v 3.92860222 0.76011795 -0.60776269
v 3.92695546 0.76896578 -0.60770261
v 3.92659354 0.76432115 -0.60771292
vt 0.00000000 0.00000000
vt 0.00000000 0.00000000
vt 0.00000000 0.00000000
vt 0.00000000 0.00000000
vt 0.00000000 0.00000000
vt 0.00000000 0.00000000
vt 0.00000000 0.00000000
vt 0.00000000 0.00000000
vt 0.00000000 0.00000000
vt 0.00000000 0.00000000
vt 0.00000000 0.00000000
vt 0.00000000 0.00000000
vt 0.00000000 0.00000000
vt 0.00000000 0.00000000
vt 0.00000000 0.00000000
vt 0.00000000 0.00000000
vt 0.00000000 0.00000000
vt 0.00000000 0.00000000
vt 0.00000000 0.00000000
vt 0.00000000 0.00000000
vt 0.00000000 0.00000000
vt 0.00000000 0.00000000
vt 0.00000000 0.00000000
vt 0.00000000 0.00000000
vt 0.00000000 0.00000000
vt 0.00000000 0.00000000
vt 0.00000000 0.00000000
vt 0.00000000 0.00000000
vt 0.00000000 0.00000000
vt 0.00000000 0.00000000
vt 0.00000000 0.00000000
vt 0.00000000 0.00000000
vt 0.00000000 0.00000000
vt 0.00000000 0.00000000
vt 0.00000000 0.00000000
vt 0.00000000 0.00000000
vt 0.00000000 0.00000000
vt 0.00000000 0.00000000
vt 0.00000000 0.00000000
vt 0.00000000 0.00000000
vt 0.00000000 0.00000000
vt 0.00000000 0.00000000
vt 0.00000000 0.00000000
vt 0.00000000 0.00000000
vt 0.00000000 0.00000000
vt 0.00000000 0.00000000
vt 0.00000000 0.00000000
vt 0.00000000 0.00000000
vt 0.00000000 0.00000000
vt 0.00000000 0.00000000
vt 0.00000000 0.00000000
vt 0.00000000 0.00000000
vt 0.00000000 0.00000000
vt 0.00000000 0.00000000
vt 0.00000000 0.00000000
vt 0.00000000 0.00000000
vt 0.00000000 0.00000000
vt 0.00000000 0.00000000
vt 0.00000000 0.00000000
vt 0.00000000 0.00000000
vt 0.00000000 0.00000000
vt 0.00000000 0.00000000
vt 0.00000000 0.00000000
vt 0.00000000 0.00000000
vt 0.00000000 0.00000000
vt 0.00000000 0.00000000
vt 0.00000000 0.00000000
vt 0.00000000 0.00000000
vt 0.00000000 0.00000000
vt 0.00000000 0.00000000
vt 0.00000000 0.00000000
vt 0.00000000 0.00000000
vt 0.00000000 0.00000000
vt 0.00000000 0.00000000
vt 0.00000000 0.00000000
vt 0.00000000 0.00000000
vt 0.00000000 0.00000000
vt 0.00000000 0.00000000
vt 0.00000000 0.00000000
vt 0.00000000 0.00000000
vt 0.00000000 0.00000000
vt 0.00000000 0.00000000
vt 0.00000000 0.00000000
vt 0.00000000 0.00000000
vt 0.00000000 0.00000000
vt 0.00000000 0.00000000
vt 0.00000000 0.00000000
vt 0.00000000 0.00000000
vt 0.00000000 0.00000000
vt 0.00000000 0.00000000
vt 0.00000000 0.00000000
vt 0.00000000 0.00000000
vt 0.00000000 0.00000000
vt 0.00000000 0.00000000
vt 0.00000000 0.00000000
vt 0.00000000 0.00000000
vt 0.00000000 0.00000000
vt 0.00000000 0.00000000
vt 0.00000000 0.00000000
vt 0.00000000 0.00000000
vt 0.00000000 0.00000000
vt 0.00000000 0.00000000
vt 0.00000000 0.00000000
vt 0.00000000 0.00000000
vt 0.00000000 0.00000000
vt 0.00000000 0.00000000
vt 0.00000000 0.00000000
vt 0.00000000 0.00000000
vt 0.00000000 0.00000000
vt 0.00000000 0.00000000
vt 0.00000000 0.00000000
vt 0.00000000 0.00000000
vt 0.00000000 0.00000000
vt 0.00000000 0.00000000
vt 0.00000000 0.00000000
vt 0.00000000 0.00000000
vt 0.00000000 0.00000000
vt 0.00000000 0.00000000
vt 0.00000000 0.00000000
vt 0.00000000 0.00000000
vt 0.00000000 0.00000000
vt 0.00000000 0.00000000
vt 0.00000000 0.00000000
vt 0.00000000 0.00000000
vt 0.00000000 0.00000000
vt 0.00000000 0.00000000
vt 0.00000000 0.00000000
vt 0.00000000 0.00000000
vt 0.00000000 0.00000000
vt 0.00000000 0.00000000
vt 0.00000000 0.00000000
vt 0.00000000 0.00000000
f 1/1 2/2 3/3
f 4/4 5/5 6/6
f 7/7 8/8 9/9
f 10/10 11/11 12/12
f 13/13 14/14 15/15
f 16/16 17/17 18/18
f 19/19 20/20 21/21
f 22/22 23/23 24/24
f 25/25 26/26 27/27
f 28/28 29/29 30/30
f 31/31 32/32 33/33
f 34/34 35/35 36/36
f 37/37 38/38 39/39
f 40/40 41/41 42/42
f 43/43 44/44 45/45
f 46/46 47/47 48/48
f 49/49 50/50 51/51
f 52/52 53/53 54/54
f 55/55 56/56 57/57
f 58/58 59/59 60/60
f 61/61 62/62 63/63
f 64/64 65/65 66/66
f 67/67 68/68 69/69
f 70/70 71/71 72/72
f 73/73 74/74 75/75
f 76/76 77/77 78/78
f 79/79 80/80 81/81
f 82/82 83/83 84/84
f 85/85 86/86 87/87
f 88/88 89/89 90/90
f 91/91 92/92 93/93
f 94/94 95/95 96/96
f 97/97 98/98 99/99
f 100/100 101/101 102/102
f 103/103 104/104 105/105
f 106/106 107/107 108/108
f 109/109 110/110 111/111
f 112/112 113/113 114/114
f 115/115 116/116 117/117
f 118/118 119/119 120/120
f 121/121 122/122 123/123
f 124/124 125/125 126/126
f 127/127 128/128 129/129
f 130/130 131/131 132/132

