# https://github.com/mikedh/trimesh
mtllib material.mtl
usemtl WarmWhitePaint
v 8.16240215 -0.00280444 -1.32016051
v 8.13679886 -0.02666845 -1.32000721
v 8.09929848 0.01356470 -1.31922948
v 8.16240215 -0.00280444 -1.32016051
v 8.09929848 0.01356470 -1.31922948
v 8.12490082 0.03742871 -1.31938279
v 8.12490082 0.03742871 1.49630964
v 8.09929848 0.01356470 1.49630964
v 8.13679886 -0.02666845 1.49630964
v 8.12490082 0.03742871 1.49630964
v 8.13679886 -0.02666845 1.49630964
v 8.16240215 -0.00280444 1.49630964
v 8.12490082 0.03742871 -1.31938279
v 8.09929848 0.01356470 -1.31922948
v 8.09929848 0.01356470 1.49630964
v 8.12490082 0.03742871 -1.31938279
v 8.09929848 0.01356470 1.49630964
v 8.12490082 0.03742871 1.49630964
v 8.09929848 0.01356470 -1.31922948
v 8.13679886 -0.02666845 -1.32000721
v 8.13679886 -0.02666845 1.49630964
v 8.09929848 0.01356470 -1.31922948
v 8.13679886 -0.02666845 1.49630964
v 8.09929848 0.01356470 1.49630964
v 8.13679886 -0.02666845 -1.32000721
v 8.16240215 -0.00280444 -1.32016051
v 8.16240215 -0.00280444 1.49630964
v 8.13679886 -0.02666845 -1.32000721
v 8.16240215 -0.00280444 1.49630964
v 8.13679886 -0.02666845 1.49630964
v 8.16240215 -0.00280444 -1.32016051
v 8.12490082 0.03742871 -1.31938279
v 8.12490082 0.03742871 1.49630964
v 8.16240215 -0.00280444 -1.32016051
v 8.12490082 0.03742871 1.49630964
v 8.16240215 -0.00280444 1.49630964
vt -0.03888889 0.06111109
vt 0.03888889 0.06111109
vt 0.03888889 -0.06111109
vt -0.03888889 0.06111109
vt 0.03888889 -0.06111109
vt -0.03888889 -0.06111109
vt -0.03888889 -0.06111109
vt 0.03888889 -0.06111109
vt 0.03888889 0.06111109
vt -0.03888889 -0.06111109
vt 0.03888889 0.06111109
vt -0.03888889 0.06111109
vt -0.03888889 -3.19116306
vt 0.03888889 -3.19082260
vt 0.03888889 3.06593108
vt -0.03888889 -3.19116306
vt 0.03888889 3.06593108
vt -0.03888889 3.06593108
vt -0.06111111 -3.19082260
vt 0.06111111 -3.19255066
vt 0.06111111 3.06593108
vt -0.06111111 -3.19082260
vt 0.06111111 3.06593108
vt -0.06111111 3.06593108
vt 0.03888889 -3.19255066
vt -0.03888889 -3.19289160
vt -0.03888889 3.06593108
vt 0.03888889 -3.19255066
vt -0.03888889 3.06593108
vt 0.03888889 3.06593108
vt 0.06111111 -3.19289160
vt -0.06111111 -3.19116306
vt -0.06111111 3.06593108
vt 0.06111111 -3.19289160
vt -0.06111111 3.06593108
vt 0.06111111 3.06593108
f 1/1 2/2 3/3
f 4/4 5/5 6/6
f 7/7 8/8 9/9
f 10/10 11/11 12/12
f 13/13 14/14 15/15
f 16/16 17/17 18/18
f 19/19 20/20 21/21
f 22/22 23/23 24/24
f 25/25 26/26 27/27
f 28/28 29/29 30/30
f 31/31 32/32 33/33
f 34/34 35/35 36/36

