# https://github.com/mikedh/trimesh
mtllib material.mtl
usemtl DarkPlastic
v 6.13143492 2.57062745 -1.23013401
v 6.70337391 1.90912354 -1.24234760
v 6.68445396 1.89277327 -1.24222481
v 6.13143492 2.57062745 -1.23013401
v 6.68445396 1.89277327 -1.24222481
v 6.11251450 2.55427718 -1.23001122
v 6.11180401 2.55366325 -1.17730498
v 6.68357849 1.89201689 -1.17730498
v 6.70249128 1.90836060 -1.17685950
v 6.11180401 2.55366325 -1.17730498
v 6.70249128 1.90836060 -1.17685950
v 6.13071680 2.57000685 -1.17685950
v 6.11251450 2.55427718 -1.23001122
v 6.68445396 1.89277327 -1.24222481
v 6.68357849 1.89201689 -1.17730498
v 6.11251450 2.55427718 -1.23001122
v 6.68357849 1.89201689 -1.17730498
v 6.11180401 2.55366325 -1.17730498
v 6.68445396 1.89277327 -1.24222481
v 6.70337391 1.90912354 -1.24234760
v 6.70249128 1.90836060 -1.17685950
v 6.68445396 1.89277327 -1.24222481
v 6.70249128 1.90836060 -1.17685950
v 6.68357849 1.89201689 -1.17730498
v 6.70337391 1.90912354 -1.24234760
v 6.13143492 2.57062745 -1.23013401
v 6.13071680 2.57000685 -1.17685950
v 6.70337391 1.90912354 -1.24234760
v 6.13071680 2.57000685 -1.17685950
v 6.70249128 1.90836060 -1.17685950
v 6.13143492 2.57062745 -1.23013401
v 6.11251450 2.55427718 -1.23001122
v 6.11180401 2.55366325 -1.17730498
v 6.13143492 2.57062745 -1.23013401
v 6.11180401 2.55366325 -1.17730498
v 6.13071680 2.57000685 -1.17685950
vt -0.97163582 0.02777779
vt 0.97163582 0.02777779
vt 0.97163582 -0.02777779
vt -0.97163582 0.02777779
vt 0.97163582 -0.02777779
vt -0.97163582 -0.02777779
vt -0.97163582 -0.02777779
vt 0.97163582 -0.02777779
vt 0.97163582 0.02777779
vt -0.97163582 -0.02777779
vt 0.97163582 0.02777779
vt -0.97163582 0.02777779
vt -0.97163582 -0.00603271
vt 0.97163582 -0.03317821
vt 0.97163582 0.11111110
vt -0.97163582 -0.00603271
vt 0.97163582 0.11111110
vt -0.97163582 0.11111110
vt -0.02777778 -0.03317821
vt 0.02777778 -0.03444088
vt 0.02777778 0.11111110
vt -0.02777778 -0.03317821
vt 0.02777778 0.11111110
vt -0.02777778 0.11111110
vt 0.97163582 -0.03444088
vt -0.97163582 -0.00729537
vt -0.97163582 0.11111110
vt 0.97163582 -0.03444088
vt -0.97163582 0.11111110
vt 0.97163582 0.11111110
vt 0.02777778 -0.00729537
vt -0.02777778 -0.00603271
vt -0.02777778 0.11111110
vt 0.02777778 -0.00729537
vt -0.02777778 0.11111110
vt 0.02777778 0.11111110
f 1/1 2/2 3/3
f 4/4 5/5 6/6
f 7/7 8/8 9/9
f 10/10 11/11 12/12
f 13/13 14/14 15/15
f 16/16 17/17 18/18
f 19/19 20/20 21/21
f 22/22 23/23 24/24
f 25/25 26/26 27/27
f 28/28 29/29 30/30
f 31/31 32/32 33/33
f 34/34 35/35 36/36

