# https://github.com/mikedh/trimesh
mtllib material.mtl
usemtl BrushedStainless
v 5.43017530 3.25477529 -0.54276359
v 6.06523180 2.51990008 -0.54276359
v 6.05615377 2.51205516 -0.54297739
v 5.43017530 3.25477529 -0.54276359
v 6.05615377 2.51205516 -0.54297739
v 5.42109728 3.24693036 -0.54297739
v 5.41907549 3.24518323 -0.39300120
v 6.05413198 2.51030779 -0.39300120
v 6.06321001 2.51815271 -0.39278743
v 5.41907549 3.24518323 -0.39300120
v 6.06321001 2.51815271 -0.39278743
v 5.42815351 3.25302815 -0.39278743
v 5.42109728 3.24693036 -0.54297739
v 6.05615377 2.51205516 -0.54297739
v 6.05413198 2.51030779 -0.39300120
v 5.42109728 3.24693036 -0.54297739
v 6.05413198 2.51030779 -0.39300120
v 5.41907549 3.24518323 -0.39300120
v 6.05615377 2.51205516 -0.54297739
v 6.06523180 2.51990008 -0.54276359
v 6.06321001 2.51815271 -0.39278743
v 6.05615377 2.51205516 -0.54297739
v 6.06321001 2.51815271 -0.39278743
v 6.05413198 2.51030779 -0.39300120
v 6.06523180 2.51990008 -0.54276359
v 5.43017530 3.25477529 -0.54276359
v 5.42815351 3.25302815 -0.39278743
v 6.06523180 2.51990008 -0.54276359
v 5.42815351 3.25302815 -0.39278743
v 6.06321001 2.51815271 -0.39278743
v 5.43017530 3.25477529 -0.54276359
v 5.42109728 3.24693036 -0.54297739
v 5.41907549 3.24518323 -0.39300120
v 5.43017530 3.25477529 -0.54276359
v 5.41907549 3.24518323 -0.39300120
v 5.42815351 3.25302815 -0.39278743
vt 0.00000000 0.00000000
vt 0.00000000 0.00000000
vt 0.00000000 0.00000000
vt 0.00000000 0.00000000
vt 0.00000000 0.00000000
vt 0.00000000 0.00000000
vt 0.00000000 0.00000000
vt 0.00000000 0.00000000
vt 0.00000000 0.00000000
vt 0.00000000 0.00000000
vt 0.00000000 0.00000000
vt 0.00000000 0.00000000
vt 0.00000000 0.00000000
vt 0.00000000 0.00000000
vt 0.00000000 0.00000000
vt 0.00000000 0.00000000
vt 0.00000000 0.00000000
vt 0.00000000 0.00000000
vt 0.00000000 0.00000000
vt 0.00000000 0.00000000
vt 0.00000000 0.00000000
vt 0.00000000 0.00000000
vt 0.00000000 0.00000000
vt 0.00000000 0.00000000
vt 0.00000000 0.00000000
vt 0.00000000 0.00000000
vt 0.00000000 0.00000000
vt 0.00000000 0.00000000
vt 0.00000000 0.00000000
vt 0.00000000 0.00000000
vt 0.00000000 0.00000000
vt 0.00000000 0.00000000
vt 0.00000000 0.00000000
vt 0.00000000 0.00000000
vt 0.00000000 0.00000000
vt 0.00000000 0.00000000
f 1/1 2/2 3/3
f 4/4 5/5 6/6
f 7/7 8/8 9/9
f 10/10 11/11 12/12
f 13/13 14/14 15/15
f 16/16 17/17 18/18
f 19/19 20/20 21/21
f 22/22 23/23 24/24
f 25/25 26/26 27/27
f 28/28 29/29 30/30
f 31/31 32/32 33/33
f 34/34 35/35 36/36

