# https://github.com/mikedh/trimesh
mtllib material.mtl
usemtl DarkPlastic
v 6.47576284 2.86025524 -0.64708024
v 6.71578932 2.58250165 -0.64708024
v 6.70217228 2.57073426 -0.64740092
v 6.47576284 2.86025524 -0.64708024
v 6.70217228 2.57073426 -0.64740092
v 6.46214581 2.84848785 -0.64740092
v 6.46058369 2.84713769 -0.53150350
v 6.70060968 2.56938386 -0.53150350
v 6.71422672 2.58115149 -0.53118283
v 6.46058369 2.84713769 -0.53150350
v 6.71422672 2.58115149 -0.53118283
v 6.47420073 2.85890508 -0.53118283
v 6.46214581 2.84848785 -0.64740092
v 6.70217228 2.57073426 -0.64740092
v 6.70060968 2.56938386 -0.53150350
v 6.46214581 2.84848785 -0.64740092
v 6.70060968 2.56938386 -0.53150350
v 6.46058369 2.84713769 -0.53150350
v 6.70217228 2.57073426 -0.64740092
v 6.71578932 2.58250165 -0.64708024
v 6.71422672 2.58115149 -0.53118283
v 6.70217228 2.57073426 -0.64740092
v 6.71422672 2.58115149 -0.53118283
v 6.70060968 2.56938386 -0.53150350
v 6.71578932 2.58250165 -0.64708024
v 6.47576284 2.86025524 -0.64708024
v 6.47420073 2.85890508 -0.53118283
v 6.71578932 2.58250165 -0.64708024
v 6.47420073 2.85890508 -0.53118283
v 6.71422672 2.58115149 -0.53118283
v 6.47576284 2.86025524 -0.64708024
v 6.46214581 2.84848785 -0.64740092
v 6.46058369 2.84713769 -0.53150350
v 6.47576284 2.86025524 -0.64708024
v 6.46058369 2.84713769 -0.53150350
v 6.47420073 2.85890508 -0.53118283
vt -0.40788484 0.01999998
vt 0.40788484 0.01999998
vt 0.40788484 -0.01999998
vt -0.40788484 0.01999998
vt 0.40788484 -0.01999998
vt -0.40788484 -0.01999998
vt -0.40788484 -0.01999998
vt 0.40788484 -0.01999998
vt 0.40788484 0.01999998
vt -0.40788484 -0.01999998
vt 0.40788484 0.01999998
vt -0.40788484 0.01999998
vt -0.40788484 -0.12879539
vt 0.40788484 -0.12879539
vt 0.40788484 0.12879533
vt -0.40788484 -0.12879539
vt 0.40788484 0.12879533
vt -0.40788484 0.12879533
vt -0.02000000 -0.12879539
vt 0.02000000 -0.12879539
vt 0.02000000 0.12879533
vt -0.02000000 -0.12879539
vt 0.02000000 0.12879533
vt -0.02000000 0.12879533
vt 0.40788484 -0.12879539
vt -0.40788484 -0.12879539
vt -0.40788484 0.12879533
vt 0.40788484 -0.12879539
vt -0.40788484 0.12879533
vt 0.40788484 0.12879533
vt 0.02000000 -0.12879539
vt -0.02000000 -0.12879539
vt -0.02000000 0.12879533
vt 0.02000000 -0.12879539
vt -0.02000000 0.12879533
vt 0.02000000 0.12879533
f 1/1 2/2 3/3
f 4/4 5/5 6/6
f 7/7 8/8 9/9
f 10/10 11/11 12/12
f 13/13 14/14 15/15
f 16/16 17/17 18/18
f 19/19 20/20 21/21
f 22/22 23/23 24/24
f 25/25 26/26 27/27
f 28/28 29/29 30/30
f 31/31 32/32 33/33
f 34/34 35/35 36/36

