# https://github.com/mikedh/trimesh
mtllib material.mtl
usemtl DarkPlastic
v 6.47568989 2.86019206 -1.14682448
v 6.48745918 2.84657264 -1.14682448
v 6.09618330 2.50844431 -1.15603888
v 6.47568989 2.86019206 -1.14682448
v 6.09618330 2.50844431 -1.15603888
v 6.08441401 2.52206349 -1.15603888
v 6.08285141 2.52071333 -1.04014146
v 6.09462070 2.50709414 -1.04014146
v 6.48589659 2.84522247 -1.03092706
v 6.08285141 2.52071333 -1.04014146
v 6.48589659 2.84522247 -1.03092706
v 6.47412729 2.85884166 -1.03092706
v 6.08441401 2.52206349 -1.15603888
v 6.09618330 2.50844431 -1.15603888
v 6.09462070 2.50709414 -1.04014146
v 6.08441401 2.52206349 -1.15603888
v 6.09462070 2.50709414 -1.04014146
v 6.08285141 2.52071333 -1.04014146
v 6.09618330 2.50844431 -1.15603888
v 6.48745918 2.84657264 -1.14682448
v 6.48589659 2.84522247 -1.03092706
v 6.09618330 2.50844431 -1.15603888
v 6.48589659 2.84522247 -1.03092706
v 6.09462070 2.50709414 -1.04014146
v 6.48745918 2.84657264 -1.14682448
v 6.47568989 2.86019206 -1.14682448
v 6.47412729 2.85884166 -1.03092706
v 6.48745918 2.84657264 -1.14682448
v 6.47412729 2.85884166 -1.03092706
v 6.48589659 2.84522247 -1.03092706
v 6.47568989 2.86019206 -1.14682448
v 6.08441401 2.52206349 -1.15603888
v 6.08285141 2.52071333 -1.04014146
v 6.47568989 2.86019206 -1.14682448
v 6.08285141 2.52071333 -1.04014146
v 6.47412729 2.85884166 -1.03092706
vt -0.02000000 0.57468438
vt 0.02000000 0.57468438
vt 0.02000000 -0.57468438
vt -0.02000000 0.57468438
vt 0.02000000 -0.57468438
vt -0.02000000 -0.57468438
vt -0.02000000 -0.57468438
vt 0.02000000 -0.57468438
vt 0.02000000 0.57468438
vt -0.02000000 -0.57468438
vt 0.02000000 0.57468438
vt -0.02000000 0.57468438
vt -0.02000000 -0.12879539
vt 0.02000000 -0.12879539
vt 0.02000000 0.12879533
vt -0.02000000 -0.12879539
vt 0.02000000 0.12879533
vt -0.02000000 0.12879533
vt -0.57468438 -0.12879539
vt 0.57468438 -0.12879539
vt 0.57468438 0.12879533
vt -0.57468438 -0.12879539
vt 0.57468438 0.12879533
vt -0.57468438 0.12879533
vt 0.02000000 -0.12879539
vt -0.02000000 -0.12879539
vt -0.02000000 0.12879533
vt 0.02000000 -0.12879539
vt -0.02000000 0.12879533
vt 0.02000000 0.12879533
vt 0.57468438 -0.12879539
vt -0.57468438 -0.12879539
vt -0.57468438 0.12879533
vt 0.57468438 -0.12879539
vt -0.57468438 0.12879533
vt 0.57468438 0.12879533
f 1/1 2/2 3/3
f 4/4 5/5 6/6
f 7/7 8/8 9/9
f 10/10 11/11 12/12
f 13/13 14/14 15/15
f 16/16 17/17 18/18
f 19/19 20/20 21/21
f 22/22 23/23 24/24
f 25/25 26/26 27/27
f 28/28 29/29 30/30
f 31/31 32/32 33/33
f 34/34 35/35 36/36

