# https://github.com/mikedh/trimesh
mtllib material.mtl
usemtl PaleWood
v 1.55171895 1.84989953 -0.82795984
v 1.87119389 2.12796187 -0.82795984
v 1.88300991 2.11438608 -0.82824403
v 1.55171895 1.84989953 -0.82795984
v 1.88300991 2.11438608 -0.82824403
v 1.56353486 1.83632374 -0.82824403
v 1.56502819 1.83460808 -0.68419594
v 1.88450313 2.11267042 -0.68419594
v 1.87268710 2.12624621 -0.68391174
v 1.56502819 1.83460808 -0.68419594
v 1.87268710 2.12624621 -0.68391174
v 1.55321217 1.84818387 -0.68391174
v 1.56353486 1.83632374 -0.82824403
v 1.88300991 2.11438608 -0.82824403
v 1.88450313 2.11267042 -0.68419594
v 1.56353486 1.83632374 -0.82824403
v 1.88450313 2.11267042 -0.68419594
v 1.56502819 1.83460808 -0.68419594
v 1.88300991 2.11438608 -0.82824403
v 1.87119389 2.12796187 -0.82795984
v 1.87268710 2.12624621 -0.68391174
v 1.88300991 2.11438608 -0.82824403
v 1.87268710 2.12624621 -0.68391174
v 1.88450313 2.11267042 -0.68419594
v 1.87119389 2.12796187 -0.82795984
v 1.55171895 1.84989953 -0.82795984
v 1.55321217 1.84818387 -0.68391174
v 1.87119389 2.12796187 -0.82795984
v 1.55321217 1.84818387 -0.68391174
v 1.87268710 2.12624621 -0.68391174
v 1.55171895 1.84989953 -0.82795984
v 1.56353486 1.83632374 -0.82824403
v 1.56502819 1.83460808 -0.68419594
v 1.55171895 1.84989953 -0.82795984
v 1.56502819 1.83460808 -0.68419594
v 1.55321217 1.84818387 -0.68391174
vt -0.47059584 0.01999998
vt 0.47059584 0.01999998
vt 0.47059584 -0.01999998
vt -0.47059584 0.01999998
vt 0.47059584 -0.01999998
vt -0.47059584 -0.01999998
vt -0.47059584 -0.01999998
vt 0.47059584 -0.01999998
vt 0.47059584 0.01999998
vt -0.47059584 -0.01999998
vt 0.47059584 0.01999998
vt -0.47059584 0.01999998
vt -0.47059584 -0.16007340
vt 0.47059584 -0.16007340
vt 0.47059584 0.16007340
vt -0.47059584 -0.16007340
vt 0.47059584 0.16007340
vt -0.47059584 0.16007340
vt -0.02000000 -0.16007340
vt 0.02000000 -0.16007340
vt 0.02000000 0.16007340
vt -0.02000000 -0.16007340
vt 0.02000000 0.16007340
vt -0.02000000 0.16007340
vt 0.47059584 -0.16007340
vt -0.47059584 -0.16007340
vt -0.47059584 0.16007340
vt 0.47059584 -0.16007340
vt -0.47059584 0.16007340
vt 0.47059584 0.16007340
vt 0.02000000 -0.16007340
vt -0.02000000 -0.16007340
vt -0.02000000 0.16007340
vt 0.02000000 -0.16007340
vt -0.02000000 0.16007340
vt 0.02000000 0.16007340
f 1/1 2/2 3/3
f 4/4 5/5 6/6
f 7/7 8/8 9/9
f 10/10 11/11 12/12
f 13/13 14/14 15/15
f 16/16 17/17 18/18
f 19/19 20/20 21/21
f 22/22 23/23 24/24
f 25/25 26/26 27/27
f 28/28 29/29 30/30
f 31/31 32/32 33/33
f 34/34 35/35 36/36

