# https://github.com/mikedh/trimesh
mtllib material.mtl
usemtl photo_008
v 7.18464231 2.09770060 0.19055033
v 7.95500946 1.20388603 0.19055033
v 7.92471075 1.17777205 0.19031644
v 7.18464231 2.09770060 0.19055033
v 7.92471075 1.17777205 0.19031644
v 7.15434361 2.07158661 0.19031644
v 7.15137577 2.06902885 0.86036217
v 7.92174292 1.17521417 0.86036217
v 7.95204163 1.20132816 0.86059606
v 7.15137577 2.06902885 0.86036217
v 7.95204163 1.20132816 0.86059606
v 7.18167448 2.09514284 0.86059606
v 7.15434361 2.07158661 0.19031644
v 7.92471075 1.17777205 0.19031644
v 7.92174292 1.17521417 0.86036217
v 7.15434361 2.07158661 0.19031644
v 7.92174292 1.17521417 0.86036217
v 7.15137577 2.06902885 0.86036217
v 7.92471075 1.17777205 0.19031644
v 7.95500946 1.20388603 0.19055033
v 7.95204163 1.20132816 0.86059606
v 7.92471075 1.17777205 0.19031644
v 7.95204163 1.20132816 0.86059606
v 7.92174292 1.17521417 0.86036217
v 7.95500946 1.20388603 0.19055033
v 7.18464231 2.09770060 0.19055033
v 7.18167448 2.09514284 0.86059606
v 7.95500946 1.20388603 0.19055033
v 7.18167448 2.09514284 0.86059606
v 7.95204163 1.20132816 0.86059606
v 7.18464231 2.09770060 0.19055033
v 7.15434361 2.07158661 0.19031644
v 7.15137577 2.06902885 0.86036217
v 7.18464231 2.09770060 0.19055033
v 7.15137577 2.06902885 0.86036217
v 7.18167448 2.09514284 0.86059606
vt 0.00536616 0.99195075
vt 0.32796717 0.99195075
vt 0.32796717 0.50804925
vt 0.00536616 0.99195075
vt 0.32796717 0.50804925
vt 0.00536616 0.50804925
vt 0.33869949 0.99195075
vt 0.66130048 0.99195075
vt 0.66130048 0.50804925
vt 0.33869949 0.99195075
vt 0.66130048 0.50804925
vt 0.33869949 0.50804925
vt 0.67203283 0.99195075
vt 0.99463385 0.99195075
vt 0.99463385 0.50804925
vt 0.67203283 0.99195075
vt 0.99463385 0.50804925
vt 0.67203283 0.50804925
vt 0.00536616 0.49195075
vt 0.32796717 0.49195075
vt 0.32796717 0.00804925
vt 0.00536616 0.49195075
vt 0.32796717 0.00804925
vt 0.00536616 0.00804925
vt 0.33869949 0.49195075
vt 0.66130048 0.49195075
vt 0.66130048 0.00804925
vt 0.33869949 0.49195075
vt 0.66130048 0.00804925
vt 0.33869949 0.00804925
vt 0.67203283 0.49195075
vt 0.99463385 0.49195075
vt 0.99463385 0.00804925
vt 0.67203283 0.49195075
vt 0.99463385 0.00804925
vt 0.67203283 0.00804925
f 1/1 2/2 3/3
f 4/4 5/5 6/6
f 7/7 8/8 9/9
f 10/10 11/11 12/12
f 13/13 14/14 15/15
f 16/16 17/17 18/18
f 19/19 20/20 21/21
f 22/22 23/23 24/24
f 25/25 26/26 27/27
f 28/28 29/29 30/30
f 31/31 32/32 33/33
f 34/34 35/35 36/36

