# https://github.com/mikedh/trimesh
mtllib material.mtl
usemtl DarkPlastic
v 0.62315220 1.70151973 -0.32183188
v 0.63946247 1.71628189 -0.32206208
v 0.65422451 1.69998133 -0.32145160
v 0.62315220 1.70151973 -0.32183188
v 0.65422451 1.69998133 -0.32145160
v 0.63791424 1.68521917 -0.32122144
v 0.63753390 1.68618488 -0.28623682
v 0.65384412 1.70094705 -0.28646699
v 0.63908207 1.71724761 -0.28707746
v 0.63753390 1.68618488 -0.28623682
v 0.63908207 1.71724761 -0.28707746
v 0.62277180 1.70248544 -0.28684729
v 0.63791424 1.68521917 -0.32122144
v 0.65422451 1.69998133 -0.32145160
v 0.65384412 1.70094705 -0.28646699
v 0.63791424 1.68521917 -0.32122144
v 0.65384412 1.70094705 -0.28646699
v 0.63753390 1.68618488 -0.28623682
v 0.65422451 1.69998133 -0.32145160
v 0.63946247 1.71628189 -0.32206208
v 0.63908207 1.71724761 -0.28707746
v 0.65422451 1.69998133 -0.32145160
v 0.63908207 1.71724761 -0.28707746
v 0.65384412 1.70094705 -0.28646699
v 0.63946247 1.71628189 -0.32206208
v 0.62315220 1.70151973 -0.32183188
v 0.62277180 1.70248544 -0.28684729
v 0.63946247 1.71628189 -0.32206208
v 0.62277180 1.70248544 -0.28684729
v 0.63908207 1.71724761 -0.28707746
v 0.62315220 1.70151973 -0.32183188
v 0.63791424 1.68521917 -0.32122144
v 0.63753390 1.68618488 -0.28623682
v 0.62315220 1.70151973 -0.32183188
v 0.63753390 1.68618488 -0.28623682
v 0.62277180 1.70248544 -0.28684729
vt -0.02444444 0.02444446
vt 0.02444444 0.02444446
vt 0.02444444 -0.02444446
vt -0.02444444 0.02444446
vt 0.02444444 -0.02444446
vt -0.02444444 -0.02444446
vt -0.02444444 -0.02444446
vt 0.02444444 -0.02444446
vt 0.02444444 0.02444446
vt -0.02444444 -0.02444446
vt 0.02444444 0.02444446
vt -0.02444444 0.02444446
vt -0.02444444 -0.03888893
vt 0.02444444 -0.03888893
vt 0.02444444 0.03888887
vt -0.02444444 -0.03888893
vt 0.02444444 0.03888887
vt -0.02444444 0.03888887
vt -0.02444444 -0.03888893
vt 0.02444444 -0.03888893
vt 0.02444444 0.03888887
vt -0.02444444 -0.03888893
vt 0.02444444 0.03888887
vt -0.02444444 0.03888887
vt 0.02444444 -0.03888893
vt -0.02444444 -0.03888893
vt -0.02444444 0.03888887
vt 0.02444444 -0.03888893
vt -0.02444444 0.03888887
vt 0.02444444 0.03888887
vt 0.02444444 -0.03888893
vt -0.02444444 -0.03888893
vt -0.02444444 0.03888887
vt 0.02444444 -0.03888893
vt -0.02444444 0.03888887
vt 0.02444444 0.03888887
f 1/1 2/2 3/3
f 4/4 5/5 6/6
f 7/7 8/8 9/9
f 10/10 11/11 12/12
f 13/13 14/14 15/15
f 16/16 17/17 18/18
f 19/19 20/20 21/21
f 22/22 23/23 24/24
f 25/25 26/26 27/27
f 28/28 29/29 30/30
f 31/31 32/32 33/33
f 34/34 35/35 36/36

