# https://github.com/mikedh/trimesh
mtllib material.mtl
usemtl photo_002
v 1.63062179 -1.47062576 -1.11678195
v 1.29514730 -1.07057846 -1.10785306
v 1.30893898 -1.05901182 -1.10790169
v 1.63062179 -1.47062576 -1.11678195
v 1.30893898 -1.05901182 -1.10790169
v 1.64441347 -1.45905912 -1.11683059
v 1.65177119 -1.46546578 -0.55335158
v 1.31629658 -1.06541848 -0.54442263
v 1.30250490 -1.07698512 -0.54437405
v 1.65177119 -1.46546578 -0.55335158
v 1.30250490 -1.07698512 -0.54437405
v 1.63797951 -1.47703242 -0.55330300
v 1.64441347 -1.45905912 -1.11683059
v 1.30893898 -1.05901182 -1.10790169
v 1.31629658 -1.06541848 -0.54442263
v 1.64441347 -1.45905912 -1.11683059
v 1.31629658 -1.06541848 -0.54442263
v 1.65177119 -1.46546578 -0.55335158
v 1.30893898 -1.05901182 -1.10790169
v 1.29514730 -1.07057846 -1.10785306
v 1.30250490 -1.07698512 -0.54437405
v 1.30893898 -1.05901182 -1.10790169
v 1.30250490 -1.07698512 -0.54437405
v 1.31629658 -1.06541848 -0.54442263
v 1.29514730 -1.07057846 -1.10785306
v 1.63062179 -1.47062576 -1.11678195
v 1.63797951 -1.47703242 -0.55330300
v 1.29514730 -1.07057846 -1.10785306
v 1.63797951 -1.47703242 -0.55330300
v 1.30250490 -1.07698512 -0.54437405
v 1.63062179 -1.47062576 -1.11678195
v 1.64441347 -1.45905912 -1.11683059
v 1.65177119 -1.46546578 -0.55335158
v 1.63062179 -1.47062576 -1.11678195
v 1.65177119 -1.46546578 -0.55335158
v 1.63797951 -1.47703242 -0.55330300
vt 0.00536616 0.99195075
vt 0.32796717 0.99195075
vt 0.32796717 0.50804925
vt 0.00536616 0.99195075
vt 0.32796717 0.50804925
vt 0.00536616 0.50804925
vt 0.33869949 0.99195075
vt 0.66130048 0.99195075
vt 0.66130048 0.50804925
vt 0.33869949 0.99195075
vt 0.66130048 0.50804925
vt 0.33869949 0.50804925
vt 0.67203283 0.99195075
vt 0.99463385 0.99195075
vt 0.99463385 0.50804925
vt 0.67203283 0.99195075
vt 0.99463385 0.50804925
vt 0.67203283 0.50804925
vt 0.00536616 0.49195075
vt 0.32796717 0.49195075
vt 0.32796717 0.00804925
vt 0.00536616 0.49195075
vt 0.32796717 0.00804925
vt 0.00536616 0.00804925
vt 0.33869949 0.49195075
vt 0.66130048 0.49195075
vt 0.66130048 0.00804925
vt 0.33869949 0.49195075
vt 0.66130048 0.00804925
vt 0.33869949 0.00804925
vt 0.67203283 0.49195075
vt 0.99463385 0.49195075
vt 0.99463385 0.00804925
vt 0.67203283 0.49195075
vt 0.99463385 0.00804925
vt 0.67203283 0.00804925
f 1/1 2/2 3/3
f 4/4 5/5 6/6
f 7/7 8/8 9/9
f 10/10 11/11 12/12
f 13/13 14/14 15/15
f 16/16 17/17 18/18
f 19/19 20/20 21/21
f 22/22 23/23 24/24
f 25/25 26/26 27/27
f 28/28 29/29 30/30
f 31/31 32/32 33/33
f 34/34 35/35 36/36

