# https://github.com/mikedh/trimesh
mtllib material.mtl
usemtl EgoPhoto_red_white_gable_carton_PrintedGableUpper
v -0.035624316 0.00336678 0.03581403
v 0.02304039 0.028629324 0.03175335
v 0.007602312 0.06236136 -0.00486256
v -0.035624316 0.00336678 0.03581403
v 0.007602312 0.06236136 -0.00486256
v -0.051062682 0.037098816 -0.00080188
vt 0.00000000 1.00000000
vt 1.00000000 1.00000000
vt 1.00000000 0.00000000
vt 0.00000000 1.00000000
vt 1.00000000 0.00000000
vt 0.00000000 0.00000000
f 1/1 2/2 3/3
f 4/4 5/5 6/6

