# https://github.com/mikedh/trimesh
mtllib material.mtl
usemtl parcel
v -0.08314359 -0.03419220 -0.05395919
v 0.03501236 0.08224642 -0.05480149
v 0.08414257 0.03240097 -0.05351412
v -0.08314359 -0.03419220 -0.05395919
v 0.08414257 0.03240097 -0.05351412
v -0.03401339 -0.08403766 -0.05267179
v -0.03501236 -0.08224666 0.05480149
v 0.08314359 0.03419220 0.05395918
v 0.03401339 0.08403766 0.05267179
v -0.03501236 -0.08224666 0.05480149
v 0.03401339 0.08403766 0.05267179
v -0.08414257 -0.03240120 0.05351411
v 0.08414257 0.03240097 -0.05351412
v 0.03501236 0.08224642 -0.05480149
v 0.03401339 0.08403766 0.05267179
v 0.08414257 0.03240097 -0.05351412
v 0.03401339 0.08403766 0.05267179
v 0.08314359 0.03419220 0.05395918
v 0.03501236 0.08224642 -0.05480149
v -0.08314359 -0.03419220 -0.05395919
v -0.08414257 -0.03240120 0.05351411
v 0.03501236 0.08224642 -0.05480149
v -0.08414257 -0.03240120 0.05351411
v 0.03401339 0.08403766 0.05267179
v -0.08314359 -0.03419220 -0.05395919
v -0.03401339 -0.08403766 -0.05267179
v -0.03501236 -0.08224666 0.05480149
v -0.08314359 -0.03419220 -0.05395919
v -0.03501236 -0.08224666 0.05480149
v -0.08414257 -0.03240120 0.05351411
vt 0.00000000 0.00000000
vt 0.00000000 0.00000000
vt 0.00000000 0.00000000
vt 0.00000000 0.00000000
vt 0.00000000 0.00000000
vt 0.00000000 0.00000000
vt 0.00000000 0.00000000
vt 0.00000000 0.00000000
vt 0.00000000 0.00000000
vt 0.00000000 0.00000000
vt 0.00000000 0.00000000
vt 0.00000000 0.00000000
vt 0.00000000 0.00000000
vt 0.00000000 0.00000000
vt 0.00000000 0.00000000
vt 0.00000000 0.00000000
vt 0.00000000 0.00000000
vt 0.00000000 0.00000000
vt 0.00000000 0.00000000
vt 0.00000000 0.00000000
vt 0.00000000 0.00000000
vt 0.00000000 0.00000000
vt 0.00000000 0.00000000
vt 0.00000000 0.00000000
vt 0.00000000 0.00000000
vt 0.00000000 0.00000000
vt 0.00000000 0.00000000
vt 0.00000000 0.00000000
vt 0.00000000 0.00000000
vt 0.00000000 0.00000000
f 1/1 2/2 3/3
f 4/4 5/5 6/6
f 7/7 8/8 9/9
f 10/10 11/11 12/12
f 13/13 14/14 15/15
f 16/16 17/17 18/18
f 19/19 20/20 21/21
f 22/22 23/23 24/24
f 25/25 26/26 27/27
f 28/28 29/29 30/30

