# https://github.com/mikedh/trimesh
mtllib material.mtl
usemtl Front_00_island_paper
v 5.42355537 0.45942286 -1.15244806
v 5.16902113 0.75699919 -1.14740121
v 5.18269730 0.76870060 -1.14759636
v 5.42355537 0.45942286 -1.15244806
v 5.18269730 0.76870060 -1.14759636
v 5.43723154 0.47112423 -1.15264320
v 5.45040464 0.46894827 -0.35997540
v 5.19587040 0.76652461 -0.35492852
v 5.18219376 0.75482321 -0.35473338
v 5.45040464 0.46894827 -0.35997540
v 5.18219376 0.75482321 -0.35473338
v 5.43672848 0.45724690 -0.35978025
v 5.43723154 0.47112423 -1.15264320
v 5.18269730 0.76870060 -1.14759636
v 5.19587040 0.76652461 -0.35492852
v 5.43723154 0.47112423 -1.15264320
v 5.19587040 0.76652461 -0.35492852
v 5.45040464 0.46894827 -0.35997540
v 5.18269730 0.76870060 -1.14759636
v 5.16902113 0.75699919 -1.14740121
v 5.18219376 0.75482321 -0.35473338
v 5.18269730 0.76870060 -1.14759636
v 5.18219376 0.75482321 -0.35473338
v 5.19587040 0.76652461 -0.35492852
v 5.16902113 0.75699919 -1.14740121
v 5.42355537 0.45942286 -1.15244806
v 5.43672848 0.45724690 -0.35978025
v 5.16902113 0.75699919 -1.14740121
v 5.43672848 0.45724690 -0.35978025
v 5.18219376 0.75482321 -0.35473338
v 5.42355537 0.45942286 -1.15244806
v 5.43723154 0.47112423 -1.15264320
v 5.45040464 0.46894827 -0.35997540
v 5.42355537 0.45942286 -1.15244806
v 5.45040464 0.46894827 -0.35997540
v 5.43672848 0.45724690 -0.35978025
vt 0.00065104 0.99902344
vt 0.33268228 0.99902344
vt 0.33268228 0.50097656
vt 0.00065104 0.99902344
vt 0.33268228 0.50097656
vt 0.00065104 0.50097656
vt 0.33398438 0.99902344
vt 0.66601562 0.99902344
vt 0.66601562 0.50097656
vt 0.33398438 0.99902344
vt 0.66601562 0.50097656
vt 0.33398438 0.50097656
vt 0.66731769 0.99902344
vt 0.99934894 0.99902344
vt 0.99934894 0.50097656
vt 0.66731769 0.99902344
vt 0.99934894 0.50097656
vt 0.66731769 0.50097656
vt 0.00065104 0.49902344
vt 0.33268228 0.49902344
vt 0.33268228 0.00097656
vt 0.00065104 0.49902344
vt 0.33268228 0.00097656
vt 0.00065104 0.00097656
vt 0.33398438 0.49902344
vt 0.66601562 0.49902344
vt 0.66601562 0.00097656
vt 0.33398438 0.49902344
vt 0.66601562 0.00097656
vt 0.33398438 0.00097656
vt 0.66731769 0.49902344
vt 0.99934894 0.49902344
vt 0.99934894 0.00097656
vt 0.66731769 0.49902344
vt 0.99934894 0.00097656
vt 0.66731769 0.00097656
f 1/1 2/2 3/3
f 4/4 5/5 6/6
f 7/7 8/8 9/9
f 10/10 11/11 12/12
f 13/13 14/14 15/15
f 16/16 17/17 18/18
f 19/19 20/20 21/21
f 22/22 23/23 24/24
f 25/25 26/26 27/27
f 28/28 29/29 30/30
f 31/31 32/32 33/33
f 34/34 35/35 36/36

