# https://github.com/mikedh/trimesh
mtllib material.mtl
usemtl BrushedStainless
v 3.04653978 3.18899465 -0.68181276
v 3.05106544 3.19293380 -0.68181276
v 3.05237842 3.19142532 -0.68184435
v 3.04653978 3.18899465 -0.68181276
v 3.05237842 3.19142532 -0.68184435
v 3.04785252 3.18748617 -0.68184435
v 3.04791474 3.18741488 -0.67584509
v 3.05244064 3.19135404 -0.67584509
v 3.05112767 3.19286227 -0.67581350
v 3.04791474 3.18741488 -0.67584509
v 3.05112767 3.19286227 -0.67581350
v 3.04660201 3.18892312 -0.67581350
v 3.04785252 3.18748617 -0.68184435
v 3.05237842 3.19142532 -0.68184435
v 3.05244064 3.19135404 -0.67584509
v 3.04785252 3.18748617 -0.68184435
v 3.05244064 3.19135404 -0.67584509
v 3.04791474 3.18741488 -0.67584509
v 3.05237842 3.19142532 -0.68184435
v 3.05106544 3.19293380 -0.68181276
v 3.05112767 3.19286227 -0.67581350
v 3.05237842 3.19142532 -0.68184435
v 3.05112767 3.19286227 -0.67581350
v 3.05244064 3.19135404 -0.67584509
v 3.05106544 3.19293380 -0.68181276
v 3.04653978 3.18899465 -0.68181276
v 3.04660201 3.18892312 -0.67581350
v 3.05106544 3.19293380 -0.68181276
v 3.04660201 3.18892312 -0.67581350
v 3.05112767 3.19286227 -0.67581350
v 3.04653978 3.18899465 -0.68181276
v 3.04785252 3.18748617 -0.68184435
v 3.04791474 3.18741488 -0.67584509
v 3.04653978 3.18899465 -0.68181276
v 3.04791474 3.18741488 -0.67584509
v 3.04660201 3.18892312 -0.67581350
vt 0.00000000 0.00000000
vt 0.00000000 0.00000000
vt 0.00000000 0.00000000
vt 0.00000000 0.00000000
vt 0.00000000 0.00000000
vt 0.00000000 0.00000000
vt 0.00000000 0.00000000
vt 0.00000000 0.00000000
vt 0.00000000 0.00000000
vt 0.00000000 0.00000000
vt 0.00000000 0.00000000
vt 0.00000000 0.00000000
vt 0.00000000 0.00000000
vt 0.00000000 0.00000000
vt 0.00000000 0.00000000
vt 0.00000000 0.00000000
vt 0.00000000 0.00000000
vt 0.00000000 0.00000000
vt 0.00000000 0.00000000
vt 0.00000000 0.00000000
vt 0.00000000 0.00000000
vt 0.00000000 0.00000000
vt 0.00000000 0.00000000
vt 0.00000000 0.00000000
vt 0.00000000 0.00000000
vt 0.00000000 0.00000000
vt 0.00000000 0.00000000
vt 0.00000000 0.00000000
vt 0.00000000 0.00000000
vt 0.00000000 0.00000000
vt 0.00000000 0.00000000
vt 0.00000000 0.00000000
vt 0.00000000 0.00000000
vt 0.00000000 0.00000000
vt 0.00000000 0.00000000
vt 0.00000000 0.00000000
f 1/1 2/2 3/3
f 4/4 5/5 6/6
f 7/7 8/8 9/9
f 10/10 11/11 12/12
f 13/13 14/14 15/15
f 16/16 17/17 18/18
f 19/19 20/20 21/21
f 22/22 23/23 24/24
f 25/25 26/26 27/27
f 28/28 29/29 30/30
f 31/31 32/32 33/33
f 34/34 35/35 36/36

