# https://github.com/mikedh/trimesh
mtllib material.mtl
usemtl BrushedStainless
v 3.99154687 1.48474181 -0.50696748
v 3.77446198 1.73853612 -0.50266314
v 3.77674127 1.74048638 -0.50269568
v 3.99154687 1.48474181 -0.50696748
v 3.77674127 1.74048638 -0.50269568
v 3.99382639 1.48669195 -0.50700003
v 3.99681735 1.48619795 -0.32702553
v 3.77973223 1.73999226 -0.32272121
v 3.77745295 1.73804200 -0.32268867
v 3.99681735 1.48619795 -0.32702553
v 3.77745295 1.73804200 -0.32268867
v 3.99453783 1.48424768 -0.32699302
v 3.99382639 1.48669195 -0.50700003
v 3.77674127 1.74048638 -0.50269568
v 3.77973223 1.73999226 -0.32272121
v 3.99382639 1.48669195 -0.50700003
v 3.77973223 1.73999226 -0.32272121
v 3.99681735 1.48619795 -0.32702553
v 3.77674127 1.74048638 -0.50269568
v 3.77446198 1.73853612 -0.50266314
v 3.77745295 1.73804200 -0.32268867
v 3.77674127 1.74048638 -0.50269568
v 3.77745295 1.73804200 -0.32268867
v 3.77973223 1.73999226 -0.32272121
v 3.77446198 1.73853612 -0.50266314
v 3.99154687 1.48474181 -0.50696748
v 3.99453783 1.48424768 -0.32699302
v 3.77446198 1.73853612 -0.50266314
v 3.99453783 1.48424768 -0.32699302
v 3.77745295 1.73804200 -0.32268867
v 3.99154687 1.48474181 -0.50696748
v 3.99382639 1.48669195 -0.50700003
v 3.99681735 1.48619795 -0.32702553
v 3.99154687 1.48474181 -0.50696748
v 3.99681735 1.48619795 -0.32702553
v 3.99453783 1.48424768 -0.32699302
vt -0.37111109 0.00333333
vt 0.37111109 0.00333333
vt 0.37111109 -0.00333333
vt -0.37111109 0.00333333
vt 0.37111109 -0.00333333
vt -0.37111109 -0.00333333
vt -0.37111109 -0.00333333
vt 0.37111109 -0.00333333
vt 0.37111109 0.00333333
vt -0.37111109 -0.00333333
vt 0.37111109 0.00333333
vt -0.37111109 0.00333333
vt -0.37111109 -0.20000005
vt 0.37111109 -0.20000005
vt 0.37111109 0.19999999
vt -0.37111109 -0.20000005
vt 0.37111109 0.19999999
vt -0.37111109 0.19999999
vt -0.00333333 -0.20000005
vt 0.00333333 -0.20000005
vt 0.00333333 0.19999999
vt -0.00333333 -0.20000005
vt 0.00333333 0.19999999
vt -0.00333333 0.19999999
vt 0.37111109 -0.20000005
vt -0.37111109 -0.20000005
vt -0.37111109 0.19999999
vt 0.37111109 -0.20000005
vt -0.37111109 0.19999999
vt 0.37111109 0.19999999
vt 0.00333333 -0.20000005
vt -0.00333333 -0.20000005
vt -0.00333333 0.19999999
vt 0.00333333 -0.20000005
vt -0.00333333 0.19999999
vt 0.00333333 0.19999999
f 1/1 2/2 3/3
f 4/4 5/5 6/6
f 7/7 8/8 9/9
f 10/10 11/11 12/12
f 13/13 14/14 15/15
f 16/16 17/17 18/18
f 19/19 20/20 21/21
f 22/22 23/23 24/24
f 25/25 26/26 27/27
f 28/28 29/29 30/30
f 31/31 32/32 33/33
f 34/34 35/35 36/36

