# https://github.com/mikedh/trimesh
mtllib material.mtl
usemtl DarkPlastic
v 0.73663414 1.57621038 -0.31713903
v 0.75294441 1.59097254 -0.31736919
v 0.76770645 1.57467198 -0.31675872
v 0.73663414 1.57621038 -0.31713903
v 0.76770645 1.57467198 -0.31675872
v 0.75139618 1.55990982 -0.31652856
v 0.75101578 1.56087554 -0.28154394
v 0.76732606 1.57563770 -0.28177410
v 0.75256401 1.59193826 -0.28238457
v 0.75101578 1.56087554 -0.28154394
v 0.75256401 1.59193826 -0.28238457
v 0.73625374 1.57717609 -0.28215441
v 0.75139618 1.55990982 -0.31652856
v 0.76770645 1.57467198 -0.31675872
v 0.76732606 1.57563770 -0.28177410
v 0.75139618 1.55990982 -0.31652856
v 0.76732606 1.57563770 -0.28177410
v 0.75101578 1.56087554 -0.28154394
v 0.76770645 1.57467198 -0.31675872
v 0.75294441 1.59097254 -0.31736919
v 0.75256401 1.59193826 -0.28238457
v 0.76770645 1.57467198 -0.31675872
v 0.75256401 1.59193826 -0.28238457
v 0.76732606 1.57563770 -0.28177410
v 0.75294441 1.59097254 -0.31736919
v 0.73663414 1.57621038 -0.31713903
v 0.73625374 1.57717609 -0.28215441
v 0.75294441 1.59097254 -0.31736919
v 0.73625374 1.57717609 -0.28215441
v 0.75256401 1.59193826 -0.28238457
v 0.73663414 1.57621038 -0.31713903
v 0.75139618 1.55990982 -0.31652856
v 0.75101578 1.56087554 -0.28154394
v 0.73663414 1.57621038 -0.31713903
v 0.75101578 1.56087554 -0.28154394
v 0.73625374 1.57717609 -0.28215441
vt -0.02444444 0.02444446
vt 0.02444444 0.02444446
vt 0.02444444 -0.02444446
vt -0.02444444 0.02444446
vt 0.02444444 -0.02444446
vt -0.02444444 -0.02444446
vt -0.02444444 -0.02444446
vt 0.02444444 -0.02444446
vt 0.02444444 0.02444446
vt -0.02444444 -0.02444446
vt 0.02444444 0.02444446
vt -0.02444444 0.02444446
vt -0.02444444 -0.03888893
vt 0.02444444 -0.03888893
vt 0.02444444 0.03888887
vt -0.02444444 -0.03888893
vt 0.02444444 0.03888887
vt -0.02444444 0.03888887
vt -0.02444444 -0.03888893
vt 0.02444444 -0.03888893
vt 0.02444444 0.03888887
vt -0.02444444 -0.03888893
vt 0.02444444 0.03888887
vt -0.02444444 0.03888887
vt 0.02444444 -0.03888893
vt -0.02444444 -0.03888893
vt -0.02444444 0.03888887
vt 0.02444444 -0.03888893
vt -0.02444444 0.03888887
vt 0.02444444 0.03888887
vt 0.02444444 -0.03888893
vt -0.02444444 -0.03888893
vt -0.02444444 0.03888887
vt 0.02444444 -0.03888893
vt -0.02444444 0.03888887
vt 0.02444444 0.03888887
f 1/1 2/2 3/3
f 4/4 5/5 6/6
f 7/7 8/8 9/9
f 10/10 11/11 12/12
f 13/13 14/14 15/15
f 16/16 17/17 18/18
f 19/19 20/20 21/21
f 22/22 23/23 24/24
f 25/25 26/26 27/27
f 28/28 29/29 30/30
f 31/31 32/32 33/33
f 34/34 35/35 36/36

