# https://github.com/mikedh/trimesh
mtllib material.mtl
usemtl PaleWood
v 1.20340061 1.55172491 -1.06644309
v 1.54019499 1.84486163 -1.06644309
v 1.55201101 1.83128595 -1.06672728
v 1.20340061 1.55172491 -1.06644309
v 1.55201101 1.83128595 -1.06672728
v 1.21521664 1.53814912 -1.06672728
v 1.22211397 1.53022456 -0.35313240
v 1.55890834 1.82336128 -0.35756245
v 1.54709232 1.83693707 -0.35806566
v 1.22211397 1.53022456 -0.35313240
v 1.54709232 1.83693707 -0.35806566
v 1.21029806 1.54380035 -0.35363558
v 1.21521664 1.53814912 -1.06672728
v 1.55201101 1.83128595 -1.06672728
v 1.55890834 1.82336128 -0.35756245
v 1.21521664 1.53814912 -1.06672728
v 1.55890834 1.82336128 -0.35756245
v 1.22211397 1.53022456 -0.35313240
v 1.55201101 1.83128595 -1.06672728
v 1.54019499 1.84486163 -1.06644309
v 1.54709232 1.83693707 -0.35806566
v 1.55201101 1.83128595 -1.06672728
v 1.54709232 1.83693707 -0.35806566
v 1.55890834 1.82336128 -0.35756245
v 1.54019499 1.84486163 -1.06644309
v 1.20340061 1.55172491 -1.06644309
v 1.21029806 1.54380035 -0.35363558
v 1.54019499 1.84486163 -1.06644309
v 1.21029806 1.54380035 -0.35363558
v 1.54709232 1.83693707 -0.35806566
v 1.20340061 1.55172491 -1.06644309
v 1.21521664 1.53814912 -1.06672728
v 1.22211397 1.53022456 -0.35313240
v 1.20340061 1.55172491 -1.06644309
v 1.22211397 1.53022456 -0.35313240
v 1.21029806 1.54380035 -0.35363558
vt -0.49610782 0.01999998
vt 0.49610782 0.01999998
vt 0.49610782 -0.01999998
vt -0.49610782 0.01999998
vt 0.49610782 -0.01999998
vt -0.49610782 -0.01999998
vt -0.49610782 -0.01999998
vt 0.49610782 -0.01999998
vt 0.49610782 0.01999998
vt -0.49610782 -0.01999998
vt 0.49610782 0.01999998
vt -0.49610782 0.01999998
vt -0.49610782 -0.73936057
vt 0.49610782 -0.73936057
vt 0.49610782 0.73936051
vt -0.49610782 -0.73936057
vt 0.49610782 0.73936051
vt -0.49610782 0.73936051
vt -0.02000000 -0.73936057
vt 0.02000000 -0.73936057
vt 0.02000000 0.73936051
vt -0.02000000 -0.73936057
vt 0.02000000 0.73936051
vt -0.02000000 0.73936051
vt 0.49610782 -0.73936057
vt -0.49610782 -0.73936057
vt -0.49610782 0.73936051
vt 0.49610782 -0.73936057
vt -0.49610782 0.73936051
vt 0.49610782 0.73936051
vt 0.02000000 -0.73936057
vt -0.02000000 -0.73936057
vt -0.02000000 0.73936051
vt 0.02000000 -0.73936057
vt -0.02000000 0.73936051
vt 0.02000000 0.73936051
f 1/1 2/2 3/3
f 4/4 5/5 6/6
f 7/7 8/8 9/9
f 10/10 11/11 12/12
f 13/13 14/14 15/15
f 16/16 17/17 18/18
f 19/19 20/20 21/21
f 22/22 23/23 24/24
f 25/25 26/26 27/27
f 28/28 29/29 30/30
f 31/31 32/32 33/33
f 34/34 35/35 36/36

