# https://github.com/mikedh/trimesh
mtllib material.mtl
usemtl DarkRecess
v 0.66510940 1.61615121 -0.14717472
v 0.66659212 1.61749315 -0.14719564
v 0.68403816 1.59822881 -0.14647418
v 0.66510940 1.61615121 -0.14717472
v 0.68403816 1.59822881 -0.14647418
v 0.68255544 1.59688687 -0.14645325
v 0.68252283 1.59696960 -0.14345457
v 0.68400556 1.59831166 -0.14347550
v 0.66655952 1.61757600 -0.14419696
v 0.68252283 1.59696960 -0.14345457
v 0.66655952 1.61757600 -0.14419696
v 0.66507679 1.61623394 -0.14417604
v 0.68255544 1.59688687 -0.14645325
v 0.68403816 1.59822881 -0.14647418
v 0.68400556 1.59831166 -0.14347550
v 0.68255544 1.59688687 -0.14645325
v 0.68400556 1.59831166 -0.14347550
v 0.68252283 1.59696960 -0.14345457
v 0.68403816 1.59822881 -0.14647418
v 0.66659212 1.61749315 -0.14719564
v 0.66655952 1.61757600 -0.14419696
v 0.68403816 1.59822881 -0.14647418
v 0.66655952 1.61757600 -0.14419696
v 0.68400556 1.59831166 -0.14347550
v 0.66659212 1.61749315 -0.14719564
v 0.66510940 1.61615121 -0.14717472
v 0.66507679 1.61623394 -0.14417604
v 0.66659212 1.61749315 -0.14719564
v 0.66507679 1.61623394 -0.14417604
v 0.66655952 1.61757600 -0.14419696
v 0.66510940 1.61615121 -0.14717472
v 0.68255544 1.59688687 -0.14645325
v 0.68252283 1.59696960 -0.14345457
v 0.66510940 1.61615121 -0.14717472
v 0.68252283 1.59696960 -0.14345457
v 0.66507679 1.61623394 -0.14417604
vt 0.00000000 0.00000000
vt 0.00000000 0.00000000
vt 0.00000000 0.00000000
vt 0.00000000 0.00000000
vt 0.00000000 0.00000000
vt 0.00000000 0.00000000
vt 0.00000000 0.00000000
vt 0.00000000 0.00000000
vt 0.00000000 0.00000000
vt 0.00000000 0.00000000
vt 0.00000000 0.00000000
vt 0.00000000 0.00000000
vt 0.00000000 0.00000000
vt 0.00000000 0.00000000
vt 0.00000000 0.00000000
vt 0.00000000 0.00000000
vt 0.00000000 0.00000000
vt 0.00000000 0.00000000
vt 0.00000000 0.00000000
vt 0.00000000 0.00000000
vt 0.00000000 0.00000000
vt 0.00000000 0.00000000
vt 0.00000000 0.00000000
vt 0.00000000 0.00000000
vt 0.00000000 0.00000000
vt 0.00000000 0.00000000
vt 0.00000000 0.00000000
vt 0.00000000 0.00000000
vt 0.00000000 0.00000000
vt 0.00000000 0.00000000
vt 0.00000000 0.00000000
vt 0.00000000 0.00000000
vt 0.00000000 0.00000000
vt 0.00000000 0.00000000
vt 0.00000000 0.00000000
vt 0.00000000 0.00000000
f 1/1 2/2 3/3
f 4/4 5/5 6/6
f 7/7 8/8 9/9
f 10/10 11/11 12/12
f 13/13 14/14 15/15
f 16/16 17/17 18/18
f 19/19 20/20 21/21
f 22/22 23/23 24/24
f 25/25 26/26 27/27
f 28/28 29/29 30/30
f 31/31 32/32 33/33
f 34/34 35/35 36/36

