# https://github.com/mikedh/trimesh
mtllib material.mtl
usemtl PaleWood
v 4.17018270 1.92474198 -1.12759638
v 3.97394490 2.15416384 -1.12370539
v 3.98762131 2.16586542 -1.12390053
v 4.17018270 1.92474198 -1.12759638
v 3.98762131 2.16586542 -1.12390053
v 4.18385887 1.93644333 -1.12779152
v 4.19703197 1.93426740 -0.33512369
v 4.00079441 2.16368937 -0.33123270
v 3.98711801 2.15198803 -0.33103755
v 4.19703197 1.93426740 -0.33512369
v 3.98711801 2.15198803 -0.33103755
v 4.18335581 1.92256606 -0.33492851
v 4.18385887 1.93644333 -1.12779152
v 3.98762131 2.16586542 -1.12390053
v 4.00079441 2.16368937 -0.33123270
v 4.18385887 1.93644333 -1.12779152
v 4.00079441 2.16368937 -0.33123270
v 4.19703197 1.93426740 -0.33512369
v 3.98762131 2.16586542 -1.12390053
v 3.97394490 2.15416384 -1.12370539
v 3.98711801 2.15198803 -0.33103755
v 3.98762131 2.16586542 -1.12390053
v 3.98711801 2.15198803 -0.33103755
v 4.00079441 2.16368937 -0.33123270
v 3.97394490 2.15416384 -1.12370539
v 4.17018270 1.92474198 -1.12759638
v 4.18335581 1.92256606 -0.33492851
v 3.97394490 2.15416384 -1.12370539
v 4.18335581 1.92256606 -0.33492851
v 3.98711801 2.15198803 -0.33103755
v 4.17018270 1.92474198 -1.12759638
v 4.18385887 1.93644333 -1.12779152
v 4.19703197 1.93426740 -0.33512369
v 4.17018270 1.92474198 -1.12759638
v 4.19703197 1.93426740 -0.33512369
v 4.18335581 1.92256606 -0.33492851
vt -0.33547255 0.01999998
vt 0.33547255 0.01999998
vt 0.33547255 -0.01999998
vt -0.33547255 0.01999998
vt 0.33547255 -0.01999998
vt -0.33547255 -0.01999998
vt -0.33547255 -0.01999998
vt 0.33547255 -0.01999998
vt 0.33547255 0.01999998
vt -0.33547255 -0.01999998
vt 0.33547255 0.01999998
vt -0.33547255 0.01999998
vt -0.33547255 -0.88086700
vt 0.33547255 -0.88086700
vt 0.33547255 0.88086700
vt -0.33547255 -0.88086700
vt 0.33547255 0.88086700
vt -0.33547255 0.88086700
vt -0.02000000 -0.88086700
vt 0.02000000 -0.88086700
vt 0.02000000 0.88086700
vt -0.02000000 -0.88086700
vt 0.02000000 0.88086700
vt -0.02000000 0.88086700
vt 0.33547255 -0.88086700
vt -0.33547255 -0.88086700
vt -0.33547255 0.88086700
vt 0.33547255 -0.88086700
vt -0.33547255 0.88086700
vt 0.33547255 0.88086700
vt 0.02000000 -0.88086700
vt -0.02000000 -0.88086700
vt -0.02000000 0.88086700
vt 0.02000000 -0.88086700
vt -0.02000000 0.88086700
vt 0.02000000 0.88086700
f 1/1 2/2 3/3
f 4/4 5/5 6/6
f 7/7 8/8 9/9
f 10/10 11/11 12/12
f 13/13 14/14 15/15
f 16/16 17/17 18/18
f 19/19 20/20 21/21
f 22/22 23/23 24/24
f 25/25 26/26 27/27
f 28/28 29/29 30/30
f 31/31 32/32 33/33
f 34/34 35/35 36/36

