# https://github.com/mikedh/trimesh
mtllib material.mtl
usemtl PaleWood
v 2.34068370 3.29033852 -1.11184132
v 2.35426116 3.30215597 -1.11184132
v 2.70874095 2.89488292 -1.12036693
v 2.34068370 3.29033852 -1.11184132
v 2.70874095 2.89488292 -1.12036693
v 2.69516349 2.88306546 -1.12036693
v 2.70278358 2.87431026 -0.38529289
v 2.71636105 2.88612771 -0.38529289
v 2.36188149 3.29340100 -0.37676728
v 2.70278358 2.87431026 -0.38529289
v 2.36188149 3.29340100 -0.37676728
v 2.34830403 3.28158355 -0.37676728
v 2.69516349 2.88306546 -1.12036693
v 2.70874095 2.89488292 -1.12036693
v 2.71636105 2.88612771 -0.38529289
v 2.69516349 2.88306546 -1.12036693
v 2.71636105 2.88612771 -0.38529289
v 2.70278358 2.87431026 -0.38529289
v 2.70874095 2.89488292 -1.12036693
v 2.35426116 3.30215597 -1.11184132
v 2.36188149 3.29340100 -0.37676728
v 2.70874095 2.89488292 -1.12036693
v 2.36188149 3.29340100 -0.37676728
v 2.71636105 2.88612771 -0.38529289
v 2.35426116 3.30215597 -1.11184132
v 2.34068370 3.29033852 -1.11184132
v 2.34830403 3.28158355 -0.37676728
v 2.35426116 3.30215597 -1.11184132
v 2.34830403 3.28158355 -0.37676728
v 2.36188149 3.29340100 -0.37676728
v 2.34068370 3.29033852 -1.11184132
v 2.69516349 2.88306546 -1.12036693
v 2.70278358 2.87431026 -0.38529289
v 2.34068370 3.29033852 -1.11184132
v 2.70278358 2.87431026 -0.38529289
v 2.34830403 3.28158355 -0.37676728
vt -0.02000000 0.60000002
vt 0.02000000 0.60000002
vt 0.02000000 -0.60000002
vt -0.02000000 0.60000002
vt 0.02000000 -0.60000002
vt -0.02000000 -0.60000002
vt -0.02000000 -0.60000002
vt 0.02000000 -0.60000002
vt 0.02000000 0.60000002
vt -0.02000000 -0.60000002
vt 0.02000000 0.60000002
vt -0.02000000 0.60000002
vt -0.02000000 -0.81685078
vt 0.02000000 -0.81685078
vt 0.02000000 0.81685078
vt -0.02000000 -0.81685078
vt 0.02000000 0.81685078
vt -0.02000000 0.81685078
vt -0.60000002 -0.81685078
vt 0.60000002 -0.81685078
vt 0.60000002 0.81685078
vt -0.60000002 -0.81685078
vt 0.60000002 0.81685078
vt -0.60000002 0.81685078
vt 0.02000000 -0.81685078
vt -0.02000000 -0.81685078
vt -0.02000000 0.81685078
vt 0.02000000 -0.81685078
vt -0.02000000 0.81685078
vt 0.02000000 0.81685078
vt 0.60000002 -0.81685078
vt -0.60000002 -0.81685078
vt -0.60000002 0.81685078
vt 0.60000002 -0.81685078
vt -0.60000002 0.81685078
vt 0.60000002 0.81685078
f 1/1 2/2 3/3
f 4/4 5/5 6/6
f 7/7 8/8 9/9
f 10/10 11/11 12/12
f 13/13 14/14 15/15
f 16/16 17/17 18/18
f 19/19 20/20 21/21
f 22/22 23/23 24/24
f 25/25 26/26 27/27
f 28/28 29/29 30/30
f 31/31 32/32 33/33
f 34/34 35/35 36/36

