# https://github.com/mikedh/trimesh
mtllib material.mtl
usemtl BlueBottlePlastic
v 8.26512146 0.61615944 -0.41814020
v 8.40896893 0.44970226 -0.41814020
v 8.30305862 0.35817769 -0.42063433
v 8.26512146 0.61615944 -0.41814020
v 8.30305862 0.35817769 -0.42063433
v 8.15921116 0.52463484 -0.42063433
v 8.15842628 0.52395666 -0.36242047
v 8.30227375 0.35749948 -0.36242047
v 8.40818405 0.44902405 -0.35992634
v 8.15842628 0.52395666 -0.36242047
v 8.40818405 0.44902405 -0.35992634
v 8.26433659 0.61548120 -0.35992634
v 8.15921116 0.52463484 -0.42063433
v 8.30305862 0.35817769 -0.42063433
v 8.30227375 0.35749948 -0.36242047
v 8.15921116 0.52463484 -0.42063433
v 8.30227375 0.35749948 -0.36242047
v 8.15842628 0.52395666 -0.36242047
v 8.30305862 0.35817769 -0.42063433
v 8.40896893 0.44970226 -0.41814020
v 8.40818405 0.44902405 -0.35992634
v 8.30305862 0.35817769 -0.42063433
v 8.40818405 0.44902405 -0.35992634
v 8.30227375 0.35749948 -0.36242047
v 8.40896893 0.44970226 -0.41814020
v 8.26512146 0.61615944 -0.41814020
v 8.26433659 0.61548120 -0.35992634
v 8.40896893 0.44970226 -0.41814020
v 8.26433659 0.61548120 -0.35992634
v 8.40818405 0.44902405 -0.35992634
v 8.26512146 0.61615944 -0.41814020
v 8.15921116 0.52463484 -0.42063433
v 8.15842628 0.52395666 -0.36242047
v 8.26512146 0.61615944 -0.41814020
v 8.15842628 0.52395666 -0.36242047
v 8.26433659 0.61548120 -0.35992634
vt 0.00000000 0.00000000
vt 0.00000000 0.00000000
vt 0.00000000 0.00000000
vt 0.00000000 0.00000000
vt 0.00000000 0.00000000
vt 0.00000000 0.00000000
vt 0.00000000 0.00000000
vt 0.00000000 0.00000000
vt 0.00000000 0.00000000
vt 0.00000000 0.00000000
vt 0.00000000 0.00000000
vt 0.00000000 0.00000000
vt 0.00000000 0.00000000
vt 0.00000000 0.00000000
vt 0.00000000 0.00000000
vt 0.00000000 0.00000000
vt 0.00000000 0.00000000
vt 0.00000000 0.00000000
vt 0.00000000 0.00000000
vt 0.00000000 0.00000000
vt 0.00000000 0.00000000
vt 0.00000000 0.00000000
vt 0.00000000 0.00000000
vt 0.00000000 0.00000000
vt 0.00000000 0.00000000
vt 0.00000000 0.00000000
vt 0.00000000 0.00000000
vt 0.00000000 0.00000000
vt 0.00000000 0.00000000
vt 0.00000000 0.00000000
vt 0.00000000 0.00000000
vt 0.00000000 0.00000000
vt 0.00000000 0.00000000
vt 0.00000000 0.00000000
vt 0.00000000 0.00000000
vt 0.00000000 0.00000000
f 1/1 2/2 3/3
f 4/4 5/5 6/6
f 7/7 8/8 9/9
f 10/10 11/11 12/12
f 13/13 14/14 15/15
f 16/16 17/17 18/18
f 19/19 20/20 21/21
f 22/22 23/23 24/24
f 25/25 26/26 27/27
f 28/28 29/29 30/30
f 31/31 32/32 33/33
f 34/34 35/35 36/36

