# https://github.com/mikedh/trimesh
mtllib material.mtl
usemtl DarkRecess
v -0.66949439 0.64815986 -0.06595630
v -0.66797549 0.64946079 -0.06593474
v -0.66862589 0.65022033 -0.06594352
v -0.66949439 0.64815986 -0.06595630
v -0.66862589 0.65022033 -0.06594352
v -0.67014480 0.64891940 -0.06596509
v -0.67043817 0.64876068 -0.05797204
v -0.66891927 0.65006161 -0.05795048
v -0.66826886 0.64930207 -0.05794169
v -0.67043817 0.64876068 -0.05797204
v -0.66826886 0.64930207 -0.05794169
v -0.66978770 0.64800113 -0.05796326
v -0.67014480 0.64891940 -0.06596509
v -0.66862589 0.65022033 -0.06594352
v -0.66891927 0.65006161 -0.05795048
v -0.67014480 0.64891940 -0.06596509
v -0.66891927 0.65006161 -0.05795048
v -0.67043817 0.64876068 -0.05797204
v -0.66862589 0.65022033 -0.06594352
v -0.66797549 0.64946079 -0.06593474
v -0.66826886 0.64930207 -0.05794169
v -0.66862589 0.65022033 -0.06594352
v -0.66826886 0.64930207 -0.05794169
v -0.66891927 0.65006161 -0.05795048
v -0.66797549 0.64946079 -0.06593474
v -0.66949439 0.64815986 -0.06595630
v -0.66978770 0.64800113 -0.05796326
v -0.66797549 0.64946079 -0.06593474
v -0.66978770 0.64800113 -0.05796326
v -0.66826886 0.64930207 -0.05794169
v -0.66949439 0.64815986 -0.06595630
v -0.67014480 0.64891940 -0.06596509
v -0.67043817 0.64876068 -0.05797204
v -0.66949439 0.64815986 -0.06595630
v -0.67043817 0.64876068 -0.05797204
v -0.66978770 0.64800113 -0.05796326
vt 0.00000000 0.00000000
vt 0.00000000 0.00000000
vt 0.00000000 0.00000000
vt 0.00000000 0.00000000
vt 0.00000000 0.00000000
vt 0.00000000 0.00000000
vt 0.00000000 0.00000000
vt 0.00000000 0.00000000
vt 0.00000000 0.00000000
vt 0.00000000 0.00000000
vt 0.00000000 0.00000000
vt 0.00000000 0.00000000
vt 0.00000000 0.00000000
vt 0.00000000 0.00000000
vt 0.00000000 0.00000000
vt 0.00000000 0.00000000
vt 0.00000000 0.00000000
vt 0.00000000 0.00000000
vt 0.00000000 0.00000000
vt 0.00000000 0.00000000
vt 0.00000000 0.00000000
vt 0.00000000 0.00000000
vt 0.00000000 0.00000000
vt 0.00000000 0.00000000
vt 0.00000000 0.00000000
vt 0.00000000 0.00000000
vt 0.00000000 0.00000000
vt 0.00000000 0.00000000
vt 0.00000000 0.00000000
vt 0.00000000 0.00000000
vt 0.00000000 0.00000000
vt 0.00000000 0.00000000
vt 0.00000000 0.00000000
vt 0.00000000 0.00000000
vt 0.00000000 0.00000000
vt 0.00000000 0.00000000
f 1/1 2/2 3/3
f 4/4 5/5 6/6
f 7/7 8/8 9/9
f 10/10 11/11 12/12
f 13/13 14/14 15/15
f 16/16 17/17 18/18
f 19/19 20/20 21/21
f 22/22 23/23 24/24
f 25/25 26/26 27/27
f 28/28 29/29 30/30
f 31/31 32/32 33/33
f 34/34 35/35 36/36

