# https://github.com/mikedh/trimesh
mtllib material.mtl
usemtl PaleWood
v 6.33909512 2.24111414 -1.15587854
v 6.65515089 1.87538052 -1.15587854
v 6.64153385 1.86361301 -1.15619922
v 6.33909512 2.24111414 -1.15587854
v 6.64153385 1.86361301 -1.15619922
v 6.32547808 2.22934651 -1.15619922
v 6.32339478 2.22754622 -1.00166929
v 6.63945055 1.86181271 -1.00166929
v 6.65306759 1.87358022 -1.00134861
v 6.32339478 2.22754622 -1.00166929
v 6.65306759 1.87358022 -1.00134861
v 6.33701181 2.23931360 -1.00134861
v 6.32547808 2.22934651 -1.15619922
v 6.64153385 1.86361301 -1.15619922
v 6.63945055 1.86181271 -1.00166929
v 6.32547808 2.22934651 -1.15619922
v 6.63945055 1.86181271 -1.00166929
v 6.32339478 2.22754622 -1.00166929
v 6.64153385 1.86361301 -1.15619922
v 6.65515089 1.87538052 -1.15587854
v 6.65306759 1.87358022 -1.00134861
v 6.64153385 1.86361301 -1.15619922
v 6.65306759 1.87358022 -1.00134861
v 6.63945055 1.86181271 -1.00166929
v 6.65515089 1.87538052 -1.15587854
v 6.33909512 2.24111414 -1.15587854
v 6.33701181 2.23931360 -1.00134861
v 6.65515089 1.87538052 -1.15587854
v 6.33701181 2.23931360 -1.00134861
v 6.65306759 1.87358022 -1.00134861
v 6.33909512 2.24111414 -1.15587854
v 6.32547808 2.22934651 -1.15619922
v 6.32339478 2.22754622 -1.00166929
v 6.33909512 2.24111414 -1.15587854
v 6.32339478 2.22754622 -1.00166929
v 6.33701181 2.23931360 -1.00134861
vt -0.53708428 0.01999998
vt 0.53708428 0.01999998
vt 0.53708428 -0.01999998
vt -0.53708428 0.01999998
vt 0.53708428 -0.01999998
vt -0.53708428 -0.01999998
vt -0.53708428 -0.01999998
vt 0.53708428 -0.01999998
vt 0.53708428 0.01999998
vt -0.53708428 -0.01999998
vt 0.53708428 0.01999998
vt -0.53708428 0.01999998
vt -0.53708428 -0.17172718
vt 0.53708428 -0.17172718
vt 0.53708428 0.17172712
vt -0.53708428 -0.17172718
vt 0.53708428 0.17172712
vt -0.53708428 0.17172712
vt -0.02000000 -0.17172718
vt 0.02000000 -0.17172718
vt 0.02000000 0.17172712
vt -0.02000000 -0.17172718
vt 0.02000000 0.17172712
vt -0.02000000 0.17172712
vt 0.53708428 -0.17172718
vt -0.53708428 -0.17172718
vt -0.53708428 0.17172712
vt 0.53708428 -0.17172718
vt -0.53708428 0.17172712
vt 0.53708428 0.17172712
vt 0.02000000 -0.17172718
vt -0.02000000 -0.17172718
vt -0.02000000 0.17172712
vt 0.02000000 -0.17172718
vt -0.02000000 0.17172712
vt 0.02000000 0.17172712
f 1/1 2/2 3/3
f 4/4 5/5 6/6
f 7/7 8/8 9/9
f 10/10 11/11 12/12
f 13/13 14/14 15/15
f 16/16 17/17 18/18
f 19/19 20/20 21/21
f 22/22 23/23 24/24
f 25/25 26/26 27/27
f 28/28 29/29 30/30
f 31/31 32/32 33/33
f 34/34 35/35 36/36

