# https://github.com/mikedh/trimesh
mtllib material.mtl
usemtl PaleWood
v 2.47784424 2.91943264 -0.00850016
v 2.75863123 3.16289163 -0.00850016
v 2.77042270 3.14929223 -0.00863071
v 2.47784424 2.91943264 -0.00850016
v 2.77042270 3.14929223 -0.00863071
v 2.48963571 2.90583324 -0.00863071
v 2.49388218 2.90093565 0.88503581
v 2.77466917 3.14439464 0.88503581
v 2.76287770 3.15799403 0.88516641
v 2.49388218 2.90093565 0.88503581
v 2.76287770 3.15799403 0.88516641
v 2.48209071 2.91453505 0.88516641
v 2.48963571 2.90583324 -0.00863071
v 2.77042270 3.14929223 -0.00863071
v 2.77466917 3.14439464 0.88503581
v 2.48963571 2.90583324 -0.00863071
v 2.77466917 3.14439464 0.88503581
v 2.49388218 2.90093565 0.88503581
v 2.77042270 3.14929223 -0.00863071
v 2.75863123 3.16289163 -0.00850016
v 2.76287770 3.15799403 0.88516641
v 2.77042270 3.14929223 -0.00863071
v 2.76287770 3.15799403 0.88516641
v 2.77466917 3.14439464 0.88503581
v 2.75863123 3.16289163 -0.00850016
v 2.47784424 2.91943264 -0.00850016
v 2.48209071 2.91453505 0.88516641
v 2.75863123 3.16289163 -0.00850016
v 2.48209071 2.91453505 0.88516641
v 2.76287770 3.15799403 0.88516641
v 2.47784424 2.91943264 -0.00850016
v 2.48963571 2.90583324 -0.00863071
v 2.49388218 2.90093565 0.88503581
v 2.47784424 2.91943264 -0.00850016
v 2.49388218 2.90093565 0.88503581
v 2.48209071 2.91453505 0.88516641
vt -0.41292948 0.01999998
vt 0.41292948 0.01999998
vt 0.41292948 -0.01999998
vt -0.41292948 0.01999998
vt 0.41292948 -0.01999998
vt -0.41292948 -0.01999998
vt -0.41292948 -0.01999998
vt 0.41292948 -0.01999998
vt 0.41292948 0.01999998
vt -0.41292948 -0.01999998
vt 0.41292948 0.01999998
vt -0.41292948 0.01999998
vt -0.41292948 -0.99298894
vt 0.41292948 -0.99298894
vt 0.41292948 0.99298894
vt -0.41292948 -0.99298894
vt 0.41292948 0.99298894
vt -0.41292948 0.99298894
vt -0.02000000 -0.99298894
vt 0.02000000 -0.99298894
vt 0.02000000 0.99298894
vt -0.02000000 -0.99298894
vt 0.02000000 0.99298894
vt -0.02000000 0.99298894
vt 0.41292948 -0.99298894
vt -0.41292948 -0.99298894
vt -0.41292948 0.99298894
vt 0.41292948 -0.99298894
vt -0.41292948 0.99298894
vt 0.41292948 0.99298894
vt 0.02000000 -0.99298894
vt -0.02000000 -0.99298894
vt -0.02000000 0.99298894
vt 0.02000000 -0.99298894
vt -0.02000000 0.99298894
vt 0.02000000 0.99298894
f 1/1 2/2 3/3
f 4/4 5/5 6/6
f 7/7 8/8 9/9
f 10/10 11/11 12/12
f 13/13 14/14 15/15
f 16/16 17/17 18/18
f 19/19 20/20 21/21
f 22/22 23/23 24/24
f 25/25 26/26 27/27
f 28/28 29/29 30/30
f 31/31 32/32 33/33
f 34/34 35/35 36/36

