# https://github.com/mikedh/trimesh
mtllib material.mtl
usemtl DarkPlastic
v 6.48296881 2.84269261 -0.81376857
v 6.69945669 2.59217715 -0.81376857
v 6.30818081 2.25404882 -0.82298285
v 6.48296881 2.84269261 -0.81376857
v 6.30818081 2.25404882 -0.82298285
v 6.09169340 2.50456405 -0.82298285
v 6.09145069 2.50435448 -0.80498570
v 6.30793810 2.25383902 -0.80498570
v 6.69921398 2.59196758 -0.79577142
v 6.09145069 2.50435448 -0.80498570
v 6.69921398 2.59196758 -0.79577142
v 6.48272610 2.84248281 -0.79577142
v 6.09169340 2.50456405 -0.82298285
v 6.30818081 2.25404882 -0.82298285
v 6.30793810 2.25383902 -0.80498570
v 6.09169340 2.50456405 -0.82298285
v 6.30793810 2.25383902 -0.80498570
v 6.09145069 2.50435448 -0.80498570
v 6.30818081 2.25404882 -0.82298285
v 6.69945669 2.59217715 -0.81376857
v 6.69921398 2.59196758 -0.79577142
v 6.30818081 2.25404882 -0.82298285
v 6.69921398 2.59196758 -0.79577142
v 6.30793810 2.25383902 -0.80498570
v 6.69945669 2.59217715 -0.81376857
v 6.48296881 2.84269261 -0.81376857
v 6.48272610 2.84248281 -0.79577142
v 6.69945669 2.59217715 -0.81376857
v 6.48272610 2.84248281 -0.79577142
v 6.69921398 2.59196758 -0.79577142
v 6.48296881 2.84269261 -0.81376857
v 6.09169340 2.50456405 -0.82298285
v 6.09145069 2.50435448 -0.80498570
v 6.48296881 2.84269261 -0.81376857
v 6.09145069 2.50435448 -0.80498570
v 6.48272610 2.84248281 -0.79577142
vt -0.36788487 0.57468438
vt 0.36788487 0.57468438
vt 0.36788487 -0.57468438
vt -0.36788487 0.57468438
vt 0.36788487 -0.57468438
vt -0.36788487 -0.57468438
vt -0.36788487 -0.57468438
vt 0.36788487 -0.57468438
vt 0.36788487 0.57468438
vt -0.36788487 -0.57468438
vt 0.36788487 0.57468438
vt -0.36788487 0.57468438
vt -0.36788487 -0.01999998
vt 0.36788487 -0.01999998
vt 0.36788487 0.01999998
vt -0.36788487 -0.01999998
vt 0.36788487 0.01999998
vt -0.36788487 0.01999998
vt -0.57468438 -0.01999998
vt 0.57468438 -0.01999998
vt 0.57468438 0.01999998
vt -0.57468438 -0.01999998
vt 0.57468438 0.01999998
vt -0.57468438 0.01999998
vt 0.36788487 -0.01999998
vt -0.36788487 -0.01999998
vt -0.36788487 0.01999998
vt 0.36788487 -0.01999998
vt -0.36788487 0.01999998
vt 0.36788487 0.01999998
vt 0.57468438 -0.01999998
vt -0.57468438 -0.01999998
vt -0.57468438 0.01999998
vt 0.57468438 -0.01999998
vt -0.57468438 0.01999998
vt 0.57468438 0.01999998
f 1/1 2/2 3/3
f 4/4 5/5 6/6
f 7/7 8/8 9/9
f 10/10 11/11 12/12
f 13/13 14/14 15/15
f 16/16 17/17 18/18
f 19/19 20/20 21/21
f 22/22 23/23 24/24
f 25/25 26/26 27/27
f 28/28 29/29 30/30
f 31/31 32/32 33/33
f 34/34 35/35 36/36

