# https://github.com/mikedh/trimesh
mtllib material.mtl
usemtl DarkPlastic
v 2.30669093 3.03419709 -1.14893734
v 2.31993628 3.04638577 -1.14893734
v 2.72621083 2.60490084 -1.15447044
v 2.30669093 3.03419709 -1.14893734
v 2.72621083 2.60490084 -1.15447044
v 2.71296573 2.59271216 -1.15447044
v 2.71613789 2.58926511 -0.64651829
v 2.72938299 2.60145378 -0.64651829
v 2.32310820 3.04293871 -0.64098519
v 2.71613789 2.58926511 -0.64651829
v 2.32310820 3.04293871 -0.64098519
v 2.30986309 3.03075004 -0.64098519
v 2.71296573 2.59271216 -1.15447044
v 2.72621083 2.60490084 -1.15447044
v 2.72938299 2.60145378 -0.64651829
v 2.71296573 2.59271216 -1.15447044
v 2.72938299 2.60145378 -0.64651829
v 2.71613789 2.58926511 -0.64651829
v 2.72621083 2.60490084 -1.15447044
v 2.31993628 3.04638577 -1.14893734
v 2.32310820 3.04293871 -0.64098519
v 2.72621083 2.60490084 -1.15447044
v 2.32310820 3.04293871 -0.64098519
v 2.72938299 2.60145378 -0.64651829
v 2.31993628 3.04638577 -1.14893734
v 2.30669093 3.03419709 -1.14893734
v 2.30986309 3.03075004 -0.64098519
v 2.31993628 3.04638577 -1.14893734
v 2.30986309 3.03075004 -0.64098519
v 2.32310820 3.04293871 -0.64098519
v 2.30669093 3.03419709 -1.14893734
v 2.71296573 2.59271216 -1.15447044
v 2.71613789 2.58926511 -0.64651829
v 2.30669093 3.03419709 -1.14893734
v 2.71613789 2.58926511 -0.64651829
v 2.30986309 3.03075004 -0.64098519
vt -0.02000000 0.66666543
vt 0.02000000 0.66666543
vt 0.02000000 -0.66666543
vt -0.02000000 0.66666543
vt 0.02000000 -0.66666543
vt -0.02000000 -0.66666543
vt -0.02000000 -0.66666543
vt 0.02000000 -0.66666543
vt 0.02000000 0.66666543
vt -0.02000000 -0.66666543
vt 0.02000000 0.66666543
vt -0.02000000 0.66666543
vt -0.02000000 -0.56441534
vt 0.02000000 -0.56441534
vt 0.02000000 0.56441534
vt -0.02000000 -0.56441534
vt 0.02000000 0.56441534
vt -0.02000000 0.56441534
vt -0.66666543 -0.56441534
vt 0.66666543 -0.56441534
vt 0.66666543 0.56441534
vt -0.66666543 -0.56441534
vt 0.66666543 0.56441534
vt -0.66666543 0.56441534
vt 0.02000000 -0.56441534
vt -0.02000000 -0.56441534
vt -0.02000000 0.56441534
vt 0.02000000 -0.56441534
vt -0.02000000 0.56441534
vt 0.02000000 0.56441534
vt 0.66666543 -0.56441534
vt -0.66666543 -0.56441534
vt -0.66666543 0.56441534
vt 0.66666543 -0.56441534
vt -0.66666543 0.56441534
vt 0.66666543 0.56441534
f 1/1 2/2 3/3
f 4/4 5/5 6/6
f 7/7 8/8 9/9
f 10/10 11/11 12/12
f 13/13 14/14 15/15
f 16/16 17/17 18/18
f 19/19 20/20 21/21
f 22/22 23/23 24/24
f 25/25 26/26 27/27
f 28/28 29/29 30/30
f 31/31 32/32 33/33
f 34/34 35/35 36/36

