# https://github.com/mikedh/trimesh
mtllib material.mtl
usemtl photo_003
v 1.28743768 -1.06138492 -1.10764790
v 0.95196313 -0.66133773 -1.09871900
v 0.96575487 -0.64977109 -1.09876752
v 1.28743768 -1.06138492 -1.10764790
v 0.96575487 -0.64977109 -1.09876752
v 1.30122936 -1.04981840 -1.10769641
v 1.30858707 -1.05622494 -0.54421747
v 0.97311246 -0.65617770 -0.53528857
v 0.95932078 -0.66774434 -0.53523999
v 1.30858707 -1.05622494 -0.54421747
v 0.95932078 -0.66774434 -0.53523999
v 1.29479527 -1.06779158 -0.54416889
v 1.30122936 -1.04981840 -1.10769641
v 0.96575487 -0.64977109 -1.09876752
v 0.97311246 -0.65617770 -0.53528857
v 1.30122936 -1.04981840 -1.10769641
v 0.97311246 -0.65617770 -0.53528857
v 1.30858707 -1.05622494 -0.54421747
v 0.96575487 -0.64977109 -1.09876752
v 0.95196313 -0.66133773 -1.09871900
v 0.95932078 -0.66774434 -0.53523999
v 0.96575487 -0.64977109 -1.09876752
v 0.95932078 -0.66774434 -0.53523999
v 0.97311246 -0.65617770 -0.53528857
v 0.95196313 -0.66133773 -1.09871900
v 1.28743768 -1.06138492 -1.10764790
v 1.29479527 -1.06779158 -0.54416889
v 0.95196313 -0.66133773 -1.09871900
v 1.29479527 -1.06779158 -0.54416889
v 0.95932078 -0.66774434 -0.53523999
v 1.28743768 -1.06138492 -1.10764790
v 1.30122936 -1.04981840 -1.10769641
v 1.30858707 -1.05622494 -0.54421747
v 1.28743768 -1.06138492 -1.10764790
v 1.30858707 -1.05622494 -0.54421747
v 1.29479527 -1.06779158 -0.54416889
vt 0.00536616 0.99195075
vt 0.32796717 0.99195075
vt 0.32796717 0.50804925
vt 0.00536616 0.99195075
vt 0.32796717 0.50804925
vt 0.00536616 0.50804925
vt 0.33869949 0.99195075
vt 0.66130048 0.99195075
vt 0.66130048 0.50804925
vt 0.33869949 0.99195075
vt 0.66130048 0.50804925
vt 0.33869949 0.50804925
vt 0.67203283 0.99195075
vt 0.99463385 0.99195075
vt 0.99463385 0.50804925
vt 0.67203283 0.99195075
vt 0.99463385 0.50804925
vt 0.67203283 0.50804925
vt 0.00536616 0.49195075
vt 0.32796717 0.49195075
vt 0.32796717 0.00804925
vt 0.00536616 0.49195075
vt 0.32796717 0.00804925
vt 0.00536616 0.00804925
vt 0.33869949 0.49195075
vt 0.66130048 0.49195075
vt 0.66130048 0.00804925
vt 0.33869949 0.49195075
vt 0.66130048 0.00804925
vt 0.33869949 0.00804925
vt 0.67203283 0.49195075
vt 0.99463385 0.49195075
vt 0.99463385 0.00804925
vt 0.67203283 0.49195075
vt 0.99463385 0.00804925
vt 0.67203283 0.00804925
f 1/1 2/2 3/3
f 4/4 5/5 6/6
f 7/7 8/8 9/9
f 10/10 11/11 12/12
f 13/13 14/14 15/15
f 16/16 17/17 18/18
f 19/19 20/20 21/21
f 22/22 23/23 24/24
f 25/25 26/26 27/27
f 28/28 29/29 30/30
f 31/31 32/32 33/33
f 34/34 35/35 36/36

