# https://github.com/mikedh/trimesh
mtllib material.mtl
usemtl DarkPlastic
v 6.48521376 2.84463263 -0.98029655
v 6.70170164 2.59411740 -0.98029655
v 6.31042576 2.25598884 -0.98951083
v 6.48521376 2.84463263 -0.98029655
v 6.31042576 2.25598884 -0.98951083
v 6.09393835 2.50650430 -0.98951083
v 6.09369564 2.50629449 -0.97151369
v 6.31018353 2.25577927 -0.97151369
v 6.70145893 2.59390759 -0.96229941
v 6.09369564 2.50629449 -0.97151369
v 6.70145893 2.59390759 -0.96229941
v 6.48497152 2.84442306 -0.96229941
v 6.09393835 2.50650430 -0.98951083
v 6.31042576 2.25598884 -0.98951083
v 6.31018353 2.25577927 -0.97151369
v 6.09393835 2.50650430 -0.98951083
v 6.31018353 2.25577927 -0.97151369
v 6.09369564 2.50629449 -0.97151369
v 6.31042576 2.25598884 -0.98951083
v 6.70170164 2.59411740 -0.98029655
v 6.70145893 2.59390759 -0.96229941
v 6.31042576 2.25598884 -0.98951083
v 6.70145893 2.59390759 -0.96229941
v 6.31018353 2.25577927 -0.97151369
v 6.70170164 2.59411740 -0.98029655
v 6.48521376 2.84463263 -0.98029655
v 6.48497152 2.84442306 -0.96229941
v 6.70170164 2.59411740 -0.98029655
v 6.48497152 2.84442306 -0.96229941
v 6.70145893 2.59390759 -0.96229941
v 6.48521376 2.84463263 -0.98029655
v 6.09393835 2.50650430 -0.98951083
v 6.09369564 2.50629449 -0.97151369
v 6.48521376 2.84463263 -0.98029655
v 6.09369564 2.50629449 -0.97151369
v 6.48497152 2.84442306 -0.96229941
vt -0.36788487 0.57468438
vt 0.36788487 0.57468438
vt 0.36788487 -0.57468438
vt -0.36788487 0.57468438
vt 0.36788487 -0.57468438
vt -0.36788487 -0.57468438
vt -0.36788487 -0.57468438
vt 0.36788487 -0.57468438
vt 0.36788487 0.57468438
vt -0.36788487 -0.57468438
vt 0.36788487 0.57468438
vt -0.36788487 0.57468438
vt -0.36788487 -0.01999998
vt 0.36788487 -0.01999998
vt 0.36788487 0.01999998
vt -0.36788487 -0.01999998
vt 0.36788487 0.01999998
vt -0.36788487 0.01999998
vt -0.57468438 -0.01999998
vt 0.57468438 -0.01999998
vt 0.57468438 0.01999998
vt -0.57468438 -0.01999998
vt 0.57468438 0.01999998
vt -0.57468438 0.01999998
vt 0.36788487 -0.01999998
vt -0.36788487 -0.01999998
vt -0.36788487 0.01999998
vt 0.36788487 -0.01999998
vt -0.36788487 0.01999998
vt 0.36788487 0.01999998
vt 0.57468438 -0.01999998
vt -0.57468438 -0.01999998
vt -0.57468438 0.01999998
vt 0.57468438 -0.01999998
vt -0.57468438 0.01999998
vt 0.57468438 0.01999998
f 1/1 2/2 3/3
f 4/4 5/5 6/6
f 7/7 8/8 9/9
f 10/10 11/11 12/12
f 13/13 14/14 15/15
f 16/16 17/17 18/18
f 19/19 20/20 21/21
f 22/22 23/23 24/24
f 25/25 26/26 27/27
f 28/28 29/29 30/30
f 31/31 32/32 33/33
f 34/34 35/35 36/36

