# https://github.com/mikedh/trimesh
mtllib material.mtl
usemtl PaleWood
v 0.99309474 -2.03758311 -0.54525483
v 0.98153043 -2.02379298 -0.54494703
v 1.63153315 -1.47865772 -0.54723638
v 0.99309474 -2.03758311 -0.54525483
v 1.63153315 -1.47865772 -0.54723638
v 1.64309752 -1.49244797 -0.54754418
v 1.64610028 -1.49506271 -0.31757864
v 1.63453591 -1.48127246 -0.31727085
v 0.98453319 -2.02640748 -0.31498152
v 1.64610028 -1.49506271 -0.31757864
v 0.98453319 -2.02640748 -0.31498152
v 0.99609751 -2.04019785 -0.31528932
v 1.64309752 -1.49244797 -0.54754418
v 1.63153315 -1.47865772 -0.54723638
v 1.63453591 -1.48127246 -0.31727085
v 1.64309752 -1.49244797 -0.54754418
v 1.63453591 -1.48127246 -0.31727085
v 1.64610028 -1.49506271 -0.31757864
v 1.63153315 -1.47865772 -0.54723638
v 0.98153043 -2.02379298 -0.54494703
v 0.98453319 -2.02640748 -0.31498152
v 1.63153315 -1.47865772 -0.54723638
v 0.98453319 -2.02640748 -0.31498152
v 1.63453591 -1.48127246 -0.31727085
v 0.98153043 -2.02379298 -0.54494703
v 0.99309474 -2.03758311 -0.54525483
v 0.99609751 -2.04019785 -0.31528932
v 0.98153043 -2.02379298 -0.54494703
v 0.99609751 -2.04019785 -0.31528932
v 0.98453319 -2.02640748 -0.31498152
v 0.99309474 -2.03758311 -0.54525483
v 1.64309752 -1.49244797 -0.54754418
v 1.64610028 -1.49506271 -0.31757864
v 0.99309474 -2.03758311 -0.54525483
v 1.64610028 -1.49506271 -0.31757864
v 0.99609751 -2.04019785 -0.31528932
vt -0.02000000 0.94260031
vt 0.02000000 0.94260031
vt 0.02000000 -0.94260025
vt -0.02000000 0.94260031
vt 0.02000000 -0.94260025
vt -0.02000000 -0.94260025
vt -0.02000000 -0.94260025
vt 0.02000000 -0.94260025
vt 0.02000000 0.94260031
vt -0.02000000 -0.94260025
vt 0.02000000 0.94260031
vt -0.02000000 0.94260031
vt -0.02000000 -0.25555563
vt 0.02000000 -0.25555563
vt 0.02000000 0.25555557
vt -0.02000000 -0.25555563
vt 0.02000000 0.25555557
vt -0.02000000 0.25555557
vt -0.94260031 -0.25555563
vt 0.94260031 -0.25555563
vt 0.94260031 0.25555557
vt -0.94260031 -0.25555563
vt 0.94260031 0.25555557
vt -0.94260031 0.25555557
vt 0.02000000 -0.25555563
vt -0.02000000 -0.25555563
vt -0.02000000 0.25555557
vt 0.02000000 -0.25555563
vt -0.02000000 0.25555557
vt 0.02000000 0.25555557
vt 0.94260031 -0.25555563
vt -0.94260031 -0.25555563
vt -0.94260031 0.25555557
vt 0.94260031 -0.25555563
vt -0.94260031 0.25555557
vt 0.94260031 0.25555557
f 1/1 2/2 3/3
f 4/4 5/5 6/6
f 7/7 8/8 9/9
f 10/10 11/11 12/12
f 13/13 14/14 15/15
f 16/16 17/17 18/18
f 19/19 20/20 21/21
f 22/22 23/23 24/24
f 25/25 26/26 27/27
f 28/28 29/29 30/30
f 31/31 32/32 33/33
f 34/34 35/35 36/36

