# https://github.com/mikedh/trimesh
mtllib material.mtl
usemtl PaleWood
v 3.43271637 1.67634881 -1.17803144
v 3.42101717 1.69002640 -1.17779946
v 3.95078015 2.14329147 -1.18535912
v 3.43271637 1.67634881 -1.17803144
v 3.95078015 2.14329147 -1.18535912
v 3.96247935 2.12961388 -1.18559098
v 3.97678208 2.12725139 -0.32493281
v 3.96508288 2.14092875 -0.32470083
v 3.43532014 1.68766379 -0.31714121
v 3.97678208 2.12725139 -0.32493281
v 3.43532014 1.68766379 -0.31714121
v 3.44701934 1.67398620 -0.31737319
v 3.96247935 2.12961388 -1.18559098
v 3.95078015 2.14329147 -1.18535912
v 3.96508288 2.14092875 -0.32470083
v 3.96247935 2.12961388 -1.18559098
v 3.96508288 2.14092875 -0.32470083
v 3.97678208 2.12725139 -0.32493281
v 3.95078015 2.14329147 -1.18535912
v 3.42101717 1.69002640 -1.17779946
v 3.43532014 1.68766379 -0.31714121
v 3.95078015 2.14329147 -1.18535912
v 3.43532014 1.68766379 -0.31714121
v 3.96508288 2.14092875 -0.32470083
v 3.42101717 1.69002640 -1.17779946
v 3.43271637 1.67634881 -1.17803144
v 3.44701934 1.67398620 -0.31737319
v 3.42101717 1.69002640 -1.17779946
v 3.44701934 1.67398620 -0.31737319
v 3.43532014 1.68766379 -0.31714121
v 3.43271637 1.67634881 -1.17803144
v 3.96247935 2.12961388 -1.18559098
v 3.97678208 2.12725139 -0.32493281
v 3.43271637 1.67634881 -1.17803144
v 3.97678208 2.12725139 -0.32493281
v 3.44701934 1.67398620 -0.31737319
vt -0.02000000 0.77472025
vt 0.02000000 0.77472025
vt 0.02000000 -0.77472019
vt -0.02000000 0.77472025
vt 0.02000000 -0.77472019
vt -0.02000000 -0.77472019
vt -0.02000000 -0.77472019
vt 0.02000000 -0.77472019
vt 0.02000000 0.77472025
vt -0.02000000 -0.77472019
vt 0.02000000 0.77472025
vt -0.02000000 0.77472025
vt -0.02000000 -0.95642257
vt 0.02000000 -0.95642257
vt 0.02000000 0.95642257
vt -0.02000000 -0.95642257
vt 0.02000000 0.95642257
vt -0.02000000 0.95642257
vt -0.77472025 -0.95642257
vt 0.77472025 -0.95642257
vt 0.77472025 0.95642257
vt -0.77472025 -0.95642257
vt 0.77472025 0.95642257
vt -0.77472025 0.95642257
vt 0.02000000 -0.95642257
vt -0.02000000 -0.95642257
vt -0.02000000 0.95642257
vt 0.02000000 -0.95642257
vt -0.02000000 0.95642257
vt 0.02000000 0.95642257
vt 0.77472025 -0.95642257
vt -0.77472025 -0.95642257
vt -0.77472025 0.95642257
vt 0.77472025 -0.95642257
vt -0.77472025 0.95642257
vt 0.77472025 0.95642257
f 1/1 2/2 3/3
f 4/4 5/5 6/6
f 7/7 8/8 9/9
f 10/10 11/11 12/12
f 13/13 14/14 15/15
f 16/16 17/17 18/18
f 19/19 20/20 21/21
f 22/22 23/23 24/24
f 25/25 26/26 27/27
f 28/28 29/29 30/30
f 31/31 32/32 33/33
f 34/34 35/35 36/36

