# https://github.com/mikedh/trimesh
mtllib material.mtl
usemtl DarkPlastic
v 6.72859621 2.55391932 -0.64724058
v 7.02111340 2.21542406 -0.64724058
v 6.62983799 1.87729561 -0.65645486
v 6.72859621 2.55391932 -0.64724058
v 6.62983799 1.87729561 -0.65645486
v 6.33732080 2.21579075 -0.65645486
v 6.33707809 2.21558118 -0.63845772
v 6.62959528 1.87708604 -0.63845772
v 7.02087069 2.21521449 -0.62924343
v 6.33707809 2.21558118 -0.63845772
v 7.02087069 2.21521449 -0.62924343
v 6.72835350 2.55370951 -0.62924343
v 6.33732080 2.21579075 -0.65645486
v 6.62983799 1.87729561 -0.65645486
v 6.62959528 1.87708604 -0.63845772
v 6.33732080 2.21579075 -0.65645486
v 6.62959528 1.87708604 -0.63845772
v 6.33707809 2.21558118 -0.63845772
v 6.62983799 1.87729561 -0.65645486
v 7.02111340 2.21542406 -0.64724058
v 7.02087069 2.21521449 -0.62924343
v 6.62983799 1.87729561 -0.65645486
v 7.02087069 2.21521449 -0.62924343
v 6.62959528 1.87708604 -0.63845772
v 7.02111340 2.21542406 -0.64724058
v 6.72859621 2.55391932 -0.64724058
v 6.72835350 2.55370951 -0.62924343
v 7.02111340 2.21542406 -0.64724058
v 6.72835350 2.55370951 -0.62924343
v 7.02087069 2.21521449 -0.62924343
v 6.72859621 2.55391932 -0.64724058
v 6.33732080 2.21579075 -0.65645486
v 6.33707809 2.21558118 -0.63845772
v 6.72859621 2.55391932 -0.64724058
v 6.33707809 2.21558118 -0.63845772
v 6.72835350 2.55370951 -0.62924343
vt -0.49708432 0.57468438
vt 0.49708432 0.57468438
vt 0.49708432 -0.57468438
vt -0.49708432 0.57468438
vt 0.49708432 -0.57468438
vt -0.49708432 -0.57468438
vt -0.49708432 -0.57468438
vt 0.49708432 -0.57468438
vt 0.49708432 0.57468438
vt -0.49708432 -0.57468438
vt 0.49708432 0.57468438
vt -0.49708432 0.57468438
vt -0.49708432 -0.01999998
vt 0.49708432 -0.01999998
vt 0.49708432 0.01999998
vt -0.49708432 -0.01999998
vt 0.49708432 0.01999998
vt -0.49708432 0.01999998
vt -0.57468438 -0.01999998
vt 0.57468438 -0.01999998
vt 0.57468438 0.01999998
vt -0.57468438 -0.01999998
vt 0.57468438 0.01999998
vt -0.57468438 0.01999998
vt 0.49708432 -0.01999998
vt -0.49708432 -0.01999998
vt -0.49708432 0.01999998
vt 0.49708432 -0.01999998
vt -0.49708432 0.01999998
vt 0.49708432 0.01999998
vt 0.57468438 -0.01999998
vt -0.57468438 -0.01999998
vt -0.57468438 0.01999998
vt 0.57468438 -0.01999998
vt -0.57468438 0.01999998
vt 0.57468438 0.01999998
f 1/1 2/2 3/3
f 4/4 5/5 6/6
f 7/7 8/8 9/9
f 10/10 11/11 12/12
f 13/13 14/14 15/15
f 16/16 17/17 18/18
f 19/19 20/20 21/21
f 22/22 23/23 24/24
f 25/25 26/26 27/27
f 28/28 29/29 30/30
f 31/31 32/32 33/33
f 34/34 35/35 36/36

