# https://github.com/mikedh/trimesh
mtllib material.mtl
usemtl BlueBinPlastic
v 1.80834436 -2.75202894 -1.20280385
v 1.81291604 -2.74814320 -1.20283389
v 1.94965780 -2.90904903 -1.20577312
v 1.80834436 -2.75202894 -1.20280385
v 1.94965780 -2.90904903 -1.20577312
v 1.94508600 -2.91293454 -1.20574307
v 1.91744089 -3.01593685 -0.46648622
v 1.71557128 -2.77839446 -0.46214706
v 1.71099961 -2.78227997 -0.46211699
v 1.91744089 -3.01593685 -0.46648622
v 1.71099961 -2.78227997 -0.46211699
v 1.91286922 -3.01982260 -0.46645615
v 1.91286922 -3.01982260 -0.46645615
v 1.71099961 -2.78227997 -0.46211699
v 1.80834436 -2.75202894 -1.20280385
v 1.91286922 -3.01982260 -0.46645615
v 1.80834436 -2.75202894 -1.20280385
v 1.94508600 -2.91293454 -1.20574307
v 1.81291604 -2.74814320 -1.20283389
v 1.71557128 -2.77839446 -0.46214706
v 1.91744089 -3.01593685 -0.46648622
v 1.81291604 -2.74814320 -1.20283389
v 1.91744089 -3.01593685 -0.46648622
v 1.94965780 -2.90904903 -1.20577312
v 1.94965780 -2.90904903 -1.20577312
v 1.91744089 -3.01593685 -0.46648622
v 1.91286922 -3.01982260 -0.46645615
v 1.94965780 -2.90904903 -1.20577312
v 1.91286922 -3.01982260 -0.46645615
v 1.94508600 -2.91293454 -1.20574307
v 1.71099961 -2.78227997 -0.46211699
v 1.71557128 -2.77839446 -0.46214706
v 1.81291604 -2.74814320 -1.20283389
v 1.71099961 -2.78227997 -0.46211699
v 1.81291604 -2.74814320 -1.20283389
v 1.80834436 -2.75202894 -1.20280385
vt 0.23464605 0.46400523
vt 0.23464605 0.45067191
vt -0.23464605 0.45067191
vt 0.23464605 0.46400523
vt -0.23464605 0.45067191
vt -0.23464605 0.46400523
vt -0.34640419 0.66727942
vt 0.34640419 0.66727942
vt 0.34640419 0.68061274
vt -0.34640419 0.66727942
vt 0.34640419 0.68061274
vt -0.34640419 0.68061274
vt -0.34640419 1.65684330
vt 0.34640419 1.65684330
vt 0.23464605 0.01333332
vt -0.34640419 1.65684330
vt 0.23464605 0.01333332
vt -0.23464605 0.01333332
vt 0.23464605 0.01333332
vt 0.34640419 1.65684330
vt -0.34640419 1.65684330
vt 0.23464605 0.01333332
vt -0.34640419 1.65684330
vt -0.23464605 0.01333332
vt 0.45067191 0.01333332
vt 0.66727942 1.65684330
vt 0.68061274 1.65684330
vt 0.45067191 0.01333332
vt 0.68061274 1.65684330
vt 0.46400523 0.01333332
vt 0.68061274 1.65684330
vt 0.66727942 1.65684330
vt 0.45067191 0.01333332
vt 0.68061274 1.65684330
vt 0.45067191 0.01333332
vt 0.46400523 0.01333332
f 1/1 2/2 3/3
f 4/4 5/5 6/6
f 7/7 8/8 9/9
f 10/10 11/11 12/12
f 13/13 14/14 15/15
f 16/16 17/17 18/18
f 19/19 20/20 21/21
f 22/22 23/23 24/24
f 25/25 26/26 27/27
f 28/28 29/29 30/30
f 31/31 32/32 33/33
f 34/34 35/35 36/36

