# https://github.com/mikedh/trimesh
mtllib material.mtl
usemtl WhiteSolidSurface
v 1.66289186 -2.86335087 -0.33335504
v 0.29015541 -1.22638774 -0.29681864
v 0.95394987 -0.66968602 -0.29915655
v 1.66289186 -2.86335087 -0.33335504
v 0.95394987 -0.66968602 -0.29915655
v 2.32668638 -2.30664921 -0.33569294
v 2.32714319 -2.30704713 -0.30069819
v 0.95440680 -0.67008388 -0.26416180
v 0.29061237 -1.22678566 -0.26182389
v 2.32714319 -2.30704713 -0.30069819
v 0.29061237 -1.22678566 -0.26182389
v 1.66334891 -2.86374879 -0.29836029
v 2.32668638 -2.30664921 -0.33569294
v 0.95394987 -0.66968602 -0.29915655
v 0.95440680 -0.67008388 -0.26416180
v 2.32668638 -2.30664921 -0.33569294
v 0.95440680 -0.67008388 -0.26416180
v 2.32714319 -2.30704713 -0.30069819
v 0.95394987 -0.66968602 -0.29915655
v 0.29015541 -1.22638774 -0.29681864
v 0.29061237 -1.22678566 -0.26182389
v 0.95394987 -0.66968602 -0.29915655
v 0.29061237 -1.22678566 -0.26182389
v 0.95440680 -0.67008388 -0.26416180
v 0.29015541 -1.22638774 -0.29681864
v 1.66289186 -2.86335087 -0.33335504
v 1.66334891 -2.86374879 -0.29836029
v 0.29015541 -1.22638774 -0.29681864
v 1.66334891 -2.86374879 -0.29836029
v 0.29061237 -1.22678566 -0.26182389
v 1.66289186 -2.86335087 -0.33335504
v 2.32668638 -2.30664921 -0.33569294
v 2.32714319 -2.30704713 -0.30069819
v 1.66289186 -2.86335087 -0.33335504
v 2.32714319 -2.30704713 -0.30069819
v 1.66334891 -2.86374879 -0.29836029
vt -2.37408566 0.96260023
vt 2.37408566 0.96260023
vt 2.37408566 -0.96260023
vt -2.37408566 0.96260023
vt 2.37408566 -0.96260023
vt -2.37408566 -0.96260023
vt -2.37408566 -0.96260023
vt 2.37408566 -0.96260023
vt 2.37408566 0.96260023
vt -2.37408566 -0.96260023
vt 2.37408566 0.96260023
vt -2.37408566 0.96260023
vt -2.37408566 -0.03888893
vt 2.37408566 -0.03888893
vt 2.37408566 0.03888887
vt -2.37408566 -0.03888893
vt 2.37408566 0.03888887
vt -2.37408566 0.03888887
vt -0.96260023 -0.03888893
vt 0.96260023 -0.03888893
vt 0.96260023 0.03888887
vt -0.96260023 -0.03888893
vt 0.96260023 0.03888887
vt -0.96260023 0.03888887
vt 2.37408566 -0.03888893
vt -2.37408566 -0.03888893
vt -2.37408566 0.03888887
vt 2.37408566 -0.03888893
vt -2.37408566 0.03888887
vt 2.37408566 0.03888887
vt 0.96260023 -0.03888893
vt -0.96260023 -0.03888893
vt -0.96260023 0.03888887
vt 0.96260023 -0.03888893
vt -0.96260023 0.03888887
vt 0.96260023 0.03888887
f 1/1 2/2 3/3
f 4/4 5/5 6/6
f 7/7 8/8 9/9
f 10/10 11/11 12/12
f 13/13 14/14 15/15
f 16/16 17/17 18/18
f 19/19 20/20 21/21
f 22/22 23/23 24/24
f 25/25 26/26 27/27
f 28/28 29/29 30/30
f 31/31 32/32 33/33
f 34/34 35/35 36/36

