# https://github.com/mikedh/trimesh
mtllib material.mtl
usemtl PaleWood
v 4.93393517 4.75714493 -1.14688492
v 5.88613176 3.65528202 -1.14688492
v 5.87251472 3.64351463 -1.14720559
v 4.93393517 4.75714493 -1.14688492
v 5.87251472 3.64351463 -1.14720559
v 4.92031813 4.74537754 -1.14720559
v 4.91023540 4.73666477 -0.39932156
v 5.86243200 3.63480139 -0.39932156
v 5.87604904 3.64656901 -0.39900088
v 4.91023540 4.73666477 -0.39932156
v 5.87604904 3.64656901 -0.39900088
v 4.92385244 4.74843216 -0.39900088
v 4.92031813 4.74537754 -1.14720559
v 5.87251472 3.64351463 -1.14720559
v 5.86243200 3.63480139 -0.39932156
v 4.92031813 4.74537754 -1.14720559
v 5.86243200 3.63480139 -0.39932156
v 4.91023540 4.73666477 -0.39932156
v 5.87251472 3.64351463 -1.14720559
v 5.88613176 3.65528202 -1.14688492
v 5.87604904 3.64656901 -0.39900088
v 5.87251472 3.64351463 -1.14720559
v 5.87604904 3.64656901 -0.39900088
v 5.86243200 3.63480139 -0.39932156
v 5.88613176 3.65528202 -1.14688492
v 4.93393517 4.75714493 -1.14688492
v 4.92385244 4.74843216 -0.39900088
v 5.88613176 3.65528202 -1.14688492
v 4.92385244 4.74843216 -0.39900088
v 5.87604904 3.64656901 -0.39900088
v 4.93393517 4.75714493 -1.14688492
v 4.92031813 4.74537754 -1.14720559
v 4.91023540 4.73666477 -0.39932156
v 4.93393517 4.75714493 -1.14688492
v 4.91023540 4.73666477 -0.39932156
v 4.92385244 4.74843216 -0.39900088
vt -1.61809993 0.01999998
vt 1.61809993 0.01999998
vt 1.61809993 -0.01999998
vt -1.61809993 0.01999998
vt 1.61809993 -0.01999998
vt -1.61809993 -0.01999998
vt -1.61809993 -0.01999998
vt 1.61809993 -0.01999998
vt 1.61809993 0.01999998
vt -1.61809993 -0.01999998
vt 1.61809993 0.01999998
vt -1.61809993 0.01999998
vt -1.61809993 -0.83111405
vt 1.61809993 -0.83111405
vt 1.61809993 0.83111411
vt -1.61809993 -0.83111405
vt 1.61809993 0.83111411
vt -1.61809993 0.83111411
vt -0.02000000 -0.83111405
vt 0.02000000 -0.83111405
vt 0.02000000 0.83111411
vt -0.02000000 -0.83111405
vt 0.02000000 0.83111411
vt -0.02000000 0.83111411
vt 1.61809993 -0.83111405
vt -1.61809993 -0.83111405
vt -1.61809993 0.83111411
vt 1.61809993 -0.83111405
vt -1.61809993 0.83111411
vt 1.61809993 0.83111411
vt 0.02000000 -0.83111405
vt -0.02000000 -0.83111405
vt -0.02000000 0.83111411
vt 0.02000000 -0.83111405
vt -0.02000000 0.83111411
vt 0.02000000 0.83111411
f 1/1 2/2 3/3
f 4/4 5/5 6/6
f 7/7 8/8 9/9
f 10/10 11/11 12/12
f 13/13 14/14 15/15
f 16/16 17/17 18/18
f 19/19 20/20 21/21
f 22/22 23/23 24/24
f 25/25 26/26 27/27
f 28/28 29/29 30/30
f 31/31 32/32 33/33
f 34/34 35/35 36/36

