# https://github.com/mikedh/trimesh
mtllib material.mtl
usemtl DarkRecess
v 0.61240852 1.67397535 -0.17303926
v 0.61389130 1.67531741 -0.17306018
v 0.63133734 1.65605307 -0.17233872
v 0.61240852 1.67397535 -0.17303926
v 0.63133734 1.65605307 -0.17233872
v 0.62985462 1.65471101 -0.17231780
v 0.62982202 1.65479374 -0.16931912
v 0.63130474 1.65613580 -0.16934004
v 0.61385870 1.67540014 -0.17006150
v 0.62982202 1.65479374 -0.16931912
v 0.61385870 1.67540014 -0.17006150
v 0.61237592 1.67405808 -0.17004058
v 0.62985462 1.65471101 -0.17231780
v 0.63133734 1.65605307 -0.17233872
v 0.63130474 1.65613580 -0.16934004
v 0.62985462 1.65471101 -0.17231780
v 0.63130474 1.65613580 -0.16934004
v 0.62982202 1.65479374 -0.16931912
v 0.63133734 1.65605307 -0.17233872
v 0.61389130 1.67531741 -0.17306018
v 0.61385870 1.67540014 -0.17006150
v 0.63133734 1.65605307 -0.17233872
v 0.61385870 1.67540014 -0.17006150
v 0.63130474 1.65613580 -0.16934004
v 0.61389130 1.67531741 -0.17306018
v 0.61240852 1.67397535 -0.17303926
v 0.61237592 1.67405808 -0.17004058
v 0.61389130 1.67531741 -0.17306018
v 0.61237592 1.67405808 -0.17004058
v 0.61385870 1.67540014 -0.17006150
v 0.61240852 1.67397535 -0.17303926
v 0.62985462 1.65471101 -0.17231780
v 0.62982202 1.65479374 -0.16931912
v 0.61240852 1.67397535 -0.17303926
v 0.62982202 1.65479374 -0.16931912
v 0.61237592 1.67405808 -0.17004058
vt 0.00000000 0.00000000
vt 0.00000000 0.00000000
vt 0.00000000 0.00000000
vt 0.00000000 0.00000000
vt 0.00000000 0.00000000
vt 0.00000000 0.00000000
vt 0.00000000 0.00000000
vt 0.00000000 0.00000000
vt 0.00000000 0.00000000
vt 0.00000000 0.00000000
vt 0.00000000 0.00000000
vt 0.00000000 0.00000000
vt 0.00000000 0.00000000
vt 0.00000000 0.00000000
vt 0.00000000 0.00000000
vt 0.00000000 0.00000000
vt 0.00000000 0.00000000
vt 0.00000000 0.00000000
vt 0.00000000 0.00000000
vt 0.00000000 0.00000000
vt 0.00000000 0.00000000
vt 0.00000000 0.00000000
vt 0.00000000 0.00000000
vt 0.00000000 0.00000000
vt 0.00000000 0.00000000
vt 0.00000000 0.00000000
vt 0.00000000 0.00000000
vt 0.00000000 0.00000000
vt 0.00000000 0.00000000
vt 0.00000000 0.00000000
vt 0.00000000 0.00000000
vt 0.00000000 0.00000000
vt 0.00000000 0.00000000
vt 0.00000000 0.00000000
vt 0.00000000 0.00000000
vt 0.00000000 0.00000000
f 1/1 2/2 3/3
f 4/4 5/5 6/6
f 7/7 8/8 9/9
f 10/10 11/11 12/12
f 13/13 14/14 15/15
f 16/16 17/17 18/18
f 19/19 20/20 21/21
f 22/22 23/23 24/24
f 25/25 26/26 27/27
f 28/28 29/29 30/30
f 31/31 32/32 33/33
f 34/34 35/35 36/36

