# https://github.com/mikedh/trimesh
mtllib material.mtl
usemtl PaleWood
v 4.93417788 4.75735474 -1.16488206
v 5.88637400 3.65549159 -1.16488206
v 5.45062828 3.27893329 -1.17514360
v 4.93417788 4.75735474 -1.16488206
v 5.45062828 3.27893329 -1.17514360
v 4.49843168 4.38079643 -1.17514360
v 4.49818945 4.38058662 -1.15714645
v 5.45038557 3.27872372 -1.15714645
v 5.88613176 3.65528202 -1.14688492
v 4.49818945 4.38058662 -1.15714645
v 5.88613176 3.65528202 -1.14688492
v 4.93393517 4.75714493 -1.14688492
v 4.49843168 4.38079643 -1.17514360
v 5.45062828 3.27893329 -1.17514360
v 5.45038557 3.27872372 -1.15714645
v 4.49843168 4.38079643 -1.17514360
v 5.45038557 3.27872372 -1.15714645
v 4.49818945 4.38058662 -1.15714645
v 5.45062828 3.27893329 -1.17514360
v 5.88637400 3.65549159 -1.16488206
v 5.88613176 3.65528202 -1.14688492
v 5.45062828 3.27893329 -1.17514360
v 5.88613176 3.65528202 -1.14688492
v 5.45038557 3.27872372 -1.15714645
v 5.88637400 3.65549159 -1.16488206
v 4.93417788 4.75735474 -1.16488206
v 4.93393517 4.75714493 -1.14688492
v 5.88637400 3.65549159 -1.16488206
v 4.93393517 4.75714493 -1.14688492
v 5.88613176 3.65528202 -1.14688492
v 4.93417788 4.75735474 -1.16488206
v 4.49843168 4.38079643 -1.17514360
v 4.49818945 4.38058662 -1.15714645
v 4.93417788 4.75735474 -1.16488206
v 4.49818945 4.38058662 -1.15714645
v 4.93393517 4.75714493 -1.14688492
vt -1.61809993 0.63999999
vt 1.61809993 0.63999999
vt 1.61809993 -0.63999999
vt -1.61809993 0.63999999
vt 1.61809993 -0.63999999
vt -1.61809993 -0.63999999
vt -1.61809993 -0.63999999
vt 1.61809993 -0.63999999
vt 1.61809993 0.63999999
vt -1.61809993 -0.63999999
vt 1.61809993 0.63999999
vt -1.61809993 0.63999999
vt -1.61809993 -0.01999998
vt 1.61809993 -0.01999998
vt 1.61809993 0.01999998
vt -1.61809993 -0.01999998
vt 1.61809993 0.01999998
vt -1.61809993 0.01999998
vt -0.63999999 -0.01999998
vt 0.63999999 -0.01999998
vt 0.63999999 0.01999998
vt -0.63999999 -0.01999998
vt 0.63999999 0.01999998
vt -0.63999999 0.01999998
vt 1.61809993 -0.01999998
vt -1.61809993 -0.01999998
vt -1.61809993 0.01999998
vt 1.61809993 -0.01999998
vt -1.61809993 0.01999998
vt 1.61809993 0.01999998
vt 0.63999999 -0.01999998
vt -0.63999999 -0.01999998
vt -0.63999999 0.01999998
vt 0.63999999 -0.01999998
vt -0.63999999 0.01999998
vt 0.63999999 0.01999998
f 1/1 2/2 3/3
f 4/4 5/5 6/6
f 7/7 8/8 9/9
f 10/10 11/11 12/12
f 13/13 14/14 15/15
f 16/16 17/17 18/18
f 19/19 20/20 21/21
f 22/22 23/23 24/24
f 25/25 26/26 27/27
f 28/28 29/29 30/30
f 31/31 32/32 33/33
f 34/34 35/35 36/36

