# https://github.com/mikedh/trimesh
mtllib material.mtl
usemtl PaleWood
v 3.05647230 3.42113757 -0.00850016
v 3.38505769 3.70604038 -0.00850016
v 3.39684916 3.69244099 -0.00863071
v 3.05647230 3.42113757 -0.00850016
v 3.39684916 3.69244099 -0.00863071
v 3.06826377 3.40753818 -0.00863071
v 3.07251024 3.40264058 0.88503581
v 3.40109563 3.68754363 0.88503581
v 3.38930416 3.70114303 0.88516641
v 3.07251024 3.40264058 0.88503581
v 3.38930416 3.70114303 0.88516641
v 3.06071877 3.41623998 0.88516641
v 3.06826377 3.40753818 -0.00863071
v 3.39684916 3.69244099 -0.00863071
v 3.40109563 3.68754363 0.88503581
v 3.06826377 3.40753818 -0.00863071
v 3.40109563 3.68754363 0.88503581
v 3.07251024 3.40264058 0.88503581
v 3.39684916 3.69244099 -0.00863071
v 3.38505769 3.70604038 -0.00850016
v 3.38930416 3.70114303 0.88516641
v 3.39684916 3.69244099 -0.00863071
v 3.38930416 3.70114303 0.88516641
v 3.40109563 3.68754363 0.88503581
v 3.38505769 3.70604038 -0.00850016
v 3.05647230 3.42113757 -0.00850016
v 3.06071877 3.41623998 0.88516641
v 3.38505769 3.70604038 -0.00850016
v 3.06071877 3.41623998 0.88516641
v 3.38930416 3.70114303 0.88516641
v 3.05647230 3.42113757 -0.00850016
v 3.06826377 3.40753818 -0.00863071
v 3.07251024 3.40264058 0.88503581
v 3.05647230 3.42113757 -0.00850016
v 3.07251024 3.40264058 0.88503581
v 3.06071877 3.41623998 0.88516641
vt -0.48322222 0.01999998
vt 0.48322222 0.01999998
vt 0.48322222 -0.01999998
vt -0.48322222 0.01999998
vt 0.48322222 -0.01999998
vt -0.48322222 -0.01999998
vt -0.48322222 -0.01999998
vt 0.48322222 -0.01999998
vt 0.48322222 0.01999998
vt -0.48322222 -0.01999998
vt 0.48322222 0.01999998
vt -0.48322222 0.01999998
vt -0.48322222 -0.99298894
vt 0.48322222 -0.99298894
vt 0.48322222 0.99298894
vt -0.48322222 -0.99298894
vt 0.48322222 0.99298894
vt -0.48322222 0.99298894
vt -0.02000000 -0.99298894
vt 0.02000000 -0.99298894
vt 0.02000000 0.99298894
vt -0.02000000 -0.99298894
vt 0.02000000 0.99298894
vt -0.02000000 0.99298894
vt 0.48322222 -0.99298894
vt -0.48322222 -0.99298894
vt -0.48322222 0.99298894
vt 0.48322222 -0.99298894
vt -0.48322222 0.99298894
vt 0.48322222 0.99298894
vt 0.02000000 -0.99298894
vt -0.02000000 -0.99298894
vt -0.02000000 0.99298894
vt 0.02000000 -0.99298894
vt -0.02000000 0.99298894
vt 0.02000000 0.99298894
f 1/1 2/2 3/3
f 4/4 5/5 6/6
f 7/7 8/8 9/9
f 10/10 11/11 12/12
f 13/13 14/14 15/15
f 16/16 17/17 18/18
f 19/19 20/20 21/21
f 22/22 23/23 24/24
f 25/25 26/26 27/27
f 28/28 29/29 30/30
f 31/31 32/32 33/33
f 34/34 35/35 36/36

