# https://github.com/mikedh/trimesh
mtllib material.mtl
usemtl BrushedSteel
v 5.88694525 3.65598512 -1.20722449
v 6.52841663 2.91368675 -1.20722449
v 6.07451439 2.52143860 -1.21791363
v 5.88694525 3.65598512 -1.20722449
v 6.07451439 2.52143860 -1.21791363
v 5.43304300 3.26373672 -1.21791363
v 5.42185259 3.25406647 -0.38785946
v 6.06332397 2.51176810 -0.38785946
v 6.51722622 2.90401626 -0.37717032
v 5.42185259 3.25406647 -0.38785946
v 6.51722622 2.90401626 -0.37717032
v 5.87575483 3.64631462 -0.37717032
v 6.07451439 2.52143860 -1.21791363
v 6.52841663 2.91368675 -1.20722449
v 6.51722622 2.90401626 -0.37717032
v 6.07451439 2.52143860 -1.21791363
v 6.51722622 2.90401626 -0.37717032
v 6.06332397 2.51176810 -0.38785946
v 6.52841663 2.91368675 -1.20722449
v 5.88694525 3.65598512 -1.20722449
v 5.87575483 3.64631462 -0.37717032
v 6.52841663 2.91368675 -1.20722449
v 5.87575483 3.64631462 -0.37717032
v 6.51722622 2.90401626 -0.37717032
v 5.88694525 3.65598512 -1.20722449
v 5.43304300 3.26373672 -1.21791363
v 5.42185259 3.25406647 -0.38785946
v 5.88694525 3.65598512 -1.20722449
v 5.42185259 3.25406647 -0.38785946
v 5.87575483 3.64631462 -0.37717032
vt -1.09007442 0.66666669
vt 1.09007442 0.66666669
vt 1.09007442 -0.66666675
vt -1.09007442 0.66666669
vt 1.09007442 -0.66666675
vt -1.09007442 -0.66666675
vt -1.09007442 -0.66666675
vt 1.09007442 -0.66666675
vt 1.09007442 0.66666669
vt -1.09007442 -0.66666675
vt 1.09007442 0.66666669
vt -1.09007442 0.66666669
vt -0.66666669 -0.92242885
vt 0.66666669 -0.92242885
vt 0.66666669 0.92242879
vt -0.66666669 -0.92242885
vt 0.66666669 0.92242879
vt -0.66666669 0.92242879
vt 1.09007442 -0.92242885
vt -1.09007442 -0.92242885
vt -1.09007442 0.92242879
vt 1.09007442 -0.92242885
vt -1.09007442 0.92242879
vt 1.09007442 0.92242879
vt 0.66666669 -0.92242885
vt -0.66666669 -0.92242885
vt -0.66666669 0.92242879
vt 0.66666669 -0.92242885
vt -0.66666669 0.92242879
vt 0.66666669 0.92242879
f 1/1 2/2 3/3
f 4/4 5/5 6/6
f 7/7 8/8 9/9
f 10/10 11/11 12/12
f 13/13 14/14 15/15
f 16/16 17/17 18/18
f 19/19 20/20 21/21
f 22/22 23/23 24/24
f 25/25 26/26 27/27
f 28/28 29/29 30/30

