# https://github.com/mikedh/trimesh
mtllib material.mtl
usemtl PaleWood
v 6.08448744 2.52212691 -0.65629452
v 6.32451391 2.24437308 -0.65629452
v 6.31089687 2.23260570 -0.65661520
v 6.08448744 2.52212691 -0.65629452
v 6.31089687 2.23260570 -0.65661520
v 6.07087040 2.51035953 -0.65661520
v 6.06878710 2.50855923 -0.41628873
v 6.30881357 2.23080540 -0.42044750
v 6.32243061 2.24257278 -0.42110303
v 6.06878710 2.50855923 -0.41628873
v 6.32243061 2.24257278 -0.42110303
v 6.08240414 2.52032661 -0.41694427
v 6.07087040 2.51035953 -0.65661520
v 6.31089687 2.23260570 -0.65661520
v 6.30881357 2.23080540 -0.42044750
v 6.07087040 2.51035953 -0.65661520
v 6.30881357 2.23080540 -0.42044750
v 6.06878710 2.50855923 -0.41628873
v 6.31089687 2.23260570 -0.65661520
v 6.32451391 2.24437308 -0.65629452
v 6.32243061 2.24257278 -0.42110303
v 6.31089687 2.23260570 -0.65661520
v 6.32243061 2.24257278 -0.42110303
v 6.30881357 2.23080540 -0.42044750
v 6.32451391 2.24437308 -0.65629452
v 6.08448744 2.52212691 -0.65629452
v 6.08240414 2.52032661 -0.41694427
v 6.32451391 2.24437308 -0.65629452
v 6.08240414 2.52032661 -0.41694427
v 6.32243061 2.24257278 -0.42110303
v 6.08448744 2.52212691 -0.65629452
v 6.07087040 2.51035953 -0.65661520
v 6.06878710 2.50855923 -0.41628873
v 6.08448744 2.52212691 -0.65629452
v 6.06878710 2.50855923 -0.41628873
v 6.08240414 2.52032661 -0.41694427
vt -0.40788484 0.01999998
vt 0.40788484 0.01999998
vt 0.40788484 -0.01999998
vt -0.40788484 0.01999998
vt 0.40788484 -0.01999998
vt -0.40788484 -0.01999998
vt -0.40788484 -0.01999998
vt 0.40788484 -0.01999998
vt 0.40788484 0.01999998
vt -0.40788484 -0.01999998
vt 0.40788484 0.01999998
vt -0.40788484 0.01999998
vt -0.40788484 -0.17172718
vt 0.40788484 -0.17172718
vt 0.40788484 0.17172712
vt -0.40788484 -0.17172718
vt 0.40788484 0.17172712
vt -0.40788484 0.17172712
vt -0.02000000 -0.17172718
vt 0.02000000 -0.17172718
vt 0.02000000 0.17172712
vt -0.02000000 -0.17172718
vt 0.02000000 0.17172712
vt -0.02000000 0.17172712
vt 0.40788484 -0.17172718
vt -0.40788484 -0.17172718
vt -0.40788484 0.17172712
vt 0.40788484 -0.17172718
vt -0.40788484 0.17172712
vt 0.40788484 0.17172712
vt 0.02000000 -0.17172718
vt -0.02000000 -0.17172718
vt -0.02000000 0.17172712
vt 0.02000000 -0.17172718
vt -0.02000000 0.17172712
vt 0.02000000 0.17172712
f 1/1 2/2 3/3
f 4/4 5/5 6/6
f 7/7 8/8 9/9
f 10/10 11/11 12/12
f 13/13 14/14 15/15
f 16/16 17/17 18/18
f 19/19 20/20 21/21
f 22/22 23/23 24/24
f 25/25 26/26 27/27
f 28/28 29/29 30/30
f 31/31 32/32 33/33
f 34/34 35/35 36/36

