# https://github.com/mikedh/trimesh
mtllib material.mtl
usemtl DarkPlastic
v 6.72588062 2.57536221 -0.81360823
v 7.04193640 2.20962882 -0.81360823
v 7.02831936 2.19786119 -0.81392890
v 6.72588062 2.57536221 -0.81360823
v 7.02831936 2.19786119 -0.81392890
v 6.71226358 2.56359482 -0.81392890
v 6.71070099 2.56224465 -0.69803149
v 7.02675676 2.19651103 -0.69803149
v 7.04037380 2.20827842 -0.69771081
v 6.71070099 2.56224465 -0.69803149
v 7.04037380 2.20827842 -0.69771081
v 6.72431803 2.57401204 -0.69771081
v 6.71226358 2.56359482 -0.81392890
v 7.02831936 2.19786119 -0.81392890
v 7.02675676 2.19651103 -0.69803149
v 6.71226358 2.56359482 -0.81392890
v 7.02675676 2.19651103 -0.69803149
v 6.71070099 2.56224465 -0.69803149
v 7.02831936 2.19786119 -0.81392890
v 7.04193640 2.20962882 -0.81360823
v 7.04037380 2.20827842 -0.69771081
v 7.02831936 2.19786119 -0.81392890
v 7.04037380 2.20827842 -0.69771081
v 7.02675676 2.19651103 -0.69803149
v 7.04193640 2.20962882 -0.81360823
v 6.72588062 2.57536221 -0.81360823
v 6.72431803 2.57401204 -0.69771081
v 7.04193640 2.20962882 -0.81360823
v 6.72431803 2.57401204 -0.69771081
v 7.04037380 2.20827842 -0.69771081
v 6.72588062 2.57536221 -0.81360823
v 6.71226358 2.56359482 -0.81392890
v 6.71070099 2.56224465 -0.69803149
v 6.72588062 2.57536221 -0.81360823
v 6.71070099 2.56224465 -0.69803149
v 6.72431803 2.57401204 -0.69771081
vt -0.53708428 0.01999998
vt 0.53708428 0.01999998
vt 0.53708428 -0.01999998
vt -0.53708428 0.01999998
vt 0.53708428 -0.01999998
vt -0.53708428 -0.01999998
vt -0.53708428 -0.01999998
vt 0.53708428 -0.01999998
vt 0.53708428 0.01999998
vt -0.53708428 -0.01999998
vt 0.53708428 0.01999998
vt -0.53708428 0.01999998
vt -0.53708428 -0.12879539
vt 0.53708428 -0.12879539
vt 0.53708428 0.12879533
vt -0.53708428 -0.12879539
vt 0.53708428 0.12879533
vt -0.53708428 0.12879533
vt -0.02000000 -0.12879539
vt 0.02000000 -0.12879539
vt 0.02000000 0.12879533
vt -0.02000000 -0.12879539
vt 0.02000000 0.12879533
vt -0.02000000 0.12879533
vt 0.53708428 -0.12879539
vt -0.53708428 -0.12879539
vt -0.53708428 0.12879533
vt 0.53708428 -0.12879539
vt -0.53708428 0.12879533
vt 0.53708428 0.12879533
vt 0.02000000 -0.12879539
vt -0.02000000 -0.12879539
vt -0.02000000 0.12879533
vt 0.02000000 -0.12879539
vt -0.02000000 0.12879533
vt 0.02000000 0.12879533
f 1/1 2/2 3/3
f 4/4 5/5 6/6
f 7/7 8/8 9/9
f 10/10 11/11 12/12
f 13/13 14/14 15/15
f 16/16 17/17 18/18
f 19/19 20/20 21/21
f 22/22 23/23 24/24
f 25/25 26/26 27/27
f 28/28 29/29 30/30
f 31/31 32/32 33/33
f 34/34 35/35 36/36

