# https://github.com/mikedh/trimesh
mtllib material.mtl
usemtl PaleWood
v 2.34763241 3.29149389 -0.87811965
v 2.79758644 3.68312168 -0.87811965
v 3.16388202 3.26227283 -0.88692945
v 2.34763241 3.29149389 -0.87811965
v 3.16388202 3.26227283 -0.88692945
v 2.71392822 2.87064505 -0.88692945
v 2.71411467 2.87043071 -0.86893171
v 3.16406870 3.26205850 -0.86893171
v 2.79777288 3.68290734 -0.86012191
v 2.71411467 2.87043071 -0.86893171
v 2.79777288 3.68290734 -0.86012191
v 2.34781909 3.29127955 -0.86012191
v 2.71392822 2.87064505 -0.88692945
v 3.16388202 3.26227283 -0.88692945
v 3.16406870 3.26205850 -0.86893171
v 2.71392822 2.87064505 -0.88692945
v 3.16406870 3.26205850 -0.86893171
v 2.71411467 2.87043071 -0.86893171
v 3.16388202 3.26227283 -0.88692945
v 2.79758644 3.68312168 -0.87811965
v 2.79777288 3.68290734 -0.86012191
v 3.16388202 3.26227283 -0.88692945
v 2.79777288 3.68290734 -0.86012191
v 3.16406870 3.26205850 -0.86893171
v 2.79758644 3.68312168 -0.87811965
v 2.34763241 3.29149389 -0.87811965
v 2.34781909 3.29127955 -0.86012191
v 2.79758644 3.68312168 -0.87811965
v 2.34781909 3.29127955 -0.86012191
v 2.79777288 3.68290734 -0.86012191
v 2.34763241 3.29149389 -0.87811965
v 2.71392822 2.87064505 -0.88692945
v 2.71411467 2.87043071 -0.86893171
v 2.34763241 3.29149389 -0.87811965
v 2.71411467 2.87043071 -0.86893171
v 2.34781909 3.29127955 -0.86012191
vt -0.66279507 0.62000000
vt 0.66279507 0.62000000
vt 0.66279507 -0.62000000
vt -0.66279507 0.62000000
vt 0.66279507 -0.62000000
vt -0.66279507 -0.62000000
vt -0.66279507 -0.62000000
vt 0.66279507 -0.62000000
vt 0.66279507 0.62000000
vt -0.66279507 -0.62000000
vt 0.66279507 0.62000000
vt -0.66279507 0.62000000
vt -0.66279507 -0.01999998
vt 0.66279507 -0.01999998
vt 0.66279507 0.01999998
vt -0.66279507 -0.01999998
vt 0.66279507 0.01999998
vt -0.66279507 0.01999998
vt -0.62000000 -0.01999998
vt 0.62000000 -0.01999998
vt 0.62000000 0.01999998
vt -0.62000000 -0.01999998
vt 0.62000000 0.01999998
vt -0.62000000 0.01999998
vt 0.66279507 -0.01999998
vt -0.66279507 -0.01999998
vt -0.66279507 0.01999998
vt 0.66279507 -0.01999998
vt -0.66279507 0.01999998
vt 0.66279507 0.01999998
vt 0.62000000 -0.01999998
vt -0.62000000 -0.01999998
vt -0.62000000 0.01999998
vt 0.62000000 -0.01999998
vt -0.62000000 0.01999998
vt 0.62000000 0.01999998
f 1/1 2/2 3/3
f 4/4 5/5 6/6
f 7/7 8/8 9/9
f 10/10 11/11 12/12
f 13/13 14/14 15/15
f 16/16 17/17 18/18
f 19/19 20/20 21/21
f 22/22 23/23 24/24
f 25/25 26/26 27/27
f 28/28 29/29 30/30
f 31/31 32/32 33/33
f 34/34 35/35 36/36

