# https://github.com/mikedh/trimesh
mtllib material.mtl
usemtl PaleWood
v 5.86074495 3.65713382 -1.14720559
v 5.87251472 3.64351463 -1.14720559
v 5.46400261 3.29049110 -1.15682578
v 5.86074495 3.65713382 -1.14720559
v 5.46400261 3.29049110 -1.15682578
v 5.45223331 3.30411029 -1.15682578
v 5.44215059 3.29539728 -0.40894178
v 5.45391989 3.28177810 -0.40894178
v 5.86243200 3.63480163 -0.39932156
v 5.44215059 3.29539728 -0.40894178
v 5.86243200 3.63480163 -0.39932156
v 5.85066271 3.64842081 -0.39932156
v 5.45223331 3.30411029 -1.15682578
v 5.46400261 3.29049110 -1.15682578
v 5.45391989 3.28177810 -0.40894178
v 5.45223331 3.30411029 -1.15682578
v 5.45391989 3.28177810 -0.40894178
v 5.44215059 3.29539728 -0.40894178
v 5.46400261 3.29049110 -1.15682578
v 5.87251472 3.64351463 -1.14720559
v 5.86243200 3.63480163 -0.39932156
v 5.46400261 3.29049110 -1.15682578
v 5.86243200 3.63480163 -0.39932156
v 5.45391989 3.28177810 -0.40894178
v 5.87251472 3.64351463 -1.14720559
v 5.86074495 3.65713382 -1.14720559
v 5.85066271 3.64842081 -0.39932156
v 5.87251472 3.64351463 -1.14720559
v 5.85066271 3.64842081 -0.39932156
v 5.86243200 3.63480163 -0.39932156
v 5.86074495 3.65713382 -1.14720559
v 5.45223331 3.30411029 -1.15682578
v 5.44215059 3.29539728 -0.40894178
v 5.86074495 3.65713382 -1.14720559
v 5.44215059 3.29539728 -0.40894178
v 5.85066271 3.64842081 -0.39932156
vt -0.02000000 0.60000002
vt 0.02000000 0.60000002
vt 0.02000000 -0.60000002
vt -0.02000000 0.60000002
vt 0.02000000 -0.60000002
vt -0.02000000 -0.60000002
vt -0.02000000 -0.60000002
vt 0.02000000 -0.60000002
vt 0.02000000 0.60000002
vt -0.02000000 -0.60000002
vt 0.02000000 0.60000002
vt -0.02000000 0.60000002
vt -0.02000000 -0.83111405
vt 0.02000000 -0.83111405
vt 0.02000000 0.83111411
vt -0.02000000 -0.83111405
vt 0.02000000 0.83111411
vt -0.02000000 0.83111411
vt -0.60000002 -0.83111405
vt 0.60000002 -0.83111405
vt 0.60000002 0.83111411
vt -0.60000002 -0.83111405
vt 0.60000002 0.83111411
vt -0.60000002 0.83111411
vt 0.02000000 -0.83111405
vt -0.02000000 -0.83111405
vt -0.02000000 0.83111411
vt 0.02000000 -0.83111405
vt -0.02000000 0.83111411
vt 0.02000000 0.83111411
vt 0.60000002 -0.83111405
vt -0.60000002 -0.83111405
vt -0.60000002 0.83111411
vt 0.60000002 -0.83111405
vt -0.60000002 0.83111411
vt 0.60000002 0.83111411
f 1/1 2/2 3/3
f 4/4 5/5 6/6
f 7/7 8/8 9/9
f 10/10 11/11 12/12
f 13/13 14/14 15/15
f 16/16 17/17 18/18
f 19/19 20/20 21/21
f 22/22 23/23 24/24
f 25/25 26/26 27/27
f 28/28 29/29 30/30
f 31/31 32/32 33/33
f 34/34 35/35 36/36

