# https://github.com/mikedh/trimesh
mtllib material.mtl
usemtl DarkRecess
v 0.63914508 1.64408302 -0.19561878
v 0.64062780 1.64542496 -0.19563971
v 0.65807384 1.62616062 -0.19491825
v 0.63914508 1.64408302 -0.19561878
v 0.65807384 1.62616062 -0.19491825
v 0.65659112 1.62481868 -0.19489732
v 0.65655851 1.62490141 -0.19189864
v 0.65804124 1.62624347 -0.19191957
v 0.64059520 1.64550781 -0.19264102
v 0.65655851 1.62490141 -0.19189864
v 0.64059520 1.64550781 -0.19264102
v 0.63911247 1.64416575 -0.19262010
v 0.65659112 1.62481868 -0.19489732
v 0.65807384 1.62616062 -0.19491825
v 0.65804124 1.62624347 -0.19191957
v 0.65659112 1.62481868 -0.19489732
v 0.65804124 1.62624347 -0.19191957
v 0.65655851 1.62490141 -0.19189864
v 0.65807384 1.62616062 -0.19491825
v 0.64062780 1.64542496 -0.19563971
v 0.64059520 1.64550781 -0.19264102
v 0.65807384 1.62616062 -0.19491825
v 0.64059520 1.64550781 -0.19264102
v 0.65804124 1.62624347 -0.19191957
v 0.64062780 1.64542496 -0.19563971
v 0.63914508 1.64408302 -0.19561878
v 0.63911247 1.64416575 -0.19262010
v 0.64062780 1.64542496 -0.19563971
v 0.63911247 1.64416575 -0.19262010
v 0.64059520 1.64550781 -0.19264102
v 0.63914508 1.64408302 -0.19561878
v 0.65659112 1.62481868 -0.19489732
v 0.65655851 1.62490141 -0.19189864
v 0.63914508 1.64408302 -0.19561878
v 0.65655851 1.62490141 -0.19189864
v 0.63911247 1.64416575 -0.19262010
vt 0.00000000 0.00000000
vt 0.00000000 0.00000000
vt 0.00000000 0.00000000
vt 0.00000000 0.00000000
vt 0.00000000 0.00000000
vt 0.00000000 0.00000000
vt 0.00000000 0.00000000
vt 0.00000000 0.00000000
vt 0.00000000 0.00000000
vt 0.00000000 0.00000000
vt 0.00000000 0.00000000
vt 0.00000000 0.00000000
vt 0.00000000 0.00000000
vt 0.00000000 0.00000000
vt 0.00000000 0.00000000
vt 0.00000000 0.00000000
vt 0.00000000 0.00000000
vt 0.00000000 0.00000000
vt 0.00000000 0.00000000
vt 0.00000000 0.00000000
vt 0.00000000 0.00000000
vt 0.00000000 0.00000000
vt 0.00000000 0.00000000
vt 0.00000000 0.00000000
vt 0.00000000 0.00000000
vt 0.00000000 0.00000000
vt 0.00000000 0.00000000
vt 0.00000000 0.00000000
vt 0.00000000 0.00000000
vt 0.00000000 0.00000000
vt 0.00000000 0.00000000
vt 0.00000000 0.00000000
vt 0.00000000 0.00000000
vt 0.00000000 0.00000000
vt 0.00000000 0.00000000
vt 0.00000000 0.00000000
f 1/1 2/2 3/3
f 4/4 5/5 6/6
f 7/7 8/8 9/9
f 10/10 11/11 12/12
f 13/13 14/14 15/15
f 16/16 17/17 18/18
f 19/19 20/20 21/21
f 22/22 23/23 24/24
f 25/25 26/26 27/27
f 28/28 29/29 30/30
f 31/31 32/32 33/33
f 34/34 35/35 36/36

