# https://github.com/mikedh/trimesh
mtllib material.mtl
usemtl DarkPlastic
v 7.02560377 2.21930432 -0.98029655
v 7.03737307 2.20568514 -0.98029655
v 6.64609718 1.86755669 -0.98951083
v 7.02560377 2.21930432 -0.98029655
v 6.64609718 1.86755669 -0.98951083
v 6.63432789 1.88117588 -0.98951083
v 6.63276529 1.87982559 -0.87361342
v 6.64453459 1.86620641 -0.87361342
v 7.03581047 2.20433497 -0.86439914
v 6.63276529 1.87982559 -0.87361342
v 7.03581047 2.20433497 -0.86439914
v 7.02404118 2.21795416 -0.86439914
v 6.63432789 1.88117588 -0.98951083
v 6.64609718 1.86755669 -0.98951083
v 6.64453459 1.86620641 -0.87361342
v 6.63432789 1.88117588 -0.98951083
v 6.64453459 1.86620641 -0.87361342
v 6.63276529 1.87982559 -0.87361342
v 6.64609718 1.86755669 -0.98951083
v 7.03737307 2.20568514 -0.98029655
v 7.03581047 2.20433497 -0.86439914
v 6.64609718 1.86755669 -0.98951083
v 7.03581047 2.20433497 -0.86439914
v 6.64453459 1.86620641 -0.87361342
v 7.03737307 2.20568514 -0.98029655
v 7.02560377 2.21930432 -0.98029655
v 7.02404118 2.21795416 -0.86439914
v 7.03737307 2.20568514 -0.98029655
v 7.02404118 2.21795416 -0.86439914
v 7.03581047 2.20433497 -0.86439914
v 7.02560377 2.21930432 -0.98029655
v 6.63432789 1.88117588 -0.98951083
v 6.63276529 1.87982559 -0.87361342
v 7.02560377 2.21930432 -0.98029655
v 6.63276529 1.87982559 -0.87361342
v 7.02404118 2.21795416 -0.86439914
vt -0.02000000 0.57468438
vt 0.02000000 0.57468438
vt 0.02000000 -0.57468438
vt -0.02000000 0.57468438
vt 0.02000000 -0.57468438
vt -0.02000000 -0.57468438
vt -0.02000000 -0.57468438
vt 0.02000000 -0.57468438
vt 0.02000000 0.57468438
vt -0.02000000 -0.57468438
vt 0.02000000 0.57468438
vt -0.02000000 0.57468438
vt -0.02000000 -0.12879539
vt 0.02000000 -0.12879539
vt 0.02000000 0.12879533
vt -0.02000000 -0.12879539
vt 0.02000000 0.12879533
vt -0.02000000 0.12879533
vt -0.57468438 -0.12879539
vt 0.57468438 -0.12879539
vt 0.57468438 0.12879533
vt -0.57468438 -0.12879539
vt 0.57468438 0.12879533
vt -0.57468438 0.12879533
vt 0.02000000 -0.12879539
vt -0.02000000 -0.12879539
vt -0.02000000 0.12879533
vt 0.02000000 -0.12879539
vt -0.02000000 0.12879533
vt 0.02000000 0.12879533
vt 0.57468438 -0.12879539
vt -0.57468438 -0.12879539
vt -0.57468438 0.12879533
vt 0.57468438 -0.12879539
vt -0.57468438 0.12879533
vt 0.57468438 0.12879533
f 1/1 2/2 3/3
f 4/4 5/5 6/6
f 7/7 8/8 9/9
f 10/10 11/11 12/12
f 13/13 14/14 15/15
f 16/16 17/17 18/18
f 19/19 20/20 21/21
f 22/22 23/23 24/24
f 25/25 26/26 27/27
f 28/28 29/29 30/30
f 31/31 32/32 33/33
f 34/34 35/35 36/36

