# https://github.com/mikedh/trimesh
mtllib material.mtl
usemtl WarmWhitePaint
v 5.95142889 -2.06361151 -1.30691993
v 5.92582607 -2.08747554 -1.30676663
v 5.88832521 -2.04724240 -1.30598891
v 5.95142889 -2.06361151 -1.30691993
v 5.88832521 -2.04724240 -1.30598891
v 5.91392803 -2.02337837 -1.30614221
v 5.91392803 -2.02337837 1.49630964
v 5.88832521 -2.04724240 1.49630964
v 5.92582607 -2.08747554 1.49630964
v 5.91392803 -2.02337837 1.49630964
v 5.92582607 -2.08747554 1.49630964
v 5.95142889 -2.06361151 1.49630964
v 5.91392803 -2.02337837 -1.30614221
v 5.88832521 -2.04724240 -1.30598891
v 5.88832521 -2.04724240 1.49630964
v 5.91392803 -2.02337837 -1.30614221
v 5.88832521 -2.04724240 1.49630964
v 5.91392803 -2.02337837 1.49630964
v 5.88832521 -2.04724240 -1.30598891
v 5.92582607 -2.08747554 -1.30676663
v 5.92582607 -2.08747554 1.49630964
v 5.88832521 -2.04724240 -1.30598891
v 5.92582607 -2.08747554 1.49630964
v 5.88832521 -2.04724240 1.49630964
v 5.92582607 -2.08747554 -1.30676663
v 5.95142889 -2.06361151 -1.30691993
v 5.95142889 -2.06361151 1.49630964
v 5.92582607 -2.08747554 -1.30676663
v 5.95142889 -2.06361151 1.49630964
v 5.92582607 -2.08747554 1.49630964
v 5.95142889 -2.06361151 -1.30691993
v 5.91392803 -2.02337837 -1.30614221
v 5.91392803 -2.02337837 1.49630964
v 5.95142889 -2.06361151 -1.30691993
v 5.91392803 -2.02337837 1.49630964
v 5.95142889 -2.06361151 1.49630964
vt -0.03888889 0.06111109
vt 0.03888889 0.06111109
vt 0.03888889 -0.06111109
vt -0.03888889 0.06111109
vt 0.03888889 -0.06111109
vt -0.03888889 -0.06111109
vt -0.03888889 -0.06111109
vt 0.03888889 -0.06111109
vt 0.03888889 0.06111109
vt -0.03888889 -0.06111109
vt 0.03888889 0.06111109
vt -0.03888889 0.06111109
vt -0.03888889 -3.16173983
vt 0.03888889 -3.16139889
vt 0.03888889 3.06593108
vt -0.03888889 -3.16173983
vt 0.03888889 3.06593108
vt -0.03888889 3.06593108
vt -0.06111111 -3.16139889
vt 0.06111111 -3.16312742
vt 0.06111111 3.06593108
vt -0.06111111 -3.16139889
vt 0.06111111 3.06593108
vt -0.06111111 3.06593108
vt 0.03888889 -3.16312742
vt -0.03888889 -3.16346836
vt -0.03888889 3.06593108
vt 0.03888889 -3.16312742
vt -0.03888889 3.06593108
vt 0.03888889 3.06593108
vt 0.06111111 -3.16346836
vt -0.06111111 -3.16173983
vt -0.06111111 3.06593108
vt 0.06111111 -3.16346836
vt -0.06111111 3.06593108
vt 0.06111111 3.06593108
f 1/1 2/2 3/3
f 4/4 5/5 6/6
f 7/7 8/8 9/9
f 10/10 11/11 12/12
f 13/13 14/14 15/15
f 16/16 17/17 18/18
f 19/19 20/20 21/21
f 22/22 23/23 24/24
f 25/25 26/26 27/27
f 28/28 29/29 30/30
f 31/31 32/32 33/33
f 34/34 35/35 36/36

