# https://github.com/mikedh/trimesh
mtllib material.mtl
usemtl PaleWood
v 4.87842703 -0.01383309 -1.20669675
v 4.86672783 -0.00015555 -1.20646477
v 5.39649057 0.45310953 -1.21402442
v 4.87842703 -0.01383309 -1.20669675
v 5.39649057 0.45310953 -1.21402442
v 5.40818977 0.43943200 -1.21425641
v 5.42249250 0.43706939 -0.35359821
v 5.41079330 0.45074692 -0.35336623
v 4.88103056 -0.00251816 -0.34580660
v 5.42249250 0.43706939 -0.35359821
v 4.88103056 -0.00251816 -0.34580660
v 4.89272976 -0.01619569 -0.34603858
v 5.40818977 0.43943200 -1.21425641
v 5.39649057 0.45310953 -1.21402442
v 5.41079330 0.45074692 -0.35336623
v 5.40818977 0.43943200 -1.21425641
v 5.41079330 0.45074692 -0.35336623
v 5.42249250 0.43706939 -0.35359821
v 5.39649057 0.45310953 -1.21402442
v 4.86672783 -0.00015555 -1.20646477
v 4.88103056 -0.00251816 -0.34580660
v 5.39649057 0.45310953 -1.21402442
v 4.88103056 -0.00251816 -0.34580660
v 5.41079330 0.45074692 -0.35336623
v 4.86672783 -0.00015555 -1.20646477
v 4.87842703 -0.01383309 -1.20669675
v 4.89272976 -0.01619569 -0.34603858
v 4.86672783 -0.00015555 -1.20646477
v 4.89272976 -0.01619569 -0.34603858
v 4.88103056 -0.00251816 -0.34580660
v 4.87842703 -0.01383309 -1.20669675
v 5.40818977 0.43943200 -1.21425641
v 5.42249250 0.43706939 -0.35359821
v 4.87842703 -0.01383309 -1.20669675
v 5.42249250 0.43706939 -0.35359821
v 4.89272976 -0.01619569 -0.34603858
vt -0.02000000 0.77472025
vt 0.02000000 0.77472025
vt 0.02000000 -0.77472019
vt -0.02000000 0.77472025
vt 0.02000000 -0.77472019
vt -0.02000000 -0.77472019
vt -0.02000000 -0.77472019
vt 0.02000000 -0.77472019
vt 0.02000000 0.77472025
vt -0.02000000 -0.77472019
vt 0.02000000 0.77472025
vt -0.02000000 0.77472025
vt -0.02000000 -0.95642257
vt 0.02000000 -0.95642257
vt 0.02000000 0.95642257
vt -0.02000000 -0.95642257
vt 0.02000000 0.95642257
vt -0.02000000 0.95642257
vt -0.77472025 -0.95642257
vt 0.77472025 -0.95642257
vt 0.77472025 0.95642257
vt -0.77472025 -0.95642257
vt 0.77472025 0.95642257
vt -0.77472025 0.95642257
vt 0.02000000 -0.95642257
vt -0.02000000 -0.95642257
vt -0.02000000 0.95642257
vt 0.02000000 -0.95642257
vt -0.02000000 0.95642257
vt 0.02000000 0.95642257
vt 0.77472025 -0.95642257
vt -0.77472025 -0.95642257
vt -0.77472025 0.95642257
vt 0.77472025 -0.95642257
vt -0.77472025 0.95642257
vt 0.77472025 0.95642257
f 1/1 2/2 3/3
f 4/4 5/5 6/6
f 7/7 8/8 9/9
f 10/10 11/11 12/12
f 13/13 14/14 15/15
f 16/16 17/17 18/18
f 19/19 20/20 21/21
f 22/22 23/23 24/24
f 25/25 26/26 27/27
f 28/28 29/29 30/30
f 31/31 32/32 33/33
f 34/34 35/35 36/36

