# https://github.com/mikedh/trimesh
mtllib material.mtl
usemtl parcel
v -0.04979205 0.08933425 -0.05350986
v 0.08837295 -0.04827523 -0.05641747
v 0.04607797 -0.09078407 -0.05439022
v -0.04979205 0.08933425 -0.05350986
v 0.04607797 -0.09078407 -0.05439022
v -0.09208751 0.04682541 -0.05148262
v -0.08837295 0.04827523 0.05641747
v 0.04979253 -0.08933425 0.05350986
v 0.09208751 -0.04682541 0.05148262
v -0.08837295 0.04827523 0.05641747
v 0.09208751 -0.04682541 0.05148262
v -0.04607749 0.09078407 0.05439022
v 0.04607797 -0.09078407 -0.05439022
v 0.08837295 -0.04827523 -0.05641747
v 0.09208751 -0.04682541 0.05148262
v 0.04607797 -0.09078407 -0.05439022
v 0.09208751 -0.04682541 0.05148262
v 0.04979253 -0.08933425 0.05350986
v 0.08837295 -0.04827523 -0.05641747
v -0.04979205 0.08933425 -0.05350986
v -0.04607749 0.09078407 0.05439022
v 0.08837295 -0.04827523 -0.05641747
v -0.04607749 0.09078407 0.05439022
v 0.09208751 -0.04682541 0.05148262
v -0.04979205 0.08933425 -0.05350986
v -0.09208751 0.04682541 -0.05148262
v -0.08837295 0.04827523 0.05641747
v -0.04979205 0.08933425 -0.05350986
v -0.08837295 0.04827523 0.05641747
v -0.04607749 0.09078407 0.05439022
vt 0.00000000 0.00000000
vt 0.00000000 0.00000000
vt 0.00000000 0.00000000
vt 0.00000000 0.00000000
vt 0.00000000 0.00000000
vt 0.00000000 0.00000000
vt 0.00000000 0.00000000
vt 0.00000000 0.00000000
vt 0.00000000 0.00000000
vt 0.00000000 0.00000000
vt 0.00000000 0.00000000
vt 0.00000000 0.00000000
vt 0.00000000 0.00000000
vt 0.00000000 0.00000000
vt 0.00000000 0.00000000
vt 0.00000000 0.00000000
vt 0.00000000 0.00000000
vt 0.00000000 0.00000000
vt 0.00000000 0.00000000
vt 0.00000000 0.00000000
vt 0.00000000 0.00000000
vt 0.00000000 0.00000000
vt 0.00000000 0.00000000
vt 0.00000000 0.00000000
vt 0.00000000 0.00000000
vt 0.00000000 0.00000000
vt 0.00000000 0.00000000
vt 0.00000000 0.00000000
vt 0.00000000 0.00000000
vt 0.00000000 0.00000000
f 1/1 2/2 3/3
f 4/4 5/5 6/6
f 7/7 8/8 9/9
f 10/10 11/11 12/12
f 13/13 14/14 15/15
f 16/16 17/17 18/18
f 19/19 20/20 21/21
f 22/22 23/23 24/24
f 25/25 26/26 27/27
f 28/28 29/29 30/30

