# https://github.com/mikedh/trimesh
mtllib material.mtl
usemtl Front_02_island_paper
v 4.89888763 1.07281220 -1.14204502
v 4.64435339 1.37038863 -1.13699818
v 4.65802956 1.38208997 -1.13719332
v 4.89888763 1.07281220 -1.14204502
v 4.65802956 1.38208997 -1.13719332
v 4.91256380 1.08451366 -1.14224017
v 4.92573690 1.08233762 -0.34957236
v 4.67120266 1.37991405 -0.34452549
v 4.65752649 1.36821258 -0.34433031
v 4.92573690 1.08233762 -0.34957236
v 4.65752649 1.36821258 -0.34433031
v 4.91206074 1.07063627 -0.34937721
v 4.91256380 1.08451366 -1.14224017
v 4.65802956 1.38208997 -1.13719332
v 4.67120266 1.37991405 -0.34452549
v 4.91256380 1.08451366 -1.14224017
v 4.67120266 1.37991405 -0.34452549
v 4.92573690 1.08233762 -0.34957236
v 4.65802956 1.38208997 -1.13719332
v 4.64435339 1.37038863 -1.13699818
v 4.65752649 1.36821258 -0.34433031
v 4.65802956 1.38208997 -1.13719332
v 4.65752649 1.36821258 -0.34433031
v 4.67120266 1.37991405 -0.34452549
v 4.64435339 1.37038863 -1.13699818
v 4.89888763 1.07281220 -1.14204502
v 4.91206074 1.07063627 -0.34937721
v 4.64435339 1.37038863 -1.13699818
v 4.91206074 1.07063627 -0.34937721
v 4.65752649 1.36821258 -0.34433031
v 4.89888763 1.07281220 -1.14204502
v 4.91256380 1.08451366 -1.14224017
v 4.92573690 1.08233762 -0.34957236
v 4.89888763 1.07281220 -1.14204502
v 4.92573690 1.08233762 -0.34957236
v 4.91206074 1.07063627 -0.34937721
vt 0.00065104 0.99902344
vt 0.33268228 0.99902344
vt 0.33268228 0.50097656
vt 0.00065104 0.99902344
vt 0.33268228 0.50097656
vt 0.00065104 0.50097656
vt 0.33398438 0.99902344
vt 0.66601562 0.99902344
vt 0.66601562 0.50097656
vt 0.33398438 0.99902344
vt 0.66601562 0.50097656
vt 0.33398438 0.50097656
vt 0.66731769 0.99902344
vt 0.99934894 0.99902344
vt 0.99934894 0.50097656
vt 0.66731769 0.99902344
vt 0.99934894 0.50097656
vt 0.66731769 0.50097656
vt 0.00065104 0.49902344
vt 0.33268228 0.49902344
vt 0.33268228 0.00097656
vt 0.00065104 0.49902344
vt 0.33268228 0.00097656
vt 0.00065104 0.00097656
vt 0.33398438 0.49902344
vt 0.66601562 0.49902344
vt 0.66601562 0.00097656
vt 0.33398438 0.49902344
vt 0.66601562 0.00097656
vt 0.33398438 0.00097656
vt 0.66731769 0.49902344
vt 0.99934894 0.49902344
vt 0.99934894 0.00097656
vt 0.66731769 0.49902344
vt 0.99934894 0.00097656
vt 0.66731769 0.00097656
f 1/1 2/2 3/3
f 4/4 5/5 6/6
f 7/7 8/8 9/9
f 10/10 11/11 12/12
f 13/13 14/14 15/15
f 16/16 17/17 18/18
f 19/19 20/20 21/21
f 22/22 23/23 24/24
f 25/25 26/26 27/27
f 28/28 29/29 30/30
f 31/31 32/32 33/33
f 34/34 35/35 36/36

