# https://github.com/mikedh/trimesh
mtllib material.mtl
usemtl DarkRecess
v 0.63863027 1.64539003 -0.14826971
v 0.64011300 1.64673209 -0.14829063
v 0.65755910 1.62746775 -0.14756918
v 0.63863027 1.64539003 -0.14826971
v 0.65755910 1.62746775 -0.14756918
v 0.65607631 1.62612569 -0.14754826
v 0.65604371 1.62620842 -0.14454958
v 0.65752649 1.62755048 -0.14457050
v 0.64008039 1.64681482 -0.14529195
v 0.65604371 1.62620842 -0.14454958
v 0.64008039 1.64681482 -0.14529195
v 0.63859767 1.64547276 -0.14527103
v 0.65607631 1.62612569 -0.14754826
v 0.65755910 1.62746775 -0.14756918
v 0.65752649 1.62755048 -0.14457050
v 0.65607631 1.62612569 -0.14754826
v 0.65752649 1.62755048 -0.14457050
v 0.65604371 1.62620842 -0.14454958
v 0.65755910 1.62746775 -0.14756918
v 0.64011300 1.64673209 -0.14829063
v 0.64008039 1.64681482 -0.14529195
v 0.65755910 1.62746775 -0.14756918
v 0.64008039 1.64681482 -0.14529195
v 0.65752649 1.62755048 -0.14457050
v 0.64011300 1.64673209 -0.14829063
v 0.63863027 1.64539003 -0.14826971
v 0.63859767 1.64547276 -0.14527103
v 0.64011300 1.64673209 -0.14829063
v 0.63859767 1.64547276 -0.14527103
v 0.64008039 1.64681482 -0.14529195
v 0.63863027 1.64539003 -0.14826971
v 0.65607631 1.62612569 -0.14754826
v 0.65604371 1.62620842 -0.14454958
v 0.63863027 1.64539003 -0.14826971
v 0.65604371 1.62620842 -0.14454958
v 0.63859767 1.64547276 -0.14527103
vt 0.00000000 0.00000000
vt 0.00000000 0.00000000
vt 0.00000000 0.00000000
vt 0.00000000 0.00000000
vt 0.00000000 0.00000000
vt 0.00000000 0.00000000
vt 0.00000000 0.00000000
vt 0.00000000 0.00000000
vt 0.00000000 0.00000000
vt 0.00000000 0.00000000
vt 0.00000000 0.00000000
vt 0.00000000 0.00000000
vt 0.00000000 0.00000000
vt 0.00000000 0.00000000
vt 0.00000000 0.00000000
vt 0.00000000 0.00000000
vt 0.00000000 0.00000000
vt 0.00000000 0.00000000
vt 0.00000000 0.00000000
vt 0.00000000 0.00000000
vt 0.00000000 0.00000000
vt 0.00000000 0.00000000
vt 0.00000000 0.00000000
vt 0.00000000 0.00000000
vt 0.00000000 0.00000000
vt 0.00000000 0.00000000
vt 0.00000000 0.00000000
vt 0.00000000 0.00000000
vt 0.00000000 0.00000000
vt 0.00000000 0.00000000
vt 0.00000000 0.00000000
vt 0.00000000 0.00000000
vt 0.00000000 0.00000000
vt 0.00000000 0.00000000
vt 0.00000000 0.00000000
vt 0.00000000 0.00000000
f 1/1 2/2 3/3
f 4/4 5/5 6/6
f 7/7 8/8 9/9
f 10/10 11/11 12/12
f 13/13 14/14 15/15
f 16/16 17/17 18/18
f 19/19 20/20 21/21
f 22/22 23/23 24/24
f 25/25 26/26 27/27
f 28/28 29/29 30/30
f 31/31 32/32 33/33
f 34/34 35/35 36/36

