# https://github.com/mikedh/trimesh
mtllib material.mtl
usemtl PaleWood
v 5.04178858 4.09481001 -0.02767843
v 5.33118916 3.75858235 -0.02767843
v 5.31754684 3.74684000 -0.02774922
v 5.04178858 4.09481001 -0.02767843
v 5.31754684 3.74684000 -0.02774922
v 5.02814627 4.08306742 -0.02774922
v 5.02536392 4.08067274 0.90577263
v 5.31476450 3.74444485 0.90577263
v 5.32840681 3.75618720 0.90584344
v 5.02536392 4.08067274 0.90577263
v 5.32840681 3.75618720 0.90584344
v 5.03900623 4.09241486 0.90584344
v 5.02814627 4.08306742 -0.02774922
v 5.31754684 3.74684000 -0.02774922
v 5.31476450 3.74444485 0.90577263
v 5.02814627 4.08306742 -0.02774922
v 5.31476450 3.74444485 0.90577263
v 5.02536392 4.08067274 0.90577263
v 5.31754684 3.74684000 -0.02774922
v 5.33118916 3.75858235 -0.02767843
v 5.32840681 3.75618720 0.90584344
v 5.31754684 3.74684000 -0.02774922
v 5.32840681 3.75618720 0.90584344
v 5.31476450 3.74444485 0.90577263
v 5.33118916 3.75858235 -0.02767843
v 5.04178858 4.09481001 -0.02767843
v 5.03900623 4.09241486 0.90584344
v 5.33118916 3.75858235 -0.02767843
v 5.03900623 4.09241486 0.90584344
v 5.32840681 3.75618720 0.90584344
v 5.04178858 4.09481001 -0.02767843
v 5.02814627 4.08306742 -0.02774922
v 5.02536392 4.08067274 0.90577263
v 5.04178858 4.09481001 -0.02767843
v 5.02536392 4.08067274 0.90577263
v 5.03900623 4.09241486 0.90584344
vt -0.49291500 0.01999998
vt 0.49291500 0.01999998
vt 0.49291500 -0.01999998
vt -0.49291500 0.01999998
vt 0.49291500 -0.01999998
vt -0.49291500 -0.01999998
vt -0.49291500 -0.01999998
vt 0.49291500 -0.01999998
vt 0.49291500 0.01999998
vt -0.49291500 -0.01999998
vt 0.49291500 0.01999998
vt -0.49291500 0.01999998
vt -0.49291500 -1.03725457
vt 0.49291500 -1.03725457
vt 0.49291500 1.03725457
vt -0.49291500 -1.03725457
vt 0.49291500 1.03725457
vt -0.49291500 1.03725457
vt -0.02000000 -1.03725457
vt 0.02000000 -1.03725457
vt 0.02000000 1.03725457
vt -0.02000000 -1.03725457
vt 0.02000000 1.03725457
vt -0.02000000 1.03725457
vt 0.49291500 -1.03725457
vt -0.49291500 -1.03725457
vt -0.49291500 1.03725457
vt 0.49291500 -1.03725457
vt -0.49291500 1.03725457
vt 0.49291500 1.03725457
vt 0.02000000 -1.03725457
vt -0.02000000 -1.03725457
vt -0.02000000 1.03725457
vt 0.02000000 -1.03725457
vt -0.02000000 1.03725457
vt 0.02000000 1.03725457
f 1/1 2/2 3/3
f 4/4 5/5 6/6
f 7/7 8/8 9/9
f 10/10 11/11 12/12
f 13/13 14/14 15/15
f 16/16 17/17 18/18
f 19/19 20/20 21/21
f 22/22 23/23 24/24
f 25/25 26/26 27/27
f 28/28 29/29 30/30
f 31/31 32/32 33/33
f 34/34 35/35 36/36

