# https://github.com/mikedh/trimesh
mtllib material.mtl
usemtl WarmWhitePaint
v 4.64369297 5.21178102 -1.23659742
v 8.68806934 0.52008832 -1.32306623
v 8.62746811 0.46785709 -1.32267201
v 4.64369297 5.21178102 -1.23659742
v 8.62746811 0.46785709 -1.32267201
v 4.58309221 5.15955019 -1.23620319
v 4.56926680 5.14763403 1.88523591
v 8.61325932 0.45561111 1.88523591
v 8.67385674 0.50783902 1.88570368
v 4.56926680 5.14763403 1.88523591
v 8.67385674 0.50783902 1.88570368
v 4.62986374 5.19986200 1.88570368
v 4.58309221 5.15955019 -1.23620319
v 8.62746811 0.46785709 -1.32267201
v 8.61325932 0.45561111 1.88523591
v 4.58309221 5.15955019 -1.23620319
v 8.61325932 0.45561111 1.88523591
v 4.56926680 5.14763403 1.88523591
v 8.62746811 0.46785709 -1.32267201
v 8.68806934 0.52008832 -1.32306623
v 8.67385674 0.50783902 1.88570368
v 8.62746811 0.46785709 -1.32267201
v 8.67385674 0.50783902 1.88570368
v 8.61325932 0.45561111 1.88523591
v 8.68806934 0.52008832 -1.32306623
v 4.64369297 5.21178102 -1.23659742
v 4.62986374 5.19986200 1.88570368
v 8.68806934 0.52008832 -1.32306623
v 4.62986374 5.19986200 1.88570368
v 8.67385674 0.50783902 1.88570368
v 4.64369297 5.21178102 -1.23659742
v 4.58309221 5.15955019 -1.23620319
v 4.56926680 5.14763403 1.88523591
v 4.64369297 5.21178102 -1.23659742
v 4.56926680 5.14763403 1.88523591
v 4.62986374 5.19986200 1.88570368
vt -6.88252020 0.08888888
vt 6.88252020 0.08888888
vt 6.88252020 -0.08888888
vt -6.88252020 0.08888888
vt 6.88252020 -0.08888888
vt -6.88252020 -0.08888888
vt -6.88252020 -0.08888888
vt 6.88252020 -0.08888888
vt 6.88252020 0.08888888
vt -6.88252020 -0.08888888
vt 6.88252020 0.08888888
vt -6.88252020 0.08888888
vt -6.88252020 -3.47599173
vt 6.88252020 -3.66814804
vt 6.88252020 3.46065807
vt -6.88252020 -3.47599173
vt 6.88252020 3.46065807
vt -6.88252020 3.46065807
vt -0.08888888 -3.66814804
vt 0.08888888 -3.67006350
vt 0.08888888 3.46065807
vt -0.08888888 -3.66814804
vt 0.08888888 3.46065807
vt -0.08888888 3.46065807
vt 6.88252020 -3.67006350
vt -6.88252020 -3.47790718
vt -6.88252020 3.46065807
vt 6.88252020 -3.67006350
vt -6.88252020 3.46065807
vt 6.88252020 3.46065807
vt 0.08888888 -3.47790718
vt -0.08888888 -3.47599173
vt -0.08888888 3.46065807
vt 0.08888888 -3.47790718
vt -0.08888888 3.46065807
vt 0.08888888 3.46065807
f 1/1 2/2 3/3
f 4/4 5/5 6/6
f 7/7 8/8 9/9
f 10/10 11/11 12/12
f 13/13 14/14 15/15
f 16/16 17/17 18/18
f 19/19 20/20 21/21
f 22/22 23/23 24/24
f 25/25 26/26 27/27
f 28/28 29/29 30/30
f 31/31 32/32 33/33
f 34/34 35/35 36/36

