# https://github.com/mikedh/trimesh
mtllib material.mtl
usemtl BlackRubber
v 0.06682469 1.04445565 0.10116250
v 0.06653035 1.04425132 0.10528836
v -0.04657239 1.17632556 0.10376027
v 0.06682469 1.04445565 0.10116250
v -0.04657239 1.17632556 0.10376027
v -0.04627804 1.17652988 0.09963442
v 0.06653035 1.04425132 0.10528836
v 0.06595956 1.04380977 0.10937033
v -0.04714318 1.17588401 0.10784224
v 0.06653035 1.04425132 0.10528836
v -0.04714318 1.17588401 0.10784224
v -0.04657239 1.17632556 0.10376027
v 0.06595956 1.04380977 0.10937033
v 0.06511790 1.04313529 0.11336986
v -0.04798484 1.17520952 0.11184178
v 0.06595956 1.04380977 0.10937033
v -0.04798484 1.17520952 0.11184178
v -0.04714318 1.17588401 0.10784224
v 0.06511790 1.04313529 0.11336986
v 0.06401356 1.04223442 0.11724913
v -0.04908917 1.17430878 0.11572105
v 0.06511790 1.04313529 0.11336986
v -0.04908917 1.17430878 0.11572105
v -0.04798484 1.17520952 0.11184178
v 0.06401356 1.04223442 0.11724913
v 0.06265725 1.04111600 0.12097140
v -0.05044549 1.17319036 0.11944331
v 0.06401356 1.04223442 0.11724913
v -0.05044549 1.17319036 0.11944331
v -0.04908917 1.17430878 0.11572105
v 0.06265725 1.04111600 0.12097140
v 0.06106209 1.03979087 0.12450132
v -0.05204065 1.17186511 0.12297323
v 0.06265725 1.04111600 0.12097140
v -0.05204065 1.17186511 0.12297323
v -0.05044549 1.17319036 0.11944331
v 0.06106209 1.03979087 0.12450132
v 0.05924348 1.03827167 0.12780526
v -0.05385926 1.17034602 0.12627718
v 0.06106209 1.03979087 0.12450132
v -0.05385926 1.17034602 0.12627718
v -0.05204065 1.17186511 0.12297323
v 0.05924348 1.03827167 0.12780526
v 0.05721897 1.03657317 0.13085166
v -0.05588377 1.16864753 0.12932357
v 0.05924348 1.03827167 0.12780526
v -0.05588377 1.16864753 0.12932357
v -0.05385926 1.17034602 0.12627718
v 0.05721897 1.03657317 0.13085166
v 0.05500805 1.03471184 0.13361123
v -0.05809468 1.16678607 0.13208315
v 0.05721897 1.03657317 0.13085166
v -0.05809468 1.16678607 0.13208315
v -0.05588377 1.16864753 0.12932357
v 0.05500805 1.03471184 0.13361123
v 0.05263202 1.03270543 0.13605733
v -0.06047071 1.16477966 0.13452925
v 0.05500805 1.03471184 0.13361123
v -0.06047071 1.16477966 0.13452925
v -0.05809468 1.16678607 0.13208315
v 0.05263202 1.03270543 0.13605733
v 0.05011373 1.03057325 0.13816617
v -0.06298900 1.16264749 0.13663809
v 0.05263202 1.03270543 0.13605733
v -0.06298900 1.16264749 0.13663809
v -0.06047071 1.16477966 0.13452925
v 0.05011373 1.03057325 0.13816617
v 0.04747739 1.02833581 0.13991706
v -0.06562535 1.16041017 0.13838898
v 0.05011373 1.03057325 0.13816617
v -0.06562535 1.16041017 0.13838898
v -0.06298900 1.16264749 0.13663809
v 0.04747739 1.02833581 0.13991706
v 0.04474833 1.02601469 0.14129266
v -0.06835441 1.15808904 0.13976458
v 0.04747739 1.02833581 0.13991706
v -0.06835441 1.15808904 0.13976458
v -0.06562535 1.16041017 0.13838898
v 0.04474833 1.02601469 0.14129266
v 0.04195276 1.02363205 0.14227907
v -0.07114998 1.15570641 0.14075099
v 0.04474833 1.02601469 0.14129266
v -0.07114998 1.15570641 0.14075099
v -0.06835441 1.15808904 0.13976458
v 0.04195276 1.02363205 0.14227907
v 0.03911752 1.02121091 0.14286612
v -0.07398521 1.15328526 0.14133804
v 0.04195276 1.02363205 0.14227907
v -0.07398521 1.15328526 0.14133804
v -0.07114998 1.15570641 0.14075099
v 0.03911752 1.02121091 0.14286612
v -0.14725041 0.86159855 0.14157695
v -0.26035315 0.99367285 0.14004886
v 0.03911752 1.02121091 0.14286612
v -0.26035315 0.99367285 0.14004886
v -0.07398521 1.15328526 0.14133804
v -0.14725041 0.86159855 0.14157695
v -0.15008421 0.85916907 0.14134133
v -0.26318696 0.99124336 0.13981324
v -0.14725041 0.86159855 0.14157695
v -0.26318696 0.99124336 0.13981324
v -0.26035315 0.99367285 0.14004886
v -0.15008421 0.85916907 0.14134133
v -0.15287793 0.85676903 0.14068174
v -0.26598066 0.98884332 0.13915366
v -0.15008421 0.85916907 0.14134133
v -0.26598066 0.98884332 0.13915366
v -0.26318696 0.99124336 0.13981324
v -0.15287793 0.85676903 0.14068174
v -0.15560472 0.85442150 0.13960376
v -0.26870745 0.98649579 0.13807568
v -0.15287793 0.85676903 0.14068174
v -0.26870745 0.98649579 0.13807568
v -0.26598066 0.98884332 0.13915366
v -0.15560472 0.85442150 0.13960376
v -0.15823843 0.85214889 0.13811709
v -0.27134115 0.98422319 0.13658901
v -0.15560472 0.85442150 0.13960376
v -0.27134115 0.98422319 0.13658901
v -0.26870745 0.98649579 0.13807568
v -0.15823843 0.85214889 0.13811709
v -0.16075374 0.84997308 0.13623543
v -0.27385649 0.98204738 0.13470735
v -0.15823843 0.85214889 0.13811709
v -0.27385649 0.98204738 0.13470735
v -0.27134115 0.98422319 0.13658901
v -0.16075374 0.84997308 0.13623543
v -0.16312651 0.84791499 0.13397638
v -0.27622926 0.97998929 0.13244830
v -0.16075374 0.84997308 0.13623543
v -0.27622926 0.97998929 0.13244830
v -0.27385649 0.98204738 0.13470735
v -0.16312651 0.84791499 0.13397638
v -0.16533393 0.84599441 0.13136135
v -0.27843666 0.97806871 0.12983327
v -0.16312651 0.84791499 0.13397638
v -0.27843666 0.97806871 0.12983327
v -0.27622926 0.97998929 0.13244830
v -0.16533393 0.84599441 0.13136135
v -0.16735476 0.84422982 0.12841529
v -0.28045750 0.97630411 0.12688720
v -0.16533393 0.84599441 0.13136135
v -0.28045750 0.97630411 0.12688720
v -0.27843666 0.97806871 0.12983327
v -0.16735476 0.84422982 0.12841529
v -0.16916955 0.84263808 0.12516646
v -0.28227228 0.97471237 0.12363838
v -0.16735476 0.84422982 0.12841529
v -0.28227228 0.97471237 0.12363838
v -0.28045750 0.97630411 0.12688720
v -0.16916955 0.84263808 0.12516646
v -0.17076081 0.84123468 0.12164626
v -0.28386354 0.97330898 0.12011817
v -0.16916955 0.84263808 0.12516646
v -0.28386354 0.97330898 0.12011817
v -0.28227228 0.97471237 0.12363838
v -0.17076081 0.84123468 0.12164626
v -0.17211318 0.84003311 0.11788881
v -0.28521591 0.97210741 0.11636072
v -0.17076081 0.84123468 0.12164626
v -0.28521591 0.97210741 0.11636072
v -0.28386354 0.97330898 0.12011817
v -0.17211318 0.84003311 0.11788881
v -0.17321362 0.83904493 0.11393067
v -0.28631637 0.97111923 0.11240259
v -0.17211318 0.84003311 0.11788881
v -0.28631637 0.97111923 0.11240259
v -0.28521591 0.97210741 0.11636072
v -0.17321362 0.83904493 0.11393067
v -0.17405145 0.83827978 0.10981047
v -0.28715420 0.97035408 0.10828239
v -0.17321362 0.83904493 0.11393067
v -0.28715420 0.97035408 0.10828239
v -0.28631637 0.97111923 0.11240259
v -0.17405145 0.83827978 0.10981047
v -0.17461854 0.83774507 0.10556849
v -0.28772128 0.96981937 0.10404041
v -0.17405145 0.83827978 0.10981047
v -0.28772128 0.96981937 0.10404041
v -0.28715420 0.97035408 0.10828239
v -0.17461854 0.83774507 0.10556849
v -0.17490934 0.83744603 0.10124630
v -0.28801209 0.96952033 0.09971821
v -0.17461854 0.83774507 0.10556849
v -0.28801209 0.96952033 0.09971821
v -0.28772128 0.96981937 0.10404041
v -0.17490934 0.83744603 0.10124630
v -0.16664758 0.84121287 -0.18468431
v -0.27975032 0.97328717 -0.18621239
v -0.17490934 0.83744603 0.10124630
v -0.27975032 0.97328717 -0.18621239
v -0.28801209 0.96952033 0.09971821
v -0.16664758 0.84121287 -0.18468431
v -0.16637884 0.84139270 -0.18903083
v -0.27948159 0.97346699 -0.19055891
v -0.16664758 0.84121287 -0.18468431
v -0.27948159 0.97346699 -0.19055891
v -0.27975032 0.97328717 -0.18621239
v -0.16637884 0.84139270 -0.18903083
v -0.16583124 0.84181207 -0.19331263
v -0.27893397 0.97388637 -0.19484071
v -0.16637884 0.84139270 -0.18903083
v -0.27893397 0.97388637 -0.19484071
v -0.27948159 0.97346699 -0.19055891
v -0.16583124 0.84181207 -0.19331263
v -0.16500995 0.84246713 -0.19748770
v -0.27811268 0.97454143 -0.19901578
v -0.16583124 0.84181207 -0.19331263
v -0.27811268 0.97454143 -0.19901578
v -0.27893397 0.97388637 -0.19484071
v -0.16500995 0.84246713 -0.19748770
v -0.16392280 0.84335148 -0.20151514
v -0.27702552 0.97542578 -0.20304322
v -0.16500995 0.84246713 -0.19748770
v -0.27702552 0.97542578 -0.20304322
v -0.27811268 0.97454143 -0.19901578
v -0.16392280 0.84335148 -0.20151514
v -0.16258019 0.84445679 -0.20535555
v -0.27568293 0.97653109 -0.20688364
v -0.16392280 0.84335148 -0.20151514
v -0.27568293 0.97653109 -0.20688364
v -0.27702552 0.97542578 -0.20304322
v -0.16258019 0.84445679 -0.20535555
v -0.16099501 0.84577245 -0.20897144
v -0.27409774 0.97784674 -0.21049953
v -0.16258019 0.84445679 -0.20535555
v -0.27409774 0.97784674 -0.21049953
v -0.27568293 0.97653109 -0.20688364
v -0.16099501 0.84577245 -0.20897144
v -0.15918246 0.84728581 -0.21232761
v -0.27228519 0.97936010 -0.21385570
v -0.16099501 0.84577245 -0.20897144
v -0.27228519 0.97936010 -0.21385570
v -0.27409774 0.97784674 -0.21049953
v -0.15918246 0.84728581 -0.21232761
v -0.15715997 0.84898233 -0.21539153
v -0.27026272 0.98105663 -0.21691962
v -0.15918246 0.84728581 -0.21232761
v -0.27026272 0.98105663 -0.21691962
v -0.27228519 0.97936010 -0.21385570
v -0.15715997 0.84898233 -0.21539153
v -0.15494703 0.85084569 -0.21813358
v -0.26804975 0.98291999 -0.21966167
v -0.15715997 0.84898233 -0.21539153
v -0.26804975 0.98291999 -0.21966167
v -0.27026272 0.98105663 -0.21691962
v -0.15494703 0.85084569 -0.21813358
v -0.15256494 0.85285789 -0.22052746
v -0.26566768 0.98493218 -0.22205554
v -0.15494703 0.85084569 -0.21813358
v -0.26566768 0.98493218 -0.22205554
v -0.26804975 0.98291999 -0.21966167
v -0.15256494 0.85285789 -0.22052746
v -0.15003668 0.85499960 -0.22255032
v -0.26313940 0.98707390 -0.22407840
v -0.15256494 0.85285789 -0.22052746
v -0.26313940 0.98707390 -0.22407840
v -0.26566768 0.98493218 -0.22205554
v -0.15003668 0.85499960 -0.22255032
v -0.14738663 0.85725009 -0.22418308
v -0.26048937 0.98932439 -0.22571117
v -0.15003668 0.85499960 -0.22255032
v -0.26048937 0.98932439 -0.22571117
v -0.26313940 0.98707390 -0.22407840
v -0.14738663 0.85725009 -0.22418308
v -0.14464037 0.85958767 -0.22541049
v -0.25774312 0.99166197 -0.22693858
v -0.14738663 0.85725009 -0.22418308
v -0.25774312 0.99166197 -0.22693858
v -0.26048937 0.98932439 -0.22571117
v -0.14464037 0.85958767 -0.22541049
v -0.14182444 0.86198974 -0.22622137
v -0.25492716 0.99406403 -0.22774945
v -0.14464037 0.85958767 -0.22541049
v -0.25492716 0.99406403 -0.22774945
v -0.25774312 0.99166197 -0.22693858
v -0.14182444 0.86198974 -0.22622137
v -0.13896601 0.86443311 -0.22660859
v -0.25206876 0.99650741 -0.22813667
v -0.14182444 0.86198974 -0.22622137
v -0.25206876 0.99650741 -0.22813667
v -0.25492716 0.99406403 -0.22774945
v -0.13896601 0.86443311 -0.22660859
v 0.04914797 1.02571487 -0.21026959
v -0.06395476 1.15778923 -0.21179767
v -0.13896601 0.86443311 -0.22660859
v -0.06395476 1.15778923 -0.21179767
v -0.25206876 0.99650741 -0.22813667
v 0.04914797 1.02571487 -0.21026959
v 0.05200737 1.02816880 -0.20981330
v -0.06109536 1.16024315 -0.21134138
v 0.04914797 1.02571487 -0.21026959
v -0.06109536 1.16024315 -0.21134138
v -0.06395476 1.15778923 -0.21179767
v 0.05200737 1.02816880 -0.20981330
v 0.05482426 1.03059101 -0.20895389
v -0.05827848 1.16266537 -0.21048197
v 0.05200737 1.02816880 -0.20981330
v -0.05827848 1.16266537 -0.21048197
v -0.06109536 1.16024315 -0.21134138
v 0.05482426 1.03059101 -0.20895389
v 0.05757142 1.03295815 -0.20770037
v -0.05553132 1.16503239 -0.20922846
v 0.05482426 1.03059101 -0.20895389
v -0.05553132 1.16503239 -0.20922846
v -0.05827848 1.16266537 -0.21048197
v 0.05757142 1.03295815 -0.20770037
v 0.06022231 1.03524709 -0.20606552
v -0.05288042 1.16732144 -0.20759360
v 0.05757142 1.03295815 -0.20770037
v -0.05288042 1.16732144 -0.20759360
v -0.05553132 1.16503239 -0.20922846
v 0.06022231 1.03524709 -0.20606552
v 0.06275134 1.03743601 -0.20406573
v -0.05035140 1.16951036 -0.20559381
v 0.06022231 1.03524709 -0.20606552
v -0.05035140 1.16951036 -0.20559381
v -0.05288042 1.16732144 -0.20759360
v 0.06275134 1.03743601 -0.20406573
v 0.06513409 1.03950357 -0.20172070
v -0.04796865 1.17157793 -0.20324878
v 0.06275134 1.03743601 -0.20406573
v -0.04796865 1.17157793 -0.20324878
v -0.05035140 1.16951036 -0.20559381
v 0.06513409 1.03950357 -0.20172070
v 0.06734756 1.04143000 -0.19905344
v -0.04575517 1.17350435 -0.20058152
v 0.06513409 1.03950357 -0.20172070
v -0.04575517 1.17350435 -0.20058152
v -0.04796865 1.17157793 -0.20324878
v 0.06734756 1.04143000 -0.19905344
v 0.06937042 1.04319656 -0.19608985
v -0.04373232 1.17527092 -0.19761793
v 0.06734756 1.04143000 -0.19905344
v -0.04373232 1.17527092 -0.19761793
v -0.04575517 1.17350435 -0.20058152
v 0.06937042 1.04319656 -0.19608985
v 0.07118317 1.04478633 -0.19285855
v -0.04191956 1.17686069 -0.19438663
v 0.06937042 1.04319656 -0.19608985
v -0.04191956 1.17686069 -0.19438663
v -0.04373232 1.17527092 -0.19761793
v 0.07118317 1.04478633 -0.19285855
v 0.07276838 1.04618394 -0.18939057
v -0.04033436 1.17825830 -0.19091865
v 0.07118317 1.04478633 -0.19285855
v -0.04033436 1.17825830 -0.19091865
v -0.04191956 1.17686069 -0.19438663
v 0.07276838 1.04618394 -0.18939057
v 0.07411078 1.04737604 -0.18571910
v -0.03899195 1.17945027 -0.18724719
v 0.07276838 1.04618394 -0.18939057
v -0.03899195 1.17945027 -0.18724719
v -0.04033436 1.17825830 -0.19091865
v 0.07411078 1.04737604 -0.18571910
v 0.07519751 1.04835105 -0.18187910
v -0.03790522 1.18042541 -0.18340719
v 0.07411078 1.04737604 -0.18571910
v -0.03790522 1.18042541 -0.18340719
v -0.03899195 1.17945027 -0.18724719
v 0.07519751 1.04835105 -0.18187910
v 0.07601815 1.04909980 -0.17790706
v -0.03708458 1.18117404 -0.17943515
v 0.07519751 1.04835105 -0.18187910
v -0.03708458 1.18117404 -0.17943515
v -0.03790522 1.18042541 -0.18340719
v 0.07601815 1.04909980 -0.17790706
v 0.07656487 1.04961503 -0.17384064
v -0.03653786 1.18168938 -0.17536873
v 0.07601815 1.04909980 -0.17790706
v -0.03653786 1.18168938 -0.17536873
v -0.03708458 1.18117404 -0.17943515
v 0.07656487 1.04961503 -0.17384064
v 0.07683250 1.04989195 -0.16971827
v -0.03627024 1.18196619 -0.17124635
v 0.07656487 1.04961503 -0.17384064
v -0.03627024 1.18196619 -0.17124635
v -0.03653786 1.18168938 -0.17536873
v 0.07683250 1.04989195 -0.16971827
v 0.06682469 1.04445565 0.10116250
v -0.04627804 1.17652988 0.09963442
v 0.07683250 1.04989195 -0.16971827
v -0.04627804 1.17652988 0.09963442
v -0.03627024 1.18196619 -0.17124635
v 0.07683250 1.04989195 -0.16971827
v 0.07656487 1.04961503 -0.17384064
v 0.07601815 1.04909980 -0.17790706
v 0.07683250 1.04989195 -0.16971827
v 0.07601815 1.04909980 -0.17790706
v 0.07519751 1.04835105 -0.18187910
v 0.07683250 1.04989195 -0.16971827
v 0.07519751 1.04835105 -0.18187910
v 0.07411078 1.04737604 -0.18571910
v 0.07683250 1.04989195 -0.16971827
v 0.07411078 1.04737604 -0.18571910
v 0.07276838 1.04618394 -0.18939057
v 0.07683250 1.04989195 -0.16971827
v 0.07276838 1.04618394 -0.18939057
v 0.07118317 1.04478633 -0.19285855
v 0.07683250 1.04989195 -0.16971827
v 0.07118317 1.04478633 -0.19285855
v 0.06937042 1.04319656 -0.19608985
v 0.07683250 1.04989195 -0.16971827
v 0.06937042 1.04319656 -0.19608985
v 0.06734756 1.04143000 -0.19905344
v 0.07683250 1.04989195 -0.16971827
v 0.06734756 1.04143000 -0.19905344
v 0.06513409 1.03950357 -0.20172070
v 0.07683250 1.04989195 -0.16971827
v 0.06513409 1.03950357 -0.20172070
v 0.06275134 1.03743601 -0.20406573
v 0.07683250 1.04989195 -0.16971827
v 0.06275134 1.03743601 -0.20406573
v 0.06022231 1.03524709 -0.20606552
v 0.07683250 1.04989195 -0.16971827
v 0.06022231 1.03524709 -0.20606552
v 0.05757142 1.03295815 -0.20770037
v 0.07683250 1.04989195 -0.16971827
v 0.05757142 1.03295815 -0.20770037
v 0.05482426 1.03059101 -0.20895389
v 0.07683250 1.04989195 -0.16971827
v 0.05482426 1.03059101 -0.20895389
v 0.05200737 1.02816880 -0.20981330
v 0.07683250 1.04989195 -0.16971827
v 0.05200737 1.02816880 -0.20981330
v 0.04914797 1.02571487 -0.21026959
v 0.07683250 1.04989195 -0.16971827
v 0.04914797 1.02571487 -0.21026959
v -0.13896601 0.86443311 -0.22660859
v 0.07683250 1.04989195 -0.16971827
v -0.13896601 0.86443311 -0.22660859
v -0.14182444 0.86198974 -0.22622137
v 0.07683250 1.04989195 -0.16971827
v -0.14182444 0.86198974 -0.22622137
v -0.14464037 0.85958767 -0.22541049
v 0.07683250 1.04989195 -0.16971827
v -0.14464037 0.85958767 -0.22541049
v -0.14738663 0.85725009 -0.22418308
v 0.07683250 1.04989195 -0.16971827
v -0.14738663 0.85725009 -0.22418308
v -0.15003668 0.85499960 -0.22255032
v 0.07683250 1.04989195 -0.16971827
v -0.15003668 0.85499960 -0.22255032
v -0.15256494 0.85285789 -0.22052746
v 0.07683250 1.04989195 -0.16971827
v -0.15256494 0.85285789 -0.22052746
v -0.15494703 0.85084569 -0.21813358
v 0.07683250 1.04989195 -0.16971827
v -0.15494703 0.85084569 -0.21813358
v -0.15715997 0.84898233 -0.21539153
v 0.07683250 1.04989195 -0.16971827
v -0.15715997 0.84898233 -0.21539153
v -0.15918246 0.84728581 -0.21232761
v 0.07683250 1.04989195 -0.16971827
v -0.15918246 0.84728581 -0.21232761
v -0.16099501 0.84577245 -0.20897144
v 0.07683250 1.04989195 -0.16971827
v -0.16099501 0.84577245 -0.20897144
v -0.16258019 0.84445679 -0.20535555
v 0.07683250 1.04989195 -0.16971827
v -0.16258019 0.84445679 -0.20535555
v -0.16392280 0.84335148 -0.20151514
v 0.07683250 1.04989195 -0.16971827
v -0.16392280 0.84335148 -0.20151514
v -0.16500995 0.84246713 -0.19748770
v 0.07683250 1.04989195 -0.16971827
v -0.16500995 0.84246713 -0.19748770
v -0.16583124 0.84181207 -0.19331263
v 0.07683250 1.04989195 -0.16971827
v -0.16583124 0.84181207 -0.19331263
v -0.16637884 0.84139270 -0.18903083
v 0.07683250 1.04989195 -0.16971827
v -0.16637884 0.84139270 -0.18903083
v -0.16664758 0.84121287 -0.18468431
v 0.07683250 1.04989195 -0.16971827
v -0.16664758 0.84121287 -0.18468431
v -0.17490934 0.83744603 0.10124630
v 0.07683250 1.04989195 -0.16971827
v -0.17490934 0.83744603 0.10124630
v -0.17461854 0.83774507 0.10556849
v 0.07683250 1.04989195 -0.16971827
v -0.17461854 0.83774507 0.10556849
v -0.17405145 0.83827978 0.10981047
v 0.07683250 1.04989195 -0.16971827
v -0.17405145 0.83827978 0.10981047
v -0.17321362 0.83904493 0.11393067
v 0.07683250 1.04989195 -0.16971827
v -0.17321362 0.83904493 0.11393067
v -0.17211318 0.84003311 0.11788881
v 0.07683250 1.04989195 -0.16971827
v -0.17211318 0.84003311 0.11788881
v -0.17076081 0.84123468 0.12164626
v 0.07683250 1.04989195 -0.16971827
v -0.17076081 0.84123468 0.12164626
v -0.16916955 0.84263808 0.12516646
v 0.07683250 1.04989195 -0.16971827
v -0.16916955 0.84263808 0.12516646
v -0.16735476 0.84422982 0.12841529
v 0.07683250 1.04989195 -0.16971827
v -0.16735476 0.84422982 0.12841529
v -0.16533393 0.84599441 0.13136135
v 0.07683250 1.04989195 -0.16971827
v -0.16533393 0.84599441 0.13136135
v -0.16312651 0.84791499 0.13397638
v 0.07683250 1.04989195 -0.16971827
v -0.16312651 0.84791499 0.13397638
v -0.16075374 0.84997308 0.13623543
v 0.07683250 1.04989195 -0.16971827
v -0.16075374 0.84997308 0.13623543
v -0.15823843 0.85214889 0.13811709
v 0.07683250 1.04989195 -0.16971827
v -0.15823843 0.85214889 0.13811709
v -0.15560472 0.85442150 0.13960376
v 0.07683250 1.04989195 -0.16971827
v -0.15560472 0.85442150 0.13960376
v -0.15287793 0.85676903 0.14068174
v 0.07683250 1.04989195 -0.16971827
v -0.15287793 0.85676903 0.14068174
v -0.15008421 0.85916907 0.14134133
v 0.07683250 1.04989195 -0.16971827
v -0.15008421 0.85916907 0.14134133
v -0.14725041 0.86159855 0.14157695
v 0.07683250 1.04989195 -0.16971827
v -0.14725041 0.86159855 0.14157695
v 0.03911752 1.02121091 0.14286612
v 0.07683250 1.04989195 -0.16971827
v 0.03911752 1.02121091 0.14286612
v 0.04195276 1.02363205 0.14227907
v 0.07683250 1.04989195 -0.16971827
v 0.04195276 1.02363205 0.14227907
v 0.04474833 1.02601469 0.14129266
v 0.07683250 1.04989195 -0.16971827
v 0.04474833 1.02601469 0.14129266
v 0.04747739 1.02833581 0.13991706
v 0.07683250 1.04989195 -0.16971827
v 0.04747739 1.02833581 0.13991706
v 0.05011373 1.03057325 0.13816617
v 0.07683250 1.04989195 -0.16971827
v 0.05011373 1.03057325 0.13816617
v 0.05263202 1.03270543 0.13605733
v 0.07683250 1.04989195 -0.16971827
v 0.05263202 1.03270543 0.13605733
v 0.05500805 1.03471184 0.13361123
v 0.07683250 1.04989195 -0.16971827
v 0.05500805 1.03471184 0.13361123
v 0.05721897 1.03657317 0.13085166
v 0.07683250 1.04989195 -0.16971827
v 0.05721897 1.03657317 0.13085166
v 0.05924348 1.03827167 0.12780526
v 0.07683250 1.04989195 -0.16971827
v 0.05924348 1.03827167 0.12780526
v 0.06106209 1.03979087 0.12450132
v 0.07683250 1.04989195 -0.16971827
v 0.06106209 1.03979087 0.12450132
v 0.06265725 1.04111600 0.12097140
v 0.07683250 1.04989195 -0.16971827
v 0.06265725 1.04111600 0.12097140
v 0.06401356 1.04223442 0.11724913
v 0.07683250 1.04989195 -0.16971827
v 0.06401356 1.04223442 0.11724913
v 0.06511790 1.04313529 0.11336986
v 0.07683250 1.04989195 -0.16971827
v 0.06511790 1.04313529 0.11336986
v 0.06595956 1.04380977 0.10937033
v 0.07683250 1.04989195 -0.16971827
v 0.06595956 1.04380977 0.10937033
v 0.06653035 1.04425132 0.10528836
v 0.07683250 1.04989195 -0.16971827
v 0.06653035 1.04425132 0.10528836
v 0.06682469 1.04445565 0.10116250
v -0.04627804 1.17652988 0.09963442
v -0.04657239 1.17632556 0.10376027
v -0.04714318 1.17588401 0.10784224
v -0.04627804 1.17652988 0.09963442
v -0.04714318 1.17588401 0.10784224
v -0.04798484 1.17520952 0.11184178
v -0.04627804 1.17652988 0.09963442
v -0.04798484 1.17520952 0.11184178
v -0.04908917 1.17430878 0.11572105
v -0.04627804 1.17652988 0.09963442
v -0.04908917 1.17430878 0.11572105
v -0.05044549 1.17319036 0.11944331
v -0.04627804 1.17652988 0.09963442
v -0.05044549 1.17319036 0.11944331
v -0.05204065 1.17186511 0.12297323
v -0.04627804 1.17652988 0.09963442
v -0.05204065 1.17186511 0.12297323
v -0.05385926 1.17034602 0.12627718
v -0.04627804 1.17652988 0.09963442
v -0.05385926 1.17034602 0.12627718
v -0.05588377 1.16864753 0.12932357
v -0.04627804 1.17652988 0.09963442
v -0.05588377 1.16864753 0.12932357
v -0.05809468 1.16678607 0.13208315
v -0.04627804 1.17652988 0.09963442
v -0.05809468 1.16678607 0.13208315
v -0.06047071 1.16477966 0.13452925
v -0.04627804 1.17652988 0.09963442
v -0.06047071 1.16477966 0.13452925
v -0.06298900 1.16264749 0.13663809
v -0.04627804 1.17652988 0.09963442
v -0.06298900 1.16264749 0.13663809
v -0.06562535 1.16041017 0.13838898
v -0.04627804 1.17652988 0.09963442
v -0.06562535 1.16041017 0.13838898
v -0.06835441 1.15808904 0.13976458
v -0.04627804 1.17652988 0.09963442
v -0.06835441 1.15808904 0.13976458
v -0.07114998 1.15570641 0.14075099
v -0.04627804 1.17652988 0.09963442
v -0.07114998 1.15570641 0.14075099
v -0.07398521 1.15328526 0.14133804
v -0.04627804 1.17652988 0.09963442
v -0.07398521 1.15328526 0.14133804
v -0.26035315 0.99367285 0.14004886
v -0.04627804 1.17652988 0.09963442
v -0.26035315 0.99367285 0.14004886
v -0.26318696 0.99124336 0.13981324
v -0.04627804 1.17652988 0.09963442
v -0.26318696 0.99124336 0.13981324
v -0.26598066 0.98884332 0.13915366
v -0.04627804 1.17652988 0.09963442
v -0.26598066 0.98884332 0.13915366
v -0.26870745 0.98649579 0.13807568
v -0.04627804 1.17652988 0.09963442
v -0.26870745 0.98649579 0.13807568
v -0.27134115 0.98422319 0.13658901
v -0.04627804 1.17652988 0.09963442
v -0.27134115 0.98422319 0.13658901
v -0.27385649 0.98204738 0.13470735
v -0.04627804 1.17652988 0.09963442
v -0.27385649 0.98204738 0.13470735
v -0.27622926 0.97998929 0.13244830
v -0.04627804 1.17652988 0.09963442
v -0.27622926 0.97998929 0.13244830
v -0.27843666 0.97806871 0.12983327
v -0.04627804 1.17652988 0.09963442
v -0.27843666 0.97806871 0.12983327
v -0.28045750 0.97630411 0.12688720
v -0.04627804 1.17652988 0.09963442
v -0.28045750 0.97630411 0.12688720
v -0.28227228 0.97471237 0.12363838
v -0.04627804 1.17652988 0.09963442
v -0.28227228 0.97471237 0.12363838
v -0.28386354 0.97330898 0.12011817
v -0.04627804 1.17652988 0.09963442
v -0.28386354 0.97330898 0.12011817
v -0.28521591 0.97210741 0.11636072
v -0.04627804 1.17652988 0.09963442
v -0.28521591 0.97210741 0.11636072
v -0.28631637 0.97111923 0.11240259
v -0.04627804 1.17652988 0.09963442
v -0.28631637 0.97111923 0.11240259
v -0.28715420 0.97035408 0.10828239
v -0.04627804 1.17652988 0.09963442
v -0.28715420 0.97035408 0.10828239
v -0.28772128 0.96981937 0.10404041
v -0.04627804 1.17652988 0.09963442
v -0.28772128 0.96981937 0.10404041
v -0.28801209 0.96952033 0.09971821
v -0.04627804 1.17652988 0.09963442
v -0.28801209 0.96952033 0.09971821
v -0.27975032 0.97328717 -0.18621239
v -0.04627804 1.17652988 0.09963442
v -0.27975032 0.97328717 -0.18621239
v -0.27948159 0.97346699 -0.19055891
v -0.04627804 1.17652988 0.09963442
v -0.27948159 0.97346699 -0.19055891
v -0.27893397 0.97388637 -0.19484071
v -0.04627804 1.17652988 0.09963442
v -0.27893397 0.97388637 -0.19484071
v -0.27811268 0.97454143 -0.19901578
v -0.04627804 1.17652988 0.09963442
v -0.27811268 0.97454143 -0.19901578
v -0.27702552 0.97542578 -0.20304322
v -0.04627804 1.17652988 0.09963442
v -0.27702552 0.97542578 -0.20304322
v -0.27568293 0.97653109 -0.20688364
v -0.04627804 1.17652988 0.09963442
v -0.27568293 0.97653109 -0.20688364
v -0.27409774 0.97784674 -0.21049953
v -0.04627804 1.17652988 0.09963442
v -0.27409774 0.97784674 -0.21049953
v -0.27228519 0.97936010 -0.21385570
v -0.04627804 1.17652988 0.09963442
v -0.27228519 0.97936010 -0.21385570
v -0.27026272 0.98105663 -0.21691962
v -0.04627804 1.17652988 0.09963442
v -0.27026272 0.98105663 -0.21691962
v -0.26804975 0.98291999 -0.21966167
v -0.04627804 1.17652988 0.09963442
v -0.26804975 0.98291999 -0.21966167
v -0.26566768 0.98493218 -0.22205554
v -0.04627804 1.17652988 0.09963442
v -0.26566768 0.98493218 -0.22205554
v -0.26313940 0.98707390 -0.22407840
v -0.04627804 1.17652988 0.09963442
v -0.26313940 0.98707390 -0.22407840
v -0.26048937 0.98932439 -0.22571117
v -0.04627804 1.17652988 0.09963442
v -0.26048937 0.98932439 -0.22571117
v -0.25774312 0.99166197 -0.22693858
v -0.04627804 1.17652988 0.09963442
v -0.25774312 0.99166197 -0.22693858
v -0.25492716 0.99406403 -0.22774945
v -0.04627804 1.17652988 0.09963442
v -0.25492716 0.99406403 -0.22774945
v -0.25206876 0.99650741 -0.22813667
v -0.04627804 1.17652988 0.09963442
v -0.25206876 0.99650741 -0.22813667
v -0.06395476 1.15778923 -0.21179767
v -0.04627804 1.17652988 0.09963442
v -0.06395476 1.15778923 -0.21179767
v -0.06109536 1.16024315 -0.21134138
v -0.04627804 1.17652988 0.09963442
v -0.06109536 1.16024315 -0.21134138
v -0.05827848 1.16266537 -0.21048197
v -0.04627804 1.17652988 0.09963442
v -0.05827848 1.16266537 -0.21048197
v -0.05553132 1.16503239 -0.20922846
v -0.04627804 1.17652988 0.09963442
v -0.05553132 1.16503239 -0.20922846
v -0.05288042 1.16732144 -0.20759360
v -0.04627804 1.17652988 0.09963442
v -0.05288042 1.16732144 -0.20759360
v -0.05035140 1.16951036 -0.20559381
v -0.04627804 1.17652988 0.09963442
v -0.05035140 1.16951036 -0.20559381
v -0.04796865 1.17157793 -0.20324878
v -0.04627804 1.17652988 0.09963442
v -0.04796865 1.17157793 -0.20324878
v -0.04575517 1.17350435 -0.20058152
v -0.04627804 1.17652988 0.09963442
v -0.04575517 1.17350435 -0.20058152
v -0.04373232 1.17527092 -0.19761793
v -0.04627804 1.17652988 0.09963442
v -0.04373232 1.17527092 -0.19761793
v -0.04191956 1.17686069 -0.19438663
v -0.04627804 1.17652988 0.09963442
v -0.04191956 1.17686069 -0.19438663
v -0.04033436 1.17825830 -0.19091865
v -0.04627804 1.17652988 0.09963442
v -0.04033436 1.17825830 -0.19091865
v -0.03899195 1.17945027 -0.18724719
v -0.04627804 1.17652988 0.09963442
v -0.03899195 1.17945027 -0.18724719
v -0.03790522 1.18042541 -0.18340719
v -0.04627804 1.17652988 0.09963442
v -0.03790522 1.18042541 -0.18340719
v -0.03708458 1.18117404 -0.17943515
v -0.04627804 1.17652988 0.09963442
v -0.03708458 1.18117404 -0.17943515
v -0.03653786 1.18168938 -0.17536873
v -0.04627804 1.17652988 0.09963442
v -0.03653786 1.18168938 -0.17536873
v -0.03627024 1.18196619 -0.17124635
vt 0.00000000 0.00000000
vt 0.00000000 0.00000000
vt 0.00000000 0.00000000
vt 0.00000000 0.00000000
vt 0.00000000 0.00000000
vt 0.00000000 0.00000000
vt 0.00000000 0.00000000
vt 0.00000000 0.00000000
vt 0.00000000 0.00000000
vt 0.00000000 0.00000000
vt 0.00000000 0.00000000
vt 0.00000000 0.00000000
vt 0.00000000 0.00000000
vt 0.00000000 0.00000000
vt 0.00000000 0.00000000
vt 0.00000000 0.00000000
vt 0.00000000 0.00000000
vt 0.00000000 0.00000000
vt 0.00000000 0.00000000
vt 0.00000000 0.00000000
vt 0.00000000 0.00000000
vt 0.00000000 0.00000000
vt 0.00000000 0.00000000
vt 0.00000000 0.00000000
vt 0.00000000 0.00000000
vt 0.00000000 0.00000000
vt 0.00000000 0.00000000
vt 0.00000000 0.00000000
vt 0.00000000 0.00000000
vt 0.00000000 0.00000000
vt 0.00000000 0.00000000
vt 0.00000000 0.00000000
vt 0.00000000 0.00000000
vt 0.00000000 0.00000000
vt 0.00000000 0.00000000
vt 0.00000000 0.00000000
vt 0.00000000 0.00000000
vt 0.00000000 0.00000000
vt 0.00000000 0.00000000
vt 0.00000000 0.00000000
vt 0.00000000 0.00000000
vt 0.00000000 0.00000000
vt 0.00000000 0.00000000
vt 0.00000000 0.00000000
vt 0.00000000 0.00000000
vt 0.00000000 0.00000000
vt 0.00000000 0.00000000
vt 0.00000000 0.00000000
vt 0.00000000 0.00000000
vt 0.00000000 0.00000000
vt 0.00000000 0.00000000
vt 0.00000000 0.00000000
vt 0.00000000 0.00000000
vt 0.00000000 0.00000000
vt 0.00000000 0.00000000
vt 0.00000000 0.00000000
vt 0.00000000 0.00000000
vt 0.00000000 0.00000000
vt 0.00000000 0.00000000
vt 0.00000000 0.00000000
vt 0.00000000 0.00000000
vt 0.00000000 0.00000000
vt 0.00000000 0.00000000
vt 0.00000000 0.00000000
vt 0.00000000 0.00000000
vt 0.00000000 0.00000000
vt 0.00000000 0.00000000
vt 0.00000000 0.00000000
vt 0.00000000 0.00000000
vt 0.00000000 0.00000000
vt 0.00000000 0.00000000
vt 0.00000000 0.00000000
vt 0.00000000 0.00000000
vt 0.00000000 0.00000000
vt 0.00000000 0.00000000
vt 0.00000000 0.00000000
vt 0.00000000 0.00000000
vt 0.00000000 0.00000000
vt 0.00000000 0.00000000
vt 0.00000000 0.00000000
vt 0.00000000 0.00000000
vt 0.00000000 0.00000000
vt 0.00000000 0.00000000
vt 0.00000000 0.00000000
vt 0.00000000 0.00000000
vt 0.00000000 0.00000000
vt 0.00000000 0.00000000
vt 0.00000000 0.00000000
vt 0.00000000 0.00000000
vt 0.00000000 0.00000000
vt 0.00000000 0.00000000
vt 0.00000000 0.00000000
vt 0.00000000 0.00000000
vt 0.00000000 0.00000000
vt 0.00000000 0.00000000
vt 0.00000000 0.00000000
vt 0.00000000 0.00000000
vt 0.00000000 0.00000000
vt 0.00000000 0.00000000
vt 0.00000000 0.00000000
vt 0.00000000 0.00000000
vt 0.00000000 0.00000000
vt 0.00000000 0.00000000
vt 0.00000000 0.00000000
vt 0.00000000 0.00000000
vt 0.00000000 0.00000000
vt 0.00000000 0.00000000
vt 0.00000000 0.00000000
vt 0.00000000 0.00000000
vt 0.00000000 0.00000000
vt 0.00000000 0.00000000
vt 0.00000000 0.00000000
vt 0.00000000 0.00000000
vt 0.00000000 0.00000000
vt 0.00000000 0.00000000
vt 0.00000000 0.00000000
vt 0.00000000 0.00000000
vt 0.00000000 0.00000000
vt 0.00000000 0.00000000
vt 0.00000000 0.00000000
vt 0.00000000 0.00000000
vt 0.00000000 0.00000000
vt 0.00000000 0.00000000
vt 0.00000000 0.00000000
vt 0.00000000 0.00000000
vt 0.00000000 0.00000000
vt 0.00000000 0.00000000
vt 0.00000000 0.00000000
vt 0.00000000 0.00000000
vt 0.00000000 0.00000000
vt 0.00000000 0.00000000
vt 0.00000000 0.00000000
vt 0.00000000 0.00000000
vt 0.00000000 0.00000000
vt 0.00000000 0.00000000
vt 0.00000000 0.00000000
vt 0.00000000 0.00000000
vt 0.00000000 0.00000000
vt 0.00000000 0.00000000
vt 0.00000000 0.00000000
vt 0.00000000 0.00000000
vt 0.00000000 0.00000000
vt 0.00000000 0.00000000
vt 0.00000000 0.00000000
vt 0.00000000 0.00000000
vt 0.00000000 0.00000000
vt 0.00000000 0.00000000
vt 0.00000000 0.00000000
vt 0.00000000 0.00000000
vt 0.00000000 0.00000000
vt 0.00000000 0.00000000
vt 0.00000000 0.00000000
vt 0.00000000 0.00000000
vt 0.00000000 0.00000000
vt 0.00000000 0.00000000
vt 0.00000000 0.00000000
vt 0.00000000 0.00000000
vt 0.00000000 0.00000000
vt 0.00000000 0.00000000
vt 0.00000000 0.00000000
vt 0.00000000 0.00000000
vt 0.00000000 0.00000000
vt 0.00000000 0.00000000
vt 0.00000000 0.00000000
vt 0.00000000 0.00000000
vt 0.00000000 0.00000000
vt 0.00000000 0.00000000
vt 0.00000000 0.00000000
vt 0.00000000 0.00000000
vt 0.00000000 0.00000000
vt 0.00000000 0.00000000
vt 0.00000000 0.00000000
vt 0.00000000 0.00000000
vt 0.00000000 0.00000000
vt 0.00000000 0.00000000
vt 0.00000000 0.00000000
vt 0.00000000 0.00000000
vt 0.00000000 0.00000000
vt 0.00000000 0.00000000
vt 0.00000000 0.00000000
vt 0.00000000 0.00000000
vt 0.00000000 0.00000000
vt 0.00000000 0.00000000
vt 0.00000000 0.00000000
vt 0.00000000 0.00000000
vt 0.00000000 0.00000000
vt 0.00000000 0.00000000
vt 0.00000000 0.00000000
vt 0.00000000 0.00000000
vt 0.00000000 0.00000000
vt 0.00000000 0.00000000
vt 0.00000000 0.00000000
vt 0.00000000 0.00000000
vt 0.00000000 0.00000000
vt 0.00000000 0.00000000
vt 0.00000000 0.00000000
vt 0.00000000 0.00000000
vt 0.00000000 0.00000000
vt 0.00000000 0.00000000
vt 0.00000000 0.00000000
vt 0.00000000 0.00000000
vt 0.00000000 0.00000000
vt 0.00000000 0.00000000
vt 0.00000000 0.00000000
vt 0.00000000 0.00000000
vt 0.00000000 0.00000000
vt 0.00000000 0.00000000
vt 0.00000000 0.00000000
vt 0.00000000 0.00000000
vt 0.00000000 0.00000000
vt 0.00000000 0.00000000
vt 0.00000000 0.00000000
vt 0.00000000 0.00000000
vt 0.00000000 0.00000000
vt 0.00000000 0.00000000
vt 0.00000000 0.00000000
vt 0.00000000 0.00000000
vt 0.00000000 0.00000000
vt 0.00000000 0.00000000
vt 0.00000000 0.00000000
vt 0.00000000 0.00000000
vt 0.00000000 0.00000000
vt 0.00000000 0.00000000
vt 0.00000000 0.00000000
vt 0.00000000 0.00000000
vt 0.00000000 0.00000000
vt 0.00000000 0.00000000
vt 0.00000000 0.00000000
vt 0.00000000 0.00000000
vt 0.00000000 0.00000000
vt 0.00000000 0.00000000
vt 0.00000000 0.00000000
vt 0.00000000 0.00000000
vt 0.00000000 0.00000000
vt 0.00000000 0.00000000
vt 0.00000000 0.00000000
vt 0.00000000 0.00000000
vt 0.00000000 0.00000000
vt 0.00000000 0.00000000
vt 0.00000000 0.00000000
vt 0.00000000 0.00000000
vt 0.00000000 0.00000000
vt 0.00000000 0.00000000
vt 0.00000000 0.00000000
vt 0.00000000 0.00000000
vt 0.00000000 0.00000000
vt 0.00000000 0.00000000
vt 0.00000000 0.00000000
vt 0.00000000 0.00000000
vt 0.00000000 0.00000000
vt 0.00000000 0.00000000
vt 0.00000000 0.00000000
vt 0.00000000 0.00000000
vt 0.00000000 0.00000000
vt 0.00000000 0.00000000
vt 0.00000000 0.00000000
vt 0.00000000 0.00000000
vt 0.00000000 0.00000000
vt 0.00000000 0.00000000
vt 0.00000000 0.00000000
vt 0.00000000 0.00000000
vt 0.00000000 0.00000000
vt 0.00000000 0.00000000
vt 0.00000000 0.00000000
vt 0.00000000 0.00000000
vt 0.00000000 0.00000000
vt 0.00000000 0.00000000
vt 0.00000000 0.00000000
vt 0.00000000 0.00000000
vt 0.00000000 0.00000000
vt 0.00000000 0.00000000
vt 0.00000000 0.00000000
vt 0.00000000 0.00000000
vt 0.00000000 0.00000000
vt 0.00000000 0.00000000
vt 0.00000000 0.00000000
vt 0.00000000 0.00000000
vt 0.00000000 0.00000000
vt 0.00000000 0.00000000
vt 0.00000000 0.00000000
vt 0.00000000 0.00000000
vt 0.00000000 0.00000000
vt 0.00000000 0.00000000
vt 0.00000000 0.00000000
vt 0.00000000 0.00000000
vt 0.00000000 0.00000000
vt 0.00000000 0.00000000
vt 0.00000000 0.00000000
vt 0.00000000 0.00000000
vt 0.00000000 0.00000000
vt 0.00000000 0.00000000
vt 0.00000000 0.00000000
vt 0.00000000 0.00000000
vt 0.00000000 0.00000000
vt 0.00000000 0.00000000
vt 0.00000000 0.00000000
vt 0.00000000 0.00000000
vt 0.00000000 0.00000000
vt 0.00000000 0.00000000
vt 0.00000000 0.00000000
vt 0.00000000 0.00000000
vt 0.00000000 0.00000000
vt 0.00000000 0.00000000
vt 0.00000000 0.00000000
vt 0.00000000 0.00000000
vt 0.00000000 0.00000000
vt 0.00000000 0.00000000
vt 0.00000000 0.00000000
vt 0.00000000 0.00000000
vt 0.00000000 0.00000000
vt 0.00000000 0.00000000
vt 0.00000000 0.00000000
vt 0.00000000 0.00000000
vt 0.00000000 0.00000000
vt 0.00000000 0.00000000
vt 0.00000000 0.00000000
vt 0.00000000 0.00000000
vt 0.00000000 0.00000000
vt 0.00000000 0.00000000
vt 0.00000000 0.00000000
vt 0.00000000 0.00000000
vt 0.00000000 0.00000000
vt 0.00000000 0.00000000
vt 0.00000000 0.00000000
vt 0.00000000 0.00000000
vt 0.00000000 0.00000000
vt 0.00000000 0.00000000
vt 0.00000000 0.00000000
vt 0.00000000 0.00000000
vt 0.00000000 0.00000000
vt 0.00000000 0.00000000
vt 0.00000000 0.00000000
vt 0.00000000 0.00000000
vt 0.00000000 0.00000000
vt 0.00000000 0.00000000
vt 0.00000000 0.00000000
vt 0.00000000 0.00000000
vt 0.00000000 0.00000000
vt 0.00000000 0.00000000
vt 0.00000000 0.00000000
vt 0.00000000 0.00000000
vt 0.00000000 0.00000000
vt 0.00000000 0.00000000
vt 0.00000000 0.00000000
vt 0.00000000 0.00000000
vt 0.00000000 0.00000000
vt 0.00000000 0.00000000
vt 0.00000000 0.00000000
vt 0.00000000 0.00000000
vt 0.00000000 0.00000000
vt 0.00000000 0.00000000
vt 0.00000000 0.00000000
vt 0.00000000 0.00000000
vt 0.00000000 0.00000000
vt 0.00000000 0.00000000
vt 0.00000000 0.00000000
vt 0.00000000 0.00000000
vt 0.00000000 0.00000000
vt 0.00000000 0.00000000
vt 0.00000000 0.00000000
vt 0.00000000 0.00000000
vt 0.00000000 0.00000000
vt 0.00000000 0.00000000
vt 0.00000000 0.00000000
vt 0.00000000 0.00000000
vt 0.00000000 0.00000000
vt 0.00000000 0.00000000
vt 0.00000000 0.00000000
vt 0.00000000 0.00000000
vt 0.00000000 0.00000000
vt 0.00000000 0.00000000
vt 0.00000000 0.00000000
vt 0.00000000 0.00000000
vt 0.00000000 0.00000000
vt 0.00000000 0.00000000
vt 0.00000000 0.00000000
vt 0.00000000 0.00000000
vt 0.00000000 0.00000000
vt 0.00000000 0.00000000
vt 0.00000000 0.00000000
vt 0.00000000 0.00000000
vt 0.00000000 0.00000000
vt 0.00000000 0.00000000
vt 0.00000000 0.00000000
vt 0.00000000 0.00000000
vt 0.00000000 0.00000000
vt 0.00000000 0.00000000
vt 0.00000000 0.00000000
vt 0.00000000 0.00000000
vt 0.00000000 0.00000000
vt 0.00000000 0.00000000
vt 0.00000000 0.00000000
vt 0.00000000 0.00000000
vt 0.00000000 0.00000000
vt 0.00000000 0.00000000
vt 0.00000000 0.00000000
vt 0.00000000 0.00000000
vt 0.00000000 0.00000000
vt 0.00000000 0.00000000
vt 0.00000000 0.00000000
vt 0.00000000 0.00000000
vt 0.00000000 0.00000000
vt 0.00000000 0.00000000
vt 0.00000000 0.00000000
vt 0.00000000 0.00000000
vt 0.00000000 0.00000000
vt 0.00000000 0.00000000
vt 0.00000000 0.00000000
vt 0.00000000 0.00000000
vt 0.00000000 0.00000000
vt 0.00000000 0.00000000
vt 0.00000000 0.00000000
vt 0.00000000 0.00000000
vt 0.00000000 0.00000000
vt 0.00000000 0.00000000
vt 0.00000000 0.00000000
vt 0.00000000 0.00000000
vt 0.00000000 0.00000000
vt 0.00000000 0.00000000
vt 0.00000000 0.00000000
vt 0.00000000 0.00000000
vt 0.00000000 0.00000000
vt 0.00000000 0.00000000
vt 0.00000000 0.00000000
vt 0.00000000 0.00000000
vt 0.00000000 0.00000000
vt 0.00000000 0.00000000
vt 0.00000000 0.00000000
vt 0.00000000 0.00000000
vt 0.00000000 0.00000000
vt 0.00000000 0.00000000
vt 0.00000000 0.00000000
vt 0.00000000 0.00000000
vt 0.00000000 0.00000000
vt 0.00000000 0.00000000
vt 0.00000000 0.00000000
vt 0.00000000 0.00000000
vt 0.00000000 0.00000000
vt 0.00000000 0.00000000
vt 0.00000000 0.00000000
vt 0.00000000 0.00000000
vt 0.00000000 0.00000000
vt 0.00000000 0.00000000
vt 0.00000000 0.00000000
vt 0.00000000 0.00000000
vt 0.00000000 0.00000000
vt 0.00000000 0.00000000
vt 0.00000000 0.00000000
vt 0.00000000 0.00000000
vt 0.00000000 0.00000000
vt 0.00000000 0.00000000
vt 0.00000000 0.00000000
vt 0.00000000 0.00000000
vt 0.00000000 0.00000000
vt 0.00000000 0.00000000
vt 0.00000000 0.00000000
vt 0.00000000 0.00000000
vt 0.00000000 0.00000000
vt 0.00000000 0.00000000
vt 0.00000000 0.00000000
vt 0.00000000 0.00000000
vt 0.00000000 0.00000000
vt 0.00000000 0.00000000
vt 0.00000000 0.00000000
vt 0.00000000 0.00000000
vt 0.00000000 0.00000000
vt 0.00000000 0.00000000
vt 0.00000000 0.00000000
vt 0.00000000 0.00000000
vt 0.00000000 0.00000000
vt 0.00000000 0.00000000
vt 0.00000000 0.00000000
vt 0.00000000 0.00000000
vt 0.00000000 0.00000000
vt 0.00000000 0.00000000
vt 0.00000000 0.00000000
vt 0.00000000 0.00000000
vt 0.00000000 0.00000000
vt 0.00000000 0.00000000
vt 0.00000000 0.00000000
vt 0.00000000 0.00000000
vt 0.00000000 0.00000000
vt 0.00000000 0.00000000
vt 0.00000000 0.00000000
vt 0.00000000 0.00000000
vt 0.00000000 0.00000000
vt 0.00000000 0.00000000
vt 0.00000000 0.00000000
vt 0.00000000 0.00000000
vt 0.00000000 0.00000000
vt 0.00000000 0.00000000
vt 0.00000000 0.00000000
vt 0.00000000 0.00000000
vt 0.00000000 0.00000000
vt 0.00000000 0.00000000
vt 0.00000000 0.00000000
vt 0.00000000 0.00000000
vt 0.00000000 0.00000000
vt 0.00000000 0.00000000
vt 0.00000000 0.00000000
vt 0.00000000 0.00000000
vt 0.00000000 0.00000000
vt 0.00000000 0.00000000
vt 0.00000000 0.00000000
vt 0.00000000 0.00000000
vt 0.00000000 0.00000000
vt 0.00000000 0.00000000
vt 0.00000000 0.00000000
vt 0.00000000 0.00000000
vt 0.00000000 0.00000000
vt 0.00000000 0.00000000
vt 0.00000000 0.00000000
vt 0.00000000 0.00000000
vt 0.00000000 0.00000000
vt 0.00000000 0.00000000
vt 0.00000000 0.00000000
vt 0.00000000 0.00000000
vt 0.00000000 0.00000000
vt 0.00000000 0.00000000
vt 0.00000000 0.00000000
vt 0.00000000 0.00000000
vt 0.00000000 0.00000000
vt 0.00000000 0.00000000
vt 0.00000000 0.00000000
vt 0.00000000 0.00000000
vt 0.00000000 0.00000000
vt 0.00000000 0.00000000
vt 0.00000000 0.00000000
vt 0.00000000 0.00000000
vt 0.00000000 0.00000000
vt 0.00000000 0.00000000
vt 0.00000000 0.00000000
vt 0.00000000 0.00000000
vt 0.00000000 0.00000000
vt 0.00000000 0.00000000
vt 0.00000000 0.00000000
vt 0.00000000 0.00000000
vt 0.00000000 0.00000000
vt 0.00000000 0.00000000
vt 0.00000000 0.00000000
vt 0.00000000 0.00000000
vt 0.00000000 0.00000000
vt 0.00000000 0.00000000
vt 0.00000000 0.00000000
vt 0.00000000 0.00000000
vt 0.00000000 0.00000000
vt 0.00000000 0.00000000
vt 0.00000000 0.00000000
vt 0.00000000 0.00000000
vt 0.00000000 0.00000000
vt 0.00000000 0.00000000
vt 0.00000000 0.00000000
vt 0.00000000 0.00000000
vt 0.00000000 0.00000000
vt 0.00000000 0.00000000
vt 0.00000000 0.00000000
vt 0.00000000 0.00000000
vt 0.00000000 0.00000000
vt 0.00000000 0.00000000
vt 0.00000000 0.00000000
vt 0.00000000 0.00000000
vt 0.00000000 0.00000000
vt 0.00000000 0.00000000
vt 0.00000000 0.00000000
vt 0.00000000 0.00000000
vt 0.00000000 0.00000000
vt 0.00000000 0.00000000
vt 0.00000000 0.00000000
vt 0.00000000 0.00000000
vt 0.00000000 0.00000000
vt 0.00000000 0.00000000
vt 0.00000000 0.00000000
vt 0.00000000 0.00000000
vt 0.00000000 0.00000000
vt 0.00000000 0.00000000
vt 0.00000000 0.00000000
vt 0.00000000 0.00000000
vt 0.00000000 0.00000000
vt 0.00000000 0.00000000
vt 0.00000000 0.00000000
vt 0.00000000 0.00000000
vt 0.00000000 0.00000000
vt 0.00000000 0.00000000
vt 0.00000000 0.00000000
vt 0.00000000 0.00000000
vt 0.00000000 0.00000000
vt 0.00000000 0.00000000
vt 0.00000000 0.00000000
vt 0.00000000 0.00000000
vt 0.00000000 0.00000000
vt 0.00000000 0.00000000
vt 0.00000000 0.00000000
vt 0.00000000 0.00000000
vt 0.00000000 0.00000000
vt 0.00000000 0.00000000
vt 0.00000000 0.00000000
vt 0.00000000 0.00000000
vt 0.00000000 0.00000000
vt 0.00000000 0.00000000
vt 0.00000000 0.00000000
vt 0.00000000 0.00000000
vt 0.00000000 0.00000000
vt 0.00000000 0.00000000
vt 0.00000000 0.00000000
vt 0.00000000 0.00000000
vt 0.00000000 0.00000000
vt 0.00000000 0.00000000
vt 0.00000000 0.00000000
vt 0.00000000 0.00000000
vt 0.00000000 0.00000000
vt 0.00000000 0.00000000
vt 0.00000000 0.00000000
vt 0.00000000 0.00000000
vt 0.00000000 0.00000000
vt 0.00000000 0.00000000
vt 0.00000000 0.00000000
vt 0.00000000 0.00000000
vt 0.00000000 0.00000000
vt 0.00000000 0.00000000
vt 0.00000000 0.00000000
vt 0.00000000 0.00000000
vt 0.00000000 0.00000000
vt 0.00000000 0.00000000
vt 0.00000000 0.00000000
vt 0.00000000 0.00000000
vt 0.00000000 0.00000000
vt 0.00000000 0.00000000
vt 0.00000000 0.00000000
vt 0.00000000 0.00000000
vt 0.00000000 0.00000000
vt 0.00000000 0.00000000
vt 0.00000000 0.00000000
vt 0.00000000 0.00000000
vt 0.00000000 0.00000000
vt 0.00000000 0.00000000
vt 0.00000000 0.00000000
vt 0.00000000 0.00000000
vt 0.00000000 0.00000000
vt 0.00000000 0.00000000
vt 0.00000000 0.00000000
vt 0.00000000 0.00000000
vt 0.00000000 0.00000000
vt 0.00000000 0.00000000
vt 0.00000000 0.00000000
vt 0.00000000 0.00000000
vt 0.00000000 0.00000000
vt 0.00000000 0.00000000
vt 0.00000000 0.00000000
vt 0.00000000 0.00000000
vt 0.00000000 0.00000000
vt 0.00000000 0.00000000
vt 0.00000000 0.00000000
vt 0.00000000 0.00000000
vt 0.00000000 0.00000000
vt 0.00000000 0.00000000
vt 0.00000000 0.00000000
vt 0.00000000 0.00000000
vt 0.00000000 0.00000000
vt 0.00000000 0.00000000
vt 0.00000000 0.00000000
vt 0.00000000 0.00000000
vt 0.00000000 0.00000000
vt 0.00000000 0.00000000
vt 0.00000000 0.00000000
vt 0.00000000 0.00000000
vt 0.00000000 0.00000000
vt 0.00000000 0.00000000
vt 0.00000000 0.00000000
vt 0.00000000 0.00000000
vt 0.00000000 0.00000000
vt 0.00000000 0.00000000
vt 0.00000000 0.00000000
vt 0.00000000 0.00000000
vt 0.00000000 0.00000000
vt 0.00000000 0.00000000
vt 0.00000000 0.00000000
vt 0.00000000 0.00000000
vt 0.00000000 0.00000000
vt 0.00000000 0.00000000
vt 0.00000000 0.00000000
vt 0.00000000 0.00000000
vt 0.00000000 0.00000000
vt 0.00000000 0.00000000
vt 0.00000000 0.00000000
vt 0.00000000 0.00000000
vt 0.00000000 0.00000000
vt 0.00000000 0.00000000
vt 0.00000000 0.00000000
vt 0.00000000 0.00000000
vt 0.00000000 0.00000000
vt 0.00000000 0.00000000
vt 0.00000000 0.00000000
vt 0.00000000 0.00000000
vt 0.00000000 0.00000000
vt 0.00000000 0.00000000
vt 0.00000000 0.00000000
vt 0.00000000 0.00000000
vt 0.00000000 0.00000000
vt 0.00000000 0.00000000
vt 0.00000000 0.00000000
vt 0.00000000 0.00000000
vt 0.00000000 0.00000000
vt 0.00000000 0.00000000
vt 0.00000000 0.00000000
vt 0.00000000 0.00000000
vt 0.00000000 0.00000000
vt 0.00000000 0.00000000
vt 0.00000000 0.00000000
vt 0.00000000 0.00000000
vt 0.00000000 0.00000000
vt 0.00000000 0.00000000
vt 0.00000000 0.00000000
vt 0.00000000 0.00000000
vt 0.00000000 0.00000000
vt 0.00000000 0.00000000
vt 0.00000000 0.00000000
vt 0.00000000 0.00000000
vt 0.00000000 0.00000000
vt 0.00000000 0.00000000
vt 0.00000000 0.00000000
vt 0.00000000 0.00000000
vt 0.00000000 0.00000000
vt 0.00000000 0.00000000
vt 0.00000000 0.00000000
vt 0.00000000 0.00000000
vt 0.00000000 0.00000000
vt 0.00000000 0.00000000
vt 0.00000000 0.00000000
vt 0.00000000 0.00000000
vt 0.00000000 0.00000000
vt 0.00000000 0.00000000
vt 0.00000000 0.00000000
vt 0.00000000 0.00000000
vt 0.00000000 0.00000000
vt 0.00000000 0.00000000
vt 0.00000000 0.00000000
vt 0.00000000 0.00000000
vt 0.00000000 0.00000000
vt 0.00000000 0.00000000
vt 0.00000000 0.00000000
vt 0.00000000 0.00000000
vt 0.00000000 0.00000000
vt 0.00000000 0.00000000
vt 0.00000000 0.00000000
vt 0.00000000 0.00000000
vt 0.00000000 0.00000000
vt 0.00000000 0.00000000
vt 0.00000000 0.00000000
vt 0.00000000 0.00000000
vt 0.00000000 0.00000000
vt 0.00000000 0.00000000
vt 0.00000000 0.00000000
vt 0.00000000 0.00000000
vt 0.00000000 0.00000000
vt 0.00000000 0.00000000
vt 0.00000000 0.00000000
f 1/1 2/2 3/3
f 4/4 5/5 6/6
f 7/7 8/8 9/9
f 10/10 11/11 12/12
f 13/13 14/14 15/15
f 16/16 17/17 18/18
f 19/19 20/20 21/21
f 22/22 23/23 24/24
f 25/25 26/26 27/27
f 28/28 29/29 30/30
f 31/31 32/32 33/33
f 34/34 35/35 36/36
f 37/37 38/38 39/39
f 40/40 41/41 42/42
f 43/43 44/44 45/45
f 46/46 47/47 48/48
f 49/49 50/50 51/51
f 52/52 53/53 54/54
f 55/55 56/56 57/57
f 58/58 59/59 60/60
f 61/61 62/62 63/63
f 64/64 65/65 66/66
f 67/67 68/68 69/69
f 70/70 71/71 72/72
f 73/73 74/74 75/75
f 76/76 77/77 78/78
f 79/79 80/80 81/81
f 82/82 83/83 84/84
f 85/85 86/86 87/87
f 88/88 89/89 90/90
f 91/91 92/92 93/93
f 94/94 95/95 96/96
f 97/97 98/98 99/99
f 100/100 101/101 102/102
f 103/103 104/104 105/105
f 106/106 107/107 108/108
f 109/109 110/110 111/111
f 112/112 113/113 114/114
f 115/115 116/116 117/117
f 118/118 119/119 120/120
f 121/121 122/122 123/123
f 124/124 125/125 126/126
f 127/127 128/128 129/129
f 130/130 131/131 132/132
f 133/133 134/134 135/135
f 136/136 137/137 138/138
f 139/139 140/140 141/141
f 142/142 143/143 144/144
f 145/145 146/146 147/147
f 148/148 149/149 150/150
f 151/151 152/152 153/153
f 154/154 155/155 156/156
f 157/157 158/158 159/159
f 160/160 161/161 162/162
f 163/163 164/164 165/165
f 166/166 167/167 168/168
f 169/169 170/170 171/171
f 172/172 173/173 174/174
f 175/175 176/176 177/177
f 178/178 179/179 180/180
f 181/181 182/182 183/183
f 184/184 185/185 186/186
f 187/187 188/188 189/189
f 190/190 191/191 192/192
f 193/193 194/194 195/195
f 196/196 197/197 198/198
f 199/199 200/200 201/201
f 202/202 203/203 204/204
f 205/205 206/206 207/207
f 208/208 209/209 210/210
f 211/211 212/212 213/213
f 214/214 215/215 216/216
f 217/217 218/218 219/219
f 220/220 221/221 222/222
f 223/223 224/224 225/225
f 226/226 227/227 228/228
f 229/229 230/230 231/231
f 232/232 233/233 234/234
f 235/235 236/236 237/237
f 238/238 239/239 240/240
f 241/241 242/242 243/243
f 244/244 245/245 246/246
f 247/247 248/248 249/249
f 250/250 251/251 252/252
f 253/253 254/254 255/255
f 256/256 257/257 258/258
f 259/259 260/260 261/261
f 262/262 263/263 264/264
f 265/265 266/266 267/267
f 268/268 269/269 270/270
f 271/271 272/272 273/273
f 274/274 275/275 276/276
f 277/277 278/278 279/279
f 280/280 281/281 282/282
f 283/283 284/284 285/285
f 286/286 287/287 288/288
f 289/289 290/290 291/291
f 292/292 293/293 294/294
f 295/295 296/296 297/297
f 298/298 299/299 300/300
f 301/301 302/302 303/303
f 304/304 305/305 306/306
f 307/307 308/308 309/309
f 310/310 311/311 312/312
f 313/313 314/314 315/315
f 316/316 317/317 318/318
f 319/319 320/320 321/321
f 322/322 323/323 324/324
f 325/325 326/326 327/327
f 328/328 329/329 330/330
f 331/331 332/332 333/333
f 334/334 335/335 336/336
f 337/337 338/338 339/339
f 340/340 341/341 342/342
f 343/343 344/344 345/345
f 346/346 347/347 348/348
f 349/349 350/350 351/351
f 352/352 353/353 354/354
f 355/355 356/356 357/357
f 358/358 359/359 360/360
f 361/361 362/362 363/363
f 364/364 365/365 366/366
f 367/367 368/368 369/369
f 370/370 371/371 372/372
f 373/373 374/374 375/375
f 376/376 377/377 378/378
f 379/379 380/380 381/381
f 382/382 383/383 384/384
f 385/385 386/386 387/387
f 388/388 389/389 390/390
f 391/391 392/392 393/393
f 394/394 395/395 396/396
f 397/397 398/398 399/399
f 400/400 401/401 402/402
f 403/403 404/404 405/405
f 406/406 407/407 408/408
f 409/409 410/410 411/411
f 412/412 413/413 414/414
f 415/415 416/416 417/417
f 418/418 419/419 420/420
f 421/421 422/422 423/423
f 424/424 425/425 426/426
f 427/427 428/428 429/429
f 430/430 431/431 432/432
f 433/433 434/434 435/435
f 436/436 437/437 438/438
f 439/439 440/440 441/441
f 442/442 443/443 444/444
f 445/445 446/446 447/447
f 448/448 449/449 450/450
f 451/451 452/452 453/453
f 454/454 455/455 456/456
f 457/457 458/458 459/459
f 460/460 461/461 462/462
f 463/463 464/464 465/465
f 466/466 467/467 468/468
f 469/469 470/470 471/471
f 472/472 473/473 474/474
f 475/475 476/476 477/477
f 478/478 479/479 480/480
f 481/481 482/482 483/483
f 484/484 485/485 486/486
f 487/487 488/488 489/489
f 490/490 491/491 492/492
f 493/493 494/494 495/495
f 496/496 497/497 498/498
f 499/499 500/500 501/501
f 502/502 503/503 504/504
f 505/505 506/506 507/507
f 508/508 509/509 510/510
f 511/511 512/512 513/513
f 514/514 515/515 516/516
f 517/517 518/518 519/519
f 520/520 521/521 522/522
f 523/523 524/524 525/525
f 526/526 527/527 528/528
f 529/529 530/530 531/531
f 532/532 533/533 534/534
f 535/535 536/536 537/537
f 538/538 539/539 540/540
f 541/541 542/542 543/543
f 544/544 545/545 546/546
f 547/547 548/548 549/549
f 550/550 551/551 552/552
f 553/553 554/554 555/555
f 556/556 557/557 558/558
f 559/559 560/560 561/561
f 562/562 563/563 564/564
f 565/565 566/566 567/567
f 568/568 569/569 570/570
f 571/571 572/572 573/573
f 574/574 575/575 576/576
f 577/577 578/578 579/579
f 580/580 581/581 582/582
f 583/583 584/584 585/585
f 586/586 587/587 588/588
f 589/589 590/590 591/591
f 592/592 593/593 594/594
f 595/595 596/596 597/597
f 598/598 599/599 600/600
f 601/601 602/602 603/603
f 604/604 605/605 606/606
f 607/607 608/608 609/609
f 610/610 611/611 612/612
f 613/613 614/614 615/615
f 616/616 617/617 618/618
f 619/619 620/620 621/621
f 622/622 623/623 624/624
f 625/625 626/626 627/627
f 628/628 629/629 630/630
f 631/631 632/632 633/633
f 634/634 635/635 636/636
f 637/637 638/638 639/639
f 640/640 641/641 642/642
f 643/643 644/644 645/645
f 646/646 647/647 648/648
f 649/649 650/650 651/651
f 652/652 653/653 654/654
f 655/655 656/656 657/657
f 658/658 659/659 660/660
f 661/661 662/662 663/663
f 664/664 665/665 666/666
f 667/667 668/668 669/669
f 670/670 671/671 672/672
f 673/673 674/674 675/675
f 676/676 677/677 678/678
f 679/679 680/680 681/681
f 682/682 683/683 684/684
f 685/685 686/686 687/687
f 688/688 689/689 690/690
f 691/691 692/692 693/693
f 694/694 695/695 696/696
f 697/697 698/698 699/699
f 700/700 701/701 702/702
f 703/703 704/704 705/705
f 706/706 707/707 708/708
f 709/709 710/710 711/711
f 712/712 713/713 714/714
f 715/715 716/716 717/717
f 718/718 719/719 720/720
f 721/721 722/722 723/723
f 724/724 725/725 726/726
f 727/727 728/728 729/729
f 730/730 731/731 732/732
f 733/733 734/734 735/735
f 736/736 737/737 738/738
f 739/739 740/740 741/741
f 742/742 743/743 744/744
f 745/745 746/746 747/747
f 748/748 749/749 750/750
f 751/751 752/752 753/753
f 754/754 755/755 756/756

