# https://github.com/mikedh/trimesh
mtllib material.mtl
usemtl PalePlastic
v 0.91355908 2.01506662 0.79241151
v 0.98570389 2.07687497 0.79472691
v 0.98115093 2.08219171 0.79466540
v 0.91355908 2.01506662 0.79241151
v 0.98115093 2.08219171 0.79466540
v 0.90900618 2.02038312 0.79234999
v 0.90730011 2.02046657 0.92583233
v 0.97944492 2.08227515 0.92814773
v 0.98399788 2.07695842 0.92820925
v 0.90730011 2.02046657 0.92583233
v 0.98399788 2.07695842 0.92820925
v 0.91185308 2.01514983 0.92589384
v 0.90900618 2.02038312 0.79234999
v 0.98115093 2.08219171 0.79466540
v 0.97944492 2.08227515 0.92814773
v 0.90900618 2.02038312 0.79234999
v 0.97944492 2.08227515 0.92814773
v 0.90730011 2.02046657 0.92583233
v 0.98115093 2.08219171 0.79466540
v 0.98570389 2.07687497 0.79472691
v 0.98399788 2.07695842 0.92820925
v 0.98115093 2.08219171 0.79466540
v 0.98399788 2.07695842 0.92820925
v 0.97944492 2.08227515 0.92814773
v 0.98570389 2.07687497 0.79472691
v 0.91355908 2.01506662 0.79241151
v 0.91185308 2.01514983 0.92589384
v 0.98570389 2.07687497 0.79472691
v 0.91185308 2.01514983 0.92589384
v 0.98399788 2.07695842 0.92820925
v 0.91355908 2.01506662 0.79241151
v 0.90900618 2.02038312 0.79234999
v 0.90730011 2.02046657 0.92583233
v 0.91355908 2.01506662 0.79241151
v 0.90730011 2.02046657 0.92583233
v 0.91185308 2.01514983 0.92589384
vt 0.00000000 0.00000000
vt 0.00000000 0.00000000
vt 0.00000000 0.00000000
vt 0.00000000 0.00000000
vt 0.00000000 0.00000000
vt 0.00000000 0.00000000
vt 0.00000000 0.00000000
vt 0.00000000 0.00000000
vt 0.00000000 0.00000000
vt 0.00000000 0.00000000
vt 0.00000000 0.00000000
vt 0.00000000 0.00000000
vt 0.00000000 0.00000000
vt 0.00000000 0.00000000
vt 0.00000000 0.00000000
vt 0.00000000 0.00000000
vt 0.00000000 0.00000000
vt 0.00000000 0.00000000
vt 0.00000000 0.00000000
vt 0.00000000 0.00000000
vt 0.00000000 0.00000000
vt 0.00000000 0.00000000
vt 0.00000000 0.00000000
vt 0.00000000 0.00000000
vt 0.00000000 0.00000000
vt 0.00000000 0.00000000
vt 0.00000000 0.00000000
vt 0.00000000 0.00000000
vt 0.00000000 0.00000000
vt 0.00000000 0.00000000
vt 0.00000000 0.00000000
vt 0.00000000 0.00000000
vt 0.00000000 0.00000000
vt 0.00000000 0.00000000
vt 0.00000000 0.00000000
vt 0.00000000 0.00000000
f 1/1 2/2 3/3
f 4/4 5/5 6/6
f 7/7 8/8 9/9
f 10/10 11/11 12/12
f 13/13 14/14 15/15
f 16/16 17/17 18/18
f 19/19 20/20 21/21
f 22/22 23/23 24/24
f 25/25 26/26 27/27
f 28/28 29/29 30/30
f 31/31 32/32 33/33
f 34/34 35/35 36/36

