# https://github.com/mikedh/trimesh
mtllib material.mtl
usemtl DarkRecess
v 0.66562420 1.61484408 -0.19452378
v 0.66710693 1.61618614 -0.19454470
v 0.68455297 1.59692180 -0.19382325
v 0.66562420 1.61484408 -0.19452378
v 0.68455297 1.59692180 -0.19382325
v 0.68307024 1.59557986 -0.19380233
v 0.68303764 1.59566259 -0.19080365
v 0.68452036 1.59700465 -0.19082457
v 0.66707432 1.61626899 -0.19154602
v 0.68303764 1.59566259 -0.19080365
v 0.66707432 1.61626899 -0.19154602
v 0.66559160 1.61492693 -0.19152510
v 0.68307024 1.59557986 -0.19380233
v 0.68455297 1.59692180 -0.19382325
v 0.68452036 1.59700465 -0.19082457
v 0.68307024 1.59557986 -0.19380233
v 0.68452036 1.59700465 -0.19082457
v 0.68303764 1.59566259 -0.19080365
v 0.68455297 1.59692180 -0.19382325
v 0.66710693 1.61618614 -0.19454470
v 0.66707432 1.61626899 -0.19154602
v 0.68455297 1.59692180 -0.19382325
v 0.66707432 1.61626899 -0.19154602
v 0.68452036 1.59700465 -0.19082457
v 0.66710693 1.61618614 -0.19454470
v 0.66562420 1.61484408 -0.19452378
v 0.66559160 1.61492693 -0.19152510
v 0.66710693 1.61618614 -0.19454470
v 0.66559160 1.61492693 -0.19152510
v 0.66707432 1.61626899 -0.19154602
v 0.66562420 1.61484408 -0.19452378
v 0.68307024 1.59557986 -0.19380233
v 0.68303764 1.59566259 -0.19080365
v 0.66562420 1.61484408 -0.19452378
v 0.68303764 1.59566259 -0.19080365
v 0.66559160 1.61492693 -0.19152510
vt 0.00000000 0.00000000
vt 0.00000000 0.00000000
vt 0.00000000 0.00000000
vt 0.00000000 0.00000000
vt 0.00000000 0.00000000
vt 0.00000000 0.00000000
vt 0.00000000 0.00000000
vt 0.00000000 0.00000000
vt 0.00000000 0.00000000
vt 0.00000000 0.00000000
vt 0.00000000 0.00000000
vt 0.00000000 0.00000000
vt 0.00000000 0.00000000
vt 0.00000000 0.00000000
vt 0.00000000 0.00000000
vt 0.00000000 0.00000000
vt 0.00000000 0.00000000
vt 0.00000000 0.00000000
vt 0.00000000 0.00000000
vt 0.00000000 0.00000000
vt 0.00000000 0.00000000
vt 0.00000000 0.00000000
vt 0.00000000 0.00000000
vt 0.00000000 0.00000000
vt 0.00000000 0.00000000
vt 0.00000000 0.00000000
vt 0.00000000 0.00000000
vt 0.00000000 0.00000000
vt 0.00000000 0.00000000
vt 0.00000000 0.00000000
vt 0.00000000 0.00000000
vt 0.00000000 0.00000000
vt 0.00000000 0.00000000
vt 0.00000000 0.00000000
vt 0.00000000 0.00000000
vt 0.00000000 0.00000000
f 1/1 2/2 3/3
f 4/4 5/5 6/6
f 7/7 8/8 9/9
f 10/10 11/11 12/12
f 13/13 14/14 15/15
f 16/16 17/17 18/18
f 19/19 20/20 21/21
f 22/22 23/23 24/24
f 25/25 26/26 27/27
f 28/28 29/29 30/30
f 31/31 32/32 33/33
f 34/34 35/35 36/36

