# https://github.com/mikedh/trimesh
mtllib material.mtl
usemtl BrushedSteel
v 2.05352092 1.99809110 -1.15438747
v 2.72011662 2.61152315 -1.15438747
v 2.73230505 2.59827852 -1.15455341
v 2.05352092 1.99809110 -1.15438747
v 2.73230505 2.59827852 -1.15455341
v 2.06570911 1.98484659 -1.15455341
v 2.06993866 1.98025048 -0.47728390
v 2.73653436 2.59368253 -0.47728390
v 2.72434616 2.60692716 -0.47711790
v 2.06993866 1.98025048 -0.47728390
v 2.72434616 2.60692716 -0.47711790
v 2.05775046 1.99349511 -0.47711790
v 2.06570911 1.98484659 -1.15455341
v 2.73230505 2.59827852 -1.15455341
v 2.73653436 2.59368253 -0.47728390
v 2.06570911 1.98484659 -1.15455341
v 2.73653436 2.59368253 -0.47728390
v 2.06993866 1.98025048 -0.47728390
v 2.73230505 2.59827852 -1.15455341
v 2.72011662 2.61152315 -1.15438747
v 2.72434616 2.60692716 -0.47711790
v 2.73230505 2.59827852 -1.15455341
v 2.72434616 2.60692716 -0.47711790
v 2.73653436 2.59368253 -0.47728390
v 2.72011662 2.61152315 -1.15438747
v 2.05352092 1.99809110 -1.15438747
v 2.05775046 1.99349511 -0.47711790
v 2.72011662 2.61152315 -1.15438747
v 2.05775046 1.99349511 -0.47711790
v 2.72434616 2.60692716 -0.47711790
v 2.05352092 1.99809110 -1.15438747
v 2.06570911 1.98484659 -1.15455341
v 2.06993866 1.98025048 -0.47728390
v 2.05352092 1.99809110 -1.15438747
v 2.06993866 1.98025048 -0.47728390
v 2.05775046 1.99349511 -0.47711790
vt -1.00655186 0.01999998
vt 1.00655186 0.01999998
vt 1.00655186 -0.01999998
vt -1.00655186 0.01999998
vt 1.00655186 -0.01999998
vt -1.00655186 -0.01999998
vt -1.00655186 -0.01999998
vt 1.00655186 -0.01999998
vt 1.00655186 0.01999998
vt -1.00655186 -0.01999998
vt 1.00655186 0.01999998
vt -1.00655186 0.01999998
vt -1.00655186 -0.75255370
vt 1.00655186 -0.75255370
vt 1.00655186 0.75255376
vt -1.00655186 -0.75255370
vt 1.00655186 0.75255376
vt -1.00655186 0.75255376
vt -0.02000000 -0.75255370
vt 0.02000000 -0.75255370
vt 0.02000000 0.75255376
vt -0.02000000 -0.75255370
vt 0.02000000 0.75255376
vt -0.02000000 0.75255376
vt 1.00655186 -0.75255370
vt -1.00655186 -0.75255370
vt -1.00655186 0.75255376
vt 1.00655186 -0.75255370
vt -1.00655186 0.75255376
vt 1.00655186 0.75255376
vt 0.02000000 -0.75255370
vt -0.02000000 -0.75255370
vt -0.02000000 0.75255376
vt 0.02000000 -0.75255370
vt -0.02000000 0.75255376
vt 0.02000000 0.75255376
f 1/1 2/2 3/3
f 4/4 5/5 6/6
f 7/7 8/8 9/9
f 10/10 11/11 12/12
f 13/13 14/14 15/15
f 16/16 17/17 18/18
f 19/19 20/20 21/21
f 22/22 23/23 24/24
f 25/25 26/26 27/27
f 28/28 29/29 30/30
f 31/31 32/32 33/33
f 34/34 35/35 36/36

