# https://github.com/mikedh/trimesh
mtllib material.mtl
usemtl WhiteSolidSurface
v 7.16493130 1.41296411 -0.43388742
v 7.69288349 0.80227768 -0.44303867
v 7.62457323 0.74324626 -0.43975022
v 7.16493130 1.41296411 -0.43388742
v 7.62457323 0.74324626 -0.43975022
v 7.09662151 1.35393274 -0.43059897
v 7.09614944 1.35352504 -0.39560452
v 7.62410164 0.74283856 -0.40475580
v 7.69241142 0.80186993 -0.40804425
v 7.09614944 1.35352504 -0.39560452
v 7.69241142 0.80186993 -0.40804425
v 7.16445971 1.41255641 -0.39889297
v 7.09662151 1.35393274 -0.43059897
v 7.62457323 0.74324626 -0.43975022
v 7.62410164 0.74283856 -0.40475580
v 7.09662151 1.35393274 -0.43059897
v 7.62410164 0.74283856 -0.40475580
v 7.09614944 1.35352504 -0.39560452
v 7.62457323 0.74324626 -0.43975022
v 7.69288349 0.80227768 -0.44303867
v 7.69241142 0.80186993 -0.40804425
v 7.62457323 0.74324626 -0.43975022
v 7.69241142 0.80186993 -0.40804425
v 7.62410164 0.74283856 -0.40475580
v 7.69288349 0.80227768 -0.44303867
v 7.16493130 1.41296411 -0.43388742
v 7.16445971 1.41255641 -0.39889297
v 7.69288349 0.80227768 -0.44303867
v 7.16445971 1.41255641 -0.39889297
v 7.69241142 0.80186993 -0.40804425
v 7.16493130 1.41296411 -0.43388742
v 7.09662151 1.35393274 -0.43059897
v 7.09614944 1.35352504 -0.39560452
v 7.16493130 1.41296411 -0.43388742
v 7.09614944 1.35352504 -0.39560452
v 7.16445971 1.41255641 -0.39889297
vt 0.00000000 0.00000000
vt 0.00000000 0.00000000
vt 0.00000000 0.00000000
vt 0.00000000 0.00000000
vt 0.00000000 0.00000000
vt 0.00000000 0.00000000
vt 0.00000000 0.00000000
vt 0.00000000 0.00000000
vt 0.00000000 0.00000000
vt 0.00000000 0.00000000
vt 0.00000000 0.00000000
vt 0.00000000 0.00000000
vt 0.00000000 0.00000000
vt 0.00000000 0.00000000
vt 0.00000000 0.00000000
vt 0.00000000 0.00000000
vt 0.00000000 0.00000000
vt 0.00000000 0.00000000
vt 0.00000000 0.00000000
vt 0.00000000 0.00000000
vt 0.00000000 0.00000000
vt 0.00000000 0.00000000
vt 0.00000000 0.00000000
vt 0.00000000 0.00000000
vt 0.00000000 0.00000000
vt 0.00000000 0.00000000
vt 0.00000000 0.00000000
vt 0.00000000 0.00000000
vt 0.00000000 0.00000000
vt 0.00000000 0.00000000
vt 0.00000000 0.00000000
vt 0.00000000 0.00000000
vt 0.00000000 0.00000000
vt 0.00000000 0.00000000
vt 0.00000000 0.00000000
vt 0.00000000 0.00000000
f 1/1 2/2 3/3
f 4/4 5/5 6/6
f 7/7 8/8 9/9
f 10/10 11/11 12/12
f 13/13 14/14 15/15
f 16/16 17/17 18/18
f 19/19 20/20 21/21
f 22/22 23/23 24/24
f 25/25 26/26 27/27
f 28/28 29/29 30/30
f 31/31 32/32 33/33
f 34/34 35/35 36/36

