# https://github.com/mikedh/trimesh
mtllib material.mtl
usemtl DarkPlastic
v 2.37342286 3.26186252 -1.05051219
v 2.82337666 3.65349030 -1.05051219
v 2.83519268 3.63991451 -1.05079639
v 2.37342286 3.26186252 -1.05051219
v 2.83519268 3.63991451 -1.05079639
v 2.38523889 3.24828672 -1.05079639
v 2.38644671 3.24689913 -0.93428952
v 2.83640051 3.63852692 -0.93428952
v 2.82458448 3.65210271 -0.93400532
v 2.38644671 3.24689913 -0.93428952
v 2.82458448 3.65210271 -0.93400532
v 2.37463069 3.26047492 -0.93400532
v 2.38523889 3.24828672 -1.05079639
v 2.83519268 3.63991451 -1.05079639
v 2.83640051 3.63852692 -0.93428952
v 2.38523889 3.24828672 -1.05079639
v 2.83640051 3.63852692 -0.93428952
v 2.38644671 3.24689913 -0.93428952
v 2.83519268 3.63991451 -1.05079639
v 2.82337666 3.65349030 -1.05051219
v 2.82458448 3.65210271 -0.93400532
v 2.83519268 3.63991451 -1.05079639
v 2.82458448 3.65210271 -0.93400532
v 2.83640051 3.63852692 -0.93428952
v 2.82337666 3.65349030 -1.05051219
v 2.37342286 3.26186252 -1.05051219
v 2.37463069 3.26047492 -0.93400532
v 2.82337666 3.65349030 -1.05051219
v 2.37463069 3.26047492 -0.93400532
v 2.82458448 3.65210271 -0.93400532
v 2.37342286 3.26186252 -1.05051219
v 2.38523889 3.24828672 -1.05079639
v 2.38644671 3.24689913 -0.93428952
v 2.37342286 3.26186252 -1.05051219
v 2.38644671 3.24689913 -0.93428952
v 2.37463069 3.26047492 -0.93400532
vt -0.66279507 0.01999998
vt 0.66279507 0.01999998
vt 0.66279507 -0.01999998
vt -0.66279507 0.01999998
vt 0.66279507 -0.01999998
vt -0.66279507 -0.01999998
vt -0.66279507 -0.01999998
vt 0.66279507 -0.01999998
vt 0.66279507 0.01999998
vt -0.66279507 -0.01999998
vt 0.66279507 0.01999998
vt -0.66279507 0.01999998
vt -0.66279507 -0.12946820
vt 0.66279507 -0.12946820
vt 0.66279507 0.12946820
vt -0.66279507 -0.12946820
vt 0.66279507 0.12946820
vt -0.66279507 0.12946820
vt -0.02000000 -0.12946820
vt 0.02000000 -0.12946820
vt 0.02000000 0.12946820
vt -0.02000000 -0.12946820
vt 0.02000000 0.12946820
vt -0.02000000 0.12946820
vt 0.66279507 -0.12946820
vt -0.66279507 -0.12946820
vt -0.66279507 0.12946820
vt 0.66279507 -0.12946820
vt -0.66279507 0.12946820
vt 0.66279507 0.12946820
vt 0.02000000 -0.12946820
vt -0.02000000 -0.12946820
vt -0.02000000 0.12946820
vt 0.02000000 -0.12946820
vt -0.02000000 0.12946820
vt 0.02000000 0.12946820
f 1/1 2/2 3/3
f 4/4 5/5 6/6
f 7/7 8/8 9/9
f 10/10 11/11 12/12
f 13/13 14/14 15/15
f 16/16 17/17 18/18
f 19/19 20/20 21/21
f 22/22 23/23 24/24
f 25/25 26/26 27/27
f 28/28 29/29 30/30
f 31/31 32/32 33/33
f 34/34 35/35 36/36

