# https://github.com/mikedh/trimesh
mtllib material.mtl
usemtl DarkPlastic
v 5.36488008 0.42900062 -1.23156786
v 3.93346834 2.10246563 -1.20318604
v 3.95246315 2.11871743 -1.20345700
v 5.36488008 0.42900062 -1.23156786
v 3.95246315 2.11871743 -1.20345700
v 5.38387442 0.44525254 -1.23183894
v 5.38520384 0.44503295 -1.15185022
v 3.95379233 2.11849785 -1.12346840
v 3.93479753 2.10224605 -1.12319732
v 5.38520384 0.44503295 -1.15185022
v 3.93479753 2.10224605 -1.12319732
v 5.36620903 0.42878103 -1.15157926
v 5.38387442 0.44525254 -1.23183894
v 3.95246315 2.11871743 -1.20345700
v 3.95379233 2.11849785 -1.12346840
v 5.38387442 0.44525254 -1.23183894
v 3.95379233 2.11849785 -1.12346840
v 5.38520384 0.44503295 -1.15185022
v 3.95246315 2.11871743 -1.20345700
v 3.93346834 2.10246563 -1.20318604
v 3.93479753 2.10224605 -1.12319732
v 3.95246315 2.11871743 -1.20345700
v 3.93479753 2.10224605 -1.12319732
v 3.95379233 2.11849785 -1.12346840
v 3.93346834 2.10246563 -1.20318604
v 5.36488008 0.42900062 -1.23156786
v 5.36620903 0.42878103 -1.15157926
v 3.93346834 2.10246563 -1.20318604
v 5.36620903 0.42878103 -1.15157926
v 3.93479753 2.10224605 -1.12319732
v 5.36488008 0.42900062 -1.23156786
v 5.38387442 0.44525254 -1.23183894
v 5.38520384 0.44503295 -1.15185022
v 5.36488008 0.42900062 -1.23156786
v 5.38520384 0.44503295 -1.15185022
v 5.36620903 0.42878103 -1.15157926
vt -2.44702625 0.02777779
vt 2.44702625 0.02777779
vt 2.44702625 -0.02777779
vt -2.44702625 0.02777779
vt 2.44702625 -0.02777779
vt -2.44702625 -0.02777779
vt -2.44702625 -0.02777779
vt 2.44702625 -0.02777779
vt 2.44702625 0.02777779
vt -2.44702625 -0.02777779
vt 2.44702625 0.02777779
vt -2.44702625 0.02777779
vt -2.44702625 -0.08888888
vt 2.44702625 -0.08888888
vt 2.44702625 0.08888888
vt -2.44702625 -0.08888888
vt 2.44702625 0.08888888
vt -2.44702625 0.08888888
vt -0.02777778 -0.08888888
vt 0.02777778 -0.08888888
vt 0.02777778 0.08888888
vt -0.02777778 -0.08888888
vt 0.02777778 0.08888888
vt -0.02777778 0.08888888
vt 2.44702625 -0.08888888
vt -2.44702625 -0.08888888
vt -2.44702625 0.08888888
vt 2.44702625 -0.08888888
vt -2.44702625 0.08888888
vt 2.44702625 0.08888888
vt 0.02777778 -0.08888888
vt -0.02777778 -0.08888888
vt -0.02777778 0.08888888
vt 0.02777778 -0.08888888
vt -0.02777778 0.08888888
vt 0.02777778 0.08888888
f 1/1 2/2 3/3
f 4/4 5/5 6/6
f 7/7 8/8 9/9
f 10/10 11/11 12/12
f 13/13 14/14 15/15
f 16/16 17/17 18/18
f 19/19 20/20 21/21
f 22/22 23/23 24/24
f 25/25 26/26 27/27
f 28/28 29/29 30/30
f 31/31 32/32 33/33
f 34/34 35/35 36/36

