# https://github.com/mikedh/trimesh
mtllib material.mtl
usemtl PaleWood
v 1.55333662 1.84804094 -0.67191321
v 1.87281156 2.12610340 -0.67191321
v 1.88462758 2.11252761 -0.67219740
v 1.55333662 1.84804094 -0.67191321
v 1.88462758 2.11252761 -0.67219740
v 1.56515253 1.83446515 -0.67219740
v 1.56665075 1.83274388 -0.52767944
v 1.88612568 2.11080623 -0.52767944
v 1.87430966 2.12438202 -0.52739525
v 1.56665075 1.83274388 -0.52767944
v 1.87430966 2.12438202 -0.52739525
v 1.55483472 1.84631968 -0.52739525
v 1.56515253 1.83446515 -0.67219740
v 1.88462758 2.11252761 -0.67219740
v 1.88612568 2.11080623 -0.52767944
v 1.56515253 1.83446515 -0.67219740
v 1.88612568 2.11080623 -0.52767944
v 1.56665075 1.83274388 -0.52767944
v 1.88462758 2.11252761 -0.67219740
v 1.87281156 2.12610340 -0.67191321
v 1.87430966 2.12438202 -0.52739525
v 1.88462758 2.11252761 -0.67219740
v 1.87430966 2.12438202 -0.52739525
v 1.88612568 2.11080623 -0.52767944
v 1.87281156 2.12610340 -0.67191321
v 1.55333662 1.84804094 -0.67191321
v 1.55483472 1.84631968 -0.52739525
v 1.87281156 2.12610340 -0.67191321
v 1.55483472 1.84631968 -0.52739525
v 1.87430966 2.12438202 -0.52739525
v 1.55333662 1.84804094 -0.67191321
v 1.56515253 1.83446515 -0.67219740
v 1.56665075 1.83274388 -0.52767944
v 1.55333662 1.84804094 -0.67191321
v 1.56665075 1.83274388 -0.52767944
v 1.55483472 1.84631968 -0.52739525
vt -0.47059584 0.01999998
vt 0.47059584 0.01999998
vt 0.47059584 -0.01999998
vt -0.47059584 0.01999998
vt 0.47059584 -0.01999998
vt -0.47059584 -0.01999998
vt -0.47059584 -0.01999998
vt 0.47059584 -0.01999998
vt 0.47059584 0.01999998
vt -0.47059584 -0.01999998
vt 0.47059584 0.01999998
vt -0.47059584 0.01999998
vt -0.47059584 -0.16059554
vt 0.47059584 -0.16059554
vt 0.47059584 0.16059554
vt -0.47059584 -0.16059554
vt 0.47059584 0.16059554
vt -0.47059584 0.16059554
vt -0.02000000 -0.16059554
vt 0.02000000 -0.16059554
vt 0.02000000 0.16059554
vt -0.02000000 -0.16059554
vt 0.02000000 0.16059554
vt -0.02000000 0.16059554
vt 0.47059584 -0.16059554
vt -0.47059584 -0.16059554
vt -0.47059584 0.16059554
vt 0.47059584 -0.16059554
vt -0.47059584 0.16059554
vt 0.47059584 0.16059554
vt 0.02000000 -0.16059554
vt -0.02000000 -0.16059554
vt -0.02000000 0.16059554
vt 0.02000000 -0.16059554
vt -0.02000000 0.16059554
vt 0.02000000 0.16059554
f 1/1 2/2 3/3
f 4/4 5/5 6/6
f 7/7 8/8 9/9
f 10/10 11/11 12/12
f 13/13 14/14 15/15
f 16/16 17/17 18/18
f 19/19 20/20 21/21
f 22/22 23/23 24/24
f 25/25 26/26 27/27
f 28/28 29/29 30/30
f 31/31 32/32 33/33
f 34/34 35/35 36/36

