# https://github.com/mikedh/trimesh
mtllib material.mtl
usemtl PaleWood
v 1.54924667 1.85273993 -1.06644309
v 1.86872160 2.13080239 -1.06644309
v 1.88053763 2.11722660 -1.06672728
v 1.54924667 1.85273993 -1.06644309
v 1.88053763 2.11722660 -1.06672728
v 1.56106269 1.83916426 -1.06672728
v 1.56341052 1.83646667 -0.84024256
v 1.88288546 2.11452913 -0.84024256
v 1.87106943 2.12810493 -0.83995837
v 1.56341052 1.83646667 -0.84024256
v 1.87106943 2.12810493 -0.83995837
v 1.55159450 1.85004246 -0.83995837
v 1.56106269 1.83916426 -1.06672728
v 1.88053763 2.11722660 -1.06672728
v 1.88288546 2.11452913 -0.84024256
v 1.56106269 1.83916426 -1.06672728
v 1.88288546 2.11452913 -0.84024256
v 1.56341052 1.83646667 -0.84024256
v 1.88053763 2.11722660 -1.06672728
v 1.86872160 2.13080239 -1.06644309
v 1.87106943 2.12810493 -0.83995837
v 1.88053763 2.11722660 -1.06672728
v 1.87106943 2.12810493 -0.83995837
v 1.88288546 2.11452913 -0.84024256
v 1.86872160 2.13080239 -1.06644309
v 1.54924667 1.85273993 -1.06644309
v 1.55159450 1.85004246 -0.83995837
v 1.86872160 2.13080239 -1.06644309
v 1.55159450 1.85004246 -0.83995837
v 1.87106943 2.12810493 -0.83995837
v 1.54924667 1.85273993 -1.06644309
v 1.56106269 1.83916426 -1.06672728
v 1.56341052 1.83646667 -0.84024256
v 1.54924667 1.85273993 -1.06644309
v 1.56341052 1.83646667 -0.84024256
v 1.55159450 1.85004246 -0.83995837
vt -0.47059584 0.01999998
vt 0.47059584 0.01999998
vt 0.47059584 -0.01999998
vt -0.47059584 0.01999998
vt 0.47059584 -0.01999998
vt -0.47059584 -0.01999998
vt -0.47059584 -0.01999998
vt 0.47059584 -0.01999998
vt 0.47059584 0.01999998
vt -0.47059584 -0.01999998
vt 0.47059584 0.01999998
vt -0.47059584 0.01999998
vt -0.47059584 -0.25168109
vt 0.47059584 -0.25168109
vt 0.47059584 0.25168109
vt -0.47059584 -0.25168109
vt 0.47059584 0.25168109
vt -0.47059584 0.25168109
vt -0.02000000 -0.25168109
vt 0.02000000 -0.25168109
vt 0.02000000 0.25168109
vt -0.02000000 -0.25168109
vt 0.02000000 0.25168109
vt -0.02000000 0.25168109
vt 0.47059584 -0.25168109
vt -0.47059584 -0.25168109
vt -0.47059584 0.25168109
vt 0.47059584 -0.25168109
vt -0.47059584 0.25168109
vt 0.47059584 0.25168109
vt 0.02000000 -0.25168109
vt -0.02000000 -0.25168109
vt -0.02000000 0.25168109
vt 0.02000000 -0.25168109
vt -0.02000000 0.25168109
vt 0.02000000 0.25168109
f 1/1 2/2 3/3
f 4/4 5/5 6/6
f 7/7 8/8 9/9
f 10/10 11/11 12/12
f 13/13 14/14 15/15
f 16/16 17/17 18/18
f 19/19 20/20 21/21
f 22/22 23/23 24/24
f 25/25 26/26 27/27
f 28/28 29/29 30/30
f 31/31 32/32 33/33
f 34/34 35/35 36/36

