# https://github.com/mikedh/trimesh
mtllib material.mtl
usemtl DarkRecess
v 1.00543952 1.74557638 -0.12393632
v 1.00313663 1.74347854 -0.12426693
v 1.01118875 1.73458731 -0.12393395
v 1.00543952 1.74557638 -0.12393632
v 1.01118875 1.73458731 -0.12393395
v 1.01349151 1.73668516 -0.12360334
v 1.00313663 1.74347854 -0.12426693
v 1.00099075 1.74149299 -0.12539221
v 1.00904286 1.73260176 -0.12505923
v 1.00313663 1.74347854 -0.12426693
v 1.00904286 1.73260176 -0.12505923
v 1.01118875 1.73458731 -0.12393395
v 1.00099075 1.74149299 -0.12539221
v 0.99914807 1.73975527 -0.12723550
v 1.00720012 1.73086393 -0.12690252
v 1.00099075 1.74149299 -0.12539221
v 1.00720012 1.73086393 -0.12690252
v 1.00904286 1.73260176 -0.12505923
v 0.99914807 1.73975527 -0.12723550
v 0.99773407 1.73838353 -0.12967114
v 1.00578606 1.72949231 -0.12933818
v 0.99914807 1.73975527 -0.12723550
v 1.00578606 1.72949231 -0.12933818
v 1.00720012 1.73086393 -0.12690252
v 0.99773407 1.73838353 -0.12967114
v 0.99684525 1.73747134 -0.13253319
v 1.00489724 1.72858012 -0.13220021
v 0.99773407 1.73838353 -0.12967114
v 1.00489724 1.72858012 -0.13220021
v 1.00578606 1.72949231 -0.12933818
v 0.99684525 1.73747134 -0.13253319
v 0.99654204 1.73708093 -0.13562657
v 1.00459409 1.72818971 -0.13529359
v 0.99684525 1.73747134 -0.13253319
v 1.00459409 1.72818971 -0.13529359
v 1.00489724 1.72858012 -0.13220021
v 0.99654204 1.73708093 -0.13562657
v 0.99684525 1.73723888 -0.13874049
v 1.00489724 1.72834766 -0.13840751
v 0.99654204 1.73708093 -0.13562657
v 1.00489724 1.72834766 -0.13840751
v 1.00459409 1.72818971 -0.13529359
v 0.99684525 1.73723888 -0.13874049
v 0.99773407 1.73793435 -0.14166275
v 1.00578606 1.72904313 -0.14132977
v 0.99684525 1.73723888 -0.13874049
v 1.00578606 1.72904313 -0.14132977
v 1.00489724 1.72834766 -0.13840751
v 0.99773407 1.73793435 -0.14166275
v 0.99914807 1.73912013 -0.14419417
v 1.00720012 1.73022890 -0.14386119
v 0.99773407 1.73793435 -0.14166275
v 1.00720012 1.73022890 -0.14386119
v 1.00578606 1.72904313 -0.14132977
v 0.99914807 1.73912013 -0.14419417
v 1.00099075 1.74071515 -0.14616227
v 1.00904286 1.73182392 -0.14582929
v 0.99914807 1.73912013 -0.14419417
v 1.00904286 1.73182392 -0.14582929
v 1.00720012 1.73022890 -0.14386119
v 1.00099075 1.74071515 -0.14616227
v 1.00313663 1.74261093 -0.14743291
v 1.01118875 1.73371971 -0.14709993
v 1.00099075 1.74071515 -0.14616227
v 1.01118875 1.73371971 -0.14709993
v 1.00904286 1.73182392 -0.14582929
v 1.00313663 1.74261093 -0.14743291
v 1.00543952 1.74467826 -0.14791951
v 1.01349151 1.73578703 -0.14758652
v 1.00313663 1.74261093 -0.14743291
v 1.01349151 1.73578703 -0.14758652
v 1.01118875 1.73371971 -0.14709993
v 1.00543952 1.74467826 -0.14791951
v 1.00774229 1.74677610 -0.14758889
v 1.01579440 1.73788488 -0.14725591
v 1.00543952 1.74467826 -0.14791951
v 1.01579440 1.73788488 -0.14725591
v 1.01349151 1.73578703 -0.14758652
v 1.00774229 1.74677610 -0.14758889
v 1.00988829 1.74876153 -0.14646360
v 1.01794028 1.73987031 -0.14613062
v 1.00774229 1.74677610 -0.14758889
v 1.01794028 1.73987031 -0.14613062
v 1.01579440 1.73788488 -0.14725591
v 1.00988829 1.74876153 -0.14646360
v 1.01173091 1.75049937 -0.14462033
v 1.01978302 1.74160814 -0.14428735
v 1.00988829 1.74876153 -0.14646360
v 1.01978302 1.74160814 -0.14428735
v 1.01794028 1.73987031 -0.14613062
v 1.01173091 1.75049937 -0.14462033
v 1.01314497 1.75187111 -0.14218467
v 1.02119696 1.74297988 -0.14185169
v 1.01173091 1.75049937 -0.14462033
v 1.02119696 1.74297988 -0.14185169
v 1.01978302 1.74160814 -0.14428735
v 1.01314497 1.75187111 -0.14218467
v 1.01403379 1.75278330 -0.13932264
v 1.02208579 1.74389207 -0.13898966
v 1.01314497 1.75187111 -0.14218467
v 1.02208579 1.74389207 -0.13898966
v 1.02119696 1.74297988 -0.14185169
v 1.01403379 1.75278330 -0.13932264
v 1.01433694 1.75317371 -0.13622925
v 1.02238905 1.74428248 -0.13589628
v 1.01403379 1.75278330 -0.13932264
v 1.02238905 1.74428248 -0.13589628
v 1.02208579 1.74389207 -0.13898966
v 1.01433694 1.75317371 -0.13622925
v 1.01403379 1.75301576 -0.13311534
v 1.02208579 1.74412453 -0.13278235
v 1.01433694 1.75317371 -0.13622925
v 1.02208579 1.74412453 -0.13278235
v 1.02238905 1.74428248 -0.13589628
v 1.01403379 1.75301576 -0.13311534
v 1.01314497 1.75232029 -0.13019308
v 1.02119696 1.74342895 -0.12986010
v 1.01403379 1.75301576 -0.13311534
v 1.02119696 1.74342895 -0.12986010
v 1.02208579 1.74412453 -0.13278235
v 1.01314497 1.75232029 -0.13019308
v 1.01173091 1.75113451 -0.12766166
v 1.01978302 1.74224329 -0.12732868
v 1.01314497 1.75232029 -0.13019308
v 1.01978302 1.74224329 -0.12732868
v 1.02119696 1.74342895 -0.12986010
v 1.01173091 1.75113451 -0.12766166
v 1.00988829 1.74953938 -0.12569356
v 1.01794028 1.74064815 -0.12536058
v 1.01173091 1.75113451 -0.12766166
v 1.01794028 1.74064815 -0.12536058
v 1.01978302 1.74224329 -0.12732868
v 1.00988829 1.74953938 -0.12569356
v 1.00774229 1.74764371 -0.12442292
v 1.01579440 1.73875248 -0.12408993
v 1.00988829 1.74953938 -0.12569356
v 1.01579440 1.73875248 -0.12408993
v 1.01794028 1.74064815 -0.12536058
v 1.00774229 1.74764371 -0.12442292
v 1.00543952 1.74557638 -0.12393632
v 1.01349151 1.73668516 -0.12360334
v 1.00774229 1.74764371 -0.12442292
v 1.01349151 1.73668516 -0.12360334
v 1.01579440 1.73875248 -0.12408993
v 1.00774229 1.74764371 -0.12442292
v 1.00988829 1.74953938 -0.12569356
v 1.01173091 1.75113451 -0.12766166
v 1.00774229 1.74764371 -0.12442292
v 1.01173091 1.75113451 -0.12766166
v 1.01314497 1.75232029 -0.13019308
v 1.00774229 1.74764371 -0.12442292
v 1.01314497 1.75232029 -0.13019308
v 1.01403379 1.75301576 -0.13311534
v 1.00774229 1.74764371 -0.12442292
v 1.01403379 1.75301576 -0.13311534
v 1.01433694 1.75317371 -0.13622925
v 1.00774229 1.74764371 -0.12442292
v 1.01433694 1.75317371 -0.13622925
v 1.01403379 1.75278330 -0.13932264
v 1.00774229 1.74764371 -0.12442292
v 1.01403379 1.75278330 -0.13932264
v 1.01314497 1.75187111 -0.14218467
v 1.00774229 1.74764371 -0.12442292
v 1.01314497 1.75187111 -0.14218467
v 1.01173091 1.75049937 -0.14462033
v 1.00774229 1.74764371 -0.12442292
v 1.01173091 1.75049937 -0.14462033
v 1.00988829 1.74876153 -0.14646360
v 1.00774229 1.74764371 -0.12442292
v 1.00988829 1.74876153 -0.14646360
v 1.00774229 1.74677610 -0.14758889
v 1.00774229 1.74764371 -0.12442292
v 1.00774229 1.74677610 -0.14758889
v 1.00543952 1.74467826 -0.14791951
v 1.00774229 1.74764371 -0.12442292
v 1.00543952 1.74467826 -0.14791951
v 1.00313663 1.74261093 -0.14743291
v 1.00774229 1.74764371 -0.12442292
v 1.00313663 1.74261093 -0.14743291
v 1.00099075 1.74071515 -0.14616227
v 1.00774229 1.74764371 -0.12442292
v 1.00099075 1.74071515 -0.14616227
v 0.99914807 1.73912013 -0.14419417
v 1.00774229 1.74764371 -0.12442292
v 0.99914807 1.73912013 -0.14419417
v 0.99773407 1.73793435 -0.14166275
v 1.00774229 1.74764371 -0.12442292
v 0.99773407 1.73793435 -0.14166275
v 0.99684525 1.73723888 -0.13874049
v 1.00774229 1.74764371 -0.12442292
v 0.99684525 1.73723888 -0.13874049
v 0.99654204 1.73708093 -0.13562657
v 1.00774229 1.74764371 -0.12442292
v 0.99654204 1.73708093 -0.13562657
v 0.99684525 1.73747134 -0.13253319
v 1.00774229 1.74764371 -0.12442292
v 0.99684525 1.73747134 -0.13253319
v 0.99773407 1.73838353 -0.12967114
v 1.00774229 1.74764371 -0.12442292
v 0.99773407 1.73838353 -0.12967114
v 0.99914807 1.73975527 -0.12723550
v 1.00774229 1.74764371 -0.12442292
v 0.99914807 1.73975527 -0.12723550
v 1.00099075 1.74149299 -0.12539221
v 1.00774229 1.74764371 -0.12442292
v 1.00099075 1.74149299 -0.12539221
v 1.00313663 1.74347854 -0.12426693
v 1.00774229 1.74764371 -0.12442292
v 1.00313663 1.74347854 -0.12426693
v 1.00543952 1.74557638 -0.12393632
v 1.01349151 1.73668516 -0.12360334
v 1.01118875 1.73458731 -0.12393395
v 1.00904286 1.73260176 -0.12505923
v 1.01349151 1.73668516 -0.12360334
v 1.00904286 1.73260176 -0.12505923
v 1.00720012 1.73086393 -0.12690252
v 1.01349151 1.73668516 -0.12360334
v 1.00720012 1.73086393 -0.12690252
v 1.00578606 1.72949231 -0.12933818
v 1.01349151 1.73668516 -0.12360334
v 1.00578606 1.72949231 -0.12933818
v 1.00489724 1.72858012 -0.13220021
v 1.01349151 1.73668516 -0.12360334
v 1.00489724 1.72858012 -0.13220021
v 1.00459409 1.72818971 -0.13529359
v 1.01349151 1.73668516 -0.12360334
v 1.00459409 1.72818971 -0.13529359
v 1.00489724 1.72834766 -0.13840751
v 1.01349151 1.73668516 -0.12360334
v 1.00489724 1.72834766 -0.13840751
v 1.00578606 1.72904313 -0.14132977
v 1.01349151 1.73668516 -0.12360334
v 1.00578606 1.72904313 -0.14132977
v 1.00720012 1.73022890 -0.14386119
v 1.01349151 1.73668516 -0.12360334
v 1.00720012 1.73022890 -0.14386119
v 1.00904286 1.73182392 -0.14582929
v 1.01349151 1.73668516 -0.12360334
v 1.00904286 1.73182392 -0.14582929
v 1.01118875 1.73371971 -0.14709993
v 1.01349151 1.73668516 -0.12360334
v 1.01118875 1.73371971 -0.14709993
v 1.01349151 1.73578703 -0.14758652
v 1.01349151 1.73668516 -0.12360334
v 1.01349151 1.73578703 -0.14758652
v 1.01579440 1.73788488 -0.14725591
v 1.01349151 1.73668516 -0.12360334
v 1.01579440 1.73788488 -0.14725591
v 1.01794028 1.73987031 -0.14613062
v 1.01349151 1.73668516 -0.12360334
v 1.01794028 1.73987031 -0.14613062
v 1.01978302 1.74160814 -0.14428735
v 1.01349151 1.73668516 -0.12360334
v 1.01978302 1.74160814 -0.14428735
v 1.02119696 1.74297988 -0.14185169
v 1.01349151 1.73668516 -0.12360334
v 1.02119696 1.74297988 -0.14185169
v 1.02208579 1.74389207 -0.13898966
v 1.01349151 1.73668516 -0.12360334
v 1.02208579 1.74389207 -0.13898966
v 1.02238905 1.74428248 -0.13589628
v 1.01349151 1.73668516 -0.12360334
v 1.02238905 1.74428248 -0.13589628
v 1.02208579 1.74412453 -0.13278235
v 1.01349151 1.73668516 -0.12360334
v 1.02208579 1.74412453 -0.13278235
v 1.02119696 1.74342895 -0.12986010
v 1.01349151 1.73668516 -0.12360334
v 1.02119696 1.74342895 -0.12986010
v 1.01978302 1.74224329 -0.12732868
v 1.01349151 1.73668516 -0.12360334
v 1.01978302 1.74224329 -0.12732868
v 1.01794028 1.74064815 -0.12536058
v 1.01349151 1.73668516 -0.12360334
v 1.01794028 1.74064815 -0.12536058
v 1.01579440 1.73875248 -0.12408993
vt 0.00000000 0.00000000
vt 0.00000000 0.00000000
vt 0.00000000 0.00000000
vt 0.00000000 0.00000000
vt 0.00000000 0.00000000
vt 0.00000000 0.00000000
vt 0.00000000 0.00000000
vt 0.00000000 0.00000000
vt 0.00000000 0.00000000
vt 0.00000000 0.00000000
vt 0.00000000 0.00000000
vt 0.00000000 0.00000000
vt 0.00000000 0.00000000
vt 0.00000000 0.00000000
vt 0.00000000 0.00000000
vt 0.00000000 0.00000000
vt 0.00000000 0.00000000
vt 0.00000000 0.00000000
vt 0.00000000 0.00000000
vt 0.00000000 0.00000000
vt 0.00000000 0.00000000
vt 0.00000000 0.00000000
vt 0.00000000 0.00000000
vt 0.00000000 0.00000000
vt 0.00000000 0.00000000
vt 0.00000000 0.00000000
vt 0.00000000 0.00000000
vt 0.00000000 0.00000000
vt 0.00000000 0.00000000
vt 0.00000000 0.00000000
vt 0.00000000 0.00000000
vt 0.00000000 0.00000000
vt 0.00000000 0.00000000
vt 0.00000000 0.00000000
vt 0.00000000 0.00000000
vt 0.00000000 0.00000000
vt 0.00000000 0.00000000
vt 0.00000000 0.00000000
vt 0.00000000 0.00000000
vt 0.00000000 0.00000000
vt 0.00000000 0.00000000
vt 0.00000000 0.00000000
vt 0.00000000 0.00000000
vt 0.00000000 0.00000000
vt 0.00000000 0.00000000
vt 0.00000000 0.00000000
vt 0.00000000 0.00000000
vt 0.00000000 0.00000000
vt 0.00000000 0.00000000
vt 0.00000000 0.00000000
vt 0.00000000 0.00000000
vt 0.00000000 0.00000000
vt 0.00000000 0.00000000
vt 0.00000000 0.00000000
vt 0.00000000 0.00000000
vt 0.00000000 0.00000000
vt 0.00000000 0.00000000
vt 0.00000000 0.00000000
vt 0.00000000 0.00000000
vt 0.00000000 0.00000000
vt 0.00000000 0.00000000
vt 0.00000000 0.00000000
vt 0.00000000 0.00000000
vt 0.00000000 0.00000000
vt 0.00000000 0.00000000
vt 0.00000000 0.00000000
vt 0.00000000 0.00000000
vt 0.00000000 0.00000000
vt 0.00000000 0.00000000
vt 0.00000000 0.00000000
vt 0.00000000 0.00000000
vt 0.00000000 0.00000000
vt 0.00000000 0.00000000
vt 0.00000000 0.00000000
vt 0.00000000 0.00000000
vt 0.00000000 0.00000000
vt 0.00000000 0.00000000
vt 0.00000000 0.00000000
vt 0.00000000 0.00000000
vt 0.00000000 0.00000000
vt 0.00000000 0.00000000
vt 0.00000000 0.00000000
vt 0.00000000 0.00000000
vt 0.00000000 0.00000000
vt 0.00000000 0.00000000
vt 0.00000000 0.00000000
vt 0.00000000 0.00000000
vt 0.00000000 0.00000000
vt 0.00000000 0.00000000
vt 0.00000000 0.00000000
vt 0.00000000 0.00000000
vt 0.00000000 0.00000000
vt 0.00000000 0.00000000
vt 0.00000000 0.00000000
vt 0.00000000 0.00000000
vt 0.00000000 0.00000000
vt 0.00000000 0.00000000
vt 0.00000000 0.00000000
vt 0.00000000 0.00000000
vt 0.00000000 0.00000000
vt 0.00000000 0.00000000
vt 0.00000000 0.00000000
vt 0.00000000 0.00000000
vt 0.00000000 0.00000000
vt 0.00000000 0.00000000
vt 0.00000000 0.00000000
vt 0.00000000 0.00000000
vt 0.00000000 0.00000000
vt 0.00000000 0.00000000
vt 0.00000000 0.00000000
vt 0.00000000 0.00000000
vt 0.00000000 0.00000000
vt 0.00000000 0.00000000
vt 0.00000000 0.00000000
vt 0.00000000 0.00000000
vt 0.00000000 0.00000000
vt 0.00000000 0.00000000
vt 0.00000000 0.00000000
vt 0.00000000 0.00000000
vt 0.00000000 0.00000000
vt 0.00000000 0.00000000
vt 0.00000000 0.00000000
vt 0.00000000 0.00000000
vt 0.00000000 0.00000000
vt 0.00000000 0.00000000
vt 0.00000000 0.00000000
vt 0.00000000 0.00000000
vt 0.00000000 0.00000000
vt 0.00000000 0.00000000
vt 0.00000000 0.00000000
vt 0.00000000 0.00000000
vt 0.00000000 0.00000000
vt 0.00000000 0.00000000
vt 0.00000000 0.00000000
vt 0.00000000 0.00000000
vt 0.00000000 0.00000000
vt 0.00000000 0.00000000
vt 0.00000000 0.00000000
vt 0.00000000 0.00000000
vt 0.00000000 0.00000000
vt 0.00000000 0.00000000
vt 0.00000000 0.00000000
vt 0.00000000 0.00000000
vt 0.00000000 0.00000000
vt 0.00000000 0.00000000
vt 0.00000000 0.00000000
vt 0.00000000 0.00000000
vt 0.00000000 0.00000000
vt 0.00000000 0.00000000
vt 0.00000000 0.00000000
vt 0.00000000 0.00000000
vt 0.00000000 0.00000000
vt 0.00000000 0.00000000
vt 0.00000000 0.00000000
vt 0.00000000 0.00000000
vt 0.00000000 0.00000000
vt 0.00000000 0.00000000
vt 0.00000000 0.00000000
vt 0.00000000 0.00000000
vt 0.00000000 0.00000000
vt 0.00000000 0.00000000
vt 0.00000000 0.00000000
vt 0.00000000 0.00000000
vt 0.00000000 0.00000000
vt 0.00000000 0.00000000
vt 0.00000000 0.00000000
vt 0.00000000 0.00000000
vt 0.00000000 0.00000000
vt 0.00000000 0.00000000
vt 0.00000000 0.00000000
vt 0.00000000 0.00000000
vt 0.00000000 0.00000000
vt 0.00000000 0.00000000
vt 0.00000000 0.00000000
vt 0.00000000 0.00000000
vt 0.00000000 0.00000000
vt 0.00000000 0.00000000
vt 0.00000000 0.00000000
vt 0.00000000 0.00000000
vt 0.00000000 0.00000000
vt 0.00000000 0.00000000
vt 0.00000000 0.00000000
vt 0.00000000 0.00000000
vt 0.00000000 0.00000000
vt 0.00000000 0.00000000
vt 0.00000000 0.00000000
vt 0.00000000 0.00000000
vt 0.00000000 0.00000000
vt 0.00000000 0.00000000
vt 0.00000000 0.00000000
vt 0.00000000 0.00000000
vt 0.00000000 0.00000000
vt 0.00000000 0.00000000
vt 0.00000000 0.00000000
vt 0.00000000 0.00000000
vt 0.00000000 0.00000000
vt 0.00000000 0.00000000
vt 0.00000000 0.00000000
vt 0.00000000 0.00000000
vt 0.00000000 0.00000000
vt 0.00000000 0.00000000
vt 0.00000000 0.00000000
vt 0.00000000 0.00000000
vt 0.00000000 0.00000000
vt 0.00000000 0.00000000
vt 0.00000000 0.00000000
vt 0.00000000 0.00000000
vt 0.00000000 0.00000000
vt 0.00000000 0.00000000
vt 0.00000000 0.00000000
vt 0.00000000 0.00000000
vt 0.00000000 0.00000000
vt 0.00000000 0.00000000
vt 0.00000000 0.00000000
vt 0.00000000 0.00000000
vt 0.00000000 0.00000000
vt 0.00000000 0.00000000
vt 0.00000000 0.00000000
vt 0.00000000 0.00000000
vt 0.00000000 0.00000000
vt 0.00000000 0.00000000
vt 0.00000000 0.00000000
vt 0.00000000 0.00000000
vt 0.00000000 0.00000000
vt 0.00000000 0.00000000
vt 0.00000000 0.00000000
vt 0.00000000 0.00000000
vt 0.00000000 0.00000000
vt 0.00000000 0.00000000
vt 0.00000000 0.00000000
vt 0.00000000 0.00000000
vt 0.00000000 0.00000000
vt 0.00000000 0.00000000
vt 0.00000000 0.00000000
vt 0.00000000 0.00000000
vt 0.00000000 0.00000000
vt 0.00000000 0.00000000
vt 0.00000000 0.00000000
vt 0.00000000 0.00000000
vt 0.00000000 0.00000000
vt 0.00000000 0.00000000
vt 0.00000000 0.00000000
vt 0.00000000 0.00000000
vt 0.00000000 0.00000000
vt 0.00000000 0.00000000
vt 0.00000000 0.00000000
vt 0.00000000 0.00000000
vt 0.00000000 0.00000000
vt 0.00000000 0.00000000
vt 0.00000000 0.00000000
vt 0.00000000 0.00000000
vt 0.00000000 0.00000000
vt 0.00000000 0.00000000
vt 0.00000000 0.00000000
vt 0.00000000 0.00000000
vt 0.00000000 0.00000000
vt 0.00000000 0.00000000
vt 0.00000000 0.00000000
vt 0.00000000 0.00000000
vt 0.00000000 0.00000000
vt 0.00000000 0.00000000
vt 0.00000000 0.00000000
vt 0.00000000 0.00000000
vt 0.00000000 0.00000000
vt 0.00000000 0.00000000
vt 0.00000000 0.00000000
vt 0.00000000 0.00000000
vt 0.00000000 0.00000000
vt 0.00000000 0.00000000
vt 0.00000000 0.00000000
vt 0.00000000 0.00000000
vt 0.00000000 0.00000000
vt 0.00000000 0.00000000
vt 0.00000000 0.00000000
vt 0.00000000 0.00000000
vt 0.00000000 0.00000000
f 1/1 2/2 3/3
f 4/4 5/5 6/6
f 7/7 8/8 9/9
f 10/10 11/11 12/12
f 13/13 14/14 15/15
f 16/16 17/17 18/18
f 19/19 20/20 21/21
f 22/22 23/23 24/24
f 25/25 26/26 27/27
f 28/28 29/29 30/30
f 31/31 32/32 33/33
f 34/34 35/35 36/36
f 37/37 38/38 39/39
f 40/40 41/41 42/42
f 43/43 44/44 45/45
f 46/46 47/47 48/48
f 49/49 50/50 51/51
f 52/52 53/53 54/54
f 55/55 56/56 57/57
f 58/58 59/59 60/60
f 61/61 62/62 63/63
f 64/64 65/65 66/66
f 67/67 68/68 69/69
f 70/70 71/71 72/72
f 73/73 74/74 75/75
f 76/76 77/77 78/78
f 79/79 80/80 81/81
f 82/82 83/83 84/84
f 85/85 86/86 87/87
f 88/88 89/89 90/90
f 91/91 92/92 93/93
f 94/94 95/95 96/96
f 97/97 98/98 99/99
f 100/100 101/101 102/102
f 103/103 104/104 105/105
f 106/106 107/107 108/108
f 109/109 110/110 111/111
f 112/112 113/113 114/114
f 115/115 116/116 117/117
f 118/118 119/119 120/120
f 121/121 122/122 123/123
f 124/124 125/125 126/126
f 127/127 128/128 129/129
f 130/130 131/131 132/132
f 133/133 134/134 135/135
f 136/136 137/137 138/138
f 139/139 140/140 141/141
f 142/142 143/143 144/144
f 145/145 146/146 147/147
f 148/148 149/149 150/150
f 151/151 152/152 153/153
f 154/154 155/155 156/156
f 157/157 158/158 159/159
f 160/160 161/161 162/162
f 163/163 164/164 165/165
f 166/166 167/167 168/168
f 169/169 170/170 171/171
f 172/172 173/173 174/174
f 175/175 176/176 177/177
f 178/178 179/179 180/180
f 181/181 182/182 183/183
f 184/184 185/185 186/186
f 187/187 188/188 189/189
f 190/190 191/191 192/192
f 193/193 194/194 195/195
f 196/196 197/197 198/198
f 199/199 200/200 201/201
f 202/202 203/203 204/204
f 205/205 206/206 207/207
f 208/208 209/209 210/210
f 211/211 212/212 213/213
f 214/214 215/215 216/216
f 217/217 218/218 219/219
f 220/220 221/221 222/222
f 223/223 224/224 225/225
f 226/226 227/227 228/228
f 229/229 230/230 231/231
f 232/232 233/233 234/234
f 235/235 236/236 237/237
f 238/238 239/239 240/240
f 241/241 242/242 243/243
f 244/244 245/245 246/246
f 247/247 248/248 249/249
f 250/250 251/251 252/252
f 253/253 254/254 255/255
f 256/256 257/257 258/258
f 259/259 260/260 261/261
f 262/262 263/263 264/264
f 265/265 266/266 267/267
f 268/268 269/269 270/270
f 271/271 272/272 273/273
f 274/274 275/275 276/276

