# https://github.com/mikedh/trimesh
mtllib material.mtl
usemtl WarmWhitePaint
v 8.14960003 -0.01473644 -1.28052819
v 5.93862724 -2.07554364 -1.28052819
v 5.90112686 -2.03531051 -1.28052819
v 8.14960003 -0.01473644 -1.28052819
v 5.90112686 -2.03531051 -1.28052819
v 8.11209965 0.02549672 -1.28052819
v 8.11209965 0.02549672 -1.24552822
v 5.90112686 -2.03531051 -1.24552822
v 5.93862724 -2.07554364 -1.24552822
v 8.11209965 0.02549672 -1.24552822
v 5.93862724 -2.07554364 -1.24552822
v 8.14960003 -0.01473644 -1.24552822
v 8.11209965 0.02549672 -1.28052819
v 5.90112686 -2.03531051 -1.28052819
v 5.90112686 -2.03531051 -1.24552822
v 8.11209965 0.02549672 -1.28052819
v 5.90112686 -2.03531051 -1.24552822
v 8.11209965 0.02549672 -1.24552822
v 5.90112686 -2.03531051 -1.28052819
v 5.93862724 -2.07554364 -1.28052819
v 5.93862724 -2.07554364 -1.24552822
v 5.90112686 -2.03531051 -1.28052819
v 5.93862724 -2.07554364 -1.24552822
v 5.90112686 -2.03531051 -1.24552822
v 5.93862724 -2.07554364 -1.28052819
v 8.14960003 -0.01473644 -1.28052819
v 8.14960003 -0.01473644 -1.24552822
v 5.93862724 -2.07554364 -1.28052819
v 8.14960003 -0.01473644 -1.24552822
v 5.93862724 -2.07554364 -1.24552822
v 8.14960003 -0.01473644 -1.28052819
v 8.11209965 0.02549672 -1.28052819
v 8.11209965 0.02549672 -1.24552822
v 8.14960003 -0.01473644 -1.28052819
v 8.11209965 0.02549672 -1.24552822
v 8.14960003 -0.01473644 -1.24552822
vt -3.35830045 0.06111109
vt 3.35830045 0.06111109
vt 3.35830045 -0.06111109
vt -3.35830045 0.06111109
vt 3.35830045 -0.06111109
vt -3.35830045 -0.06111109
vt -3.35830045 -0.06111109
vt 3.35830045 -0.06111109
vt 3.35830045 0.06111109
vt -3.35830045 -0.06111109
vt 3.35830045 0.06111109
vt -3.35830045 0.06111109
vt -3.35830045 -0.03888893
vt 3.35830045 -0.03888893
vt 3.35830045 0.03888887
vt -3.35830045 -0.03888893
vt 3.35830045 0.03888887
vt -3.35830045 0.03888887
vt -0.06111111 -0.03888893
vt 0.06111111 -0.03888893
vt 0.06111111 0.03888887
vt -0.06111111 -0.03888893
vt 0.06111111 0.03888887
vt -0.06111111 0.03888887
vt 3.35830045 -0.03888893
vt -3.35830045 -0.03888893
vt -3.35830045 0.03888887
vt 3.35830045 -0.03888893
vt -3.35830045 0.03888887
vt 3.35830045 0.03888887
vt 0.06111111 -0.03888893
vt -0.06111111 -0.03888893
vt -0.06111111 0.03888887
vt 0.06111111 -0.03888893
vt -0.06111111 0.03888887
vt 0.06111111 0.03888887
f 1/1 2/2 3/3
f 4/4 5/5 6/6
f 7/7 8/8 9/9
f 10/10 11/11 12/12
f 13/13 14/14 15/15
f 16/16 17/17 18/18
f 19/19 20/20 21/21
f 22/22 23/23 24/24
f 25/25 26/26 27/27
f 28/28 29/29 30/30
f 31/31 32/32 33/33
f 34/34 35/35 36/36

