# https://github.com/mikedh/trimesh
mtllib material.mtl
usemtl EgoWarmWhite
v -0.036999036 0.002636502 -0.03197359
v 0.02166567 0.027899052 -0.03603427
v 0.04992027 -0.037712646 -0.03601389
v -0.036999036 0.002636502 -0.03197359
v 0.04992027 -0.037712646 -0.03601389
v -0.00874443 -0.06297519 -0.0319532
v -0.03557682 0.003256632 0.03581409
v -0.007322214 -0.06235521 0.03583448
v 0.051342486 -0.03709266 0.03177379
v -0.03557682 0.003256632 0.03581409
v 0.051342486 -0.03709266 0.03177379
v 0.02308788 0.028519032 0.03175341
v -0.036999036 0.002636502 -0.03197359
v -0.00874443 -0.06297519 -0.0319532
v -0.007322214 -0.06235521 0.03583448
v -0.036999036 0.002636502 -0.03197359
v -0.007322214 -0.06235521 0.03583448
v -0.03557682 0.003256632 0.03581409
v -0.00874443 -0.06297519 -0.0319532
v 0.04992027 -0.037712646 -0.03601389
v 0.051342486 -0.03709266 0.03177379
v -0.00874443 -0.06297519 -0.0319532
v 0.051342486 -0.03709266 0.03177379
v -0.007322214 -0.06235521 0.03583448
v 0.04992027 -0.037712646 -0.03601389
v 0.02166567 0.027899052 -0.03603427
v 0.02308788 0.028519032 0.03175341
v 0.04992027 -0.037712646 -0.03601389
v 0.02308788 0.028519032 0.03175341
v 0.051342486 -0.03709266 0.03177379
v -0.036999036 0.002636502 -0.03197359
v -0.03557682 0.003256632 0.03581409
v -0.051015186 0.036988662 -0.00080185
v 0.02166567 0.027899052 -0.03603427
v 0.007649802 0.062251068 -0.00486253
v 0.02308788 0.028519032 0.03175341
v -0.03557682 0.003256632 0.03581409
v 0.02308788 0.028519032 0.03175341
v 0.007649802 0.062251068 -0.00486253
v -0.03557682 0.003256632 0.03581409
v 0.007649802 0.062251068 -0.00486253
v -0.051015186 0.036988662 -0.00080185
v -0.036999036 0.002636502 -0.03197359
v -0.051015186 0.036988662 -0.00080185
v 0.007649802 0.062251068 -0.00486253
v -0.036999036 0.002636502 -0.03197359
v 0.007649802 0.062251068 -0.00486253
v 0.02166567 0.027899052 -0.03603427
vt 0.00000000 0.00000000
vt 0.00000000 0.00000000
vt 0.00000000 0.00000000
vt 0.00000000 0.00000000
vt 0.00000000 0.00000000
vt 0.00000000 0.00000000
vt 0.00000000 0.00000000
vt 0.00000000 0.00000000
vt 0.00000000 0.00000000
vt 0.00000000 0.00000000
vt 0.00000000 0.00000000
vt 0.00000000 0.00000000
vt 0.00000000 0.00000000
vt 0.00000000 0.00000000
vt 0.00000000 0.00000000
vt 0.00000000 0.00000000
vt 0.00000000 0.00000000
vt 0.00000000 0.00000000
vt 0.00000000 0.00000000
vt 0.00000000 0.00000000
vt 0.00000000 0.00000000
vt 0.00000000 0.00000000
vt 0.00000000 0.00000000
vt 0.00000000 0.00000000
vt 0.00000000 0.00000000
vt 0.00000000 0.00000000
vt 0.00000000 0.00000000
vt 0.00000000 0.00000000
vt 0.00000000 0.00000000
vt 0.00000000 0.00000000
vt 0.00000000 0.00000000
vt 0.00000000 0.00000000
vt 0.00000000 0.00000000
vt 0.00000000 0.00000000
vt 0.00000000 0.00000000
vt 0.00000000 0.00000000
vt 0.00000000 0.00000000
vt 0.00000000 0.00000000
vt 0.00000000 0.00000000
vt 0.00000000 0.00000000
vt 0.00000000 0.00000000
vt 0.00000000 0.00000000
vt 0.00000000 0.00000000
vt 0.00000000 0.00000000
vt 0.00000000 0.00000000
vt 0.00000000 0.00000000
vt 0.00000000 0.00000000
vt 0.00000000 0.00000000
f 1/1 2/2 3/3
f 4/4 5/5 6/6
f 7/7 8/8 9/9
f 10/10 11/11 12/12
f 13/13 14/14 15/15
f 16/16 17/17 18/18
f 19/19 20/20 21/21
f 22/22 23/23 24/24
f 25/25 26/26 27/27
f 28/28 29/29 30/30
f 31/31 32/32 33/33
f 34/34 35/35 36/36
f 37/37 38/38 39/39
f 40/40 41/41 42/42
f 43/43 44/44 45/45
f 46/46 47/47 48/48

