# https://github.com/mikedh/trimesh
mtllib material.mtl
usemtl PaleWood
v 0.64991063 -1.62834239 -0.53612071
v 0.63834625 -1.61455214 -0.53581297
v 1.28834903 -1.06941700 -0.53810227
v 0.64991063 -1.62834239 -0.53612071
v 1.28834903 -1.06941700 -0.53810227
v 1.29991341 -1.08320725 -0.53841007
v 1.30291617 -1.08582187 -0.30844453
v 1.29135180 -1.07203162 -0.30813676
v 0.64134908 -1.61716676 -0.30584741
v 1.30291617 -1.08582187 -0.30844453
v 0.64134908 -1.61716676 -0.30584741
v 0.65291339 -1.63095713 -0.30615520
v 1.29991341 -1.08320725 -0.53841007
v 1.28834903 -1.06941700 -0.53810227
v 1.29135180 -1.07203162 -0.30813676
v 1.29991341 -1.08320725 -0.53841007
v 1.29135180 -1.07203162 -0.30813676
v 1.30291617 -1.08582187 -0.30844453
v 1.28834903 -1.06941700 -0.53810227
v 0.63834625 -1.61455214 -0.53581297
v 0.64134908 -1.61716676 -0.30584741
v 1.28834903 -1.06941700 -0.53810227
v 0.64134908 -1.61716676 -0.30584741
v 1.29135180 -1.07203162 -0.30813676
v 0.63834625 -1.61455214 -0.53581297
v 0.64991063 -1.62834239 -0.53612071
v 0.65291339 -1.63095713 -0.30615520
v 0.63834625 -1.61455214 -0.53581297
v 0.65291339 -1.63095713 -0.30615520
v 0.64134908 -1.61716676 -0.30584741
v 0.64991063 -1.62834239 -0.53612071
v 1.29991341 -1.08320725 -0.53841007
v 1.30291617 -1.08582187 -0.30844453
v 0.64991063 -1.62834239 -0.53612071
v 1.30291617 -1.08582187 -0.30844453
v 0.65291339 -1.63095713 -0.30615520
vt -0.02000000 0.94260031
vt 0.02000000 0.94260031
vt 0.02000000 -0.94260025
vt -0.02000000 0.94260031
vt 0.02000000 -0.94260025
vt -0.02000000 -0.94260025
vt -0.02000000 -0.94260025
vt 0.02000000 -0.94260025
vt 0.02000000 0.94260031
vt -0.02000000 -0.94260025
vt 0.02000000 0.94260031
vt -0.02000000 0.94260031
vt -0.02000000 -0.25555563
vt 0.02000000 -0.25555563
vt 0.02000000 0.25555557
vt -0.02000000 -0.25555563
vt 0.02000000 0.25555557
vt -0.02000000 0.25555557
vt -0.94260031 -0.25555563
vt 0.94260031 -0.25555563
vt 0.94260031 0.25555557
vt -0.94260031 -0.25555563
vt 0.94260031 0.25555557
vt -0.94260031 0.25555557
vt 0.02000000 -0.25555563
vt -0.02000000 -0.25555563
vt -0.02000000 0.25555557
vt 0.02000000 -0.25555563
vt -0.02000000 0.25555557
vt 0.02000000 0.25555557
vt 0.94260031 -0.25555563
vt -0.94260031 -0.25555563
vt -0.94260031 0.25555557
vt 0.94260031 -0.25555563
vt -0.94260031 0.25555557
vt 0.94260031 0.25555557
f 1/1 2/2 3/3
f 4/4 5/5 6/6
f 7/7 8/8 9/9
f 10/10 11/11 12/12
f 13/13 14/14 15/15
f 16/16 17/17 18/18
f 19/19 20/20 21/21
f 22/22 23/23 24/24
f 25/25 26/26 27/27
f 28/28 29/29 30/30
f 31/31 32/32 33/33
f 34/34 35/35 36/36

