# https://github.com/mikedh/trimesh
mtllib material.mtl
usemtl BrushedSteel
v 2.04458022 1.98122489 -0.46511844
v 2.38779044 2.29706287 -0.46511844
v 2.39997888 2.28381824 -0.46528444
v 2.04458022 1.98122489 -0.46511844
v 2.39997888 2.28381824 -0.46528444
v 2.05676842 1.96798027 -0.46528444
v 2.06348038 1.96068668 0.60951209
v 2.40669084 2.27652454 0.60951209
v 2.39450240 2.28976917 0.60967809
v 2.06348038 1.96068668 0.60951209
v 2.39450240 2.28976917 0.60967809
v 2.05129218 1.97393119 0.60967809
v 2.05676842 1.96798027 -0.46528444
v 2.39997888 2.28381824 -0.46528444
v 2.40669084 2.27652454 0.60951209
v 2.05676842 1.96798027 -0.46528444
v 2.40669084 2.27652454 0.60951209
v 2.06348038 1.96068668 0.60951209
v 2.39997888 2.28381824 -0.46528444
v 2.38779044 2.29706287 -0.46511844
v 2.39450240 2.28976917 0.60967809
v 2.39997888 2.28381824 -0.46528444
v 2.39450240 2.28976917 0.60967809
v 2.40669084 2.27652454 0.60951209
v 2.38779044 2.29706287 -0.46511844
v 2.04458022 1.98122489 -0.46511844
v 2.05129218 1.97393119 0.60967809
v 2.38779044 2.29706287 -0.46511844
v 2.05129218 1.97393119 0.60967809
v 2.39450240 2.28976917 0.60967809
v 2.04458022 1.98122489 -0.46511844
v 2.05676842 1.96798027 -0.46528444
v 2.06348038 1.96068668 0.60951209
v 2.04458022 1.98122489 -0.46511844
v 2.06348038 1.96068668 0.60951209
v 2.05129218 1.97393119 0.60967809
vt -0.51824361 0.01999998
vt 0.51824361 0.01999998
vt 0.51824361 -0.01999998
vt -0.51824361 0.01999998
vt 0.51824361 -0.01999998
vt -0.51824361 -0.01999998
vt -0.51824361 -0.01999998
vt 0.51824361 -0.01999998
vt 0.51824361 0.01999998
vt -0.51824361 -0.01999998
vt 0.51824361 0.01999998
vt -0.51824361 0.01999998
vt -0.51824361 -1.19426918
vt 0.51824361 -1.19426918
vt 0.51824361 1.19426918
vt -0.51824361 -1.19426918
vt 0.51824361 1.19426918
vt -0.51824361 1.19426918
vt -0.02000000 -1.19426918
vt 0.02000000 -1.19426918
vt 0.02000000 1.19426918
vt -0.02000000 -1.19426918
vt 0.02000000 1.19426918
vt -0.02000000 1.19426918
vt 0.51824361 -1.19426918
vt -0.51824361 -1.19426918
vt -0.51824361 1.19426918
vt 0.51824361 -1.19426918
vt -0.51824361 1.19426918
vt 0.51824361 1.19426918
vt 0.02000000 -1.19426918
vt -0.02000000 -1.19426918
vt -0.02000000 1.19426918
vt 0.02000000 -1.19426918
vt -0.02000000 1.19426918
vt 0.02000000 1.19426918
f 1/1 2/2 3/3
f 4/4 5/5 6/6
f 7/7 8/8 9/9
f 10/10 11/11 12/12
f 13/13 14/14 15/15
f 16/16 17/17 18/18
f 19/19 20/20 21/21
f 22/22 23/23 24/24
f 25/25 26/26 27/27
f 28/28 29/29 30/30
f 31/31 32/32 33/33
f 34/34 35/35 36/36

