# https://github.com/mikedh/trimesh
mtllib material.mtl
usemtl DarkRecess
v -0.63081568 0.68128896 -0.06540725
v -0.62929678 0.68258995 -0.06538569
v -0.62994725 0.68334943 -0.06539448
v -0.63081568 0.68128896 -0.06540725
v -0.62994725 0.68334943 -0.06539448
v -0.63146609 0.68204850 -0.06541605
v -0.63175946 0.68188977 -0.05742300
v -0.63024056 0.68319070 -0.05740144
v -0.62959015 0.68243122 -0.05739265
v -0.63175946 0.68188977 -0.05742300
v -0.62959015 0.68243122 -0.05739265
v -0.63110906 0.68113023 -0.05741421
v -0.63146609 0.68204850 -0.06541605
v -0.62994725 0.68334943 -0.06539448
v -0.63024056 0.68319070 -0.05740144
v -0.63146609 0.68204850 -0.06541605
v -0.63024056 0.68319070 -0.05740144
v -0.63175946 0.68188977 -0.05742300
v -0.62994725 0.68334943 -0.06539448
v -0.62929678 0.68258995 -0.06538569
v -0.62959015 0.68243122 -0.05739265
v -0.62994725 0.68334943 -0.06539448
v -0.62959015 0.68243122 -0.05739265
v -0.63024056 0.68319070 -0.05740144
v -0.62929678 0.68258995 -0.06538569
v -0.63081568 0.68128896 -0.06540725
v -0.63110906 0.68113023 -0.05741421
v -0.62929678 0.68258995 -0.06538569
v -0.63110906 0.68113023 -0.05741421
v -0.62959015 0.68243122 -0.05739265
v -0.63081568 0.68128896 -0.06540725
v -0.63146609 0.68204850 -0.06541605
v -0.63175946 0.68188977 -0.05742300
v -0.63081568 0.68128896 -0.06540725
v -0.63175946 0.68188977 -0.05742300
v -0.63110906 0.68113023 -0.05741421
vt 0.00000000 0.00000000
vt 0.00000000 0.00000000
vt 0.00000000 0.00000000
vt 0.00000000 0.00000000
vt 0.00000000 0.00000000
vt 0.00000000 0.00000000
vt 0.00000000 0.00000000
vt 0.00000000 0.00000000
vt 0.00000000 0.00000000
vt 0.00000000 0.00000000
vt 0.00000000 0.00000000
vt 0.00000000 0.00000000
vt 0.00000000 0.00000000
vt 0.00000000 0.00000000
vt 0.00000000 0.00000000
vt 0.00000000 0.00000000
vt 0.00000000 0.00000000
vt 0.00000000 0.00000000
vt 0.00000000 0.00000000
vt 0.00000000 0.00000000
vt 0.00000000 0.00000000
vt 0.00000000 0.00000000
vt 0.00000000 0.00000000
vt 0.00000000 0.00000000
vt 0.00000000 0.00000000
vt 0.00000000 0.00000000
vt 0.00000000 0.00000000
vt 0.00000000 0.00000000
vt 0.00000000 0.00000000
vt 0.00000000 0.00000000
vt 0.00000000 0.00000000
vt 0.00000000 0.00000000
vt 0.00000000 0.00000000
vt 0.00000000 0.00000000
vt 0.00000000 0.00000000
vt 0.00000000 0.00000000
f 1/1 2/2 3/3
f 4/4 5/5 6/6
f 7/7 8/8 9/9
f 10/10 11/11 12/12
f 13/13 14/14 15/15
f 16/16 17/17 18/18
f 19/19 20/20 21/21
f 22/22 23/23 24/24
f 25/25 26/26 27/27
f 28/28 29/29 30/30
f 31/31 32/32 33/33
f 34/34 35/35 36/36

