# https://github.com/mikedh/trimesh
mtllib material.mtl
usemtl BrushedSteel
v 5.85226011 3.67052412 0.60383004
v 5.39665127 3.27784085 0.60031307
v 5.39624977 3.27749491 0.69091320
v 5.85226011 3.67052412 0.60383004
v 5.39624977 3.27749491 0.69091320
v 5.62021828 3.47053003 1.04991245
v 5.85226011 3.67052412 0.60383004
v 5.62021828 3.47053003 1.04991245
v 5.85027647 3.66881442 1.05168831
v 6.53433275 2.87514138 1.05168831
v 6.30427456 2.67685699 1.04991245
v 6.08030653 2.48382187 0.69091320
v 6.53433275 2.87514138 1.05168831
v 6.08030653 2.48382187 0.69091320
v 6.08070755 2.48416781 0.60031307
v 6.53433275 2.87514138 1.05168831
v 6.08070755 2.48416781 0.60031307
v 6.53631639 2.87685108 0.60383004
v 5.85027647 3.66881442 1.05168831
v 5.62021828 3.47053003 1.04991245
v 6.30427456 2.67685699 1.04991245
v 5.85027647 3.66881442 1.05168831
v 6.30427456 2.67685699 1.04991245
v 6.53433275 2.87514138 1.05168831
v 5.62021828 3.47053003 1.04991245
v 5.39624977 3.27749491 0.69091320
v 6.08030653 2.48382187 0.69091320
v 5.62021828 3.47053003 1.04991245
v 6.08030653 2.48382187 0.69091320
v 6.30427456 2.67685699 1.04991245
v 5.39624977 3.27749491 0.69091320
v 5.39665127 3.27784085 0.60031307
v 6.08070755 2.48416781 0.60031307
v 5.39624977 3.27749491 0.69091320
v 6.08070755 2.48416781 0.60031307
v 6.08030653 2.48382187 0.69091320
v 5.39665127 3.27784085 0.60031307
v 5.85226011 3.67052412 0.60383004
v 6.53631639 2.87685108 0.60383004
v 5.39665127 3.27784085 0.60031307
v 6.53631639 2.87685108 0.60383004
v 6.08070755 2.48416781 0.60031307
v 5.85226011 3.67052412 0.60383004
v 5.85027647 3.66881442 1.05168831
v 6.53433275 2.87514138 1.05168831
v 5.85226011 3.67052412 0.60383004
v 6.53433275 2.87514138 1.05168831
v 6.53631639 2.87685108 0.60383004
vt 0.00000000 1.25308394
vt -1.33664739 1.25308394
vt -1.33664739 1.45442104
vt 0.00000000 1.25308394
vt -1.33664739 1.45442104
vt -0.67493606 2.24834156
vt 0.00000000 1.25308394
vt -0.67493606 2.24834156
vt 0.00000000 2.24834156
vt 0.00000000 2.24834156
vt -0.67493606 2.24834156
vt -1.33664739 1.45442104
vt 0.00000000 2.24834156
vt -1.33664739 1.45442104
vt -1.33664739 1.25308394
vt 0.00000000 2.24834156
vt -1.33664739 1.25308394
vt 0.00000000 1.25308394
vt -1.16420376 0.00000000
vt -1.16420376 -0.67493606
vt 1.16420376 -0.67493606
vt -1.16420376 0.00000000
vt 1.16420376 -0.67493606
vt 1.16420376 0.00000000
vt -1.16420376 2.24834156
vt -1.16420376 1.45442104
vt 1.16420376 1.45442104
vt -1.16420376 2.24834156
vt 1.16420376 1.45442104
vt 1.16420376 2.24834156
vt -1.16420376 1.45442104
vt -1.16420376 1.25308394
vt 1.16420376 1.25308394
vt -1.16420376 1.45442104
vt 1.16420376 1.25308394
vt 1.16420376 1.45442104
vt -1.16420376 -1.33664751
vt -1.16420376 0.00000000
vt 1.16420376 0.00000000
vt -1.16420376 -1.33664751
vt 1.16420376 0.00000000
vt 1.16420376 -1.33664751
vt -1.16420376 1.25308394
vt -1.16420376 2.24834156
vt 1.16420376 2.24834156
vt -1.16420376 1.25308394
vt 1.16420376 2.24834156
vt 1.16420376 1.25308394
f 1/1 2/2 3/3
f 4/4 5/5 6/6
f 7/7 8/8 9/9
f 10/10 11/11 12/12
f 13/13 14/14 15/15
f 16/16 17/17 18/18
f 19/19 20/20 21/21
f 22/22 23/23 24/24
f 25/25 26/26 27/27
f 28/28 29/29 30/30
f 31/31 32/32 33/33
f 34/34 35/35 36/36
f 37/37 38/38 39/39
f 40/40 41/41 42/42
f 43/43 44/44 45/45
f 46/46 47/47 48/48

