# https://github.com/mikedh/trimesh
mtllib material.mtl
usemtl DarkRecess
v -0.06748540 0.92405593 -0.19334848
v -0.01919060 0.96541798 -0.19296151
v -0.01463764 0.96010131 -0.19290000
v -0.06748540 0.92405593 -0.19334848
v -0.01463764 0.96010131 -0.19290000
v -0.06293245 0.91873926 -0.19328697
v -0.06365352 0.91837221 -0.17164306
v -0.01535872 0.95973426 -0.17125611
v -0.01991167 0.96505088 -0.17131762
v -0.06365352 0.91837221 -0.17164306
v -0.01991167 0.96505088 -0.17131762
v -0.06820647 0.92368883 -0.17170459
v -0.06293245 0.91873926 -0.19328697
v -0.01463764 0.96010131 -0.19290000
v -0.01535872 0.95973426 -0.17125611
v -0.06293245 0.91873926 -0.19328697
v -0.01535872 0.95973426 -0.17125611
v -0.06365352 0.91837221 -0.17164306
v -0.01463764 0.96010131 -0.19290000
v -0.01919060 0.96541798 -0.19296151
v -0.01991167 0.96505088 -0.17131762
v -0.01463764 0.96010131 -0.19290000
v -0.01991167 0.96505088 -0.17131762
v -0.01535872 0.95973426 -0.17125611
v -0.01919060 0.96541798 -0.19296151
v -0.06748540 0.92405593 -0.19334848
v -0.06820647 0.92368883 -0.17170459
v -0.01919060 0.96541798 -0.19296151
v -0.06820647 0.92368883 -0.17170459
v -0.01991167 0.96505088 -0.17131762
v -0.06748540 0.92405593 -0.19334848
v -0.06293245 0.91873926 -0.19328697
v -0.06365352 0.91837221 -0.17164306
v -0.06748540 0.92405593 -0.19334848
v -0.06365352 0.91837221 -0.17164306
v -0.06820647 0.92368883 -0.17170459
vt 0.00000000 0.00000000
vt 0.00000000 0.00000000
vt 0.00000000 0.00000000
vt 0.00000000 0.00000000
vt 0.00000000 0.00000000
vt 0.00000000 0.00000000
vt 0.00000000 0.00000000
vt 0.00000000 0.00000000
vt 0.00000000 0.00000000
vt 0.00000000 0.00000000
vt 0.00000000 0.00000000
vt 0.00000000 0.00000000
vt 0.00000000 0.00000000
vt 0.00000000 0.00000000
vt 0.00000000 0.00000000
vt 0.00000000 0.00000000
vt 0.00000000 0.00000000
vt 0.00000000 0.00000000
vt 0.00000000 0.00000000
vt 0.00000000 0.00000000
vt 0.00000000 0.00000000
vt 0.00000000 0.00000000
vt 0.00000000 0.00000000
vt 0.00000000 0.00000000
vt 0.00000000 0.00000000
vt 0.00000000 0.00000000
vt 0.00000000 0.00000000
vt 0.00000000 0.00000000
vt 0.00000000 0.00000000
vt 0.00000000 0.00000000
vt 0.00000000 0.00000000
vt 0.00000000 0.00000000
vt 0.00000000 0.00000000
vt 0.00000000 0.00000000
vt 0.00000000 0.00000000
vt 0.00000000 0.00000000
f 1/1 2/2 3/3
f 4/4 5/5 6/6
f 7/7 8/8 9/9
f 10/10 11/11 12/12
f 13/13 14/14 15/15
f 16/16 17/17 18/18
f 19/19 20/20 21/21
f 22/22 23/23 24/24
f 25/25 26/26 27/27
f 28/28 29/29 30/30
f 31/31 32/32 33/33
f 34/34 35/35 36/36

