# https://github.com/mikedh/trimesh
mtllib material.mtl
usemtl PaleWood
v 1.55495918 1.84617674 -0.51539677
v 1.87443411 2.12423921 -0.51539677
v 1.88625002 2.11066341 -0.51568097
v 1.55495918 1.84617674 -0.51539677
v 1.88625002 2.11066341 -0.51568097
v 1.56677508 1.83260095 -0.51568097
v 1.56783557 1.83138251 -0.35768682
v 1.88731050 2.10944486 -0.36188906
v 1.87549460 2.12302065 -0.36239228
v 1.56783557 1.83138251 -0.35768682
v 1.87549460 2.12302065 -0.36239228
v 1.55601966 1.84495831 -0.35819003
v 1.56677508 1.83260095 -0.51568097
v 1.88625002 2.11066341 -0.51568097
v 1.88731050 2.10944486 -0.36188906
v 1.56677508 1.83260095 -0.51568097
v 1.88731050 2.10944486 -0.36188906
v 1.56783557 1.83138251 -0.35768682
v 1.88625002 2.11066341 -0.51568097
v 1.87443411 2.12423921 -0.51539677
v 1.87549460 2.12302065 -0.36239228
v 1.88625002 2.11066341 -0.51568097
v 1.87549460 2.12302065 -0.36239228
v 1.88731050 2.10944486 -0.36188906
v 1.87443411 2.12423921 -0.51539677
v 1.55495918 1.84617674 -0.51539677
v 1.55601966 1.84495831 -0.35819003
v 1.87443411 2.12423921 -0.51539677
v 1.55601966 1.84495831 -0.35819003
v 1.87549460 2.12302065 -0.36239228
v 1.55495918 1.84617674 -0.51539677
v 1.56677508 1.83260095 -0.51568097
v 1.56783557 1.83138251 -0.35768682
v 1.55495918 1.84617674 -0.51539677
v 1.56783557 1.83138251 -0.35768682
v 1.55601966 1.84495831 -0.35819003
vt -0.47059584 0.01999998
vt 0.47059584 0.01999998
vt 0.47059584 -0.01999998
vt -0.47059584 0.01999998
vt 0.47059584 -0.01999998
vt -0.47059584 -0.01999998
vt -0.47059584 -0.01999998
vt 0.47059584 -0.01999998
vt 0.47059584 0.01999998
vt -0.47059584 -0.01999998
vt 0.47059584 0.01999998
vt -0.47059584 0.01999998
vt -0.47059584 -0.11367714
vt 0.47059584 -0.11367714
vt 0.47059584 0.11367714
vt -0.47059584 -0.11367714
vt 0.47059584 0.11367714
vt -0.47059584 0.11367714
vt -0.02000000 -0.11367714
vt 0.02000000 -0.11367714
vt 0.02000000 0.11367714
vt -0.02000000 -0.11367714
vt 0.02000000 0.11367714
vt -0.02000000 0.11367714
vt 0.47059584 -0.11367714
vt -0.47059584 -0.11367714
vt -0.47059584 0.11367714
vt 0.47059584 -0.11367714
vt -0.47059584 0.11367714
vt 0.47059584 0.11367714
vt 0.02000000 -0.11367714
vt -0.02000000 -0.11367714
vt -0.02000000 0.11367714
vt 0.02000000 -0.11367714
vt -0.02000000 0.11367714
vt 0.02000000 0.11367714
f 1/1 2/2 3/3
f 4/4 5/5 6/6
f 7/7 8/8 9/9
f 10/10 11/11 12/12
f 13/13 14/14 15/15
f 16/16 17/17 18/18
f 19/19 20/20 21/21
f 22/22 23/23 24/24
f 25/25 26/26 27/27
f 28/28 29/29 30/30
f 31/31 32/32 33/33
f 34/34 35/35 36/36

