# https://github.com/mikedh/trimesh
mtllib material.mtl
usemtl PaleWood
v 3.82361126 3.83212495 -1.05875361
v 4.44569206 4.37356758 -1.05875361
v 4.45750809 4.35999155 -1.05903780
v 3.82361126 3.83212495 -1.05875361
v 4.45750809 4.35999155 -1.05903780
v 3.83542728 3.81854916 -1.05903780
v 3.84236622 3.81057668 -0.38967374
v 4.46444702 4.35201931 -0.38967374
v 4.45263100 4.36559486 -0.38938957
v 3.84236622 3.81057668 -0.38967374
v 4.45263100 4.36559486 -0.38938957
v 3.83055019 3.82415223 -0.38938957
v 3.83542728 3.81854916 -1.05903780
v 4.45750809 4.35999155 -1.05903780
v 4.46444702 4.35201931 -0.38967374
v 3.83542728 3.81854916 -1.05903780
v 4.46444702 4.35201931 -0.38967374
v 3.84236622 3.81057668 -0.38967374
v 4.45750809 4.35999155 -1.05903780
v 4.44569206 4.37356758 -1.05875361
v 4.45263100 4.36559486 -0.38938957
v 4.45750809 4.35999155 -1.05903780
v 4.45263100 4.36559486 -0.38938957
v 4.46444702 4.35201931 -0.38967374
v 4.44569206 4.37356758 -1.05875361
v 3.82361126 3.83212495 -1.05875361
v 3.83055019 3.82415223 -0.38938957
v 4.44569206 4.37356758 -1.05875361
v 3.83055019 3.82415223 -0.38938957
v 4.45263100 4.36559486 -0.38938957
v 3.82361126 3.83212495 -1.05875361
v 3.83542728 3.81854916 -1.05903780
v 3.84236622 3.81057668 -0.38967374
v 3.82361126 3.83212495 -1.05875361
v 3.84236622 3.81057668 -0.38967374
v 3.83055019 3.82415223 -0.38938957
vt -0.91634321 0.01999998
vt 0.91634321 0.01999998
vt 0.91634321 -0.01999998
vt -0.91634321 0.01999998
vt 0.91634321 -0.01999998
vt -0.91634321 -0.01999998
vt -0.91634321 -0.01999998
vt 0.91634321 -0.01999998
vt 0.91634321 0.01999998
vt -0.91634321 -0.01999998
vt 0.91634321 0.01999998
vt -0.91634321 0.01999998
vt -0.91634321 -0.74383056
vt 0.91634321 -0.74383056
vt 0.91634321 0.74383056
vt -0.91634321 -0.74383056
vt 0.91634321 0.74383056
vt -0.91634321 0.74383056
vt -0.02000000 -0.74383056
vt 0.02000000 -0.74383056
vt 0.02000000 0.74383056
vt -0.02000000 -0.74383056
vt 0.02000000 0.74383056
vt -0.02000000 0.74383056
vt 0.91634321 -0.74383056
vt -0.91634321 -0.74383056
vt -0.91634321 0.74383056
vt 0.91634321 -0.74383056
vt -0.91634321 0.74383056
vt 0.91634321 0.74383056
vt 0.02000000 -0.74383056
vt -0.02000000 -0.74383056
vt -0.02000000 0.74383056
vt 0.02000000 -0.74383056
vt -0.02000000 0.74383056
vt 0.02000000 0.74383056
f 1/1 2/2 3/3
f 4/4 5/5 6/6
f 7/7 8/8 9/9
f 10/10 11/11 12/12
f 13/13 14/14 15/15
f 16/16 17/17 18/18
f 19/19 20/20 21/21
f 22/22 23/23 24/24
f 25/25 26/26 27/27
f 28/28 29/29 30/30
f 31/31 32/32 33/33
f 34/34 35/35 36/36

