# https://github.com/mikedh/trimesh
mtllib material.mtl
usemtl DarkPlastic
v 1.25522339 2.21796989 -0.50786126
v 1.54754341 2.47239733 -0.50786126
v 1.86676466 2.10563374 -0.51553887
v 1.25522339 2.21796989 -0.50786126
v 1.86676466 2.10563374 -0.51553887
v 1.57444465 1.85120630 -0.51553887
v 1.57463121 1.85099196 -0.49754110
v 1.86695123 2.10541940 -0.49754110
v 1.54772997 2.47218299 -0.48986351
v 1.57463121 1.85099196 -0.49754110
v 1.54772997 2.47218299 -0.48986351
v 1.25540996 2.21775556 -0.48986351
v 1.57444465 1.85120630 -0.51553887
v 1.86676466 2.10563374 -0.51553887
v 1.86695123 2.10541940 -0.49754110
v 1.57444465 1.85120630 -0.51553887
v 1.86695123 2.10541940 -0.49754110
v 1.57463121 1.85099196 -0.49754110
v 1.86676466 2.10563374 -0.51553887
v 1.54754341 2.47239733 -0.50786126
v 1.54772997 2.47218299 -0.48986351
v 1.86676466 2.10563374 -0.51553887
v 1.54772997 2.47218299 -0.48986351
v 1.86695123 2.10541940 -0.49754110
v 1.54754341 2.47239733 -0.50786126
v 1.25522339 2.21796989 -0.50786126
v 1.25540996 2.21775556 -0.48986351
v 1.54754341 2.47239733 -0.50786126
v 1.25540996 2.21775556 -0.48986351
v 1.54772997 2.47218299 -0.48986351
v 1.25522339 2.21796989 -0.50786126
v 1.57444465 1.85120630 -0.51553887
v 1.57463121 1.85099196 -0.49754110
v 1.25522339 2.21796989 -0.50786126
v 1.57463121 1.85099196 -0.49754110
v 1.25540996 2.21775556 -0.48986351
vt -0.43059582 0.54032069
vt 0.43059582 0.54032069
vt 0.43059582 -0.54032063
vt -0.43059582 0.54032069
vt 0.43059582 -0.54032063
vt -0.43059582 -0.54032063
vt -0.43059582 -0.54032063
vt 0.43059582 -0.54032063
vt 0.43059582 0.54032069
vt -0.43059582 -0.54032063
vt 0.43059582 0.54032069
vt -0.43059582 0.54032069
vt -0.43059582 -0.01999998
vt 0.43059582 -0.01999998
vt 0.43059582 0.01999998
vt -0.43059582 -0.01999998
vt 0.43059582 0.01999998
vt -0.43059582 0.01999998
vt -0.54032069 -0.01999998
vt 0.54032069 -0.01999998
vt 0.54032069 0.01999998
vt -0.54032069 -0.01999998
vt 0.54032069 0.01999998
vt -0.54032069 0.01999998
vt 0.43059582 -0.01999998
vt -0.43059582 -0.01999998
vt -0.43059582 0.01999998
vt 0.43059582 -0.01999998
vt -0.43059582 0.01999998
vt 0.43059582 0.01999998
vt 0.54032069 -0.01999998
vt -0.54032069 -0.01999998
vt -0.54032069 0.01999998
vt 0.54032069 -0.01999998
vt -0.54032069 0.01999998
vt 0.54032069 0.01999998
f 1/1 2/2 3/3
f 4/4 5/5 6/6
f 7/7 8/8 9/9
f 10/10 11/11 12/12
f 13/13 14/14 15/15
f 16/16 17/17 18/18
f 19/19 20/20 21/21
f 22/22 23/23 24/24
f 25/25 26/26 27/27
f 28/28 29/29 30/30
f 31/31 32/32 33/33
f 34/34 35/35 36/36

