# https://github.com/mikedh/trimesh
mtllib material.mtl
usemtl BrushedSteel
v 1.58892667 2.46750760 -1.15340042
v 2.29084277 3.11344290 -1.15340042
v 2.30303121 3.10019851 -1.15356648
v 1.58892667 2.46750760 -1.15340042
v 2.30303121 3.10019851 -1.15356648
v 1.60111499 2.45426297 -1.15356648
v 1.61205077 2.44237947 0.59759921
v 2.31396699 3.08831477 0.59759921
v 2.30177855 3.10155940 0.59776521
v 1.61205077 2.44237947 0.59759921
v 2.30177855 3.10155940 0.59776521
v 1.59986246 2.45562387 0.59776521
v 1.60111499 2.45426297 -1.15356648
v 2.30303121 3.10019851 -1.15356648
v 2.31396699 3.08831477 0.59759921
v 1.60111499 2.45426297 -1.15356648
v 2.31396699 3.08831477 0.59759921
v 1.61205077 2.44237947 0.59759921
v 2.30303121 3.10019851 -1.15356648
v 2.29084277 3.11344290 -1.15340042
v 2.30177855 3.10155940 0.59776521
v 2.30303121 3.10019851 -1.15356648
v 2.30177855 3.10155940 0.59776521
v 2.31396699 3.08831477 0.59759921
v 2.29084277 3.11344290 -1.15340042
v 1.58892667 2.46750760 -1.15340042
v 1.59986246 2.45562387 0.59776521
v 2.29084277 3.11344290 -1.15340042
v 1.59986246 2.45562387 0.59776521
v 2.30177855 3.10155940 0.59776521
v 1.58892667 2.46750760 -1.15340042
v 1.60111499 2.45426297 -1.15356648
v 1.61205077 2.44237947 0.59759921
v 1.58892667 2.46750760 -1.15340042
v 1.61205077 2.44237947 0.59759921
v 1.59986246 2.45562387 0.59776521
vt -1.05988526 0.01999998
vt 1.05988526 0.01999998
vt 1.05988526 -0.01999998
vt -1.05988526 0.01999998
vt 1.05988526 -0.01999998
vt -1.05988526 -0.01999998
vt -1.05988526 -0.01999998
vt 1.05988526 -0.01999998
vt 1.05988526 0.01999998
vt -1.05988526 -0.01999998
vt 1.05988526 0.01999998
vt -1.05988526 0.01999998
vt -1.05988526 -1.94582224
vt 1.05988526 -1.94582224
vt 1.05988526 1.94582236
vt -1.05988526 -1.94582224
vt 1.05988526 1.94582236
vt -1.05988526 1.94582236
vt -0.02000000 -1.94582224
vt 0.02000000 -1.94582224
vt 0.02000000 1.94582236
vt -0.02000000 -1.94582224
vt 0.02000000 1.94582236
vt -0.02000000 1.94582236
vt 1.05988526 -1.94582224
vt -1.05988526 -1.94582224
vt -1.05988526 1.94582236
vt 1.05988526 -1.94582224
vt -1.05988526 1.94582236
vt 1.05988526 1.94582236
vt 0.02000000 -1.94582224
vt -0.02000000 -1.94582224
vt -0.02000000 1.94582236
vt 0.02000000 -1.94582224
vt -0.02000000 1.94582236
vt 0.02000000 1.94582236
f 1/1 2/2 3/3
f 4/4 5/5 6/6
f 7/7 8/8 9/9
f 10/10 11/11 12/12
f 13/13 14/14 15/15
f 16/16 17/17 18/18
f 19/19 20/20 21/21
f 22/22 23/23 24/24
f 25/25 26/26 27/27
f 28/28 29/29 30/30
f 31/31 32/32 33/33
f 34/34 35/35 36/36

