# https://github.com/mikedh/trimesh
mtllib material.mtl
usemtl DarkRecess
v 0.92742676 2.01574707 -0.06139626
v 0.92894560 2.01704812 -0.06137090
v 0.92829514 2.01780748 -0.06137969
v 0.92742676 2.01574707 -0.06139626
v 0.92829514 2.01780748 -0.06137969
v 0.92677635 2.01650667 -0.06140504
v 0.92667907 2.01651597 -0.05340564
v 0.92819792 2.01781678 -0.05338029
v 0.92884839 2.01705742 -0.05337150
v 0.92667907 2.01651597 -0.05340564
v 0.92884839 2.01705742 -0.05337150
v 0.92732954 2.01575637 -0.05339685
v 0.92677635 2.01650667 -0.06140504
v 0.92829514 2.01780748 -0.06137969
v 0.92819792 2.01781678 -0.05338029
v 0.92677635 2.01650667 -0.06140504
v 0.92819792 2.01781678 -0.05338029
v 0.92667907 2.01651597 -0.05340564
v 0.92829514 2.01780748 -0.06137969
v 0.92894560 2.01704812 -0.06137090
v 0.92884839 2.01705742 -0.05337150
v 0.92829514 2.01780748 -0.06137969
v 0.92884839 2.01705742 -0.05337150
v 0.92819792 2.01781678 -0.05338029
v 0.92894560 2.01704812 -0.06137090
v 0.92742676 2.01574707 -0.06139626
v 0.92732954 2.01575637 -0.05339685
v 0.92894560 2.01704812 -0.06137090
v 0.92732954 2.01575637 -0.05339685
v 0.92884839 2.01705742 -0.05337150
v 0.92742676 2.01574707 -0.06139626
v 0.92677635 2.01650667 -0.06140504
v 0.92667907 2.01651597 -0.05340564
v 0.92742676 2.01574707 -0.06139626
v 0.92667907 2.01651597 -0.05340564
v 0.92732954 2.01575637 -0.05339685
vt 0.00000000 0.00000000
vt 0.00000000 0.00000000
vt 0.00000000 0.00000000
vt 0.00000000 0.00000000
vt 0.00000000 0.00000000
vt 0.00000000 0.00000000
vt 0.00000000 0.00000000
vt 0.00000000 0.00000000
vt 0.00000000 0.00000000
vt 0.00000000 0.00000000
vt 0.00000000 0.00000000
vt 0.00000000 0.00000000
vt 0.00000000 0.00000000
vt 0.00000000 0.00000000
vt 0.00000000 0.00000000
vt 0.00000000 0.00000000
vt 0.00000000 0.00000000
vt 0.00000000 0.00000000
vt 0.00000000 0.00000000
vt 0.00000000 0.00000000
vt 0.00000000 0.00000000
vt 0.00000000 0.00000000
vt 0.00000000 0.00000000
vt 0.00000000 0.00000000
vt 0.00000000 0.00000000
vt 0.00000000 0.00000000
vt 0.00000000 0.00000000
vt 0.00000000 0.00000000
vt 0.00000000 0.00000000
vt 0.00000000 0.00000000
vt 0.00000000 0.00000000
vt 0.00000000 0.00000000
vt 0.00000000 0.00000000
vt 0.00000000 0.00000000
vt 0.00000000 0.00000000
vt 0.00000000 0.00000000
f 1/1 2/2 3/3
f 4/4 5/5 6/6
f 7/7 8/8 9/9
f 10/10 11/11 12/12
f 13/13 14/14 15/15
f 16/16 17/17 18/18
f 19/19 20/20 21/21
f 22/22 23/23 24/24
f 25/25 26/26 27/27
f 28/28 29/29 30/30
f 31/31 32/32 33/33
f 34/34 35/35 36/36

