# https://github.com/mikedh/trimesh
mtllib material.mtl
usemtl WhiteSolidSurface
v 5.11516571 0.17412040 -0.34921271
v 4.24347067 1.19322014 -0.33192882
v 4.49040270 1.40449512 -0.33545253
v 5.11516571 0.17412040 -0.34921271
v 4.49040270 1.40449512 -0.33545253
v 5.36209774 0.38539544 -0.35273638
v 5.36267948 0.38529938 -0.31774136
v 4.49098444 1.40439904 -0.30045748
v 4.24405241 1.19312406 -0.29693380
v 5.36267948 0.38529938 -0.31774136
v 4.24405241 1.19312406 -0.29693380
v 5.11574745 0.17402434 -0.31421766
v 5.36209774 0.38539544 -0.35273638
v 4.49040270 1.40449512 -0.33545253
v 4.49098444 1.40439904 -0.30045748
v 5.36209774 0.38539544 -0.35273638
v 4.49098444 1.40439904 -0.30045748
v 5.36267948 0.38529938 -0.31774136
v 4.49040270 1.40449512 -0.33545253
v 4.24347067 1.19322014 -0.33192882
v 4.24405241 1.19312406 -0.29693380
v 4.49040270 1.40449512 -0.33545253
v 4.24405241 1.19312406 -0.29693380
v 4.49098444 1.40439904 -0.30045748
v 4.24347067 1.19322014 -0.33192882
v 5.11516571 0.17412040 -0.34921271
v 5.11574745 0.17402434 -0.31421766
v 4.24347067 1.19322014 -0.33192882
v 5.11574745 0.17402434 -0.31421766
v 4.24405241 1.19312406 -0.29693380
v 5.11516571 0.17412040 -0.34921271
v 5.36209774 0.38539544 -0.35273638
v 5.36267948 0.38529938 -0.31774136
v 5.11516571 0.17412040 -0.34921271
v 5.36267948 0.38529938 -0.31774136
v 5.11574745 0.17402434 -0.31421766
vt -1.49017978 0.36111110
vt 1.49017978 0.36111110
vt 1.49017978 -0.36111116
vt -1.49017978 0.36111110
vt 1.49017978 -0.36111116
vt -1.49017978 -0.36111116
vt -1.49017978 -0.36111116
vt 1.49017978 -0.36111116
vt 1.49017978 0.36111110
vt -1.49017978 -0.36111116
vt 1.49017978 0.36111110
vt -1.49017978 0.36111110
vt -1.49017978 -0.03888893
vt 1.49017978 -0.03888893
vt 1.49017978 0.03888887
vt -1.49017978 -0.03888893
vt 1.49017978 0.03888887
vt -1.49017978 0.03888887
vt -0.36111110 -0.03888893
vt 0.36111110 -0.03888893
vt 0.36111110 0.03888887
vt -0.36111110 -0.03888893
vt 0.36111110 0.03888887
vt -0.36111110 0.03888887
vt 1.49017978 -0.03888893
vt -1.49017978 -0.03888893
vt -1.49017978 0.03888887
vt 1.49017978 -0.03888893
vt -1.49017978 0.03888887
vt 1.49017978 0.03888887
vt 0.36111110 -0.03888893
vt -0.36111110 -0.03888893
vt -0.36111110 0.03888887
vt 0.36111110 -0.03888893
vt -0.36111110 0.03888887
vt 0.36111110 0.03888887
f 1/1 2/2 3/3
f 4/4 5/5 6/6
f 7/7 8/8 9/9
f 10/10 11/11 12/12
f 13/13 14/14 15/15
f 16/16 17/17 18/18
f 19/19 20/20 21/21
f 22/22 23/23 24/24
f 25/25 26/26 27/27
f 28/28 29/29 30/30
f 31/31 32/32 33/33
f 34/34 35/35 36/36

