# https://github.com/mikedh/trimesh
mtllib material.mtl
usemtl PaleWood
v 6.08673239 2.52406693 -0.82282251
v 6.32675886 2.24631333 -0.82282251
v 6.31314182 2.23454595 -0.82314318
v 6.08673239 2.52406693 -0.82282251
v 6.31314182 2.23454595 -0.82314318
v 6.07311535 2.51229954 -0.82314318
v 6.07103205 2.51049924 -0.66861331
v 6.31105852 2.23274541 -0.66861331
v 6.32467556 2.24451303 -0.66829264
v 6.07103205 2.51049924 -0.66861331
v 6.32467556 2.24451303 -0.66829264
v 6.08464909 2.52226663 -0.66829264
v 6.07311535 2.51229954 -0.82314318
v 6.31314182 2.23454595 -0.82314318
v 6.31105852 2.23274541 -0.66861331
v 6.07311535 2.51229954 -0.82314318
v 6.31105852 2.23274541 -0.66861331
v 6.07103205 2.51049924 -0.66861331
v 6.31314182 2.23454595 -0.82314318
v 6.32675886 2.24631333 -0.82282251
v 6.32467556 2.24451303 -0.66829264
v 6.31314182 2.23454595 -0.82314318
v 6.32467556 2.24451303 -0.66829264
v 6.31105852 2.23274541 -0.66861331
v 6.32675886 2.24631333 -0.82282251
v 6.08673239 2.52406693 -0.82282251
v 6.08464909 2.52226663 -0.66829264
v 6.32675886 2.24631333 -0.82282251
v 6.08464909 2.52226663 -0.66829264
v 6.32467556 2.24451303 -0.66829264
v 6.08673239 2.52406693 -0.82282251
v 6.07311535 2.51229954 -0.82314318
v 6.07103205 2.51049924 -0.66861331
v 6.08673239 2.52406693 -0.82282251
v 6.07103205 2.51049924 -0.66861331
v 6.08464909 2.52226663 -0.66829264
vt -0.40788484 0.01999998
vt 0.40788484 0.01999998
vt 0.40788484 -0.01999998
vt -0.40788484 0.01999998
vt 0.40788484 -0.01999998
vt -0.40788484 -0.01999998
vt -0.40788484 -0.01999998
vt 0.40788484 -0.01999998
vt 0.40788484 0.01999998
vt -0.40788484 -0.01999998
vt 0.40788484 0.01999998
vt -0.40788484 0.01999998
vt -0.40788484 -0.17172718
vt 0.40788484 -0.17172718
vt 0.40788484 0.17172712
vt -0.40788484 -0.17172718
vt 0.40788484 0.17172712
vt -0.40788484 0.17172712
vt -0.02000000 -0.17172718
vt 0.02000000 -0.17172718
vt 0.02000000 0.17172712
vt -0.02000000 -0.17172718
vt 0.02000000 0.17172712
vt -0.02000000 0.17172712
vt 0.40788484 -0.17172718
vt -0.40788484 -0.17172718
vt -0.40788484 0.17172712
vt 0.40788484 -0.17172718
vt -0.40788484 0.17172712
vt 0.40788484 0.17172712
vt 0.02000000 -0.17172718
vt -0.02000000 -0.17172718
vt -0.02000000 0.17172712
vt 0.02000000 -0.17172718
vt -0.02000000 0.17172712
vt 0.02000000 0.17172712
f 1/1 2/2 3/3
f 4/4 5/5 6/6
f 7/7 8/8 9/9
f 10/10 11/11 12/12
f 13/13 14/14 15/15
f 16/16 17/17 18/18
f 19/19 20/20 21/21
f 22/22 23/23 24/24
f 25/25 26/26 27/27
f 28/28 29/29 30/30
f 31/31 32/32 33/33
f 34/34 35/35 36/36

