# https://github.com/mikedh/trimesh
mtllib material.mtl
usemtl BrushedStainless
v 6.66299725 1.86630106 -1.15587854
v 7.06964684 1.39573383 -1.15587854
v 7.05602980 1.38396633 -1.15619922
v 6.66299725 1.86630106 -1.15587854
v 7.05602980 1.38396633 -1.15619922
v 6.64938021 1.85453355 -1.15619922
v 6.64039993 1.84677315 -0.42618766
v 7.04704952 1.37620592 -0.43323344
v 7.06066656 1.38797331 -0.43388894
v 6.64039993 1.84677315 -0.42618766
v 7.06066656 1.38797331 -0.43388894
v 6.65401697 1.85854053 -0.42684320
v 6.64938021 1.85453355 -1.15619922
v 7.05602980 1.38396633 -1.15619922
v 7.04704952 1.37620592 -0.43323344
v 6.64938021 1.85453355 -1.15619922
v 7.04704952 1.37620592 -0.43323344
v 6.64039993 1.84677315 -0.42618766
v 7.05602980 1.38396633 -1.15619922
v 7.06964684 1.39573383 -1.15587854
v 7.06066656 1.38797331 -0.43388894
v 7.05602980 1.38396633 -1.15619922
v 7.06066656 1.38797331 -0.43388894
v 7.04704952 1.37620592 -0.43323344
v 7.06964684 1.39573383 -1.15587854
v 6.66299725 1.86630106 -1.15587854
v 6.65401697 1.85854053 -0.42684320
v 7.06964684 1.39573383 -1.15587854
v 6.65401697 1.85854053 -0.42684320
v 7.06066656 1.38797331 -0.43388894
v 6.66299725 1.86630106 -1.15587854
v 6.64938021 1.85453355 -1.15619922
v 6.64039993 1.84677315 -0.42618766
v 6.66299725 1.86630106 -1.15587854
v 6.64039993 1.84677315 -0.42618766
v 6.65401697 1.85854053 -0.42684320
vt -0.69103396 0.01999998
vt 0.69103396 0.01999998
vt 0.69103396 -0.01999998
vt -0.69103396 0.01999998
vt 0.69103396 -0.01999998
vt -0.69103396 -0.01999998
vt -0.69103396 -0.01999998
vt 0.69103396 -0.01999998
vt 0.69103396 0.01999998
vt -0.69103396 -0.01999998
vt 0.69103396 0.01999998
vt -0.69103396 0.01999998
vt -0.69103396 -0.74024189
vt 0.69103396 -0.74024189
vt 0.69103396 0.74024189
vt -0.69103396 -0.74024189
vt 0.69103396 0.74024189
vt -0.69103396 0.74024189
vt -0.02000000 -0.74024189
vt 0.02000000 -0.74024189
vt 0.02000000 0.74024189
vt -0.02000000 -0.74024189
vt 0.02000000 0.74024189
vt -0.02000000 0.74024189
vt 0.69103396 -0.74024189
vt -0.69103396 -0.74024189
vt -0.69103396 0.74024189
vt 0.69103396 -0.74024189
vt -0.69103396 0.74024189
vt 0.69103396 0.74024189
vt 0.02000000 -0.74024189
vt -0.02000000 -0.74024189
vt -0.02000000 0.74024189
vt 0.02000000 -0.74024189
vt -0.02000000 0.74024189
vt 0.02000000 0.74024189
f 1/1 2/2 3/3
f 4/4 5/5 6/6
f 7/7 8/8 9/9
f 10/10 11/11 12/12
f 13/13 14/14 15/15
f 16/16 17/17 18/18
f 19/19 20/20 21/21
f 22/22 23/23 24/24
f 25/25 26/26 27/27
f 28/28 29/29 30/30
f 31/31 32/32 33/33
f 34/34 35/35 36/36

