# https://github.com/mikedh/trimesh
mtllib material.mtl
usemtl DarkPlastic
v 6.69721127 2.59023714 -0.64724058
v 6.70898104 2.57661796 -0.64724058
v 6.31770515 2.23848939 -0.65645486
v 6.69721127 2.59023714 -0.64724058
v 6.31770515 2.23848939 -0.65645486
v 6.30593586 2.25210857 -0.65645486
v 6.30437326 2.25075841 -0.54055744
v 6.31614256 2.23713923 -0.54055744
v 6.70741844 2.57526755 -0.53134316
v 6.30437326 2.25075841 -0.54055744
v 6.70741844 2.57526755 -0.53134316
v 6.69564915 2.58888698 -0.53134316
v 6.30593586 2.25210857 -0.65645486
v 6.31770515 2.23848939 -0.65645486
v 6.31614256 2.23713923 -0.54055744
v 6.30593586 2.25210857 -0.65645486
v 6.31614256 2.23713923 -0.54055744
v 6.30437326 2.25075841 -0.54055744
v 6.31770515 2.23848939 -0.65645486
v 6.70898104 2.57661796 -0.64724058
v 6.70741844 2.57526755 -0.53134316
v 6.31770515 2.23848939 -0.65645486
v 6.70741844 2.57526755 -0.53134316
v 6.31614256 2.23713923 -0.54055744
v 6.70898104 2.57661796 -0.64724058
v 6.69721127 2.59023714 -0.64724058
v 6.69564915 2.58888698 -0.53134316
v 6.70898104 2.57661796 -0.64724058
v 6.69564915 2.58888698 -0.53134316
v 6.70741844 2.57526755 -0.53134316
v 6.69721127 2.59023714 -0.64724058
v 6.30593586 2.25210857 -0.65645486
v 6.30437326 2.25075841 -0.54055744
v 6.69721127 2.59023714 -0.64724058
v 6.30437326 2.25075841 -0.54055744
v 6.69564915 2.58888698 -0.53134316
vt -0.02000000 0.57468438
vt 0.02000000 0.57468438
vt 0.02000000 -0.57468438
vt -0.02000000 0.57468438
vt 0.02000000 -0.57468438
vt -0.02000000 -0.57468438
vt -0.02000000 -0.57468438
vt 0.02000000 -0.57468438
vt 0.02000000 0.57468438
vt -0.02000000 -0.57468438
vt 0.02000000 0.57468438
vt -0.02000000 0.57468438
vt -0.02000000 -0.12879539
vt 0.02000000 -0.12879539
vt 0.02000000 0.12879533
vt -0.02000000 -0.12879539
vt 0.02000000 0.12879533
vt -0.02000000 0.12879533
vt -0.57468438 -0.12879539
vt 0.57468438 -0.12879539
vt 0.57468438 0.12879533
vt -0.57468438 -0.12879539
vt 0.57468438 0.12879533
vt -0.57468438 0.12879533
vt 0.02000000 -0.12879539
vt -0.02000000 -0.12879539
vt -0.02000000 0.12879533
vt 0.02000000 -0.12879539
vt -0.02000000 0.12879533
vt 0.02000000 0.12879533
vt 0.57468438 -0.12879539
vt -0.57468438 -0.12879539
vt -0.57468438 0.12879533
vt 0.57468438 -0.12879539
vt -0.57468438 0.12879533
vt 0.57468438 0.12879533
f 1/1 2/2 3/3
f 4/4 5/5 6/6
f 7/7 8/8 9/9
f 10/10 11/11 12/12
f 13/13 14/14 15/15
f 16/16 17/17 18/18
f 19/19 20/20 21/21
f 22/22 23/23 24/24
f 25/25 26/26 27/27
f 28/28 29/29 30/30
f 31/31 32/32 33/33
f 34/34 35/35 36/36

