# https://github.com/mikedh/trimesh
mtllib material.mtl
usemtl PaleWood
v 4.86445141 -0.02548506 -1.22449911
v 3.40704179 1.67837441 -1.19560170
v 3.96415710 2.15504217 -1.20355165
v 4.86445141 -0.02548506 -1.22449911
v 3.96415710 2.15504217 -1.20355165
v 5.42156696 0.45118278 -1.23244905
v 5.42186594 0.45113337 -1.21445155
v 3.96445632 2.15499282 -1.18555427
v 3.40734100 1.67832494 -1.17760432
v 5.42186594 0.45113337 -1.21445155
v 3.40734100 1.67832494 -1.17760432
v 4.86475086 -0.02553447 -1.20650160
v 5.42156696 0.45118278 -1.23244905
v 3.96415710 2.15504217 -1.20355165
v 3.96445632 2.15499282 -1.18555427
v 5.42156696 0.45118278 -1.23244905
v 3.96445632 2.15499282 -1.18555427
v 5.42186594 0.45113337 -1.21445155
v 3.96415710 2.15504217 -1.20355165
v 3.40704179 1.67837441 -1.19560170
v 3.40734100 1.67832494 -1.17760432
v 3.96415710 2.15504217 -1.20355165
v 3.40734100 1.67832494 -1.17760432
v 3.96445632 2.15499282 -1.18555427
v 3.40704179 1.67837441 -1.19560170
v 4.86445141 -0.02548506 -1.22449911
v 4.86475086 -0.02553447 -1.20650160
v 3.40704179 1.67837441 -1.19560170
v 4.86475086 -0.02553447 -1.20650160
v 3.40734100 1.67832494 -1.17760432
v 4.86445141 -0.02548506 -1.22449911
v 5.42156696 0.45118278 -1.23244905
v 5.42186594 0.45113337 -1.21445155
v 4.86445141 -0.02548506 -1.22449911
v 5.42186594 0.45113337 -1.21445155
v 4.86475086 -0.02553447 -1.20650160
vt -2.49147081 0.81472021
vt 2.49147081 0.81472021
vt 2.49147081 -0.81472015
vt -2.49147081 0.81472021
vt 2.49147081 -0.81472015
vt -2.49147081 -0.81472015
vt -2.49147081 -0.81472015
vt 2.49147081 -0.81472015
vt 2.49147081 0.81472021
vt -2.49147081 -0.81472015
vt 2.49147081 0.81472021
vt -2.49147081 0.81472021
vt -2.49147081 -0.01999998
vt 2.49147081 -0.01999998
vt 2.49147081 0.01999998
vt -2.49147081 -0.01999998
vt 2.49147081 0.01999998
vt -2.49147081 0.01999998
vt -0.81472021 -0.01999998
vt 0.81472021 -0.01999998
vt 0.81472021 0.01999998
vt -0.81472021 -0.01999998
vt 0.81472021 0.01999998
vt -0.81472021 0.01999998
vt 2.49147081 -0.01999998
vt -2.49147081 -0.01999998
vt -2.49147081 0.01999998
vt 2.49147081 -0.01999998
vt -2.49147081 0.01999998
vt 2.49147081 0.01999998
vt 0.81472021 -0.01999998
vt -0.81472021 -0.01999998
vt -0.81472021 0.01999998
vt 0.81472021 -0.01999998
vt -0.81472021 0.01999998
vt 0.81472021 0.01999998
f 1/1 2/2 3/3
f 4/4 5/5 6/6
f 7/7 8/8 9/9
f 10/10 11/11 12/12
f 13/13 14/14 15/15
f 16/16 17/17 18/18
f 19/19 20/20 21/21
f 22/22 23/23 24/24
f 25/25 26/26 27/27
f 28/28 29/29 30/30
f 31/31 32/32 33/33
f 34/34 35/35 36/36

