# https://github.com/mikedh/trimesh
mtllib material.mtl
usemtl BlackRubber
v -0.24280871 0.20894131 -0.45133099
v -0.16358934 0.27813858 -0.46312410
v -0.17081024 0.28643489 -0.46295044
v -0.24280871 0.20894131 -0.45133099
v -0.17081024 0.28643489 -0.46295044
v -0.25002959 0.21723762 -0.45115730
v -0.25002959 0.21723762 -0.42915732
v -0.17081024 0.28643489 -0.44095042
v -0.16358934 0.27813858 -0.44112411
v -0.25002959 0.21723762 -0.42915732
v -0.16358934 0.27813858 -0.44112411
v -0.24280871 0.20894131 -0.42933097
v -0.25002959 0.21723762 -0.45115730
v -0.17081024 0.28643489 -0.46295044
v -0.17081024 0.28643489 -0.44095042
v -0.25002959 0.21723762 -0.45115730
v -0.17081024 0.28643489 -0.44095042
v -0.25002959 0.21723762 -0.42915732
v -0.17081024 0.28643489 -0.46295044
v -0.16358934 0.27813858 -0.46312410
v -0.16358934 0.27813858 -0.44112411
v -0.17081024 0.28643489 -0.46295044
v -0.16358934 0.27813858 -0.44112411
v -0.17081024 0.28643489 -0.44095042
v -0.16358934 0.27813858 -0.46312410
v -0.24280871 0.20894131 -0.45133099
v -0.24280871 0.20894131 -0.42933097
v -0.16358934 0.27813858 -0.46312410
v -0.24280871 0.20894131 -0.42933097
v -0.16358934 0.27813858 -0.44112411
v -0.24280871 0.20894131 -0.45133099
v -0.25002959 0.21723762 -0.45115730
v -0.25002959 0.21723762 -0.42915732
v -0.24280871 0.20894131 -0.45133099
v -0.25002959 0.21723762 -0.42915732
v -0.24280871 0.20894131 -0.42933097
vt 0.00000000 0.00000000
vt 0.00000000 0.00000000
vt 0.00000000 0.00000000
vt 0.00000000 0.00000000
vt 0.00000000 0.00000000
vt 0.00000000 0.00000000
vt 0.00000000 0.00000000
vt 0.00000000 0.00000000
vt 0.00000000 0.00000000
vt 0.00000000 0.00000000
vt 0.00000000 0.00000000
vt 0.00000000 0.00000000
vt 0.00000000 0.00000000
vt 0.00000000 0.00000000
vt 0.00000000 0.00000000
vt 0.00000000 0.00000000
vt 0.00000000 0.00000000
vt 0.00000000 0.00000000
vt 0.00000000 0.00000000
vt 0.00000000 0.00000000
vt 0.00000000 0.00000000
vt 0.00000000 0.00000000
vt 0.00000000 0.00000000
vt 0.00000000 0.00000000
vt 0.00000000 0.00000000
vt 0.00000000 0.00000000
vt 0.00000000 0.00000000
vt 0.00000000 0.00000000
vt 0.00000000 0.00000000
vt 0.00000000 0.00000000
vt 0.00000000 0.00000000
vt 0.00000000 0.00000000
vt 0.00000000 0.00000000
vt 0.00000000 0.00000000
vt 0.00000000 0.00000000
vt 0.00000000 0.00000000
f 1/1 2/2 3/3
f 4/4 5/5 6/6
f 7/7 8/8 9/9
f 10/10 11/11 12/12
f 13/13 14/14 15/15
f 16/16 17/17 18/18
f 19/19 20/20 21/21
f 22/22 23/23 24/24
f 25/25 26/26 27/27
f 28/28 29/29 30/30
f 31/31 32/32 33/33
f 34/34 35/35 36/36

