# https://github.com/mikedh/trimesh
mtllib material.mtl
usemtl DarkPlastic
v 7.02111340 2.21542406 -0.64724058
v 7.03288269 2.20180488 -0.64724058
v 6.64160728 1.86367643 -0.65645486
v 7.02111340 2.21542406 -0.64724058
v 6.64160728 1.86367643 -0.65645486
v 6.62983799 1.87729573 -0.65645486
v 6.62827539 1.87594545 -0.54055744
v 6.64004469 1.86232626 -0.54055744
v 7.03132010 2.20045471 -0.53134316
v 6.62827539 1.87594545 -0.54055744
v 7.03132010 2.20045471 -0.53134316
v 7.01955080 2.21407390 -0.53134316
v 6.62983799 1.87729573 -0.65645486
v 6.64160728 1.86367643 -0.65645486
v 6.64004469 1.86232626 -0.54055744
v 6.62983799 1.87729573 -0.65645486
v 6.64004469 1.86232626 -0.54055744
v 6.62827539 1.87594545 -0.54055744
v 6.64160728 1.86367643 -0.65645486
v 7.03288269 2.20180488 -0.64724058
v 7.03132010 2.20045471 -0.53134316
v 6.64160728 1.86367643 -0.65645486
v 7.03132010 2.20045471 -0.53134316
v 6.64004469 1.86232626 -0.54055744
v 7.03288269 2.20180488 -0.64724058
v 7.02111340 2.21542406 -0.64724058
v 7.01955080 2.21407390 -0.53134316
v 7.03288269 2.20180488 -0.64724058
v 7.01955080 2.21407390 -0.53134316
v 7.03132010 2.20045471 -0.53134316
v 7.02111340 2.21542406 -0.64724058
v 6.62983799 1.87729573 -0.65645486
v 6.62827539 1.87594545 -0.54055744
v 7.02111340 2.21542406 -0.64724058
v 6.62827539 1.87594545 -0.54055744
v 7.01955080 2.21407390 -0.53134316
vt -0.02000000 0.57468438
vt 0.02000000 0.57468438
vt 0.02000000 -0.57468438
vt -0.02000000 0.57468438
vt 0.02000000 -0.57468438
vt -0.02000000 -0.57468438
vt -0.02000000 -0.57468438
vt 0.02000000 -0.57468438
vt 0.02000000 0.57468438
vt -0.02000000 -0.57468438
vt 0.02000000 0.57468438
vt -0.02000000 0.57468438
vt -0.02000000 -0.12879539
vt 0.02000000 -0.12879539
vt 0.02000000 0.12879533
vt -0.02000000 -0.12879539
vt 0.02000000 0.12879533
vt -0.02000000 0.12879533
vt -0.57468438 -0.12879539
vt 0.57468438 -0.12879539
vt 0.57468438 0.12879533
vt -0.57468438 -0.12879539
vt 0.57468438 0.12879533
vt -0.57468438 0.12879533
vt 0.02000000 -0.12879539
vt -0.02000000 -0.12879539
vt -0.02000000 0.12879533
vt 0.02000000 -0.12879539
vt -0.02000000 0.12879533
vt 0.02000000 0.12879533
vt 0.57468438 -0.12879539
vt -0.57468438 -0.12879539
vt -0.57468438 0.12879533
vt 0.57468438 -0.12879539
vt -0.57468438 0.12879533
vt 0.57468438 0.12879533
f 1/1 2/2 3/3
f 4/4 5/5 6/6
f 7/7 8/8 9/9
f 10/10 11/11 12/12
f 13/13 14/14 15/15
f 16/16 17/17 18/18
f 19/19 20/20 21/21
f 22/22 23/23 24/24
f 25/25 26/26 27/27
f 28/28 29/29 30/30
f 31/31 32/32 33/33
f 34/34 35/35 36/36

