# https://github.com/mikedh/trimesh
mtllib material.mtl
usemtl DarkPlastic
v 0.84262478 1.90016127 -0.32492906
v 0.85893506 1.91492343 -0.32515922
v 0.87369710 1.89862287 -0.32454875
v 0.84262478 1.90016127 -0.32492906
v 0.87369710 1.89862287 -0.32454875
v 0.85738683 1.88386059 -0.32431859
v 0.85700649 1.88482642 -0.28933397
v 0.87331676 1.89958858 -0.28956416
v 0.85855472 1.91588914 -0.29017460
v 0.85700649 1.88482642 -0.28933397
v 0.85855472 1.91588914 -0.29017460
v 0.84224445 1.90112698 -0.28994444
v 0.85738683 1.88386059 -0.32431859
v 0.87369710 1.89862287 -0.32454875
v 0.87331676 1.89958858 -0.28956416
v 0.85738683 1.88386059 -0.32431859
v 0.87331676 1.89958858 -0.28956416
v 0.85700649 1.88482642 -0.28933397
v 0.87369710 1.89862287 -0.32454875
v 0.85893506 1.91492343 -0.32515922
v 0.85855472 1.91588914 -0.29017460
v 0.87369710 1.89862287 -0.32454875
v 0.85855472 1.91588914 -0.29017460
v 0.87331676 1.89958858 -0.28956416
v 0.85893506 1.91492343 -0.32515922
v 0.84262478 1.90016127 -0.32492906
v 0.84224445 1.90112698 -0.28994444
v 0.85893506 1.91492343 -0.32515922
v 0.84224445 1.90112698 -0.28994444
v 0.85855472 1.91588914 -0.29017460
v 0.84262478 1.90016127 -0.32492906
v 0.85738683 1.88386059 -0.32431859
v 0.85700649 1.88482642 -0.28933397
v 0.84262478 1.90016127 -0.32492906
v 0.85700649 1.88482642 -0.28933397
v 0.84224445 1.90112698 -0.28994444
vt -0.02444444 0.02444446
vt 0.02444444 0.02444446
vt 0.02444444 -0.02444446
vt -0.02444444 0.02444446
vt 0.02444444 -0.02444446
vt -0.02444444 -0.02444446
vt -0.02444444 -0.02444446
vt 0.02444444 -0.02444446
vt 0.02444444 0.02444446
vt -0.02444444 -0.02444446
vt 0.02444444 0.02444446
vt -0.02444444 0.02444446
vt -0.02444444 -0.03888893
vt 0.02444444 -0.03888893
vt 0.02444444 0.03888887
vt -0.02444444 -0.03888893
vt 0.02444444 0.03888887
vt -0.02444444 0.03888887
vt -0.02444444 -0.03888893
vt 0.02444444 -0.03888893
vt 0.02444444 0.03888887
vt -0.02444444 -0.03888893
vt 0.02444444 0.03888887
vt -0.02444444 0.03888887
vt 0.02444444 -0.03888893
vt -0.02444444 -0.03888893
vt -0.02444444 0.03888887
vt 0.02444444 -0.03888893
vt -0.02444444 0.03888887
vt 0.02444444 0.03888887
vt 0.02444444 -0.03888893
vt -0.02444444 -0.03888893
vt -0.02444444 0.03888887
vt 0.02444444 -0.03888893
vt -0.02444444 0.03888887
vt 0.02444444 0.03888887
f 1/1 2/2 3/3
f 4/4 5/5 6/6
f 7/7 8/8 9/9
f 10/10 11/11 12/12
f 13/13 14/14 15/15
f 16/16 17/17 18/18
f 19/19 20/20 21/21
f 22/22 23/23 24/24
f 25/25 26/26 27/27
f 28/28 29/29 30/30
f 31/31 32/32 33/33
f 34/34 35/35 36/36

