# https://github.com/mikedh/trimesh
mtllib material.mtl
usemtl DarkPlastic
v 2.67284393 2.90870905 -1.18321860
v 4.41138506 4.42212296 -1.19441760
v 4.42779636 4.40326738 -1.19476712
v 2.67284393 2.90870905 -1.18321860
v 4.42779636 4.40326738 -1.19476712
v 2.68925548 2.88985324 -1.18356824
v 2.68974614 2.88928962 -1.13623869
v 4.42840338 4.40257025 -1.13623869
v 4.41199207 4.42142534 -1.13584399
v 2.68974614 2.88928962 -1.13623869
v 4.41199207 4.42142534 -1.13584399
v 2.67333484 2.90814471 -1.13584399
v 2.68925548 2.88985324 -1.18356824
v 4.42779636 4.40326738 -1.19476712
v 4.42840338 4.40257025 -1.13623869
v 2.68925548 2.88985324 -1.18356824
v 4.42840338 4.40257025 -1.13623869
v 2.68974614 2.88928962 -1.13623869
v 4.42779636 4.40326738 -1.19476712
v 4.41138506 4.42212296 -1.19441760
v 4.41199207 4.42142534 -1.13584399
v 4.42779636 4.40326738 -1.19476712
v 4.41199207 4.42142534 -1.13584399
v 4.42840338 4.40257025 -1.13623869
v 4.41138506 4.42212296 -1.19441760
v 2.67284393 2.90870905 -1.18321860
v 2.67333484 2.90814471 -1.13584399
v 4.41138506 4.42212296 -1.19441760
v 2.67333484 2.90814471 -1.13584399
v 4.41199207 4.42142534 -1.13584399
v 2.67284393 2.90870905 -1.18321860
v 2.68925548 2.88985324 -1.18356824
v 2.68974614 2.88928962 -1.13623869
v 2.67284393 2.90870905 -1.18321860
v 2.68974614 2.88928962 -1.13623869
v 2.67333484 2.90814471 -1.13584399
vt -2.56109238 0.02777779
vt 2.56109238 0.02777779
vt 2.56109238 -0.02777779
vt -2.56109238 0.02777779
vt 2.56109238 -0.02777779
vt -2.56109238 -0.02777779
vt -2.56109238 -0.02777779
vt 2.56109238 -0.02777779
vt 2.56109238 0.02777779
vt -2.56109238 -0.02777779
vt 2.56109238 0.02777779
vt -2.56109238 0.02777779
vt -2.56109238 0.00592130
vt 2.56109238 -0.01896834
vt 2.56109238 0.11111110
vt -2.56109238 0.00592130
vt 2.56109238 0.11111110
vt -2.56109238 0.11111110
vt -0.02777778 -0.01896834
vt 0.02777778 -0.01906872
vt 0.02777778 0.11111110
vt -0.02777778 -0.01896834
vt 0.02777778 0.11111110
vt -0.02777778 0.11111110
vt 2.56109238 -0.01906872
vt -2.56109238 0.00582087
vt -2.56109238 0.11111110
vt 2.56109238 -0.01906872
vt -2.56109238 0.11111110
vt 2.56109238 0.11111110
vt 0.02777778 0.00582087
vt -0.02777778 0.00592130
vt -0.02777778 0.11111110
vt 0.02777778 0.00582087
vt -0.02777778 0.11111110
vt 0.02777778 0.11111110
f 1/1 2/2 3/3
f 4/4 5/5 6/6
f 7/7 8/8 9/9
f 10/10 11/11 12/12
f 13/13 14/14 15/15
f 16/16 17/17 18/18
f 19/19 20/20 21/21
f 22/22 23/23 24/24
f 25/25 26/26 27/27
f 28/28 29/29 30/30
f 31/31 32/32 33/33
f 34/34 35/35 36/36

