# https://github.com/mikedh/trimesh
mtllib material.mtl
usemtl BrushedStainless
v 4.24047995 1.19371414 -0.51190329
v 4.23853016 1.19599366 -0.51186466
v 4.48546219 1.40726876 -0.51538831
v 4.24047995 1.19371414 -0.51190329
v 4.48546219 1.40726876 -0.51538831
v 4.48741198 1.40498912 -0.51542699
v 4.49040270 1.40449512 -0.33545250
v 4.48845291 1.40677476 -0.33541384
v 4.24152088 1.19549966 -0.33189017
v 4.49040270 1.40449512 -0.33545250
v 4.24152088 1.19549966 -0.33189017
v 4.24347067 1.19322002 -0.33192882
v 4.48741198 1.40498912 -0.51542699
v 4.48546219 1.40726876 -0.51538831
v 4.48845291 1.40677476 -0.33541384
v 4.48741198 1.40498912 -0.51542699
v 4.48845291 1.40677476 -0.33541384
v 4.49040270 1.40449512 -0.33545250
v 4.48546219 1.40726876 -0.51538831
v 4.23853016 1.19599366 -0.51186466
v 4.24152088 1.19549966 -0.33189017
v 4.48546219 1.40726876 -0.51538831
v 4.24152088 1.19549966 -0.33189017
v 4.48845291 1.40677476 -0.33541384
v 4.23853016 1.19599366 -0.51186466
v 4.24047995 1.19371414 -0.51190329
v 4.24347067 1.19322002 -0.33192882
v 4.23853016 1.19599366 -0.51186466
v 4.24347067 1.19322002 -0.33192882
v 4.24152088 1.19549966 -0.33189017
v 4.24047995 1.19371414 -0.51190329
v 4.48741198 1.40498912 -0.51542699
v 4.49040270 1.40449512 -0.33545250
v 4.24047995 1.19371414 -0.51190329
v 4.49040270 1.40449512 -0.33545250
v 4.24347067 1.19322002 -0.33192882
vt -0.00333333 0.36111110
vt 0.00333333 0.36111110
vt 0.00333333 -0.36111116
vt -0.00333333 0.36111110
vt 0.00333333 -0.36111116
vt -0.00333333 -0.36111116
vt -0.00333333 -0.36111116
vt 0.00333333 -0.36111116
vt 0.00333333 0.36111110
vt -0.00333333 -0.36111116
vt 0.00333333 0.36111110
vt -0.00333333 0.36111110
vt -0.00333333 -0.20000005
vt 0.00333333 -0.20000005
vt 0.00333333 0.19999999
vt -0.00333333 -0.20000005
vt 0.00333333 0.19999999
vt -0.00333333 0.19999999
vt -0.36111110 -0.20000005
vt 0.36111110 -0.20000005
vt 0.36111110 0.19999999
vt -0.36111110 -0.20000005
vt 0.36111110 0.19999999
vt -0.36111110 0.19999999
vt 0.00333333 -0.20000005
vt -0.00333333 -0.20000005
vt -0.00333333 0.19999999
vt 0.00333333 -0.20000005
vt -0.00333333 0.19999999
vt 0.00333333 0.19999999
vt 0.36111110 -0.20000005
vt -0.36111110 -0.20000005
vt -0.36111110 0.19999999
vt 0.36111110 -0.20000005
vt -0.36111110 0.19999999
vt 0.36111110 0.19999999
f 1/1 2/2 3/3
f 4/4 5/5 6/6
f 7/7 8/8 9/9
f 10/10 11/11 12/12
f 13/13 14/14 15/15
f 16/16 17/17 18/18
f 19/19 20/20 21/21
f 22/22 23/23 24/24
f 25/25 26/26 27/27
f 28/28 29/29 30/30
f 31/31 32/32 33/33
f 34/34 35/35 36/36

