# https://github.com/mikedh/trimesh
mtllib material.mtl
usemtl PaleWood
v 4.43955994 4.79448318 -0.02767843
v 4.72684669 4.46071148 -0.02767843
v 4.71320438 4.44896889 -0.02774922
v 4.43955994 4.79448318 -0.02767843
v 4.71320438 4.44896889 -0.02774922
v 4.42591763 4.78274107 -0.02774922
v 4.42313480 4.78034592 0.90577263
v 4.71042204 4.44657421 0.90577263
v 4.72406435 4.45831633 0.90584344
v 4.42313480 4.78034592 0.90577263
v 4.72406435 4.45831633 0.90584344
v 4.43677711 4.79208851 0.90584344
v 4.42591763 4.78274107 -0.02774922
v 4.71320438 4.44896889 -0.02774922
v 4.71042204 4.44657421 0.90577263
v 4.42591763 4.78274107 -0.02774922
v 4.71042204 4.44657421 0.90577263
v 4.42313480 4.78034592 0.90577263
v 4.71320438 4.44896889 -0.02774922
v 4.72684669 4.46071148 -0.02767843
v 4.72406435 4.45831633 0.90584344
v 4.71320438 4.44896889 -0.02774922
v 4.72406435 4.45831633 0.90584344
v 4.71042204 4.44657421 0.90577263
v 4.72684669 4.46071148 -0.02767843
v 4.43955994 4.79448318 -0.02767843
v 4.43677711 4.79208851 0.90584344
v 4.72684669 4.46071148 -0.02767843
v 4.43677711 4.79208851 0.90584344
v 4.72406435 4.45831633 0.90584344
v 4.43955994 4.79448318 -0.02767843
v 4.42591763 4.78274107 -0.02774922
v 4.42313480 4.78034592 0.90577263
v 4.43955994 4.79448318 -0.02767843
v 4.42313480 4.78034592 0.90577263
v 4.43677711 4.79208851 0.90584344
vt -0.48931488 0.01999998
vt 0.48931488 0.01999998
vt 0.48931488 -0.01999998
vt -0.48931488 0.01999998
vt 0.48931488 -0.01999998
vt -0.48931488 -0.01999998
vt -0.48931488 -0.01999998
vt 0.48931488 -0.01999998
vt 0.48931488 0.01999998
vt -0.48931488 -0.01999998
vt 0.48931488 0.01999998
vt -0.48931488 0.01999998
vt -0.48931488 -1.03725457
vt 0.48931488 -1.03725457
vt 0.48931488 1.03725457
vt -0.48931488 -1.03725457
vt 0.48931488 1.03725457
vt -0.48931488 1.03725457
vt -0.02000000 -1.03725457
vt 0.02000000 -1.03725457
vt 0.02000000 1.03725457
vt -0.02000000 -1.03725457
vt 0.02000000 1.03725457
vt -0.02000000 1.03725457
vt 0.48931488 -1.03725457
vt -0.48931488 -1.03725457
vt -0.48931488 1.03725457
vt 0.48931488 -1.03725457
vt -0.48931488 1.03725457
vt 0.48931488 1.03725457
vt 0.02000000 -1.03725457
vt -0.02000000 -1.03725457
vt -0.02000000 1.03725457
vt 0.02000000 -1.03725457
vt -0.02000000 1.03725457
vt 0.02000000 1.03725457
f 1/1 2/2 3/3
f 4/4 5/5 6/6
f 7/7 8/8 9/9
f 10/10 11/11 12/12
f 13/13 14/14 15/15
f 16/16 17/17 18/18
f 19/19 20/20 21/21
f 22/22 23/23 24/24
f 25/25 26/26 27/27
f 28/28 29/29 30/30
f 31/31 32/32 33/33
f 34/34 35/35 36/36

