# https://github.com/mikedh/trimesh
mtllib material.mtl
usemtl PaleWood
v 1.51281595 2.52143598 -1.06410170
v 1.52639341 2.53325343 -1.06410170
v 1.85743058 2.15291405 -1.07206345
v 1.51281595 2.52143598 -1.06410170
v 1.85743058 2.15291405 -1.07206345
v 1.84385312 2.14109659 -1.07206345
v 1.85128963 2.13255262 -0.35471389
v 1.86486709 2.14437008 -0.35471389
v 1.53382993 2.52470946 -0.34675211
v 1.85128963 2.13255262 -0.35471389
v 1.53382993 2.52470946 -0.34675211
v 1.52025247 2.51289201 -0.34675211
v 1.84385312 2.14109659 -1.07206345
v 1.85743058 2.15291405 -1.07206345
v 1.86486709 2.14437008 -0.35471389
v 1.84385312 2.14109659 -1.07206345
v 1.86486709 2.14437008 -0.35471389
v 1.85128963 2.13255262 -0.35471389
v 1.85743058 2.15291405 -1.07206345
v 1.52639341 2.53325343 -1.06410170
v 1.53382993 2.52470946 -0.34675211
v 1.85743058 2.15291405 -1.07206345
v 1.53382993 2.52470946 -0.34675211
v 1.86486709 2.14437008 -0.35471389
v 1.52639341 2.53325343 -1.06410170
v 1.51281595 2.52143598 -1.06410170
v 1.52025247 2.51289201 -0.34675211
v 1.52639341 2.53325343 -1.06410170
v 1.52025247 2.51289201 -0.34675211
v 1.53382993 2.52470946 -0.34675211
v 1.51281595 2.52143598 -1.06410170
v 1.84385312 2.14109659 -1.07206345
v 1.85128963 2.13255262 -0.35471389
v 1.51281595 2.52143598 -1.06410170
v 1.85128963 2.13255262 -0.35471389
v 1.52025247 2.51289201 -0.34675211
vt -0.02000000 0.56032068
vt 0.02000000 0.56032068
vt 0.02000000 -0.56032062
vt -0.02000000 0.56032068
vt 0.02000000 -0.56032062
vt -0.02000000 -0.56032062
vt -0.02000000 -0.56032062
vt 0.02000000 -0.56032062
vt 0.02000000 0.56032068
vt -0.02000000 -0.56032062
vt 0.02000000 0.56032068
vt -0.02000000 0.56032068
vt -0.02000000 -0.79715443
vt 0.02000000 -0.79715443
vt 0.02000000 0.79715443
vt -0.02000000 -0.79715443
vt 0.02000000 0.79715443
vt -0.02000000 0.79715443
vt -0.56032068 -0.79715443
vt 0.56032068 -0.79715443
vt 0.56032068 0.79715443
vt -0.56032068 -0.79715443
vt 0.56032068 0.79715443
vt -0.56032068 0.79715443
vt 0.02000000 -0.79715443
vt -0.02000000 -0.79715443
vt -0.02000000 0.79715443
vt 0.02000000 -0.79715443
vt -0.02000000 0.79715443
vt 0.02000000 0.79715443
vt 0.56032068 -0.79715443
vt -0.56032068 -0.79715443
vt -0.56032068 0.79715443
vt 0.56032068 -0.79715443
vt -0.56032068 0.79715443
vt 0.56032068 0.79715443
f 1/1 2/2 3/3
f 4/4 5/5 6/6
f 7/7 8/8 9/9
f 10/10 11/11 12/12
f 13/13 14/14 15/15
f 16/16 17/17 18/18
f 19/19 20/20 21/21
f 22/22 23/23 24/24
f 25/25 26/26 27/27
f 28/28 29/29 30/30
f 31/31 32/32 33/33
f 34/34 35/35 36/36

