# https://github.com/mikedh/trimesh
mtllib material.mtl
usemtl DarkPlastic
v 6.70394659 2.59605742 -1.14682448
v 6.71571589 2.58243823 -1.14682448
v 6.32444048 2.24430990 -1.15603888
v 6.70394659 2.59605742 -1.14682448
v 6.32444048 2.24430990 -1.15603888
v 6.31267118 2.25792909 -1.15603888
v 6.31110859 2.25657868 -1.04014146
v 6.32287788 2.24295950 -1.04014146
v 6.71415329 2.58108807 -1.03092706
v 6.31110859 2.25657868 -1.04014146
v 6.71415329 2.58108807 -1.03092706
v 6.70238400 2.59470725 -1.03092706
v 6.31267118 2.25792909 -1.15603888
v 6.32444048 2.24430990 -1.15603888
v 6.32287788 2.24295950 -1.04014146
v 6.31267118 2.25792909 -1.15603888
v 6.32287788 2.24295950 -1.04014146
v 6.31110859 2.25657868 -1.04014146
v 6.32444048 2.24430990 -1.15603888
v 6.71571589 2.58243823 -1.14682448
v 6.71415329 2.58108807 -1.03092706
v 6.32444048 2.24430990 -1.15603888
v 6.71415329 2.58108807 -1.03092706
v 6.32287788 2.24295950 -1.04014146
v 6.71571589 2.58243823 -1.14682448
v 6.70394659 2.59605742 -1.14682448
v 6.70238400 2.59470725 -1.03092706
v 6.71571589 2.58243823 -1.14682448
v 6.70238400 2.59470725 -1.03092706
v 6.71415329 2.58108807 -1.03092706
v 6.70394659 2.59605742 -1.14682448
v 6.31267118 2.25792909 -1.15603888
v 6.31110859 2.25657868 -1.04014146
v 6.70394659 2.59605742 -1.14682448
v 6.31110859 2.25657868 -1.04014146
v 6.70238400 2.59470725 -1.03092706
vt -0.02000000 0.57468438
vt 0.02000000 0.57468438
vt 0.02000000 -0.57468438
vt -0.02000000 0.57468438
vt 0.02000000 -0.57468438
vt -0.02000000 -0.57468438
vt -0.02000000 -0.57468438
vt 0.02000000 -0.57468438
vt 0.02000000 0.57468438
vt -0.02000000 -0.57468438
vt 0.02000000 0.57468438
vt -0.02000000 0.57468438
vt -0.02000000 -0.12879539
vt 0.02000000 -0.12879539
vt 0.02000000 0.12879533
vt -0.02000000 -0.12879539
vt 0.02000000 0.12879533
vt -0.02000000 0.12879533
vt -0.57468438 -0.12879539
vt 0.57468438 -0.12879539
vt 0.57468438 0.12879533
vt -0.57468438 -0.12879539
vt 0.57468438 0.12879533
vt -0.57468438 0.12879533
vt 0.02000000 -0.12879539
vt -0.02000000 -0.12879539
vt -0.02000000 0.12879533
vt 0.02000000 -0.12879539
vt -0.02000000 0.12879533
vt 0.02000000 0.12879533
vt 0.57468438 -0.12879539
vt -0.57468438 -0.12879539
vt -0.57468438 0.12879533
vt 0.57468438 -0.12879539
vt -0.57468438 0.12879533
vt 0.57468438 0.12879533
f 1/1 2/2 3/3
f 4/4 5/5 6/6
f 7/7 8/8 9/9
f 10/10 11/11 12/12
f 13/13 14/14 15/15
f 16/16 17/17 18/18
f 19/19 20/20 21/21
f 22/22 23/23 24/24
f 25/25 26/26 27/27
f 28/28 29/29 30/30
f 31/31 32/32 33/33
f 34/34 35/35 36/36

