# https://github.com/mikedh/trimesh
mtllib material.mtl
usemtl PaleWood
v 4.69301033 5.02055168 -0.03234307
v 5.59246778 3.97555566 -0.03234307
v 5.57882547 3.96381330 -0.03241386
v 4.69301033 5.02055168 -0.03234307
v 5.57882547 3.96381330 -0.03241386
v 4.67936802 5.00880957 -0.03241386
v 4.67654943 5.00638342 0.91310793
v 5.57600737 3.96138763 0.91310793
v 5.58964968 3.97312999 0.91317874
v 4.67654943 5.00638342 0.91310793
v 5.58964968 3.97312999 0.91317874
v 4.69019175 5.01812601 0.91317874
v 4.67936802 5.00880957 -0.03241386
v 5.57882547 3.96381330 -0.03241386
v 5.57600737 3.96138763 0.91310793
v 4.67936802 5.00880957 -0.03241386
v 5.57600737 3.96138763 0.91310793
v 4.67654943 5.00638342 0.91310793
v 5.57882547 3.96381330 -0.03241386
v 5.59246778 3.97555566 -0.03234307
v 5.58964968 3.97312999 0.91317874
v 5.57882547 3.96381330 -0.03241386
v 5.58964968 3.97312999 0.91317874
v 5.57600737 3.96138763 0.91310793
v 5.59246778 3.97555566 -0.03234307
v 4.69301033 5.02055168 -0.03234307
v 4.69019175 5.01812601 0.91317874
v 5.59246778 3.97555566 -0.03234307
v 4.69019175 5.01812601 0.91317874
v 5.58964968 3.97312999 0.91317874
v 4.69301033 5.02055168 -0.03234307
v 4.67936802 5.00880957 -0.03241386
v 4.67654943 5.00638342 0.91310793
v 4.69301033 5.02055168 -0.03234307
v 4.67654943 5.00638342 0.91310793
v 4.69019175 5.01812601 0.91317874
vt -1.53198040 0.01999998
vt 1.53198040 0.01999998
vt 1.53198040 -0.01999998
vt -1.53198040 0.01999998
vt 1.53198040 -0.01999998
vt -1.53198040 -0.01999998
vt -1.53198040 -0.01999998
vt 1.53198040 -0.01999998
vt 1.53198040 0.01999998
vt -1.53198040 -0.01999998
vt 1.53198040 0.01999998
vt -1.53198040 0.01999998
vt -1.53198040 -1.05058789
vt 1.53198040 -1.05058789
vt 1.53198040 1.05058789
vt -1.53198040 -1.05058789
vt 1.53198040 1.05058789
vt -1.53198040 1.05058789
vt -0.02000000 -1.05058789
vt 0.02000000 -1.05058789
vt 0.02000000 1.05058789
vt -0.02000000 -1.05058789
vt 0.02000000 1.05058789
vt -0.02000000 1.05058789
vt 1.53198040 -1.05058789
vt -1.53198040 -1.05058789
vt -1.53198040 1.05058789
vt 1.53198040 -1.05058789
vt -1.53198040 1.05058789
vt 1.53198040 1.05058789
vt 0.02000000 -1.05058789
vt -0.02000000 -1.05058789
vt -0.02000000 1.05058789
vt 0.02000000 -1.05058789
vt -0.02000000 1.05058789
vt 0.02000000 1.05058789
f 1/1 2/2 3/3
f 4/4 5/5 6/6
f 7/7 8/8 9/9
f 10/10 11/11 12/12
f 13/13 14/14 15/15
f 16/16 17/17 18/18
f 19/19 20/20 21/21
f 22/22 23/23 24/24
f 25/25 26/26 27/27
f 28/28 29/29 30/30
f 31/31 32/32 33/33
f 34/34 35/35 36/36

