# https://github.com/mikedh/trimesh
mtllib material.mtl
usemtl DarkPlastic
v 4.88907766 4.68666077 -0.52866268
v 5.50613880 3.97261000 -0.52866268
v 5.11124372 3.63135386 -0.53796226
v 4.88907766 4.68666077 -0.52866268
v 5.11124372 3.63135386 -0.53796226
v 4.49418306 4.34540462 -0.53796226
v 4.49394035 4.34519529 -0.51996511
v 5.11100101 3.63114429 -0.51996511
v 5.50589609 3.97240019 -0.51066554
v 4.49394035 4.34519529 -0.51996511
v 5.50589609 3.97240019 -0.51066554
v 4.88883495 4.68645096 -0.51066554
v 4.49418306 4.34540462 -0.53796226
v 5.11124372 3.63135386 -0.53796226
v 5.11100101 3.63114429 -0.51996511
v 4.49418306 4.34540462 -0.53796226
v 5.11100101 3.63114429 -0.51996511
v 4.49394035 4.34519529 -0.51996511
v 5.11124372 3.63135386 -0.53796226
v 5.50613880 3.97261000 -0.52866268
v 5.50589609 3.97240019 -0.51066554
v 5.11124372 3.63135386 -0.53796226
v 5.50589609 3.97240019 -0.51066554
v 5.11100101 3.63114429 -0.51996511
v 5.50613880 3.97261000 -0.52866268
v 4.88907766 4.68666077 -0.52866268
v 4.88883495 4.68645096 -0.51066554
v 5.50613880 3.97261000 -0.52866268
v 4.88883495 4.68645096 -0.51066554
v 5.50589609 3.97240019 -0.51066554
v 4.88907766 4.68666077 -0.52866268
v 4.49418306 4.34540462 -0.53796226
v 4.49394035 4.34519529 -0.51996511
v 4.88907766 4.68666077 -0.52866268
v 4.49394035 4.34519529 -0.51996511
v 4.88883495 4.68645096 -0.51066554
vt -1.04859269 0.58000004
vt 1.04859269 0.58000004
vt 1.04859269 -0.58000004
vt -1.04859269 0.58000004
vt 1.04859269 -0.58000004
vt -1.04859269 -0.58000004
vt -1.04859269 -0.58000004
vt 1.04859269 -0.58000004
vt 1.04859269 0.58000004
vt -1.04859269 -0.58000004
vt 1.04859269 0.58000004
vt -1.04859269 0.58000004
vt -1.04859269 -0.01999998
vt 1.04859269 -0.01999998
vt 1.04859269 0.01999998
vt -1.04859269 -0.01999998
vt 1.04859269 0.01999998
vt -1.04859269 0.01999998
vt -0.58000004 -0.01999998
vt 0.58000004 -0.01999998
vt 0.58000004 0.01999998
vt -0.58000004 -0.01999998
vt 0.58000004 0.01999998
vt -0.58000004 0.01999998
vt 1.04859269 -0.01999998
vt -1.04859269 -0.01999998
vt -1.04859269 0.01999998
vt 1.04859269 -0.01999998
vt -1.04859269 0.01999998
vt 1.04859269 0.01999998
vt 0.58000004 -0.01999998
vt -0.58000004 -0.01999998
vt -0.58000004 0.01999998
vt 0.58000004 -0.01999998
vt -0.58000004 0.01999998
vt 0.58000004 0.01999998
f 1/1 2/2 3/3
f 4/4 5/5 6/6
f 7/7 8/8 9/9
f 10/10 11/11 12/12
f 13/13 14/14 15/15
f 16/16 17/17 18/18
f 19/19 20/20 21/21
f 22/22 23/23 24/24
f 25/25 26/26 27/27
f 28/28 29/29 30/30
f 31/31 32/32 33/33
f 34/34 35/35 36/36

