# https://github.com/mikedh/trimesh
mtllib material.mtl
usemtl DarkPlastic
v 1.64724624 2.43957615 -1.14885437
v 2.31384206 3.05300808 -1.14885437
v 2.32603025 3.03976345 -1.14902043
v 1.64724624 2.43957615 -1.14885437
v 2.32603025 3.03976345 -1.14902043
v 1.65943456 2.42633152 -1.14902043
v 1.66260660 2.42288446 -0.64106816
v 2.32920241 3.03631639 -0.64106816
v 2.31701422 3.04956102 -0.64090222
v 1.66260660 2.42288446 -0.64106816
v 2.31701422 3.04956102 -0.64090222
v 1.65041840 2.43612909 -0.64090222
v 1.65943456 2.42633152 -1.14902043
v 2.32603025 3.03976345 -1.14902043
v 2.32920241 3.03631639 -0.64106816
v 1.65943456 2.42633152 -1.14902043
v 2.32920241 3.03631639 -0.64106816
v 1.66260660 2.42288446 -0.64106816
v 2.32603025 3.03976345 -1.14902043
v 2.31384206 3.05300808 -1.14885437
v 2.31701422 3.04956102 -0.64090222
v 2.32603025 3.03976345 -1.14902043
v 2.31701422 3.04956102 -0.64090222
v 2.32920241 3.03631639 -0.64106816
v 2.31384206 3.05300808 -1.14885437
v 1.64724624 2.43957615 -1.14885437
v 1.65041840 2.43612909 -0.64090222
v 2.31384206 3.05300808 -1.14885437
v 1.65041840 2.43612909 -0.64090222
v 2.31701422 3.04956102 -0.64090222
v 1.64724624 2.43957615 -1.14885437
v 1.65943456 2.42633152 -1.14902043
v 1.66260660 2.42288446 -0.64106816
v 1.64724624 2.43957615 -1.14885437
v 1.66260660 2.42288446 -0.64106816
v 1.65041840 2.43612909 -0.64090222
vt -1.00655186 0.01999998
vt 1.00655186 0.01999998
vt 1.00655186 -0.01999998
vt -1.00655186 0.01999998
vt 1.00655186 -0.01999998
vt -1.00655186 -0.01999998
vt -1.00655186 -0.01999998
vt 1.00655186 -0.01999998
vt 1.00655186 0.01999998
vt -1.00655186 -0.01999998
vt 1.00655186 0.01999998
vt -1.00655186 0.01999998
vt -1.00655186 -0.56441534
vt 1.00655186 -0.56441534
vt 1.00655186 0.56441534
vt -1.00655186 -0.56441534
vt 1.00655186 0.56441534
vt -1.00655186 0.56441534
vt -0.02000000 -0.56441534
vt 0.02000000 -0.56441534
vt 0.02000000 0.56441534
vt -0.02000000 -0.56441534
vt 0.02000000 0.56441534
vt -0.02000000 0.56441534
vt 1.00655186 -0.56441534
vt -1.00655186 -0.56441534
vt -1.00655186 0.56441534
vt 1.00655186 -0.56441534
vt -1.00655186 0.56441534
vt 1.00655186 0.56441534
vt 0.02000000 -0.56441534
vt -0.02000000 -0.56441534
vt -0.02000000 0.56441534
vt 0.02000000 -0.56441534
vt -0.02000000 0.56441534
vt 0.02000000 0.56441534
f 1/1 2/2 3/3
f 4/4 5/5 6/6
f 7/7 8/8 9/9
f 10/10 11/11 12/12
f 13/13 14/14 15/15
f 16/16 17/17 18/18
f 19/19 20/20 21/21
f 22/22 23/23 24/24
f 25/25 26/26 27/27
f 28/28 29/29 30/30
f 31/31 32/32 33/33
f 34/34 35/35 36/36

