# https://github.com/mikedh/trimesh
mtllib material.mtl
usemtl DarkPlastic
v 0.95610672 1.77485192 -0.32023618
v 0.97241700 1.78961408 -0.32046634
v 0.98717904 1.77331352 -0.31985587
v 0.95610672 1.77485192 -0.32023618
v 0.98717904 1.77331352 -0.31985587
v 0.97086877 1.75855124 -0.31962571
v 0.97048843 1.75951695 -0.28464112
v 0.98679864 1.77427924 -0.28487128
v 0.97203660 1.79057980 -0.28548172
v 0.97048843 1.75951695 -0.28464112
v 0.97203660 1.79057980 -0.28548172
v 0.95572639 1.77581763 -0.28525156
v 0.97086877 1.75855124 -0.31962571
v 0.98717904 1.77331352 -0.31985587
v 0.98679864 1.77427924 -0.28487128
v 0.97086877 1.75855124 -0.31962571
v 0.98679864 1.77427924 -0.28487128
v 0.97048843 1.75951695 -0.28464112
v 0.98717904 1.77331352 -0.31985587
v 0.97241700 1.78961408 -0.32046634
v 0.97203660 1.79057980 -0.28548172
v 0.98717904 1.77331352 -0.31985587
v 0.97203660 1.79057980 -0.28548172
v 0.98679864 1.77427924 -0.28487128
v 0.97241700 1.78961408 -0.32046634
v 0.95610672 1.77485192 -0.32023618
v 0.95572639 1.77581763 -0.28525156
v 0.97241700 1.78961408 -0.32046634
v 0.95572639 1.77581763 -0.28525156
v 0.97203660 1.79057980 -0.28548172
v 0.95610672 1.77485192 -0.32023618
v 0.97086877 1.75855124 -0.31962571
v 0.97048843 1.75951695 -0.28464112
v 0.95610672 1.77485192 -0.32023618
v 0.97048843 1.75951695 -0.28464112
v 0.95572639 1.77581763 -0.28525156
vt -0.02444444 0.02444446
vt 0.02444444 0.02444446
vt 0.02444444 -0.02444446
vt -0.02444444 0.02444446
vt 0.02444444 -0.02444446
vt -0.02444444 -0.02444446
vt -0.02444444 -0.02444446
vt 0.02444444 -0.02444446
vt 0.02444444 0.02444446
vt -0.02444444 -0.02444446
vt 0.02444444 0.02444446
vt -0.02444444 0.02444446
vt -0.02444444 -0.03888893
vt 0.02444444 -0.03888893
vt 0.02444444 0.03888887
vt -0.02444444 -0.03888893
vt 0.02444444 0.03888887
vt -0.02444444 0.03888887
vt -0.02444444 -0.03888893
vt 0.02444444 -0.03888893
vt 0.02444444 0.03888887
vt -0.02444444 -0.03888893
vt 0.02444444 0.03888887
vt -0.02444444 0.03888887
vt 0.02444444 -0.03888893
vt -0.02444444 -0.03888893
vt -0.02444444 0.03888887
vt 0.02444444 -0.03888893
vt -0.02444444 0.03888887
vt 0.02444444 0.03888887
vt 0.02444444 -0.03888893
vt -0.02444444 -0.03888893
vt -0.02444444 0.03888887
vt 0.02444444 -0.03888893
vt -0.02444444 0.03888887
vt 0.02444444 0.03888887
f 1/1 2/2 3/3
f 4/4 5/5 6/6
f 7/7 8/8 9/9
f 10/10 11/11 12/12
f 13/13 14/14 15/15
f 16/16 17/17 18/18
f 19/19 20/20 21/21
f 22/22 23/23 24/24
f 25/25 26/26 27/27
f 28/28 29/29 30/30
f 31/31 32/32 33/33
f 34/34 35/35 36/36

