# https://github.com/mikedh/trimesh
mtllib material.mtl
usemtl Front_01_island_paper
v 5.16122150 0.76611757 -1.14724660
v 4.90668726 1.06369388 -1.14219964
v 4.92036343 1.07539523 -1.14239490
v 5.16122150 0.76611757 -1.14724660
v 4.92036343 1.07539523 -1.14239490
v 5.17489767 0.77781892 -1.14744174
v 5.18807077 0.77564299 -0.35477388
v 4.93353653 1.07321930 -0.34972700
v 4.91986036 1.06151795 -0.34953186
v 5.18807077 0.77564299 -0.35477388
v 4.91986036 1.06151795 -0.34953186
v 5.17439461 0.76394159 -0.35457873
v 5.17489767 0.77781892 -1.14744174
v 4.92036343 1.07539523 -1.14239490
v 4.93353653 1.07321930 -0.34972700
v 5.17489767 0.77781892 -1.14744174
v 4.93353653 1.07321930 -0.34972700
v 5.18807077 0.77564299 -0.35477388
v 4.92036343 1.07539523 -1.14239490
v 4.90668726 1.06369388 -1.14219964
v 4.91986036 1.06151795 -0.34953186
v 4.92036343 1.07539523 -1.14239490
v 4.91986036 1.06151795 -0.34953186
v 4.93353653 1.07321930 -0.34972700
v 4.90668726 1.06369388 -1.14219964
v 5.16122150 0.76611757 -1.14724660
v 5.17439461 0.76394159 -0.35457873
v 4.90668726 1.06369388 -1.14219964
v 5.17439461 0.76394159 -0.35457873
v 4.91986036 1.06151795 -0.34953186
v 5.16122150 0.76611757 -1.14724660
v 5.17489767 0.77781892 -1.14744174
v 5.18807077 0.77564299 -0.35477388
v 5.16122150 0.76611757 -1.14724660
v 5.18807077 0.77564299 -0.35477388
v 5.17439461 0.76394159 -0.35457873
vt 0.00065104 0.99902344
vt 0.33268228 0.99902344
vt 0.33268228 0.50097656
vt 0.00065104 0.99902344
vt 0.33268228 0.50097656
vt 0.00065104 0.50097656
vt 0.33398438 0.99902344
vt 0.66601562 0.99902344
vt 0.66601562 0.50097656
vt 0.33398438 0.99902344
vt 0.66601562 0.50097656
vt 0.33398438 0.50097656
vt 0.66731769 0.99902344
vt 0.99934894 0.99902344
vt 0.99934894 0.50097656
vt 0.66731769 0.99902344
vt 0.99934894 0.50097656
vt 0.66731769 0.50097656
vt 0.00065104 0.49902344
vt 0.33268228 0.49902344
vt 0.33268228 0.00097656
vt 0.00065104 0.49902344
vt 0.33268228 0.00097656
vt 0.00065104 0.00097656
vt 0.33398438 0.49902344
vt 0.66601562 0.49902344
vt 0.66601562 0.00097656
vt 0.33398438 0.49902344
vt 0.66601562 0.00097656
vt 0.33398438 0.00097656
vt 0.66731769 0.49902344
vt 0.99934894 0.49902344
vt 0.99934894 0.00097656
vt 0.66731769 0.49902344
vt 0.99934894 0.00097656
vt 0.66731769 0.00097656
f 1/1 2/2 3/3
f 4/4 5/5 6/6
f 7/7 8/8 9/9
f 10/10 11/11 12/12
f 13/13 14/14 15/15
f 16/16 17/17 18/18
f 19/19 20/20 21/21
f 22/22 23/23 24/24
f 25/25 26/26 27/27
f 28/28 29/29 30/30
f 31/31 32/32 33/33
f 34/34 35/35 36/36

