# https://github.com/mikedh/trimesh
mtllib material.mtl
usemtl BrushedStainless
v 3.77446198 1.73853612 -0.50266314
v 3.77251220 1.74081564 -0.50262451
v 4.01944399 1.95209074 -0.50614816
v 3.77446198 1.73853612 -0.50266314
v 4.01944399 1.95209074 -0.50614816
v 4.02139378 1.94981110 -0.50618684
v 4.02438498 1.94931710 -0.32621235
v 4.02243519 1.95159674 -0.32617369
v 3.77550292 1.74032164 -0.32265002
v 4.02438498 1.94931710 -0.32621235
v 3.77550292 1.74032164 -0.32265002
v 3.77745295 1.73804212 -0.32268867
v 4.02139378 1.94981110 -0.50618684
v 4.01944399 1.95209074 -0.50614816
v 4.02243519 1.95159674 -0.32617369
v 4.02139378 1.94981110 -0.50618684
v 4.02243519 1.95159674 -0.32617369
v 4.02438498 1.94931710 -0.32621235
v 4.01944399 1.95209074 -0.50614816
v 3.77251220 1.74081564 -0.50262451
v 3.77550292 1.74032164 -0.32265002
v 4.01944399 1.95209074 -0.50614816
v 3.77550292 1.74032164 -0.32265002
v 4.02243519 1.95159674 -0.32617369
v 3.77251220 1.74081564 -0.50262451
v 3.77446198 1.73853612 -0.50266314
v 3.77745295 1.73804212 -0.32268867
v 3.77251220 1.74081564 -0.50262451
v 3.77745295 1.73804212 -0.32268867
v 3.77550292 1.74032164 -0.32265002
v 3.77446198 1.73853612 -0.50266314
v 4.02139378 1.94981110 -0.50618684
v 4.02438498 1.94931710 -0.32621235
v 3.77446198 1.73853612 -0.50266314
v 4.02438498 1.94931710 -0.32621235
v 3.77745295 1.73804212 -0.32268867
vt -0.00333333 0.36111110
vt 0.00333333 0.36111110
vt 0.00333333 -0.36111116
vt -0.00333333 0.36111110
vt 0.00333333 -0.36111116
vt -0.00333333 -0.36111116
vt -0.00333333 -0.36111116
vt 0.00333333 -0.36111116
vt 0.00333333 0.36111110
vt -0.00333333 -0.36111116
vt 0.00333333 0.36111110
vt -0.00333333 0.36111110
vt -0.00333333 -0.20000005
vt 0.00333333 -0.20000005
vt 0.00333333 0.19999999
vt -0.00333333 -0.20000005
vt 0.00333333 0.19999999
vt -0.00333333 0.19999999
vt -0.36111110 -0.20000005
vt 0.36111110 -0.20000005
vt 0.36111110 0.19999999
vt -0.36111110 -0.20000005
vt 0.36111110 0.19999999
vt -0.36111110 0.19999999
vt 0.00333333 -0.20000005
vt -0.00333333 -0.20000005
vt -0.00333333 0.19999999
vt 0.00333333 -0.20000005
vt -0.00333333 0.19999999
vt 0.00333333 0.19999999
vt 0.36111110 -0.20000005
vt -0.36111110 -0.20000005
vt -0.36111110 0.19999999
vt 0.36111110 -0.20000005
vt -0.36111110 0.19999999
vt 0.36111110 0.19999999
f 1/1 2/2 3/3
f 4/4 5/5 6/6
f 7/7 8/8 9/9
f 10/10 11/11 12/12
f 13/13 14/14 15/15
f 16/16 17/17 18/18
f 19/19 20/20 21/21
f 22/22 23/23 24/24
f 25/25 26/26 27/27
f 28/28 29/29 30/30
f 31/31 32/32 33/33
f 34/34 35/35 36/36

