# https://github.com/mikedh/trimesh
mtllib material.mtl
usemtl DarkPlastic
v 6.73084116 2.55585933 -0.81376857
v 7.02335835 2.21736431 -0.81376857
v 6.63208294 1.87923574 -0.82298285
v 6.73084116 2.55585933 -0.81376857
v 6.63208294 1.87923574 -0.82298285
v 6.33956575 2.21773076 -0.82298285
v 6.33932304 2.21752119 -0.80498570
v 6.63184023 1.87902606 -0.80498570
v 7.02311563 2.21715450 -0.79577142
v 6.33932304 2.21752119 -0.80498570
v 7.02311563 2.21715450 -0.79577142
v 6.73059893 2.55564952 -0.79577142
v 6.33956575 2.21773076 -0.82298285
v 6.63208294 1.87923574 -0.82298285
v 6.63184023 1.87902606 -0.80498570
v 6.33956575 2.21773076 -0.82298285
v 6.63184023 1.87902606 -0.80498570
v 6.33932304 2.21752119 -0.80498570
v 6.63208294 1.87923574 -0.82298285
v 7.02335835 2.21736431 -0.81376857
v 7.02311563 2.21715450 -0.79577142
v 6.63208294 1.87923574 -0.82298285
v 7.02311563 2.21715450 -0.79577142
v 6.63184023 1.87902606 -0.80498570
v 7.02335835 2.21736431 -0.81376857
v 6.73084116 2.55585933 -0.81376857
v 6.73059893 2.55564952 -0.79577142
v 7.02335835 2.21736431 -0.81376857
v 6.73059893 2.55564952 -0.79577142
v 7.02311563 2.21715450 -0.79577142
v 6.73084116 2.55585933 -0.81376857
v 6.33956575 2.21773076 -0.82298285
v 6.33932304 2.21752119 -0.80498570
v 6.73084116 2.55585933 -0.81376857
v 6.33932304 2.21752119 -0.80498570
v 6.73059893 2.55564952 -0.79577142
vt -0.49708432 0.57468438
vt 0.49708432 0.57468438
vt 0.49708432 -0.57468438
vt -0.49708432 0.57468438
vt 0.49708432 -0.57468438
vt -0.49708432 -0.57468438
vt -0.49708432 -0.57468438
vt 0.49708432 -0.57468438
vt 0.49708432 0.57468438
vt -0.49708432 -0.57468438
vt 0.49708432 0.57468438
vt -0.49708432 0.57468438
vt -0.49708432 -0.01999998
vt 0.49708432 -0.01999998
vt 0.49708432 0.01999998
vt -0.49708432 -0.01999998
vt 0.49708432 0.01999998
vt -0.49708432 0.01999998
vt -0.57468438 -0.01999998
vt 0.57468438 -0.01999998
vt 0.57468438 0.01999998
vt -0.57468438 -0.01999998
vt 0.57468438 0.01999998
vt -0.57468438 0.01999998
vt 0.49708432 -0.01999998
vt -0.49708432 -0.01999998
vt -0.49708432 0.01999998
vt 0.49708432 -0.01999998
vt -0.49708432 0.01999998
vt 0.49708432 0.01999998
vt 0.57468438 -0.01999998
vt -0.57468438 -0.01999998
vt -0.57468438 0.01999998
vt 0.57468438 -0.01999998
vt -0.57468438 0.01999998
vt 0.57468438 0.01999998
f 1/1 2/2 3/3
f 4/4 5/5 6/6
f 7/7 8/8 9/9
f 10/10 11/11 12/12
f 13/13 14/14 15/15
f 16/16 17/17 18/18
f 19/19 20/20 21/21
f 22/22 23/23 24/24
f 25/25 26/26 27/27
f 28/28 29/29 30/30
f 31/31 32/32 33/33
f 34/34 35/35 36/36

