# https://github.com/mikedh/trimesh
mtllib material.mtl
usemtl DarkPlastic
v 7.11798954 1.42957997 -1.25120151
v 8.16577339 0.21771465 -1.27357650
v 8.14685345 0.20136435 -1.27345383
v 7.11798954 1.42957997 -1.25120151
v 8.14685345 0.20136435 -1.27345383
v 7.09906912 1.41322970 -1.25107872
v 7.09807444 1.41237020 -1.17730498
v 8.14555645 0.20024419 -1.17730498
v 8.16446972 0.21658786 -1.17685950
v 7.09807444 1.41237020 -1.17730498
v 8.16446972 0.21658786 -1.17685950
v 7.11698723 1.42871392 -1.17685950
v 7.09906912 1.41322970 -1.25107872
v 8.14685345 0.20136435 -1.27345383
v 8.14555645 0.20024419 -1.17730498
v 7.09906912 1.41322970 -1.25107872
v 8.14555645 0.20024419 -1.17730498
v 7.09807444 1.41237020 -1.17730498
v 8.14685345 0.20136435 -1.27345383
v 8.16577339 0.21771465 -1.27357650
v 8.16446972 0.21658786 -1.17685950
v 8.14685345 0.20136435 -1.27345383
v 8.16446972 0.21658786 -1.17685950
v 8.14555645 0.20024419 -1.17730498
v 8.16577339 0.21771465 -1.27357650
v 7.11798954 1.42957997 -1.25120151
v 7.11698723 1.42871392 -1.17685950
v 8.16577339 0.21771465 -1.27357650
v 7.11698723 1.42871392 -1.17685950
v 8.16446972 0.21658786 -1.17685950
v 7.11798954 1.42957997 -1.25120151
v 7.09906912 1.41322970 -1.25107872
v 7.09807444 1.41237020 -1.17730498
v 7.11798954 1.42957997 -1.25120151
v 7.09807444 1.41237020 -1.17730498
v 7.11698723 1.42871392 -1.17685950
vt -1.78002238 0.02777779
vt 1.78002238 0.02777779
vt 1.78002238 -0.02777779
vt -1.78002238 0.02777779
vt 1.78002238 -0.02777779
vt -1.78002238 -0.02777779
vt -1.78002238 -0.02777779
vt 1.78002238 -0.02777779
vt 1.78002238 0.02777779
vt -1.78002238 -0.02777779
vt 1.78002238 0.02777779
vt -1.78002238 0.02777779
vt -1.78002238 -0.05285668
vt 1.78002238 -0.10258687
vt 1.78002238 0.11111110
vt -1.78002238 -0.05285668
vt 1.78002238 0.11111110
vt -1.78002238 0.11111110
vt -0.02777778 -0.10258687
vt 0.02777778 -0.10384965
vt 0.02777778 0.11111110
vt -0.02777778 -0.10258687
vt 0.02777778 0.11111110
vt -0.02777778 0.11111110
vt 1.78002238 -0.10384965
vt -1.78002238 -0.05411947
vt -1.78002238 0.11111110
vt 1.78002238 -0.10384965
vt -1.78002238 0.11111110
vt 1.78002238 0.11111110
vt 0.02777778 -0.05411947
vt -0.02777778 -0.05285668
vt -0.02777778 0.11111110
vt 0.02777778 -0.05411947
vt -0.02777778 0.11111110
vt 0.02777778 0.11111110
f 1/1 2/2 3/3
f 4/4 5/5 6/6
f 7/7 8/8 9/9
f 10/10 11/11 12/12
f 13/13 14/14 15/15
f 16/16 17/17 18/18
f 19/19 20/20 21/21
f 22/22 23/23 24/24
f 25/25 26/26 27/27
f 28/28 29/29 30/30
f 31/31 32/32 33/33
f 34/34 35/35 36/36

