# https://github.com/mikedh/trimesh
mtllib material.mtl
usemtl PaleWood
v -0.23181105 0.30255520 -1.06644309
v 0.10394339 0.59478682 -1.06644309
v 0.11575938 0.58121109 -1.06672728
v -0.23181105 0.30255520 -1.06644309
v 0.11575938 0.58121109 -1.06672728
v -0.21999507 0.28897941 -1.06672728
v -0.21309772 0.28105485 -0.33425418
v 0.12265672 0.57328647 -0.33867055
v 0.11084073 0.58686227 -0.33917379
v -0.21309772 0.28105485 -0.33425418
v 0.11084073 0.58686227 -0.33917379
v -0.22491372 0.29463062 -0.33475739
v -0.21999507 0.28897941 -1.06672728
v 0.11575938 0.58121109 -1.06672728
v 0.12265672 0.57328647 -0.33867055
v -0.21999507 0.28897941 -1.06672728
v 0.12265672 0.57328647 -0.33867055
v -0.21309772 0.28105485 -0.33425418
v 0.11575938 0.58121109 -1.06672728
v 0.10394339 0.59478682 -1.06644309
v 0.11084073 0.58686227 -0.33917379
v 0.11575938 0.58121109 -1.06672728
v 0.11084073 0.58686227 -0.33917379
v 0.12265672 0.57328647 -0.33867055
v 0.10394339 0.59478682 -1.06644309
v -0.23181105 0.30255520 -1.06644309
v -0.22491372 0.29463062 -0.33475739
v 0.10394339 0.59478682 -1.06644309
v -0.22491372 0.29463062 -0.33475739
v 0.11084073 0.58686227 -0.33917379
v -0.23181105 0.30255520 -1.06644309
v -0.21999507 0.28897941 -1.06672728
v -0.21309772 0.28105485 -0.33425418
v -0.23181105 0.30255520 -1.06644309
v -0.21309772 0.28105485 -0.33425418
v -0.22491372 0.29463062 -0.33475739
vt -0.49457601 0.01999998
vt 0.49457601 0.01999998
vt 0.49457601 -0.01999998
vt -0.49457601 0.01999998
vt 0.49457601 -0.01999998
vt -0.49457601 -0.01999998
vt -0.49457601 -0.01999998
vt 0.49457601 -0.01999998
vt 0.49457601 0.01999998
vt -0.49457601 -0.01999998
vt 0.49457601 0.01999998
vt -0.49457601 0.01999998
vt -0.49457601 -0.73936057
vt 0.49457601 -0.73936057
vt 0.49457601 0.73936051
vt -0.49457601 -0.73936057
vt 0.49457601 0.73936051
vt -0.49457601 0.73936051
vt -0.02000000 -0.73936057
vt 0.02000000 -0.73936057
vt 0.02000000 0.73936051
vt -0.02000000 -0.73936057
vt 0.02000000 0.73936051
vt -0.02000000 0.73936051
vt 0.49457601 -0.73936057
vt -0.49457601 -0.73936057
vt -0.49457601 0.73936051
vt 0.49457601 -0.73936057
vt -0.49457601 0.73936051
vt 0.49457601 0.73936051
vt 0.02000000 -0.73936057
vt -0.02000000 -0.73936057
vt -0.02000000 0.73936051
vt 0.02000000 -0.73936057
vt -0.02000000 0.73936051
vt 0.02000000 0.73936051
f 1/1 2/2 3/3
f 4/4 5/5 6/6
f 7/7 8/8 9/9
f 10/10 11/11 12/12
f 13/13 14/14 15/15
f 16/16 17/17 18/18
f 19/19 20/20 21/21
f 22/22 23/23 24/24
f 25/25 26/26 27/27
f 28/28 29/29 30/30
f 31/31 32/32 33/33
f 34/34 35/35 36/36

