# https://github.com/mikedh/trimesh
mtllib material.mtl
usemtl DarkPlastic
v 1.23249769 2.21666312 -0.82028228
v 1.55197275 2.49472547 -0.82028228
v 1.56378865 2.48114967 -0.82056648
v 1.23249769 2.21666312 -0.82028228
v 1.56378865 2.48114967 -0.82056648
v 1.24431372 2.20308733 -0.82056648
v 1.24543369 2.20180058 -0.71253037
v 1.56490862 2.47986293 -0.71253037
v 1.55309272 2.49343872 -0.71224618
v 1.24543369 2.20180058 -0.71253037
v 1.55309272 2.49343872 -0.71224618
v 1.23361766 2.21537638 -0.71224618
v 1.24431372 2.20308733 -0.82056648
v 1.56378865 2.48114967 -0.82056648
v 1.56490862 2.47986293 -0.71253037
v 1.24431372 2.20308733 -0.82056648
v 1.56490862 2.47986293 -0.71253037
v 1.24543369 2.20180058 -0.71253037
v 1.56378865 2.48114967 -0.82056648
v 1.55197275 2.49472547 -0.82028228
v 1.55309272 2.49343872 -0.71224618
v 1.56378865 2.48114967 -0.82056648
v 1.55309272 2.49343872 -0.71224618
v 1.56490862 2.47986293 -0.71253037
v 1.55197275 2.49472547 -0.82028228
v 1.23249769 2.21666312 -0.82028228
v 1.23361766 2.21537638 -0.71224618
v 1.55197275 2.49472547 -0.82028228
v 1.23361766 2.21537638 -0.71224618
v 1.55309272 2.49343872 -0.71224618
v 1.23249769 2.21666312 -0.82028228
v 1.24431372 2.20308733 -0.82056648
v 1.24543369 2.20180058 -0.71253037
v 1.23249769 2.21666312 -0.82028228
v 1.24543369 2.20180058 -0.71253037
v 1.23361766 2.21537638 -0.71224618
vt -0.47059584 0.01999998
vt 0.47059584 0.01999998
vt 0.47059584 -0.01999998
vt -0.47059584 0.01999998
vt 0.47059584 -0.01999998
vt -0.47059584 -0.01999998
vt -0.47059584 -0.01999998
vt 0.47059584 -0.01999998
vt 0.47059584 0.01999998
vt -0.47059584 -0.01999998
vt 0.47059584 0.01999998
vt -0.47059584 0.01999998
vt -0.47059584 -0.12005508
vt 0.47059584 -0.12005508
vt 0.47059584 0.12005508
vt -0.47059584 -0.12005508
vt 0.47059584 0.12005508
vt -0.47059584 0.12005508
vt -0.02000000 -0.12005508
vt 0.02000000 -0.12005508
vt 0.02000000 0.12005508
vt -0.02000000 -0.12005508
vt 0.02000000 0.12005508
vt -0.02000000 0.12005508
vt 0.47059584 -0.12005508
vt -0.47059584 -0.12005508
vt -0.47059584 0.12005508
vt 0.47059584 -0.12005508
vt -0.47059584 0.12005508
vt 0.47059584 0.12005508
vt 0.02000000 -0.12005508
vt -0.02000000 -0.12005508
vt -0.02000000 0.12005508
vt 0.02000000 -0.12005508
vt -0.02000000 0.12005508
vt 0.02000000 0.12005508
f 1/1 2/2 3/3
f 4/4 5/5 6/6
f 7/7 8/8 9/9
f 10/10 11/11 12/12
f 13/13 14/14 15/15
f 16/16 17/17 18/18
f 19/19 20/20 21/21
f 22/22 23/23 24/24
f 25/25 26/26 27/27
f 28/28 29/29 30/30
f 31/31 32/32 33/33
f 34/34 35/35 36/36

