# https://github.com/mikedh/trimesh
mtllib material.mtl
usemtl DarkPlastic
v 1.24951100 2.22453308 -1.05890763
v 1.54183090 2.47896051 -1.05890763
v 1.86105216 2.11219692 -1.06658518
v 1.24951100 2.22453308 -1.05890763
v 1.86105216 2.11219692 -1.06658518
v 1.56873214 1.85776961 -1.06658518
v 1.56891870 1.85755515 -1.04858744
v 1.86123872 2.11198258 -1.04858744
v 1.54201758 2.47874618 -1.04090989
v 1.56891870 1.85755515 -1.04858744
v 1.54201758 2.47874618 -1.04090989
v 1.24969757 2.22431874 -1.04090989
v 1.56873214 1.85776961 -1.06658518
v 1.86105216 2.11219692 -1.06658518
v 1.86123872 2.11198258 -1.04858744
v 1.56873214 1.85776961 -1.06658518
v 1.86123872 2.11198258 -1.04858744
v 1.56891870 1.85755515 -1.04858744
v 1.86105216 2.11219692 -1.06658518
v 1.54183090 2.47896051 -1.05890763
v 1.54201758 2.47874618 -1.04090989
v 1.86105216 2.11219692 -1.06658518
v 1.54201758 2.47874618 -1.04090989
v 1.86123872 2.11198258 -1.04858744
v 1.54183090 2.47896051 -1.05890763
v 1.24951100 2.22453308 -1.05890763
v 1.24969757 2.22431874 -1.04090989
v 1.54183090 2.47896051 -1.05890763
v 1.24969757 2.22431874 -1.04090989
v 1.54201758 2.47874618 -1.04090989
v 1.24951100 2.22453308 -1.05890763
v 1.56873214 1.85776961 -1.06658518
v 1.56891870 1.85755515 -1.04858744
v 1.24951100 2.22453308 -1.05890763
v 1.56891870 1.85755515 -1.04858744
v 1.24969757 2.22431874 -1.04090989
vt -0.43059582 0.54032069
vt 0.43059582 0.54032069
vt 0.43059582 -0.54032063
vt -0.43059582 0.54032069
vt 0.43059582 -0.54032063
vt -0.43059582 -0.54032063
vt -0.43059582 -0.54032063
vt 0.43059582 -0.54032063
vt 0.43059582 0.54032069
vt -0.43059582 -0.54032063
vt 0.43059582 0.54032069
vt -0.43059582 0.54032069
vt -0.43059582 -0.01999998
vt 0.43059582 -0.01999998
vt 0.43059582 0.01999998
vt -0.43059582 -0.01999998
vt 0.43059582 0.01999998
vt -0.43059582 0.01999998
vt -0.54032069 -0.01999998
vt 0.54032069 -0.01999998
vt 0.54032069 0.01999998
vt -0.54032069 -0.01999998
vt 0.54032069 0.01999998
vt -0.54032069 0.01999998
vt 0.43059582 -0.01999998
vt -0.43059582 -0.01999998
vt -0.43059582 0.01999998
vt 0.43059582 -0.01999998
vt -0.43059582 0.01999998
vt 0.43059582 0.01999998
vt 0.54032069 -0.01999998
vt -0.54032069 -0.01999998
vt -0.54032069 0.01999998
vt 0.54032069 -0.01999998
vt -0.54032069 0.01999998
vt 0.54032069 0.01999998
f 1/1 2/2 3/3
f 4/4 5/5 6/6
f 7/7 8/8 9/9
f 10/10 11/11 12/12
f 13/13 14/14 15/15
f 16/16 17/17 18/18
f 19/19 20/20 21/21
f 22/22 23/23 24/24
f 25/25 26/26 27/27
f 28/28 29/29 30/30
f 31/31 32/32 33/33
f 34/34 35/35 36/36

