# https://github.com/mikedh/trimesh
mtllib material.mtl
usemtl WhiteSolidSurface
v 7.52916622 1.72772467 -0.45142171
v 8.05711842 1.11703813 -0.46057296
v 8.02392101 1.08835042 -0.45897487
v 7.52916622 1.72772467 -0.45142171
v 8.02392101 1.08835042 -0.45897487
v 7.49596930 1.69903684 -0.44982362
v 7.49549723 1.69862914 -0.41482916
v 8.02344990 1.08794272 -0.42398041
v 8.05664635 1.11663043 -0.42557853
v 7.49549723 1.69862914 -0.41482916
v 8.05664635 1.11663043 -0.42557853
v 7.52869415 1.72731698 -0.41642725
v 7.49596930 1.69903684 -0.44982362
v 8.02392101 1.08835042 -0.45897487
v 8.02344990 1.08794272 -0.42398041
v 7.49596930 1.69903684 -0.44982362
v 8.02344990 1.08794272 -0.42398041
v 7.49549723 1.69862914 -0.41482916
v 8.02392101 1.08835042 -0.45897487
v 8.05711842 1.11703813 -0.46057296
v 8.05664635 1.11663043 -0.42557853
v 8.02392101 1.08835042 -0.45897487
v 8.05664635 1.11663043 -0.42557853
v 8.02344990 1.08794272 -0.42398041
v 8.05711842 1.11703813 -0.46057296
v 7.52916622 1.72772467 -0.45142171
v 7.52869415 1.72731698 -0.41642725
v 8.05711842 1.11703813 -0.46057296
v 7.52869415 1.72731698 -0.41642725
v 8.05664635 1.11663043 -0.42557853
v 7.52916622 1.72772467 -0.45142171
v 7.49596930 1.69903684 -0.44982362
v 7.49549723 1.69862914 -0.41482916
v 7.52916622 1.72772467 -0.45142171
v 7.49549723 1.69862914 -0.41482916
v 7.52869415 1.72731698 -0.41642725
vt 0.00000000 0.00000000
vt 0.00000000 0.00000000
vt 0.00000000 0.00000000
vt 0.00000000 0.00000000
vt 0.00000000 0.00000000
vt 0.00000000 0.00000000
vt 0.00000000 0.00000000
vt 0.00000000 0.00000000
vt 0.00000000 0.00000000
vt 0.00000000 0.00000000
vt 0.00000000 0.00000000
vt 0.00000000 0.00000000
vt 0.00000000 0.00000000
vt 0.00000000 0.00000000
vt 0.00000000 0.00000000
vt 0.00000000 0.00000000
vt 0.00000000 0.00000000
vt 0.00000000 0.00000000
vt 0.00000000 0.00000000
vt 0.00000000 0.00000000
vt 0.00000000 0.00000000
vt 0.00000000 0.00000000
vt 0.00000000 0.00000000
vt 0.00000000 0.00000000
vt 0.00000000 0.00000000
vt 0.00000000 0.00000000
vt 0.00000000 0.00000000
vt 0.00000000 0.00000000
vt 0.00000000 0.00000000
vt 0.00000000 0.00000000
vt 0.00000000 0.00000000
vt 0.00000000 0.00000000
vt 0.00000000 0.00000000
vt 0.00000000 0.00000000
vt 0.00000000 0.00000000
vt 0.00000000 0.00000000
f 1/1 2/2 3/3
f 4/4 5/5 6/6
f 7/7 8/8 9/9
f 10/10 11/11 12/12
f 13/13 14/14 15/15
f 16/16 17/17 18/18
f 19/19 20/20 21/21
f 22/22 23/23 24/24
f 25/25 26/26 27/27
f 28/28 29/29 30/30
f 31/31 32/32 33/33
f 34/34 35/35 36/36

