# https://github.com/mikedh/trimesh
mtllib material.mtl
usemtl WarmWhitePaint
v 8.67615604 0.40428701 -1.32376504
v 8.18539619 -0.05314081 -1.32082617
v 8.13084984 0.00538014 -1.31969488
v 8.67615604 0.40428701 -1.32376504
v 8.13084984 0.00538014 -1.31969488
v 8.62160969 0.46280795 -1.32263386
v 8.62160969 0.46280795 1.49630976
v 8.13084984 0.00538014 1.49630976
v 8.18539619 -0.05314081 1.49630976
v 8.62160969 0.46280795 1.49630976
v 8.18539619 -0.05314081 1.49630976
v 8.67615604 0.40428701 1.49630976
v 8.62160969 0.46280795 -1.32263386
v 8.13084984 0.00538014 -1.31969488
v 8.13084984 0.00538014 1.49630976
v 8.62160969 0.46280795 -1.32263386
v 8.13084984 0.00538014 1.49630976
v 8.62160969 0.46280795 1.49630976
v 8.13084984 0.00538014 -1.31969488
v 8.18539619 -0.05314081 -1.32082617
v 8.18539619 -0.05314081 1.49630976
v 8.13084984 0.00538014 -1.31969488
v 8.18539619 -0.05314081 1.49630976
v 8.13084984 0.00538014 1.49630976
v 8.18539619 -0.05314081 -1.32082617
v 8.67615604 0.40428701 -1.32376504
v 8.67615604 0.40428701 1.49630976
v 8.18539619 -0.05314081 -1.32082617
v 8.67615604 0.40428701 1.49630976
v 8.18539619 -0.05314081 1.49630976
v 8.67615604 0.40428701 -1.32376504
v 8.62160969 0.46280795 -1.32263386
v 8.62160969 0.46280795 1.49630976
v 8.67615604 0.40428701 -1.32376504
v 8.62160969 0.46280795 1.49630976
v 8.67615604 0.40428701 1.49630976
vt -0.74542642 0.08888888
vt 0.74542642 0.08888888
vt 0.74542642 -0.08888888
vt -0.74542642 0.08888888
vt 0.74542642 -0.08888888
vt -0.74542642 -0.08888888
vt -0.74542642 -0.08888888
vt 0.74542642 -0.08888888
vt 0.74542642 0.08888888
vt -0.74542642 -0.08888888
vt 0.74542642 0.08888888
vt -0.74542642 0.08888888
vt -0.74542642 -3.18942785
vt 0.74542642 -3.18289661
vt 0.74542642 3.07489133
vt -0.74542642 -3.18942785
vt 0.74542642 3.07489133
vt -0.74542642 3.07489133
vt -0.08888888 -3.18289661
vt 0.08888888 -3.18541050
vt 0.08888888 3.07489133
vt -0.08888888 -3.18289661
vt 0.08888888 3.07489133
vt -0.08888888 3.07489133
vt 0.74542642 -3.18541050
vt -0.74542642 -3.19194126
vt -0.74542642 3.07489133
vt 0.74542642 -3.18541050
vt -0.74542642 3.07489133
vt 0.74542642 3.07489133
vt 0.08888888 -3.19194126
vt -0.08888888 -3.18942785
vt -0.08888888 3.07489133
vt 0.08888888 -3.19194126
vt -0.08888888 3.07489133
vt 0.08888888 3.07489133
f 1/1 2/2 3/3
f 4/4 5/5 6/6
f 7/7 8/8 9/9
f 10/10 11/11 12/12
f 13/13 14/14 15/15
f 16/16 17/17 18/18
f 19/19 20/20 21/21
f 22/22 23/23 24/24
f 25/25 26/26 27/27
f 28/28 29/29 30/30
f 31/31 32/32 33/33
f 34/34 35/35 36/36

