# https://github.com/mikedh/trimesh
mtllib material.mtl
usemtl DarkPlastic
v 2.68413329 2.92620158 -1.13774109
v 4.39261866 4.41322088 -1.13774109
v 4.40902948 4.39436579 -1.13813579
v 2.68413329 2.92620158 -1.13774109
v 4.40902948 4.39436579 -1.13813579
v 2.70054436 2.90734625 -1.13813579
v 2.70137382 2.90639353 -1.05814576
v 4.40985870 4.39341307 -1.05814576
v 4.39344788 4.41226816 -1.05775106
v 2.70137382 2.90639353 -1.05814576
v 4.39344788 4.41226816 -1.05775106
v 2.68496251 2.92524886 -1.05775106
v 2.70054436 2.90734625 -1.13813579
v 4.40902948 4.39436579 -1.13813579
v 4.40985870 4.39341307 -1.05814576
v 2.70054436 2.90734625 -1.13813579
v 4.40985870 4.39341307 -1.05814576
v 2.70137382 2.90639353 -1.05814576
v 4.40902948 4.39436579 -1.13813579
v 4.39261866 4.41322088 -1.13774109
v 4.39344788 4.41226816 -1.05775106
v 4.40902948 4.39436579 -1.13813579
v 4.39344788 4.41226816 -1.05775106
v 4.40985870 4.39341307 -1.05814576
v 4.39261866 4.41322088 -1.13774109
v 2.68413329 2.92620158 -1.13774109
v 2.68496251 2.92524886 -1.05775106
v 4.39261866 4.41322088 -1.13774109
v 2.68496251 2.92524886 -1.05775106
v 4.39344788 4.41226816 -1.05775106
v 2.68413329 2.92620158 -1.13774109
v 2.70054436 2.90734625 -1.13813579
v 2.70137382 2.90639353 -1.05814576
v 2.68413329 2.92620158 -1.13774109
v 2.70137382 2.90639353 -1.05814576
v 2.68496251 2.92524886 -1.05775106
vt -2.51664805 0.02777779
vt 2.51664805 0.02777779
vt 2.51664805 -0.02777779
vt -2.51664805 0.02777779
vt 2.51664805 -0.02777779
vt -2.51664805 -0.02777779
vt -2.51664805 -0.02777779
vt 2.51664805 -0.02777779
vt 2.51664805 0.02777779
vt -2.51664805 -0.02777779
vt 2.51664805 0.02777779
vt -2.51664805 0.02777779
vt -2.51664805 -0.08888888
vt 2.51664805 -0.08888888
vt 2.51664805 0.08888888
vt -2.51664805 -0.08888888
vt 2.51664805 0.08888888
vt -2.51664805 0.08888888
vt -0.02777778 -0.08888888
vt 0.02777778 -0.08888888
vt 0.02777778 0.08888888
vt -0.02777778 -0.08888888
vt 0.02777778 0.08888888
vt -0.02777778 0.08888888
vt 2.51664805 -0.08888888
vt -2.51664805 -0.08888888
vt -2.51664805 0.08888888
vt 2.51664805 -0.08888888
vt -2.51664805 0.08888888
vt 2.51664805 0.08888888
vt 0.02777778 -0.08888888
vt -0.02777778 -0.08888888
vt -0.02777778 0.08888888
vt 0.02777778 -0.08888888
vt -0.02777778 0.08888888
vt 0.02777778 0.08888888
f 1/1 2/2 3/3
f 4/4 5/5 6/6
f 7/7 8/8 9/9
f 10/10 11/11 12/12
f 13/13 14/14 15/15
f 16/16 17/17 18/18
f 19/19 20/20 21/21
f 22/22 23/23 24/24
f 25/25 26/26 27/27
f 28/28 29/29 30/30
f 31/31 32/32 33/33
f 34/34 35/35 36/36

