# https://github.com/mikedh/trimesh
mtllib material.mtl
usemtl PaleWood
v 5.56596661 3.99655652 -1.08521533
v 5.57773590 3.98293734 -1.08521533
v 5.15560722 3.61814642 -1.09515631
v 5.56596661 3.99655652 -1.08521533
v 5.15560722 3.61814642 -1.09515631
v 5.14383745 3.63176560 -1.09515631
v 5.13444328 3.62364745 -0.39832968
v 5.14621258 3.61002827 -0.39832968
v 5.56834173 3.97481918 -0.38838878
v 5.13444328 3.62364745 -0.39832968
v 5.56834173 3.97481918 -0.38838878
v 5.55657244 3.98843837 -0.38838878
v 5.14383745 3.63176560 -1.09515631
v 5.15560722 3.61814642 -1.09515631
v 5.14621258 3.61002827 -0.39832968
v 5.14383745 3.63176560 -1.09515631
v 5.14621258 3.61002827 -0.39832968
v 5.13444328 3.62364745 -0.39832968
v 5.15560722 3.61814642 -1.09515631
v 5.57773590 3.98293734 -1.08521533
v 5.56834173 3.97481918 -0.38838878
v 5.15560722 3.61814642 -1.09515631
v 5.56834173 3.97481918 -0.38838878
v 5.14621258 3.61002827 -0.39832968
v 5.57773590 3.98293734 -1.08521533
v 5.56596661 3.99655652 -1.08521533
v 5.55657244 3.98843837 -0.38838878
v 5.57773590 3.98293734 -1.08521533
v 5.55657244 3.98843837 -0.38838878
v 5.56834173 3.97481918 -0.38838878
v 5.56596661 3.99655652 -1.08521533
v 5.14383745 3.63176560 -1.09515631
v 5.13444328 3.62364745 -0.39832968
v 5.56596661 3.99655652 -1.08521533
v 5.13444328 3.62364745 -0.39832968
v 5.55657244 3.98843837 -0.38838878
vt -0.02000000 0.62000000
vt 0.02000000 0.62000000
vt 0.02000000 -0.62000000
vt -0.02000000 0.62000000
vt 0.02000000 -0.62000000
vt -0.02000000 -0.62000000
vt -0.02000000 -0.62000000
vt 0.02000000 -0.62000000
vt 0.02000000 0.62000000
vt -0.02000000 -0.62000000
vt 0.02000000 0.62000000
vt -0.02000000 0.62000000
vt -0.02000000 -0.77437472
vt 0.02000000 -0.77437472
vt 0.02000000 0.77437466
vt -0.02000000 -0.77437472
vt 0.02000000 0.77437466
vt -0.02000000 0.77437466
vt -0.62000000 -0.77437472
vt 0.62000000 -0.77437472
vt 0.62000000 0.77437466
vt -0.62000000 -0.77437472
vt 0.62000000 0.77437466
vt -0.62000000 0.77437466
vt 0.02000000 -0.77437472
vt -0.02000000 -0.77437472
vt -0.02000000 0.77437466
vt 0.02000000 -0.77437472
vt -0.02000000 0.77437466
vt 0.02000000 0.77437466
vt 0.62000000 -0.77437472
vt -0.62000000 -0.77437472
vt -0.62000000 0.77437466
vt 0.62000000 -0.77437472
vt -0.62000000 0.77437466
vt 0.62000000 0.77437466
f 1/1 2/2 3/3
f 4/4 5/5 6/6
f 7/7 8/8 9/9
f 10/10 11/11 12/12
f 13/13 14/14 15/15
f 16/16 17/17 18/18
f 19/19 20/20 21/21
f 22/22 23/23 24/24
f 25/25 26/26 27/27
f 28/28 29/29 30/30
f 31/31 32/32 33/33
f 34/34 35/35 36/36

