# https://github.com/mikedh/trimesh
mtllib material.mtl
usemtl DarkRecess
v 0.61215115 1.67462885 -0.14936472
v 0.61363387 1.67597091 -0.14938565
v 0.63107997 1.65670657 -0.14866419
v 0.61215115 1.67462885 -0.14936472
v 0.63107997 1.65670657 -0.14866419
v 0.62959719 1.65536451 -0.14864327
v 0.62956458 1.65544736 -0.14564459
v 0.63104737 1.65678930 -0.14566551
v 0.61360127 1.67605364 -0.14638697
v 0.62956458 1.65544736 -0.14564459
v 0.61360127 1.67605364 -0.14638697
v 0.61211854 1.67471170 -0.14636604
v 0.62959719 1.65536451 -0.14864327
v 0.63107997 1.65670657 -0.14866419
v 0.63104737 1.65678930 -0.14566551
v 0.62959719 1.65536451 -0.14864327
v 0.63104737 1.65678930 -0.14566551
v 0.62956458 1.65544736 -0.14564459
v 0.63107997 1.65670657 -0.14866419
v 0.61363387 1.67597091 -0.14938565
v 0.61360127 1.67605364 -0.14638697
v 0.63107997 1.65670657 -0.14866419
v 0.61360127 1.67605364 -0.14638697
v 0.63104737 1.65678930 -0.14566551
v 0.61363387 1.67597091 -0.14938565
v 0.61215115 1.67462885 -0.14936472
v 0.61211854 1.67471170 -0.14636604
v 0.61363387 1.67597091 -0.14938565
v 0.61211854 1.67471170 -0.14636604
v 0.61360127 1.67605364 -0.14638697
v 0.61215115 1.67462885 -0.14936472
v 0.62959719 1.65536451 -0.14864327
v 0.62956458 1.65544736 -0.14564459
v 0.61215115 1.67462885 -0.14936472
v 0.62956458 1.65544736 -0.14564459
v 0.61211854 1.67471170 -0.14636604
vt 0.00000000 0.00000000
vt 0.00000000 0.00000000
vt 0.00000000 0.00000000
vt 0.00000000 0.00000000
vt 0.00000000 0.00000000
vt 0.00000000 0.00000000
vt 0.00000000 0.00000000
vt 0.00000000 0.00000000
vt 0.00000000 0.00000000
vt 0.00000000 0.00000000
vt 0.00000000 0.00000000
vt 0.00000000 0.00000000
vt 0.00000000 0.00000000
vt 0.00000000 0.00000000
vt 0.00000000 0.00000000
vt 0.00000000 0.00000000
vt 0.00000000 0.00000000
vt 0.00000000 0.00000000
vt 0.00000000 0.00000000
vt 0.00000000 0.00000000
vt 0.00000000 0.00000000
vt 0.00000000 0.00000000
vt 0.00000000 0.00000000
vt 0.00000000 0.00000000
vt 0.00000000 0.00000000
vt 0.00000000 0.00000000
vt 0.00000000 0.00000000
vt 0.00000000 0.00000000
vt 0.00000000 0.00000000
vt 0.00000000 0.00000000
vt 0.00000000 0.00000000
vt 0.00000000 0.00000000
vt 0.00000000 0.00000000
vt 0.00000000 0.00000000
vt 0.00000000 0.00000000
vt 0.00000000 0.00000000
f 1/1 2/2 3/3
f 4/4 5/5 6/6
f 7/7 8/8 9/9
f 10/10 11/11 12/12
f 13/13 14/14 15/15
f 16/16 17/17 18/18
f 19/19 20/20 21/21
f 22/22 23/23 24/24
f 25/25 26/26 27/27
f 28/28 29/29 30/30
f 31/31 32/32 33/33
f 34/34 35/35 36/36

