# https://github.com/mikedh/trimesh
mtllib material.mtl
usemtl PaleWood
v 6.08897734 2.52600718 -0.98935050
v 6.32900381 2.24825335 -0.98935050
v 6.31538677 2.23648596 -0.98967117
v 6.08897734 2.52600718 -0.98935050
v 6.31538677 2.23648596 -0.98967117
v 6.07536030 2.51423979 -0.98967117
v 6.07327700 2.51243925 -0.83514130
v 6.31330347 2.23468566 -0.83514130
v 6.32692051 2.24645305 -0.83482063
v 6.07327700 2.51243925 -0.83514130
v 6.32692051 2.24645305 -0.83482063
v 6.08689404 2.52420688 -0.83482063
v 6.07536030 2.51423979 -0.98967117
v 6.31538677 2.23648596 -0.98967117
v 6.31330347 2.23468566 -0.83514130
v 6.07536030 2.51423979 -0.98967117
v 6.31330347 2.23468566 -0.83514130
v 6.07327700 2.51243925 -0.83514130
v 6.31538677 2.23648596 -0.98967117
v 6.32900381 2.24825335 -0.98935050
v 6.32692051 2.24645305 -0.83482063
v 6.31538677 2.23648596 -0.98967117
v 6.32692051 2.24645305 -0.83482063
v 6.31330347 2.23468566 -0.83514130
v 6.32900381 2.24825335 -0.98935050
v 6.08897734 2.52600718 -0.98935050
v 6.08689404 2.52420688 -0.83482063
v 6.32900381 2.24825335 -0.98935050
v 6.08689404 2.52420688 -0.83482063
v 6.32692051 2.24645305 -0.83482063
v 6.08897734 2.52600718 -0.98935050
v 6.07536030 2.51423979 -0.98967117
v 6.07327700 2.51243925 -0.83514130
v 6.08897734 2.52600718 -0.98935050
v 6.07327700 2.51243925 -0.83514130
v 6.08689404 2.52420688 -0.83482063
vt -0.40788484 0.01999998
vt 0.40788484 0.01999998
vt 0.40788484 -0.01999998
vt -0.40788484 0.01999998
vt 0.40788484 -0.01999998
vt -0.40788484 -0.01999998
vt -0.40788484 -0.01999998
vt 0.40788484 -0.01999998
vt 0.40788484 0.01999998
vt -0.40788484 -0.01999998
vt 0.40788484 0.01999998
vt -0.40788484 0.01999998
vt -0.40788484 -0.17172718
vt 0.40788484 -0.17172718
vt 0.40788484 0.17172712
vt -0.40788484 -0.17172718
vt 0.40788484 0.17172712
vt -0.40788484 0.17172712
vt -0.02000000 -0.17172718
vt 0.02000000 -0.17172718
vt 0.02000000 0.17172712
vt -0.02000000 -0.17172718
vt 0.02000000 0.17172712
vt -0.02000000 0.17172712
vt 0.40788484 -0.17172718
vt -0.40788484 -0.17172718
vt -0.40788484 0.17172712
vt 0.40788484 -0.17172718
vt -0.40788484 0.17172712
vt 0.40788484 0.17172712
vt 0.02000000 -0.17172718
vt -0.02000000 -0.17172718
vt -0.02000000 0.17172712
vt 0.02000000 -0.17172718
vt -0.02000000 0.17172712
vt 0.02000000 0.17172712
f 1/1 2/2 3/3
f 4/4 5/5 6/6
f 7/7 8/8 9/9
f 10/10 11/11 12/12
f 13/13 14/14 15/15
f 16/16 17/17 18/18
f 19/19 20/20 21/21
f 22/22 23/23 24/24
f 25/25 26/26 27/27
f 28/28 29/29 30/30
f 31/31 32/32 33/33
f 34/34 35/35 36/36

