# https://github.com/mikedh/trimesh
mtllib material.mtl
usemtl PaleWood
v -0.84499097 0.49312422 -1.06381750
v 1.51457751 2.54682922 -1.06381750
v 1.52639341 2.53325343 -1.06410170
v -0.84499097 0.49312422 -1.06381750
v 1.52639341 2.53325343 -1.06410170
v -0.83317494 0.47954845 -1.06410170
v -0.82573849 0.47100443 -0.34675211
v 1.53382993 2.52470946 -0.34675211
v 1.52201390 2.53828526 -0.34646791
v -0.82573849 0.47100443 -0.34675211
v 1.52201390 2.53828526 -0.34646791
v -0.83755445 0.48458019 -0.34646791
v -0.83317494 0.47954845 -1.06410170
v 1.52639341 2.53325343 -1.06410170
v 1.53382993 2.52470946 -0.34675211
v -0.83317494 0.47954845 -1.06410170
v 1.53382993 2.52470946 -0.34675211
v -0.82573849 0.47100443 -0.34675211
v 1.52639341 2.53325343 -1.06410170
v 1.51457751 2.54682922 -1.06381750
v 1.52201390 2.53828526 -0.34646791
v 1.52639341 2.53325343 -1.06410170
v 1.52201390 2.53828526 -0.34646791
v 1.53382993 2.52470946 -0.34675211
v 1.51457751 2.54682922 -1.06381750
v -0.84499097 0.49312422 -1.06381750
v -0.83755445 0.48458019 -0.34646791
v 1.51457751 2.54682922 -1.06381750
v -0.83755445 0.48458019 -0.34646791
v 1.52201390 2.53828526 -0.34646791
v -0.84499097 0.49312422 -1.06381750
v -0.83317494 0.47954845 -1.06410170
v -0.82573849 0.47100443 -0.34675211
v -0.84499097 0.49312422 -1.06381750
v -0.82573849 0.47100443 -0.34675211
v -0.83755445 0.48458019 -0.34646791
vt -3.47571230 0.01999998
vt 3.47571230 0.01999998
vt 3.47571230 -0.01999998
vt -3.47571230 0.01999998
vt 3.47571230 -0.01999998
vt -3.47571230 -0.01999998
vt -3.47571230 -0.01999998
vt 3.47571230 -0.01999998
vt 3.47571230 0.01999998
vt -3.47571230 -0.01999998
vt 3.47571230 0.01999998
vt -3.47571230 0.01999998
vt -3.47571230 -0.79715443
vt 3.47571230 -0.79715443
vt 3.47571230 0.79715443
vt -3.47571230 -0.79715443
vt 3.47571230 0.79715443
vt -3.47571230 0.79715443
vt -0.02000000 -0.79715443
vt 0.02000000 -0.79715443
vt 0.02000000 0.79715443
vt -0.02000000 -0.79715443
vt 0.02000000 0.79715443
vt -0.02000000 0.79715443
vt 3.47571230 -0.79715443
vt -3.47571230 -0.79715443
vt -3.47571230 0.79715443
vt 3.47571230 -0.79715443
vt -3.47571230 0.79715443
vt 3.47571230 0.79715443
vt 0.02000000 -0.79715443
vt -0.02000000 -0.79715443
vt -0.02000000 0.79715443
vt 0.02000000 -0.79715443
vt -0.02000000 0.79715443
vt 0.02000000 0.79715443
f 1/1 2/2 3/3
f 4/4 5/5 6/6
f 7/7 8/8 9/9
f 10/10 11/11 12/12
f 13/13 14/14 15/15
f 16/16 17/17 18/18
f 19/19 20/20 21/21
f 22/22 23/23 24/24
f 25/25 26/26 27/27
f 28/28 29/29 30/30
f 31/31 32/32 33/33
f 34/34 35/35 36/36

