# https://github.com/mikedh/trimesh
mtllib material.mtl
usemtl BrushedSteel
v 1.58881426 2.46762967 -1.17139971
v 2.29073048 3.11356521 -1.17139971
v 2.73356986 2.63234639 -1.17743075
v 1.58881426 2.46762967 -1.17139971
v 2.73356986 2.63234639 -1.17743075
v 2.03165364 1.98641098 -1.17743075
v 2.03176618 1.98628891 -1.15943146
v 2.73368239 2.63222432 -1.15943146
v 2.29084277 3.11344290 -1.15340042
v 2.03176618 1.98628891 -1.15943146
v 2.29084277 3.11344290 -1.15340042
v 1.58892667 2.46750760 -1.15340042
v 2.03165364 1.98641098 -1.17743075
v 2.73356986 2.63234639 -1.17743075
v 2.73368239 2.63222432 -1.15943146
v 2.03165364 1.98641098 -1.17743075
v 2.73368239 2.63222432 -1.15943146
v 2.03176618 1.98628891 -1.15943146
v 2.73356986 2.63234639 -1.17743075
v 2.29073048 3.11356521 -1.17139971
v 2.29084277 3.11344290 -1.15340042
v 2.73356986 2.63234639 -1.17743075
v 2.29084277 3.11344290 -1.15340042
v 2.73368239 2.63222432 -1.15943146
v 2.29073048 3.11356521 -1.17139971
v 1.58881426 2.46762967 -1.17139971
v 1.58892667 2.46750760 -1.15340042
v 2.29073048 3.11356521 -1.17139971
v 1.58892667 2.46750760 -1.15340042
v 2.29084277 3.11344290 -1.15340042
v 1.58881426 2.46762967 -1.17139971
v 2.03165364 1.98641098 -1.17743075
v 2.03176618 1.98628891 -1.15943146
v 1.58881426 2.46762967 -1.17139971
v 2.03176618 1.98628891 -1.15943146
v 1.58892667 2.46750760 -1.15340042
vt -1.05988526 0.72666544
vt 1.05988526 0.72666544
vt 1.05988526 -0.72666550
vt -1.05988526 0.72666544
vt 1.05988526 -0.72666550
vt -1.05988526 -0.72666550
vt -1.05988526 -0.72666550
vt 1.05988526 -0.72666550
vt 1.05988526 0.72666544
vt -1.05988526 -0.72666550
vt 1.05988526 0.72666544
vt -1.05988526 0.72666544
vt -1.05988526 -0.01999998
vt 1.05988526 -0.01999998
vt 1.05988526 0.01999998
vt -1.05988526 -0.01999998
vt 1.05988526 0.01999998
vt -1.05988526 0.01999998
vt -0.72666544 -0.01999998
vt 0.72666544 -0.01999998
vt 0.72666544 0.01999998
vt -0.72666544 -0.01999998
vt 0.72666544 0.01999998
vt -0.72666544 0.01999998
vt 1.05988526 -0.01999998
vt -1.05988526 -0.01999998
vt -1.05988526 0.01999998
vt 1.05988526 -0.01999998
vt -1.05988526 0.01999998
vt 1.05988526 0.01999998
vt 0.72666544 -0.01999998
vt -0.72666544 -0.01999998
vt -0.72666544 0.01999998
vt 0.72666544 -0.01999998
vt -0.72666544 0.01999998
vt 0.72666544 0.01999998
f 1/1 2/2 3/3
f 4/4 5/5 6/6
f 7/7 8/8 9/9
f 10/10 11/11 12/12
f 13/13 14/14 15/15
f 16/16 17/17 18/18
f 19/19 20/20 21/21
f 22/22 23/23 24/24
f 25/25 26/26 27/27
f 28/28 29/29 30/30
f 31/31 32/32 33/33
f 34/34 35/35 36/36

