# https://github.com/mikedh/trimesh
mtllib material.mtl
usemtl BrushedSteel
v 2.28978586 3.08800960 -1.15356648
v 2.30303121 3.10019827 -1.15356648
v 2.72149396 2.64546895 -1.15926552
v 2.28978586 3.08800960 -1.15356648
v 2.72149396 2.64546895 -1.15926552
v 2.70824885 2.63328004 -1.15926552
v 2.71918464 2.62139654 0.59190017
v 2.73242974 2.63358521 0.59190017
v 2.31396699 3.08831477 0.59759921
v 2.71918464 2.62139654 0.59190017
v 2.31396699 3.08831477 0.59759921
v 2.30072165 3.07612610 0.59759921
v 2.70824885 2.63328004 -1.15926552
v 2.72149396 2.64546895 -1.15926552
v 2.73242974 2.63358521 0.59190017
v 2.70824885 2.63328004 -1.15926552
v 2.73242974 2.63358521 0.59190017
v 2.71918464 2.62139654 0.59190017
v 2.72149396 2.64546895 -1.15926552
v 2.30303121 3.10019827 -1.15356648
v 2.31396699 3.08831477 0.59759921
v 2.72149396 2.64546895 -1.15926552
v 2.31396699 3.08831477 0.59759921
v 2.73242974 2.63358521 0.59190017
v 2.30303121 3.10019827 -1.15356648
v 2.28978586 3.08800960 -1.15356648
v 2.30072165 3.07612610 0.59759921
v 2.30303121 3.10019827 -1.15356648
v 2.30072165 3.07612610 0.59759921
v 2.31396699 3.08831477 0.59759921
v 2.28978586 3.08800960 -1.15356648
v 2.70824885 2.63328004 -1.15926552
v 2.71918464 2.62139654 0.59190017
v 2.28978586 3.08800960 -1.15356648
v 2.71918464 2.62139654 0.59190017
v 2.30072165 3.07612610 0.59759921
vt -0.02000000 0.68666542
vt 0.02000000 0.68666542
vt 0.02000000 -0.68666542
vt -0.02000000 0.68666542
vt 0.02000000 -0.68666542
vt -0.02000000 -0.68666542
vt -0.02000000 -0.68666542
vt 0.02000000 -0.68666542
vt 0.02000000 0.68666542
vt -0.02000000 -0.68666542
vt 0.02000000 0.68666542
vt -0.02000000 0.68666542
vt -0.02000000 -1.94582224
vt 0.02000000 -1.94582224
vt 0.02000000 1.94582236
vt -0.02000000 -1.94582224
vt 0.02000000 1.94582236
vt -0.02000000 1.94582236
vt -0.68666542 -1.94582224
vt 0.68666542 -1.94582224
vt 0.68666542 1.94582236
vt -0.68666542 -1.94582224
vt 0.68666542 1.94582236
vt -0.68666542 1.94582236
vt 0.02000000 -1.94582224
vt -0.02000000 -1.94582224
vt -0.02000000 1.94582236
vt 0.02000000 -1.94582224
vt -0.02000000 1.94582236
vt 0.02000000 1.94582236
vt 0.68666542 -1.94582224
vt -0.68666542 -1.94582224
vt -0.68666542 1.94582236
vt 0.68666542 -1.94582224
vt -0.68666542 1.94582236
vt 0.68666542 1.94582236
f 1/1 2/2 3/3
f 4/4 5/5 6/6
f 7/7 8/8 9/9
f 10/10 11/11 12/12
f 13/13 14/14 15/15
f 16/16 17/17 18/18
f 19/19 20/20 21/21
f 22/22 23/23 24/24
f 25/25 26/26 27/27
f 28/28 29/29 30/30
f 31/31 32/32 33/33
f 34/34 35/35 36/36

