# https://github.com/mikedh/trimesh
mtllib material.mtl
usemtl photo_005
v 0.58655638 1.70373809 -0.28727561
v 0.86089712 1.95203996 -0.29114705
v 1.02301419 1.77302659 -0.28444296
v 0.58655638 1.70373809 -0.28727561
v 1.02301419 1.77302659 -0.28444296
v 0.74867338 1.52472472 -0.28057149
v 0.74658638 1.53002346 -0.08861582
v 1.02092719 1.77832532 -0.09248726
v 0.85881013 1.95733869 -0.09919138
v 0.74658638 1.53002346 -0.08861582
v 0.85881013 1.95733869 -0.09919138
v 0.58446932 1.70903683 -0.09531993
v 1.02301419 1.77302659 -0.28444296
v 0.86089712 1.95203996 -0.29114705
v 0.85881013 1.95733869 -0.09919138
v 1.02301419 1.77302659 -0.28444296
v 0.85881013 1.95733869 -0.09919138
v 1.02092719 1.77832532 -0.09248726
v 0.86089712 1.95203996 -0.29114705
v 0.58655638 1.70373809 -0.28727561
v 0.58446932 1.70903683 -0.09531993
v 0.86089712 1.95203996 -0.29114705
v 0.58446932 1.70903683 -0.09531993
v 0.85881013 1.95733869 -0.09919138
v 0.58655638 1.70373809 -0.28727561
v 0.74867338 1.52472472 -0.28057149
v 0.74658638 1.53002346 -0.08861582
v 0.58655638 1.70373809 -0.28727561
v 0.74658638 1.53002346 -0.08861582
v 0.58446932 1.70903683 -0.09531993
vt 0.00536616 0.99195075
vt 0.32796717 0.99195075
vt 0.32796717 0.50804925
vt 0.00536616 0.99195075
vt 0.32796717 0.50804925
vt 0.00536616 0.50804925
vt 0.33869949 0.99195075
vt 0.66130048 0.99195075
vt 0.66130048 0.50804925
vt 0.33869949 0.99195075
vt 0.66130048 0.50804925
vt 0.33869949 0.50804925
vt 0.00536616 0.49195075
vt 0.32796717 0.49195075
vt 0.32796717 0.00804925
vt 0.00536616 0.49195075
vt 0.32796717 0.00804925
vt 0.00536616 0.00804925
vt 0.33869949 0.49195075
vt 0.66130048 0.49195075
vt 0.66130048 0.00804925
vt 0.33869949 0.49195075
vt 0.66130048 0.00804925
vt 0.33869949 0.00804925
vt 0.67203283 0.49195075
vt 0.99463385 0.49195075
vt 0.99463385 0.00804925
vt 0.67203283 0.49195075
vt 0.99463385 0.00804925
vt 0.67203283 0.00804925
f 1/1 2/2 3/3
f 4/4 5/5 6/6
f 7/7 8/8 9/9
f 10/10 11/11 12/12
f 13/13 14/14 15/15
f 16/16 17/17 18/18
f 19/19 20/20 21/21
f 22/22 23/23 24/24
f 25/25 26/26 27/27
f 28/28 29/29 30/30

