# https://github.com/mikedh/trimesh
mtllib material.mtl
usemtl DarkRecess
v 0.92695338 2.01579237 -0.02244533
v 0.92847216 2.01709342 -0.02241998
v 0.92782176 2.01785278 -0.02242877
v 0.92695338 2.01579237 -0.02244533
v 0.92782176 2.01785278 -0.02242877
v 0.92630291 2.01655197 -0.02245412
v 0.92620569 2.01656127 -0.01445472
v 0.92772454 2.01786208 -0.01442936
v 0.92837495 2.01710272 -0.01442057
v 0.92620569 2.01656127 -0.01445472
v 0.92837495 2.01710272 -0.01442057
v 0.92685610 2.01580167 -0.01444593
v 0.92630291 2.01655197 -0.02245412
v 0.92782176 2.01785278 -0.02242877
v 0.92772454 2.01786208 -0.01442936
v 0.92630291 2.01655197 -0.02245412
v 0.92772454 2.01786208 -0.01442936
v 0.92620569 2.01656127 -0.01445472
v 0.92782176 2.01785278 -0.02242877
v 0.92847216 2.01709342 -0.02241998
v 0.92837495 2.01710272 -0.01442057
v 0.92782176 2.01785278 -0.02242877
v 0.92837495 2.01710272 -0.01442057
v 0.92772454 2.01786208 -0.01442936
v 0.92847216 2.01709342 -0.02241998
v 0.92695338 2.01579237 -0.02244533
v 0.92685610 2.01580167 -0.01444593
v 0.92847216 2.01709342 -0.02241998
v 0.92685610 2.01580167 -0.01444593
v 0.92837495 2.01710272 -0.01442057
v 0.92695338 2.01579237 -0.02244533
v 0.92630291 2.01655197 -0.02245412
v 0.92620569 2.01656127 -0.01445472
v 0.92695338 2.01579237 -0.02244533
v 0.92620569 2.01656127 -0.01445472
v 0.92685610 2.01580167 -0.01444593
vt 0.00000000 0.00000000
vt 0.00000000 0.00000000
vt 0.00000000 0.00000000
vt 0.00000000 0.00000000
vt 0.00000000 0.00000000
vt 0.00000000 0.00000000
vt 0.00000000 0.00000000
vt 0.00000000 0.00000000
vt 0.00000000 0.00000000
vt 0.00000000 0.00000000
vt 0.00000000 0.00000000
vt 0.00000000 0.00000000
vt 0.00000000 0.00000000
vt 0.00000000 0.00000000
vt 0.00000000 0.00000000
vt 0.00000000 0.00000000
vt 0.00000000 0.00000000
vt 0.00000000 0.00000000
vt 0.00000000 0.00000000
vt 0.00000000 0.00000000
vt 0.00000000 0.00000000
vt 0.00000000 0.00000000
vt 0.00000000 0.00000000
vt 0.00000000 0.00000000
vt 0.00000000 0.00000000
vt 0.00000000 0.00000000
vt 0.00000000 0.00000000
vt 0.00000000 0.00000000
vt 0.00000000 0.00000000
vt 0.00000000 0.00000000
vt 0.00000000 0.00000000
vt 0.00000000 0.00000000
vt 0.00000000 0.00000000
vt 0.00000000 0.00000000
vt 0.00000000 0.00000000
vt 0.00000000 0.00000000
f 1/1 2/2 3/3
f 4/4 5/5 6/6
f 7/7 8/8 9/9
f 10/10 11/11 12/12
f 13/13 14/14 15/15
f 16/16 17/17 18/18
f 19/19 20/20 21/21
f 22/22 23/23 24/24
f 25/25 26/26 27/27
f 28/28 29/29 30/30
f 31/31 32/32 33/33
f 34/34 35/35 36/36

