# https://github.com/mikedh/trimesh
mtllib material.mtl
usemtl DarkRecess
v 0.66536677 1.61549771 -0.17084925
v 0.66684955 1.61683965 -0.17087017
v 0.68429559 1.59757531 -0.17014872
v 0.66536677 1.61549771 -0.17084925
v 0.68429559 1.59757531 -0.17014872
v 0.68281281 1.59623337 -0.17012779
v 0.68278021 1.59631610 -0.16712911
v 0.68426299 1.59765816 -0.16715004
v 0.66681695 1.61692250 -0.16787149
v 0.68278021 1.59631610 -0.16712911
v 0.66681695 1.61692250 -0.16787149
v 0.66533417 1.61558044 -0.16785057
v 0.68281281 1.59623337 -0.17012779
v 0.68429559 1.59757531 -0.17014872
v 0.68426299 1.59765816 -0.16715004
v 0.68281281 1.59623337 -0.17012779
v 0.68426299 1.59765816 -0.16715004
v 0.68278021 1.59631610 -0.16712911
v 0.68429559 1.59757531 -0.17014872
v 0.66684955 1.61683965 -0.17087017
v 0.66681695 1.61692250 -0.16787149
v 0.68429559 1.59757531 -0.17014872
v 0.66681695 1.61692250 -0.16787149
v 0.68426299 1.59765816 -0.16715004
v 0.66684955 1.61683965 -0.17087017
v 0.66536677 1.61549771 -0.17084925
v 0.66533417 1.61558044 -0.16785057
v 0.66684955 1.61683965 -0.17087017
v 0.66533417 1.61558044 -0.16785057
v 0.66681695 1.61692250 -0.16787149
v 0.66536677 1.61549771 -0.17084925
v 0.68281281 1.59623337 -0.17012779
v 0.68278021 1.59631610 -0.16712911
v 0.66536677 1.61549771 -0.17084925
v 0.68278021 1.59631610 -0.16712911
v 0.66533417 1.61558044 -0.16785057
vt 0.00000000 0.00000000
vt 0.00000000 0.00000000
vt 0.00000000 0.00000000
vt 0.00000000 0.00000000
vt 0.00000000 0.00000000
vt 0.00000000 0.00000000
vt 0.00000000 0.00000000
vt 0.00000000 0.00000000
vt 0.00000000 0.00000000
vt 0.00000000 0.00000000
vt 0.00000000 0.00000000
vt 0.00000000 0.00000000
vt 0.00000000 0.00000000
vt 0.00000000 0.00000000
vt 0.00000000 0.00000000
vt 0.00000000 0.00000000
vt 0.00000000 0.00000000
vt 0.00000000 0.00000000
vt 0.00000000 0.00000000
vt 0.00000000 0.00000000
vt 0.00000000 0.00000000
vt 0.00000000 0.00000000
vt 0.00000000 0.00000000
vt 0.00000000 0.00000000
vt 0.00000000 0.00000000
vt 0.00000000 0.00000000
vt 0.00000000 0.00000000
vt 0.00000000 0.00000000
vt 0.00000000 0.00000000
vt 0.00000000 0.00000000
vt 0.00000000 0.00000000
vt 0.00000000 0.00000000
vt 0.00000000 0.00000000
vt 0.00000000 0.00000000
vt 0.00000000 0.00000000
vt 0.00000000 0.00000000
f 1/1 2/2 3/3
f 4/4 5/5 6/6
f 7/7 8/8 9/9
f 10/10 11/11 12/12
f 13/13 14/14 15/15
f 16/16 17/17 18/18
f 19/19 20/20 21/21
f 22/22 23/23 24/24
f 25/25 26/26 27/27
f 28/28 29/29 30/30
f 31/31 32/32 33/33
f 34/34 35/35 36/36

