# https://github.com/mikedh/trimesh
mtllib material.mtl
usemtl PaleWood
v 2.26777720 3.15254903 -0.01222457
v 2.28137684 3.16434073 -0.01222457
v 2.47116017 2.94545913 -0.01432590
v 2.26777720 3.15254903 -0.01222457
v 2.47116017 2.94545913 -0.01432590
v 2.45756030 2.93366742 -0.01432590
v 2.46186376 2.92870402 0.89134032
v 2.47546363 2.94049597 0.89134032
v 2.28568029 3.15937734 0.89344162
v 2.46186376 2.92870402 0.89134032
v 2.28568029 3.15937734 0.89344162
v 2.27208066 3.14758563 0.89344162
v 2.45756030 2.93366742 -0.01432590
v 2.47116017 2.94545913 -0.01432590
v 2.47546363 2.94049597 0.89134032
v 2.45756030 2.93366742 -0.01432590
v 2.47546363 2.94049597 0.89134032
v 2.46186376 2.92870402 0.89134032
v 2.47116017 2.94545913 -0.01432590
v 2.28137684 3.16434073 -0.01222457
v 2.28568029 3.15937734 0.89344162
v 2.47116017 2.94545913 -0.01432590
v 2.28568029 3.15937734 0.89344162
v 2.47546363 2.94049597 0.89134032
v 2.28137684 3.16434073 -0.01222457
v 2.26777720 3.15254903 -0.01222457
v 2.27208066 3.14758563 0.89344162
v 2.28137684 3.16434073 -0.01222457
v 2.27208066 3.14758563 0.89344162
v 2.28568029 3.15937734 0.89344162
v 2.26777720 3.15254903 -0.01222457
v 2.45756030 2.93366742 -0.01432590
v 2.46186376 2.92870402 0.89134032
v 2.26777720 3.15254903 -0.01222457
v 2.46186376 2.92870402 0.89134032
v 2.27208066 3.14758563 0.89344162
vt -0.02000000 0.32189882
vt 0.02000000 0.32189882
vt 0.02000000 -0.32189882
vt -0.02000000 0.32189882
vt 0.02000000 -0.32189882
vt -0.02000000 -0.32189882
vt -0.02000000 -0.32189882
vt 0.02000000 -0.32189882
vt 0.02000000 0.32189882
vt -0.02000000 -0.32189882
vt 0.02000000 0.32189882
vt -0.02000000 0.32189882
vt -0.02000000 -1.00632238
vt 0.02000000 -1.00632238
vt 0.02000000 1.00632226
vt -0.02000000 -1.00632238
vt 0.02000000 1.00632226
vt -0.02000000 1.00632226
vt -0.32189879 -1.00632238
vt 0.32189879 -1.00632238
vt 0.32189879 1.00632226
vt -0.32189879 -1.00632238
vt 0.32189879 1.00632226
vt -0.32189879 1.00632226
vt 0.02000000 -1.00632238
vt -0.02000000 -1.00632238
vt -0.02000000 1.00632226
vt 0.02000000 -1.00632238
vt -0.02000000 1.00632226
vt 0.02000000 1.00632226
vt 0.32189879 -1.00632238
vt -0.32189879 -1.00632238
vt -0.32189879 1.00632226
vt 0.32189879 -1.00632238
vt -0.32189879 1.00632226
vt 0.32189879 1.00632226
f 1/1 2/2 3/3
f 4/4 5/5 6/6
f 7/7 8/8 9/9
f 10/10 11/11 12/12
f 13/13 14/14 15/15
f 16/16 17/17 18/18
f 19/19 20/20 21/21
f 22/22 23/23 24/24
f 25/25 26/26 27/27
f 28/28 29/29 30/30
f 31/31 32/32 33/33
f 34/34 35/35 36/36

