# https://github.com/mikedh/trimesh
mtllib material.mtl
usemtl EgoPhoto_red_white_gable_carton_PrintedGableLower
v -0.051062682 0.037098816 -0.00080188
v 0.007602312 0.06236136 -0.00486256
v 0.021618174 0.028009344 -0.03603433
v -0.051062682 0.037098816 -0.00080188
v 0.021618174 0.028009344 -0.03603433
v -0.037046526 0.002746794 -0.03197365
vt 0.00000000 1.00000000
vt 1.00000000 1.00000000
vt 1.00000000 0.00000000
vt 0.00000000 1.00000000
vt 1.00000000 0.00000000
vt 0.00000000 0.00000000
f 1/1 2/2 3/3
f 4/4 5/5 6/6

