# https://github.com/mikedh/trimesh
mtllib material.mtl
usemtl PaleWood
v 0.48279953 0.92453307 -1.06644309
v 0.85094458 1.24495661 -1.06644309
v 0.86276054 1.23138082 -1.06672728
v 0.48279953 0.92453307 -1.06644309
v 0.86276054 1.23138082 -1.06672728
v 0.49461553 0.91095728 -1.06672728
v 0.50151283 0.90303272 -0.34365389
v 0.86965787 1.22345626 -0.34849632
v 0.85784191 1.23703206 -0.34899953
v 0.50151283 0.90303272 -0.34365389
v 0.85784191 1.23703206 -0.34899953
v 0.48969686 0.91660845 -0.34415710
v 0.49461553 0.91095728 -1.06672728
v 0.86276054 1.23138082 -1.06672728
v 0.86965787 1.22345626 -0.34849632
v 0.49461553 0.91095728 -1.06672728
v 0.86965787 1.22345626 -0.34849632
v 0.50151283 0.90303272 -0.34365389
v 0.86276054 1.23138082 -1.06672728
v 0.85094458 1.24495661 -1.06644309
v 0.85784191 1.23703206 -0.34899953
v 0.86276054 1.23138082 -1.06672728
v 0.85784191 1.23703206 -0.34899953
v 0.86965787 1.22345626 -0.34849632
v 0.85094458 1.24495661 -1.06644309
v 0.48279953 0.92453307 -1.06644309
v 0.48969686 0.91660845 -0.34415710
v 0.85094458 1.24495661 -1.06644309
v 0.48969686 0.91660845 -0.34415710
v 0.85784191 1.23703206 -0.34899953
v 0.48279953 0.92453307 -1.06644309
v 0.49461553 0.91095728 -1.06672728
v 0.50151283 0.90303272 -0.34365389
v 0.48279953 0.92453307 -1.06644309
v 0.50151283 0.90303272 -0.34365389
v 0.48969686 0.91660845 -0.34415710
vt -0.54228824 0.01999998
vt 0.54228824 0.01999998
vt 0.54228824 -0.01999998
vt -0.54228824 0.01999998
vt 0.54228824 -0.01999998
vt -0.54228824 -0.01999998
vt -0.54228824 -0.01999998
vt 0.54228824 -0.01999998
vt 0.54228824 0.01999998
vt -0.54228824 -0.01999998
vt 0.54228824 0.01999998
vt -0.54228824 0.01999998
vt -0.54228824 -0.73936057
vt 0.54228824 -0.73936057
vt 0.54228824 0.73936051
vt -0.54228824 -0.73936057
vt 0.54228824 0.73936051
vt -0.54228824 0.73936051
vt -0.02000000 -0.73936057
vt 0.02000000 -0.73936057
vt 0.02000000 0.73936051
vt -0.02000000 -0.73936057
vt 0.02000000 0.73936051
vt -0.02000000 0.73936051
vt 0.54228824 -0.73936057
vt -0.54228824 -0.73936057
vt -0.54228824 0.73936051
vt 0.54228824 -0.73936057
vt -0.54228824 0.73936051
vt 0.54228824 0.73936051
vt 0.02000000 -0.73936057
vt -0.02000000 -0.73936057
vt -0.02000000 0.73936051
vt 0.02000000 -0.73936057
vt -0.02000000 0.73936051
vt 0.02000000 0.73936051
f 1/1 2/2 3/3
f 4/4 5/5 6/6
f 7/7 8/8 9/9
f 10/10 11/11 12/12
f 13/13 14/14 15/15
f 16/16 17/17 18/18
f 19/19 20/20 21/21
f 22/22 23/23 24/24
f 25/25 26/26 27/27
f 28/28 29/29 30/30
f 31/31 32/32 33/33
f 34/34 35/35 36/36

