# https://github.com/mikedh/trimesh
mtllib material.mtl
usemtl DarkPlastic
v 2.39290833 3.26689219 -1.05065429
v 2.81570721 3.63488507 -1.05065429
v 3.15837097 3.24118757 -1.05889571
v 2.39290833 3.26689219 -1.05065429
v 3.15837097 3.24118757 -1.05889571
v 2.73557210 2.87319469 -1.05889571
v 2.73575854 2.87298036 -1.04089797
v 3.15855765 3.24097323 -1.04089797
v 2.81589389 3.63467073 -1.03265655
v 2.73575854 2.87298036 -1.04089797
v 2.81589389 3.63467073 -1.03265655
v 2.39309502 3.26667786 -1.03265655
v 2.73557210 2.87319469 -1.05889571
v 3.15837097 3.24118757 -1.05889571
v 3.15855765 3.24097323 -1.04089797
v 2.73557210 2.87319469 -1.05889571
v 3.15855765 3.24097323 -1.04089797
v 2.73575854 2.87298036 -1.04089797
v 3.15837097 3.24118757 -1.05889571
v 2.81570721 3.63488507 -1.05065429
v 2.81589389 3.63467073 -1.03265655
v 3.15837097 3.24118757 -1.05889571
v 2.81589389 3.63467073 -1.03265655
v 3.15855765 3.24097323 -1.04089797
v 2.81570721 3.63488507 -1.05065429
v 2.39290833 3.26689219 -1.05065429
v 2.39309502 3.26667786 -1.03265655
v 2.81570721 3.63488507 -1.05065429
v 2.39309502 3.26667786 -1.03265655
v 2.81589389 3.63467073 -1.03265655
v 2.39290833 3.26689219 -1.05065429
v 2.73557210 2.87319469 -1.05889571
v 2.73575854 2.87298036 -1.04089797
v 2.39290833 3.26689219 -1.05065429
v 2.73575854 2.87298036 -1.04089797
v 2.39309502 3.26667786 -1.03265655
vt -0.62279505 0.58000004
vt 0.62279505 0.58000004
vt 0.62279505 -0.58000004
vt -0.62279505 0.58000004
vt 0.62279505 -0.58000004
vt -0.62279505 -0.58000004
vt -0.62279505 -0.58000004
vt 0.62279505 -0.58000004
vt 0.62279505 0.58000004
vt -0.62279505 -0.58000004
vt 0.62279505 0.58000004
vt -0.62279505 0.58000004
vt -0.62279505 -0.01999998
vt 0.62279505 -0.01999998
vt 0.62279505 0.01999998
vt -0.62279505 -0.01999998
vt 0.62279505 0.01999998
vt -0.62279505 0.01999998
vt -0.58000004 -0.01999998
vt 0.58000004 -0.01999998
vt 0.58000004 0.01999998
vt -0.58000004 -0.01999998
vt 0.58000004 0.01999998
vt -0.58000004 0.01999998
vt 0.62279505 -0.01999998
vt -0.62279505 -0.01999998
vt -0.62279505 0.01999998
vt 0.62279505 -0.01999998
vt -0.62279505 0.01999998
vt 0.62279505 0.01999998
vt 0.58000004 -0.01999998
vt -0.58000004 -0.01999998
vt -0.58000004 0.01999998
vt 0.58000004 -0.01999998
vt -0.58000004 0.01999998
vt 0.58000004 0.01999998
f 1/1 2/2 3/3
f 4/4 5/5 6/6
f 7/7 8/8 9/9
f 10/10 11/11 12/12
f 13/13 14/14 15/15
f 16/16 17/17 18/18
f 19/19 20/20 21/21
f 22/22 23/23 24/24
f 25/25 26/26 27/27
f 28/28 29/29 30/30
f 31/31 32/32 33/33
f 34/34 35/35 36/36

