# https://github.com/mikedh/trimesh
mtllib material.mtl
usemtl DarkPlastic
v 1.23840570 2.20987511 -0.82042438
v 1.25198317 2.22169280 -0.82042438
v 1.57120442 1.85492909 -0.82810193
v 1.23840570 2.20987511 -0.82042438
v 1.57120442 1.85492909 -0.82810193
v 1.55762696 1.84311163 -0.82810193
v 1.55874693 1.84182489 -0.72006583
v 1.57232440 1.85364234 -0.72006583
v 1.25310314 2.22040582 -0.71238828
v 1.55874693 1.84182489 -0.72006583
v 1.25310314 2.22040582 -0.71238828
v 1.23952568 2.20858836 -0.71238828
v 1.55762696 1.84311163 -0.82810193
v 1.57120442 1.85492909 -0.82810193
v 1.57232440 1.85364234 -0.72006583
v 1.55762696 1.84311163 -0.82810193
v 1.57232440 1.85364234 -0.72006583
v 1.55874693 1.84182489 -0.72006583
v 1.57120442 1.85492909 -0.82810193
v 1.25198317 2.22169280 -0.82042438
v 1.25310314 2.22040582 -0.71238828
v 1.57120442 1.85492909 -0.82810193
v 1.25310314 2.22040582 -0.71238828
v 1.57232440 1.85364234 -0.72006583
v 1.25198317 2.22169280 -0.82042438
v 1.23840570 2.20987511 -0.82042438
v 1.23952568 2.20858836 -0.71238828
v 1.25198317 2.22169280 -0.82042438
v 1.23952568 2.20858836 -0.71238828
v 1.25310314 2.22040582 -0.71238828
v 1.23840570 2.20987511 -0.82042438
v 1.55762696 1.84311163 -0.82810193
v 1.55874693 1.84182489 -0.72006583
v 1.23840570 2.20987511 -0.82042438
v 1.55874693 1.84182489 -0.72006583
v 1.23952568 2.20858836 -0.71238828
vt -0.02000000 0.54032069
vt 0.02000000 0.54032069
vt 0.02000000 -0.54032063
vt -0.02000000 0.54032069
vt 0.02000000 -0.54032063
vt -0.02000000 -0.54032063
vt -0.02000000 -0.54032063
vt 0.02000000 -0.54032063
vt 0.02000000 0.54032069
vt -0.02000000 -0.54032063
vt 0.02000000 0.54032069
vt -0.02000000 0.54032069
vt -0.02000000 -0.12005508
vt 0.02000000 -0.12005508
vt 0.02000000 0.12005508
vt -0.02000000 -0.12005508
vt 0.02000000 0.12005508
vt -0.02000000 0.12005508
vt -0.54032069 -0.12005508
vt 0.54032069 -0.12005508
vt 0.54032069 0.12005508
vt -0.54032069 -0.12005508
vt 0.54032069 0.12005508
vt -0.54032069 0.12005508
vt 0.02000000 -0.12005508
vt -0.02000000 -0.12005508
vt -0.02000000 0.12005508
vt 0.02000000 -0.12005508
vt -0.02000000 0.12005508
vt 0.02000000 0.12005508
vt 0.54032069 -0.12005508
vt -0.54032069 -0.12005508
vt -0.54032069 0.12005508
vt 0.54032069 -0.12005508
vt -0.54032069 0.12005508
vt 0.54032069 0.12005508
f 1/1 2/2 3/3
f 4/4 5/5 6/6
f 7/7 8/8 9/9
f 10/10 11/11 12/12
f 13/13 14/14 15/15
f 16/16 17/17 18/18
f 19/19 20/20 21/21
f 22/22 23/23 24/24
f 25/25 26/26 27/27
f 28/28 29/29 30/30
f 31/31 32/32 33/33
f 34/34 35/35 36/36

