# https://github.com/mikedh/trimesh
mtllib material.mtl
usemtl BrushedSteel
v 5.85027647 3.66881442 1.05168831
v 6.53433275 2.87514138 1.05168831
v 6.30427456 2.67685699 1.04991245
v 5.85027647 3.66881442 1.05168831
v 6.30427456 2.67685699 1.04991245
v 5.62021828 3.47053003 1.04991245
v 5.61675930 3.46754885 1.83086812
v 6.30081558 2.67387581 1.83086812
v 6.53087378 2.87215996 1.83264410
v 5.61675930 3.46754885 1.83086812
v 6.53087378 2.87215996 1.83264410
v 5.84681749 3.66583300 1.83264410
v 5.62021828 3.47053003 1.04991245
v 6.30427456 2.67685699 1.04991245
v 6.30081558 2.67387581 1.83086812
v 5.62021828 3.47053003 1.04991245
v 6.30081558 2.67387581 1.83086812
v 5.61675930 3.46754885 1.83086812
v 6.30427456 2.67685699 1.04991245
v 6.53433275 2.87514138 1.05168831
v 6.53087378 2.87215996 1.83264410
v 6.30427456 2.67685699 1.04991245
v 6.53087378 2.87215996 1.83264410
v 6.30081558 2.67387581 1.83086812
v 6.53433275 2.87514138 1.05168831
v 5.85027647 3.66881442 1.05168831
v 5.84681749 3.66583300 1.83264410
v 6.53433275 2.87514138 1.05168831
v 5.84681749 3.66583300 1.83264410
v 6.53087378 2.87215996 1.83264410
v 5.85027647 3.66881442 1.05168831
v 5.62021828 3.47053003 1.04991245
v 5.61675930 3.46754885 1.83086812
v 5.85027647 3.66881442 1.05168831
v 5.61675930 3.46754885 1.83086812
v 5.84681749 3.66583300 1.83264410
vt -1.16420376 0.33746803
vt 1.16420376 0.33746803
vt 1.16420376 -0.33746803
vt -1.16420376 0.33746803
vt 1.16420376 -0.33746803
vt -1.16420376 -0.33746803
vt -1.16420376 -0.33746803
vt 1.16420376 -0.33746803
vt 1.16420376 0.33746803
vt -1.16420376 -0.33746803
vt 1.16420376 0.33746803
vt -1.16420376 0.33746803
vt -1.16420376 -0.86774349
vt 1.16420376 -0.86774349
vt 1.16420376 0.86774343
vt -1.16420376 -0.86774349
vt 1.16420376 0.86774343
vt -1.16420376 0.86774343
vt -0.33746803 -0.86774349
vt 0.33746803 -0.86774349
vt 0.33746803 0.86774343
vt -0.33746803 -0.86774349
vt 0.33746803 0.86774343
vt -0.33746803 0.86774343
vt 1.16420376 -0.86774349
vt -1.16420376 -0.86774349
vt -1.16420376 0.86774343
vt 1.16420376 -0.86774349
vt -1.16420376 0.86774343
vt 1.16420376 0.86774343
vt 0.33746803 -0.86774349
vt -0.33746803 -0.86774349
vt -0.33746803 0.86774343
vt 0.33746803 -0.86774349
vt -0.33746803 0.86774343
vt 0.33746803 0.86774343
f 1/1 2/2 3/3
f 4/4 5/5 6/6
f 7/7 8/8 9/9
f 10/10 11/11 12/12
f 13/13 14/14 15/15
f 16/16 17/17 18/18
f 19/19 20/20 21/21
f 22/22 23/23 24/24
f 25/25 26/26 27/27
f 28/28 29/29 30/30
f 31/31 32/32 33/33
f 34/34 35/35 36/36

