# https://github.com/mikedh/trimesh
mtllib material.mtl
usemtl PaleWood
v 1.33627892 -2.44682407 -0.55438894
v 1.32471454 -2.43303370 -0.55408114
v 1.97471726 -1.88789856 -0.55637050
v 1.33627892 -2.44682407 -0.55438894
v 1.97471726 -1.88789856 -0.55637050
v 1.98628163 -1.90168881 -0.55667830
v 1.98928440 -1.90430343 -0.32671276
v 1.97772002 -1.89051318 -0.32640496
v 1.32771730 -2.43564844 -0.32411560
v 1.98928440 -1.90430343 -0.32671276
v 1.32771730 -2.43564844 -0.32411560
v 1.33928168 -2.44943857 -0.32442340
v 1.98628163 -1.90168881 -0.55667830
v 1.97471726 -1.88789856 -0.55637050
v 1.97772002 -1.89051318 -0.32640496
v 1.98628163 -1.90168881 -0.55667830
v 1.97772002 -1.89051318 -0.32640496
v 1.98928440 -1.90430343 -0.32671276
v 1.97471726 -1.88789856 -0.55637050
v 1.32471454 -2.43303370 -0.55408114
v 1.32771730 -2.43564844 -0.32411560
v 1.97471726 -1.88789856 -0.55637050
v 1.32771730 -2.43564844 -0.32411560
v 1.97772002 -1.89051318 -0.32640496
v 1.32471454 -2.43303370 -0.55408114
v 1.33627892 -2.44682407 -0.55438894
v 1.33928168 -2.44943857 -0.32442340
v 1.32471454 -2.43303370 -0.55408114
v 1.33928168 -2.44943857 -0.32442340
v 1.32771730 -2.43564844 -0.32411560
v 1.33627892 -2.44682407 -0.55438894
v 1.98628163 -1.90168881 -0.55667830
v 1.98928440 -1.90430343 -0.32671276
v 1.33627892 -2.44682407 -0.55438894
v 1.98928440 -1.90430343 -0.32671276
v 1.33928168 -2.44943857 -0.32442340
vt -0.02000000 0.94260031
vt 0.02000000 0.94260031
vt 0.02000000 -0.94260025
vt -0.02000000 0.94260031
vt 0.02000000 -0.94260025
vt -0.02000000 -0.94260025
vt -0.02000000 -0.94260025
vt 0.02000000 -0.94260025
vt 0.02000000 0.94260031
vt -0.02000000 -0.94260025
vt 0.02000000 0.94260031
vt -0.02000000 0.94260031
vt -0.02000000 -0.25555563
vt 0.02000000 -0.25555563
vt 0.02000000 0.25555557
vt -0.02000000 -0.25555563
vt 0.02000000 0.25555557
vt -0.02000000 0.25555557
vt -0.94260031 -0.25555563
vt 0.94260031 -0.25555563
vt 0.94260031 0.25555557
vt -0.94260031 -0.25555563
vt 0.94260031 0.25555557
vt -0.94260031 0.25555557
vt 0.02000000 -0.25555563
vt -0.02000000 -0.25555563
vt -0.02000000 0.25555557
vt 0.02000000 -0.25555563
vt -0.02000000 0.25555557
vt 0.02000000 0.25555557
vt 0.94260031 -0.25555563
vt -0.94260031 -0.25555563
vt -0.94260031 0.25555557
vt 0.94260031 -0.25555563
vt -0.94260031 0.25555557
vt 0.94260031 0.25555557
f 1/1 2/2 3/3
f 4/4 5/5 6/6
f 7/7 8/8 9/9
f 10/10 11/11 12/12
f 13/13 14/14 15/15
f 16/16 17/17 18/18
f 19/19 20/20 21/21
f 22/22 23/23 24/24
f 25/25 26/26 27/27
f 28/28 29/29 30/30
f 31/31 32/32 33/33
f 34/34 35/35 36/36

