# https://github.com/mikedh/trimesh
mtllib material.mtl
usemtl DarkPlastic
v 4.55500793 4.40325451 -1.17411923
v 5.48105001 3.33165646 -1.17411923
v 5.46213770 3.31531262 -1.17456460
v 4.55500793 4.40325451 -1.17411923
v 5.46213770 3.31531262 -1.17456460
v 4.53609514 4.38691092 -1.17456460
v 4.53501701 4.38597870 -1.09457731
v 5.46105909 3.31438088 -1.09457731
v 5.47997189 3.33072448 -1.09413195
v 4.53501701 4.38597870 -1.09457731
v 5.47997189 3.33072448 -1.09413195
v 4.55392933 4.40232277 -1.09413195
v 4.53609514 4.38691092 -1.17456460
v 5.46213770 3.31531262 -1.17456460
v 5.46105909 3.31438088 -1.09457731
v 4.53609514 4.38691092 -1.17456460
v 5.46105909 3.31438088 -1.09457731
v 4.53501701 4.38597870 -1.09457731
v 5.46213770 3.31531262 -1.17456460
v 5.48105001 3.33165646 -1.17411923
v 5.47997189 3.33072448 -1.09413195
v 5.46213770 3.31531262 -1.17456460
v 5.47997189 3.33072448 -1.09413195
v 5.46105909 3.31438088 -1.09457731
v 5.48105001 3.33165646 -1.17411923
v 4.55500793 4.40325451 -1.17411923
v 4.55392933 4.40232277 -1.09413195
v 5.48105001 3.33165646 -1.17411923
v 4.55392933 4.40232277 -1.09413195
v 5.47997189 3.33072448 -1.09413195
v 4.55500793 4.40325451 -1.17411923
v 4.53609514 4.38691092 -1.17456460
v 4.53501701 4.38597870 -1.09457731
v 4.55500793 4.40325451 -1.17411923
v 4.53501701 4.38597870 -1.09457731
v 4.55392933 4.40232277 -1.09413195
vt -1.57365537 0.02777779
vt 1.57365537 0.02777779
vt 1.57365537 -0.02777779
vt -1.57365537 0.02777779
vt 1.57365537 -0.02777779
vt -1.57365537 -0.02777779
vt -1.57365537 -0.02777779
vt 1.57365537 -0.02777779
vt 1.57365537 0.02777779
vt -1.57365537 -0.02777779
vt 1.57365537 0.02777779
vt -1.57365537 0.02777779
vt -1.57365537 -0.08888888
vt 1.57365537 -0.08888888
vt 1.57365537 0.08888888
vt -1.57365537 -0.08888888
vt 1.57365537 0.08888888
vt -1.57365537 0.08888888
vt -0.02777778 -0.08888888
vt 0.02777778 -0.08888888
vt 0.02777778 0.08888888
vt -0.02777778 -0.08888888
vt 0.02777778 0.08888888
vt -0.02777778 0.08888888
vt 1.57365537 -0.08888888
vt -1.57365537 -0.08888888
vt -1.57365537 0.08888888
vt 1.57365537 -0.08888888
vt -1.57365537 0.08888888
vt 1.57365537 0.08888888
vt 0.02777778 -0.08888888
vt -0.02777778 -0.08888888
vt -0.02777778 0.08888888
vt 0.02777778 -0.08888888
vt -0.02777778 0.08888888
vt 0.02777778 0.08888888
f 1/1 2/2 3/3
f 4/4 5/5 6/6
f 7/7 8/8 9/9
f 10/10 11/11 12/12
f 13/13 14/14 15/15
f 16/16 17/17 18/18
f 19/19 20/20 21/21
f 22/22 23/23 24/24
f 25/25 26/26 27/27
f 28/28 29/29 30/30
f 31/31 32/32 33/33
f 34/34 35/35 36/36

