# https://github.com/mikedh/trimesh
mtllib material.mtl
usemtl OvenGlass
v 5.50700951 3.15909338 -1.05207205
v 5.98169851 2.60979271 -1.05207205
v 5.97942877 2.60783148 -1.05212545
v 5.50700951 3.15909338 -1.05207205
v 5.97942877 2.60783148 -1.05212545
v 5.50473976 3.15713215 -1.05212545
v 5.50026369 3.15326381 -0.72010380
v 5.97495270 2.60396314 -0.72010380
v 5.97722197 2.60592437 -0.72005039
v 5.50026369 3.15326381 -0.72010380
v 5.97722197 2.60592437 -0.72005039
v 5.50253344 3.15522528 -0.72005039
v 5.50473976 3.15713215 -1.05212545
v 5.97942877 2.60783148 -1.05212545
v 5.97495270 2.60396314 -0.72010380
v 5.50473976 3.15713215 -1.05212545
v 5.97495270 2.60396314 -0.72010380
v 5.50026369 3.15326381 -0.72010380
v 5.97942877 2.60783148 -1.05212545
v 5.98169851 2.60979271 -1.05207205
v 5.97722197 2.60592437 -0.72005039
v 5.97942877 2.60783148 -1.05212545
v 5.97722197 2.60592437 -0.72005039
v 5.97495270 2.60396314 -0.72010380
v 5.98169851 2.60979271 -1.05207205
v 5.50700951 3.15909338 -1.05207205
v 5.50253344 3.15522528 -0.72005039
v 5.98169851 2.60979271 -1.05207205
v 5.50253344 3.15522528 -0.72005039
v 5.97722197 2.60592437 -0.72005039
v 5.50700951 3.15909338 -1.05207205
v 5.50473976 3.15713215 -1.05212545
v 5.50026369 3.15326381 -0.72010380
v 5.50700951 3.15909338 -1.05207205
v 5.50026369 3.15326381 -0.72010380
v 5.50253344 3.15522528 -0.72005039
vt 0.00000000 0.00000000
vt 0.00000000 0.00000000
vt 0.00000000 0.00000000
vt 0.00000000 0.00000000
vt 0.00000000 0.00000000
vt 0.00000000 0.00000000
vt 0.00000000 0.00000000
vt 0.00000000 0.00000000
vt 0.00000000 0.00000000
vt 0.00000000 0.00000000
vt 0.00000000 0.00000000
vt 0.00000000 0.00000000
vt 0.00000000 0.00000000
vt 0.00000000 0.00000000
vt 0.00000000 0.00000000
vt 0.00000000 0.00000000
vt 0.00000000 0.00000000
vt 0.00000000 0.00000000
vt 0.00000000 0.00000000
vt 0.00000000 0.00000000
vt 0.00000000 0.00000000
vt 0.00000000 0.00000000
vt 0.00000000 0.00000000
vt 0.00000000 0.00000000
vt 0.00000000 0.00000000
vt 0.00000000 0.00000000
vt 0.00000000 0.00000000
vt 0.00000000 0.00000000
vt 0.00000000 0.00000000
vt 0.00000000 0.00000000
vt 0.00000000 0.00000000
vt 0.00000000 0.00000000
vt 0.00000000 0.00000000
vt 0.00000000 0.00000000
vt 0.00000000 0.00000000
vt 0.00000000 0.00000000
f 1/1 2/2 3/3
f 4/4 5/5 6/6
f 7/7 8/8 9/9
f 10/10 11/11 12/12
f 13/13 14/14 15/15
f 16/16 17/17 18/18
f 19/19 20/20 21/21
f 22/22 23/23 24/24
f 25/25 26/26 27/27
f 28/28 29/29 30/30
f 31/31 32/32 33/33
f 34/34 35/35 36/36

