# https://github.com/mikedh/trimesh
mtllib material.mtl
usemtl DarkPlastic
v 6.04573202 -1.70468700 -0.53077656
v 6.04476213 -1.70385253 -0.53050345
v 6.04383659 -1.70303833 -0.53006619
v 6.04573202 -1.70468700 -0.53077656
v 6.04383659 -1.70303833 -0.53006619
v 6.04297066 -1.70225835 -0.52947229
v 6.04573202 -1.70468700 -0.53077656
v 6.04297066 -1.70225835 -0.52947229
v 6.04217911 -1.70152581 -0.52873194
v 6.04573202 -1.70468700 -0.53077656
v 6.04217911 -1.70152581 -0.52873194
v 6.04147577 -1.70085335 -0.52785772
v 6.04573202 -1.70468700 -0.53077656
v 6.04147577 -1.70085335 -0.52785772
v 6.04087257 -1.70025241 -0.52686471
v 6.04573202 -1.70468700 -0.53077656
v 6.04087257 -1.70025241 -0.52686471
v 6.04038000 -1.69973338 -0.52576977
v 6.04573202 -1.70468700 -0.53077656
v 6.04038000 -1.69973338 -0.52576977
v 6.04000616 -1.69930494 -0.52459168
v 6.04573202 -1.70468700 -0.53077656
v 6.04000616 -1.69930494 -0.52459168
v 6.03975773 -1.69897461 -0.52335066
v 6.04573202 -1.70468700 -0.53077656
v 6.03975773 -1.69897461 -0.52335066
v 6.03963900 -1.69874799 -0.52206790
v 6.04573202 -1.70468700 -0.53077656
v 6.03963900 -1.69874799 -0.52206790
v 6.03965139 -1.69862890 -0.52076530
v 6.04573202 -1.70468700 -0.53077656
v 6.03965139 -1.69862890 -0.52076530
v 6.03979540 -1.69861948 -0.51946521
v 6.04573202 -1.70468700 -0.53077656
v 6.03979540 -1.69861948 -0.51946521
v 6.04006863 -1.69871986 -0.51818991
v 6.04573202 -1.70468700 -0.53077656
v 6.04006863 -1.69871986 -0.51818991
v 6.04046583 -1.69892824 -0.51696110
v 6.04573202 -1.70468700 -0.53077656
v 6.04046583 -1.69892824 -0.51696110
v 6.04098034 -1.69924104 -0.51579994
v 6.04573202 -1.70468700 -0.53077656
v 6.04098034 -1.69924104 -0.51579994
v 6.04160357 -1.69965315 -0.51472616
v 6.04573202 -1.70468700 -0.53077656
v 6.04160357 -1.69965315 -0.51472616
v 6.04232454 -1.70015717 -0.51375824
v 6.04573202 -1.70468700 -0.53077656
v 6.04232454 -1.70015717 -0.51375824
v 6.04313135 -1.70074475 -0.51291275
v 6.04573202 -1.70468700 -0.53077656
v 6.04313135 -1.70074475 -0.51291275
v 6.04400969 -1.70140576 -0.51220405
v 6.04573202 -1.70468700 -0.53077656
v 6.04400969 -1.70140576 -0.51220405
v 6.04494524 -1.70212877 -0.51164436
v 6.04573202 -1.70468700 -0.53077656
v 6.04494524 -1.70212877 -0.51164436
v 6.04592133 -1.70290160 -0.51124322
v 6.04573202 -1.70468700 -0.53077656
v 6.04592133 -1.70290160 -0.51124322
v 6.04692173 -1.70371091 -0.51100749
v 6.04573202 -1.70468700 -0.53077656
v 6.04692173 -1.70371091 -0.51100749
v 6.04792881 -1.70454288 -0.51094121
v 6.04573202 -1.70468700 -0.53077656
v 6.04792881 -1.70454288 -0.51094121
v 6.04892588 -1.70538330 -0.51104552
v 6.04573202 -1.70468700 -0.53077656
v 6.04892588 -1.70538330 -0.51104552
v 6.04989529 -1.70621765 -0.51131868
v 6.04573202 -1.70468700 -0.53077656
v 6.04989529 -1.70621765 -0.51131868
v 6.05082130 -1.70703185 -0.51175588
v 6.04573202 -1.70468700 -0.53077656
v 6.05082130 -1.70703185 -0.51175588
v 6.05168724 -1.70781195 -0.51234978
v 6.04573202 -1.70468700 -0.53077656
v 6.05168724 -1.70781195 -0.51234978
v 6.05247831 -1.70854437 -0.51309019
v 6.04573202 -1.70468700 -0.53077656
v 6.05247831 -1.70854437 -0.51309019
v 6.05318165 -1.70921695 -0.51396435
v 6.04573202 -1.70468700 -0.53077656
v 6.05318165 -1.70921695 -0.51396435
v 6.05378485 -1.70981777 -0.51495743
v 6.04573202 -1.70468700 -0.53077656
v 6.05378485 -1.70981777 -0.51495743
v 6.05427742 -1.71033692 -0.51605237
v 6.04573202 -1.70468700 -0.53077656
v 6.05427742 -1.71033692 -0.51605237
v 6.05465126 -1.71076524 -0.51723045
v 6.04573202 -1.70468700 -0.53077656
v 6.05465126 -1.71076524 -0.51723045
v 6.05489969 -1.71109557 -0.51847148
v 6.04573202 -1.70468700 -0.53077656
v 6.05489969 -1.71109557 -0.51847148
v 6.05501890 -1.71132219 -0.51975423
v 6.04573202 -1.70468700 -0.53077656
v 6.05501890 -1.71132219 -0.51975423
v 6.05500603 -1.71144128 -0.52105683
v 6.04573202 -1.70468700 -0.53077656
v 6.05500603 -1.71144128 -0.52105683
v 6.05486202 -1.71145070 -0.52235687
v 6.04573202 -1.70468700 -0.53077656
v 6.05486202 -1.71145070 -0.52235687
v 6.05458927 -1.71135044 -0.52363223
v 6.04573202 -1.70468700 -0.53077656
v 6.05458927 -1.71135044 -0.52363223
v 6.05419207 -1.71114206 -0.52486098
v 6.04573202 -1.70468700 -0.53077656
v 6.05419207 -1.71114206 -0.52486098
v 6.05367756 -1.71082914 -0.52602220
v 6.04573202 -1.70468700 -0.53077656
v 6.05367756 -1.71082914 -0.52602220
v 6.05305433 -1.71041715 -0.52709591
v 6.04573202 -1.70468700 -0.53077656
v 6.05305433 -1.71041715 -0.52709591
v 6.05233335 -1.70991302 -0.52806383
v 6.04573202 -1.70468700 -0.53077656
v 6.05233335 -1.70991302 -0.52806383
v 6.05152655 -1.70932543 -0.52890939
v 6.04573202 -1.70468700 -0.53077656
v 6.05152655 -1.70932543 -0.52890939
v 6.05064774 -1.70866454 -0.52961808
v 6.04573202 -1.70468700 -0.53077656
v 6.05064774 -1.70866454 -0.52961808
v 6.04971218 -1.70794141 -0.53017777
v 6.04573202 -1.70468700 -0.53077656
v 6.04971218 -1.70794141 -0.53017777
v 6.04873610 -1.70716870 -0.53057891
v 6.04573202 -1.70468700 -0.53077656
v 6.04873610 -1.70716870 -0.53057891
v 6.04773617 -1.70635939 -0.53081465
v 6.04573202 -1.70468700 -0.53077656
v 6.04773617 -1.70635939 -0.53081465
v 6.04672861 -1.70552742 -0.53088087
v 5.96762419 -1.80054224 -0.52142876
v 5.96863127 -1.80137420 -0.52136248
v 5.96963167 -1.80218351 -0.52112681
v 5.96762419 -1.80054224 -0.52142876
v 5.96963167 -1.80218351 -0.52112681
v 5.97060776 -1.80295622 -0.52072567
v 5.96762419 -1.80054224 -0.52142876
v 5.97060776 -1.80295622 -0.52072567
v 5.97154331 -1.80367935 -0.52016598
v 5.96762419 -1.80054224 -0.52142876
v 5.97154331 -1.80367935 -0.52016598
v 5.97242165 -1.80434036 -0.51945728
v 5.96762419 -1.80054224 -0.52142876
v 5.97242165 -1.80434036 -0.51945728
v 5.97322845 -1.80492783 -0.51861173
v 5.96762419 -1.80054224 -0.52142876
v 5.97322845 -1.80492783 -0.51861173
v 5.97394991 -1.80543196 -0.51764381
v 5.96762419 -1.80054224 -0.52142876
v 5.97394991 -1.80543196 -0.51764381
v 5.97457314 -1.80584395 -0.51657009
v 5.96762419 -1.80054224 -0.52142876
v 5.97457314 -1.80584395 -0.51657009
v 5.97508764 -1.80615687 -0.51540887
v 5.96762419 -1.80054224 -0.52142876
v 5.97508764 -1.80615687 -0.51540887
v 5.97548437 -1.80636525 -0.51418012
v 5.96762419 -1.80054224 -0.52142876
v 5.97548437 -1.80636525 -0.51418012
v 5.97575760 -1.80646551 -0.51290476
v 5.96762419 -1.80054224 -0.52142876
v 5.97575760 -1.80646551 -0.51290476
v 5.97590160 -1.80645609 -0.51160467
v 5.96762419 -1.80054224 -0.52142876
v 5.97590160 -1.80645609 -0.51160467
v 5.97591400 -1.80633700 -0.51030213
v 5.96762419 -1.80054224 -0.52142876
v 5.97591400 -1.80633700 -0.51030213
v 5.97579527 -1.80611038 -0.50901932
v 5.96762419 -1.80054224 -0.52142876
v 5.97579527 -1.80611038 -0.50901932
v 5.97554684 -1.80578005 -0.50777829
v 5.96762419 -1.80054224 -0.52142876
v 5.97554684 -1.80578005 -0.50777829
v 5.97517300 -1.80535173 -0.50660026
v 5.96762419 -1.80054224 -0.52142876
v 5.97517300 -1.80535173 -0.50660026
v 5.97468042 -1.80483270 -0.50550532
v 5.96762419 -1.80054224 -0.52142876
v 5.97468042 -1.80483270 -0.50550532
v 5.97407722 -1.80423176 -0.50451225
v 5.96762419 -1.80054224 -0.52142876
v 5.97407722 -1.80423176 -0.50451225
v 5.97337389 -1.80355930 -0.50363809
v 5.96762419 -1.80054224 -0.52142876
v 5.97337389 -1.80355930 -0.50363809
v 5.97258234 -1.80282676 -0.50289768
v 5.96762419 -1.80054224 -0.52142876
v 5.97258234 -1.80282676 -0.50289768
v 5.97171640 -1.80204666 -0.50230378
v 5.96762419 -1.80054224 -0.52142876
v 5.97171640 -1.80204666 -0.50230378
v 5.97079086 -1.80123246 -0.50186652
v 5.96762419 -1.80054224 -0.52142876
v 5.97079086 -1.80123246 -0.50186652
v 5.96982145 -1.80039811 -0.50159341
v 5.96762419 -1.80054224 -0.52142876
v 5.96982145 -1.80039811 -0.50159341
v 5.96882439 -1.79955769 -0.50148910
v 5.96762419 -1.80054224 -0.52142876
v 5.96882439 -1.79955769 -0.50148910
v 5.96781731 -1.79872572 -0.50155538
v 5.96762419 -1.80054224 -0.52142876
v 5.96781731 -1.79872572 -0.50155538
v 5.96681690 -1.79791641 -0.50179112
v 5.96762419 -1.80054224 -0.52142876
v 5.96681690 -1.79791641 -0.50179112
v 5.96584082 -1.79714358 -0.50219226
v 5.96762419 -1.80054224 -0.52142876
v 5.96584082 -1.79714358 -0.50219226
v 5.96490526 -1.79642057 -0.50275195
v 5.96762419 -1.80054224 -0.52142876
v 5.96490526 -1.79642057 -0.50275195
v 5.96402693 -1.79575956 -0.50346059
v 5.96762419 -1.80054224 -0.52142876
v 5.96402693 -1.79575956 -0.50346059
v 5.96322012 -1.79517198 -0.50430614
v 5.96762419 -1.80054224 -0.52142876
v 5.96322012 -1.79517198 -0.50430614
v 5.96249866 -1.79466796 -0.50527406
v 5.96762419 -1.80054224 -0.52142876
v 5.96249866 -1.79466796 -0.50527406
v 5.96187544 -1.79425597 -0.50634778
v 5.96762419 -1.80054224 -0.52142876
v 5.96187544 -1.79425597 -0.50634778
v 5.96136093 -1.79394305 -0.50750899
v 5.96762419 -1.80054224 -0.52142876
v 5.96136093 -1.79394305 -0.50750899
v 5.96096373 -1.79373467 -0.50873780
v 5.96762419 -1.80054224 -0.52142876
v 5.96096373 -1.79373467 -0.50873780
v 5.96069098 -1.79363430 -0.51001310
v 5.96762419 -1.80054224 -0.52142876
v 5.96069098 -1.79363430 -0.51001310
v 5.96054697 -1.79364383 -0.51131320
v 5.96762419 -1.80054224 -0.52142876
v 5.96054697 -1.79364383 -0.51131320
v 5.96053457 -1.79376280 -0.51261574
v 5.96762419 -1.80054224 -0.52142876
v 5.96053457 -1.79376280 -0.51261574
v 5.96065331 -1.79398942 -0.51389855
v 5.96762419 -1.80054224 -0.52142876
v 5.96065331 -1.79398942 -0.51389855
v 5.96090174 -1.79431975 -0.51513958
v 5.96762419 -1.80054224 -0.52142876
v 5.96090174 -1.79431975 -0.51513958
v 5.96127558 -1.79474819 -0.51631767
v 5.96762419 -1.80054224 -0.52142876
v 5.96127558 -1.79474819 -0.51631767
v 5.96176815 -1.79526722 -0.51741254
v 5.96762419 -1.80054224 -0.52142876
v 5.96176815 -1.79526722 -0.51741254
v 5.96237135 -1.79586816 -0.51840562
v 5.96762419 -1.80054224 -0.52142876
v 5.96237135 -1.79586816 -0.51840562
v 5.96307468 -1.79654062 -0.51927984
v 5.96762419 -1.80054224 -0.52142876
v 5.96307468 -1.79654062 -0.51927984
v 5.96386623 -1.79727316 -0.52002019
v 5.96762419 -1.80054224 -0.52142876
v 5.96386623 -1.79727316 -0.52002019
v 5.96473217 -1.79805315 -0.52061409
v 5.96762419 -1.80054224 -0.52142876
v 5.96473217 -1.79805315 -0.52061409
v 5.96565771 -1.79886734 -0.52105135
v 5.96762419 -1.80054224 -0.52142876
v 5.96565771 -1.79886734 -0.52105135
v 5.96662712 -1.79970181 -0.52132446
v 6.04672861 -1.70552742 -0.53088087
v 6.04773617 -1.70635939 -0.53081465
v 5.96863127 -1.80137420 -0.52136248
v 6.04672861 -1.70552742 -0.53088087
v 5.96863127 -1.80137420 -0.52136248
v 5.96762419 -1.80054224 -0.52142876
v 6.04773617 -1.70635939 -0.53081465
v 6.04873610 -1.70716870 -0.53057891
v 5.96963167 -1.80218351 -0.52112681
v 6.04773617 -1.70635939 -0.53081465
v 5.96963167 -1.80218351 -0.52112681
v 5.96863127 -1.80137420 -0.52136248
v 6.04873610 -1.70716870 -0.53057891
v 6.04971218 -1.70794141 -0.53017777
v 5.97060776 -1.80295622 -0.52072567
v 6.04873610 -1.70716870 -0.53057891
v 5.97060776 -1.80295622 -0.52072567
v 5.96963167 -1.80218351 -0.52112681
v 6.04971218 -1.70794141 -0.53017777
v 6.05064774 -1.70866454 -0.52961808
v 5.97154331 -1.80367935 -0.52016598
v 6.04971218 -1.70794141 -0.53017777
v 5.97154331 -1.80367935 -0.52016598
v 5.97060776 -1.80295622 -0.52072567
v 6.05064774 -1.70866454 -0.52961808
v 6.05152655 -1.70932543 -0.52890939
v 5.97242165 -1.80434036 -0.51945728
v 6.05064774 -1.70866454 -0.52961808
v 5.97242165 -1.80434036 -0.51945728
v 5.97154331 -1.80367935 -0.52016598
v 6.05152655 -1.70932543 -0.52890939
v 6.05233335 -1.70991302 -0.52806383
v 5.97322845 -1.80492783 -0.51861173
v 6.05152655 -1.70932543 -0.52890939
v 5.97322845 -1.80492783 -0.51861173
v 5.97242165 -1.80434036 -0.51945728
v 6.05233335 -1.70991302 -0.52806383
v 6.05305433 -1.71041715 -0.52709591
v 5.97394991 -1.80543196 -0.51764381
v 6.05233335 -1.70991302 -0.52806383
v 5.97394991 -1.80543196 -0.51764381
v 5.97322845 -1.80492783 -0.51861173
v 6.05305433 -1.71041715 -0.52709591
v 6.05367756 -1.71082914 -0.52602220
v 5.97457314 -1.80584395 -0.51657009
v 6.05305433 -1.71041715 -0.52709591
v 5.97457314 -1.80584395 -0.51657009
v 5.97394991 -1.80543196 -0.51764381
v 6.05367756 -1.71082914 -0.52602220
v 6.05419207 -1.71114206 -0.52486098
v 5.97508764 -1.80615687 -0.51540887
v 6.05367756 -1.71082914 -0.52602220
v 5.97508764 -1.80615687 -0.51540887
v 5.97457314 -1.80584395 -0.51657009
v 6.05419207 -1.71114206 -0.52486098
v 6.05458927 -1.71135044 -0.52363223
v 5.97548437 -1.80636525 -0.51418012
v 6.05419207 -1.71114206 -0.52486098
v 5.97548437 -1.80636525 -0.51418012
v 5.97508764 -1.80615687 -0.51540887
v 6.05458927 -1.71135044 -0.52363223
v 6.05486202 -1.71145070 -0.52235687
v 5.97575760 -1.80646551 -0.51290476
v 6.05458927 -1.71135044 -0.52363223
v 5.97575760 -1.80646551 -0.51290476
v 5.97548437 -1.80636525 -0.51418012
v 6.05486202 -1.71145070 -0.52235687
v 6.05500603 -1.71144128 -0.52105683
v 5.97590160 -1.80645609 -0.51160467
v 6.05486202 -1.71145070 -0.52235687
v 5.97590160 -1.80645609 -0.51160467
v 5.97575760 -1.80646551 -0.51290476
v 6.05500603 -1.71144128 -0.52105683
v 6.05501890 -1.71132219 -0.51975423
v 5.97591400 -1.80633700 -0.51030213
v 6.05500603 -1.71144128 -0.52105683
v 5.97591400 -1.80633700 -0.51030213
v 5.97590160 -1.80645609 -0.51160467
v 6.05501890 -1.71132219 -0.51975423
v 6.05489969 -1.71109557 -0.51847148
v 5.97579527 -1.80611038 -0.50901932
v 6.05501890 -1.71132219 -0.51975423
v 5.97579527 -1.80611038 -0.50901932
v 5.97591400 -1.80633700 -0.51030213
v 6.05489969 -1.71109557 -0.51847148
v 6.05465126 -1.71076524 -0.51723045
v 5.97554684 -1.80578005 -0.50777829
v 6.05489969 -1.71109557 -0.51847148
v 5.97554684 -1.80578005 -0.50777829
v 5.97579527 -1.80611038 -0.50901932
v 6.05465126 -1.71076524 -0.51723045
v 6.05427742 -1.71033692 -0.51605237
v 5.97517300 -1.80535173 -0.50660026
v 6.05465126 -1.71076524 -0.51723045
v 5.97517300 -1.80535173 -0.50660026
v 5.97554684 -1.80578005 -0.50777829
v 6.05427742 -1.71033692 -0.51605237
v 6.05378485 -1.70981777 -0.51495743
v 5.97468042 -1.80483270 -0.50550532
v 6.05427742 -1.71033692 -0.51605237
v 5.97468042 -1.80483270 -0.50550532
v 5.97517300 -1.80535173 -0.50660026
v 6.05378485 -1.70981777 -0.51495743
v 6.05318165 -1.70921695 -0.51396435
v 5.97407722 -1.80423176 -0.50451225
v 6.05378485 -1.70981777 -0.51495743
v 5.97407722 -1.80423176 -0.50451225
v 5.97468042 -1.80483270 -0.50550532
v 6.05318165 -1.70921695 -0.51396435
v 6.05247831 -1.70854437 -0.51309019
v 5.97337389 -1.80355930 -0.50363809
v 6.05318165 -1.70921695 -0.51396435
v 5.97337389 -1.80355930 -0.50363809
v 5.97407722 -1.80423176 -0.50451225
v 6.05247831 -1.70854437 -0.51309019
v 6.05168724 -1.70781195 -0.51234978
v 5.97258234 -1.80282676 -0.50289768
v 6.05247831 -1.70854437 -0.51309019
v 5.97258234 -1.80282676 -0.50289768
v 5.97337389 -1.80355930 -0.50363809
v 6.05168724 -1.70781195 -0.51234978
v 6.05082130 -1.70703185 -0.51175588
v 5.97171640 -1.80204666 -0.50230378
v 6.05168724 -1.70781195 -0.51234978
v 5.97171640 -1.80204666 -0.50230378
v 5.97258234 -1.80282676 -0.50289768
v 6.05082130 -1.70703185 -0.51175588
v 6.04989529 -1.70621765 -0.51131868
v 5.97079086 -1.80123246 -0.50186652
v 6.05082130 -1.70703185 -0.51175588
v 5.97079086 -1.80123246 -0.50186652
v 5.97171640 -1.80204666 -0.50230378
v 6.04989529 -1.70621765 -0.51131868
v 6.04892588 -1.70538330 -0.51104552
v 5.96982145 -1.80039811 -0.50159341
v 6.04989529 -1.70621765 -0.51131868
v 5.96982145 -1.80039811 -0.50159341
v 5.97079086 -1.80123246 -0.50186652
v 6.04892588 -1.70538330 -0.51104552
v 6.04792881 -1.70454288 -0.51094121
v 5.96882439 -1.79955769 -0.50148910
v 6.04892588 -1.70538330 -0.51104552
v 5.96882439 -1.79955769 -0.50148910
v 5.96982145 -1.80039811 -0.50159341
v 6.04792881 -1.70454288 -0.51094121
v 6.04692173 -1.70371091 -0.51100749
v 5.96781731 -1.79872572 -0.50155538
v 6.04792881 -1.70454288 -0.51094121
v 5.96781731 -1.79872572 -0.50155538
v 5.96882439 -1.79955769 -0.50148910
v 6.04692173 -1.70371091 -0.51100749
v 6.04592133 -1.70290160 -0.51124322
v 5.96681690 -1.79791641 -0.50179112
v 6.04692173 -1.70371091 -0.51100749
v 5.96681690 -1.79791641 -0.50179112
v 5.96781731 -1.79872572 -0.50155538
v 6.04592133 -1.70290160 -0.51124322
v 6.04494524 -1.70212877 -0.51164436
v 5.96584082 -1.79714358 -0.50219226
v 6.04592133 -1.70290160 -0.51124322
v 5.96584082 -1.79714358 -0.50219226
v 5.96681690 -1.79791641 -0.50179112
v 6.04494524 -1.70212877 -0.51164436
v 6.04400969 -1.70140576 -0.51220405
v 5.96490526 -1.79642057 -0.50275195
v 6.04494524 -1.70212877 -0.51164436
v 5.96490526 -1.79642057 -0.50275195
v 5.96584082 -1.79714358 -0.50219226
v 6.04400969 -1.70140576 -0.51220405
v 6.04313135 -1.70074475 -0.51291275
v 5.96402693 -1.79575956 -0.50346059
v 6.04400969 -1.70140576 -0.51220405
v 5.96402693 -1.79575956 -0.50346059
v 5.96490526 -1.79642057 -0.50275195
v 6.04313135 -1.70074475 -0.51291275
v 6.04232454 -1.70015717 -0.51375824
v 5.96322012 -1.79517198 -0.50430614
v 6.04313135 -1.70074475 -0.51291275
v 5.96322012 -1.79517198 -0.50430614
v 5.96402693 -1.79575956 -0.50346059
v 6.04232454 -1.70015717 -0.51375824
v 6.04160357 -1.69965315 -0.51472616
v 5.96249866 -1.79466796 -0.50527406
v 6.04232454 -1.70015717 -0.51375824
v 5.96249866 -1.79466796 -0.50527406
v 5.96322012 -1.79517198 -0.50430614
v 6.04160357 -1.69965315 -0.51472616
v 6.04098034 -1.69924104 -0.51579994
v 5.96187544 -1.79425597 -0.50634778
v 6.04160357 -1.69965315 -0.51472616
v 5.96187544 -1.79425597 -0.50634778
v 5.96249866 -1.79466796 -0.50527406
v 6.04098034 -1.69924104 -0.51579994
v 6.04046583 -1.69892824 -0.51696110
v 5.96136093 -1.79394305 -0.50750899
v 6.04098034 -1.69924104 -0.51579994
v 5.96136093 -1.79394305 -0.50750899
v 5.96187544 -1.79425597 -0.50634778
v 6.04046583 -1.69892824 -0.51696110
v 6.04006863 -1.69871986 -0.51818991
v 5.96096373 -1.79373467 -0.50873780
v 6.04046583 -1.69892824 -0.51696110
v 5.96096373 -1.79373467 -0.50873780
v 5.96136093 -1.79394305 -0.50750899
v 6.04006863 -1.69871986 -0.51818991
v 6.03979540 -1.69861948 -0.51946521
v 5.96069098 -1.79363430 -0.51001310
v 6.04006863 -1.69871986 -0.51818991
v 5.96069098 -1.79363430 -0.51001310
v 5.96096373 -1.79373467 -0.50873780
v 6.03979540 -1.69861948 -0.51946521
v 6.03965139 -1.69862890 -0.52076530
v 5.96054697 -1.79364383 -0.51131320
v 6.03979540 -1.69861948 -0.51946521
v 5.96054697 -1.79364383 -0.51131320
v 5.96069098 -1.79363430 -0.51001310
v 6.03965139 -1.69862890 -0.52076530
v 6.03963900 -1.69874799 -0.52206790
v 5.96053457 -1.79376280 -0.51261574
v 6.03965139 -1.69862890 -0.52076530
v 5.96053457 -1.79376280 -0.51261574
v 5.96054697 -1.79364383 -0.51131320
v 6.03963900 -1.69874799 -0.52206790
v 6.03975773 -1.69897461 -0.52335066
v 5.96065331 -1.79398942 -0.51389855
v 6.03963900 -1.69874799 -0.52206790
v 5.96065331 -1.79398942 -0.51389855
v 5.96053457 -1.79376280 -0.51261574
v 6.03975773 -1.69897461 -0.52335066
v 6.04000616 -1.69930494 -0.52459168
v 5.96090174 -1.79431975 -0.51513958
v 6.03975773 -1.69897461 -0.52335066
v 5.96090174 -1.79431975 -0.51513958
v 5.96065331 -1.79398942 -0.51389855
v 6.04000616 -1.69930494 -0.52459168
v 6.04038000 -1.69973338 -0.52576977
v 5.96127558 -1.79474819 -0.51631767
v 6.04000616 -1.69930494 -0.52459168
v 5.96127558 -1.79474819 -0.51631767
v 5.96090174 -1.79431975 -0.51513958
v 6.04038000 -1.69973338 -0.52576977
v 6.04087257 -1.70025241 -0.52686471
v 5.96176815 -1.79526722 -0.51741254
v 6.04038000 -1.69973338 -0.52576977
v 5.96176815 -1.79526722 -0.51741254
v 5.96127558 -1.79474819 -0.51631767
v 6.04087257 -1.70025241 -0.52686471
v 6.04147577 -1.70085335 -0.52785772
v 5.96237135 -1.79586816 -0.51840562
v 6.04087257 -1.70025241 -0.52686471
v 5.96237135 -1.79586816 -0.51840562
v 5.96176815 -1.79526722 -0.51741254
v 6.04147577 -1.70085335 -0.52785772
v 6.04217911 -1.70152581 -0.52873194
v 5.96307468 -1.79654062 -0.51927984
v 6.04147577 -1.70085335 -0.52785772
v 5.96307468 -1.79654062 -0.51927984
v 5.96237135 -1.79586816 -0.51840562
v 6.04217911 -1.70152581 -0.52873194
v 6.04297066 -1.70225835 -0.52947229
v 5.96386623 -1.79727316 -0.52002019
v 6.04217911 -1.70152581 -0.52873194
v 5.96386623 -1.79727316 -0.52002019
v 5.96307468 -1.79654062 -0.51927984
v 6.04297066 -1.70225835 -0.52947229
v 6.04383659 -1.70303833 -0.53006619
v 5.96473217 -1.79805315 -0.52061409
v 6.04297066 -1.70225835 -0.52947229
v 5.96473217 -1.79805315 -0.52061409
v 5.96386623 -1.79727316 -0.52002019
v 6.04383659 -1.70303833 -0.53006619
v 6.04476213 -1.70385253 -0.53050345
v 5.96565771 -1.79886734 -0.52105135
v 6.04383659 -1.70303833 -0.53006619
v 5.96565771 -1.79886734 -0.52105135
v 5.96473217 -1.79805315 -0.52061409
v 6.04476213 -1.70385253 -0.53050345
v 6.04573202 -1.70468700 -0.53077656
v 5.96662712 -1.79970181 -0.52132446
v 6.04476213 -1.70385253 -0.53050345
v 5.96662712 -1.79970181 -0.52132446
v 5.96565771 -1.79886734 -0.52105135
v 6.04573202 -1.70468700 -0.53077656
v 6.04672861 -1.70552742 -0.53088087
v 5.96762419 -1.80054224 -0.52142876
v 6.04573202 -1.70468700 -0.53077656
v 5.96762419 -1.80054224 -0.52142876
v 5.96662712 -1.79970181 -0.52132446
vt -0.00290058 -0.03212106
vt -0.00575153 -0.03155553
vt -0.00850408 -0.03062367
vt -0.00290058 -0.03212106
vt -0.00850408 -0.03062367
vt -0.01111111 -0.02934158
vt -0.00290058 -0.03212106
vt -0.01111111 -0.02934158
vt -0.01352803 -0.02773106
vt -0.00290058 -0.03212106
vt -0.01352803 -0.02773106
vt -0.01571348 -0.02581966
vt -0.00290058 -0.03212106
vt -0.01571348 -0.02581966
vt -0.01763007 -0.02364016
vt -0.00290058 -0.03212106
vt -0.01763007 -0.02364016
vt -0.01924501 -0.02122974
vt -0.00290058 -0.03212106
vt -0.01924501 -0.02122974
vt -0.02053066 -0.01862979
vt -0.00290058 -0.03212106
vt -0.02053066 -0.01862979
vt -0.02146502 -0.01588476
vt -0.00290058 -0.03212106
vt -0.02146502 -0.01588476
vt -0.02203211 -0.01304150
vt -0.00290058 -0.03212106
vt -0.02203211 -0.01304150
vt -0.02222222 -0.01014888
vt -0.00290058 -0.03212106
vt -0.02222222 -0.01014888
vt -0.02203211 -0.00725615
vt -0.00290058 -0.03212106
vt -0.02203211 -0.00725615
vt -0.02146502 -0.00441289
vt -0.00290058 -0.03212106
vt -0.02146502 -0.00441289
vt -0.02053066 -0.00166786
vt -0.00290058 -0.03212106
vt -0.02053066 -0.00166786
vt -0.01924501 0.00093210
vt -0.00290058 -0.03212106
vt -0.01924501 0.00093210
vt -0.01763007 0.00334245
vt -0.00290058 -0.03212106
vt -0.01763007 0.00334245
vt -0.01571348 0.00552195
vt -0.00290058 -0.03212106
vt -0.01571348 0.00552195
vt -0.01352803 0.00743335
vt -0.00290058 -0.03212106
vt -0.01352803 0.00743335
vt -0.01111111 0.00904387
vt -0.00290058 -0.03212106
vt -0.01111111 0.00904387
vt -0.00850408 0.01032603
vt -0.00290058 -0.03212106
vt -0.00850408 0.01032603
vt -0.00575153 0.01125783
vt -0.00290058 -0.03212106
vt -0.00575153 0.01125783
vt -0.00290058 0.01182342
vt -0.00290058 -0.03212106
vt -0.00290058 0.01182342
vt -0.00000000 0.01201302
vt -0.00290058 -0.03212106
vt -0.00000000 0.01201302
vt 0.00290058 0.01182342
vt -0.00290058 -0.03212106
vt 0.00290058 0.01182342
vt 0.00575153 0.01125783
vt -0.00290058 -0.03212106
vt 0.00575153 0.01125783
vt 0.00850408 0.01032603
vt -0.00290058 -0.03212106
vt 0.00850408 0.01032603
vt 0.01111111 0.00904387
vt -0.00290058 -0.03212106
vt 0.01111111 0.00904387
vt 0.01352803 0.00743335
vt -0.00290058 -0.03212106
vt 0.01352803 0.00743335
vt 0.01571348 0.00552195
vt -0.00290058 -0.03212106
vt 0.01571348 0.00552195
vt 0.01763007 0.00334245
vt -0.00290058 -0.03212106
vt 0.01763007 0.00334245
vt 0.01924501 0.00093210
vt -0.00290058 -0.03212106
vt 0.01924501 0.00093210
vt 0.02053066 -0.00166786
vt -0.00290058 -0.03212106
vt 0.02053066 -0.00166786
vt 0.02146502 -0.00441289
vt -0.00290058 -0.03212106
vt 0.02146502 -0.00441289
vt 0.02203211 -0.00725615
vt -0.00290058 -0.03212106
vt 0.02203211 -0.00725615
vt 0.02222222 -0.01014888
vt -0.00290058 -0.03212106
vt 0.02222222 -0.01014888
vt 0.02203211 -0.01304150
vt -0.00290058 -0.03212106
vt 0.02203211 -0.01304150
vt 0.02146502 -0.01588476
vt -0.00290058 -0.03212106
vt 0.02146502 -0.01588476
vt 0.02053066 -0.01862979
vt -0.00290058 -0.03212106
vt 0.02053066 -0.01862979
vt 0.01924501 -0.02122974
vt -0.00290058 -0.03212106
vt 0.01924501 -0.02122974
vt 0.01763007 -0.02364016
vt -0.00290058 -0.03212106
vt 0.01763007 -0.02364016
vt 0.01571348 -0.02581966
vt -0.00290058 -0.03212106
vt 0.01571348 -0.02581966
vt 0.01352803 -0.02773106
vt -0.00290058 -0.03212106
vt 0.01352803 -0.02773106
vt 0.01111111 -0.02934158
vt -0.00290058 -0.03212106
vt 0.01111111 -0.02934158
vt 0.00850408 -0.03062367
vt -0.00290058 -0.03212106
vt 0.00850408 -0.03062367
vt 0.00575153 -0.03155553
vt -0.00290058 -0.03212106
vt 0.00575153 -0.03155553
vt 0.00290058 -0.03212106
vt -0.00290058 -0.03212106
vt 0.00290058 -0.03212106
vt -0.00000000 -0.03231072
vt 0.00000000 -0.01201296
vt 0.00290058 -0.01182342
vt 0.00575153 -0.01125789
vt 0.00000000 -0.01201296
vt 0.00575153 -0.01125789
vt 0.00850408 -0.01032603
vt 0.00000000 -0.01201296
vt 0.00850408 -0.01032603
vt 0.01111111 -0.00904393
vt 0.00000000 -0.01201296
vt 0.01111111 -0.00904393
vt 0.01352803 -0.00743330
vt 0.00000000 -0.01201296
vt 0.01352803 -0.00743330
vt 0.01571348 -0.00552189
vt 0.00000000 -0.01201296
vt 0.01571348 -0.00552189
vt 0.01763007 -0.00334239
vt 0.00000000 -0.01201296
vt 0.01763007 -0.00334239
vt 0.01924501 -0.00093210
vt 0.00000000 -0.01201296
vt 0.01924501 -0.00093210
vt 0.02053066 0.00166786
vt 0.00000000 -0.01201296
vt 0.02053066 0.00166786
vt 0.02146502 0.00441295
vt 0.00000000 -0.01201296
vt 0.02146502 0.00441295
vt 0.02203211 0.00725615
vt 0.00000000 -0.01201296
vt 0.02203211 0.00725615
vt 0.02222222 0.01014882
vt 0.00000000 -0.01201296
vt 0.02222222 0.01014882
vt 0.02203211 0.01304156
vt 0.00000000 -0.01201296
vt 0.02203211 0.01304156
vt 0.02146502 0.01588476
vt 0.00000000 -0.01201296
vt 0.02146502 0.01588476
vt 0.02053066 0.01862985
vt 0.00000000 -0.01201296
vt 0.02053066 0.01862985
vt 0.01924501 0.02122974
vt 0.00000000 -0.01201296
vt 0.01924501 0.02122974
vt 0.01763007 0.02364016
vt 0.00000000 -0.01201296
vt 0.01763007 0.02364016
vt 0.01571348 0.02581966
vt 0.00000000 -0.01201296
vt 0.01571348 0.02581966
vt 0.01352803 0.02773100
vt 0.00000000 -0.01201296
vt 0.01352803 0.02773100
vt 0.01111111 0.02934158
vt 0.00000000 -0.01201296
vt 0.01111111 0.02934158
vt 0.00850408 0.03062373
vt 0.00000000 -0.01201296
vt 0.00850408 0.03062373
vt 0.00575153 0.03155553
vt 0.00000000 -0.01201296
vt 0.00575153 0.03155553
vt 0.00290058 0.03212112
vt 0.00000000 -0.01201296
vt 0.00290058 0.03212112
vt 0.00000000 0.03231072
vt 0.00000000 -0.01201296
vt 0.00000000 0.03231072
vt -0.00290058 0.03212112
vt 0.00000000 -0.01201296
vt -0.00290058 0.03212112
vt -0.00575153 0.03155553
vt 0.00000000 -0.01201296
vt -0.00575153 0.03155553
vt -0.00850408 0.03062373
vt 0.00000000 -0.01201296
vt -0.00850408 0.03062373
vt -0.01111111 0.02934158
vt 0.00000000 -0.01201296
vt -0.01111111 0.02934158
vt -0.01352803 0.02773100
vt 0.00000000 -0.01201296
vt -0.01352803 0.02773100
vt -0.01571348 0.02581966
vt 0.00000000 -0.01201296
vt -0.01571348 0.02581966
vt -0.01763007 0.02364016
vt 0.00000000 -0.01201296
vt -0.01763007 0.02364016
vt -0.01924501 0.02122974
vt 0.00000000 -0.01201296
vt -0.01924501 0.02122974
vt -0.02053066 0.01862985
vt 0.00000000 -0.01201296
vt -0.02053066 0.01862985
vt -0.02146502 0.01588476
vt 0.00000000 -0.01201296
vt -0.02146502 0.01588476
vt -0.02203211 0.01304156
vt 0.00000000 -0.01201296
vt -0.02203211 0.01304156
vt -0.02222222 0.01014882
vt 0.00000000 -0.01201296
vt -0.02222222 0.01014882
vt -0.02203211 0.00725615
vt 0.00000000 -0.01201296
vt -0.02203211 0.00725615
vt -0.02146502 0.00441295
vt 0.00000000 -0.01201296
vt -0.02146502 0.00441295
vt -0.02053066 0.00166786
vt 0.00000000 -0.01201296
vt -0.02053066 0.00166786
vt -0.01924501 -0.00093210
vt 0.00000000 -0.01201296
vt -0.01924501 -0.00093210
vt -0.01763007 -0.00334239
vt 0.00000000 -0.01201296
vt -0.01763007 -0.00334239
vt -0.01571348 -0.00552189
vt 0.00000000 -0.01201296
vt -0.01571348 -0.00552189
vt -0.01352803 -0.00743330
vt 0.00000000 -0.01201296
vt -0.01352803 -0.00743330
vt -0.01111111 -0.00904393
vt 0.00000000 -0.01201296
vt -0.01111111 -0.00904393
vt -0.00850408 -0.01032603
vt 0.00000000 -0.01201296
vt -0.00850408 -0.01032603
vt -0.00575153 -0.01125789
vt 0.00000000 -0.01201296
vt -0.00575153 -0.01125789
vt -0.00290058 -0.01182342
vt -0.13576061 0.00000000
vt -0.13577461 0.00290060
vt 0.13902056 0.00290060
vt -0.13576061 0.00000000
vt 0.13902056 0.00290060
vt 0.13903457 0.00000000
vt -0.13577461 0.00290060
vt -0.13581638 0.00575155
vt 0.13897879 0.00575155
vt -0.13577461 0.00290060
vt 0.13897879 0.00575155
vt 0.13902056 0.00290060
vt -0.13581638 0.00575155
vt -0.13588521 0.00850409
vt 0.13890997 0.00850409
vt -0.13581638 0.00575155
vt 0.13890997 0.00850409
vt 0.13897879 0.00575155
vt -0.13588521 0.00850409
vt -0.13597992 0.01111114
vt 0.13881525 0.01111114
vt -0.13588521 0.00850409
vt 0.13881525 0.01111114
vt 0.13890997 0.00850409
vt -0.13597992 0.01111114
vt -0.13609888 0.01352805
vt 0.13869630 0.01352805
vt -0.13597992 0.01111114
vt 0.13869630 0.01352805
vt 0.13881525 0.01111114
vt -0.13609888 0.01352805
vt -0.13624007 0.01571345
vt 0.13855511 0.01571345
vt -0.13609888 0.01352805
vt 0.13855511 0.01571345
vt 0.13869630 0.01352805
vt -0.13624007 -0.02581966
vt -0.13640106 -0.02364016
vt 0.13839412 -0.00334239
vt -0.13624007 -0.02581966
vt 0.13839412 -0.00334239
vt 0.13855511 -0.00552189
vt -0.13640106 -0.02364016
vt -0.13657910 -0.02122974
vt 0.13821608 -0.00093210
vt -0.13640106 -0.02364016
vt 0.13821608 -0.00093210
vt 0.13839412 -0.00334239
vt -0.13657910 -0.02122974
vt -0.13677114 -0.01862979
vt 0.13802403 0.00166786
vt -0.13657910 -0.02122974
vt 0.13802403 0.00166786
vt 0.13821608 -0.00093210
vt -0.13677114 -0.01862979
vt -0.13697390 -0.01588476
vt 0.13782127 0.00441295
vt -0.13677114 -0.01862979
vt 0.13782127 0.00441295
vt 0.13802403 0.00166786
vt -0.13697390 -0.01588476
vt -0.13718392 -0.01304150
vt 0.13761126 0.00725615
vt -0.13697390 -0.01588476
vt 0.13761126 0.00725615
vt 0.13782127 0.00441295
vt -0.13718392 -0.01304150
vt -0.13739759 -0.01014888
vt 0.13739759 0.01014882
vt -0.13718392 -0.01304150
vt 0.13739759 0.01014882
vt 0.13761126 0.00725615
vt -0.13739759 -0.01014888
vt -0.13761126 -0.00725615
vt 0.13718392 0.01304156
vt -0.13739759 -0.01014888
vt 0.13718392 0.01304156
vt 0.13739759 0.01014882
vt -0.13761126 -0.00725615
vt -0.13782127 -0.00441289
vt 0.13697390 0.01588476
vt -0.13761126 -0.00725615
vt 0.13697390 0.01588476
vt 0.13718392 0.01304156
vt -0.13782127 -0.00441289
vt -0.13802403 -0.00166786
vt 0.13677114 0.01862985
vt -0.13782127 -0.00441289
vt 0.13677114 0.01862985
vt 0.13697390 0.01588476
vt -0.13802403 -0.00166786
vt -0.13821608 0.00093210
vt 0.13657910 0.02122974
vt -0.13802403 -0.00166786
vt 0.13657910 0.02122974
vt 0.13677114 0.01862985
vt -0.13821608 0.00093210
vt -0.13839412 0.00334245
vt 0.13640106 0.02364016
vt -0.13821608 0.00093210
vt 0.13640106 0.02364016
vt 0.13657910 0.02122974
vt -0.13839412 0.00334245
vt -0.13855511 0.00552195
vt 0.13624007 0.02581966
vt -0.13839412 0.00334245
vt 0.13624007 0.02581966
vt 0.13640106 0.02364016
vt -0.13855511 0.01571345
vt -0.13869630 0.01352805
vt 0.13609888 0.01352805
vt -0.13855511 0.01571345
vt 0.13609888 0.01352805
vt 0.13624007 0.01571345
vt -0.13869630 0.01352805
vt -0.13881525 0.01111114
vt 0.13597992 0.01111114
vt -0.13869630 0.01352805
vt 0.13597992 0.01111114
vt 0.13609888 0.01352805
vt -0.13881525 0.01111114
vt -0.13890997 0.00850409
vt 0.13588521 0.00850409
vt -0.13881525 0.01111114
vt 0.13588521 0.00850409
vt 0.13597992 0.01111114
vt -0.13890997 0.00850409
vt -0.13897879 0.00575155
vt 0.13581638 0.00575155
vt -0.13890997 0.00850409
vt 0.13581638 0.00575155
vt 0.13588521 0.00850409
vt -0.13897879 0.00575155
vt -0.13902056 0.00290060
vt 0.13577461 0.00290060
vt -0.13897879 0.00575155
vt 0.13577461 0.00290060
vt 0.13581638 0.00575155
vt -0.13902056 0.00290060
vt -0.13903457 0.00000000
vt 0.13576061 0.00000000
vt -0.13902056 0.00290060
vt 0.13576061 0.00000000
vt 0.13577461 0.00290060
vt -0.13903457 0.00000000
vt -0.13902056 -0.00290060
vt 0.13577461 -0.00290060
vt -0.13903457 0.00000000
vt 0.13577461 -0.00290060
vt 0.13576061 0.00000000
vt -0.13902056 -0.00290060
vt -0.13897879 -0.00575149
vt 0.13581638 -0.00575149
vt -0.13902056 -0.00290060
vt 0.13581638 -0.00575149
vt 0.13577461 -0.00290060
vt -0.13897879 -0.00575149
vt -0.13890997 -0.00850403
vt 0.13588521 -0.00850403
vt -0.13897879 -0.00575149
vt 0.13588521 -0.00850403
vt 0.13581638 -0.00575149
vt -0.13890997 -0.00850403
vt -0.13881525 -0.01111114
vt 0.13597992 -0.01111114
vt -0.13890997 -0.00850403
vt 0.13597992 -0.01111114
vt 0.13588521 -0.00850403
vt -0.13881525 -0.01111114
vt -0.13869630 -0.01352799
vt 0.13609888 -0.01352799
vt -0.13881525 -0.01111114
vt 0.13609888 -0.01352799
vt 0.13597992 -0.01111114
vt -0.13869630 -0.01352799
vt -0.13855511 -0.01571345
vt 0.13624007 -0.01571345
vt -0.13869630 -0.01352799
vt 0.13624007 -0.01571345
vt 0.13609888 -0.01352799
vt -0.13855511 0.00552195
vt -0.13839412 0.00334245
vt 0.13640106 0.02364016
vt -0.13855511 0.00552195
vt 0.13640106 0.02364016
vt 0.13624007 0.02581966
vt -0.13839412 0.00334245
vt -0.13821608 0.00093210
vt 0.13657910 0.02122974
vt -0.13839412 0.00334245
vt 0.13657910 0.02122974
vt 0.13640106 0.02364016
vt -0.13821608 0.00093210
vt -0.13802403 -0.00166786
vt 0.13677114 0.01862985
vt -0.13821608 0.00093210
vt 0.13677114 0.01862985
vt 0.13657910 0.02122974
vt -0.13802403 -0.00166786
vt -0.13782127 -0.00441289
vt 0.13697390 0.01588476
vt -0.13802403 -0.00166786
vt 0.13697390 0.01588476
vt 0.13677114 0.01862985
vt -0.13782127 -0.00441289
vt -0.13761126 -0.00725615
vt 0.13718392 0.01304156
vt -0.13782127 -0.00441289
vt 0.13718392 0.01304156
vt 0.13697390 0.01588476
vt -0.13761126 -0.00725615
vt -0.13739759 -0.01014888
vt 0.13739759 0.01014882
vt -0.13761126 -0.00725615
vt 0.13739759 0.01014882
vt 0.13718392 0.01304156
vt -0.13739759 -0.01014888
vt -0.13718392 -0.01304150
vt 0.13761126 0.00725615
vt -0.13739759 -0.01014888
vt 0.13761126 0.00725615
vt 0.13739759 0.01014882
vt -0.13718392 -0.01304150
vt -0.13697390 -0.01588476
vt 0.13782127 0.00441295
vt -0.13718392 -0.01304150
vt 0.13782127 0.00441295
vt 0.13761126 0.00725615
vt -0.13697390 -0.01588476
vt -0.13677114 -0.01862979
vt 0.13802403 0.00166786
vt -0.13697390 -0.01588476
vt 0.13802403 0.00166786
vt 0.13782127 0.00441295
vt -0.13677114 -0.01862979
vt -0.13657910 -0.02122974
vt 0.13821608 -0.00093210
vt -0.13677114 -0.01862979
vt 0.13821608 -0.00093210
vt 0.13802403 0.00166786
vt -0.13657910 -0.02122974
vt -0.13640106 -0.02364016
vt 0.13839412 -0.00334239
vt -0.13657910 -0.02122974
vt 0.13839412 -0.00334239
vt 0.13821608 -0.00093210
vt -0.13640106 -0.02364016
vt -0.13624007 -0.02581966
vt 0.13855511 -0.00552189
vt -0.13640106 -0.02364016
vt 0.13855511 -0.00552189
vt 0.13839412 -0.00334239
vt -0.13624007 -0.01571345
vt -0.13609888 -0.01352799
vt 0.13869630 -0.01352799
vt -0.13624007 -0.01571345
vt 0.13869630 -0.01352799
vt 0.13855511 -0.01571345
vt -0.13609888 -0.01352799
vt -0.13597992 -0.01111114
vt 0.13881525 -0.01111114
vt -0.13609888 -0.01352799
vt 0.13881525 -0.01111114
vt 0.13869630 -0.01352799
vt -0.13597992 -0.01111114
vt -0.13588521 -0.00850403
vt 0.13890997 -0.00850403
vt -0.13597992 -0.01111114
vt 0.13890997 -0.00850403
vt 0.13881525 -0.01111114
vt -0.13588521 -0.00850403
vt -0.13581638 -0.00575149
vt 0.13897879 -0.00575149
vt -0.13588521 -0.00850403
vt 0.13897879 -0.00575149
vt 0.13890997 -0.00850403
vt -0.13581638 -0.00575149
vt -0.13577461 -0.00290060
vt 0.13902056 -0.00290060
vt -0.13581638 -0.00575149
vt 0.13902056 -0.00290060
vt 0.13897879 -0.00575149
vt -0.13577461 -0.00290060
vt -0.13576061 0.00000000
vt 0.13903457 0.00000000
vt -0.13577461 -0.00290060
vt 0.13903457 0.00000000
vt 0.13902056 -0.00290060
f 1/1 2/2 3/3
f 4/4 5/5 6/6
f 7/7 8/8 9/9
f 10/10 11/11 12/12
f 13/13 14/14 15/15
f 16/16 17/17 18/18
f 19/19 20/20 21/21
f 22/22 23/23 24/24
f 25/25 26/26 27/27
f 28/28 29/29 30/30
f 31/31 32/32 33/33
f 34/34 35/35 36/36
f 37/37 38/38 39/39
f 40/40 41/41 42/42
f 43/43 44/44 45/45
f 46/46 47/47 48/48
f 49/49 50/50 51/51
f 52/52 53/53 54/54
f 55/55 56/56 57/57
f 58/58 59/59 60/60
f 61/61 62/62 63/63
f 64/64 65/65 66/66
f 67/67 68/68 69/69
f 70/70 71/71 72/72
f 73/73 74/74 75/75
f 76/76 77/77 78/78
f 79/79 80/80 81/81
f 82/82 83/83 84/84
f 85/85 86/86 87/87
f 88/88 89/89 90/90
f 91/91 92/92 93/93
f 94/94 95/95 96/96
f 97/97 98/98 99/99
f 100/100 101/101 102/102
f 103/103 104/104 105/105
f 106/106 107/107 108/108
f 109/109 110/110 111/111
f 112/112 113/113 114/114
f 115/115 116/116 117/117
f 118/118 119/119 120/120
f 121/121 122/122 123/123
f 124/124 125/125 126/126
f 127/127 128/128 129/129
f 130/130 131/131 132/132
f 133/133 134/134 135/135
f 136/136 137/137 138/138
f 139/139 140/140 141/141
f 142/142 143/143 144/144
f 145/145 146/146 147/147
f 148/148 149/149 150/150
f 151/151 152/152 153/153
f 154/154 155/155 156/156
f 157/157 158/158 159/159
f 160/160 161/161 162/162
f 163/163 164/164 165/165
f 166/166 167/167 168/168
f 169/169 170/170 171/171
f 172/172 173/173 174/174
f 175/175 176/176 177/177
f 178/178 179/179 180/180
f 181/181 182/182 183/183
f 184/184 185/185 186/186
f 187/187 188/188 189/189
f 190/190 191/191 192/192
f 193/193 194/194 195/195
f 196/196 197/197 198/198
f 199/199 200/200 201/201
f 202/202 203/203 204/204
f 205/205 206/206 207/207
f 208/208 209/209 210/210
f 211/211 212/212 213/213
f 214/214 215/215 216/216
f 217/217 218/218 219/219
f 220/220 221/221 222/222
f 223/223 224/224 225/225
f 226/226 227/227 228/228
f 229/229 230/230 231/231
f 232/232 233/233 234/234
f 235/235 236/236 237/237
f 238/238 239/239 240/240
f 241/241 242/242 243/243
f 244/244 245/245 246/246
f 247/247 248/248 249/249
f 250/250 251/251 252/252
f 253/253 254/254 255/255
f 256/256 257/257 258/258
f 259/259 260/260 261/261
f 262/262 263/263 264/264
f 265/265 266/266 267/267
f 268/268 269/269 270/270
f 271/271 272/272 273/273
f 274/274 275/275 276/276
f 277/277 278/278 279/279
f 280/280 281/281 282/282
f 283/283 284/284 285/285
f 286/286 287/287 288/288
f 289/289 290/290 291/291
f 292/292 293/293 294/294
f 295/295 296/296 297/297
f 298/298 299/299 300/300
f 301/301 302/302 303/303
f 304/304 305/305 306/306
f 307/307 308/308 309/309
f 310/310 311/311 312/312
f 313/313 314/314 315/315
f 316/316 317/317 318/318
f 319/319 320/320 321/321
f 322/322 323/323 324/324
f 325/325 326/326 327/327
f 328/328 329/329 330/330
f 331/331 332/332 333/333
f 334/334 335/335 336/336
f 337/337 338/338 339/339
f 340/340 341/341 342/342
f 343/343 344/344 345/345
f 346/346 347/347 348/348
f 349/349 350/350 351/351
f 352/352 353/353 354/354
f 355/355 356/356 357/357
f 358/358 359/359 360/360
f 361/361 362/362 363/363
f 364/364 365/365 366/366
f 367/367 368/368 369/369
f 370/370 371/371 372/372
f 373/373 374/374 375/375
f 376/376 377/377 378/378
f 379/379 380/380 381/381
f 382/382 383/383 384/384
f 385/385 386/386 387/387
f 388/388 389/389 390/390
f 391/391 392/392 393/393
f 394/394 395/395 396/396
f 397/397 398/398 399/399
f 400/400 401/401 402/402
f 403/403 404/404 405/405
f 406/406 407/407 408/408
f 409/409 410/410 411/411
f 412/412 413/413 414/414
f 415/415 416/416 417/417
f 418/418 419/419 420/420
f 421/421 422/422 423/423
f 424/424 425/425 426/426
f 427/427 428/428 429/429
f 430/430 431/431 432/432
f 433/433 434/434 435/435
f 436/436 437/437 438/438
f 439/439 440/440 441/441
f 442/442 443/443 444/444
f 445/445 446/446 447/447
f 448/448 449/449 450/450
f 451/451 452/452 453/453
f 454/454 455/455 456/456
f 457/457 458/458 459/459
f 460/460 461/461 462/462
f 463/463 464/464 465/465
f 466/466 467/467 468/468
f 469/469 470/470 471/471
f 472/472 473/473 474/474
f 475/475 476/476 477/477
f 478/478 479/479 480/480
f 481/481 482/482 483/483
f 484/484 485/485 486/486
f 487/487 488/488 489/489
f 490/490 491/491 492/492
f 493/493 494/494 495/495
f 496/496 497/497 498/498
f 499/499 500/500 501/501
f 502/502 503/503 504/504
f 505/505 506/506 507/507
f 508/508 509/509 510/510
f 511/511 512/512 513/513
f 514/514 515/515 516/516
f 517/517 518/518 519/519
f 520/520 521/521 522/522
f 523/523 524/524 525/525
f 526/526 527/527 528/528
f 529/529 530/530 531/531
f 532/532 533/533 534/534
f 535/535 536/536 537/537
f 538/538 539/539 540/540
f 541/541 542/542 543/543
f 544/544 545/545 546/546
f 547/547 548/548 549/549
f 550/550 551/551 552/552
f 553/553 554/554 555/555
f 556/556 557/557 558/558
f 559/559 560/560 561/561
f 562/562 563/563 564/564

