# https://github.com/mikedh/trimesh
mtllib material.mtl
usemtl BrushedStainless
v 3.99349689 1.48246217 -0.50700617
v 3.99154687 1.48474181 -0.50696748
v 4.23847914 1.69601679 -0.51049119
v 3.99349689 1.48246217 -0.50700617
v 4.23847914 1.69601679 -0.51049119
v 4.24042892 1.69373727 -0.51052982
v 4.24341965 1.69324315 -0.33055535
v 4.24146986 1.69552279 -0.33051670
v 3.99453783 1.48424768 -0.32699302
v 4.24341965 1.69324315 -0.33055535
v 3.99453783 1.48424768 -0.32699302
v 3.99648786 1.48196816 -0.32703167
v 4.24042892 1.69373727 -0.51052982
v 4.23847914 1.69601679 -0.51049119
v 4.24146986 1.69552279 -0.33051670
v 4.24042892 1.69373727 -0.51052982
v 4.24146986 1.69552279 -0.33051670
v 4.24341965 1.69324315 -0.33055535
v 4.23847914 1.69601679 -0.51049119
v 3.99154687 1.48474181 -0.50696748
v 3.99453783 1.48424768 -0.32699302
v 4.23847914 1.69601679 -0.51049119
v 3.99453783 1.48424768 -0.32699302
v 4.24146986 1.69552279 -0.33051670
v 3.99154687 1.48474181 -0.50696748
v 3.99349689 1.48246217 -0.50700617
v 3.99648786 1.48196816 -0.32703167
v 3.99154687 1.48474181 -0.50696748
v 3.99648786 1.48196816 -0.32703167
v 3.99453783 1.48424768 -0.32699302
v 3.99349689 1.48246217 -0.50700617
v 4.24042892 1.69373727 -0.51052982
v 4.24341965 1.69324315 -0.33055535
v 3.99349689 1.48246217 -0.50700617
v 4.24341965 1.69324315 -0.33055535
v 3.99648786 1.48196816 -0.32703167
vt -0.00333333 0.36111110
vt 0.00333333 0.36111110
vt 0.00333333 -0.36111116
vt -0.00333333 0.36111110
vt 0.00333333 -0.36111116
vt -0.00333333 -0.36111116
vt -0.00333333 -0.36111116
vt 0.00333333 -0.36111116
vt 0.00333333 0.36111110
vt -0.00333333 -0.36111116
vt 0.00333333 0.36111110
vt -0.00333333 0.36111110
vt -0.00333333 -0.20000005
vt 0.00333333 -0.20000005
vt 0.00333333 0.19999999
vt -0.00333333 -0.20000005
vt 0.00333333 0.19999999
vt -0.00333333 0.19999999
vt -0.36111110 -0.20000005
vt 0.36111110 -0.20000005
vt 0.36111110 0.19999999
vt -0.36111110 -0.20000005
vt 0.36111110 0.19999999
vt -0.36111110 0.19999999
vt 0.00333333 -0.20000005
vt -0.00333333 -0.20000005
vt -0.00333333 0.19999999
vt 0.00333333 -0.20000005
vt -0.00333333 0.19999999
vt 0.00333333 0.19999999
vt 0.36111110 -0.20000005
vt -0.36111110 -0.20000005
vt -0.36111110 0.19999999
vt 0.36111110 -0.20000005
vt -0.36111110 0.19999999
vt 0.36111110 0.19999999
f 1/1 2/2 3/3
f 4/4 5/5 6/6
f 7/7 8/8 9/9
f 10/10 11/11 12/12
f 13/13 14/14 15/15
f 16/16 17/17 18/18
f 19/19 20/20 21/21
f 22/22 23/23 24/24
f 25/25 26/26 27/27
f 28/28 29/29 30/30
f 31/31 32/32 33/33
f 34/34 35/35 36/36

