# https://github.com/mikedh/trimesh
mtllib material.mtl
usemtl PaleWood
v 5.56708336 3.97745585 -0.03241386
v 5.57882547 3.96381330 -0.03241386
v 5.35331106 3.76970649 -0.03358401
v 5.56708336 3.97745585 -0.03241386
v 5.35331106 3.76970649 -0.03358401
v 5.34156847 3.78334904 -0.03358401
v 5.33875036 3.78092337 0.91193777
v 5.35049295 3.76728082 0.91193777
v 5.57600737 3.96138763 0.91310793
v 5.33875036 3.78092337 0.91193777
v 5.57600737 3.96138763 0.91310793
v 5.56426477 3.97502995 0.91310793
v 5.34156847 3.78334904 -0.03358401
v 5.35331106 3.76970649 -0.03358401
v 5.35049295 3.76728082 0.91193777
v 5.34156847 3.78334904 -0.03358401
v 5.35049295 3.76728082 0.91193777
v 5.33875036 3.78092337 0.91193777
v 5.35331106 3.76970649 -0.03358401
v 5.57882547 3.96381330 -0.03241386
v 5.57600737 3.96138763 0.91310793
v 5.35331106 3.76970649 -0.03358401
v 5.57600737 3.96138763 0.91310793
v 5.35049295 3.76728082 0.91193777
v 5.57882547 3.96381330 -0.03241386
v 5.56708336 3.97745585 -0.03241386
v 5.56426477 3.97502995 0.91310793
v 5.57882547 3.96381330 -0.03241386
v 5.56426477 3.97502995 0.91310793
v 5.57600737 3.96138763 0.91310793
v 5.56708336 3.97745585 -0.03241386
v 5.34156847 3.78334904 -0.03358401
v 5.33875036 3.78092337 0.91193777
v 5.56708336 3.97745585 -0.03241386
v 5.33875036 3.78092337 0.91193777
v 5.56426477 3.97502995 0.91310793
vt -0.02000000 0.33061033
vt 0.02000000 0.33061033
vt 0.02000000 -0.33061028
vt -0.02000000 0.33061033
vt 0.02000000 -0.33061028
vt -0.02000000 -0.33061028
vt -0.02000000 -0.33061028
vt 0.02000000 -0.33061028
vt 0.02000000 0.33061033
vt -0.02000000 -0.33061028
vt 0.02000000 0.33061033
vt -0.02000000 0.33061033
vt -0.02000000 -1.05058789
vt 0.02000000 -1.05058789
vt 0.02000000 1.05058789
vt -0.02000000 -1.05058789
vt 0.02000000 1.05058789
vt -0.02000000 1.05058789
vt -0.33061033 -1.05058789
vt 0.33061033 -1.05058789
vt 0.33061033 1.05058789
vt -0.33061033 -1.05058789
vt 0.33061033 1.05058789
vt -0.33061033 1.05058789
vt 0.02000000 -1.05058789
vt -0.02000000 -1.05058789
vt -0.02000000 1.05058789
vt 0.02000000 -1.05058789
vt -0.02000000 1.05058789
vt 0.02000000 1.05058789
vt 0.33061033 -1.05058789
vt -0.33061033 -1.05058789
vt -0.33061033 1.05058789
vt 0.33061033 -1.05058789
vt -0.33061033 1.05058789
vt 0.33061033 1.05058789
f 1/1 2/2 3/3
f 4/4 5/5 6/6
f 7/7 8/8 9/9
f 10/10 11/11 12/12
f 13/13 14/14 15/15
f 16/16 17/17 18/18
f 19/19 20/20 21/21
f 22/22 23/23 24/24
f 25/25 26/26 27/27
f 28/28 29/29 30/30
f 31/31 32/32 33/33
f 34/34 35/35 36/36

