# https://github.com/mikedh/trimesh
mtllib material.mtl
usemtl PaleWood
v 3.74740291 4.02021551 -0.00850016
v 4.02876520 4.26417303 -0.00850016
v 4.04055691 4.25057364 -0.00863071
v 3.74740291 4.02021551 -0.00850016
v 4.04055691 4.25057364 -0.00863071
v 3.75919437 4.00661612 -0.00863071
v 3.76344085 4.00171852 0.88503581
v 4.04480314 4.24567604 0.88503581
v 4.03301191 4.25927544 0.88516641
v 3.76344085 4.00171852 0.88503581
v 4.03301191 4.25927544 0.88516641
v 3.75164938 4.01531792 0.88516641
v 3.75919437 4.00661612 -0.00863071
v 4.04055691 4.25057364 -0.00863071
v 4.04480314 4.24567604 0.88503581
v 3.75919437 4.00661612 -0.00863071
v 4.04480314 4.24567604 0.88503581
v 3.76344085 4.00171852 0.88503581
v 4.04055691 4.25057364 -0.00863071
v 4.02876520 4.26417303 -0.00850016
v 4.03301191 4.25927544 0.88516641
v 4.04055691 4.25057364 -0.00863071
v 4.03301191 4.25927544 0.88516641
v 4.04480314 4.24567604 0.88503581
v 4.02876520 4.26417303 -0.00850016
v 3.74740291 4.02021551 -0.00850016
v 3.75164938 4.01531792 0.88516641
v 4.02876520 4.26417303 -0.00850016
v 3.75164938 4.01531792 0.88516641
v 4.03301191 4.25927544 0.88516641
v 3.74740291 4.02021551 -0.00850016
v 3.75919437 4.00661612 -0.00863071
v 3.76344085 4.00171852 0.88503581
v 3.74740291 4.02021551 -0.00850016
v 3.76344085 4.00171852 0.88503581
v 3.75164938 4.01531792 0.88516641
vt -0.41377541 0.01999998
vt 0.41377541 0.01999998
vt 0.41377541 -0.01999998
vt -0.41377541 0.01999998
vt 0.41377541 -0.01999998
vt -0.41377541 -0.01999998
vt -0.41377541 -0.01999998
vt 0.41377541 -0.01999998
vt 0.41377541 0.01999998
vt -0.41377541 -0.01999998
vt 0.41377541 0.01999998
vt -0.41377541 0.01999998
vt -0.41377541 -0.99298894
vt 0.41377541 -0.99298894
vt 0.41377541 0.99298894
vt -0.41377541 -0.99298894
vt 0.41377541 0.99298894
vt -0.41377541 0.99298894
vt -0.02000000 -0.99298894
vt 0.02000000 -0.99298894
vt 0.02000000 0.99298894
vt -0.02000000 -0.99298894
vt 0.02000000 0.99298894
vt -0.02000000 0.99298894
vt 0.41377541 -0.99298894
vt -0.41377541 -0.99298894
vt -0.41377541 0.99298894
vt 0.41377541 -0.99298894
vt -0.41377541 0.99298894
vt 0.41377541 0.99298894
vt 0.02000000 -0.99298894
vt -0.02000000 -0.99298894
vt -0.02000000 0.99298894
vt 0.02000000 -0.99298894
vt -0.02000000 0.99298894
vt 0.02000000 0.99298894
f 1/1 2/2 3/3
f 4/4 5/5 6/6
f 7/7 8/8 9/9
f 10/10 11/11 12/12
f 13/13 14/14 15/15
f 16/16 17/17 18/18
f 19/19 20/20 21/21
f 22/22 23/23 24/24
f 25/25 26/26 27/27
f 28/28 29/29 30/30
f 31/31 32/32 33/33
f 34/34 35/35 36/36

