# https://github.com/mikedh/trimesh
mtllib material.mtl
usemtl EgoPhoto_red_white_gable_carton_PrintedTop
v 0.023092176 0.028520892 0.03195326
v 0.051346776 -0.0370908 0.03197365
v -0.007318212 -0.06235335 0.03603433
v 0.023092176 0.028520892 0.03195326
v -0.007318212 -0.06235335 0.03603433
v -0.035572812 0.003258348 0.03601395
vt 0.00000000 1.00000000
vt 1.00000000 1.00000000
vt 1.00000000 0.00000000
vt 0.00000000 1.00000000
vt 1.00000000 0.00000000
vt 0.00000000 0.00000000
f 1/1 2/2 3/3
f 4/4 5/5 6/6

