# https://github.com/mikedh/trimesh
mtllib material.mtl
usemtl WarmWhitePaint
v -1.01607573 0.45609194 -1.19888008
v 4.53263950 5.20735216 -1.23520327
v 4.58468342 5.14657831 -1.23631895
v -1.01607573 0.45609194 -1.19888008
v 4.58468342 5.14657831 -1.23631895
v -0.96403158 0.39531800 -1.19999576
v -0.98135215 0.41554385 1.83014357
v 4.56715536 5.16704655 1.83014357
v 4.51512146 5.22780848 1.82944059
v -0.98135215 0.41554385 1.83014357
v 4.51512146 5.22780848 1.82944059
v -1.03338587 0.47630560 1.82944059
v -0.96403158 0.39531800 -1.19999576
v 4.58468342 5.14657831 -1.23631895
v 4.56715536 5.16704655 1.83014357
v -0.96403158 0.39531800 -1.19999576
v 4.56715536 5.16704655 1.83014357
v -0.98135215 0.41554385 1.83014357
v 4.58468342 5.14657831 -1.23631895
v 4.53263950 5.20735216 -1.23520327
v 4.51512146 5.22780848 1.82944059
v 4.58468342 5.14657831 -1.23631895
v 4.51512146 5.22780848 1.82944059
v 4.56715536 5.16704655 1.83014357
v 4.53263950 5.20735216 -1.23520327
v -1.01607573 0.45609194 -1.19888008
v -1.03338587 0.47630560 1.82944059
v 4.53263950 5.20735216 -1.23520327
v -1.03338587 0.47630560 1.82944059
v 4.51512146 5.22780848 1.82944059
v -1.01607573 0.45609194 -1.19888008
v -0.96403158 0.39531800 -1.19999576
v -0.98135215 0.41554385 1.83014357
v -1.01607573 0.45609194 -1.19888008
v -0.98135215 0.41554385 1.83014357
v -1.03338587 0.47630560 1.82944059
vt -8.11664295 0.08888888
vt 8.11664295 0.08888888
vt 8.11664295 -0.08888888
vt -8.11664295 0.08888888
vt 8.11664295 -0.08888888
vt -8.11664295 -0.08888888
vt -8.11664295 -0.08888888
vt 8.11664295 -0.08888888
vt 8.11664295 0.08888888
vt -8.11664295 -0.08888888
vt 8.11664295 0.08888888
vt -8.11664295 0.08888888
vt -8.11664295 -3.40268898
vt 8.11664295 -3.48340988
vt 8.11664295 3.33121443
vt -8.11664295 -3.40268898
vt 8.11664295 3.33121443
vt -8.11664295 3.33121443
vt -0.08888888 -3.48340988
vt 0.08888888 -3.47936821
vt 0.08888888 3.33121443
vt -0.08888888 -3.48340988
vt 0.08888888 3.33121443
vt -0.08888888 3.33121443
vt 8.11664295 -3.47936821
vt -8.11664295 -3.39864731
vt -8.11664295 3.33121443
vt 8.11664295 -3.47936821
vt -8.11664295 3.33121443
vt 8.11664295 3.33121443
vt 0.08888888 -3.39864731
vt -0.08888888 -3.40268898
vt -0.08888888 3.33121443
vt 0.08888888 -3.39864731
vt -0.08888888 3.33121443
vt 0.08888888 3.33121443
f 1/1 2/2 3/3
f 4/4 5/5 6/6
f 7/7 8/8 9/9
f 10/10 11/11 12/12
f 13/13 14/14 15/15
f 16/16 17/17 18/18
f 19/19 20/20 21/21
f 22/22 23/23 24/24
f 25/25 26/26 27/27
f 28/28 29/29 30/30
f 31/31 32/32 33/33
f 34/34 35/35 36/36

