# https://github.com/mikedh/trimesh
mtllib material.mtl
usemtl DarkRecess
v 0.61292332 1.67266834 -0.22038832
v 0.61440611 1.67401040 -0.22040924
v 0.63185215 1.65474606 -0.21968779
v 0.61292332 1.67266834 -0.22038832
v 0.63185215 1.65474606 -0.21968779
v 0.63036942 1.65340400 -0.21966687
v 0.63033682 1.65348673 -0.21666819
v 0.63181955 1.65482879 -0.21668911
v 0.61437351 1.67409313 -0.21741056
v 0.63033682 1.65348673 -0.21666819
v 0.61437351 1.67409313 -0.21741056
v 0.61289072 1.67275107 -0.21738964
v 0.63036942 1.65340400 -0.21966687
v 0.63185215 1.65474606 -0.21968779
v 0.63181955 1.65482879 -0.21668911
v 0.63036942 1.65340400 -0.21966687
v 0.63181955 1.65482879 -0.21668911
v 0.63033682 1.65348673 -0.21666819
v 0.63185215 1.65474606 -0.21968779
v 0.61440611 1.67401040 -0.22040924
v 0.61437351 1.67409313 -0.21741056
v 0.63185215 1.65474606 -0.21968779
v 0.61437351 1.67409313 -0.21741056
v 0.63181955 1.65482879 -0.21668911
v 0.61440611 1.67401040 -0.22040924
v 0.61292332 1.67266834 -0.22038832
v 0.61289072 1.67275107 -0.21738964
v 0.61440611 1.67401040 -0.22040924
v 0.61289072 1.67275107 -0.21738964
v 0.61437351 1.67409313 -0.21741056
v 0.61292332 1.67266834 -0.22038832
v 0.63036942 1.65340400 -0.21966687
v 0.63033682 1.65348673 -0.21666819
v 0.61292332 1.67266834 -0.22038832
v 0.63033682 1.65348673 -0.21666819
v 0.61289072 1.67275107 -0.21738964
vt 0.00000000 0.00000000
vt 0.00000000 0.00000000
vt 0.00000000 0.00000000
vt 0.00000000 0.00000000
vt 0.00000000 0.00000000
vt 0.00000000 0.00000000
vt 0.00000000 0.00000000
vt 0.00000000 0.00000000
vt 0.00000000 0.00000000
vt 0.00000000 0.00000000
vt 0.00000000 0.00000000
vt 0.00000000 0.00000000
vt 0.00000000 0.00000000
vt 0.00000000 0.00000000
vt 0.00000000 0.00000000
vt 0.00000000 0.00000000
vt 0.00000000 0.00000000
vt 0.00000000 0.00000000
vt 0.00000000 0.00000000
vt 0.00000000 0.00000000
vt 0.00000000 0.00000000
vt 0.00000000 0.00000000
vt 0.00000000 0.00000000
vt 0.00000000 0.00000000
vt 0.00000000 0.00000000
vt 0.00000000 0.00000000
vt 0.00000000 0.00000000
vt 0.00000000 0.00000000
vt 0.00000000 0.00000000
vt 0.00000000 0.00000000
vt 0.00000000 0.00000000
vt 0.00000000 0.00000000
vt 0.00000000 0.00000000
vt 0.00000000 0.00000000
vt 0.00000000 0.00000000
vt 0.00000000 0.00000000
f 1/1 2/2 3/3
f 4/4 5/5 6/6
f 7/7 8/8 9/9
f 10/10 11/11 12/12
f 13/13 14/14 15/15
f 16/16 17/17 18/18
f 19/19 20/20 21/21
f 22/22 23/23 24/24
f 25/25 26/26 27/27
f 28/28 29/29 30/30
f 31/31 32/32 33/33
f 34/34 35/35 36/36

