# https://github.com/mikedh/trimesh
mtllib material.mtl
usemtl DarkPlastic
v 1.65334034 2.43295383 -1.14893734
v 1.66658556 2.44514251 -1.14893734
v 2.07286024 2.00365758 -1.15447044
v 1.65334034 2.43295383 -1.14893734
v 2.07286024 2.00365758 -1.15447044
v 2.05961514 1.99146879 -1.15447044
v 2.06278706 1.98802185 -0.64651829
v 2.07603240 2.00021052 -0.64651829
v 1.66975760 2.44169545 -0.64098519
v 2.06278706 1.98802185 -0.64651829
v 1.66975760 2.44169545 -0.64098519
v 1.65651250 2.42950678 -0.64098519
v 2.05961514 1.99146879 -1.15447044
v 2.07286024 2.00365758 -1.15447044
v 2.07603240 2.00021052 -0.64651829
v 2.05961514 1.99146879 -1.15447044
v 2.07603240 2.00021052 -0.64651829
v 2.06278706 1.98802185 -0.64651829
v 2.07286024 2.00365758 -1.15447044
v 1.66658556 2.44514251 -1.14893734
v 1.66975760 2.44169545 -0.64098519
v 2.07286024 2.00365758 -1.15447044
v 1.66975760 2.44169545 -0.64098519
v 2.07603240 2.00021052 -0.64651829
v 1.66658556 2.44514251 -1.14893734
v 1.65334034 2.43295383 -1.14893734
v 1.65651250 2.42950678 -0.64098519
v 1.66658556 2.44514251 -1.14893734
v 1.65651250 2.42950678 -0.64098519
v 1.66975760 2.44169545 -0.64098519
v 1.65334034 2.43295383 -1.14893734
v 2.05961514 1.99146879 -1.15447044
v 2.06278706 1.98802185 -0.64651829
v 1.65334034 2.43295383 -1.14893734
v 2.06278706 1.98802185 -0.64651829
v 1.65651250 2.42950678 -0.64098519
vt -0.02000000 0.66666543
vt 0.02000000 0.66666543
vt 0.02000000 -0.66666543
vt -0.02000000 0.66666543
vt 0.02000000 -0.66666543
vt -0.02000000 -0.66666543
vt -0.02000000 -0.66666543
vt 0.02000000 -0.66666543
vt 0.02000000 0.66666543
vt -0.02000000 -0.66666543
vt 0.02000000 0.66666543
vt -0.02000000 0.66666543
vt -0.02000000 -0.56441534
vt 0.02000000 -0.56441534
vt 0.02000000 0.56441534
vt -0.02000000 -0.56441534
vt 0.02000000 0.56441534
vt -0.02000000 0.56441534
vt -0.66666543 -0.56441534
vt 0.66666543 -0.56441534
vt 0.66666543 0.56441534
vt -0.66666543 -0.56441534
vt 0.66666543 0.56441534
vt -0.66666543 0.56441534
vt 0.02000000 -0.56441534
vt -0.02000000 -0.56441534
vt -0.02000000 0.56441534
vt 0.02000000 -0.56441534
vt -0.02000000 0.56441534
vt 0.02000000 0.56441534
vt 0.66666543 -0.56441534
vt -0.66666543 -0.56441534
vt -0.66666543 0.56441534
vt 0.66666543 -0.56441534
vt -0.66666543 0.56441534
vt 0.66666543 0.56441534
f 1/1 2/2 3/3
f 4/4 5/5 6/6
f 7/7 8/8 9/9
f 10/10 11/11 12/12
f 13/13 14/14 15/15
f 16/16 17/17 18/18
f 19/19 20/20 21/21
f 22/22 23/23 24/24
f 25/25 26/26 27/27
f 28/28 29/29 30/30
f 31/31 32/32 33/33
f 34/34 35/35 36/36

