# https://github.com/mikedh/trimesh
mtllib material.mtl
usemtl BrushedSteel
v 1.59986246 2.45562387 0.59776521
v 2.30177855 3.10155940 0.59776521
v 2.74461818 2.62034082 0.59173417
v 1.59986246 2.45562387 0.59776521
v 2.74461818 2.62034082 0.59173417
v 2.04270196 1.97440529 0.59173417
v 2.04281425 1.97428310 0.60973340
v 2.74473047 2.62021852 0.60973340
v 2.30189109 3.10143733 0.61576444
v 2.04281425 1.97428310 0.60973340
v 2.30189109 3.10143733 0.61576444
v 1.59997487 2.45550179 0.61576444
v 2.04270196 1.97440529 0.59173417
v 2.74461818 2.62034082 0.59173417
v 2.74473047 2.62021852 0.60973340
v 2.04270196 1.97440529 0.59173417
v 2.74473047 2.62021852 0.60973340
v 2.04281425 1.97428310 0.60973340
v 2.74461818 2.62034082 0.59173417
v 2.30177855 3.10155940 0.59776521
v 2.30189109 3.10143733 0.61576444
v 2.74461818 2.62034082 0.59173417
v 2.30189109 3.10143733 0.61576444
v 2.74473047 2.62021852 0.60973340
v 2.30177855 3.10155940 0.59776521
v 1.59986246 2.45562387 0.59776521
v 1.59997487 2.45550179 0.61576444
v 2.30177855 3.10155940 0.59776521
v 1.59997487 2.45550179 0.61576444
v 2.30189109 3.10143733 0.61576444
v 1.59986246 2.45562387 0.59776521
v 2.04270196 1.97440529 0.59173417
v 2.04281425 1.97428310 0.60973340
v 1.59986246 2.45562387 0.59776521
v 2.04281425 1.97428310 0.60973340
v 1.59997487 2.45550179 0.61576444
vt -1.05988526 0.72666544
vt 1.05988526 0.72666544
vt 1.05988526 -0.72666550
vt -1.05988526 0.72666544
vt 1.05988526 -0.72666550
vt -1.05988526 -0.72666550
vt -1.05988526 -0.72666550
vt 1.05988526 -0.72666550
vt 1.05988526 0.72666544
vt -1.05988526 -0.72666550
vt 1.05988526 0.72666544
vt -1.05988526 0.72666544
vt -1.05988526 -0.01999998
vt 1.05988526 -0.01999998
vt 1.05988526 0.01999998
vt -1.05988526 -0.01999998
vt 1.05988526 0.01999998
vt -1.05988526 0.01999998
vt -0.72666544 -0.01999998
vt 0.72666544 -0.01999998
vt 0.72666544 0.01999998
vt -0.72666544 -0.01999998
vt 0.72666544 0.01999998
vt -0.72666544 0.01999998
vt 1.05988526 -0.01999998
vt -1.05988526 -0.01999998
vt -1.05988526 0.01999998
vt 1.05988526 -0.01999998
vt -1.05988526 0.01999998
vt 1.05988526 0.01999998
vt 0.72666544 -0.01999998
vt -0.72666544 -0.01999998
vt -0.72666544 0.01999998
vt 0.72666544 -0.01999998
vt -0.72666544 0.01999998
vt 0.72666544 0.01999998
f 1/1 2/2 3/3
f 4/4 5/5 6/6
f 7/7 8/8 9/9
f 10/10 11/11 12/12
f 13/13 14/14 15/15
f 16/16 17/17 18/18
f 19/19 20/20 21/21
f 22/22 23/23 24/24
f 25/25 26/26 27/27
f 28/28 29/29 30/30
f 31/31 32/32 33/33
f 34/34 35/35 36/36

