# https://github.com/mikedh/trimesh
mtllib material.mtl
usemtl DarkPlastic
v 6.72356224 2.57335877 -1.14682448
v 6.73533154 2.55973959 -1.14682448
v 6.34405565 2.22161102 -1.15603888
v 6.72356224 2.57335877 -1.14682448
v 6.34405565 2.22161102 -1.15603888
v 6.33228636 2.23523021 -1.15603888
v 6.33072424 2.23388004 -1.04014146
v 6.34249353 2.22026086 -1.04014146
v 6.73376894 2.55838919 -1.03092706
v 6.33072424 2.23388004 -1.04014146
v 6.73376894 2.55838919 -1.03092706
v 6.72199965 2.57200861 -1.03092706
v 6.33228636 2.23523021 -1.15603888
v 6.34405565 2.22161102 -1.15603888
v 6.34249353 2.22026086 -1.04014146
v 6.33228636 2.23523021 -1.15603888
v 6.34249353 2.22026086 -1.04014146
v 6.33072424 2.23388004 -1.04014146
v 6.34405565 2.22161102 -1.15603888
v 6.73533154 2.55973959 -1.14682448
v 6.73376894 2.55838919 -1.03092706
v 6.34405565 2.22161102 -1.15603888
v 6.73376894 2.55838919 -1.03092706
v 6.34249353 2.22026086 -1.04014146
v 6.73533154 2.55973959 -1.14682448
v 6.72356224 2.57335877 -1.14682448
v 6.72199965 2.57200861 -1.03092706
v 6.73533154 2.55973959 -1.14682448
v 6.72199965 2.57200861 -1.03092706
v 6.73376894 2.55838919 -1.03092706
v 6.72356224 2.57335877 -1.14682448
v 6.33228636 2.23523021 -1.15603888
v 6.33072424 2.23388004 -1.04014146
v 6.72356224 2.57335877 -1.14682448
v 6.33072424 2.23388004 -1.04014146
v 6.72199965 2.57200861 -1.03092706
vt -0.02000000 0.57468438
vt 0.02000000 0.57468438
vt 0.02000000 -0.57468438
vt -0.02000000 0.57468438
vt 0.02000000 -0.57468438
vt -0.02000000 -0.57468438
vt -0.02000000 -0.57468438
vt 0.02000000 -0.57468438
vt 0.02000000 0.57468438
vt -0.02000000 -0.57468438
vt 0.02000000 0.57468438
vt -0.02000000 0.57468438
vt -0.02000000 -0.12879539
vt 0.02000000 -0.12879539
vt 0.02000000 0.12879533
vt -0.02000000 -0.12879539
vt 0.02000000 0.12879533
vt -0.02000000 0.12879533
vt -0.57468438 -0.12879539
vt 0.57468438 -0.12879539
vt 0.57468438 0.12879533
vt -0.57468438 -0.12879539
vt 0.57468438 0.12879533
vt -0.57468438 0.12879533
vt 0.02000000 -0.12879539
vt -0.02000000 -0.12879539
vt -0.02000000 0.12879533
vt 0.02000000 -0.12879539
vt -0.02000000 0.12879533
vt 0.02000000 0.12879533
vt 0.57468438 -0.12879539
vt -0.57468438 -0.12879539
vt -0.57468438 0.12879533
vt 0.57468438 -0.12879539
vt -0.57468438 0.12879533
vt 0.57468438 0.12879533
f 1/1 2/2 3/3
f 4/4 5/5 6/6
f 7/7 8/8 9/9
f 10/10 11/11 12/12
f 13/13 14/14 15/15
f 16/16 17/17 18/18
f 19/19 20/20 21/21
f 22/22 23/23 24/24
f 25/25 26/26 27/27
f 28/28 29/29 30/30
f 31/31 32/32 33/33
f 34/34 35/35 36/36

