# https://github.com/mikedh/trimesh
mtllib material.mtl
usemtl BrushedStainless
v 3.06415629 3.20639992 -0.78079951
v 3.06868219 3.21033907 -0.78079951
v 3.06999516 3.20883060 -0.78083110
v 3.06415629 3.20639992 -0.78079951
v 3.06999516 3.20883060 -0.78083110
v 3.06546926 3.20489144 -0.78083110
v 3.06553149 3.20481992 -0.77483183
v 3.07005739 3.20875907 -0.77483183
v 3.06874442 3.21026754 -0.77480024
v 3.06553149 3.20481992 -0.77483183
v 3.06874442 3.21026754 -0.77480024
v 3.06421852 3.20632839 -0.77480024
v 3.06546926 3.20489144 -0.78083110
v 3.06999516 3.20883060 -0.78083110
v 3.07005739 3.20875907 -0.77483183
v 3.06546926 3.20489144 -0.78083110
v 3.07005739 3.20875907 -0.77483183
v 3.06553149 3.20481992 -0.77483183
v 3.06999516 3.20883060 -0.78083110
v 3.06868219 3.21033907 -0.78079951
v 3.06874442 3.21026754 -0.77480024
v 3.06999516 3.20883060 -0.78083110
v 3.06874442 3.21026754 -0.77480024
v 3.07005739 3.20875907 -0.77483183
v 3.06868219 3.21033907 -0.78079951
v 3.06415629 3.20639992 -0.78079951
v 3.06421852 3.20632839 -0.77480024
v 3.06868219 3.21033907 -0.78079951
v 3.06421852 3.20632839 -0.77480024
v 3.06874442 3.21026754 -0.77480024
v 3.06415629 3.20639992 -0.78079951
v 3.06546926 3.20489144 -0.78083110
v 3.06553149 3.20481992 -0.77483183
v 3.06415629 3.20639992 -0.78079951
v 3.06553149 3.20481992 -0.77483183
v 3.06421852 3.20632839 -0.77480024
vt 0.00000000 0.00000000
vt 0.00000000 0.00000000
vt 0.00000000 0.00000000
vt 0.00000000 0.00000000
vt 0.00000000 0.00000000
vt 0.00000000 0.00000000
vt 0.00000000 0.00000000
vt 0.00000000 0.00000000
vt 0.00000000 0.00000000
vt 0.00000000 0.00000000
vt 0.00000000 0.00000000
vt 0.00000000 0.00000000
vt 0.00000000 0.00000000
vt 0.00000000 0.00000000
vt 0.00000000 0.00000000
vt 0.00000000 0.00000000
vt 0.00000000 0.00000000
vt 0.00000000 0.00000000
vt 0.00000000 0.00000000
vt 0.00000000 0.00000000
vt 0.00000000 0.00000000
vt 0.00000000 0.00000000
vt 0.00000000 0.00000000
vt 0.00000000 0.00000000
vt 0.00000000 0.00000000
vt 0.00000000 0.00000000
vt 0.00000000 0.00000000
vt 0.00000000 0.00000000
vt 0.00000000 0.00000000
vt 0.00000000 0.00000000
vt 0.00000000 0.00000000
vt 0.00000000 0.00000000
vt 0.00000000 0.00000000
vt 0.00000000 0.00000000
vt 0.00000000 0.00000000
vt 0.00000000 0.00000000
f 1/1 2/2 3/3
f 4/4 5/5 6/6
f 7/7 8/8 9/9
f 10/10 11/11 12/12
f 13/13 14/14 15/15
f 16/16 17/17 18/18
f 19/19 20/20 21/21
f 22/22 23/23 24/24
f 25/25 26/26 27/27
f 28/28 29/29 30/30
f 31/31 32/32 33/33
f 34/34 35/35 36/36

