# https://github.com/mikedh/trimesh
mtllib material.mtl
usemtl PaleWood
v 4.06576347 4.79180145 -1.11184132
v 4.07934093 4.80361938 -1.11184132
v 4.43382072 4.39634609 -1.12036693
v 4.06576347 4.79180145 -1.11184132
v 4.43382072 4.39634609 -1.12036693
v 4.42024326 4.38452864 -1.12036693
v 4.42786360 4.37577343 -0.38529289
v 4.44144106 4.38759089 -0.38529289
v 4.08696127 4.79486418 -0.37676728
v 4.42786360 4.37577343 -0.38529289
v 4.08696127 4.79486418 -0.37676728
v 4.07338381 4.78304672 -0.37676728
v 4.42024326 4.38452864 -1.12036693
v 4.43382072 4.39634609 -1.12036693
v 4.44144106 4.38759089 -0.38529289
v 4.42024326 4.38452864 -1.12036693
v 4.44144106 4.38759089 -0.38529289
v 4.42786360 4.37577343 -0.38529289
v 4.43382072 4.39634609 -1.12036693
v 4.07934093 4.80361938 -1.11184132
v 4.08696127 4.79486418 -0.37676728
v 4.43382072 4.39634609 -1.12036693
v 4.08696127 4.79486418 -0.37676728
v 4.44144106 4.38759089 -0.38529289
v 4.07934093 4.80361938 -1.11184132
v 4.06576347 4.79180145 -1.11184132
v 4.07338381 4.78304672 -0.37676728
v 4.07934093 4.80361938 -1.11184132
v 4.07338381 4.78304672 -0.37676728
v 4.08696127 4.79486418 -0.37676728
v 4.06576347 4.79180145 -1.11184132
v 4.42024326 4.38452864 -1.12036693
v 4.42786360 4.37577343 -0.38529289
v 4.06576347 4.79180145 -1.11184132
v 4.42786360 4.37577343 -0.38529289
v 4.07338381 4.78304672 -0.37676728
vt -0.02000000 0.60000002
vt 0.02000000 0.60000002
vt 0.02000000 -0.60000002
vt -0.02000000 0.60000002
vt 0.02000000 -0.60000002
vt -0.02000000 -0.60000002
vt -0.02000000 -0.60000002
vt 0.02000000 -0.60000002
vt 0.02000000 0.60000002
vt -0.02000000 -0.60000002
vt 0.02000000 0.60000002
vt -0.02000000 0.60000002
vt -0.02000000 -0.81685078
vt 0.02000000 -0.81685078
vt 0.02000000 0.81685078
vt -0.02000000 -0.81685078
vt 0.02000000 0.81685078
vt -0.02000000 0.81685078
vt -0.60000002 -0.81685078
vt 0.60000002 -0.81685078
vt 0.60000002 0.81685078
vt -0.60000002 -0.81685078
vt 0.60000002 0.81685078
vt -0.60000002 0.81685078
vt 0.02000000 -0.81685078
vt -0.02000000 -0.81685078
vt -0.02000000 0.81685078
vt 0.02000000 -0.81685078
vt -0.02000000 0.81685078
vt 0.02000000 0.81685078
vt 0.60000002 -0.81685078
vt -0.60000002 -0.81685078
vt -0.60000002 0.81685078
vt 0.60000002 -0.81685078
vt -0.60000002 0.81685078
vt 0.60000002 0.81685078
f 1/1 2/2 3/3
f 4/4 5/5 6/6
f 7/7 8/8 9/9
f 10/10 11/11 12/12
f 13/13 14/14 15/15
f 16/16 17/17 18/18
f 19/19 20/20 21/21
f 22/22 23/23 24/24
f 25/25 26/26 27/27
f 28/28 29/29 30/30
f 31/31 32/32 33/33
f 34/34 35/35 36/36

