# https://github.com/mikedh/trimesh
mtllib material.mtl
usemtl DarkPlastic
v 1.23002553 2.21950364 -1.05876553
v 1.54950047 2.49756598 -1.05876553
v 1.56131637 2.48399019 -1.05904973
v 1.23002553 2.21950364 -1.05876553
v 1.56131637 2.48399019 -1.05904973
v 1.24184144 2.20592785 -1.05904973
v 1.24360240 2.20390463 -0.88918614
v 1.56307733 2.48196697 -0.88918614
v 1.55126131 2.49554276 -0.88890195
v 1.24360240 2.20390463 -0.88918614
v 1.55126131 2.49554276 -0.88890195
v 1.23178637 2.21748042 -0.88890195
v 1.24184144 2.20592785 -1.05904973
v 1.56131637 2.48399019 -1.05904973
v 1.56307733 2.48196697 -0.88918614
v 1.24184144 2.20592785 -1.05904973
v 1.56307733 2.48196697 -0.88918614
v 1.24360240 2.20390463 -0.88918614
v 1.56131637 2.48399019 -1.05904973
v 1.54950047 2.49756598 -1.05876553
v 1.55126131 2.49554276 -0.88890195
v 1.56131637 2.48399019 -1.05904973
v 1.55126131 2.49554276 -0.88890195
v 1.56307733 2.48196697 -0.88918614
v 1.54950047 2.49756598 -1.05876553
v 1.23002553 2.21950364 -1.05876553
v 1.23178637 2.21748042 -0.88890195
v 1.54950047 2.49756598 -1.05876553
v 1.23178637 2.21748042 -0.88890195
v 1.55126131 2.49554276 -0.88890195
v 1.23002553 2.21950364 -1.05876553
v 1.24184144 2.20592785 -1.05904973
v 1.24360240 2.20390463 -0.88918614
v 1.23002553 2.21950364 -1.05876553
v 1.24360240 2.20390463 -0.88918614
v 1.23178637 2.21748042 -0.88890195
vt -0.47059584 0.01999998
vt 0.47059584 0.01999998
vt 0.47059584 -0.01999998
vt -0.47059584 0.01999998
vt 0.47059584 -0.01999998
vt -0.47059584 -0.01999998
vt -0.47059584 -0.01999998
vt 0.47059584 -0.01999998
vt 0.47059584 0.01999998
vt -0.47059584 -0.01999998
vt 0.47059584 0.01999998
vt -0.47059584 0.01999998
vt -0.47059584 -0.18876076
vt 0.47059584 -0.18876076
vt 0.47059584 0.18876082
vt -0.47059584 -0.18876076
vt 0.47059584 0.18876082
vt -0.47059584 0.18876082
vt -0.02000000 -0.18876076
vt 0.02000000 -0.18876076
vt 0.02000000 0.18876082
vt -0.02000000 -0.18876076
vt 0.02000000 0.18876082
vt -0.02000000 0.18876082
vt 0.47059584 -0.18876076
vt -0.47059584 -0.18876076
vt -0.47059584 0.18876082
vt 0.47059584 -0.18876076
vt -0.47059584 0.18876082
vt 0.47059584 0.18876082
vt 0.02000000 -0.18876076
vt -0.02000000 -0.18876076
vt -0.02000000 0.18876082
vt 0.02000000 -0.18876076
vt -0.02000000 0.18876082
vt 0.02000000 0.18876082
f 1/1 2/2 3/3
f 4/4 5/5 6/6
f 7/7 8/8 9/9
f 10/10 11/11 12/12
f 13/13 14/14 15/15
f 16/16 17/17 18/18
f 19/19 20/20 21/21
f 22/22 23/23 24/24
f 25/25 26/26 27/27
f 28/28 29/29 30/30
f 31/31 32/32 33/33
f 34/34 35/35 36/36

