# https://github.com/mikedh/trimesh
mtllib material.mtl
usemtl WhiteSolidSurface
v 4.29541636 1.63245416 -0.33158633
v 4.24341965 1.69324315 -0.33055535
v 4.33648729 1.77287173 -0.33188343
v 4.29541636 1.63245416 -0.33158633
v 4.33648729 1.77287173 -0.33188343
v 4.38848352 1.71208262 -0.33291441
v 4.38906527 1.71198654 -0.29791936
v 4.33706903 1.77277565 -0.29688838
v 4.24400139 1.69314706 -0.29556033
v 4.38906527 1.71198654 -0.29791936
v 4.24400139 1.69314706 -0.29556033
v 4.29599762 1.63235807 -0.29659131
v 4.38848352 1.71208262 -0.33291441
v 4.33648729 1.77287173 -0.33188343
v 4.33706903 1.77277565 -0.29688838
v 4.38848352 1.71208262 -0.33291441
v 4.33706903 1.77277565 -0.29688838
v 4.38906527 1.71198654 -0.29791936
v 4.33648729 1.77287173 -0.33188343
v 4.24341965 1.69324315 -0.33055535
v 4.24400139 1.69314706 -0.29556033
v 4.33648729 1.77287173 -0.33188343
v 4.24400139 1.69314706 -0.29556033
v 4.33706903 1.77277565 -0.29688838
v 4.24341965 1.69324315 -0.33055535
v 4.29541636 1.63245416 -0.33158633
v 4.29599762 1.63235807 -0.29659131
v 4.24341965 1.69324315 -0.33055535
v 4.29599762 1.63235807 -0.29659131
v 4.24400139 1.69314706 -0.29556033
v 4.29541636 1.63245416 -0.33158633
v 4.38848352 1.71208262 -0.33291441
v 4.38906527 1.71198654 -0.29791936
v 4.29541636 1.63245416 -0.33158633
v 4.38906527 1.71198654 -0.29791936
v 4.29599762 1.63235807 -0.29659131
vt -0.08888888 0.13610095
vt 0.08888888 0.13610095
vt 0.08888888 -0.13610101
vt -0.08888888 0.13610095
vt 0.08888888 -0.13610101
vt -0.08888888 -0.13610101
vt -0.08888888 -0.13610101
vt 0.08888888 -0.13610101
vt 0.08888888 0.13610095
vt -0.08888888 -0.13610101
vt 0.08888888 0.13610095
vt -0.08888888 0.13610095
vt -0.08888888 -0.03888893
vt 0.08888888 -0.03888893
vt 0.08888888 0.03888887
vt -0.08888888 -0.03888893
vt 0.08888888 0.03888887
vt -0.08888888 0.03888887
vt -0.13610096 -0.03888893
vt 0.13610096 -0.03888893
vt 0.13610096 0.03888887
vt -0.13610096 -0.03888893
vt 0.13610096 0.03888887
vt -0.13610096 0.03888887
vt 0.08888888 -0.03888893
vt -0.08888888 -0.03888893
vt -0.08888888 0.03888887
vt 0.08888888 -0.03888893
vt -0.08888888 0.03888887
vt 0.08888888 0.03888887
vt 0.13610096 -0.03888893
vt -0.13610096 -0.03888893
vt -0.13610096 0.03888887
vt 0.13610096 -0.03888893
vt -0.13610096 0.03888887
vt 0.13610096 0.03888887
f 1/1 2/2 3/3
f 4/4 5/5 6/6
f 7/7 8/8 9/9
f 10/10 11/11 12/12
f 13/13 14/14 15/15
f 16/16 17/17 18/18
f 19/19 20/20 21/21
f 22/22 23/23 24/24
f 25/25 26/26 27/27
f 28/28 29/29 30/30
f 31/31 32/32 33/33
f 34/34 35/35 36/36

