# https://github.com/mikedh/trimesh
mtllib material.mtl
usemtl DarkRecess
v 0.69236070 1.58495176 -0.21710330
v 0.69384342 1.58629382 -0.21712424
v 0.71128947 1.56702948 -0.21640277
v 0.69236070 1.58495176 -0.21710330
v 0.71128947 1.56702948 -0.21640277
v 0.70980674 1.56568742 -0.21638185
v 0.70977414 1.56577027 -0.21338317
v 0.71125686 1.56711221 -0.21340409
v 0.69381082 1.58637655 -0.21412554
v 0.70977414 1.56577027 -0.21338317
v 0.69381082 1.58637655 -0.21412554
v 0.69232810 1.58503461 -0.21410462
v 0.70980674 1.56568742 -0.21638185
v 0.71128947 1.56702948 -0.21640277
v 0.71125686 1.56711221 -0.21340409
v 0.70980674 1.56568742 -0.21638185
v 0.71125686 1.56711221 -0.21340409
v 0.70977414 1.56577027 -0.21338317
v 0.71128947 1.56702948 -0.21640277
v 0.69384342 1.58629382 -0.21712424
v 0.69381082 1.58637655 -0.21412554
v 0.71128947 1.56702948 -0.21640277
v 0.69381082 1.58637655 -0.21412554
v 0.71125686 1.56711221 -0.21340409
v 0.69384342 1.58629382 -0.21712424
v 0.69236070 1.58495176 -0.21710330
v 0.69232810 1.58503461 -0.21410462
v 0.69384342 1.58629382 -0.21712424
v 0.69232810 1.58503461 -0.21410462
v 0.69381082 1.58637655 -0.21412554
v 0.69236070 1.58495176 -0.21710330
v 0.70980674 1.56568742 -0.21638185
v 0.70977414 1.56577027 -0.21338317
v 0.69236070 1.58495176 -0.21710330
v 0.70977414 1.56577027 -0.21338317
v 0.69232810 1.58503461 -0.21410462
vt 0.00000000 0.00000000
vt 0.00000000 0.00000000
vt 0.00000000 0.00000000
vt 0.00000000 0.00000000
vt 0.00000000 0.00000000
vt 0.00000000 0.00000000
vt 0.00000000 0.00000000
vt 0.00000000 0.00000000
vt 0.00000000 0.00000000
vt 0.00000000 0.00000000
vt 0.00000000 0.00000000
vt 0.00000000 0.00000000
vt 0.00000000 0.00000000
vt 0.00000000 0.00000000
vt 0.00000000 0.00000000
vt 0.00000000 0.00000000
vt 0.00000000 0.00000000
vt 0.00000000 0.00000000
vt 0.00000000 0.00000000
vt 0.00000000 0.00000000
vt 0.00000000 0.00000000
vt 0.00000000 0.00000000
vt 0.00000000 0.00000000
vt 0.00000000 0.00000000
vt 0.00000000 0.00000000
vt 0.00000000 0.00000000
vt 0.00000000 0.00000000
vt 0.00000000 0.00000000
vt 0.00000000 0.00000000
vt 0.00000000 0.00000000
vt 0.00000000 0.00000000
vt 0.00000000 0.00000000
vt 0.00000000 0.00000000
vt 0.00000000 0.00000000
vt 0.00000000 0.00000000
vt 0.00000000 0.00000000
f 1/1 2/2 3/3
f 4/4 5/5 6/6
f 7/7 8/8 9/9
f 10/10 11/11 12/12
f 13/13 14/14 15/15
f 16/16 17/17 18/18
f 19/19 20/20 21/21
f 22/22 23/23 24/24
f 25/25 26/26 27/27
f 28/28 29/29 30/30
f 31/31 32/32 33/33
f 34/34 35/35 36/36

