# https://github.com/mikedh/trimesh
mtllib material.mtl
usemtl DarkPlastic
v 6.73037052 2.57924247 -1.14666414
v 7.04642630 2.21350884 -1.14666414
v 7.03280926 2.20174146 -1.14698482
v 6.73037052 2.57924247 -1.14666414
v 7.03280926 2.20174146 -1.14698482
v 6.71675348 2.56747508 -1.14698482
v 6.71519136 2.56612468 -1.03108740
v 7.03124714 2.20039129 -1.03108740
v 7.04486418 2.21215868 -1.03076673
v 6.71519136 2.56612468 -1.03108740
v 7.04486418 2.21215868 -1.03076673
v 6.72880840 2.57789230 -1.03076673
v 6.71675348 2.56747508 -1.14698482
v 7.03280926 2.20174146 -1.14698482
v 7.03124714 2.20039129 -1.03108740
v 6.71675348 2.56747508 -1.14698482
v 7.03124714 2.20039129 -1.03108740
v 6.71519136 2.56612468 -1.03108740
v 7.03280926 2.20174146 -1.14698482
v 7.04642630 2.21350884 -1.14666414
v 7.04486418 2.21215868 -1.03076673
v 7.03280926 2.20174146 -1.14698482
v 7.04486418 2.21215868 -1.03076673
v 7.03124714 2.20039129 -1.03108740
v 7.04642630 2.21350884 -1.14666414
v 6.73037052 2.57924247 -1.14666414
v 6.72880840 2.57789230 -1.03076673
v 7.04642630 2.21350884 -1.14666414
v 6.72880840 2.57789230 -1.03076673
v 7.04486418 2.21215868 -1.03076673
v 6.73037052 2.57924247 -1.14666414
v 6.71675348 2.56747508 -1.14698482
v 6.71519136 2.56612468 -1.03108740
v 6.73037052 2.57924247 -1.14666414
v 6.71519136 2.56612468 -1.03108740
v 6.72880840 2.57789230 -1.03076673
vt -0.53708428 0.01999998
vt 0.53708428 0.01999998
vt 0.53708428 -0.01999998
vt -0.53708428 0.01999998
vt 0.53708428 -0.01999998
vt -0.53708428 -0.01999998
vt -0.53708428 -0.01999998
vt 0.53708428 -0.01999998
vt 0.53708428 0.01999998
vt -0.53708428 -0.01999998
vt 0.53708428 0.01999998
vt -0.53708428 0.01999998
vt -0.53708428 -0.12879539
vt 0.53708428 -0.12879539
vt 0.53708428 0.12879533
vt -0.53708428 -0.12879539
vt 0.53708428 0.12879533
vt -0.53708428 0.12879533
vt -0.02000000 -0.12879539
vt 0.02000000 -0.12879539
vt 0.02000000 0.12879533
vt -0.02000000 -0.12879539
vt 0.02000000 0.12879533
vt -0.02000000 0.12879533
vt 0.53708428 -0.12879539
vt -0.53708428 -0.12879539
vt -0.53708428 0.12879533
vt 0.53708428 -0.12879539
vt -0.53708428 0.12879533
vt 0.53708428 0.12879533
vt 0.02000000 -0.12879539
vt -0.02000000 -0.12879539
vt -0.02000000 0.12879533
vt 0.02000000 -0.12879539
vt -0.02000000 0.12879533
vt 0.02000000 0.12879533
f 1/1 2/2 3/3
f 4/4 5/5 6/6
f 7/7 8/8 9/9
f 10/10 11/11 12/12
f 13/13 14/14 15/15
f 16/16 17/17 18/18
f 19/19 20/20 21/21
f 22/22 23/23 24/24
f 25/25 26/26 27/27
f 28/28 29/29 30/30
f 31/31 32/32 33/33
f 34/34 35/35 36/36

