# https://github.com/mikedh/trimesh
mtllib material.mtl
usemtl BrushedStainless
v 4.23619986 1.69406664 -0.51045865
v 4.01911449 1.94786096 -0.50615430
v 4.02139378 1.94981110 -0.50618684
v 4.23619986 1.69406664 -0.51045865
v 4.02139378 1.94981110 -0.50618684
v 4.23847914 1.69601679 -0.51049119
v 4.24146986 1.69552279 -0.33051670
v 4.02438498 1.94931710 -0.32621235
v 4.02210569 1.94736683 -0.32617983
v 4.24146986 1.69552279 -0.33051670
v 4.02210569 1.94736683 -0.32617983
v 4.23919058 1.69357252 -0.33048418
v 4.23847914 1.69601679 -0.51049119
v 4.02139378 1.94981110 -0.50618684
v 4.02438498 1.94931710 -0.32621235
v 4.23847914 1.69601679 -0.51049119
v 4.02438498 1.94931710 -0.32621235
v 4.24146986 1.69552279 -0.33051670
v 4.02139378 1.94981110 -0.50618684
v 4.01911449 1.94786096 -0.50615430
v 4.02210569 1.94736683 -0.32617983
v 4.02139378 1.94981110 -0.50618684
v 4.02210569 1.94736683 -0.32617983
v 4.02438498 1.94931710 -0.32621235
v 4.01911449 1.94786096 -0.50615430
v 4.23619986 1.69406664 -0.51045865
v 4.23919058 1.69357252 -0.33048418
v 4.01911449 1.94786096 -0.50615430
v 4.23919058 1.69357252 -0.33048418
v 4.02210569 1.94736683 -0.32617983
v 4.23619986 1.69406664 -0.51045865
v 4.23847914 1.69601679 -0.51049119
v 4.24146986 1.69552279 -0.33051670
v 4.23619986 1.69406664 -0.51045865
v 4.24146986 1.69552279 -0.33051670
v 4.23919058 1.69357252 -0.33048418
vt -0.37111109 0.00333333
vt 0.37111109 0.00333333
vt 0.37111109 -0.00333333
vt -0.37111109 0.00333333
vt 0.37111109 -0.00333333
vt -0.37111109 -0.00333333
vt -0.37111109 -0.00333333
vt 0.37111109 -0.00333333
vt 0.37111109 0.00333333
vt -0.37111109 -0.00333333
vt 0.37111109 0.00333333
vt -0.37111109 0.00333333
vt -0.37111109 -0.20000005
vt 0.37111109 -0.20000005
vt 0.37111109 0.19999999
vt -0.37111109 -0.20000005
vt 0.37111109 0.19999999
vt -0.37111109 0.19999999
vt -0.00333333 -0.20000005
vt 0.00333333 -0.20000005
vt 0.00333333 0.19999999
vt -0.00333333 -0.20000005
vt 0.00333333 0.19999999
vt -0.00333333 0.19999999
vt 0.37111109 -0.20000005
vt -0.37111109 -0.20000005
vt -0.37111109 0.19999999
vt 0.37111109 -0.20000005
vt -0.37111109 0.19999999
vt 0.37111109 0.19999999
vt 0.00333333 -0.20000005
vt -0.00333333 -0.20000005
vt -0.00333333 0.19999999
vt 0.00333333 -0.20000005
vt -0.00333333 0.19999999
vt 0.00333333 0.19999999
f 1/1 2/2 3/3
f 4/4 5/5 6/6
f 7/7 8/8 9/9
f 10/10 11/11 12/12
f 13/13 14/14 15/15
f 16/16 17/17 18/18
f 19/19 20/20 21/21
f 22/22 23/23 24/24
f 25/25 26/26 27/27
f 28/28 29/29 30/30
f 31/31 32/32 33/33
f 34/34 35/35 36/36

