# https://github.com/mikedh/trimesh
mtllib material.mtl
usemtl photo_001
v 1.97380590 -1.87986648 -1.12591612
v 1.63833141 -1.47981930 -1.11698723
v 1.65212309 -1.46825266 -1.11703575
v 1.97380590 -1.87986648 -1.12591612
v 1.65212309 -1.46825266 -1.11703575
v 1.98759770 -1.86829996 -1.12596464
v 1.99495530 -1.87470651 -0.56248564
v 1.65948069 -1.47465932 -0.55355674
v 1.64568901 -1.48622596 -0.55350816
v 1.99495530 -1.87470651 -0.56248564
v 1.64568901 -1.48622596 -0.55350816
v 1.98116362 -1.88627315 -0.56243706
v 1.98759770 -1.86829996 -1.12596464
v 1.65212309 -1.46825266 -1.11703575
v 1.65948069 -1.47465932 -0.55355674
v 1.98759770 -1.86829996 -1.12596464
v 1.65948069 -1.47465932 -0.55355674
v 1.99495530 -1.87470651 -0.56248564
v 1.65212309 -1.46825266 -1.11703575
v 1.63833141 -1.47981930 -1.11698723
v 1.64568901 -1.48622596 -0.55350816
v 1.65212309 -1.46825266 -1.11703575
v 1.64568901 -1.48622596 -0.55350816
v 1.65948069 -1.47465932 -0.55355674
v 1.63833141 -1.47981930 -1.11698723
v 1.97380590 -1.87986648 -1.12591612
v 1.98116362 -1.88627315 -0.56243706
v 1.63833141 -1.47981930 -1.11698723
v 1.98116362 -1.88627315 -0.56243706
v 1.64568901 -1.48622596 -0.55350816
v 1.97380590 -1.87986648 -1.12591612
v 1.98759770 -1.86829996 -1.12596464
v 1.99495530 -1.87470651 -0.56248564
v 1.97380590 -1.87986648 -1.12591612
v 1.99495530 -1.87470651 -0.56248564
v 1.98116362 -1.88627315 -0.56243706
vt 0.00536616 0.99195075
vt 0.32796717 0.99195075
vt 0.32796717 0.50804925
vt 0.00536616 0.99195075
vt 0.32796717 0.50804925
vt 0.00536616 0.50804925
vt 0.33869949 0.99195075
vt 0.66130048 0.99195075
vt 0.66130048 0.50804925
vt 0.33869949 0.99195075
vt 0.66130048 0.50804925
vt 0.33869949 0.50804925
vt 0.67203283 0.99195075
vt 0.99463385 0.99195075
vt 0.99463385 0.50804925
vt 0.67203283 0.99195075
vt 0.99463385 0.50804925
vt 0.67203283 0.50804925
vt 0.00536616 0.49195075
vt 0.32796717 0.49195075
vt 0.32796717 0.00804925
vt 0.00536616 0.49195075
vt 0.32796717 0.00804925
vt 0.00536616 0.00804925
vt 0.33869949 0.49195075
vt 0.66130048 0.49195075
vt 0.66130048 0.00804925
vt 0.33869949 0.49195075
vt 0.66130048 0.00804925
vt 0.33869949 0.00804925
vt 0.67203283 0.49195075
vt 0.99463385 0.49195075
vt 0.99463385 0.00804925
vt 0.67203283 0.49195075
vt 0.99463385 0.00804925
vt 0.67203283 0.00804925
f 1/1 2/2 3/3
f 4/4 5/5 6/6
f 7/7 8/8 9/9
f 10/10 11/11 12/12
f 13/13 14/14 15/15
f 16/16 17/17 18/18
f 19/19 20/20 21/21
f 22/22 23/23 24/24
f 25/25 26/26 27/27
f 28/28 29/29 30/30
f 31/31 32/32 33/33
f 34/34 35/35 36/36

