# https://github.com/mikedh/trimesh
mtllib material.mtl
usemtl DarkPlastic
v -0.52474463 0.12518281 -1.16262114
v 1.83466625 2.17906880 -1.17781949
v 1.85107780 2.16021299 -1.17816901
v -0.52474463 0.12518281 -1.16262114
v 1.85107780 2.16021299 -1.17816901
v -0.50833309 0.10632703 -1.16297066
v -0.50755519 0.10543332 -1.08793521
v 1.85201323 2.15913820 -1.08793521
v 1.83560216 2.17799354 -1.08754051
v -0.50755519 0.10543332 -1.08793521
v 1.83560216 2.17799354 -1.08754051
v -0.52396631 0.12428855 -1.08754051
v -0.50833309 0.10632703 -1.16297066
v 1.85107780 2.16021299 -1.17816901
v 1.85201323 2.15913820 -1.08793521
v -0.50833309 0.10632703 -1.16297066
v 1.85201323 2.15913820 -1.08793521
v -0.50755519 0.10543332 -1.08793521
v 1.85107780 2.16021299 -1.17816901
v 1.83466625 2.17906880 -1.17781949
v 1.83560216 2.17799354 -1.08754051
v 1.85107780 2.16021299 -1.17816901
v 1.83560216 2.17799354 -1.08754051
v 1.85201323 2.15913820 -1.08793521
v 1.83466625 2.17906880 -1.17781949
v -0.52474463 0.12518281 -1.16262114
v -0.52396631 0.12428855 -1.08754051
v 1.83466625 2.17906880 -1.17781949
v -0.52396631 0.12428855 -1.08754051
v 1.83560216 2.17799354 -1.08754051
v -0.52474463 0.12518281 -1.16262114
v -0.50833309 0.10632703 -1.16297066
v -0.50755519 0.10543332 -1.08793521
v -0.52474463 0.12518281 -1.16262114
v -0.50755519 0.10543332 -1.08793521
v -0.52396631 0.12428855 -1.08754051
vt -3.47571230 0.02777779
vt 3.47571230 0.02777779
vt 3.47571230 -0.02777779
vt -3.47571230 0.02777779
vt 3.47571230 -0.02777779
vt -3.47571230 -0.02777779
vt -3.47571230 -0.02777779
vt 3.47571230 -0.02777779
vt 3.47571230 0.02777779
vt -3.47571230 -0.02777779
vt 3.47571230 0.02777779
vt -3.47571230 0.02777779
vt -3.47571230 -0.05565524
vt 3.47571230 -0.08943355
vt 3.47571230 0.11111110
vt -3.47571230 -0.05565524
vt 3.47571230 0.11111110
vt -3.47571230 0.11111110
vt -0.02777778 -0.08943355
vt 0.02777778 -0.08953393
vt 0.02777778 0.11111110
vt -0.02777778 -0.08943355
vt 0.02777778 0.11111110
vt -0.02777778 0.11111110
vt 3.47571230 -0.08953393
vt -3.47571230 -0.05575562
vt -3.47571230 0.11111110
vt 3.47571230 -0.08953393
vt -3.47571230 0.11111110
vt 3.47571230 0.11111110
vt 0.02777778 -0.05575562
vt -0.02777778 -0.05565524
vt -0.02777778 0.11111110
vt 0.02777778 -0.05575562
vt -0.02777778 0.11111110
vt 0.02777778 0.11111110
f 1/1 2/2 3/3
f 4/4 5/5 6/6
f 7/7 8/8 9/9
f 10/10 11/11 12/12
f 13/13 14/14 15/15
f 16/16 17/17 18/18
f 19/19 20/20 21/21
f 22/22 23/23 24/24
f 25/25 26/26 27/27
f 28/28 29/29 30/30
f 31/31 32/32 33/33
f 34/34 35/35 36/36

