# https://github.com/mikedh/trimesh
mtllib material.mtl
usemtl DarkRecess
v 0.63940245 1.64342952 -0.21929331
v 0.64088523 1.64477146 -0.21931425
v 0.65833127 1.62550712 -0.21859279
v 0.63940245 1.64342952 -0.21929331
v 0.65833127 1.62550712 -0.21859279
v 0.65684849 1.62416518 -0.21857186
v 0.65681589 1.62424791 -0.21557318
v 0.65829867 1.62558997 -0.21559410
v 0.64085263 1.64485431 -0.21631557
v 0.65681589 1.62424791 -0.21557318
v 0.64085263 1.64485431 -0.21631557
v 0.63936985 1.64351225 -0.21629463
v 0.65684849 1.62416518 -0.21857186
v 0.65833127 1.62550712 -0.21859279
v 0.65829867 1.62558997 -0.21559410
v 0.65684849 1.62416518 -0.21857186
v 0.65829867 1.62558997 -0.21559410
v 0.65681589 1.62424791 -0.21557318
v 0.65833127 1.62550712 -0.21859279
v 0.64088523 1.64477146 -0.21931425
v 0.64085263 1.64485431 -0.21631557
v 0.65833127 1.62550712 -0.21859279
v 0.64085263 1.64485431 -0.21631557
v 0.65829867 1.62558997 -0.21559410
v 0.64088523 1.64477146 -0.21931425
v 0.63940245 1.64342952 -0.21929331
v 0.63936985 1.64351225 -0.21629463
v 0.64088523 1.64477146 -0.21931425
v 0.63936985 1.64351225 -0.21629463
v 0.64085263 1.64485431 -0.21631557
v 0.63940245 1.64342952 -0.21929331
v 0.65684849 1.62416518 -0.21857186
v 0.65681589 1.62424791 -0.21557318
v 0.63940245 1.64342952 -0.21929331
v 0.65681589 1.62424791 -0.21557318
v 0.63936985 1.64351225 -0.21629463
vt 0.00000000 0.00000000
vt 0.00000000 0.00000000
vt 0.00000000 0.00000000
vt 0.00000000 0.00000000
vt 0.00000000 0.00000000
vt 0.00000000 0.00000000
vt 0.00000000 0.00000000
vt 0.00000000 0.00000000
vt 0.00000000 0.00000000
vt 0.00000000 0.00000000
vt 0.00000000 0.00000000
vt 0.00000000 0.00000000
vt 0.00000000 0.00000000
vt 0.00000000 0.00000000
vt 0.00000000 0.00000000
vt 0.00000000 0.00000000
vt 0.00000000 0.00000000
vt 0.00000000 0.00000000
vt 0.00000000 0.00000000
vt 0.00000000 0.00000000
vt 0.00000000 0.00000000
vt 0.00000000 0.00000000
vt 0.00000000 0.00000000
vt 0.00000000 0.00000000
vt 0.00000000 0.00000000
vt 0.00000000 0.00000000
vt 0.00000000 0.00000000
vt 0.00000000 0.00000000
vt 0.00000000 0.00000000
vt 0.00000000 0.00000000
vt 0.00000000 0.00000000
vt 0.00000000 0.00000000
vt 0.00000000 0.00000000
vt 0.00000000 0.00000000
vt 0.00000000 0.00000000
vt 0.00000000 0.00000000
f 1/1 2/2 3/3
f 4/4 5/5 6/6
f 7/7 8/8 9/9
f 10/10 11/11 12/12
f 13/13 14/14 15/15
f 16/16 17/17 18/18
f 19/19 20/20 21/21
f 22/22 23/23 24/24
f 25/25 26/26 27/27
f 28/28 29/29 30/30
f 31/31 32/32 33/33
f 34/34 35/35 36/36

