# https://github.com/mikedh/trimesh
mtllib material.mtl
usemtl WhiteSolidSurface
v 8.05711842 1.11703813 -0.46057296
v 8.54859734 0.54853970 -0.46909204
v 8.11605263 0.17474778 -0.44826931
v 8.05711842 1.11703813 -0.46057296
v 8.11605263 0.17474778 -0.44826931
v 7.62457323 0.74324626 -0.43975022
v 7.62410164 0.74283856 -0.40475580
v 8.11558151 0.17434008 -0.41327485
v 8.54812622 0.54813200 -0.43409759
v 7.62410164 0.74283856 -0.40475580
v 8.54812622 0.54813200 -0.43409759
v 8.05664635 1.11663043 -0.42557853
v 7.62457323 0.74324626 -0.43975022
v 8.11605263 0.17474778 -0.44826931
v 8.11558151 0.17434008 -0.41327485
v 7.62457323 0.74324626 -0.43975022
v 8.11558151 0.17434008 -0.41327485
v 7.62410164 0.74283856 -0.40475580
v 8.11605263 0.17474778 -0.44826931
v 8.54859734 0.54853970 -0.46909204
v 8.54812622 0.54813200 -0.43409759
v 8.11605263 0.17474778 -0.44826931
v 8.54812622 0.54813200 -0.43409759
v 8.11558151 0.17434008 -0.41327485
v 8.54859734 0.54853970 -0.46909204
v 8.05711842 1.11703813 -0.46057296
v 8.05664635 1.11663043 -0.42557853
v 8.54859734 0.54853970 -0.46909204
v 8.05664635 1.11663043 -0.42557853
v 8.54812622 0.54813200 -0.43409759
v 8.05711842 1.11703813 -0.46057296
v 7.62457323 0.74324626 -0.43975022
v 7.62410164 0.74283856 -0.40475580
v 8.05711842 1.11703813 -0.46057296
v 7.62410164 0.74283856 -0.40475580
v 8.05664635 1.11663043 -0.42557853
vt 0.00000000 0.00000000
vt 0.00000000 0.00000000
vt 0.00000000 0.00000000
vt 0.00000000 0.00000000
vt 0.00000000 0.00000000
vt 0.00000000 0.00000000
vt 0.00000000 0.00000000
vt 0.00000000 0.00000000
vt 0.00000000 0.00000000
vt 0.00000000 0.00000000
vt 0.00000000 0.00000000
vt 0.00000000 0.00000000
vt 0.00000000 0.00000000
vt 0.00000000 0.00000000
vt 0.00000000 0.00000000
vt 0.00000000 0.00000000
vt 0.00000000 0.00000000
vt 0.00000000 0.00000000
vt 0.00000000 0.00000000
vt 0.00000000 0.00000000
vt 0.00000000 0.00000000
vt 0.00000000 0.00000000
vt 0.00000000 0.00000000
vt 0.00000000 0.00000000
vt 0.00000000 0.00000000
vt 0.00000000 0.00000000
vt 0.00000000 0.00000000
vt 0.00000000 0.00000000
vt 0.00000000 0.00000000
vt 0.00000000 0.00000000
vt 0.00000000 0.00000000
vt 0.00000000 0.00000000
vt 0.00000000 0.00000000
vt 0.00000000 0.00000000
vt 0.00000000 0.00000000
vt 0.00000000 0.00000000
f 1/1 2/2 3/3
f 4/4 5/5 6/6
f 7/7 8/8 9/9
f 10/10 11/11 12/12
f 13/13 14/14 15/15
f 16/16 17/17 18/18
f 19/19 20/20 21/21
f 22/22 23/23 24/24
f 25/25 26/26 27/27
f 28/28 29/29 30/30
f 31/31 32/32 33/33
f 34/34 35/35 36/36

