# https://github.com/mikedh/trimesh
mtllib material.mtl
usemtl PaleWood
v 1.65140879 -2.85335207 -1.21278667
v 0.27867225 -1.21638882 -1.17625034
v 0.94246668 -0.65968704 -1.17858827
v 1.65140879 -2.85335207 -1.21278667
v 0.94246668 -0.65968704 -1.17858827
v 2.31520319 -2.29665017 -1.21512461
v 2.31543827 -2.29685473 -1.19712734
v 0.94270170 -0.65989166 -1.16059089
v 0.27890724 -1.21659350 -1.15825295
v 2.31543827 -2.29685473 -1.19712734
v 0.27890724 -1.21659350 -1.15825295
v 1.65164375 -2.85355663 -1.19478941
v 2.31520319 -2.29665017 -1.21512461
v 0.94246668 -0.65968704 -1.17858827
v 0.94270170 -0.65989166 -1.16059089
v 2.31520319 -2.29665017 -1.21512461
v 0.94270170 -0.65989166 -1.16059089
v 2.31543827 -2.29685473 -1.19712734
v 0.94246668 -0.65968704 -1.17858827
v 0.27867225 -1.21638882 -1.17625034
v 0.27890724 -1.21659350 -1.15825295
v 0.94246668 -0.65968704 -1.17858827
v 0.27890724 -1.21659350 -1.15825295
v 0.94270170 -0.65989166 -1.16059089
v 0.27867225 -1.21638882 -1.17625034
v 1.65140879 -2.85335207 -1.21278667
v 1.65164375 -2.85355663 -1.19478941
v 0.27867225 -1.21638882 -1.17625034
v 1.65164375 -2.85355663 -1.19478941
v 0.27890724 -1.21659350 -1.15825295
v 1.65140879 -2.85335207 -1.21278667
v 2.31520319 -2.29665017 -1.21512461
v 2.31543827 -2.29685473 -1.19712734
v 1.65140879 -2.85335207 -1.21278667
v 2.31543827 -2.29685473 -1.19712734
v 1.65164375 -2.85355663 -1.19478941
vt -2.37408566 0.96260023
vt 2.37408566 0.96260023
vt 2.37408566 -0.96260023
vt -2.37408566 0.96260023
vt 2.37408566 -0.96260023
vt -2.37408566 -0.96260023
vt -2.37408566 -0.96260023
vt 2.37408566 -0.96260023
vt 2.37408566 0.96260023
vt -2.37408566 -0.96260023
vt 2.37408566 0.96260023
vt -2.37408566 0.96260023
vt -2.37408566 -0.01999998
vt 2.37408566 -0.01999998
vt 2.37408566 0.01999998
vt -2.37408566 -0.01999998
vt 2.37408566 0.01999998
vt -2.37408566 0.01999998
vt -0.96260023 -0.01999998
vt 0.96260023 -0.01999998
vt 0.96260023 0.01999998
vt -0.96260023 -0.01999998
vt 0.96260023 0.01999998
vt -0.96260023 0.01999998
vt 2.37408566 -0.01999998
vt -2.37408566 -0.01999998
vt -2.37408566 0.01999998
vt 2.37408566 -0.01999998
vt -2.37408566 0.01999998
vt 2.37408566 0.01999998
vt 0.96260023 -0.01999998
vt -0.96260023 -0.01999998
vt -0.96260023 0.01999998
vt 0.96260023 -0.01999998
vt -0.96260023 0.01999998
vt 0.96260023 0.01999998
f 1/1 2/2 3/3
f 4/4 5/5 6/6
f 7/7 8/8 9/9
f 10/10 11/11 12/12
f 13/13 14/14 15/15
f 16/16 17/17 18/18
f 19/19 20/20 21/21
f 22/22 23/23 24/24
f 25/25 26/26 27/27
f 28/28 29/29 30/30
f 31/31 32/32 33/33
f 34/34 35/35 36/36

