# https://github.com/mikedh/trimesh
mtllib material.mtl
usemtl Glass
v 8.13903236 -0.00339800 -1.31986475
v 5.92805910 -2.06420517 -1.30662405
v 5.91987705 -2.05542707 -1.30645442
v 8.13903236 -0.00339800 -1.31986475
v 5.91987705 -2.05542707 -1.30645442
v 8.13084984 0.00538014 -1.31969500
v 8.13084984 0.00538014 1.49630964
v 5.91987705 -2.05542707 1.49630964
v 5.92805910 -2.06420517 1.49630964
v 8.13084984 0.00538014 1.49630964
v 5.92805910 -2.06420517 1.49630964
v 8.13903236 -0.00339800 1.49630964
v 8.13084984 0.00538014 -1.31969500
v 5.91987705 -2.05542707 -1.30645442
v 5.91987705 -2.05542707 1.49630964
v 8.13084984 0.00538014 -1.31969500
v 5.91987705 -2.05542707 1.49630964
v 8.13084984 0.00538014 1.49630964
v 5.91987705 -2.05542707 -1.30645442
v 5.92805910 -2.06420517 -1.30662405
v 5.92805910 -2.06420517 1.49630964
v 5.91987705 -2.05542707 -1.30645442
v 5.92805910 -2.06420517 1.49630964
v 5.91987705 -2.05542707 1.49630964
v 5.92805910 -2.06420517 -1.30662405
v 8.13903236 -0.00339800 -1.31986475
v 8.13903236 -0.00339800 1.49630964
v 5.92805910 -2.06420517 -1.30662405
v 8.13903236 -0.00339800 1.49630964
v 5.92805910 -2.06420517 1.49630964
v 8.13903236 -0.00339800 -1.31986475
v 8.13084984 0.00538014 -1.31969500
v 8.13084984 0.00538014 1.49630964
v 8.13903236 -0.00339800 -1.31986475
v 8.13084984 0.00538014 1.49630964
v 8.13903236 -0.00339800 1.49630964
vt -3.35830045 0.01333332
vt 3.35830045 0.01333332
vt 3.35830045 -0.01333332
vt -3.35830045 0.01333332
vt 3.35830045 -0.01333332
vt -3.35830045 -0.01333332
vt -3.35830045 -0.01333332
vt 3.35830045 -0.01333332
vt 3.35830045 0.01333332
vt -3.35830045 -0.01333332
vt 3.35830045 0.01333332
vt -3.35830045 0.01333332
vt -3.35830045 -3.19185734
vt 3.35830045 -3.16243362
vt 3.35830045 3.06593108
vt -3.35830045 -3.19185734
vt 3.35830045 3.06593108
vt -3.35830045 3.06593108
vt -0.01333333 -3.16243362
vt 0.01333333 -3.16281033
vt 0.01333333 3.06593108
vt -0.01333333 -3.16243362
vt 0.01333333 3.06593108
vt -0.01333333 3.06593108
vt 3.35830045 -3.16281033
vt -3.35830045 -3.19223404
vt -3.35830045 3.06593108
vt 3.35830045 -3.16281033
vt -3.35830045 3.06593108
vt 3.35830045 3.06593108
vt 0.01333333 -3.19223404
vt -0.01333333 -3.19185734
vt -0.01333333 3.06593108
vt 0.01333333 -3.19223404
vt -0.01333333 3.06593108
vt 0.01333333 3.06593108
f 1/1 2/2 3/3
f 4/4 5/5 6/6
f 7/7 8/8 9/9
f 10/10 11/11 12/12
f 13/13 14/14 15/15
f 16/16 17/17 18/18
f 19/19 20/20 21/21
f 22/22 23/23 24/24
f 25/25 26/26 27/27
f 28/28 29/29 30/30
f 31/31 32/32 33/33
f 34/34 35/35 36/36

