# https://github.com/mikedh/trimesh
mtllib material.mtl
usemtl WarmWhitePaint
v 5.93934393 -2.03600287 1.60976672
v 7.98280907 -4.08396673 1.60976672
v 7.94387579 -4.12281466 1.60976672
v 5.93934393 -2.03600287 1.60976672
v 7.94387579 -4.12281466 1.60976672
v 5.90041018 -2.07485104 1.60976672
v 5.90041018 -2.07485104 1.64476669
v 7.94387579 -4.12281466 1.64476669
v 7.98280907 -4.08396673 1.64476669
v 5.90041018 -2.07485104 1.64476669
v 7.98280907 -4.08396673 1.64476669
v 5.93934393 -2.03600287 1.64476669
v 5.90041018 -2.07485104 1.60976672
v 7.94387579 -4.12281466 1.60976672
v 7.94387579 -4.12281466 1.64476669
v 5.90041018 -2.07485104 1.60976672
v 7.94387579 -4.12281466 1.64476669
v 5.90041018 -2.07485104 1.64476669
v 7.94387579 -4.12281466 1.60976672
v 7.98280907 -4.08396673 1.60976672
v 7.98280907 -4.08396673 1.64476669
v 7.94387579 -4.12281466 1.60976672
v 7.98280907 -4.08396673 1.64476669
v 7.94387579 -4.12281466 1.64476669
v 7.98280907 -4.08396673 1.60976672
v 5.93934393 -2.03600287 1.60976672
v 5.93934393 -2.03600287 1.64476669
v 7.98280907 -4.08396673 1.60976672
v 5.93934393 -2.03600287 1.64476669
v 7.98280907 -4.08396673 1.64476669
v 5.93934393 -2.03600287 1.60976672
v 5.90041018 -2.07485104 1.60976672
v 5.90041018 -2.07485104 1.64476669
v 5.93934393 -2.03600287 1.60976672
v 5.90041018 -2.07485104 1.64476669
v 5.93934393 -2.03600287 1.64476669
vt -3.21453238 0.06111109
vt 3.21453238 0.06111109
vt 3.21453238 -0.06111109
vt -3.21453238 0.06111109
vt 3.21453238 -0.06111109
vt -3.21453238 -0.06111109
vt -3.21453238 -0.06111109
vt 3.21453238 -0.06111109
vt 3.21453238 0.06111109
vt -3.21453238 -0.06111109
vt 3.21453238 0.06111109
vt -3.21453238 0.06111109
vt -3.21453238 -0.03888893
vt 3.21453238 -0.03888893
vt 3.21453238 0.03888887
vt -3.21453238 -0.03888893
vt 3.21453238 0.03888887
vt -3.21453238 0.03888887
vt -0.06111111 -0.03888893
vt 0.06111111 -0.03888893
vt 0.06111111 0.03888887
vt -0.06111111 -0.03888893
vt 0.06111111 0.03888887
vt -0.06111111 0.03888887
vt 3.21453238 -0.03888893
vt -3.21453238 -0.03888893
vt -3.21453238 0.03888887
vt 3.21453238 -0.03888893
vt -3.21453238 0.03888887
vt 3.21453238 0.03888887
vt 0.06111111 -0.03888893
vt -0.06111111 -0.03888893
vt -0.06111111 0.03888887
vt 0.06111111 -0.03888893
vt -0.06111111 0.03888887
vt 0.06111111 0.03888887
f 1/1 2/2 3/3
f 4/4 5/5 6/6
f 7/7 8/8 9/9
f 10/10 11/11 12/12
f 13/13 14/14 15/15
f 16/16 17/17 18/18
f 19/19 20/20 21/21
f 22/22 23/23 24/24
f 25/25 26/26 27/27
f 28/28 29/29 30/30
f 31/31 32/32 33/33
f 34/34 35/35 36/36

