# https://github.com/mikedh/trimesh
mtllib material.mtl
usemtl PaleWood
v 2.25590014 3.16624689 -0.03009354
v 4.11737776 4.78025866 -0.03009354
v 4.33074379 4.53417826 -0.03245599
v 2.25590014 3.16624689 -0.03009354
v 4.33074379 4.53417826 -0.03245599
v 2.46926641 2.92016673 -0.03245599
v 2.46935201 2.92006803 -0.01445647
v 4.33082962 4.53407955 -0.01445647
v 4.11746311 4.78015995 -0.01209402
v 2.46935201 2.92006803 -0.01445647
v 4.11746311 4.78015995 -0.01209402
v 2.25598550 3.16614842 -0.01209402
v 2.46926641 2.92016673 -0.03245599
v 4.33074379 4.53417826 -0.03245599
v 4.33082962 4.53407955 -0.01445647
v 2.46926641 2.92016673 -0.03245599
v 4.33082962 4.53407955 -0.01445647
v 2.46935201 2.92006803 -0.01445647
v 4.33074379 4.53417826 -0.03245599
v 4.11737776 4.78025866 -0.03009354
v 4.11746311 4.78015995 -0.01209402
v 4.33074379 4.53417826 -0.03245599
v 4.11746311 4.78015995 -0.01209402
v 4.33082962 4.53407955 -0.01445647
v 4.11737776 4.78025866 -0.03009354
v 2.25590014 3.16624689 -0.03009354
v 2.25598550 3.16614842 -0.01209402
v 4.11737776 4.78025866 -0.03009354
v 2.25598550 3.16614842 -0.01209402
v 4.11746311 4.78015995 -0.01209402
v 2.25590014 3.16624689 -0.03009354
v 2.46926641 2.92016673 -0.03245599
v 2.46935201 2.92006803 -0.01445647
v 2.25590014 3.16624689 -0.03009354
v 2.46935201 2.92006803 -0.01445647
v 2.25598550 3.16614842 -0.01209402
vt -2.73751521 0.36189878
vt 2.73751521 0.36189878
vt 2.73751521 -0.36189878
vt -2.73751521 0.36189878
vt 2.73751521 -0.36189878
vt -2.73751521 -0.36189878
vt -2.73751521 -0.36189878
vt 2.73751521 -0.36189878
vt 2.73751521 0.36189878
vt -2.73751521 -0.36189878
vt 2.73751521 0.36189878
vt -2.73751521 0.36189878
vt -2.73751521 -0.01999998
vt 2.73751521 -0.01999998
vt 2.73751521 0.01999998
vt -2.73751521 -0.01999998
vt 2.73751521 0.01999998
vt -2.73751521 0.01999998
vt -0.36189881 -0.01999998
vt 0.36189881 -0.01999998
vt 0.36189881 0.01999998
vt -0.36189881 -0.01999998
vt 0.36189881 0.01999998
vt -0.36189881 0.01999998
vt 2.73751521 -0.01999998
vt -2.73751521 -0.01999998
vt -2.73751521 0.01999998
vt 2.73751521 -0.01999998
vt -2.73751521 0.01999998
vt 2.73751521 0.01999998
vt 0.36189881 -0.01999998
vt -0.36189881 -0.01999998
vt -0.36189881 0.01999998
vt 0.36189881 -0.01999998
vt -0.36189881 0.01999998
vt 0.36189881 0.01999998
f 1/1 2/2 3/3
f 4/4 5/5 6/6
f 7/7 8/8 9/9
f 10/10 11/11 12/12
f 13/13 14/14 15/15
f 16/16 17/17 18/18
f 19/19 20/20 21/21
f 22/22 23/23 24/24
f 25/25 26/26 27/27
f 28/28 29/29 30/30
f 31/31 32/32 33/33
f 34/34 35/35 36/36

