# https://github.com/mikedh/trimesh
mtllib material.mtl
usemtl BlueBinPlastic
v 1.94500911 -2.91289043 -1.21174240
v 1.80826735 -2.75198483 -1.20880318
v 2.12646151 -2.48153734 -1.21089506
v 1.94500911 -2.91289043 -1.21174240
v 2.12646151 -2.48153734 -1.21089506
v 2.26320314 -2.64244294 -1.21383429
v 2.26328015 -2.64248729 -1.20783496
v 2.12653852 -2.48158145 -1.20489573
v 1.80834436 -2.75202894 -1.20280385
v 2.26328015 -2.64248729 -1.20783496
v 1.80834436 -2.75202894 -1.20280385
v 1.94508600 -2.91293454 -1.20574307
v 2.26320314 -2.64244294 -1.21383429
v 2.12646151 -2.48153734 -1.21089506
v 2.12653852 -2.48158145 -1.20489573
v 2.26320314 -2.64244294 -1.21383429
v 2.12653852 -2.48158145 -1.20489573
v 2.26328015 -2.64248729 -1.20783496
v 2.12646151 -2.48153734 -1.21089506
v 1.80826735 -2.75198483 -1.20880318
v 1.80834436 -2.75202894 -1.20280385
v 2.12646151 -2.48153734 -1.21089506
v 1.80834436 -2.75202894 -1.20280385
v 2.12653852 -2.48158145 -1.20489573
v 1.80826735 -2.75198483 -1.20880318
v 1.94500911 -2.91289043 -1.21174240
v 1.94508600 -2.91293454 -1.20574307
v 1.80826735 -2.75198483 -1.20880318
v 1.94508600 -2.91293454 -1.20574307
v 1.80834436 -2.75202894 -1.20280385
v 1.94500911 -2.91289043 -1.21174240
v 2.26320314 -2.64244294 -1.21383429
v 2.26328015 -2.64248729 -1.20783496
v 1.94500911 -2.91289043 -1.21174240
v 2.26328015 -2.64248729 -1.20783496
v 1.94508600 -2.91293454 -1.20574307
vt -0.23464605 0.46400523
vt 0.23464605 0.46400523
vt 0.23464605 -0.46400523
vt -0.23464605 0.46400523
vt 0.23464605 -0.46400523
vt -0.23464605 -0.46400523
vt -0.23464605 -0.46400523
vt 0.23464605 -0.46400523
vt 0.23464605 0.46400523
vt -0.23464605 -0.46400523
vt 0.23464605 0.46400523
vt -0.23464605 0.46400523
vt -0.23464605 -0.00666666
vt 0.23464605 -0.00666666
vt 0.23464605 0.00666666
vt -0.23464605 -0.00666666
vt 0.23464605 0.00666666
vt -0.23464605 0.00666666
vt -0.46400523 -0.00666666
vt 0.46400523 -0.00666666
vt 0.46400523 0.00666666
vt -0.46400523 -0.00666666
vt 0.46400523 0.00666666
vt -0.46400523 0.00666666
vt 0.23464605 -0.00666666
vt -0.23464605 -0.00666666
vt -0.23464605 0.00666666
vt 0.23464605 -0.00666666
vt -0.23464605 0.00666666
vt 0.23464605 0.00666666
vt 0.46400523 -0.00666666
vt -0.46400523 -0.00666666
vt -0.46400523 0.00666666
vt 0.46400523 -0.00666666
vt -0.46400523 0.00666666
vt 0.46400523 0.00666666
f 1/1 2/2 3/3
f 4/4 5/5 6/6
f 7/7 8/8 9/9
f 10/10 11/11 12/12
f 13/13 14/14 15/15
f 16/16 17/17 18/18
f 19/19 20/20 21/21
f 22/22 23/23 24/24
f 25/25 26/26 27/27
f 28/28 29/29 30/30
f 31/31 32/32 33/33
f 34/34 35/35 36/36

