# https://github.com/mikedh/trimesh
mtllib material.mtl
usemtl PaleWood
v 1.65164375 -2.85355663 -1.19478941
v 0.27890724 -1.21659350 -1.15825295
v 0.29269892 -1.20502687 -1.15830159
v 1.65164375 -2.85355663 -1.19478941
v 0.29269892 -1.20502687 -1.15830159
v 1.66543543 -2.84198999 -1.19483793
v 1.67668355 -2.85178423 -0.33340362
v 0.30394709 -1.21482110 -0.29686722
v 0.29015541 -1.22638774 -0.29681864
v 1.67668355 -2.85178423 -0.33340362
v 0.29015541 -1.22638774 -0.29681864
v 1.66289186 -2.86335087 -0.33335504
v 1.66543543 -2.84198999 -1.19483793
v 0.29269892 -1.20502687 -1.15830159
v 0.30394709 -1.21482110 -0.29686722
v 1.66543543 -2.84198999 -1.19483793
v 0.30394709 -1.21482110 -0.29686722
v 1.67668355 -2.85178423 -0.33340362
v 0.29269892 -1.20502687 -1.15830159
v 0.27890724 -1.21659350 -1.15825295
v 0.29015541 -1.22638774 -0.29681864
v 0.29269892 -1.20502687 -1.15830159
v 0.29015541 -1.22638774 -0.29681864
v 0.30394709 -1.21482110 -0.29686722
v 0.27890724 -1.21659350 -1.15825295
v 1.65164375 -2.85355663 -1.19478941
v 1.66289186 -2.86335087 -0.33335504
v 0.27890724 -1.21659350 -1.15825295
v 1.66289186 -2.86335087 -0.33335504
v 0.29015541 -1.22638774 -0.29681864
v 1.65164375 -2.85355663 -1.19478941
v 1.66543543 -2.84198999 -1.19483793
v 1.67668355 -2.85178423 -0.33340362
v 1.65164375 -2.85355663 -1.19478941
v 1.67668355 -2.85178423 -0.33340362
v 1.66289186 -2.86335087 -0.33335504
vt -2.37408566 0.01999998
vt 2.37408566 0.01999998
vt 2.37408566 -0.01999998
vt -2.37408566 0.01999998
vt 2.37408566 -0.01999998
vt -2.37408566 -0.01999998
vt -2.37408566 -0.01999998
vt 2.37408566 -0.01999998
vt 2.37408566 0.01999998
vt -2.37408566 -0.01999998
vt 2.37408566 0.01999998
vt -2.37408566 0.01999998
vt -2.37408566 -0.95729280
vt 2.37408566 -0.95729280
vt 2.37408566 0.95729274
vt -2.37408566 -0.95729280
vt 2.37408566 0.95729274
vt -2.37408566 0.95729274
vt -0.02000000 -0.95729280
vt 0.02000000 -0.95729280
vt 0.02000000 0.95729274
vt -0.02000000 -0.95729280
vt 0.02000000 0.95729274
vt -0.02000000 0.95729274
vt 2.37408566 -0.95729280
vt -2.37408566 -0.95729280
vt -2.37408566 0.95729274
vt 2.37408566 -0.95729280
vt -2.37408566 0.95729274
vt 2.37408566 0.95729274
vt 0.02000000 -0.95729280
vt -0.02000000 -0.95729280
vt -0.02000000 0.95729274
vt 0.02000000 -0.95729280
vt -0.02000000 0.95729274
vt 0.02000000 0.95729274
f 1/1 2/2 3/3
f 4/4 5/5 6/6
f 7/7 8/8 9/9
f 10/10 11/11 12/12
f 13/13 14/14 15/15
f 16/16 17/17 18/18
f 19/19 20/20 21/21
f 22/22 23/23 24/24
f 25/25 26/26 27/27
f 28/28 29/29 30/30
f 31/31 32/32 33/33
f 34/34 35/35 36/36

