# https://github.com/mikedh/trimesh
mtllib material.mtl
usemtl DarkRecess
v 0.69184589 1.58625877 -0.16975424
v 0.69332862 1.58760083 -0.16977516
v 0.71077472 1.56833649 -0.16905370
v 0.69184589 1.58625877 -0.16975424
v 0.71077472 1.56833649 -0.16905370
v 0.70929193 1.56699443 -0.16903278
v 0.70925933 1.56707728 -0.16603410
v 0.71074212 1.56841922 -0.16605502
v 0.69329602 1.58768356 -0.16677648
v 0.70925933 1.56707728 -0.16603410
v 0.69329602 1.58768356 -0.16677648
v 0.69181329 1.58634162 -0.16675556
v 0.70929193 1.56699443 -0.16903278
v 0.71077472 1.56833649 -0.16905370
v 0.71074212 1.56841922 -0.16605502
v 0.70929193 1.56699443 -0.16903278
v 0.71074212 1.56841922 -0.16605502
v 0.70925933 1.56707728 -0.16603410
v 0.71077472 1.56833649 -0.16905370
v 0.69332862 1.58760083 -0.16977516
v 0.69329602 1.58768356 -0.16677648
v 0.71077472 1.56833649 -0.16905370
v 0.69329602 1.58768356 -0.16677648
v 0.71074212 1.56841922 -0.16605502
v 0.69332862 1.58760083 -0.16977516
v 0.69184589 1.58625877 -0.16975424
v 0.69181329 1.58634162 -0.16675556
v 0.69332862 1.58760083 -0.16977516
v 0.69181329 1.58634162 -0.16675556
v 0.69329602 1.58768356 -0.16677648
v 0.69184589 1.58625877 -0.16975424
v 0.70929193 1.56699443 -0.16903278
v 0.70925933 1.56707728 -0.16603410
v 0.69184589 1.58625877 -0.16975424
v 0.70925933 1.56707728 -0.16603410
v 0.69181329 1.58634162 -0.16675556
vt 0.00000000 0.00000000
vt 0.00000000 0.00000000
vt 0.00000000 0.00000000
vt 0.00000000 0.00000000
vt 0.00000000 0.00000000
vt 0.00000000 0.00000000
vt 0.00000000 0.00000000
vt 0.00000000 0.00000000
vt 0.00000000 0.00000000
vt 0.00000000 0.00000000
vt 0.00000000 0.00000000
vt 0.00000000 0.00000000
vt 0.00000000 0.00000000
vt 0.00000000 0.00000000
vt 0.00000000 0.00000000
vt 0.00000000 0.00000000
vt 0.00000000 0.00000000
vt 0.00000000 0.00000000
vt 0.00000000 0.00000000
vt 0.00000000 0.00000000
vt 0.00000000 0.00000000
vt 0.00000000 0.00000000
vt 0.00000000 0.00000000
vt 0.00000000 0.00000000
vt 0.00000000 0.00000000
vt 0.00000000 0.00000000
vt 0.00000000 0.00000000
vt 0.00000000 0.00000000
vt 0.00000000 0.00000000
vt 0.00000000 0.00000000
vt 0.00000000 0.00000000
vt 0.00000000 0.00000000
vt 0.00000000 0.00000000
vt 0.00000000 0.00000000
vt 0.00000000 0.00000000
vt 0.00000000 0.00000000
f 1/1 2/2 3/3
f 4/4 5/5 6/6
f 7/7 8/8 9/9
f 10/10 11/11 12/12
f 13/13 14/14 15/15
f 16/16 17/17 18/18
f 19/19 20/20 21/21
f 22/22 23/23 24/24
f 25/25 26/26 27/27
f 28/28 29/29 30/30
f 31/31 32/32 33/33
f 34/34 35/35 36/36

