# https://github.com/mikedh/trimesh
mtllib material.mtl
usemtl WhiteSolidSurface
v 6.51436949 2.90154791 -0.43383172
v 7.52916622 1.72772467 -0.45142171
v 7.09662151 1.35393274 -0.43059897
v 6.51436949 2.90154791 -0.43383172
v 7.09662151 1.35393274 -0.43059897
v 6.08182478 2.52775598 -0.41300899
v 6.08135319 2.52734828 -0.37801456
v 7.09614944 1.35352504 -0.39560452
v 7.52869415 1.72731698 -0.41642725
v 6.08135319 2.52734828 -0.37801456
v 7.52869415 1.72731698 -0.41642725
v 6.51389790 2.90114021 -0.39883730
v 6.08182478 2.52775598 -0.41300899
v 7.09662151 1.35393274 -0.43059897
v 7.09614944 1.35352504 -0.39560452
v 6.08182478 2.52775598 -0.41300899
v 7.09614944 1.35352504 -0.39560452
v 6.08135319 2.52734828 -0.37801456
v 7.09662151 1.35393274 -0.43059897
v 7.52916622 1.72772467 -0.45142171
v 7.52869415 1.72731698 -0.41642725
v 7.09662151 1.35393274 -0.43059897
v 7.52869415 1.72731698 -0.41642725
v 7.09614944 1.35352504 -0.39560452
v 7.52916622 1.72772467 -0.45142171
v 6.51436949 2.90154791 -0.43383172
v 6.51389790 2.90114021 -0.39883730
v 7.52916622 1.72772467 -0.45142171
v 6.51389790 2.90114021 -0.39883730
v 7.52869415 1.72731698 -0.41642725
v 6.51436949 2.90154791 -0.43383172
v 6.08182478 2.52775598 -0.41300899
v 6.08135319 2.52734828 -0.37801456
v 6.51436949 2.90154791 -0.43383172
v 6.08135319 2.52734828 -0.37801456
v 6.51389790 2.90114021 -0.39883730
vt 0.00000000 0.00000000
vt 0.00000000 0.00000000
vt 0.00000000 0.00000000
vt 0.00000000 0.00000000
vt 0.00000000 0.00000000
vt 0.00000000 0.00000000
vt 0.00000000 0.00000000
vt 0.00000000 0.00000000
vt 0.00000000 0.00000000
vt 0.00000000 0.00000000
vt 0.00000000 0.00000000
vt 0.00000000 0.00000000
vt 0.00000000 0.00000000
vt 0.00000000 0.00000000
vt 0.00000000 0.00000000
vt 0.00000000 0.00000000
vt 0.00000000 0.00000000
vt 0.00000000 0.00000000
vt 0.00000000 0.00000000
vt 0.00000000 0.00000000
vt 0.00000000 0.00000000
vt 0.00000000 0.00000000
vt 0.00000000 0.00000000
vt 0.00000000 0.00000000
vt 0.00000000 0.00000000
vt 0.00000000 0.00000000
vt 0.00000000 0.00000000
vt 0.00000000 0.00000000
vt 0.00000000 0.00000000
vt 0.00000000 0.00000000
vt 0.00000000 0.00000000
vt 0.00000000 0.00000000
vt 0.00000000 0.00000000
vt 0.00000000 0.00000000
vt 0.00000000 0.00000000
vt 0.00000000 0.00000000
f 1/1 2/2 3/3
f 4/4 5/5 6/6
f 7/7 8/8 9/9
f 10/10 11/11 12/12
f 13/13 14/14 15/15
f 16/16 17/17 18/18
f 19/19 20/20 21/21
f 22/22 23/23 24/24
f 25/25 26/26 27/27
f 28/28 29/29 30/30
f 31/31 32/32 33/33
f 34/34 35/35 36/36

