# https://github.com/mikedh/trimesh
mtllib material.mtl
usemtl WhiteSolidSurface
v -0.83751482 0.48453462 -0.34264013
v -0.05299453 1.16757607 -0.35296538
v 0.30191973 0.75980359 -0.33785039
v -0.83751482 0.48453462 -0.34264013
v 0.30191973 0.75980359 -0.33785039
v -0.48260054 0.07676208 -0.32752517
v -0.48223776 0.07634526 -0.29252952
v 0.30228251 0.75938678 -0.30285475
v -0.05263175 1.16715932 -0.31796974
v -0.48223776 0.07634526 -0.29252952
v -0.05263175 1.16715932 -0.31796974
v -0.83715200 0.48411781 -0.30764452
v -0.48260054 0.07676208 -0.32752517
v 0.30191973 0.75980359 -0.33785039
v 0.30228251 0.75938678 -0.30285475
v -0.48260054 0.07676208 -0.32752517
v 0.30228251 0.75938678 -0.30285475
v -0.48223776 0.07634526 -0.29252952
v 0.30191973 0.75980359 -0.33785039
v -0.05299453 1.16757607 -0.35296538
v -0.05263175 1.16715932 -0.31796974
v 0.30191973 0.75980359 -0.33785039
v -0.05263175 1.16715932 -0.31796974
v 0.30228251 0.75938678 -0.30285475
v -0.05299453 1.16757607 -0.35296538
v -0.83751482 0.48453462 -0.34264013
v -0.83715200 0.48411781 -0.30764452
v -0.05299453 1.16757607 -0.35296538
v -0.83715200 0.48411781 -0.30764452
v -0.05263175 1.16715932 -0.31796974
v -0.83751482 0.48453462 -0.34264013
v -0.48260054 0.07676208 -0.32752517
v -0.48223776 0.07634526 -0.29252952
v -0.83751482 0.48453462 -0.34264013
v -0.48223776 0.07634526 -0.29252952
v -0.83715200 0.48411781 -0.30764452
vt 0.00000000 0.00000000
vt 0.00000000 0.00000000
vt 0.00000000 0.00000000
vt 0.00000000 0.00000000
vt 0.00000000 0.00000000
vt 0.00000000 0.00000000
vt 0.00000000 0.00000000
vt 0.00000000 0.00000000
vt 0.00000000 0.00000000
vt 0.00000000 0.00000000
vt 0.00000000 0.00000000
vt 0.00000000 0.00000000
vt 0.00000000 0.00000000
vt 0.00000000 0.00000000
vt 0.00000000 0.00000000
vt 0.00000000 0.00000000
vt 0.00000000 0.00000000
vt 0.00000000 0.00000000
vt 0.00000000 0.00000000
vt 0.00000000 0.00000000
vt 0.00000000 0.00000000
vt 0.00000000 0.00000000
vt 0.00000000 0.00000000
vt 0.00000000 0.00000000
vt 0.00000000 0.00000000
vt 0.00000000 0.00000000
vt 0.00000000 0.00000000
vt 0.00000000 0.00000000
vt 0.00000000 0.00000000
vt 0.00000000 0.00000000
vt 0.00000000 0.00000000
vt 0.00000000 0.00000000
vt 0.00000000 0.00000000
vt 0.00000000 0.00000000
vt 0.00000000 0.00000000
vt 0.00000000 0.00000000
f 1/1 2/2 3/3
f 4/4 5/5 6/6
f 7/7 8/8 9/9
f 10/10 11/11 12/12
f 13/13 14/14 15/15
f 16/16 17/17 18/18
f 19/19 20/20 21/21
f 22/22 23/23 24/24
f 25/25 26/26 27/27
f 28/28 29/29 30/30
f 31/31 32/32 33/33
f 34/34 35/35 36/36

