# https://github.com/mikedh/trimesh
mtllib material.mtl
usemtl DarkPlastic
v 6.73308659 2.55779934 -0.98029655
v 7.02560377 2.21930432 -0.98029655
v 6.63432789 1.88117588 -0.98951083
v 6.73308659 2.55779934 -0.98029655
v 6.63432789 1.88117588 -0.98951083
v 6.34181070 2.21967101 -0.98951083
v 6.34156799 2.21946120 -0.97151369
v 6.63408518 1.88096619 -0.97151369
v 7.02536106 2.21909475 -0.96229941
v 6.34156799 2.21946120 -0.97151369
v 7.02536106 2.21909475 -0.96229941
v 6.73284388 2.55758977 -0.96229941
v 6.34181070 2.21967101 -0.98951083
v 6.63432789 1.88117588 -0.98951083
v 6.63408518 1.88096619 -0.97151369
v 6.34181070 2.21967101 -0.98951083
v 6.63408518 1.88096619 -0.97151369
v 6.34156799 2.21946120 -0.97151369
v 6.63432789 1.88117588 -0.98951083
v 7.02560377 2.21930432 -0.98029655
v 7.02536106 2.21909475 -0.96229941
v 6.63432789 1.88117588 -0.98951083
v 7.02536106 2.21909475 -0.96229941
v 6.63408518 1.88096619 -0.97151369
v 7.02560377 2.21930432 -0.98029655
v 6.73308659 2.55779934 -0.98029655
v 6.73284388 2.55758977 -0.96229941
v 7.02560377 2.21930432 -0.98029655
v 6.73284388 2.55758977 -0.96229941
v 7.02536106 2.21909475 -0.96229941
v 6.73308659 2.55779934 -0.98029655
v 6.34181070 2.21967101 -0.98951083
v 6.34156799 2.21946120 -0.97151369
v 6.73308659 2.55779934 -0.98029655
v 6.34156799 2.21946120 -0.97151369
v 6.73284388 2.55758977 -0.96229941
vt -0.49708432 0.57468438
vt 0.49708432 0.57468438
vt 0.49708432 -0.57468438
vt -0.49708432 0.57468438
vt 0.49708432 -0.57468438
vt -0.49708432 -0.57468438
vt -0.49708432 -0.57468438
vt 0.49708432 -0.57468438
vt 0.49708432 0.57468438
vt -0.49708432 -0.57468438
vt 0.49708432 0.57468438
vt -0.49708432 0.57468438
vt -0.49708432 -0.01999998
vt 0.49708432 -0.01999998
vt 0.49708432 0.01999998
vt -0.49708432 -0.01999998
vt 0.49708432 0.01999998
vt -0.49708432 0.01999998
vt -0.57468438 -0.01999998
vt 0.57468438 -0.01999998
vt 0.57468438 0.01999998
vt -0.57468438 -0.01999998
vt 0.57468438 0.01999998
vt -0.57468438 0.01999998
vt 0.49708432 -0.01999998
vt -0.49708432 -0.01999998
vt -0.49708432 0.01999998
vt 0.49708432 -0.01999998
vt -0.49708432 0.01999998
vt 0.49708432 0.01999998
vt 0.57468438 -0.01999998
vt -0.57468438 -0.01999998
vt -0.57468438 0.01999998
vt 0.57468438 -0.01999998
vt -0.57468438 0.01999998
vt 0.57468438 0.01999998
f 1/1 2/2 3/3
f 4/4 5/5 6/6
f 7/7 8/8 9/9
f 10/10 11/11 12/12
f 13/13 14/14 15/15
f 16/16 17/17 18/18
f 19/19 20/20 21/21
f 22/22 23/23 24/24
f 25/25 26/26 27/27
f 28/28 29/29 30/30
f 31/31 32/32 33/33
f 34/34 35/35 36/36

