# https://github.com/mikedh/trimesh
mtllib material.mtl
usemtl MultiviewFloor
v 2.49375582 -2.73630571 -1.21744692
v -2.59068251 0.10987338 -1.13119471
v -2.59347939 -0.03348701 -1.13221347
v 2.49375582 -2.73630571 -1.21744692
v -2.59347939 -0.03348701 -1.13221347
v -2.59284329 -0.10792602 -1.13276923
v 2.49375582 -2.73630571 -1.21744692
v -2.59284329 -0.10792602 -1.13276923
v -2.56994176 -0.36979362 -1.13498998
v 2.49375582 -2.73630571 -1.21744692
v -2.56994176 -0.36979362 -1.13498998
v -2.53025460 -0.53026086 -1.13668025
v 2.49375582 -2.73630571 -1.21744692
v -2.53025460 -0.53026086 -1.13668025
v -2.42828727 -0.73023319 -1.13946128
v 2.49375582 -2.73630571 -1.21744692
v -2.42828727 -0.73023319 -1.13946128
v -2.37125421 -0.82980454 -1.14092648
v 2.49375582 -2.73630571 -1.21744692
v -2.37125421 -0.82980454 -1.14092648
v -2.12851644 -1.12835634 -1.14624095
v 2.49375582 -2.73630571 -1.21744692
v -2.12851644 -1.12835634 -1.14624095
v 1.16640747 -4.66968536 -1.21461964
v 2.49375582 -2.73630571 -1.21744692
v 1.16640747 -4.66968536 -1.21461964
v 2.42908525 -5.87189960 -1.23968410
v 2.49375582 -2.73630571 -1.21744692
v 2.42908525 -5.87189960 -1.23968410
v 2.56817484 -5.92971468 -1.24189615
v 2.49375582 -2.73630571 -1.21744692
v 2.56817484 -5.92971468 -1.24189615
v 2.72893834 -5.96898317 -1.24425018
v 2.49375582 -2.73630571 -1.21744692
v 2.72893834 -5.96898317 -1.24425018
v 3.02914548 -6.03014469 -1.24855649
v 2.49375582 -2.73630571 -1.21744692
v 3.02914548 -6.03014469 -1.24855649
v 3.06846952 -6.03100491 -1.24906802
v 2.49375582 -2.73630571 -1.21744692
v 3.06846952 -6.03100491 -1.24906802
v 3.13145590 -6.02952433 -1.24986625
v 2.49375582 -2.73630571 -1.21744692
v 3.13145590 -6.02952433 -1.24986625
v 3.42945147 -5.97164726 -1.25326836
v 2.49375582 -2.73630571 -1.21744692
v 3.42945147 -5.97164726 -1.25326836
v 3.56993055 -5.92736292 -1.25474715
v 2.49375582 -2.73630571 -1.21744692
v 3.56993055 -5.92736292 -1.25474715
v 3.73092842 -5.87305021 -1.25641572
v 2.49375582 -2.73630571 -1.21744692
v 3.73092842 -5.87305021 -1.25641572
v 7.96307659 -4.10323858 -1.29776061
v 2.49375582 -2.73630571 -1.21744692
v 7.96307659 -4.10323858 -1.29776061
v 9.86944866 -1.83103263 -1.30553317
v 2.49375582 -2.73630571 -1.21744692
v 9.86944866 -1.83103263 -1.30553317
v 9.89111614 -1.75206554 -1.30523062
v 2.49375582 -2.73630571 -1.21744692
v 9.89111614 -1.75206554 -1.30523062
v 9.86965752 -1.68902218 -1.30449116
v 2.49375582 -2.73630571 -1.21744692
v 9.86965752 -1.68902218 -1.30449116
v 8.62649727 0.46781969 -1.27265441
v 2.49375582 -2.73630571 -1.21744692
v 8.62649727 0.46781969 -1.27265441
v 4.58361530 5.15920639 -1.18620694
v 2.49375582 -2.73630571 -1.21744692
v 4.58361530 5.15920639 -1.18620694
v -2.59068251 0.10987338 -1.13119471
vt 0.40748098 0.29442692
vt 0.00022403 0.54877234
vt 0.00000000 0.53596109
vt 0.40748098 0.29442692
vt 0.00000000 0.53596109
vt 0.00005095 0.52930892
vt 0.40748098 0.29442692
vt 0.00005095 0.52930892
vt 0.00188533 0.50590748
vt 0.40748098 0.29442692
vt 0.00188533 0.50590748
vt 0.00506422 0.49156749
vt 0.40748098 0.29442692
vt 0.00506422 0.49156749
vt 0.01323168 0.47369719
vt 0.40748098 0.29442692
vt 0.01323168 0.47369719
vt 0.01779995 0.46479911
vt 0.40748098 0.29442692
vt 0.01779995 0.46479911
vt 0.03724293 0.43811941
vt 0.40748098 0.29442692
vt 0.03724293 0.43811941
vt 0.30116209 0.12165272
vt 0.40748098 0.29442692
vt 0.30116209 0.12165272
vt 0.40230095 0.01421827
vt 0.40748098 0.29442692
vt 0.40230095 0.01421827
vt 0.41344184 0.00905168
vt 0.40748098 0.29442692
vt 0.41344184 0.00905168
vt 0.42631879 0.00554252
vt 0.40748098 0.29442692
vt 0.42631879 0.00554252
vt 0.45036501 0.00007689
vt 0.40748098 0.29442692
vt 0.45036501 0.00007689
vt 0.45351481 0.00000000
vt 0.40748098 0.29442692
vt 0.45351481 0.00000000
vt 0.45855993 0.00013232
vt 0.40748098 0.29442692
vt 0.45855993 0.00013232
vt 0.48242900 0.00530440
vt 0.40748098 0.29442692
vt 0.48242900 0.00530440
vt 0.49368119 0.00926185
vt 0.40748098 0.29442692
vt 0.49368119 0.00926185
vt 0.50657690 0.01411545
vt 0.40748098 0.29442692
vt 0.50657690 0.01411545
vt 0.84556651 0.17227256
vt 0.40748098 0.29442692
vt 0.84556651 0.17227256
vt 0.99826449 0.37532556
vt 0.40748098 0.29442692
vt 0.99826449 0.37532556
vt 1.00000000 0.38238239
vt 0.40748098 0.29442692
vt 1.00000000 0.38238239
vt 0.99828118 0.38801616
vt 0.40748098 0.29442692
vt 0.99828118 0.38801616
vt 0.89870566 0.58075976
vt 0.40748098 0.29442692
vt 0.89870566 0.58075976
vt 0.57487601 1.00000000
vt 0.40748098 0.29442692
vt 0.57487601 1.00000000
vt 0.00022403 0.54877234
f 1/1 2/2 3/3
f 4/4 5/5 6/6
f 7/7 8/8 9/9
f 10/10 11/11 12/12
f 13/13 14/14 15/15
f 16/16 17/17 18/18
f 19/19 20/20 21/21
f 22/22 23/23 24/24
f 25/25 26/26 27/27
f 28/28 29/29 30/30
f 31/31 32/32 33/33
f 34/34 35/35 36/36
f 37/37 38/38 39/39
f 40/40 41/41 42/42
f 43/43 44/44 45/45
f 46/46 47/47 48/48
f 49/49 50/50 51/51
f 52/52 53/53 54/54
f 55/55 56/56 57/57
f 58/58 59/59 60/60
f 61/61 62/62 63/63
f 64/64 65/65 66/66
f 67/67 68/68 69/69
f 70/70 71/71 72/72

