# https://github.com/mikedh/trimesh
mtllib material.mtl
usemtl DarkRecess
v 0.96690905 2.04956579 -0.06073716
v 0.96842790 2.05086660 -0.06071180
v 0.96777749 2.05162621 -0.06072059
v 0.96690905 2.04956579 -0.06073716
v 0.96777749 2.05162621 -0.06072059
v 0.96625865 2.05032516 -0.06074594
v 0.96616143 2.05033445 -0.05274654
v 0.96768028 2.05163550 -0.05272118
v 0.96833068 2.05087590 -0.05271240
v 0.96616143 2.05033445 -0.05274654
v 0.96833068 2.05087590 -0.05271240
v 0.96681184 2.04957485 -0.05273775
v 0.96625865 2.05032516 -0.06074594
v 0.96777749 2.05162621 -0.06072059
v 0.96768028 2.05163550 -0.05272118
v 0.96625865 2.05032516 -0.06074594
v 0.96768028 2.05163550 -0.05272118
v 0.96616143 2.05033445 -0.05274654
v 0.96777749 2.05162621 -0.06072059
v 0.96842790 2.05086660 -0.06071180
v 0.96833068 2.05087590 -0.05271240
v 0.96777749 2.05162621 -0.06072059
v 0.96833068 2.05087590 -0.05271240
v 0.96768028 2.05163550 -0.05272118
v 0.96842790 2.05086660 -0.06071180
v 0.96690905 2.04956579 -0.06073716
v 0.96681184 2.04957485 -0.05273775
v 0.96842790 2.05086660 -0.06071180
v 0.96681184 2.04957485 -0.05273775
v 0.96833068 2.05087590 -0.05271240
v 0.96690905 2.04956579 -0.06073716
v 0.96625865 2.05032516 -0.06074594
v 0.96616143 2.05033445 -0.05274654
v 0.96690905 2.04956579 -0.06073716
v 0.96616143 2.05033445 -0.05274654
v 0.96681184 2.04957485 -0.05273775
vt 0.00000000 0.00000000
vt 0.00000000 0.00000000
vt 0.00000000 0.00000000
vt 0.00000000 0.00000000
vt 0.00000000 0.00000000
vt 0.00000000 0.00000000
vt 0.00000000 0.00000000
vt 0.00000000 0.00000000
vt 0.00000000 0.00000000
vt 0.00000000 0.00000000
vt 0.00000000 0.00000000
vt 0.00000000 0.00000000
vt 0.00000000 0.00000000
vt 0.00000000 0.00000000
vt 0.00000000 0.00000000
vt 0.00000000 0.00000000
vt 0.00000000 0.00000000
vt 0.00000000 0.00000000
vt 0.00000000 0.00000000
vt 0.00000000 0.00000000
vt 0.00000000 0.00000000
vt 0.00000000 0.00000000
vt 0.00000000 0.00000000
vt 0.00000000 0.00000000
vt 0.00000000 0.00000000
vt 0.00000000 0.00000000
vt 0.00000000 0.00000000
vt 0.00000000 0.00000000
vt 0.00000000 0.00000000
vt 0.00000000 0.00000000
vt 0.00000000 0.00000000
vt 0.00000000 0.00000000
vt 0.00000000 0.00000000
vt 0.00000000 0.00000000
vt 0.00000000 0.00000000
vt 0.00000000 0.00000000
f 1/1 2/2 3/3
f 4/4 5/5 6/6
f 7/7 8/8 9/9
f 10/10 11/11 12/12
f 13/13 14/14 15/15
f 16/16 17/17 18/18
f 19/19 20/20 21/21
f 22/22 23/23 24/24
f 25/25 26/26 27/27
f 28/28 29/29 30/30
f 31/31 32/32 33/33
f 34/34 35/35 36/36

