# https://github.com/mikedh/trimesh
mtllib material.mtl
usemtl WhiteSolidSurface
v 4.69019175 5.01812601 0.91317868
v 5.58964968 3.97312999 0.91317868
v 5.33685064 3.75553846 0.91186696
v 4.69019175 5.01812601 0.91317868
v 5.33685064 3.75553846 0.91186696
v 4.43739271 4.80053473 0.91186696
v 4.43733931 4.80048847 0.92986685
v 5.33679676 3.75549245 0.92986685
v 5.58959579 3.97308373 0.93117857
v 4.43733931 4.80048847 0.92986685
v 5.58959579 3.97308373 0.93117857
v 4.69013834 5.01807976 0.93117857
v 4.43739271 4.80053473 0.91186696
v 5.33685064 3.75553846 0.91186696
v 5.33679676 3.75549245 0.92986685
v 4.43739271 4.80053473 0.91186696
v 5.33679676 3.75549245 0.92986685
v 4.43733931 4.80048847 0.92986685
v 5.33685064 3.75553846 0.91186696
v 5.58964968 3.97312999 0.91317868
v 5.58959579 3.97308373 0.93117857
v 5.33685064 3.75553846 0.91186696
v 5.58959579 3.97308373 0.93117857
v 5.33679676 3.75549245 0.92986685
v 5.58964968 3.97312999 0.91317868
v 4.69019175 5.01812601 0.91317868
v 4.69013834 5.01807976 0.93117857
v 5.58964968 3.97312999 0.91317868
v 4.69013834 5.01807976 0.93117857
v 5.58959579 3.97308373 0.93117857
v 4.69019175 5.01812601 0.91317868
v 4.43739271 4.80053473 0.91186696
v 4.43733931 4.80048847 0.92986685
v 4.69019175 5.01812601 0.91317868
v 4.43733931 4.80048847 0.92986685
v 4.69013834 5.01807976 0.93117857
vt -1.53198040 0.37061036
vt 1.53198040 0.37061036
vt 1.53198040 -0.37061036
vt -1.53198040 0.37061036
vt 1.53198040 -0.37061036
vt -1.53198040 -0.37061036
vt -1.53198040 -0.37061036
vt 1.53198040 -0.37061036
vt 1.53198040 0.37061036
vt -1.53198040 -0.37061036
vt 1.53198040 0.37061036
vt -1.53198040 0.37061036
vt -1.53198040 -0.01999998
vt 1.53198040 -0.01999998
vt 1.53198040 0.01999998
vt -1.53198040 -0.01999998
vt 1.53198040 0.01999998
vt -1.53198040 0.01999998
vt -0.37061036 -0.01999998
vt 0.37061036 -0.01999998
vt 0.37061036 0.01999998
vt -0.37061036 -0.01999998
vt 0.37061036 0.01999998
vt -0.37061036 0.01999998
vt 1.53198040 -0.01999998
vt -1.53198040 -0.01999998
vt -1.53198040 0.01999998
vt 1.53198040 -0.01999998
vt -1.53198040 0.01999998
vt 1.53198040 0.01999998
vt 0.37061036 -0.01999998
vt -0.37061036 -0.01999998
vt -0.37061036 0.01999998
vt 0.37061036 -0.01999998
vt -0.37061036 0.01999998
vt 0.37061036 0.01999998
f 1/1 2/2 3/3
f 4/4 5/5 6/6
f 7/7 8/8 9/9
f 10/10 11/11 12/12
f 13/13 14/14 15/15
f 16/16 17/17 18/18
f 19/19 20/20 21/21
f 22/22 23/23 24/24
f 25/25 26/26 27/27
f 28/28 29/29 30/30
f 31/31 32/32 33/33
f 34/34 35/35 36/36

