# https://github.com/mikedh/trimesh
mtllib material.mtl
usemtl DarkPlastic
v 1.23573792 2.21294022 -0.50771916
v 1.55521286 2.49100280 -0.50771916
v 1.56702888 2.47742701 -0.50800335
v 1.23573792 2.21294022 -0.50771916
v 1.56702888 2.47742701 -0.50800335
v 1.24755394 2.19936442 -0.50800335
v 1.24834931 2.19845080 -0.43128085
v 1.56782424 2.47651315 -0.43128085
v 1.55600822 2.49008894 -0.43099666
v 1.24834931 2.19845080 -0.43128085
v 1.55600822 2.49008894 -0.43099666
v 1.23653328 2.21202660 -0.43099666
v 1.24755394 2.19936442 -0.50800335
v 1.56702888 2.47742701 -0.50800335
v 1.56782424 2.47651315 -0.43128085
v 1.24755394 2.19936442 -0.50800335
v 1.56782424 2.47651315 -0.43128085
v 1.24834931 2.19845080 -0.43128085
v 1.56702888 2.47742701 -0.50800335
v 1.55521286 2.49100280 -0.50771916
v 1.55600822 2.49008894 -0.43099666
v 1.56702888 2.47742701 -0.50800335
v 1.55600822 2.49008894 -0.43099666
v 1.56782424 2.47651315 -0.43128085
v 1.55521286 2.49100280 -0.50771916
v 1.23573792 2.21294022 -0.50771916
v 1.23653328 2.21202660 -0.43099666
v 1.55521286 2.49100280 -0.50771916
v 1.23653328 2.21202660 -0.43099666
v 1.55600822 2.49008894 -0.43099666
v 1.23573792 2.21294022 -0.50771916
v 1.24755394 2.19936442 -0.50800335
v 1.24834931 2.19845080 -0.43128085
v 1.23573792 2.21294022 -0.50771916
v 1.24834931 2.19845080 -0.43128085
v 1.23653328 2.21202660 -0.43099666
vt -0.47059584 0.01999998
vt 0.47059584 0.01999998
vt 0.47059584 -0.01999998
vt -0.47059584 0.01999998
vt 0.47059584 -0.01999998
vt -0.47059584 -0.01999998
vt -0.47059584 -0.01999998
vt 0.47059584 -0.01999998
vt 0.47059584 0.01999998
vt -0.47059584 -0.01999998
vt 0.47059584 0.01999998
vt -0.47059584 0.01999998
vt -0.47059584 -0.08525789
vt 0.47059584 -0.08525789
vt 0.47059584 0.08525789
vt -0.47059584 -0.08525789
vt 0.47059584 0.08525789
vt -0.47059584 0.08525789
vt -0.02000000 -0.08525789
vt 0.02000000 -0.08525789
vt 0.02000000 0.08525789
vt -0.02000000 -0.08525789
vt 0.02000000 0.08525789
vt -0.02000000 0.08525789
vt 0.47059584 -0.08525789
vt -0.47059584 -0.08525789
vt -0.47059584 0.08525789
vt 0.47059584 -0.08525789
vt -0.47059584 0.08525789
vt 0.47059584 0.08525789
vt 0.02000000 -0.08525789
vt -0.02000000 -0.08525789
vt -0.02000000 0.08525789
vt 0.02000000 -0.08525789
vt -0.02000000 0.08525789
vt 0.02000000 0.08525789
f 1/1 2/2 3/3
f 4/4 5/5 6/6
f 7/7 8/8 9/9
f 10/10 11/11 12/12
f 13/13 14/14 15/15
f 16/16 17/17 18/18
f 19/19 20/20 21/21
f 22/22 23/23 24/24
f 25/25 26/26 27/27
f 28/28 29/29 30/30
f 31/31 32/32 33/33
f 34/34 35/35 36/36

