# https://github.com/mikedh/trimesh
mtllib material.mtl
usemtl BrushedStainless
v 3.06449842 3.20600677 -0.74780393
v 3.06902432 3.20994592 -0.74780393
v 3.07033706 3.20843768 -0.74783552
v 3.06449842 3.20600677 -0.74780393
v 3.07033706 3.20843768 -0.74783552
v 3.06581140 3.20449853 -0.74783552
v 3.06587362 3.20442700 -0.74183625
v 3.07039928 3.20836616 -0.74183625
v 3.06908655 3.20987463 -0.74180466
v 3.06587362 3.20442700 -0.74183625
v 3.06908655 3.20987463 -0.74180466
v 3.06456065 3.20593548 -0.74180466
v 3.06581140 3.20449853 -0.74783552
v 3.07033706 3.20843768 -0.74783552
v 3.07039928 3.20836616 -0.74183625
v 3.06581140 3.20449853 -0.74783552
v 3.07039928 3.20836616 -0.74183625
v 3.06587362 3.20442700 -0.74183625
v 3.07033706 3.20843768 -0.74783552
v 3.06902432 3.20994592 -0.74780393
v 3.06908655 3.20987463 -0.74180466
v 3.07033706 3.20843768 -0.74783552
v 3.06908655 3.20987463 -0.74180466
v 3.07039928 3.20836616 -0.74183625
v 3.06902432 3.20994592 -0.74780393
v 3.06449842 3.20600677 -0.74780393
v 3.06456065 3.20593548 -0.74180466
v 3.06902432 3.20994592 -0.74780393
v 3.06456065 3.20593548 -0.74180466
v 3.06908655 3.20987463 -0.74180466
v 3.06449842 3.20600677 -0.74780393
v 3.06581140 3.20449853 -0.74783552
v 3.06587362 3.20442700 -0.74183625
v 3.06449842 3.20600677 -0.74780393
v 3.06587362 3.20442700 -0.74183625
v 3.06456065 3.20593548 -0.74180466
vt 0.00000000 0.00000000
vt 0.00000000 0.00000000
vt 0.00000000 0.00000000
vt 0.00000000 0.00000000
vt 0.00000000 0.00000000
vt 0.00000000 0.00000000
vt 0.00000000 0.00000000
vt 0.00000000 0.00000000
vt 0.00000000 0.00000000
vt 0.00000000 0.00000000
vt 0.00000000 0.00000000
vt 0.00000000 0.00000000
vt 0.00000000 0.00000000
vt 0.00000000 0.00000000
vt 0.00000000 0.00000000
vt 0.00000000 0.00000000
vt 0.00000000 0.00000000
vt 0.00000000 0.00000000
vt 0.00000000 0.00000000
vt 0.00000000 0.00000000
vt 0.00000000 0.00000000
vt 0.00000000 0.00000000
vt 0.00000000 0.00000000
vt 0.00000000 0.00000000
vt 0.00000000 0.00000000
vt 0.00000000 0.00000000
vt 0.00000000 0.00000000
vt 0.00000000 0.00000000
vt 0.00000000 0.00000000
vt 0.00000000 0.00000000
vt 0.00000000 0.00000000
vt 0.00000000 0.00000000
vt 0.00000000 0.00000000
vt 0.00000000 0.00000000
vt 0.00000000 0.00000000
vt 0.00000000 0.00000000
f 1/1 2/2 3/3
f 4/4 5/5 6/6
f 7/7 8/8 9/9
f 10/10 11/11 12/12
f 13/13 14/14 15/15
f 16/16 17/17 18/18
f 19/19 20/20 21/21
f 22/22 23/23 24/24
f 25/25 26/26 27/27
f 28/28 29/29 30/30
f 31/31 32/32 33/33
f 34/34 35/35 36/36

