# https://github.com/mikedh/trimesh
mtllib material.mtl
usemtl DarkRecess
v 5.64166260 2.99019623 -0.51599061
v 5.83410406 2.76750660 -0.51599061
v 5.83183479 2.76554537 -0.51604402
v 5.64166260 2.99019623 -0.51599061
v 5.83183479 2.76554537 -0.51604402
v 5.63939333 2.98823500 -0.51604402
v 5.63804531 2.98707008 -0.41605991
v 5.83048677 2.76438046 -0.41605991
v 5.83275604 2.76634169 -0.41600648
v 5.63804531 2.98707008 -0.41605991
v 5.83275604 2.76634169 -0.41600648
v 5.64031458 2.98903131 -0.41600648
v 5.63939333 2.98823500 -0.51604402
v 5.83183479 2.76554537 -0.51604402
v 5.83048677 2.76438046 -0.41605991
v 5.63939333 2.98823500 -0.51604402
v 5.83048677 2.76438046 -0.41605991
v 5.63804531 2.98707008 -0.41605991
v 5.83183479 2.76554537 -0.51604402
v 5.83410406 2.76750660 -0.51599061
v 5.83275604 2.76634169 -0.41600648
v 5.83183479 2.76554537 -0.51604402
v 5.83275604 2.76634169 -0.41600648
v 5.83048677 2.76438046 -0.41605991
v 5.83410406 2.76750660 -0.51599061
v 5.64166260 2.99019623 -0.51599061
v 5.64031458 2.98903131 -0.41600648
v 5.83410406 2.76750660 -0.51599061
v 5.64031458 2.98903131 -0.41600648
v 5.83275604 2.76634169 -0.41600648
v 5.64166260 2.99019623 -0.51599061
v 5.63939333 2.98823500 -0.51604402
v 5.63804531 2.98707008 -0.41605991
v 5.64166260 2.99019623 -0.51599061
v 5.63804531 2.98707008 -0.41605991
v 5.64031458 2.98903131 -0.41600648
vt 0.00000000 0.00000000
vt 0.00000000 0.00000000
vt 0.00000000 0.00000000
vt 0.00000000 0.00000000
vt 0.00000000 0.00000000
vt 0.00000000 0.00000000
vt 0.00000000 0.00000000
vt 0.00000000 0.00000000
vt 0.00000000 0.00000000
vt 0.00000000 0.00000000
vt 0.00000000 0.00000000
vt 0.00000000 0.00000000
vt 0.00000000 0.00000000
vt 0.00000000 0.00000000
vt 0.00000000 0.00000000
vt 0.00000000 0.00000000
vt 0.00000000 0.00000000
vt 0.00000000 0.00000000
vt 0.00000000 0.00000000
vt 0.00000000 0.00000000
vt 0.00000000 0.00000000
vt 0.00000000 0.00000000
vt 0.00000000 0.00000000
vt 0.00000000 0.00000000
vt 0.00000000 0.00000000
vt 0.00000000 0.00000000
vt 0.00000000 0.00000000
vt 0.00000000 0.00000000
vt 0.00000000 0.00000000
vt 0.00000000 0.00000000
vt 0.00000000 0.00000000
vt 0.00000000 0.00000000
vt 0.00000000 0.00000000
vt 0.00000000 0.00000000
vt 0.00000000 0.00000000
vt 0.00000000 0.00000000
f 1/1 2/2 3/3
f 4/4 5/5 6/6
f 7/7 8/8 9/9
f 10/10 11/11 12/12
f 13/13 14/14 15/15
f 16/16 17/17 18/18
f 19/19 20/20 21/21
f 22/22 23/23 24/24
f 25/25 26/26 27/27
f 28/28 29/29 30/30
f 31/31 32/32 33/33
f 34/34 35/35 36/36

