# https://github.com/mikedh/trimesh
v 0.04992027 -0.037712646 -0.03601389
v -0.007322214 -0.06235521 0.03583448
v -0.007432368 -0.062402556 0.03584208
v -0.008854578 -0.063022686 -0.0319456
v -0.037109184 0.002589156 -0.03196599
v 0.051346776 -0.0370908 0.03197365
v -0.007318212 -0.06235335 0.03603433
v 0.023092176 0.028520892 0.03195326
v -0.035572812 0.003258348 0.03601395
v 0.007602312 0.06236136 -0.00486256
v 0.021618174 0.028009344 -0.03603433
v -0.037046526 0.002746794 -0.03197365
v -0.037219332 0.00254166 -0.03195836
v -0.035797122 0.003161646 0.03582932
v -0.051235488 0.03689382 -0.00078662
v 0.007909014 0.06170547 -0.00388967
v -0.051174258 0.037283922 -0.00208537
v 0.007490442 0.062546466 -0.00614606
v 0.007390596 0.062796666 -0.0058354
v -0.051274392 0.03753426 -0.00177471
v -0.051335046 0.037701486 -0.00131594
v -0.051346776 0.03776028 -0.0007789
v 0.007317924 0.063022686 -0.00483958
v 0.007329942 0.062964036 -0.00537662
v -0.051308154 0.037701486 -0.00024535
v 0.007356546 0.062964036 -0.00430603
v 0.007439802 0.062796666 -0.00385721
v -0.051224898 0.03753426 0.00020348
v -0.051109884 0.037283922 0.00049926
v 0.007554816 0.062546466 -0.00356142
f 6 4 1
f 4 11 1
f 2 4 6
f 6 7 2
f 6 1 16
f 16 1 11
f 30 29 9
f 12 11 4
f 13 17 12
f 4 2 3
f 3 2 7
f 6 16 8
f 30 9 8
f 15 25 22
f 15 17 13
f 4 13 5
f 5 12 4
f 13 12 5
f 18 19 11
f 11 12 18
f 18 12 17
f 17 15 20
f 20 18 17
f 19 18 20
f 28 15 29
f 25 15 28
f 28 29 30
f 7 9 14
f 14 3 7
f 14 9 29
f 29 15 14
f 14 15 13
f 14 13 4
f 4 3 14
f 27 8 16
f 30 8 27
f 27 28 30
f 21 15 22
f 21 20 15
f 24 27 16
f 19 20 24
f 20 21 24
f 22 23 24
f 24 21 22
f 10 24 16
f 19 24 10
f 10 16 11
f 11 19 10
f 26 24 23
f 27 24 26
f 22 25 26
f 26 23 22
f 25 28 26
f 28 27 26
f 8 9 7
f 8 7 6

